<?xml version="1.0" encoding="utf-8"?>
<!-- Generator: Adobe Illustrator 26.3.1, SVG Export Plug-In . SVG Version: 6.00 Build 0)  -->
<svg version="1.1" id="Livello_1" xmlns="http://www.w3.org/2000/svg" xmlns:xlink="http://www.w3.org/1999/xlink" x="0px" y="0px"
	 viewBox="0 0 832 595" style="enable-background:new 0 0 832 595;" xml:space="preserve">
<style type="text/css">
	.st0{fill:#0047CC;}
	.st1{fill:#6691E0;}
	.st2{fill:#CCDAF5;}
	.st3{fill:#99B5EB;}
	.st4{fill:#003599;}
	.st5{fill:none;stroke:#000000;stroke-linecap:square;stroke-linejoin:round;}
	.st6{enable-background:new    ;}
	.st7{fill:none;}
	.st8{fill:none;stroke:#A6CEE3;stroke-linejoin:round;}
	.st9{fill:none;stroke:#B2DF8A;stroke-linejoin:round;}
	.st10{fill:none;stroke:#FB9A99;stroke-linejoin:round;}
	.st11{fill:none;stroke:#E31A1C;stroke-linejoin:round;}
	.st12{fill:none;stroke:#FDBF6F;stroke-linejoin:round;}
	.st13{fill:#A6CEE3;}
	.st14{fill:#B2DF8A;}
	.st15{fill:#FB9A99;}
	.st16{fill:#E31A1C;}
	.st17{fill:#FDBF6F;}
	.st18{fill:#1F78B4;}
	.st19{fill:#33A02C;}
	.st20{fill:none;stroke:#99B5EB;stroke-width:5;stroke-linejoin:round;stroke-dasharray:1,5;}
	.st21{fill:none;stroke:#003599;stroke-width:5;stroke-linejoin:round;stroke-dasharray:1,5;}
	.st22{fill:none;stroke:#0047CC;stroke-width:4;stroke-miterlimit:10;}
	.st23{fill:none;stroke:#6691E0;stroke-width:4;stroke-linejoin:round;}
	.st24{fill:none;stroke:#CCDAF5;stroke-width:4;stroke-linejoin:round;}
</style>
<g>
	<path class="st3" d="M117.1,504.7l-1,0l0-5l1,0L117.1,504.7z M122.1,504.6l-0.1-5l1,0l0.1,5L122.1,504.6z M111.1,504.6l-1,0l0.1-5
		l1,0L111.1,504.6z M105,504.5l-1,0l0.1-5l1,0L105,504.5z M128.2,504.4l-0.3-5l1-0.1l0.3,5L128.2,504.4z M99,504.3l-1,0l0.2-5l1,0
		L99,504.3z M93,504l-1-0.1l0.3-5l1,0.1L93,504z M134.3,503.9l-0.5-5c0.3,0,0.6-0.1,1-0.1l0.6,5C135,503.8,134.6,503.8,134.3,503.9z
		 M87,503.6l-1-0.1l0.3-5l1,0.1L87,503.6z M81,503.3l-1-0.1l0.3-5l1,0.1L81,503.3z M140.4,503.1l-0.7-4.9l1-0.1l0.8,4.9L140.4,503.1
		z M75,502.9l-1-0.1l0.3-5l1,0.1L75,502.9z M69.1,502.6l-1,0l0.2-5l1,0L69.1,502.6z M63.1,502.4l-1,0l0.1-5l1,0L63.1,502.4z
		 M57.2,502.3l-1,0l0.1-5l1,0L57.2,502.3z M51.2,502.3l-1,0v-5l1,0L51.2,502.3z M146.3,502.1l-0.9-4.9l1-0.2l0.9,4.9L146.3,502.1z
		 M152.3,501l-1-4.9l1-0.2l1,4.9L152.3,501z M158.1,499.9l-0.9-4.9l1-0.2l0.9,4.9L158.1,499.9z M164,498.9l-0.8-4.9l1-0.2l0.7,4.9
		L164,498.9z M169.8,498.1l-0.5-5l1-0.1l0.5,5L169.8,498.1z M175.7,497.6l-0.3-5l1-0.1l0.3,5L175.7,497.6z M181.5,497.3l-0.1-5l1,0
		l0.1,5L181.5,497.3z M187.5,497.2l0-5l1,0l0,5L187.5,497.2z M193.5,497.1l-0.1-5l1,0l0.1,5L193.5,497.1z M199.6,497l-0.2-5l1,0
		l0.2,5L199.6,497z M529.7,496.9l0-5l1,0l0,5L529.7,496.9z M535.7,496.9l-0.1-5l1,0l0.1,5L535.7,496.9z M524.6,496.9
		c-0.4,0-0.7,0-1.1-0.1l0.3-5c0.3,0,0.6,0,0.9,0.1L524.6,496.9z M541.8,496.8l-0.1-5l1,0l0.1,5L541.8,496.8z M205.6,496.7l-0.3-5
		l1-0.1l0.3,5L205.6,496.7z M547.8,496.6l-0.2-5l1,0l0.2,5L547.8,496.6z M553.8,496.4l-0.2-5l0.9,0l0.3,5L553.8,496.4z M211.6,496.3
		l-0.3-5l1-0.1l0.4,5L211.6,496.3z M518.4,496.3c-0.3-0.1-0.7-0.1-1-0.2l0.9-4.9c0.3,0.1,0.6,0.1,0.9,0.2L518.4,496.3z M559.8,496.1
		l-0.2-5l1,0l0.2,5L559.8,496.1z M217.6,495.9l-0.4-5l1-0.1l0.4,5L217.6,495.9z M565.8,495.8l-0.2-5l1,0l0.2,5L565.8,495.8z
		 M571.8,495.5l-0.2-5l1,0l0.2,5L571.8,495.5z M223.6,495.4l-0.4-5l0.9-0.1l0.3,2.5l0.1,2.5L223.6,495.4z M577.7,495.3l-0.1-5l1,0
		l0.1,5L577.7,495.3z M662.5,495.2h-1v-5h1V495.2z M656.5,495.2l-1,0l0-5l1,0V495.2z M650.5,495.2l-1,0v-5l1,0L650.5,495.2z
		 M644.6,495.2l-1,0l0-5l1,0L644.6,495.2z M667.6,495.2l-0.1-5l1,0l0.1,5L667.6,495.2z M583.7,495.2l-0.1-5l1,0l0.1,5L583.7,495.2z
		 M638.6,495.2l-1,0l0-5l1,0L638.6,495.2z M632.6,495.2l-1,0l0-5l1,0L632.6,495.2z M626.6,495.1l0-2.5L626.6,495.1l-1,0l0-5l1,0
		L626.6,495.1z M620.6,495.1l-1,0l0-5l1,0L620.6,495.1z M589.6,495.1l0-5l1,0l0,5L589.6,495.1z M614.6,495.1l-1,0l0-5l1,0
		L614.6,495.1z M608.6,495.1l-1,0v-5l1,0L608.6,495.1z M602.6,495.1l-1,0l0-5l1,0V495.1z M596.6,495.1h-1v-5h1V495.1z M673.7,495
		l-0.3-5l1-0.1l0.3,5L673.7,495z M229.5,494.9l-0.4-5l1-0.1l0.3,5L229.5,494.9z M512.2,494.9c-0.3-0.1-0.7-0.2-1-0.3l1.5-4.8
		c0.3,0.1,0.6,0.2,0.9,0.3L512.2,494.9z M679.7,494.5l-0.5-5l1-0.1l0.5,5L679.7,494.5z M235.5,494.5l-0.3-5l1-0.1l0.3,5L235.5,494.5
		z M241.4,494.3l-0.2-5l1,0l0.2,5L241.4,494.3z M247.4,494.1l-0.1-5l1,0l0.1,5L247.4,494.1z M253.3,494l0-5l1,0v5L253.3,494z
		 M685.8,493.9l-0.6-5l1-0.1l0.6,5L685.8,493.9z M259.6,493.7l-0.6-5c0.3,0,0.6-0.1,0.9-0.1l0.7,5
		C260.3,493.7,259.9,493.7,259.6,493.7z M691.8,493l-0.8-4.9l1-0.2l0.8,4.9L691.8,493z M506.3,492.8c-0.3-0.1-0.6-0.3-1-0.4l2-4.6
		c0.3,0.1,0.6,0.3,0.9,0.4L506.3,492.8z M265.8,492.6l-1.3-4.8c0.3-0.1,0.6-0.2,0.9-0.3l1.4,4.8
		C266.5,492.4,266.2,492.5,265.8,492.6z M697.7,492.1l-0.8-4.9l1-0.2l0.8,4.9L697.7,492.1z M703.6,491.1l-0.8-4.9l1-0.2l0.8,4.9
		L703.6,491.1z M271.8,490.5l-2-4.6c0.3-0.1,0.6-0.3,0.9-0.4l2.1,4.5C272.5,490.2,272.1,490.3,271.8,490.5z M709.5,490.3l-0.6-5
		l1-0.1l0.6,5L709.5,490.3z M500.7,490.2c-0.3-0.2-0.6-0.3-0.9-0.5l2.4-4.4c0.3,0.2,0.6,0.3,0.9,0.5L500.7,490.2z M715.3,489.6
		l-0.5-5l1-0.1l0.4,5L715.3,489.6z M721.2,489.2l-0.3-5l1-0.1l0.3,5L721.2,489.2z M727.1,488.9l-0.1-5l1,0l0.1,5L727.1,488.9z
		 M734.1,488.9h-1v-5h1V488.9z M740.1,488.9h-1v-5h1V488.9z M746.1,488.9h-1v-5h1V488.9z M751.1,488.9l0-5l1,0v5L751.1,488.9z
		 M757.1,488.9l0-5l1,0v5L757.1,488.9z M763,488.9l0-5l1,0v5L763,488.9z M769,488.9l0-5l1,0v5L769,488.9z M775,488.9l0-5l1,0v5
		L775,488.9z M781,488.8l0-5l1,0v5L781,488.8z M788,488.8h-1v-5h1V488.8z M800,488.8h-1v-5h1V488.8z M794,488.8h-1v-5h1V488.8z
		 M277.4,487.6l-2.5-4.3c0.3-0.2,0.6-0.3,0.8-0.5l2.6,4.3C278,487.3,277.7,487.4,277.4,487.6z M495.3,487.2l-0.9-0.5l2.5-4.3
		l0.9,0.5L495.3,487.2z M282.6,484.2l-2.9-4.1l0.8-0.6l2.9,4.1L282.6,484.2z M490.2,484.1l-0.9-0.5l2.6-4.3l0.9,0.5L490.2,484.1z
		 M485.1,481.2l-0.9-0.5l2.4-4.4l0.9,0.5L485.1,481.2z M287.5,480.6l-3.1-4l0.8-0.6l3.1,3.9L287.5,480.6z M479.9,478.6
		c-0.3-0.1-0.6-0.3-0.9-0.4l2-4.6c0.3,0.1,0.6,0.3,1,0.4L479.9,478.6z M292.3,476.9l-3.1-3.9l0.8-0.6l3.1,4L292.3,476.9z
		 M474.5,476.5c-0.3-0.1-0.6-0.2-0.9-0.3l1.5-4.8c0.3,0.1,0.7,0.2,1,0.3L474.5,476.5z M469,475c-0.3-0.1-0.6-0.1-0.9-0.2l0.9-4.9
		c0.3,0.1,0.7,0.1,1,0.2L469,475z M463.4,474.3c-0.3,0-0.6,0-1-0.1l0.3-5c0.3,0,0.7,0,1,0.1L463.4,474.3z M457.5,474.1
		c-0.4,0-0.7,0-1.1,0l0.3-5c0.3,0,0.6,0,0.9,0L457.5,474.1z M451.2,473.4c-0.4-0.1-0.7-0.1-1-0.2l1-4.9c0.3,0.1,0.6,0.1,0.9,0.2
		L451.2,473.4z M297,473.3l-2.9-4.1l0.8-0.6l2.9,4.1L297,473.3z M445.1,471.9c-0.3-0.1-0.7-0.2-1-0.3l1.7-4.7
		c0.3,0.1,0.6,0.2,0.9,0.3L445.1,471.9z M301.8,470.1l-2.6-4.3c0.3-0.2,0.6-0.4,0.9-0.5l2.5,4.3C302.3,469.8,302.1,470,301.8,470.1z
		 M439.2,469.5c-0.3-0.2-0.6-0.3-0.9-0.5l2.3-4.5c0.3,0.1,0.6,0.3,0.8,0.4L439.2,469.5z M306.8,467.5l-2.1-4.6
		c0.3-0.1,0.6-0.3,1-0.4l2,4.6C307.4,467.2,307.1,467.3,306.8,467.5z M433.7,466.5c-0.3-0.2-0.6-0.4-0.9-0.5l2.7-4.2
		c0.3,0.2,0.5,0.3,0.8,0.5L433.7,466.5z M312.1,465.5l-1.4-4.8c0.3-0.1,0.7-0.2,1-0.3l1.3,4.8C312.7,465.4,312.4,465.4,312.1,465.5z
		 M317.6,464.4l-0.6-5c0.3,0,0.7-0.1,1-0.1l0.5,5C318.2,464.3,317.9,464.3,317.6,464.4z M323.3,464.1l0-5c0.3,0,0.6,0,1,0l0.1,5
		C324,464.1,323.6,464.1,323.3,464.1z M329.5,463.7l-0.5-5c0.3,0,0.6-0.1,1-0.1l0.6,5C330.2,463.7,329.8,463.7,329.5,463.7z
		 M428.6,463.1l-0.8-0.6l2.9-4.1l0.8,0.6L428.6,463.1z M335.6,462.8l-1-4.9c0.3-0.1,0.6-0.1,0.9-0.2l1,4.9
		C336.3,462.7,336,462.8,335.6,462.8z M341.7,461.3l-1.5-4.8c0.3-0.1,0.6-0.2,0.9-0.3l1.5,4.8C342.4,461.1,342,461.2,341.7,461.3z
		 M423.7,459.5l-0.8-0.6l3-4l0.8,0.6L423.7,459.5z M347.6,459.3l-1.9-4.6c0.3-0.1,0.6-0.2,0.9-0.4l1.9,4.6
		C348.2,459,347.9,459.1,347.6,459.3z M353.2,456.8l-2.1-4.5l0.9-0.4l2.1,4.5L353.2,456.8z M418.9,456l-0.8-0.6l2.9-4.1l0.8,0.6
		L418.9,456z M358.6,454.2l-2.2-4.5l0.9-0.4l2.2,4.5L358.6,454.2z M414.1,452.7c-0.3-0.2-0.5-0.3-0.8-0.5l2.6-4.3
		c0.3,0.2,0.6,0.4,0.9,0.5L414.1,452.7z M364,451.7l-2.1-4.6c0.3-0.1,0.6-0.3,0.9-0.4l2,4.6L364,451.7z M409.1,449.9
		c-0.3-0.1-0.6-0.3-0.9-0.4l2.1-4.5c0.3,0.1,0.6,0.3,0.9,0.5L409.1,449.9z M369.4,449.5l-1.7-4.7c0.3-0.1,0.6-0.2,1-0.4l1.7,4.7
		C370,449.2,369.7,449.3,369.4,449.5z M403.9,447.7c-0.3-0.1-0.6-0.2-0.9-0.3l1.5-4.8c0.3,0.1,0.7,0.2,1,0.3L403.9,447.7z
		 M374.8,447.7l-1.3-4.8c0.3-0.1,0.7-0.2,1-0.3l1.3,4.8C375.5,447.5,375.2,447.6,374.8,447.7z M380.5,446.4l-0.8-4.9
		c0.3-0.1,0.7-0.1,1-0.2l0.8,4.9C381.1,446.3,380.8,446.4,380.5,446.4z M398.5,446.2c-0.3-0.1-0.6-0.1-0.9-0.2l0.8-4.9
		c0.3,0.1,0.7,0.1,1,0.2L398.5,446.2z M386.2,445.7l-0.4-5c0.3,0,0.7,0,1-0.1l0.3,5C386.8,445.7,386.5,445.7,386.2,445.7z
		 M392.9,445.6c-0.3,0-0.6,0-0.9,0l0.1-5c0.4,0,0.7,0,1.1,0L392.9,445.6z"/>
</g>
<g>
	<path class="st4" d="M184.6,298.4l-1,0l0.1-5l1,0L184.6,298.4z M178.5,298.2c-0.3,0-0.7,0-1-0.1l0.3-5l1,0.1L178.5,298.2z
		 M190,298.2l-0.6-5c0.3,0,0.6-0.1,0.9-0.1l0.8,4.9C190.7,298.1,190.3,298.2,190,298.2z M172.4,297.7l-1-0.1l0.5-5l1,0.1
		L172.4,297.7z M166.4,296.9c-0.3-0.1-0.7-0.1-1-0.2l0.8-4.9c0.3,0.1,0.6,0.1,1,0.2L166.4,296.9z M196.3,296.7l-1.7-4.7
		c0.3-0.1,0.6-0.2,0.8-0.3l1.9,4.6C197,296.4,196.6,296.5,196.3,296.7z M160.4,295.9l-1-0.2l1-4.9l1,0.2L160.4,295.9z M154.4,294.6
		l-1-0.2l1.1-4.9l1,0.2L154.4,294.6z M202.1,293.8l-2.6-4.3c0.3-0.2,0.5-0.3,0.8-0.5l2.7,4.2C202.7,293.5,202.4,293.6,202.1,293.8z
		 M148.6,293.3l-1-0.2l1.1-4.9l1,0.2L148.6,293.3z M142.8,292.1l-1-0.2l0.9-4.9l1,0.2L142.8,292.1z M137,291c-0.3,0-0.6-0.1-1-0.1
		l0.7-5c0.3,0,0.7,0.1,1,0.1L137,291z M131.2,290.3l-1-0.1l0.5-5c0.3,0,0.7,0.1,1,0.1L131.2,290.3z M207.3,290.1l-3.2-3.8
		c0.2-0.2,0.5-0.4,0.7-0.6l3.3,3.8C207.8,289.6,207.5,289.9,207.3,290.1z M125.3,289.9l-1,0l0.2-5l1,0L125.3,289.9z M119.4,289.7
		l-1,0l0-5l1,0L119.4,289.7z M113.4,289.6l-1,0l0.1-5l1,0L113.4,289.6z M107.3,289.4l-1-0.1l0.3-5l1,0.1L107.3,289.4z M101.3,289
		l-1-0.1l0.4-5l1,0.1L101.3,289z M95.2,288.4l-1-0.1l0.6-5l1,0.1L95.2,288.4z M89.2,287.6l-1-0.1l0.7-4.9l1,0.1L89.2,287.6z
		 M83.3,286.8l-1-0.1l0.7-4.9l1,0.1L83.3,286.8z M77.4,285.9l-1-0.1l0.7-5l1,0.1L77.4,285.9z M211.8,285.8l-3.6-3.5l0.7-0.7l3.6,3.4
		L211.8,285.8z M71.5,285.2l-1-0.1l0.5-5l1,0.1L71.5,285.2z M65.6,284.6l-1-0.1l0.4-5l1,0.1L65.6,284.6z M59.7,284.2l-1,0l0.2-5l1,0
		L59.7,284.2z M53.8,284.1l-1,0l0.1-5l1,0L53.8,284.1z M215.9,281.2l-3.8-3.2l0.6-0.7l3.8,3.2L215.9,281.2z M219.8,276.5l-3.9-3.1
		l0.6-0.8l3.9,3.1L219.8,276.5z M223.5,271.8l-3.9-3.1l0.6-0.8l3.9,3.1L223.5,271.8z M227.3,267.1l-3.9-3.2l0.6-0.8l3.8,3.2
		L227.3,267.1z M231.1,262.7l-3.7-3.4c0.2-0.3,0.5-0.5,0.7-0.8l3.7,3.4C231.5,262.2,231.3,262.4,231.1,262.7z M235.1,258.6l-3.4-3.7
		c0.3-0.2,0.5-0.5,0.8-0.7l3.3,3.7C235.6,258.1,235.4,258.4,235.1,258.6z M239.5,255l-2.9-4.1c0.3-0.2,0.6-0.4,0.9-0.6l2.8,4.2
		C240,254.6,239.8,254.8,239.5,255z M244.3,252.2l-2.1-4.5c0.3-0.2,0.7-0.3,1-0.4l1.9,4.6C244.9,251.9,244.6,252,244.3,252.2z
		 M249.4,250.4l-1.1-4.9c0.4-0.1,0.7-0.1,1.1-0.2l0.9,4.9C250,250.3,249.7,250.4,249.4,250.4z M254.8,249.9l0-5l1,0l0.1,5
		L254.8,249.9z M261,249.7l-0.3-5l1-0.1l0.3,5L261,249.7z M267,249.3l-0.3-5l1-0.1l0.3,5L267,249.3z M273.1,248.9l-0.4-5l1-0.1
		l0.4,5L273.1,248.9z M279.2,248.4l-0.5-5l1-0.1l0.4,5L279.2,248.4z M285.1,247.9l-0.5-5l1-0.1l0.5,5L285.1,247.9z M291.1,247.3
		l-0.6-5l1-0.1l0.5,5L291.1,247.3z M297.1,246.7l-0.6-5l1-0.1l0.5,5L297.1,246.7z M303,246.1l-0.5-5l1-0.1l0.5,5L303,246.1z
		 M800,245.9l-1,0l0-5l1,0V245.9z M794,245.9l0-2.5L794,245.9z M793.9,245.9l-1,0l0-5l1,0l0,2.5L793.9,245.9z M787.9,245.9l-1,0l0-5
		l1,0L787.9,245.9z M781.9,245.9l-1,0l0-5l1,0L781.9,245.9z M775.9,245.8l-1,0l0-5l1,0L775.9,245.8z M769.9,245.8l0-2.5L769.9,245.8
		l-1,0l0-5l1,0L769.9,245.8z M763.9,245.7l0-2.5L763.9,245.7l-1,0l0-5l1,0L763.9,245.7z M757.9,245.7l0-2.5L757.9,245.7l-1,0l0-5
		l1,0L757.9,245.7z M751.9,245.7l0-2.5L751.9,245.7l-1,0l0-5l1,0L751.9,245.7z M745.8,245.6l0-2.5L745.8,245.6l-1,0l0-5l1,0
		L745.8,245.6z M739.8,245.6l-1,0l0-5l1,0L739.8,245.6z M309,245.5l-0.5-5l1-0.1l0.5,5L309,245.5z M733.8,245.5l-1,0l0-5l1,0
		L733.8,245.5z M727.8,245.5l-1,0l0-5l1,0L727.8,245.5z M721.8,245.4l-1,0l0-5l1,0L721.8,245.4z M715.8,245.4l-1,0l0-5l1,0
		L715.8,245.4z M709.8,245.3l-1,0l0-5l1,0L709.8,245.3z M703.8,245.3l-1,0l0-5l1,0L703.8,245.3z M697.8,245.2l-1,0l0-5l1,0
		L697.8,245.2z M691.8,245.2l-1,0l0-5l1,0L691.8,245.2z M685.8,245.1l-1,0l0-5l1,0L685.8,245.1z M679.8,245.1l-1,0l0-5l1,0
		L679.8,245.1z M673.8,245.1l-1,0l0-5l1,0L673.8,245.1z M667.8,245l-1,0l0-5l1,0L667.8,245z M661.7,245l-1,0l0-5l1,0L661.7,245z
		 M315,244.9l-0.5-5l1-0.1l0.5,5L315,244.9z M655.7,244.9l-1,0l0-5l1,0L655.7,244.9z M649.7,244.9l-1,0l0-5l1,0L649.7,244.9z
		 M643.7,244.8l-1,0l0-5l1,0L643.7,244.8z M637.7,244.8l-1,0l0-5l1,0L637.7,244.8z M631.7,244.7l-1,0l0-5l1,0L631.7,244.7z
		 M625.7,244.7l-1,0l0-5l1,0L625.7,244.7z M619.7,244.6l-1,0l0-5l1,0L619.7,244.6z M613.7,244.6l-1,0l0-5l1,0L613.7,244.6z
		 M607.7,244.5l-1,0l0-5l1,0L607.7,244.5z M601.7,244.5l-1,0l0-5l1,0L601.7,244.5z M595.7,244.5l-1,0l0-5l1,0L595.7,244.5z
		 M589.7,244.4l-1,0l0-5l1,0L589.7,244.4z M583.7,244.4l-1,0l0-5l1,0L583.7,244.4z M577.7,244.3l-1,0l0-5l1,0L577.7,244.3z
		 M321,244.3l-0.5-5l1-0.1l0.5,5L321,244.3z M571.6,244.3l-1,0l0-5l1,0L571.6,244.3z M565.6,244.2l-1,0l0-5l1,0L565.6,244.2z
		 M559.6,244.2l-1,0l0-5l1,0L559.6,244.2z M553.6,244.2l-1,0l0-5l1,0L553.6,244.2z M547.6,244.1l-1,0l0-5l1,0L547.6,244.1z
		 M541.6,244.1l-1,0l0-5l1,0L541.6,244.1z M535.6,244.1l-1,0l0-5l1,0L535.6,244.1z M529.5,244l-1,0v-5l1,0L529.5,244z M523.5,244
		l-1,0l0.2-5l1,0L523.5,244z M326.9,243.7l-0.5-5l1-0.1l0.5,5L326.9,243.7z M517.3,243.5c-0.3,0-0.7-0.1-1-0.1l0.6-5
		c0.3,0,0.6,0.1,1,0.1L517.3,243.5z M332.9,243l-0.5-5l1-0.1l0.5,5L332.9,243z M511.2,242.6c-0.3-0.1-0.7-0.1-1-0.2l0.9-4.9
		c0.3,0.1,0.6,0.1,1,0.2L511.2,242.6z M338.9,242.4l-0.5-5l0.9-0.1l0.4,2.5l0.2,2.5L338.9,242.4z M344.9,241.7l-0.5-5l0.9-0.1
		l0.4,2.5l0.2,2.5L344.9,241.7z M505.2,241.3c-0.3-0.1-0.7-0.2-1-0.3l1.3-4.8c0.3,0.1,0.6,0.2,0.9,0.2L505.2,241.3z M350.8,241.1
		l-0.5-5l0.9-0.1l0.4,2.5l0.2,2.5L350.8,241.1z M356.8,240.4l-0.5-5l1-0.1l0.5,5L356.8,240.4z M362.8,239.8l-0.5-5l1-0.1l0.5,5
		L362.8,239.8z M499.3,239.7l-1-0.3l1.5-4.8l0.9,0.3L499.3,239.7z M368.8,239.2l-0.5-5l1-0.1l0.5,5L368.8,239.2z M374.7,238.5
		l-0.5-5l1-0.1l0.5,5L374.7,238.5z M380.7,237.9l-0.5-5l0.9-0.1l0.6,5L380.7,237.9z M493.5,237.8l-0.9-0.3l1.6-4.7l0.9,0.3
		L493.5,237.8z M386.7,237.2l-0.5-5l1-0.1l0.5,5L386.7,237.2z M392.6,236.6l-0.5-5l1-0.1l0.5,5L392.6,236.6z M398.6,236l-0.5-5
		l0.9-0.1l0.6,5L398.6,236z M487.9,235.9l-0.9-0.3l1.5-4.8l1,0.3L487.9,235.9z M404.6,235.4l-0.5-5l1-0.1l0.5,5L404.6,235.4z
		 M410.6,234.8l-0.5-5l1-0.1l0.5,5L410.6,234.8z M416.5,234.2l-0.5-5l0.9-0.1l0.6,5L416.5,234.2z M482.2,234.1l-0.9-0.3l1.3-4.8
		l1,0.3L482.2,234.1z M422.5,233.6l-0.5-5l0.9-0.1l0.6,5L422.5,233.6z M428.5,233l-0.5-5l1-0.1l0.5,5L428.5,233z M476.6,232.7
		c-0.3-0.1-0.6-0.1-0.9-0.2l1-4.9c0.3,0.1,0.7,0.1,1,0.2L476.6,232.7z M434.5,232.5l-0.4-5l1-0.1l0.4,5L434.5,232.5z M440.4,232
		l-0.4-5l1-0.1l0.4,5L440.4,232z M470.9,231.7c-0.3,0-0.6-0.1-1-0.1l0.6-5c0.3,0,0.7,0.1,1,0.1L470.9,231.7z M446.4,231.5l-0.3-5
		l1-0.1l0.3,5L446.4,231.5z M452.4,231.2l-0.2-5l1,0l0.2,5L452.4,231.2z M465.1,231.2c-0.3,0-0.6,0-1-0.1l0.3-5c0.3,0,0.7,0,1,0.1
		L465.1,231.2z M458.3,231l-0.1-5l1,0v5L458.3,231z"/>
</g>
<path class="st0" d="M766.7,398.8c-9.6-4.3-19.5-8.7-34.9-8.7c-14.4,0-23.4-6-33-12.4c-9.6-6.4-19.6-13.1-35.2-13.1
	c-15.9,0-25.9,10.4-35.5,20.4c-9.5,9.9-18.5,19.2-32.7,19.2c-13.9,0-22.8-15.3-32.4-31.6c-9.7-16.5-19.7-33.6-35.8-33.6
	c-14.2,0-23.2-8.4-32.7-17.4c-9.7-9.1-19.7-18.5-35.5-18.5c-15.1,0-24.9,1-34.3,2c-9.3,1-19,2-33.9,2c-15.8,0-25.8,9.3-35.5,18.3
	c-9.5,8.8-18.5,17.2-32.7,17.2c-16,0-26,14.2-35.7,27.9c-9.5,13.5-18.5,26.2-32.5,26.2c-14,0-23-11.2-32.5-23.1
	c-9.7-12.1-19.7-24.6-35.7-24.6c-14.7,0-23.8-2.8-33.5-5.7c-9.5-2.9-19.4-5.9-34.7-5.9c-15.2,0-25,2.1-34.5,4.1
	c-9.7,2-18.9,4-33.7,4v4c15.2,0,25-2.1,34.5-4.1c9.7-2,18.9-4,33.7-4c14.7,0,23.8,2.8,33.5,5.7c9.5,2.9,19.4,5.9,34.7,5.9
	c14,0,23,11.2,32.5,23.1c9.7,12.1,19.7,24.6,35.7,24.6c16,0,26-14.2,35.7-27.9c9.5-13.5,18.5-26.2,32.5-26.2
	c15.8,0,25.8-9.3,35.5-18.3c9.5-8.8,18.5-17.2,32.7-17.2c15.1,0,24.9-1,34.3-2c9.3-1,19-2,33.9-2c14.2,0,23.2,8.4,32.7,17.4
	c9.7,9.1,19.7,18.5,35.5,18.5c13.9,0,22.8,15.3,32.4,31.6c9.7,16.5,19.7,33.6,35.8,33.6c15.9,0,25.9-10.4,35.5-20.4
	c9.5-9.9,18.5-19.2,32.7-19.2c14.4,0,23.4,6,33,12.4c9.6,6.4,19.6,13.1,35.2,13.1c14.6,0,23.7,4,33.3,8.3c9.6,4.3,19.5,8.7,34.9,8.7
	v-4C785.4,407.2,776.3,403.1,766.7,398.8z"/>
<path class="st1" d="M766.9,430.6c-9.6-5.2-19.5-10.7-35-10.7c-15.7,0-25.6,7.4-35.3,14.6c-9.5,7.1-18.6,13.9-32.9,13.9
	c-15.1,0-24.9,1.2-34.3,2.3c-9.3,1.1-19,2.3-33.8,2.3c-15.2,0-25.1,2.3-34.5,4.5c-9.7,2.3-18.9,4.4-33.6,4.4
	c-14.6,0-23.7-3.7-33.3-7.5c-9.6-3.8-19.4-7.8-34.8-7.8c-14.8,0-24-2-33.7-4c-9.5-2-19.3-4.1-34.5-4.1c-14.5,0-23.5-5-33.1-10.4
	c-9.6-5.3-19.5-10.9-35.1-10.9c-15.4,0-25.3,4.2-34.9,8.3c-9.6,4.1-18.7,8-33.3,8c-14.9,0-24.6-0.8-33.9-1.6
	c-9.4-0.8-19.2-1.6-34.3-1.6c-15.2,0-25,1.8-34.4,3.5c-9.3,1.7-18.9,3.4-33.7,3.4c-14.9,0-24.6-0.7-34-1.3
	c-9.4-0.6-19.2-1.3-34.2-1.3v4c14.9,0,24.6,0.7,34,1.3c9.4,0.6,19.2,1.3,34.2,1.3c15.2,0,25-1.8,34.4-3.5c9.3-1.7,18.9-3.4,33.7-3.4
	c14.9,0,24.6,0.8,33.9,1.6c9.4,0.8,19.2,1.6,34.3,1.6c15.4,0,25.3-4.2,34.9-8.3c9.6-4.1,18.7-8,33.3-8c14.5,0,23.5,5,33.1,10.4
	c9.6,5.3,19.5,10.9,35.1,10.9c14.8,0,24,2,33.7,4c9.5,2,19.3,4.1,34.5,4.1c14.6,0,23.7,3.7,33.3,7.5c9.6,3.8,19.4,7.8,34.8,7.8
	c15.2,0,25.1-2.3,34.5-4.5c9.7-2.3,18.9-4.4,33.6-4.4c15.1,0,24.9-1.2,34.3-2.3c9.3-1.1,19-2.3,33.8-2.3c15.7,0,25.6-7.4,35.3-14.6
	c9.5-7.1,18.6-13.9,32.9-13.9c14.5,0,23.5,4.9,33.1,10.2c9.6,5.2,19.5,10.7,35,10.7v-4C785.5,440.7,776.5,435.8,766.9,430.6z"/>
<path class="st2" d="M356.4,316c-9.3,1.9-18.9,3.9-33.7,3.9c-16.2,0-26.2,20.2-35.9,39.7c-9.1,18.4-18.5,37.5-32.3,37.5
	c-15.2,0-25,2.3-34.5,4.5c-9.7,2.3-18.9,4.4-33.6,4.4c-15.2,0-25,1.8-34.5,3.6c-9.3,1.7-18.9,3.5-33.7,3.5
	c-15.7,0-25.7,8.1-35.3,15.9c-9.5,7.7-18.5,15-32.8,15v4c15.7,0,25.7-8.1,35.3-15.9c9.5-7.7,18.5-15,32.8-15c15.2,0,25-1.8,34.5-3.6
	c9.3-1.7,18.9-3.5,33.7-3.5c15.2,0,25-2.3,34.5-4.5c9.7-2.3,18.9-4.4,33.6-4.4c16.2,0,26.2-20.2,35.9-39.7
	c9.1-18.4,18.5-37.5,32.3-37.5c15.2,0,25-2,34.5-4c9.3-1.9,18.9-3.9,33.7-3.9v-4C375.7,312,365.9,314,356.4,316z"/>
<line class="st5" x1="50" y1="545" x2="50" y2="75"/>
<line class="st5" x1="50" y1="545" x2="45" y2="545"/>
<line class="st5" x1="50" y1="492.8" x2="45" y2="492.8"/>
<line class="st5" x1="50" y1="440.6" x2="45" y2="440.6"/>
<line class="st5" x1="50" y1="388.3" x2="45" y2="388.3"/>
<line class="st5" x1="50" y1="336.1" x2="45" y2="336.1"/>
<line class="st5" x1="50" y1="283.9" x2="45" y2="283.9"/>
<line class="st5" x1="50" y1="231.7" x2="45" y2="231.7"/>
<line class="st5" x1="50" y1="179.4" x2="45" y2="179.4"/>
<line class="st5" x1="50" y1="127.2" x2="45" y2="127.2"/>
<line class="st5" x1="50" y1="75" x2="45" y2="75"/>
<line class="st5" x1="50" y1="545" x2="45" y2="545"/>
<line class="st5" x1="50" y1="75" x2="45" y2="75"/>
<g transform="translate(-408,250)">
	<g>
		<g class="st6">
			<path d="M418.1,294.4v1h-6.4v-1H418.1z"/>
			<path d="M419.6,297.8h2.5v-8.5h-2.5v-1.1h2.3c0.5,0,0.9,0.1,1.2,0.3c0.2,0.2,0.3,0.6,0.3,1v8.2h2.3v1.1h-6.1V297.8z"/>
			<path d="M428.4,298.5c-0.7-0.5-1.2-1.1-1.6-2c-0.3-0.8-0.5-1.8-0.5-2.9s0.2-2.1,0.5-2.9c0.3-0.8,0.9-1.5,1.6-2
				c0.7-0.5,1.6-0.7,2.7-0.7c1.1,0,2,0.2,2.7,0.7s1.2,1.1,1.6,2s0.5,1.8,0.5,2.9s-0.2,2.1-0.5,2.9s-0.9,1.5-1.6,2
				c-0.7,0.5-1.6,0.7-2.7,0.7C430.1,299.2,429.2,299,428.4,298.5z M428.1,296.1c0.2,0.7,0.6,1.2,1.1,1.5c0.5,0.3,1.1,0.5,1.9,0.5
				s1.4-0.2,1.9-0.5c0.5-0.3,0.9-0.8,1.1-1.5c0.2-0.7,0.4-1.5,0.4-2.5c0-1-0.1-1.9-0.4-2.5s-0.6-1.2-1.1-1.5
				c-0.5-0.3-1.1-0.5-1.9-0.5s-1.4,0.2-1.9,0.5c-0.5,0.3-0.9,0.8-1.1,1.5c-0.2,0.7-0.4,1.5-0.4,2.5
				C427.7,294.6,427.9,295.4,428.1,296.1z"/>
			<path d="M439.5,298.5c-0.7-0.5-1.2-1.1-1.6-2c-0.3-0.8-0.5-1.8-0.5-2.9s0.2-2.1,0.5-2.9c0.3-0.8,0.9-1.5,1.6-2
				c0.7-0.5,1.6-0.7,2.7-0.7c1.1,0,2,0.2,2.7,0.7s1.2,1.1,1.6,2s0.5,1.8,0.5,2.9s-0.2,2.1-0.5,2.9s-0.9,1.5-1.6,2
				c-0.7,0.5-1.6,0.7-2.7,0.7C441.1,299.2,440.2,299,439.5,298.5z M439.2,296.1c0.2,0.7,0.6,1.2,1.1,1.5c0.5,0.3,1.1,0.5,1.9,0.5
				s1.4-0.2,1.9-0.5c0.5-0.3,0.9-0.8,1.1-1.5c0.2-0.7,0.4-1.5,0.4-2.5c0-1-0.1-1.9-0.4-2.5s-0.6-1.2-1.1-1.5
				c-0.5-0.3-1.1-0.5-1.9-0.5s-1.4,0.2-1.9,0.5c-0.5,0.3-0.9,0.8-1.1,1.5c-0.2,0.7-0.4,1.5-0.4,2.5
				C438.8,294.6,438.9,295.4,439.2,296.1z"/>
		</g>
	</g>
</g>
<g transform="translate(-408,197.77777778)">
	<g>
		<g class="st6">
			<path d="M426.2,294.4v1h-6.4v-1H426.2z"/>
			<path d="M429.3,297.1c0.2,0.3,0.5,0.6,0.9,0.8c0.4,0.2,0.9,0.3,1.6,0.3c0.7,0,1.2-0.1,1.6-0.3c0.4-0.2,0.7-0.5,1-0.9
				c0.2-0.4,0.3-0.9,0.3-1.4c0-0.6-0.1-1-0.3-1.4c-0.2-0.4-0.5-0.7-0.9-0.9c-0.4-0.2-0.8-0.3-1.4-0.3c-0.6,0-1.1,0.1-1.6,0.4
				c-0.5,0.2-0.9,0.6-1.3,1H428l0.3-5.9h1.2l-0.3,4.8c0.4-0.4,0.8-0.7,1.3-0.9c0.5-0.2,1.1-0.3,1.8-0.3c0.8,0,1.4,0.1,2,0.4
				s1,0.7,1.3,1.2c0.3,0.5,0.5,1.2,0.5,1.9c0,1.1-0.3,2-1,2.7c-0.7,0.7-1.8,1-3.2,1c-0.9,0-1.7-0.1-2.3-0.4
				c-0.6-0.3-1.1-0.7-1.4-1.1c-0.3-0.5-0.5-1.1-0.5-1.7h1.4C429,296.4,429.1,296.7,429.3,297.1z M435.6,288.3v1.1h-6.7v-1.1H435.6z"
				/>
			<path d="M439.5,298.5c-0.7-0.5-1.2-1.1-1.6-2c-0.3-0.8-0.5-1.8-0.5-2.9s0.2-2.1,0.5-2.9c0.3-0.8,0.9-1.5,1.6-2s1.6-0.7,2.7-0.7
				c1.1,0,2,0.2,2.7,0.7c0.7,0.5,1.2,1.1,1.6,2s0.5,1.8,0.5,2.9s-0.2,2.1-0.5,2.9s-0.9,1.5-1.6,2c-0.7,0.5-1.6,0.7-2.7,0.7
				C441.1,299.2,440.2,299,439.5,298.5z M439.2,296.1c0.2,0.7,0.6,1.2,1.1,1.5c0.5,0.3,1.1,0.5,1.9,0.5c0.8,0,1.4-0.2,1.9-0.5
				c0.5-0.3,0.9-0.8,1.1-1.5c0.2-0.7,0.4-1.5,0.4-2.5c0-1-0.1-1.9-0.4-2.5c-0.2-0.7-0.6-1.2-1.1-1.5c-0.5-0.3-1.1-0.5-1.9-0.5
				c-0.8,0-1.4,0.2-1.9,0.5c-0.5,0.3-0.9,0.8-1.1,1.5s-0.4,1.5-0.4,2.5C438.8,294.6,438.9,295.4,439.2,296.1z"/>
		</g>
	</g>
</g>
<g transform="translate(-408,145.55555556)">
	<g>
		<g class="st6">
			<path d="M439.5,298.5c-0.7-0.5-1.2-1.1-1.6-2c-0.3-0.8-0.5-1.8-0.5-2.9s0.2-2.1,0.5-2.9c0.3-0.8,0.9-1.5,1.6-2s1.6-0.7,2.7-0.7
				c1.1,0,2,0.2,2.7,0.7c0.7,0.5,1.2,1.1,1.6,2s0.5,1.8,0.5,2.9s-0.2,2.1-0.5,2.9s-0.9,1.5-1.6,2c-0.7,0.5-1.6,0.7-2.7,0.7
				C441.1,299.2,440.2,299,439.5,298.5z M439.2,296.1c0.2,0.7,0.6,1.2,1.1,1.5c0.5,0.3,1.1,0.5,1.9,0.5c0.8,0,1.4-0.2,1.9-0.5
				c0.5-0.3,0.9-0.8,1.1-1.5c0.2-0.7,0.4-1.5,0.4-2.5c0-1-0.1-1.9-0.4-2.5c-0.2-0.7-0.6-1.2-1.1-1.5c-0.5-0.3-1.1-0.5-1.9-0.5
				c-0.8,0-1.4,0.2-1.9,0.5c-0.5,0.3-0.9,0.8-1.1,1.5s-0.4,1.5-0.4,2.5C438.8,294.6,438.9,295.4,439.2,296.1z"/>
		</g>
	</g>
</g>
<g transform="translate(-408,93.33333333)">
	<g>
		<g class="st6">
			<path d="M429.3,297.1c0.2,0.3,0.5,0.6,0.9,0.8c0.4,0.2,0.9,0.3,1.6,0.3c0.7,0,1.2-0.1,1.6-0.3c0.4-0.2,0.7-0.5,1-0.9
				c0.2-0.4,0.3-0.9,0.3-1.4c0-0.6-0.1-1-0.3-1.4c-0.2-0.4-0.5-0.7-0.9-0.9c-0.4-0.2-0.8-0.3-1.4-0.3c-0.6,0-1.1,0.1-1.6,0.4
				c-0.5,0.2-0.9,0.6-1.3,1H428l0.3-5.9h1.2l-0.3,4.8c0.4-0.4,0.8-0.7,1.3-0.9c0.5-0.2,1.1-0.3,1.8-0.3c0.8,0,1.4,0.1,2,0.4
				s1,0.7,1.3,1.2c0.3,0.5,0.5,1.2,0.5,1.9c0,1.1-0.3,2-1,2.7c-0.7,0.7-1.8,1-3.2,1c-0.9,0-1.7-0.1-2.3-0.4
				c-0.6-0.3-1.1-0.7-1.4-1.1c-0.3-0.5-0.5-1.1-0.5-1.7h1.4C429,296.4,429.1,296.7,429.3,297.1z M435.6,288.3v1.1h-6.7v-1.1H435.6z"
				/>
			<path d="M439.5,298.5c-0.7-0.5-1.2-1.1-1.6-2c-0.3-0.8-0.5-1.8-0.5-2.9s0.2-2.1,0.5-2.9c0.3-0.8,0.9-1.5,1.6-2s1.6-0.7,2.7-0.7
				c1.1,0,2,0.2,2.7,0.7c0.7,0.5,1.2,1.1,1.6,2s0.5,1.8,0.5,2.9s-0.2,2.1-0.5,2.9s-0.9,1.5-1.6,2c-0.7,0.5-1.6,0.7-2.7,0.7
				C441.1,299.2,440.2,299,439.5,298.5z M439.2,296.1c0.2,0.7,0.6,1.2,1.1,1.5c0.5,0.3,1.1,0.5,1.9,0.5c0.8,0,1.4-0.2,1.9-0.5
				c0.5-0.3,0.9-0.8,1.1-1.5c0.2-0.7,0.4-1.5,0.4-2.5c0-1-0.1-1.9-0.4-2.5c-0.2-0.7-0.6-1.2-1.1-1.5c-0.5-0.3-1.1-0.5-1.9-0.5
				c-0.8,0-1.4,0.2-1.9,0.5c-0.5,0.3-0.9,0.8-1.1,1.5s-0.4,1.5-0.4,2.5C438.8,294.6,438.9,295.4,439.2,296.1z"/>
		</g>
	</g>
</g>
<g transform="translate(-408,41.11111111)">
	<g>
		<g class="st6">
			<path d="M419.6,297.8h2.5v-8.5h-2.5v-1.1h2.3c0.5,0,0.9,0.1,1.2,0.3c0.2,0.2,0.3,0.6,0.3,1v8.2h2.3v1.1h-6.1V297.8z"/>
			<path d="M428.4,298.5c-0.7-0.5-1.2-1.1-1.6-2c-0.3-0.8-0.5-1.8-0.5-2.9s0.2-2.1,0.5-2.9c0.3-0.8,0.9-1.5,1.6-2s1.6-0.7,2.7-0.7
				c1.1,0,2,0.2,2.7,0.7c0.7,0.5,1.2,1.1,1.6,2s0.5,1.8,0.5,2.9s-0.2,2.1-0.5,2.9s-0.9,1.5-1.6,2c-0.7,0.5-1.6,0.7-2.7,0.7
				C430.1,299.2,429.2,299,428.4,298.5z M428.1,296.1c0.2,0.7,0.6,1.2,1.1,1.5c0.5,0.3,1.1,0.5,1.9,0.5c0.8,0,1.4-0.2,1.9-0.5
				c0.5-0.3,0.9-0.8,1.1-1.5c0.2-0.7,0.4-1.5,0.4-2.5c0-1-0.1-1.9-0.4-2.5c-0.2-0.7-0.6-1.2-1.1-1.5c-0.5-0.3-1.1-0.5-1.9-0.5
				c-0.8,0-1.4,0.2-1.9,0.5c-0.5,0.3-0.9,0.8-1.1,1.5s-0.4,1.5-0.4,2.5C427.7,294.6,427.9,295.4,428.1,296.1z"/>
			<path d="M439.5,298.5c-0.7-0.5-1.2-1.1-1.6-2c-0.3-0.8-0.5-1.8-0.5-2.9s0.2-2.1,0.5-2.9c0.3-0.8,0.9-1.5,1.6-2s1.6-0.7,2.7-0.7
				c1.1,0,2,0.2,2.7,0.7c0.7,0.5,1.2,1.1,1.6,2s0.5,1.8,0.5,2.9s-0.2,2.1-0.5,2.9s-0.9,1.5-1.6,2c-0.7,0.5-1.6,0.7-2.7,0.7
				C441.1,299.2,440.2,299,439.5,298.5z M439.2,296.1c0.2,0.7,0.6,1.2,1.1,1.5c0.5,0.3,1.1,0.5,1.9,0.5c0.8,0,1.4-0.2,1.9-0.5
				c0.5-0.3,0.9-0.8,1.1-1.5c0.2-0.7,0.4-1.5,0.4-2.5c0-1-0.1-1.9-0.4-2.5c-0.2-0.7-0.6-1.2-1.1-1.5c-0.5-0.3-1.1-0.5-1.9-0.5
				c-0.8,0-1.4,0.2-1.9,0.5c-0.5,0.3-0.9,0.8-1.1,1.5s-0.4,1.5-0.4,2.5C438.8,294.6,438.9,295.4,439.2,296.1z"/>
		</g>
	</g>
</g>
<g transform="translate(-408,-11.11111111)">
	<g>
		<g class="st6">
			<path d="M420.6,297.8h2.5v-8.5h-2.5v-1.1h2.3c0.5,0,0.9,0.1,1.2,0.3c0.2,0.2,0.3,0.6,0.3,1v8.2h2.3v1.1h-6.1V297.8z"/>
			<path d="M429.3,297.1c0.2,0.3,0.5,0.6,0.9,0.8c0.4,0.2,0.9,0.3,1.6,0.3c0.7,0,1.2-0.1,1.6-0.3c0.4-0.2,0.7-0.5,1-0.9
				c0.2-0.4,0.3-0.9,0.3-1.4c0-0.6-0.1-1-0.3-1.4c-0.2-0.4-0.5-0.7-0.9-0.9c-0.4-0.2-0.8-0.3-1.4-0.3c-0.6,0-1.1,0.1-1.6,0.4
				c-0.5,0.2-0.9,0.6-1.3,1H428l0.3-5.9h1.2l-0.3,4.8c0.4-0.4,0.8-0.7,1.3-0.9c0.5-0.2,1.1-0.3,1.8-0.3c0.8,0,1.4,0.1,2,0.4
				s1,0.7,1.3,1.2c0.3,0.5,0.5,1.2,0.5,1.9c0,1.1-0.3,2-1,2.7c-0.7,0.7-1.8,1-3.2,1c-0.9,0-1.7-0.1-2.3-0.4
				c-0.6-0.3-1.1-0.7-1.4-1.1c-0.3-0.5-0.5-1.1-0.5-1.7h1.4C429,296.4,429.1,296.7,429.3,297.1z M435.6,288.3v1.1h-6.7v-1.1H435.6z"
				/>
			<path d="M439.5,298.5c-0.7-0.5-1.2-1.1-1.6-2c-0.3-0.8-0.5-1.8-0.5-2.9s0.2-2.1,0.5-2.9c0.3-0.8,0.9-1.5,1.6-2
				c0.7-0.5,1.6-0.7,2.7-0.7c1.1,0,2,0.2,2.7,0.7s1.2,1.1,1.6,2s0.5,1.8,0.5,2.9s-0.2,2.1-0.5,2.9s-0.9,1.5-1.6,2
				c-0.7,0.5-1.6,0.7-2.7,0.7C441.1,299.2,440.2,299,439.5,298.5z M439.2,296.1c0.2,0.7,0.6,1.2,1.1,1.5c0.5,0.3,1.1,0.5,1.9,0.5
				s1.4-0.2,1.9-0.5c0.5-0.3,0.9-0.8,1.1-1.5c0.2-0.7,0.4-1.5,0.4-2.5c0-1-0.1-1.9-0.4-2.5s-0.6-1.2-1.1-1.5
				c-0.5-0.3-1.1-0.5-1.9-0.5s-1.4,0.2-1.9,0.5c-0.5,0.3-0.9,0.8-1.1,1.5c-0.2,0.7-0.4,1.5-0.4,2.5
				C438.8,294.6,438.9,295.4,439.2,296.1z"/>
		</g>
	</g>
</g>
<g transform="translate(-408,-63.33333333)">
	<g>
		<g class="st6">
			<path d="M416.7,297.8l5.3-4.4c0.5-0.4,0.9-0.8,1.1-1.2c0.2-0.3,0.3-0.8,0.3-1.2c0-0.6-0.2-1-0.6-1.4s-0.9-0.5-1.7-0.5
				c-0.7,0-1.3,0.1-1.7,0.4c-0.4,0.3-0.8,0.6-1,1.2c-0.2,0.5-0.3,1.1-0.3,1.9h-1.4c0-0.9,0.2-1.6,0.5-2.3c0.3-0.7,0.8-1.2,1.4-1.6
				c0.6-0.4,1.5-0.6,2.5-0.6c0.9,0,1.6,0.1,2.1,0.4c0.5,0.3,0.9,0.6,1.2,1.1c0.3,0.4,0.4,1,0.4,1.5c0,0.7-0.2,1.3-0.6,1.9
				s-1,1.2-2,2l-3.6,3h6.4v1.1h-8.3V297.8z"/>
			<path d="M428.4,298.5c-0.7-0.5-1.2-1.1-1.6-2c-0.3-0.8-0.5-1.8-0.5-2.9s0.2-2.1,0.5-2.9c0.3-0.8,0.9-1.5,1.6-2
				c0.7-0.5,1.6-0.7,2.7-0.7c1.1,0,2,0.2,2.7,0.7s1.2,1.1,1.6,2s0.5,1.8,0.5,2.9s-0.2,2.1-0.5,2.9s-0.9,1.5-1.6,2
				c-0.7,0.5-1.6,0.7-2.7,0.7C430.1,299.2,429.2,299,428.4,298.5z M428.1,296.1c0.2,0.7,0.6,1.2,1.1,1.5c0.5,0.3,1.1,0.5,1.9,0.5
				s1.4-0.2,1.9-0.5c0.5-0.3,0.9-0.8,1.1-1.5c0.2-0.7,0.4-1.5,0.4-2.5c0-1-0.1-1.9-0.4-2.5s-0.6-1.2-1.1-1.5
				c-0.5-0.3-1.1-0.5-1.9-0.5s-1.4,0.2-1.9,0.5c-0.5,0.3-0.9,0.8-1.1,1.5c-0.2,0.7-0.4,1.5-0.4,2.5
				C427.7,294.6,427.9,295.4,428.1,296.1z"/>
			<path d="M439.5,298.5c-0.7-0.5-1.2-1.1-1.6-2c-0.3-0.8-0.5-1.8-0.5-2.9s0.2-2.1,0.5-2.9c0.3-0.8,0.9-1.5,1.6-2s1.6-0.7,2.7-0.7
				c1.1,0,2,0.2,2.7,0.7c0.7,0.5,1.2,1.1,1.6,2s0.5,1.8,0.5,2.9s-0.2,2.1-0.5,2.9s-0.9,1.5-1.6,2c-0.7,0.5-1.6,0.7-2.7,0.7
				C441.1,299.2,440.2,299,439.5,298.5z M439.2,296.1c0.2,0.7,0.6,1.2,1.1,1.5c0.5,0.3,1.1,0.5,1.9,0.5c0.8,0,1.4-0.2,1.9-0.5
				c0.5-0.3,0.9-0.8,1.1-1.5c0.2-0.7,0.4-1.5,0.4-2.5c0-1-0.1-1.9-0.4-2.5c-0.2-0.7-0.6-1.2-1.1-1.5c-0.5-0.3-1.1-0.5-1.9-0.5
				c-0.8,0-1.4,0.2-1.9,0.5c-0.5,0.3-0.9,0.8-1.1,1.5s-0.4,1.5-0.4,2.5C438.8,294.6,438.9,295.4,439.2,296.1z"/>
		</g>
	</g>
</g>
<g transform="translate(-408,-115.55555556)">
	<g>
		<g class="st6">
			<path d="M417.8,297.8l5.3-4.4c0.5-0.4,0.9-0.8,1.1-1.2s0.3-0.8,0.3-1.2c0-0.6-0.2-1-0.6-1.4c-0.4-0.3-0.9-0.5-1.7-0.5
				c-0.7,0-1.3,0.1-1.7,0.4c-0.4,0.3-0.8,0.6-1,1.2c-0.2,0.5-0.3,1.1-0.3,1.9h-1.4c0-0.9,0.2-1.6,0.5-2.3c0.3-0.7,0.8-1.2,1.4-1.6
				c0.6-0.4,1.5-0.6,2.5-0.6c0.9,0,1.6,0.1,2.1,0.4c0.5,0.3,0.9,0.6,1.2,1.1c0.2,0.4,0.4,1,0.4,1.5c0,0.7-0.2,1.3-0.6,1.9
				c-0.4,0.6-1,1.2-2,2l-3.6,3h6.4v1.1h-8.3V297.8z"/>
			<path d="M429.3,297.1c0.2,0.3,0.5,0.6,0.9,0.8c0.4,0.2,0.9,0.3,1.6,0.3c0.7,0,1.2-0.1,1.6-0.3c0.4-0.2,0.7-0.5,1-0.9
				c0.2-0.4,0.3-0.9,0.3-1.4c0-0.6-0.1-1-0.3-1.4c-0.2-0.4-0.5-0.7-0.9-0.9c-0.4-0.2-0.8-0.3-1.4-0.3c-0.6,0-1.1,0.1-1.6,0.4
				c-0.5,0.2-0.9,0.6-1.3,1H428l0.3-5.9h1.2l-0.3,4.8c0.4-0.4,0.8-0.7,1.3-0.9c0.5-0.2,1.1-0.3,1.8-0.3c0.8,0,1.4,0.1,2,0.4
				s1,0.7,1.3,1.2c0.3,0.5,0.5,1.2,0.5,1.9c0,1.1-0.3,2-1,2.7c-0.7,0.7-1.8,1-3.2,1c-0.9,0-1.7-0.1-2.3-0.4
				c-0.6-0.3-1.1-0.7-1.4-1.1c-0.3-0.5-0.5-1.1-0.5-1.7h1.4C429,296.4,429.1,296.7,429.3,297.1z M435.6,288.3v1.1h-6.7v-1.1H435.6z"
				/>
			<path d="M439.5,298.5c-0.7-0.5-1.2-1.1-1.6-2c-0.3-0.8-0.5-1.8-0.5-2.9s0.2-2.1,0.5-2.9c0.3-0.8,0.9-1.5,1.6-2
				c0.7-0.5,1.6-0.7,2.7-0.7c1.1,0,2,0.2,2.7,0.7s1.2,1.1,1.6,2s0.5,1.8,0.5,2.9s-0.2,2.1-0.5,2.9s-0.9,1.5-1.6,2
				c-0.7,0.5-1.6,0.7-2.7,0.7C441.1,299.2,440.2,299,439.5,298.5z M439.2,296.1c0.2,0.7,0.6,1.2,1.1,1.5c0.5,0.3,1.1,0.5,1.9,0.5
				s1.4-0.2,1.9-0.5c0.5-0.3,0.9-0.8,1.1-1.5c0.2-0.7,0.4-1.5,0.4-2.5c0-1-0.1-1.9-0.4-2.5s-0.6-1.2-1.1-1.5
				c-0.5-0.3-1.1-0.5-1.9-0.5s-1.4,0.2-1.9,0.5c-0.5,0.3-0.9,0.8-1.1,1.5c-0.2,0.7-0.4,1.5-0.4,2.5
				C438.8,294.6,438.9,295.4,439.2,296.1z"/>
		</g>
	</g>
</g>
<g transform="translate(-408,-167.77777778)">
	<g>
		<g class="st6">
			<path d="M418.1,296.8c0.2,0.4,0.6,0.7,1,0.9c0.4,0.2,0.9,0.4,1.5,0.4c0.9,0,1.7-0.2,2.1-0.6c0.5-0.4,0.7-1.1,0.7-1.9
				c0-0.7-0.2-1.2-0.6-1.7c-0.4-0.4-1-0.6-1.7-0.6c-0.4,0-0.7,0-1,0.1c-0.3,0.1-0.6,0.2-0.9,0.5l-0.6-0.8l4.2-3.6h-6v-1.1h7.6v1.1
				l-3.7,3.3c0.3-0.1,0.7-0.1,1.1-0.1c0.5,0,1.1,0.1,1.5,0.3c0.5,0.2,0.8,0.6,1.1,1c0.3,0.5,0.4,1,0.4,1.7c0,0.6-0.1,1.2-0.4,1.8
				s-0.8,1-1.4,1.3c-0.6,0.3-1.5,0.5-2.5,0.5c-0.9,0-1.7-0.2-2.3-0.5s-1.1-0.8-1.4-1.3c-0.3-0.6-0.5-1.2-0.5-1.9h1.4
				C417.7,296,417.8,296.4,418.1,296.8z"/>
			<path d="M428.4,298.5c-0.7-0.5-1.2-1.1-1.6-2c-0.3-0.8-0.5-1.8-0.5-2.9s0.2-2.1,0.5-2.9c0.3-0.8,0.9-1.5,1.6-2
				c0.7-0.5,1.6-0.7,2.7-0.7c1.1,0,2,0.2,2.7,0.7s1.2,1.1,1.6,2s0.5,1.8,0.5,2.9s-0.2,2.1-0.5,2.9s-0.9,1.5-1.6,2
				c-0.7,0.5-1.6,0.7-2.7,0.7C430.1,299.2,429.2,299,428.4,298.5z M428.1,296.1c0.2,0.7,0.6,1.2,1.1,1.5c0.5,0.3,1.1,0.5,1.9,0.5
				s1.4-0.2,1.9-0.5c0.5-0.3,0.9-0.8,1.1-1.5c0.2-0.7,0.4-1.5,0.4-2.5c0-1-0.1-1.9-0.4-2.5s-0.6-1.2-1.1-1.5
				c-0.5-0.3-1.1-0.5-1.9-0.5s-1.4,0.2-1.9,0.5c-0.5,0.3-0.9,0.8-1.1,1.5c-0.2,0.7-0.4,1.5-0.4,2.5
				C427.7,294.6,427.9,295.4,428.1,296.1z"/>
			<path d="M439.5,298.5c-0.7-0.5-1.2-1.1-1.6-2c-0.3-0.8-0.5-1.8-0.5-2.9s0.2-2.1,0.5-2.9c0.3-0.8,0.9-1.5,1.6-2
				c0.7-0.5,1.6-0.7,2.7-0.7c1.1,0,2,0.2,2.7,0.7s1.2,1.1,1.6,2s0.5,1.8,0.5,2.9s-0.2,2.1-0.5,2.9s-0.9,1.5-1.6,2
				c-0.7,0.5-1.6,0.7-2.7,0.7C441.1,299.2,440.2,299,439.5,298.5z M439.2,296.1c0.2,0.7,0.6,1.2,1.1,1.5c0.5,0.3,1.1,0.5,1.9,0.5
				s1.4-0.2,1.9-0.5c0.5-0.3,0.9-0.8,1.1-1.5c0.2-0.7,0.4-1.5,0.4-2.5c0-1-0.1-1.9-0.4-2.5s-0.6-1.2-1.1-1.5
				c-0.5-0.3-1.1-0.5-1.9-0.5s-1.4,0.2-1.9,0.5c-0.5,0.3-0.9,0.8-1.1,1.5c-0.2,0.7-0.4,1.5-0.4,2.5
				C438.8,294.6,438.9,295.4,439.2,296.1z"/>
		</g>
	</g>
</g>
<g transform="translate(-408,-220)">
	<g>
		<g class="st6">
			<path d="M419.2,296.8c0.2,0.4,0.6,0.7,1,0.9c0.4,0.2,0.9,0.4,1.5,0.4c0.9,0,1.7-0.2,2.1-0.6c0.5-0.4,0.7-1.1,0.7-1.9
				c0-0.7-0.2-1.2-0.6-1.7c-0.4-0.4-1-0.6-1.7-0.6c-0.4,0-0.7,0-1,0.1c-0.3,0.1-0.6,0.2-0.9,0.5l-0.6-0.8l4.2-3.6h-6v-1.1h7.6v1.1
				l-3.7,3.3c0.3-0.1,0.7-0.1,1.1-0.1c0.5,0,1,0.1,1.5,0.3s0.8,0.6,1.1,1c0.3,0.5,0.4,1,0.4,1.7c0,0.6-0.1,1.2-0.4,1.8
				s-0.8,1-1.4,1.3s-1.5,0.5-2.5,0.5c-0.9,0-1.7-0.2-2.3-0.5s-1.1-0.8-1.4-1.3s-0.5-1.2-0.5-1.9h1.4
				C418.8,296,418.9,296.4,419.2,296.8z"/>
			<path d="M429.3,297.1c0.2,0.3,0.5,0.6,0.9,0.8c0.4,0.2,0.9,0.3,1.6,0.3c0.7,0,1.2-0.1,1.6-0.3c0.4-0.2,0.7-0.5,1-0.9
				c0.2-0.4,0.3-0.9,0.3-1.4c0-0.6-0.1-1-0.3-1.4c-0.2-0.4-0.5-0.7-0.9-0.9c-0.4-0.2-0.8-0.3-1.4-0.3c-0.6,0-1.1,0.1-1.6,0.4
				c-0.5,0.2-0.9,0.6-1.3,1H428l0.3-5.9h1.2l-0.3,4.8c0.4-0.4,0.8-0.7,1.3-0.9c0.5-0.2,1.1-0.3,1.8-0.3c0.8,0,1.4,0.1,2,0.4
				s1,0.7,1.3,1.2c0.3,0.5,0.5,1.2,0.5,1.9c0,1.1-0.3,2-1,2.7c-0.7,0.7-1.8,1-3.2,1c-0.9,0-1.7-0.1-2.3-0.4
				c-0.6-0.3-1.1-0.7-1.4-1.1c-0.3-0.5-0.5-1.1-0.5-1.7h1.4C429,296.4,429.1,296.7,429.3,297.1z M435.6,288.3v1.1h-6.7v-1.1H435.6z"
				/>
			<path d="M439.5,298.5c-0.7-0.5-1.2-1.1-1.6-2c-0.3-0.8-0.5-1.8-0.5-2.9s0.2-2.1,0.5-2.9c0.3-0.8,0.9-1.5,1.6-2s1.6-0.7,2.7-0.7
				c1.1,0,2,0.2,2.7,0.7c0.7,0.5,1.2,1.1,1.6,2s0.5,1.8,0.5,2.9s-0.2,2.1-0.5,2.9s-0.9,1.5-1.6,2c-0.7,0.5-1.6,0.7-2.7,0.7
				C441.1,299.2,440.2,299,439.5,298.5z M439.2,296.1c0.2,0.7,0.6,1.2,1.1,1.5c0.5,0.3,1.1,0.5,1.9,0.5c0.8,0,1.4-0.2,1.9-0.5
				c0.5-0.3,0.9-0.8,1.1-1.5c0.2-0.7,0.4-1.5,0.4-2.5c0-1-0.1-1.9-0.4-2.5c-0.2-0.7-0.6-1.2-1.1-1.5c-0.5-0.3-1.1-0.5-1.9-0.5
				c-0.8,0-1.4,0.2-1.9,0.5c-0.5,0.3-0.9,0.8-1.1,1.5s-0.4,1.5-0.4,2.5C438.8,294.6,438.9,295.4,439.2,296.1z"/>
		</g>
	</g>
</g>
<line class="st5" x1="49.3" y1="544.6" x2="799.3" y2="544.6"/>
<line class="st5" x1="49.3" y1="544.6" x2="49.3" y2="549.6"/>
<line class="st5" x1="117.5" y1="544.6" x2="117.5" y2="549.6"/>
<line class="st5" x1="185.7" y1="544.6" x2="185.7" y2="549.6"/>
<line class="st5" x1="253.8" y1="544.6" x2="253.8" y2="549.6"/>
<line class="st5" x1="322" y1="544.6" x2="322" y2="549.6"/>
<line class="st5" x1="390.2" y1="544.6" x2="390.2" y2="549.6"/>
<line class="st5" x1="458.4" y1="544.6" x2="458.4" y2="549.6"/>
<line class="st5" x1="526.6" y1="544.6" x2="526.6" y2="549.6"/>
<line class="st5" x1="594.7" y1="544.6" x2="594.7" y2="549.6"/>
<line class="st5" x1="662.9" y1="544.6" x2="662.9" y2="549.6"/>
<line class="st5" x1="731.1" y1="544.6" x2="731.1" y2="549.6"/>
<line class="st5" x1="799.3" y1="544.6" x2="799.3" y2="549.6"/>
<line class="st5" x1="49.3" y1="544.6" x2="49.3" y2="549.6"/>
<line class="st5" x1="799.3" y1="544.6" x2="799.3" y2="549.6"/>
<g id="mesi_00000003063399409615071860000002718004052926435244_">
	<g transform="translate(-400,258)">
		<g class="st6">
			<path d="M436.5,312.9c-0.8-0.5-1.4-1.1-1.7-2s-0.6-1.8-0.6-2.9c0-1.1,0.2-2.1,0.6-2.9c0.4-0.8,1-1.5,1.8-2s1.8-0.7,3-0.7
				c1.1,0,1.9,0.2,2.7,0.5c0.7,0.3,1.3,0.8,1.7,1.4c0.4,0.6,0.7,1.4,0.8,2.2h-1.4c-0.1-0.7-0.3-1.2-0.6-1.7c-0.3-0.4-0.7-0.8-1.2-1
				c-0.5-0.2-1.2-0.3-2-0.3c-0.9,0-1.7,0.2-2.2,0.5c-0.6,0.3-1,0.8-1.3,1.5c-0.3,0.7-0.4,1.5-0.4,2.5c0,1,0.1,1.8,0.4,2.5
				c0.3,0.7,0.7,1.2,1.3,1.5c0.6,0.3,1.3,0.5,2.3,0.5c1.2,0,2.1-0.3,2.7-0.9c0.6-0.6,1-1.4,1.1-2.5h-4.8v-1h6.1v5.2h-1.2v-2.6
				c0,0.1-0.1,0.2-0.1,0.3c-0.2,0.5-0.4,1-0.8,1.3s-0.8,0.7-1.3,0.9c-0.5,0.2-1.2,0.3-1.9,0.3C438.3,313.6,437.3,313.4,436.5,312.9z
				"/>
			<path d="M448.1,313c-0.6-0.4-1-0.9-1.3-1.5c-0.3-0.6-0.4-1.4-0.4-2.2c0-0.8,0.2-1.5,0.5-2.2c0.3-0.6,0.8-1.1,1.3-1.5
				s1.3-0.6,2.2-0.6c0.8,0,1.5,0.2,2.1,0.5s1,0.8,1.3,1.4c0.3,0.6,0.4,1.3,0.4,2.1v0.2c0,0.1,0,0.2,0,0.3h-6.8v-1h6.1l-0.6,0.6
				c0-0.7,0-1.3-0.2-1.8c-0.2-0.5-0.5-0.8-0.9-1s-0.9-0.3-1.4-0.3c-0.6,0-1.1,0.1-1.5,0.3c-0.4,0.2-0.7,0.6-0.9,1.1
				c-0.2,0.5-0.3,1.1-0.3,1.9s0.1,1.4,0.3,1.9c0.2,0.5,0.5,0.8,1,1.1c0.4,0.2,0.9,0.3,1.5,0.3c0.5,0,1-0.1,1.3-0.2
				c0.3-0.1,0.6-0.3,0.8-0.6s0.3-0.6,0.4-0.9h1.2c-0.1,0.5-0.2,0.9-0.5,1.3c-0.3,0.4-0.7,0.8-1.2,1c-0.5,0.3-1.2,0.4-2.1,0.4
				C449.5,313.6,448.7,313.4,448.1,313z"/>
			<path d="M455.8,305.3h1.3v8h-1.3V305.3z M457,307.5c0.2-0.8,0.6-1.4,1.1-1.8c0.5-0.4,1.2-0.6,2-0.6c0.7,0,1.2,0.1,1.6,0.4
				c0.4,0.2,0.7,0.6,0.9,1.1c0.2,0.5,0.3,1,0.3,1.7v5.1h-1.3v-5c0-0.6-0.1-1-0.2-1.3c-0.2-0.3-0.4-0.6-0.7-0.7
				c-0.3-0.1-0.6-0.2-1.1-0.2c-0.6,0-1.1,0.2-1.5,0.5c-0.4,0.3-0.7,0.8-0.9,1.4c-0.2,0.6-0.3,1.4-0.3,2.3h-0.4
				C456.7,309.2,456.8,308.3,457,307.5z"/>
		</g>
	</g>
	<g transform="translate(-400,258)">
		<g class="st6">
			<path d="M505.7,302.7h1.3v10.6h-1.3V302.7z M513.6,302.7v1.1h-7v-1.1H513.6z M513.1,307.4v1.1h-6.5v-1.1H513.1z"/>
			<path d="M516.4,313c-0.6-0.4-1-0.9-1.3-1.5c-0.3-0.6-0.4-1.4-0.4-2.2c0-0.8,0.2-1.5,0.5-2.2c0.3-0.6,0.8-1.1,1.3-1.5
				s1.3-0.6,2.2-0.6c0.8,0,1.5,0.2,2.1,0.5s1,0.8,1.3,1.4c0.3,0.6,0.4,1.3,0.4,2.1v0.2c0,0.1,0,0.2,0,0.3h-6.8v-1h6.1l-0.6,0.6
				c0-0.7,0-1.3-0.2-1.8c-0.2-0.5-0.5-0.8-0.9-1s-0.9-0.3-1.4-0.3c-0.6,0-1.1,0.1-1.5,0.3c-0.4,0.2-0.7,0.6-0.9,1.1
				c-0.2,0.5-0.3,1.1-0.3,1.9s0.1,1.4,0.3,1.9c0.2,0.5,0.5,0.8,1,1.1c0.4,0.2,0.9,0.3,1.5,0.3c0.5,0,1-0.1,1.3-0.2
				c0.3-0.1,0.6-0.3,0.8-0.6s0.3-0.6,0.4-0.9h1.2c-0.1,0.5-0.2,0.9-0.5,1.3c-0.3,0.4-0.7,0.8-1.2,1c-0.5,0.3-1.2,0.4-2.1,0.4
				C517.7,313.6,517,313.4,516.4,313z"/>
			<path d="M525.4,302.1v11.2h-1.3v-11.2H525.4z M530.5,305.6c0.5,0.4,1,0.9,1.2,1.5c0.3,0.6,0.4,1.4,0.4,2.2c0,0.8-0.1,1.6-0.4,2.2
				s-0.7,1.1-1.2,1.5s-1.2,0.5-2.1,0.5c-1.2,0-2-0.4-2.6-1.1c-0.6-0.8-0.9-1.8-0.9-3.1c0-1.3,0.3-2.4,0.9-3.1
				c0.6-0.8,1.5-1.1,2.6-1.1C529.2,305.1,529.9,305.2,530.5,305.6z M526.7,306.4c-0.4,0.2-0.7,0.6-1,1.1c-0.2,0.5-0.3,1.1-0.3,1.8
				s0.1,1.3,0.3,1.8c0.2,0.5,0.5,0.8,1,1.1c0.4,0.2,0.9,0.3,1.5,0.3c0.6,0,1.1-0.1,1.5-0.4c0.4-0.2,0.7-0.6,0.9-1.1s0.3-1.1,0.3-1.8
				c0-0.7-0.1-1.3-0.3-1.8s-0.5-0.8-0.9-1.1c-0.4-0.2-0.9-0.4-1.5-0.4C527.6,306.1,527.1,306.2,526.7,306.4z"/>
		</g>
	</g>
	<g transform="translate(-400,258)">
		<g class="st6">
			<path d="M586.1,313.3h-1.3v-9.6l-3.6,9.6h-1.8l-3.6-9.6v9.6h-1.3v-10.6h2.3l3.6,9.4l3.5-9.4h2.3V313.3z"/>
			<path d="M589.1,313.3c-0.4-0.2-0.7-0.4-0.9-0.8c-0.2-0.3-0.3-0.8-0.3-1.3c0-0.4,0.1-0.8,0.2-1.1s0.4-0.6,0.8-0.8
				c0.4-0.2,0.8-0.4,1.4-0.5l2.1-0.3c0.4-0.1,0.7-0.2,0.9-0.3c0.2-0.1,0.3-0.4,0.3-0.7c0-0.3-0.1-0.6-0.2-0.8
				c-0.1-0.2-0.3-0.4-0.6-0.5c-0.3-0.1-0.7-0.2-1.2-0.2c-0.8,0-1.3,0.2-1.7,0.5c-0.4,0.3-0.5,0.7-0.6,1.3H588c0-0.6,0.2-1.1,0.4-1.5
				c0.3-0.4,0.7-0.7,1.2-1s1.1-0.3,1.9-0.3c0.7,0,1.3,0.1,1.8,0.3s0.8,0.5,1.1,0.9c0.2,0.4,0.3,0.8,0.3,1.3v3.8c0,0.3,0,0.6,0,0.9
				c0,0.3,0,0.7,0.1,1h-1.2c0-0.3-0.1-0.7-0.1-1c0-0.3,0-0.6,0-0.9c-0.1,0.4-0.3,0.7-0.5,1c-0.2,0.3-0.6,0.6-1,0.8
				c-0.4,0.2-0.9,0.3-1.5,0.3C590,313.5,589.5,313.4,589.1,313.3z M592.3,312.1c0.4-0.3,0.7-0.6,0.9-1.1c0.2-0.5,0.3-0.9,0.3-1.5
				v-0.7c-0.2,0.1-0.4,0.2-0.5,0.3s-0.4,0.1-0.7,0.2l-0.2,0l-1.3,0.3c-0.6,0.1-1,0.3-1.2,0.5s-0.4,0.6-0.4,1c0,0.4,0.1,0.8,0.4,1
				c0.3,0.2,0.7,0.4,1.2,0.4C591.4,312.5,591.9,312.4,592.3,312.1z"/>
			<path d="M596.8,305.3h1.3v2.5l0,0.3v5.2h-1.3V305.3z M598,307.7c0.2-0.8,0.6-1.4,1.1-1.8s1.2-0.7,2-0.7h0.3v1.3H601
				c-0.8,0-1.4,0.1-1.8,0.5c-0.4,0.3-0.7,0.8-0.9,1.3c-0.2,0.6-0.2,1.3-0.2,2.1h-0.5C597.7,309.4,597.8,308.5,598,307.7z"/>
		</g>
	</g>
	<g transform="translate(-400,258)">
		<g class="st6">
			<path d="M651.2,313.3l-1-2.7h-5.3l-1,2.7h-1.4l4.1-10.6h2l4.1,10.6H651.2z M645.2,309.5h4.5l-2.2-5.9L645.2,309.5z"/>
			<path d="M654,305.3h1.3v1.8v0.3v9.1H654V305.3z M655.6,312.4c-0.6-0.8-0.9-1.8-0.9-3.1c0-1.3,0.3-2.4,0.9-3.1s1.5-1.1,2.7-1.1
				c0.8,0,1.5,0.2,2.1,0.5c0.5,0.4,1,0.9,1.2,1.5c0.3,0.6,0.4,1.4,0.4,2.2c0,0.8-0.1,1.6-0.4,2.2c-0.3,0.6-0.7,1.1-1.2,1.5
				c-0.5,0.4-1.2,0.5-2.1,0.5C657.1,313.6,656.2,313.2,655.6,312.4z M659.5,312.2c0.4-0.2,0.7-0.6,0.9-1.1s0.3-1.1,0.3-1.8
				c0-0.7-0.1-1.3-0.3-1.8s-0.5-0.8-0.9-1.1c-0.4-0.2-0.9-0.4-1.5-0.4c-0.6,0-1.1,0.1-1.5,0.3s-0.7,0.6-1,1.1
				c-0.2,0.5-0.3,1.1-0.3,1.8s0.1,1.3,0.3,1.8c0.2,0.5,0.5,0.8,1,1.1s0.9,0.3,1.5,0.3C658.6,312.5,659.1,312.4,659.5,312.2z"/>
			<path d="M663.7,305.3h1.3v2.5l0,0.3v5.2h-1.3V305.3z M664.9,307.7c0.2-0.8,0.6-1.4,1.1-1.8s1.2-0.7,2-0.7h0.3v1.3h-0.4
				c-0.8,0-1.4,0.1-1.8,0.5c-0.4,0.3-0.7,0.8-0.9,1.3c-0.2,0.6-0.2,1.3-0.2,2.1h-0.5C664.6,309.4,664.7,308.5,664.9,307.7z"/>
		</g>
	</g>
	<g transform="translate(-400,258)">
		<g class="st6">
			<path d="M722,313.3h-1.3v-9.6l-3.6,9.6h-1.8l-3.6-9.6v9.6h-1.3v-10.6h2.3l3.6,9.4l3.5-9.4h2.3V313.3z"/>
			<path d="M725,313.3c-0.4-0.2-0.7-0.4-0.9-0.8c-0.2-0.3-0.3-0.8-0.3-1.3c0-0.4,0.1-0.8,0.3-1.1s0.4-0.6,0.8-0.8s0.8-0.4,1.4-0.5
				l2.1-0.3c0.4-0.1,0.7-0.2,0.9-0.3c0.2-0.1,0.3-0.4,0.3-0.7c0-0.3-0.1-0.6-0.2-0.8s-0.3-0.4-0.6-0.5c-0.3-0.1-0.7-0.2-1.2-0.2
				c-0.8,0-1.3,0.2-1.7,0.5s-0.5,0.7-0.6,1.3h-1.3c0-0.6,0.2-1.1,0.4-1.5c0.3-0.4,0.7-0.7,1.2-1c0.5-0.2,1.1-0.3,1.9-0.3
				c0.7,0,1.3,0.1,1.8,0.3c0.5,0.2,0.8,0.5,1.1,0.9c0.2,0.4,0.3,0.8,0.3,1.3v3.8c0,0.3,0,0.6,0,0.9c0,0.3,0,0.7,0.1,1h-1.2
				c0-0.3-0.1-0.7-0.1-1c0-0.3,0-0.6,0-0.9c-0.1,0.4-0.3,0.7-0.5,1c-0.2,0.3-0.6,0.6-1,0.8c-0.4,0.2-0.9,0.3-1.5,0.3
				C725.9,313.5,725.4,313.4,725,313.3z M728.2,312.1c0.4-0.3,0.7-0.6,0.9-1.1c0.2-0.5,0.3-0.9,0.3-1.5v-0.7
				c-0.2,0.1-0.4,0.2-0.5,0.3s-0.4,0.1-0.7,0.2l-0.2,0l-1.3,0.3c-0.6,0.1-1,0.3-1.2,0.5s-0.4,0.6-0.4,1c0,0.4,0.1,0.8,0.4,1
				c0.3,0.2,0.7,0.4,1.2,0.4C727.3,312.5,727.8,312.4,728.2,312.1z"/>
			<path d="M733.8,312.7c-0.6-0.3-1-0.8-1.2-1.4s-0.4-1.3-0.4-2.2c0-1.3,0.3-2.2,0.9-3c0.6-0.7,1.6-1.1,2.8-1.1c1.2,0,2,0.3,2.6,1
				c0.6,0.7,0.9,1.7,0.9,3c0,0.9-0.1,1.6-0.4,2.2s-0.6,1-1.2,1.3c-0.5,0.3-1.2,0.4-2,0.4C735.1,313.1,734.4,313,733.8,312.7z
				 M734.2,316.4c-0.6-0.2-1-0.5-1.3-1c-0.3-0.4-0.5-0.9-0.5-1.6h1.3c0,0.4,0.1,0.7,0.3,1c0.2,0.3,0.5,0.5,0.8,0.7
				c0.4,0.2,0.8,0.2,1.4,0.2c0.6,0,1.2-0.1,1.6-0.2c0.4-0.2,0.7-0.4,0.9-0.8c0.2-0.3,0.3-0.8,0.3-1.4v-8h1.3v8
				c0,0.7-0.1,1.3-0.4,1.8c-0.3,0.5-0.7,0.9-1.3,1.1c-0.6,0.3-1.4,0.4-2.3,0.4C735.4,316.7,734.7,316.6,734.2,316.4z M737.7,311.8
				c0.4-0.2,0.7-0.5,0.9-1s0.3-1,0.3-1.7c0-0.7-0.1-1.3-0.3-1.7s-0.5-0.8-0.9-1s-0.9-0.3-1.5-0.3c-0.6,0-1.1,0.1-1.5,0.3
				c-0.4,0.2-0.7,0.5-0.9,1s-0.3,1-0.3,1.7s0.1,1.3,0.3,1.7s0.5,0.8,0.9,1c0.4,0.2,0.9,0.3,1.5,0.3
				C736.8,312.1,737.3,312,737.7,311.8z"/>
		</g>
	</g>
	<g transform="translate(-400,258)">
		<g class="st6">
			<path d="M780.8,312.9c-0.8-0.5-1.4-1.1-1.7-2c-0.4-0.8-0.6-1.8-0.6-2.9c0-1.1,0.2-2.1,0.6-2.9c0.4-0.8,1-1.5,1.8-2s1.8-0.7,3-0.7
				c1.1,0,1.9,0.2,2.7,0.5c0.7,0.3,1.3,0.8,1.7,1.4c0.4,0.6,0.7,1.4,0.8,2.2h-1.4c-0.1-0.7-0.3-1.2-0.6-1.7c-0.3-0.4-0.7-0.8-1.2-1
				c-0.5-0.2-1.2-0.3-2-0.3c-0.9,0-1.7,0.2-2.2,0.5c-0.6,0.3-1,0.8-1.3,1.5s-0.4,1.5-0.4,2.5c0,1,0.1,1.8,0.4,2.5
				c0.3,0.7,0.7,1.2,1.3,1.5c0.6,0.3,1.3,0.5,2.3,0.5c1.2,0,2.1-0.3,2.7-0.9c0.6-0.6,1-1.4,1.1-2.5h-4.8v-1h6.1v5.2h-1.2v-2.6
				c0,0.1-0.1,0.2-0.1,0.3c-0.2,0.5-0.4,1-0.8,1.3s-0.8,0.7-1.3,0.9c-0.5,0.2-1.2,0.3-1.9,0.3C782.6,313.6,781.6,313.4,780.8,312.9z
				"/>
			<path d="M791,302.7h1.7v1.3H791V302.7z M791.2,305.3h1.3v8h-1.3V305.3z"/>
			<path d="M795.8,313.2c-0.4-0.2-0.8-0.6-1-1c-0.2-0.5-0.3-1-0.3-1.8v-5.1h1.3v5c0,0.6,0.1,1,0.2,1.4c0.2,0.3,0.4,0.6,0.7,0.7
				c0.3,0.1,0.7,0.2,1.1,0.2c0.6,0,1-0.2,1.4-0.5c0.4-0.3,0.7-0.8,0.9-1.4c0.2-0.6,0.3-1.4,0.3-2.2h0.4c0,1.1-0.1,2-0.3,2.8
				s-0.6,1.4-1.1,1.8s-1.2,0.6-2,0.6C796.8,313.6,796.2,313.5,795.8,313.2z M800.4,310.8v-0.2v-5.3h1.3v8h-1.3V310.8z"/>
		</g>
	</g>
	<g transform="translate(-400,258)">
		<g class="st6">
			<path d="M847.5,302.7h1.3v10.6h-1.3V302.7z M848.5,312.2h6v1.1h-6V312.2z"/>
			<path d="M857,313.2c-0.4-0.2-0.8-0.6-1-1c-0.2-0.5-0.3-1-0.3-1.8v-5.1h1.3v5c0,0.6,0.1,1,0.2,1.4c0.2,0.3,0.4,0.6,0.7,0.7
				c0.3,0.1,0.7,0.2,1.1,0.2c0.6,0,1-0.2,1.4-0.5c0.4-0.3,0.7-0.8,0.9-1.4c0.2-0.6,0.3-1.4,0.3-2.2h0.4c0,1.1-0.1,2-0.3,2.8
				s-0.6,1.4-1.1,1.8c-0.5,0.4-1.2,0.6-2,0.6C858,313.6,857.5,313.5,857,313.2z M861.7,310.8v-0.2v-5.3h1.3v8h-1.3V310.8z"/>
			<path d="M866.4,312.7c-0.6-0.3-1-0.8-1.2-1.4s-0.4-1.3-0.4-2.2c0-1.3,0.3-2.2,0.9-3c0.6-0.7,1.6-1.1,2.8-1.1c1.2,0,2,0.3,2.6,1
				c0.6,0.7,0.9,1.7,0.9,3c0,0.9-0.1,1.6-0.4,2.2c-0.3,0.6-0.6,1-1.2,1.3s-1.2,0.4-2,0.4C867.7,313.1,867,313,866.4,312.7z
				 M866.8,316.4c-0.6-0.2-1-0.5-1.3-1c-0.3-0.4-0.5-0.9-0.5-1.6h1.3c0,0.4,0.1,0.7,0.3,1c0.2,0.3,0.5,0.5,0.8,0.7
				c0.4,0.2,0.8,0.2,1.4,0.2c0.6,0,1.2-0.1,1.6-0.2c0.4-0.2,0.7-0.4,0.9-0.8c0.2-0.3,0.3-0.8,0.3-1.4v-8h1.3v8
				c0,0.7-0.1,1.3-0.4,1.8c-0.3,0.5-0.7,0.9-1.3,1.1c-0.6,0.3-1.4,0.4-2.3,0.4C868,316.7,867.3,316.6,866.8,316.4z M870.3,311.8
				c0.4-0.2,0.7-0.5,0.9-1s0.3-1,0.3-1.7c0-0.7-0.1-1.3-0.3-1.7s-0.5-0.8-0.9-1s-0.9-0.3-1.5-0.3c-0.6,0-1.1,0.1-1.5,0.3
				c-0.4,0.2-0.7,0.5-0.9,1s-0.3,1-0.3,1.7s0.1,1.3,0.3,1.7s0.5,0.8,0.9,1c0.4,0.2,0.9,0.3,1.5,0.3
				C869.4,312.1,869.9,312,870.3,311.8z"/>
		</g>
	</g>
	<g transform="translate(-400,258)">
		<g class="st6">
			<path d="M922.5,313.3l-1-2.7h-5.3l-1,2.7h-1.4l4.1-10.6h2l4.1,10.6H922.5z M916.5,309.5h4.5l-2.2-5.9L916.5,309.5z"/>
			<path d="M926.3,312.7c-0.6-0.3-1-0.8-1.2-1.4s-0.4-1.3-0.4-2.2c0-1.3,0.3-2.2,0.9-3c0.6-0.7,1.6-1.1,2.8-1.1c1.2,0,2,0.3,2.6,1
				c0.6,0.7,0.9,1.7,0.9,3c0,0.9-0.1,1.6-0.4,2.2c-0.3,0.6-0.6,1-1.2,1.3s-1.2,0.4-2,0.4C927.5,313.1,926.9,313,926.3,312.7z
				 M926.7,316.4c-0.6-0.2-1-0.5-1.3-1c-0.3-0.4-0.5-0.9-0.5-1.6h1.3c0,0.4,0.1,0.7,0.3,1c0.2,0.3,0.5,0.5,0.8,0.7
				c0.4,0.2,0.8,0.2,1.4,0.2c0.6,0,1.2-0.1,1.6-0.2c0.4-0.2,0.7-0.4,0.9-0.8c0.2-0.3,0.3-0.8,0.3-1.4v-8h1.3v8
				c0,0.7-0.1,1.3-0.4,1.8c-0.3,0.5-0.7,0.9-1.3,1.1c-0.6,0.3-1.4,0.4-2.3,0.4C927.9,316.7,927.2,316.6,926.7,316.4z M930.2,311.8
				c0.4-0.2,0.7-0.5,0.9-1s0.3-1,0.3-1.7c0-0.7-0.1-1.3-0.3-1.7s-0.5-0.8-0.9-1s-0.9-0.3-1.5-0.3c-0.6,0-1.1,0.1-1.5,0.3
				c-0.4,0.2-0.7,0.5-0.9,1s-0.3,1-0.3,1.7s0.1,1.3,0.3,1.7s0.5,0.8,0.9,1c0.4,0.2,0.9,0.3,1.5,0.3
				C929.3,312.1,929.8,312,930.2,311.8z"/>
			<path d="M936.1,313c-0.6-0.4-1.1-0.9-1.4-1.5c-0.3-0.6-0.5-1.4-0.5-2.2c0-0.8,0.2-1.5,0.5-2.2c0.3-0.6,0.8-1.1,1.4-1.5
				s1.4-0.6,2.2-0.6c0.9,0,1.6,0.2,2.2,0.6c0.6,0.4,1.1,0.9,1.4,1.5c0.3,0.6,0.5,1.4,0.5,2.2c0,0.8-0.2,1.6-0.5,2.2
				c-0.3,0.6-0.8,1.1-1.4,1.5c-0.6,0.4-1.4,0.6-2.2,0.6C937.4,313.6,936.7,313.4,936.1,313z M935.8,311.1c0.2,0.5,0.5,0.8,0.9,1.1
				c0.4,0.2,0.9,0.3,1.5,0.3c0.6,0,1.1-0.1,1.5-0.3c0.4-0.2,0.7-0.6,0.9-1.1c0.2-0.5,0.3-1.1,0.3-1.8c0-0.7-0.1-1.4-0.3-1.8
				c-0.2-0.5-0.5-0.8-0.9-1c-0.4-0.2-0.9-0.3-1.5-0.3c-0.6,0-1.1,0.1-1.5,0.3c-0.4,0.2-0.7,0.6-0.9,1c-0.2,0.5-0.3,1.1-0.3,1.8
				C935.5,310.1,935.6,310.7,935.8,311.1z"/>
		</g>
	</g>
	<g transform="translate(-400,258)">
		<g class="st6">
			<path d="M984.8,311.2c0.2,0.4,0.6,0.8,1.1,1c0.5,0.2,1.1,0.4,2,0.4c0.7,0,1.3-0.1,1.7-0.2c0.4-0.2,0.7-0.4,0.9-0.7
				c0.2-0.3,0.3-0.7,0.3-1.1c0-0.6-0.2-1-0.5-1.3c-0.3-0.3-0.8-0.5-1.5-0.6l-2.5-0.4c-0.9-0.1-1.6-0.4-2.1-0.9s-0.7-1.1-0.7-1.9
				c0-0.6,0.1-1.1,0.4-1.6c0.3-0.5,0.8-0.8,1.4-1.1c0.6-0.3,1.4-0.4,2.3-0.4c0.9,0,1.7,0.1,2.3,0.4c0.6,0.3,1.1,0.7,1.5,1.2
				s0.5,1.1,0.6,1.8h-1.3c-0.1-0.5-0.2-0.9-0.4-1.3c-0.2-0.4-0.6-0.6-1-0.8c-0.4-0.2-1-0.3-1.6-0.3c-0.9,0-1.6,0.2-2.1,0.5
				s-0.7,0.8-0.7,1.5c0,0.4,0.1,0.8,0.4,1.1c0.2,0.3,0.7,0.5,1.2,0.6l2.7,0.4c1,0.1,1.7,0.5,2.2,0.9c0.5,0.5,0.7,1.1,0.7,1.9
				c0,0.7-0.1,1.3-0.4,1.8s-0.8,0.8-1.4,1.1c-0.6,0.2-1.4,0.4-2.4,0.4c-1.1,0-2-0.2-2.7-0.5c-0.7-0.3-1.2-0.8-1.5-1.4
				c-0.3-0.6-0.5-1.2-0.5-2h1.3C984.5,310.2,984.6,310.7,984.8,311.2z"/>
			<path d="M995.1,313c-0.6-0.4-1-0.9-1.3-1.5c-0.3-0.6-0.4-1.4-0.4-2.2c0-0.8,0.2-1.5,0.5-2.2c0.3-0.6,0.8-1.1,1.3-1.5
				s1.3-0.6,2.2-0.6c0.8,0,1.5,0.2,2.1,0.5c0.6,0.3,1,0.8,1.3,1.4c0.3,0.6,0.4,1.3,0.4,2.1v0.2c0,0.1,0,0.2,0,0.3h-6.8v-1h6.1
				l-0.6,0.6c0-0.7,0-1.3-0.2-1.8c-0.2-0.5-0.5-0.8-0.9-1s-0.9-0.3-1.4-0.3c-0.6,0-1.1,0.1-1.5,0.3c-0.4,0.2-0.7,0.6-0.9,1.1
				c-0.2,0.5-0.3,1.1-0.3,1.9s0.1,1.4,0.3,1.9c0.2,0.5,0.5,0.8,1,1.1c0.4,0.2,0.9,0.3,1.5,0.3c0.5,0,1-0.1,1.3-0.2
				c0.3-0.1,0.6-0.3,0.8-0.6s0.3-0.6,0.4-0.9h1.2c-0.1,0.5-0.2,0.9-0.5,1.3c-0.3,0.4-0.7,0.8-1.2,1c-0.5,0.3-1.2,0.4-2.1,0.4
				C996.5,313.6,995.7,313.4,995.1,313z"/>
			<path d="M1004,313.1c-0.3-0.1-0.5-0.3-0.6-0.6s-0.2-0.6-0.2-1.1v-5.1h-1.6v-0.7l1.7-0.4l0.5-1.7h0.7v1.8h2.7v1h-2.7v6h2.6v1h-1.9
				C1004.7,313.3,1004.3,313.3,1004,313.1z"/>
		</g>
	</g>
	<g transform="translate(-400,258)">
		<g class="st6">
			<path d="M1054.2,312.9c-0.8-0.5-1.4-1.1-1.8-2c-0.4-0.8-0.6-1.8-0.6-2.9c0-1.1,0.2-2.1,0.6-2.9c0.4-0.8,1-1.5,1.8-2
				c0.8-0.5,1.8-0.7,3-0.7s2.2,0.2,3,0.7s1.4,1.1,1.8,2c0.4,0.8,0.6,1.8,0.6,2.9c0,1.1-0.2,2.1-0.6,2.9c-0.4,0.8-1,1.5-1.8,2
				c-0.8,0.5-1.8,0.7-3,0.7S1055,313.4,1054.2,312.9z M1053.7,310.5c0.3,0.7,0.7,1.2,1.3,1.5c0.6,0.3,1.3,0.5,2.2,0.5
				c0.9,0,1.6-0.2,2.2-0.5c0.6-0.3,1-0.8,1.3-1.5c0.3-0.7,0.4-1.5,0.4-2.5c0-1-0.1-1.9-0.4-2.5s-0.7-1.2-1.3-1.5
				c-0.6-0.3-1.3-0.5-2.2-0.5c-0.9,0-1.7,0.2-2.2,0.5c-0.6,0.3-1,0.8-1.3,1.5s-0.4,1.5-0.4,2.5
				C1053.3,309,1053.4,309.8,1053.7,310.5z"/>
			<path d="M1065.7,313.1c-0.3-0.1-0.5-0.3-0.6-0.6s-0.2-0.6-0.2-1.1v-5.1h-1.6v-0.7l1.7-0.4l0.5-1.7h0.7v1.8h4.5v1h-4.5v6h2.6v1
				h-1.9C1066.3,313.3,1065.9,313.3,1065.7,313.1z M1070.9,313.1c-0.3-0.1-0.5-0.3-0.6-0.6s-0.2-0.6-0.2-1.1v-5.1h-1.6v-0.7l1.6-0.2
				l0.6-1.9h0.7v1.8h2.7v1h-2.7v6h2.6v1h-1.9C1071.6,313.3,1071.2,313.3,1070.9,313.1z"/>
		</g>
	</g>
	<g transform="translate(-400,258)">
		<g class="st6">
			<path d="M1125.1,302.7h1.3v10.6h-2.2l-4.9-8.4c-0.3-0.6-0.5-1-0.7-1.4v9.7h-1.3v-10.6h2.3l4.9,8.4c0.2,0.3,0.4,0.8,0.7,1.4V302.7
				z"/>
			<path d="M1129.9,313c-0.6-0.4-1.1-0.9-1.4-1.5c-0.3-0.6-0.5-1.4-0.5-2.2c0-0.8,0.2-1.5,0.5-2.2c0.3-0.6,0.8-1.1,1.4-1.5
				s1.4-0.6,2.2-0.6c0.9,0,1.6,0.2,2.2,0.6c0.6,0.4,1.1,0.9,1.4,1.5c0.3,0.6,0.5,1.4,0.5,2.2c0,0.8-0.2,1.6-0.5,2.2
				c-0.3,0.6-0.8,1.1-1.4,1.5c-0.6,0.4-1.4,0.6-2.2,0.6C1131.3,313.6,1130.5,313.4,1129.9,313z M1129.7,311.1
				c0.2,0.5,0.5,0.8,0.9,1.1c0.4,0.2,0.9,0.3,1.5,0.3c0.6,0,1.1-0.1,1.5-0.3c0.4-0.2,0.7-0.6,0.9-1.1c0.2-0.5,0.3-1.1,0.3-1.8
				c0-0.7-0.1-1.4-0.3-1.8c-0.2-0.5-0.5-0.8-0.9-1c-0.4-0.2-0.9-0.3-1.5-0.3c-0.6,0-1.1,0.1-1.5,0.3c-0.4,0.2-0.7,0.6-0.9,1
				c-0.2,0.5-0.3,1.1-0.3,1.8C1129.4,310.1,1129.5,310.7,1129.7,311.1z"/>
			<path d="M1138,305.3l3,7.6h-0.5l3-7.6h1.3l-3.2,8h-1.7l-3.2-8H1138z"/>
		</g>
	</g>
	<g transform="translate(-400,258)">
		<g class="st6">
			<path d="M1188.5,302.7h1.3v10.6h-1.3V302.7z M1189.3,312.2h3.4c0.9,0,1.7-0.2,2.3-0.5c0.6-0.3,1-0.8,1.2-1.4
				c0.2-0.6,0.4-1.4,0.4-2.3s-0.1-1.7-0.4-2.3c-0.2-0.6-0.7-1.1-1.2-1.4s-1.3-0.5-2.3-0.5h-3.4v-1.1h3.7c1.1,0,2.1,0.2,2.8,0.7
				c0.7,0.5,1.3,1.1,1.7,1.9s0.5,1.7,0.5,2.7c0,1-0.2,1.9-0.5,2.7c-0.4,0.8-0.9,1.4-1.7,1.9c-0.7,0.5-1.7,0.7-2.8,0.7h-3.7V312.2z"
				/>
			<path d="M1199.5,302.7h1.7v1.3h-1.7V302.7z M1199.7,305.3h1.3v8h-1.3V305.3z"/>
			<path d="M1203.1,307.1c0.3-0.6,0.8-1.1,1.4-1.5s1.3-0.5,2.2-0.5c0.8,0,1.5,0.1,2,0.4c0.5,0.3,1,0.6,1.3,1.1
				c0.3,0.5,0.5,1,0.5,1.7h-1.2c-0.1-0.4-0.2-0.8-0.4-1.2c-0.2-0.3-0.5-0.6-0.8-0.7c-0.4-0.2-0.8-0.3-1.3-0.3
				c-0.6,0-1.1,0.1-1.5,0.3s-0.7,0.6-0.9,1s-0.3,1.1-0.3,1.8c0,0.8,0.1,1.4,0.3,1.8c0.2,0.5,0.5,0.8,0.9,1c0.4,0.2,0.9,0.3,1.5,0.3
				c0.8,0,1.4-0.2,1.9-0.6c0.4-0.4,0.7-1,0.8-1.7h1.2c0,0.6-0.2,1.2-0.5,1.7s-0.7,0.9-1.3,1.2c-0.6,0.3-1.2,0.4-2,0.4
				c-0.9,0-1.6-0.2-2.2-0.5c-0.6-0.4-1.1-0.9-1.4-1.5c-0.3-0.6-0.5-1.4-0.5-2.2S1202.8,307.8,1203.1,307.1z"/>
		</g>
	</g>
</g>
<g transform="translate(-408,-220)">
	<g>
		<g class="st6">
			<path d="M426.3,241.6l-1-2.7h-5.3l-1,2.7h-1.3l4-10.6h2l4,10.6H426.3z M420.3,237.8h4.5l-2.2-5.9L420.3,237.8z"/>
			<path d="M429,230.4h1.3v11.2H429V230.4z"/>
			<path d="M433.8,241.4c-0.3-0.1-0.5-0.3-0.6-0.6c-0.1-0.3-0.2-0.6-0.2-1.1v-5.1h-1.5v-0.7l1.6-0.4l0.5-1.7h0.7v1.8h2.6v1h-2.6v6
				h2.5v1h-1.9C434.4,241.6,434,241.5,433.8,241.4z"/>
			<path d="M439.6,241.3c-0.6-0.4-1-0.9-1.3-1.5c-0.3-0.6-0.4-1.4-0.4-2.2c0-0.8,0.1-1.5,0.4-2.2c0.3-0.6,0.7-1.1,1.3-1.5
				s1.3-0.6,2.2-0.6c0.8,0,1.5,0.2,2,0.5s1,0.8,1.3,1.4s0.4,1.3,0.4,2.1v0.2c0,0.1,0,0.2,0,0.3h-6.7v-1h6l-0.6,0.6
				c0-0.7,0-1.3-0.2-1.8s-0.5-0.8-0.8-1c-0.4-0.2-0.9-0.3-1.4-0.3c-0.6,0-1.1,0.1-1.5,0.3c-0.4,0.2-0.7,0.6-0.9,1.1
				c-0.2,0.5-0.3,1.1-0.3,1.9s0.1,1.4,0.3,1.9c0.2,0.5,0.5,0.8,0.9,1.1c0.4,0.2,0.9,0.3,1.5,0.3c0.5,0,0.9-0.1,1.3-0.2
				c0.3-0.1,0.6-0.3,0.8-0.6s0.3-0.6,0.4-0.9h1.2c-0.1,0.5-0.2,0.9-0.5,1.3c-0.3,0.4-0.7,0.8-1.2,1c-0.5,0.3-1.2,0.4-2.1,0.4
				C440.9,241.9,440.1,241.7,439.6,241.3z"/>
			<path d="M446.8,233.6h7v1h-7V233.6z M446.8,240.6l5.7-6.4l1.2,0.3l-5.9,6.6L446.8,240.6z M446.8,240.6h7v1h-7V240.6z"/>
			<path d="M455.3,233.6h7v1h-7V233.6z M455.3,240.6l5.7-6.4l1.2,0.3l-5.9,6.6L455.3,240.6z M455.3,240.6h7v1h-7V240.6z"/>
			<path d="M464.6,241.5c-0.4-0.2-0.7-0.4-0.9-0.8c-0.2-0.3-0.3-0.8-0.3-1.3c0-0.4,0.1-0.8,0.2-1.1s0.4-0.6,0.8-0.8s0.8-0.4,1.4-0.5
				l2-0.3c0.4-0.1,0.7-0.2,0.9-0.3s0.3-0.4,0.3-0.7c0-0.3-0.1-0.6-0.2-0.8c-0.1-0.2-0.3-0.4-0.6-0.5c-0.3-0.1-0.7-0.2-1.2-0.2
				c-0.7,0-1.3,0.2-1.6,0.5s-0.5,0.7-0.6,1.3h-1.3c0-0.6,0.2-1.1,0.4-1.5s0.7-0.7,1.2-1s1.1-0.3,1.9-0.3c0.7,0,1.3,0.1,1.8,0.3
				c0.5,0.2,0.8,0.5,1.1,0.9c0.2,0.4,0.3,0.8,0.3,1.3v3.8c0,0.3,0,0.6,0,0.9c0,0.3,0,0.7,0.1,1h-1.2c0-0.3-0.1-0.7-0.1-1
				c0-0.3,0-0.6,0-0.9c-0.1,0.4-0.3,0.7-0.5,1c-0.2,0.3-0.6,0.6-1,0.8c-0.4,0.2-0.9,0.3-1.5,0.3C465.4,241.8,465,241.7,464.6,241.5z
				 M467.7,240.4c0.4-0.3,0.7-0.6,0.9-1.1c0.2-0.5,0.3-0.9,0.3-1.5v-0.7c-0.2,0.1-0.3,0.2-0.5,0.3s-0.4,0.1-0.7,0.2l-0.2,0l-1.3,0.3
				c-0.6,0.1-1,0.3-1.2,0.5s-0.4,0.6-0.4,1c0,0.4,0.1,0.8,0.4,1c0.3,0.2,0.7,0.4,1.2,0.4C466.8,240.8,467.3,240.7,467.7,240.4z"/>
			<path d="M475.5,231h5.8v1.1h-5.8V231z M475.5,240.5h5.8v1.1h-5.8V240.5z M477.8,231.5h1.3v9.6h-1.3V231.5z"/>
			<path d="M488.5,234.5c0.6,0.8,0.9,1.8,0.9,3.1c0,0.9-0.1,1.6-0.4,2.3c-0.3,0.6-0.7,1.1-1.2,1.5c-0.5,0.3-1.2,0.5-1.9,0.5
				c-0.8,0-1.5-0.2-2-0.5s-1-0.9-1.2-1.5c-0.3-0.6-0.4-1.4-0.4-2.2c0-0.8,0.1-1.6,0.4-2.2c0.3-0.6,0.7-1.1,1.2-1.5s1.2-0.5,2-0.5
				C487,233.3,487.9,233.7,488.5,234.5z M484.6,234.7c-0.4,0.2-0.7,0.6-0.9,1.1s-0.3,1.1-0.3,1.8c0,0.7,0.1,1.3,0.3,1.8
				s0.5,0.8,0.9,1.1c0.4,0.2,0.9,0.4,1.5,0.4c0.6,0,1.1-0.1,1.5-0.3c0.4-0.2,0.7-0.6,1-1.1c0.2-0.5,0.3-1.1,0.3-1.8
				s-0.1-1.3-0.3-1.8c-0.2-0.5-0.5-0.8-1-1.1c-0.4-0.2-0.9-0.3-1.5-0.3C485.5,234.4,485,234.5,484.6,234.7z M490.2,241.6h-1.3v-1.9
				v-0.2v-9.1h1.3V241.6z"/>
			<path d="M492.5,233.6h1.3v2.5l0,0.3v5.2h-1.3V233.6z M493.6,236c0.2-0.8,0.6-1.4,1.1-1.8s1.1-0.7,1.9-0.7h0.3v1.3h-0.4
				c-0.8,0-1.3,0.1-1.8,0.5c-0.4,0.3-0.7,0.8-0.9,1.3c-0.2,0.6-0.2,1.3-0.2,2.1h-0.4C493.3,237.6,493.4,236.8,493.6,236z"/>
			<path d="M499.5,241.3c-0.6-0.4-1.1-0.9-1.4-1.5c-0.3-0.6-0.5-1.4-0.5-2.2c0-0.8,0.2-1.5,0.5-2.2c0.3-0.6,0.8-1.1,1.4-1.5
				s1.3-0.6,2.2-0.6c0.9,0,1.6,0.2,2.2,0.6c0.6,0.4,1.1,0.9,1.4,1.5c0.3,0.6,0.4,1.4,0.4,2.2c0,0.8-0.1,1.6-0.4,2.2
				c-0.3,0.6-0.8,1.1-1.4,1.5c-0.6,0.4-1.3,0.6-2.2,0.6C500.8,241.9,500.1,241.7,499.5,241.3z M499.3,239.4c0.2,0.5,0.5,0.8,0.9,1.1
				c0.4,0.2,0.9,0.3,1.5,0.3c0.6,0,1.1-0.1,1.5-0.3c0.4-0.2,0.7-0.6,0.9-1.1c0.2-0.5,0.3-1.1,0.3-1.8c0-0.7-0.1-1.4-0.3-1.8
				c-0.2-0.5-0.5-0.8-0.9-1c-0.4-0.2-0.9-0.3-1.5-0.3c-0.6,0-1.1,0.1-1.5,0.3c-0.4,0.2-0.7,0.6-0.9,1c-0.2,0.5-0.3,1.1-0.3,1.8
				C499,238.3,499.1,238.9,499.3,239.4z"/>
			<path d="M507.4,233.6h1.3v8h-1.3V233.6z M512.8,235.3c-0.1-0.3-0.3-0.6-0.6-0.7c-0.3-0.1-0.6-0.2-1-0.2c-0.6,0-1,0.2-1.4,0.5
				c-0.4,0.3-0.6,0.8-0.8,1.4c-0.2,0.6-0.3,1.4-0.3,2.3h-0.4v-0.3c0-1,0.1-1.9,0.4-2.6c0.2-0.7,0.6-1.3,1.1-1.7
				c0.5-0.4,1.1-0.6,1.9-0.6c0.6,0,1.1,0.1,1.5,0.4c0.4,0.2,0.7,0.6,0.9,1s0.3,1,0.3,1.7v5.2h-1.3v-5
				C513.1,236.1,513,235.6,512.8,235.3z M518.4,235.3c-0.1-0.3-0.3-0.6-0.6-0.7c-0.3-0.1-0.6-0.2-1-0.2c-0.6,0-1.1,0.2-1.4,0.5
				c-0.4,0.3-0.6,0.8-0.8,1.4c-0.2,0.6-0.3,1.4-0.3,2.3h-0.5c0-1.1,0.1-2,0.3-2.8c0.2-0.8,0.6-1.4,1.1-1.8c0.5-0.4,1.2-0.6,2-0.6
				c0.6,0,1.1,0.1,1.5,0.4c0.4,0.2,0.7,0.6,0.9,1c0.2,0.5,0.3,1,0.3,1.7v5.2h-1.3v-5C518.7,236.1,518.6,235.6,518.4,235.3z"/>
			<path d="M523.2,241.3c-0.6-0.4-1-0.9-1.3-1.5c-0.3-0.6-0.4-1.4-0.4-2.2c0-0.8,0.1-1.5,0.4-2.2c0.3-0.6,0.7-1.1,1.3-1.5
				s1.3-0.6,2.2-0.6c0.8,0,1.5,0.2,2,0.5s1,0.8,1.3,1.4s0.4,1.3,0.4,2.1v0.2c0,0.1,0,0.2,0,0.3h-6.7v-1h6l-0.6,0.6
				c0-0.7,0-1.3-0.2-1.8s-0.5-0.8-0.8-1c-0.4-0.2-0.9-0.3-1.4-0.3c-0.6,0-1.1,0.1-1.5,0.3c-0.4,0.2-0.7,0.6-0.9,1.1
				c-0.2,0.5-0.3,1.1-0.3,1.9s0.1,1.4,0.3,1.9c0.2,0.5,0.5,0.8,0.9,1.1c0.4,0.2,0.9,0.3,1.5,0.3c0.5,0,0.9-0.1,1.3-0.2
				c0.3-0.1,0.6-0.3,0.8-0.6s0.3-0.6,0.4-0.9h1.2c-0.1,0.5-0.2,0.9-0.5,1.3c-0.3,0.4-0.7,0.8-1.2,1c-0.5,0.3-1.2,0.4-2.1,0.4
				C524.6,241.9,523.8,241.7,523.2,241.3z"/>
			<path d="M532,241.4c-0.3-0.1-0.5-0.3-0.6-0.6c-0.1-0.3-0.2-0.6-0.2-1.1v-5.1h-1.5v-0.7l1.6-0.4l0.5-1.7h0.7v1.8h2.6v1h-2.6v6h2.5
				v1h-1.9C532.7,241.6,532.3,241.5,532,241.4z"/>
			<path d="M536.8,233.6h1.3v2.5l0,0.3v5.2h-1.3V233.6z M538,236c0.2-0.8,0.6-1.4,1.1-1.8s1.1-0.7,1.9-0.7h0.3v1.3H541
				c-0.8,0-1.3,0.1-1.8,0.5c-0.4,0.3-0.7,0.8-0.9,1.3c-0.2,0.6-0.2,1.3-0.2,2.1h-0.4C537.7,237.6,537.8,236.8,538,236z"/>
			<path d="M542.5,231h1.6v1.3h-1.6V231z M542.7,233.6h1.3v8h-1.3V233.6z"/>
			<path d="M546,235.4c0.3-0.6,0.8-1.1,1.4-1.5c0.6-0.4,1.3-0.5,2.2-0.5c0.8,0,1.4,0.1,2,0.4c0.5,0.3,1,0.6,1.2,1.1
				c0.3,0.5,0.5,1,0.5,1.7h-1.2c-0.1-0.4-0.2-0.8-0.4-1.2c-0.2-0.3-0.5-0.6-0.8-0.7s-0.8-0.3-1.3-0.3c-0.6,0-1.1,0.1-1.5,0.3
				s-0.7,0.6-0.9,1c-0.2,0.5-0.3,1.1-0.3,1.8c0,0.8,0.1,1.4,0.3,1.8c0.2,0.5,0.5,0.8,0.9,1c0.4,0.2,0.9,0.3,1.5,0.3
				c0.8,0,1.4-0.2,1.8-0.6c0.4-0.4,0.7-1,0.8-1.7h1.2c0,0.6-0.2,1.2-0.5,1.7c-0.3,0.5-0.7,0.9-1.3,1.2c-0.6,0.3-1.2,0.4-2,0.4
				c-0.9,0-1.6-0.2-2.2-0.5c-0.6-0.4-1.1-0.9-1.4-1.5c-0.3-0.6-0.5-1.4-0.5-2.2S545.7,236,546,235.4z"/>
			<path d="M555.9,241.5c-0.4-0.2-0.7-0.4-0.9-0.8c-0.2-0.3-0.3-0.8-0.3-1.3c0-0.4,0.1-0.8,0.2-1.1c0.2-0.3,0.4-0.6,0.8-0.8
				s0.8-0.4,1.4-0.5l2-0.3c0.4-0.1,0.7-0.2,0.9-0.3c0.2-0.1,0.3-0.4,0.3-0.7c0-0.3-0.1-0.6-0.2-0.8s-0.3-0.4-0.6-0.5
				c-0.3-0.1-0.7-0.2-1.2-0.2c-0.7,0-1.3,0.2-1.6,0.5c-0.3,0.3-0.5,0.7-0.6,1.3h-1.3c0-0.6,0.2-1.1,0.4-1.5s0.7-0.7,1.2-1
				c0.5-0.2,1.1-0.3,1.9-0.3c0.7,0,1.3,0.1,1.8,0.3c0.5,0.2,0.8,0.5,1.1,0.9c0.2,0.4,0.3,0.8,0.3,1.3v3.8c0,0.3,0,0.6,0,0.9
				c0,0.3,0,0.7,0.1,1h-1.2c0-0.3-0.1-0.7-0.1-1c0-0.3,0-0.6,0-0.9c-0.1,0.4-0.3,0.7-0.5,1c-0.2,0.3-0.6,0.6-1,0.8
				c-0.4,0.2-0.9,0.3-1.5,0.3C556.7,241.8,556.2,241.7,555.9,241.5z M559,240.4c0.4-0.3,0.7-0.6,0.9-1.1c0.2-0.5,0.3-0.9,0.3-1.5
				v-0.7c-0.2,0.1-0.3,0.2-0.5,0.3s-0.4,0.1-0.7,0.2l-0.2,0l-1.3,0.3c-0.6,0.1-1,0.3-1.2,0.5c-0.3,0.2-0.4,0.6-0.4,1
				c0,0.4,0.1,0.8,0.4,1c0.3,0.2,0.7,0.4,1.2,0.4C558.1,240.8,558.6,240.7,559,240.4z"/>
			<path d="M418.4,254.6c0.3-0.6,0.8-1.1,1.4-1.5s1.3-0.5,2.2-0.5c0.8,0,1.4,0.1,2,0.4c0.5,0.3,1,0.6,1.2,1.1c0.3,0.5,0.5,1,0.5,1.7
				h-1.2c-0.1-0.4-0.2-0.8-0.4-1.2c-0.2-0.3-0.5-0.6-0.8-0.7s-0.8-0.3-1.3-0.3c-0.6,0-1.1,0.1-1.5,0.3c-0.4,0.2-0.7,0.6-0.9,1
				s-0.3,1.1-0.3,1.8c0,0.8,0.1,1.4,0.3,1.8c0.2,0.5,0.5,0.8,0.9,1c0.4,0.2,0.9,0.3,1.5,0.3c0.8,0,1.4-0.2,1.8-0.6
				c0.4-0.4,0.7-1,0.8-1.7h1.2c0,0.6-0.2,1.2-0.5,1.7s-0.7,0.9-1.3,1.2c-0.6,0.3-1.2,0.4-2,0.4c-0.9,0-1.6-0.2-2.2-0.5
				s-1.1-0.9-1.4-1.5s-0.5-1.4-0.5-2.2S418.1,255.2,418.4,254.6z"/>
			<path d="M427.3,252.8h1.3v8h-1.3V252.8z M432.7,254.5c-0.1-0.3-0.3-0.6-0.6-0.7c-0.3-0.1-0.6-0.2-1-0.2c-0.6,0-1,0.2-1.4,0.5
				c-0.4,0.3-0.6,0.8-0.8,1.4c-0.2,0.6-0.3,1.4-0.3,2.3h-0.4v-0.3c0-1,0.1-1.9,0.4-2.6c0.2-0.7,0.6-1.3,1.1-1.7
				c0.5-0.4,1.1-0.6,1.9-0.6c0.6,0,1.1,0.1,1.5,0.4c0.4,0.2,0.7,0.6,0.9,1s0.3,1,0.3,1.7v5.2h-1.3v-5
				C432.9,255.3,432.9,254.8,432.7,254.5z M438.3,254.5c-0.1-0.3-0.3-0.6-0.6-0.7c-0.3-0.1-0.6-0.2-1-0.2c-0.6,0-1.1,0.2-1.4,0.5
				c-0.4,0.3-0.6,0.8-0.8,1.4c-0.2,0.6-0.3,1.4-0.3,2.3h-0.5c0-1.1,0.1-2,0.3-2.8c0.2-0.8,0.6-1.4,1.1-1.8c0.5-0.4,1.2-0.6,2-0.6
				c0.6,0,1.1,0.1,1.5,0.4c0.4,0.2,0.7,0.6,0.9,1c0.2,0.5,0.3,1,0.3,1.7v5.2h-1.3v-5C438.5,255.3,438.5,254.8,438.3,254.5z"/>
		</g>
	</g>
</g>
</svg>
