<?xml version="1.0" encoding="utf-8"?>
<!-- Generator: Adobe Illustrator 26.3.1, SVG Export Plug-In . SVG Version: 6.00 Build 0)  -->
<svg version="1.1" id="Livello_1" xmlns="http://www.w3.org/2000/svg" xmlns:xlink="http://www.w3.org/1999/xlink" x="0px" y="0px"
	 viewBox="0 0 1000 700" style="enable-background:new 0 0 1000 700;" xml:space="preserve">
<style type="text/css">
	.st0{clip-path:url(#SVGID_00000075873216309444801250000007052122159258706820_);}
	.st1{fill:none;stroke:#000000;}
	.st2{fill:none;stroke:#1F77B4;}
	.st3{fill:none;stroke:#CCCCCC;}
	.st4{fill:#0047CC;}
	.st5{fill:#F0F0F0;}
	.st6{fill:#CCDAF5;}
	.st7{enable-background:new    ;}
	.st8{fill:none;stroke:#F0F0F0;stroke-width:0.75;stroke-miterlimit:10;}
	.st9{fill:none;stroke:#CCDAF5;stroke-miterlimit:10;}
	.st10{fill:none;stroke:#CCDAF5;stroke-miterlimit:10;stroke-dasharray:12.0062,10.0051;}
	.st11{fill:none;stroke:#F0F0F0;stroke-width:0.5;stroke-miterlimit:10;}
	.st12{fill-rule:evenodd;clip-rule:evenodd;fill:#FFFFFF;}
	.st13{fill:none;stroke:#85A7E6;stroke-width:2;stroke-miterlimit:10;}
	.st14{clip-path:url(#SVGID_00000112626693406767159910000002986826518466400929_);}
	.st15{clip-path:url(#SVGID_00000026135688545892152390000000951609328521088135_);}
	.st16{clip-path:url(#SVGID_00000165949855333699134010000018323645640555122341_);}
	.st17{clip-path:url(#SVGID_00000116928032475041431490000009390599980420702118_);}
	.st18{clip-path:url(#SVGID_00000096745097648265993200000014292311032860532109_);}
	.st19{clip-path:url(#SVGID_00000154407737721933675600000005677627126317687473_);}
</style>
<rect x="0.7" class="st4" width="999.5" height="700"/>
<g>
	<g>
		<g>
			<path class="st5" d="M21.4,21.8c0.2,0.4,0.6,0.8,1.1,1c0.5,0.2,1.1,0.4,2,0.4c0.7,0,1.3-0.1,1.7-0.2c0.4-0.2,0.7-0.4,0.9-0.7
				c0.2-0.3,0.3-0.7,0.3-1.1c0-0.6-0.2-1-0.5-1.3c-0.3-0.3-0.8-0.5-1.5-0.6l-2.5-0.4c-0.9-0.1-1.6-0.4-2.1-0.9
				c-0.4-0.5-0.7-1.1-0.7-1.9c0-0.6,0.1-1.1,0.4-1.6c0.3-0.5,0.8-0.8,1.4-1.1s1.4-0.4,2.3-0.4c0.9,0,1.7,0.1,2.3,0.4
				c0.6,0.3,1.1,0.7,1.5,1.2c0.3,0.5,0.5,1.1,0.6,1.8h-1.3c-0.1-0.5-0.2-0.9-0.4-1.3c-0.2-0.4-0.6-0.6-1-0.8c-0.4-0.2-1-0.3-1.6-0.3
				c-0.9,0-1.6,0.2-2.1,0.5s-0.7,0.8-0.7,1.5c0,0.4,0.1,0.8,0.4,1.1c0.2,0.3,0.7,0.5,1.2,0.6l2.7,0.4c1,0.1,1.7,0.5,2.2,0.9
				c0.5,0.5,0.7,1.1,0.7,1.9c0,0.7-0.1,1.3-0.4,1.8c-0.3,0.5-0.8,0.8-1.4,1.1s-1.4,0.4-2.4,0.4c-1.1,0-2-0.2-2.7-0.5
				c-0.7-0.3-1.2-0.8-1.5-1.4c-0.3-0.6-0.5-1.2-0.5-2h1.3C21.1,20.9,21.2,21.4,21.4,21.8z"/>
			<path class="st5" d="M31.3,23.9c-0.4-0.2-0.7-0.4-0.9-0.8S30,22.3,30,21.8c0-0.4,0.1-0.8,0.3-1.1s0.4-0.6,0.8-0.8
				c0.4-0.2,0.8-0.4,1.4-0.5l2.1-0.3c0.4-0.1,0.7-0.2,0.9-0.3s0.3-0.4,0.3-0.7c0-0.3-0.1-0.6-0.2-0.8c-0.1-0.2-0.3-0.4-0.6-0.5
				c-0.3-0.1-0.7-0.2-1.2-0.2c-0.8,0-1.3,0.2-1.7,0.5c-0.4,0.3-0.5,0.7-0.6,1.3h-1.3c0-0.6,0.2-1.1,0.4-1.5s0.7-0.7,1.2-1
				c0.5-0.2,1.1-0.3,1.9-0.3c0.7,0,1.3,0.1,1.8,0.3c0.5,0.2,0.8,0.5,1.1,0.9c0.2,0.4,0.3,0.8,0.3,1.3V22c0,0.3,0,0.6,0,0.9
				s0,0.7,0.1,1h-1.2c0-0.3-0.1-0.7-0.1-1s0-0.6,0-0.9c-0.1,0.4-0.3,0.7-0.5,1c-0.2,0.3-0.6,0.6-1,0.8c-0.4,0.2-0.9,0.3-1.5,0.3
				C32.2,24.2,31.7,24.1,31.3,23.9z M34.5,22.7c0.4-0.3,0.7-0.6,0.9-1.1c0.2-0.5,0.3-0.9,0.3-1.5v-0.7c-0.2,0.1-0.4,0.2-0.5,0.3
				s-0.4,0.1-0.7,0.2l-0.2,0l-1.3,0.3c-0.6,0.1-1,0.3-1.2,0.5s-0.4,0.6-0.4,1c0,0.4,0.1,0.8,0.4,1c0.3,0.2,0.7,0.4,1.2,0.4
				C33.5,23.1,34.1,23,34.5,22.7z"/>
			<path class="st5" d="M39,12.7h1.3v11.2H39V12.7z"/>
			<path class="st5" d="M42.3,13.3H44v1.3h-1.7V13.3z M42.5,15.9h1.3v8h-1.3V15.9z"/>
			<path class="st5" d="M46,15.9h1.3v8H46V15.9z M47.2,18.1c0.2-0.8,0.6-1.4,1.1-1.8c0.5-0.4,1.2-0.6,2-0.6c0.7,0,1.2,0.1,1.6,0.4
				c0.4,0.2,0.7,0.6,0.9,1.1c0.2,0.5,0.3,1,0.3,1.7v5.1H52v-5c0-0.6-0.1-1-0.2-1.3c-0.2-0.3-0.4-0.6-0.7-0.7
				c-0.3-0.1-0.6-0.2-1.1-0.2c-0.6,0-1.1,0.2-1.5,0.5c-0.4,0.3-0.7,0.8-0.9,1.4c-0.2,0.6-0.3,1.4-0.3,2.3h-0.4
				C46.9,19.8,47,18.9,47.2,18.1z"/>
			<path class="st5" d="M55.1,13.3h1.7v1.3h-1.7V13.3z M55.3,15.9h1.3v8h-1.3V15.9z"/>
			<path class="st5" d="M60,23.7c-0.3-0.1-0.5-0.3-0.6-0.6c-0.1-0.3-0.2-0.6-0.2-1.1V17h-1.6v-0.7l1.7-0.4l0.5-1.7h0.7v1.8h2.7v1
				h-2.7v6h2.6v1h-1.9C60.7,23.9,60.3,23.9,60,23.7z"/>
			<path class="st5" d="M65.7,23.9c-0.4-0.2-0.7-0.4-0.9-0.8s-0.3-0.8-0.3-1.3c0-0.4,0.1-0.8,0.3-1.1s0.4-0.6,0.8-0.8
				c0.4-0.2,0.8-0.4,1.4-0.5l2.1-0.3c0.4-0.1,0.7-0.2,0.9-0.3s0.3-0.4,0.3-0.7c0-0.3-0.1-0.6-0.2-0.8c-0.1-0.2-0.3-0.4-0.6-0.5
				c-0.3-0.1-0.7-0.2-1.2-0.2c-0.8,0-1.3,0.2-1.7,0.5c-0.4,0.3-0.5,0.7-0.6,1.3h-1.3c0-0.6,0.2-1.1,0.4-1.5s0.7-0.7,1.2-1
				c0.5-0.2,1.1-0.3,1.9-0.3c0.7,0,1.3,0.1,1.8,0.3c0.5,0.2,0.8,0.5,1.1,0.9c0.2,0.4,0.3,0.8,0.3,1.3V22c0,0.3,0,0.6,0,0.9
				s0,0.7,0.1,1h-1.2c0-0.3-0.1-0.7-0.1-1s0-0.6,0-0.9c-0.1,0.4-0.3,0.7-0.5,1c-0.2,0.3-0.6,0.6-1,0.8c-0.4,0.2-0.9,0.3-1.5,0.3
				C66.5,24.2,66.1,24.1,65.7,23.9z M68.8,22.7c0.4-0.3,0.7-0.6,0.9-1.1c0.2-0.5,0.3-0.9,0.3-1.5v-0.7c-0.2,0.1-0.4,0.2-0.5,0.3
				s-0.4,0.1-0.7,0.2l-0.2,0l-1.3,0.3c-0.6,0.1-1,0.3-1.2,0.5s-0.4,0.6-0.4,1c0,0.4,0.1,0.8,0.4,1c0.3,0.2,0.7,0.4,1.2,0.4
				C67.9,23.1,68.4,23,68.8,22.7z M66.5,13l3.4,1.5L69.7,15l-3.6-1L66.5,13z"/>
			<path class="st5" d="M82.8,16.8c0.6,0.8,0.9,1.8,0.9,3.1c0,0.9-0.1,1.6-0.4,2.3c-0.3,0.6-0.7,1.1-1.2,1.5
				c-0.5,0.3-1.2,0.5-1.9,0.5c-0.8,0-1.5-0.2-2.1-0.5s-1-0.9-1.2-1.5c-0.3-0.6-0.4-1.4-0.4-2.2c0-0.8,0.1-1.6,0.4-2.2
				c0.3-0.6,0.7-1.1,1.2-1.5s1.2-0.5,2.1-0.5C81.3,15.7,82.2,16.1,82.8,16.8z M78.9,17.1c-0.4,0.2-0.7,0.6-0.9,1.1s-0.3,1.1-0.3,1.8
				c0,0.7,0.1,1.3,0.3,1.8s0.5,0.8,0.9,1.1c0.4,0.2,0.9,0.4,1.5,0.4c0.6,0,1.1-0.1,1.5-0.3s0.7-0.6,1-1.1s0.3-1.1,0.3-1.8
				s-0.1-1.3-0.3-1.8c-0.2-0.5-0.5-0.8-1-1.1s-0.9-0.3-1.5-0.3C79.8,16.7,79.3,16.8,78.9,17.1z M84.5,23.9h-1.3V22v-0.2v-9.1h1.3
				V23.9z"/>
			<path class="st5" d="M88,23.7c-0.6-0.4-1-0.9-1.3-1.5c-0.3-0.6-0.4-1.4-0.4-2.2c0-0.8,0.2-1.5,0.5-2.2c0.3-0.6,0.8-1.1,1.3-1.5
				s1.3-0.6,2.2-0.6c0.8,0,1.5,0.2,2.1,0.5c0.6,0.3,1,0.8,1.3,1.4c0.3,0.6,0.4,1.3,0.4,2.1v0.2c0,0.1,0,0.2,0,0.3h-6.8v-1h6.1
				l-0.6,0.6c0-0.7,0-1.3-0.2-1.8s-0.5-0.8-0.9-1s-0.9-0.3-1.4-0.3c-0.6,0-1.1,0.1-1.5,0.3S88,17.6,87.8,18
				c-0.2,0.5-0.3,1.1-0.3,1.9s0.1,1.4,0.3,1.9c0.2,0.5,0.5,0.8,1,1.1c0.4,0.2,0.9,0.3,1.5,0.3c0.5,0,1-0.1,1.3-0.2
				c0.3-0.1,0.6-0.3,0.8-0.6s0.3-0.6,0.4-0.9H94c-0.1,0.5-0.2,0.9-0.5,1.3c-0.3,0.4-0.7,0.8-1.2,1c-0.5,0.3-1.2,0.4-2.1,0.4
				C89.3,24.2,88.6,24,88,23.7z"/>
			<path class="st5" d="M95.6,12.7h1.3v11.2h-1.3V12.7z"/>
			<path class="st5" d="M99.2,12.7h1.3v11.2h-1.3V12.7z"/>
			<path class="st5" d="M102.3,13.3h1.7v2.3c0,0.4-0.1,0.7-0.3,0.9s-0.5,0.3-1,0.3h-0.4V16h0.8v-1.4h-0.8V13.3z"/>
			<path class="st5" d="M106.4,23.9c-0.4-0.2-0.7-0.4-0.9-0.8s-0.3-0.8-0.3-1.3c0-0.4,0.1-0.8,0.3-1.1s0.4-0.6,0.8-0.8
				c0.4-0.2,0.8-0.4,1.4-0.5l2.1-0.3c0.4-0.1,0.7-0.2,0.9-0.3s0.3-0.4,0.3-0.7c0-0.3-0.1-0.6-0.2-0.8c-0.1-0.2-0.3-0.4-0.6-0.5
				c-0.3-0.1-0.7-0.2-1.2-0.2c-0.8,0-1.3,0.2-1.7,0.5c-0.4,0.3-0.5,0.7-0.6,1.3h-1.3c0-0.6,0.2-1.1,0.4-1.5s0.7-0.7,1.2-1
				c0.5-0.2,1.1-0.3,1.9-0.3c0.7,0,1.3,0.1,1.8,0.3c0.5,0.2,0.8,0.5,1.1,0.9c0.2,0.4,0.3,0.8,0.3,1.3V22c0,0.3,0,0.6,0,0.9
				s0,0.7,0.1,1h-1.2c0-0.3-0.1-0.7-0.1-1s0-0.6,0-0.9c-0.1,0.4-0.3,0.7-0.5,1c-0.2,0.3-0.6,0.6-1,0.8c-0.4,0.2-0.9,0.3-1.5,0.3
				C107.3,24.2,106.8,24.1,106.4,23.9z M109.6,22.7c0.4-0.3,0.7-0.6,0.9-1.1c0.2-0.5,0.3-0.9,0.3-1.5v-0.7c-0.2,0.1-0.4,0.2-0.5,0.3
				s-0.4,0.1-0.7,0.2l-0.2,0l-1.3,0.3c-0.6,0.1-1,0.3-1.2,0.5s-0.4,0.6-0.4,1c0,0.4,0.1,0.8,0.4,1c0.3,0.2,0.7,0.4,1.2,0.4
				C108.6,23.1,109.2,23,109.6,22.7z"/>
			<path class="st5" d="M114,17.7c0.3-0.6,0.8-1.1,1.4-1.5s1.3-0.5,2.2-0.5c0.8,0,1.5,0.1,2,0.4c0.5,0.3,1,0.6,1.3,1.1
				c0.3,0.5,0.5,1,0.5,1.7h-1.2c-0.1-0.4-0.2-0.8-0.4-1.2c-0.2-0.3-0.5-0.6-0.8-0.7c-0.4-0.2-0.8-0.3-1.3-0.3
				c-0.6,0-1.1,0.1-1.5,0.3c-0.4,0.2-0.7,0.6-0.9,1s-0.3,1.1-0.3,1.8c0,0.8,0.1,1.4,0.3,1.8c0.2,0.5,0.5,0.8,0.9,1
				c0.4,0.2,0.9,0.3,1.5,0.3c0.8,0,1.4-0.2,1.9-0.6c0.4-0.4,0.7-1,0.8-1.7h1.2c0,0.6-0.2,1.2-0.5,1.7c-0.3,0.5-0.7,0.9-1.3,1.2
				c-0.6,0.3-1.2,0.4-2,0.4c-0.9,0-1.6-0.2-2.2-0.5s-1.1-0.9-1.4-1.5c-0.3-0.6-0.5-1.4-0.5-2.2S113.7,18.4,114,17.7z"/>
			<path class="st5" d="M124.1,23.7c-0.5-0.4-1-0.9-1.2-1.5c-0.3-0.6-0.4-1.4-0.4-2.2c0-0.8,0.1-1.6,0.4-2.2
				c0.3-0.6,0.7-1.1,1.2-1.5s1.2-0.5,2.1-0.5c1.2,0,2,0.4,2.6,1.1s0.9,1.8,0.9,3.1c0,1.3-0.3,2.4-0.9,3.1s-1.5,1.1-2.6,1.1
				C125.3,24.2,124.6,24,124.1,23.7z M127.9,22.8c0.4-0.2,0.7-0.6,1-1.1c0.2-0.5,0.3-1.1,0.3-1.8s-0.1-1.3-0.3-1.8
				c-0.2-0.5-0.5-0.8-1-1.1s-0.9-0.3-1.5-0.3c-0.6,0-1.1,0.1-1.5,0.4c-0.4,0.2-0.7,0.6-0.9,1.1s-0.3,1.1-0.3,1.8
				c0,0.7,0.1,1.3,0.3,1.8s0.5,0.8,0.9,1.1s0.9,0.4,1.5,0.4C127,23.2,127.5,23,127.9,22.8z M129.2,27.1V15.9h1.3v11.2H129.2z"/>
			<path class="st5" d="M133.9,23.9c-0.4-0.2-0.8-0.6-1-1c-0.2-0.5-0.3-1-0.3-1.8v-5.1h1.3v5c0,0.6,0.1,1,0.2,1.4
				c0.2,0.3,0.4,0.6,0.7,0.7c0.3,0.1,0.7,0.2,1.1,0.2c0.6,0,1-0.2,1.4-0.5c0.4-0.3,0.7-0.8,0.9-1.4s0.3-1.4,0.3-2.2h0.4
				c0,1.1-0.1,2-0.3,2.8s-0.6,1.4-1.1,1.8c-0.5,0.4-1.2,0.6-2,0.6C134.9,24.2,134.3,24.1,133.9,23.9z M138.6,21.5v-0.2v-5.3h1.3v8
				h-1.3V21.5z"/>
			<path class="st5" d="M142.9,23.9c-0.4-0.2-0.7-0.4-0.9-0.8s-0.3-0.8-0.3-1.3c0-0.4,0.1-0.8,0.3-1.1s0.4-0.6,0.8-0.8
				c0.4-0.2,0.8-0.4,1.4-0.5l2.1-0.3c0.4-0.1,0.7-0.2,0.9-0.3s0.3-0.4,0.3-0.7c0-0.3-0.1-0.6-0.2-0.8c-0.1-0.2-0.3-0.4-0.6-0.5
				c-0.3-0.1-0.7-0.2-1.2-0.2c-0.8,0-1.3,0.2-1.7,0.5c-0.4,0.3-0.5,0.7-0.6,1.3h-1.3c0-0.6,0.2-1.1,0.4-1.5s0.7-0.7,1.2-1
				c0.5-0.2,1.1-0.3,1.9-0.3c0.7,0,1.3,0.1,1.8,0.3c0.5,0.2,0.8,0.5,1.1,0.9c0.2,0.4,0.3,0.8,0.3,1.3V22c0,0.3,0,0.6,0,0.9
				s0,0.7,0.1,1h-1.2c0-0.3-0.1-0.7-0.1-1s0-0.6,0-0.9c-0.1,0.4-0.3,0.7-0.5,1c-0.2,0.3-0.6,0.6-1,0.8c-0.4,0.2-0.9,0.3-1.5,0.3
				C143.8,24.2,143.3,24.1,142.9,23.9z M146.1,22.7c0.4-0.3,0.7-0.6,0.9-1.1c0.2-0.5,0.3-0.9,0.3-1.5v-0.7c-0.2,0.1-0.4,0.2-0.5,0.3
				s-0.4,0.1-0.7,0.2l-0.2,0l-1.3,0.3c-0.6,0.1-1,0.3-1.2,0.5s-0.4,0.6-0.4,1c0,0.4,0.1,0.8,0.4,1c0.3,0.2,0.7,0.4,1.2,0.4
				C145.2,23.1,145.7,23,146.1,22.7z"/>
			<path class="st5" d="M21.3,42.5c-0.6-0.3-1-0.8-1.2-1.4c-0.3-0.6-0.4-1.3-0.4-2.2c0-1.3,0.3-2.2,0.9-3c0.6-0.7,1.6-1.1,2.8-1.1
				c1.2,0,2,0.3,2.6,1c0.6,0.7,0.9,1.7,0.9,3c0,0.9-0.1,1.6-0.4,2.2s-0.6,1-1.2,1.3c-0.5,0.3-1.2,0.4-2,0.4
				C22.6,43,21.9,42.8,21.3,42.5z M21.7,46.2c-0.6-0.2-1-0.5-1.3-1c-0.3-0.4-0.5-0.9-0.5-1.6h1.3c0,0.4,0.1,0.7,0.3,1
				c0.2,0.3,0.5,0.5,0.8,0.7c0.4,0.2,0.8,0.2,1.4,0.2c0.6,0,1.2-0.1,1.6-0.2s0.7-0.4,0.9-0.8s0.3-0.8,0.3-1.4v-8h1.3v8
				c0,0.7-0.1,1.3-0.4,1.8c-0.3,0.5-0.7,0.9-1.3,1.1c-0.6,0.3-1.4,0.4-2.3,0.4C22.9,46.5,22.2,46.4,21.7,46.2z M25.2,41.7
				c0.4-0.2,0.7-0.5,0.9-1s0.3-1,0.3-1.7c0-0.7-0.1-1.3-0.3-1.7s-0.5-0.8-0.9-1s-0.9-0.3-1.5-0.3c-0.6,0-1.1,0.1-1.5,0.3
				s-0.7,0.5-0.9,1s-0.3,1-0.3,1.7s0.1,1.3,0.3,1.7s0.5,0.8,0.9,1c0.4,0.2,0.9,0.3,1.5,0.3C24.3,42,24.8,41.9,25.2,41.7z"/>
			<path class="st5" d="M32.7,32.5h1.1l-3.7,10.6H29L32.7,32.5z"/>
			<path class="st5" d="M35.1,32.5h1.3v10.6h-1.3V32.5z M36.1,42.1h6v1.1h-6V42.1z"/>
		</g>
	</g>
</g>
<g>
	<g>
		<path class="st6" d="M811.4,313.6l5.3-4.4c0.5-0.4,0.9-0.8,1.1-1.2c0.2-0.3,0.3-0.8,0.3-1.2c0-0.6-0.2-1-0.6-1.4
			c-0.4-0.3-1-0.5-1.7-0.5c-0.7,0-1.3,0.1-1.7,0.4c-0.4,0.3-0.8,0.6-1,1.2c-0.2,0.5-0.3,1.1-0.3,1.9h-1.4c0-0.9,0.2-1.6,0.5-2.3
			c0.3-0.7,0.8-1.2,1.4-1.6c0.7-0.4,1.5-0.6,2.5-0.6c0.9,0,1.6,0.1,2.1,0.4s1,0.6,1.2,1.1s0.4,0.9,0.4,1.5c0,0.7-0.2,1.3-0.6,1.9
			c-0.4,0.6-1.1,1.2-2,2l-3.6,3h6.4v1.1h-8.3V313.6z"/>
		<path class="st6" d="M823.4,314.2c-0.7-0.5-1.3-1.1-1.6-2s-0.5-1.8-0.5-2.9c0-1.1,0.2-2.1,0.5-2.9c0.3-0.8,0.9-1.5,1.6-2
			c0.7-0.5,1.6-0.7,2.7-0.7c1.1,0,2,0.2,2.7,0.7c0.7,0.5,1.3,1.1,1.6,2c0.4,0.8,0.5,1.8,0.5,2.9s-0.2,2.1-0.5,2.9
			c-0.3,0.8-0.9,1.5-1.6,2c-0.7,0.5-1.6,0.7-2.7,0.7C825.1,314.9,824.2,314.7,823.4,314.2z M823.1,311.8c0.2,0.7,0.6,1.2,1.1,1.5
			c0.5,0.3,1.2,0.5,1.9,0.5c0.8,0,1.4-0.2,1.9-0.5c0.5-0.3,0.9-0.8,1.1-1.5c0.2-0.7,0.4-1.5,0.4-2.5c0-1-0.1-1.8-0.4-2.5
			c-0.2-0.7-0.6-1.2-1.1-1.5c-0.5-0.3-1.2-0.5-1.9-0.5c-0.8,0-1.4,0.2-1.9,0.5c-0.5,0.3-0.9,0.8-1.1,1.5c-0.2,0.7-0.4,1.5-0.4,2.5
			C822.7,310.3,822.8,311.2,823.1,311.8z"/>
		<path class="st6" d="M832.8,313.6l5.3-4.4c0.5-0.4,0.9-0.8,1.1-1.2c0.2-0.3,0.3-0.8,0.3-1.2c0-0.6-0.2-1-0.6-1.4
			c-0.4-0.3-1-0.5-1.7-0.5c-0.7,0-1.3,0.1-1.7,0.4c-0.4,0.3-0.8,0.6-1,1.2c-0.2,0.5-0.3,1.1-0.3,1.9h-1.4c0-0.9,0.2-1.6,0.5-2.3
			c0.3-0.7,0.8-1.2,1.4-1.6c0.7-0.4,1.5-0.6,2.5-0.6c0.9,0,1.6,0.1,2.1,0.4s1,0.6,1.2,1.1s0.4,0.9,0.4,1.5c0,0.7-0.2,1.3-0.6,1.9
			c-0.4,0.6-1.1,1.2-2,2l-3.6,3h6.4v1.1h-8.3V313.6z"/>
		<path class="st6" d="M843,313.6h2.5v-8.5H843V304h2.3c0.5,0,0.9,0.1,1.2,0.3c0.2,0.2,0.3,0.6,0.3,1v8.2h2.3v1.1H843V313.6z"/>
	</g>
</g>
<g>
	<g>
		<g>
			<path class="st5" d="M30.7,667.5c-0.6-0.4-1.1-1-1.4-1.7c-0.3-0.7-0.5-1.6-0.5-2.5c0-1,0.2-1.8,0.5-2.5c0.3-0.7,0.8-1.3,1.4-1.7
				s1.4-0.6,2.4-0.6c0.9,0,1.7,0.2,2.4,0.6c0.6,0.4,1.1,1,1.4,1.7c0.3,0.7,0.5,1.6,0.5,2.5c0,1-0.2,1.8-0.5,2.5
				c-0.3,0.7-0.8,1.3-1.4,1.7c-0.6,0.4-1.4,0.6-2.4,0.6C32.1,668.2,31.3,668,30.7,667.5z M30.4,665.5c0.2,0.6,0.5,1,1,1.3
				c0.4,0.3,1,0.4,1.7,0.4c0.7,0,1.3-0.1,1.7-0.4s0.8-0.7,1-1.3c0.2-0.6,0.3-1.3,0.3-2.2c0-0.9-0.1-1.6-0.3-2.2s-0.5-1-1-1.3
				s-1-0.4-1.7-0.4c-0.7,0-1.3,0.1-1.7,0.4c-0.4,0.3-0.8,0.7-1,1.3s-0.3,1.3-0.3,2.2C30,664.1,30.1,664.9,30.4,665.5z"/>
		</g>
	</g>
</g>
<g>
	<g>
		<g>
			<path class="st5" d="M31.4,586.3c0.2,0.3,0.4,0.5,0.8,0.7c0.4,0.2,0.8,0.2,1.4,0.2c0.6,0,1.1-0.1,1.4-0.3
				c0.4-0.2,0.7-0.5,0.8-0.8c0.2-0.3,0.3-0.8,0.3-1.2c0-0.5-0.1-0.9-0.3-1.3c-0.2-0.3-0.4-0.6-0.8-0.8s-0.7-0.3-1.2-0.3
				c-0.5,0-1,0.1-1.4,0.3s-0.8,0.5-1.1,0.9h-1.1l0.3-5.2h1.1l-0.3,4.2c0.3-0.3,0.7-0.6,1.1-0.8c0.4-0.2,1-0.3,1.6-0.3
				c0.7,0,1.2,0.1,1.7,0.4c0.5,0.3,0.9,0.6,1.1,1.1s0.4,1,0.4,1.7c0,1-0.3,1.8-0.9,2.4c-0.6,0.6-1.6,0.9-2.9,0.9
				c-0.8,0-1.5-0.1-2-0.4c-0.5-0.2-1-0.6-1.2-1s-0.4-0.9-0.5-1.5h1.2C31.1,585.7,31.2,586,31.4,586.3z M37,578.6v1h-5.9v-1H37z"/>
		</g>
	</g>
</g>
<g>
	<g>
		<g>
			<path class="st5" d="M22,507h2.2v-7.4H22v-1h2c0.5,0,0.8,0.1,1,0.3c0.2,0.2,0.3,0.5,0.3,0.9v7.2h2v1H22V507z"/>
			<path class="st5" d="M30.3,507.5c-0.6-0.4-1.1-1-1.4-1.7c-0.3-0.7-0.5-1.6-0.5-2.5c0-1,0.2-1.8,0.5-2.5c0.3-0.7,0.8-1.3,1.4-1.7
				s1.4-0.6,2.4-0.6c0.9,0,1.7,0.2,2.4,0.6c0.6,0.4,1.1,1,1.4,1.7c0.3,0.7,0.5,1.6,0.5,2.5s-0.2,1.8-0.5,2.5
				c-0.3,0.7-0.8,1.3-1.4,1.7c-0.6,0.4-1.4,0.6-2.4,0.6C31.7,508.2,30.9,508,30.3,507.5z M30,505.5c0.2,0.6,0.5,1,1,1.3
				c0.4,0.3,1,0.4,1.7,0.4c0.7,0,1.3-0.1,1.7-0.4s0.8-0.7,1-1.3s0.3-1.3,0.3-2.2c0-0.9-0.1-1.6-0.3-2.2c-0.2-0.6-0.5-1-1-1.3
				s-1-0.4-1.7-0.4c-0.7,0-1.3,0.1-1.7,0.4c-0.4,0.3-0.8,0.7-1,1.3c-0.2,0.6-0.3,1.3-0.3,2.2C29.7,504.1,29.8,504.9,30,505.5z"/>
		</g>
	</g>
</g>
<g>
	<g>
		<g>
			<path class="st5" d="M22.8,427H25v-7.4h-2.2v-1h2c0.5,0,0.8,0.1,1,0.3c0.2,0.2,0.3,0.5,0.3,0.9v7.2h2v1h-5.4V427z"/>
			<path class="st5" d="M30.8,426.3c0.2,0.3,0.4,0.5,0.8,0.7c0.4,0.2,0.8,0.2,1.4,0.2c0.6,0,1.1-0.1,1.4-0.3
				c0.4-0.2,0.7-0.5,0.8-0.8c0.2-0.3,0.3-0.8,0.3-1.2c0-0.5-0.1-0.9-0.3-1.3c-0.2-0.4-0.4-0.6-0.8-0.8c-0.3-0.2-0.7-0.3-1.2-0.3
				c-0.5,0-1,0.1-1.4,0.3s-0.8,0.5-1.1,0.9h-1.1l0.3-5.2H31l-0.3,4.2c0.3-0.3,0.7-0.6,1.1-0.8c0.4-0.2,1-0.3,1.6-0.3
				c0.7,0,1.2,0.1,1.7,0.4c0.5,0.3,0.9,0.6,1.1,1.1c0.3,0.5,0.4,1,0.4,1.7c0,1-0.3,1.8-0.9,2.4c-0.6,0.6-1.6,0.9-2.9,0.9
				c-0.8,0-1.5-0.1-2-0.4c-0.5-0.2-1-0.6-1.2-1c-0.3-0.4-0.4-0.9-0.5-1.5h1.2C30.5,425.7,30.6,426,30.8,426.3z M36.4,418.6v1h-5.9
				v-1H36.4z"/>
		</g>
	</g>
</g>
<g>
	<g>
		<g>
			<path class="st5" d="M19,347l4.7-3.9c0.5-0.4,0.8-0.7,1-1c0.2-0.3,0.3-0.7,0.3-1.1c0-0.5-0.2-0.9-0.5-1.2
				c-0.3-0.3-0.8-0.5-1.5-0.5c-0.6,0-1.1,0.1-1.5,0.3c-0.4,0.2-0.7,0.6-0.9,1c-0.2,0.4-0.3,1-0.3,1.6H19c0-0.8,0.2-1.4,0.4-2
				s0.7-1.1,1.2-1.4c0.6-0.3,1.3-0.5,2.2-0.5c0.8,0,1.4,0.1,1.9,0.4s0.8,0.6,1.1,0.9c0.2,0.4,0.3,0.8,0.3,1.3c0,0.6-0.2,1.1-0.5,1.6
				c-0.3,0.5-0.9,1.1-1.7,1.7l-3.2,2.6h5.6v1H19V347z"/>
			<path class="st5" d="M29.6,347.5c-0.6-0.4-1.1-1-1.4-1.7c-0.3-0.7-0.5-1.6-0.5-2.5c0-1,0.2-1.8,0.5-2.5c0.3-0.7,0.8-1.3,1.4-1.7
				s1.4-0.6,2.4-0.6c0.9,0,1.7,0.2,2.4,0.6c0.6,0.4,1.1,1,1.4,1.7c0.3,0.7,0.5,1.6,0.5,2.5s-0.2,1.8-0.5,2.5
				c-0.3,0.7-0.8,1.3-1.4,1.7c-0.6,0.4-1.4,0.6-2.4,0.6C31,348.2,30.2,348,29.6,347.5z M29.3,345.5c0.2,0.6,0.5,1,1,1.3
				c0.4,0.3,1,0.4,1.7,0.4c0.7,0,1.3-0.1,1.7-0.4s0.8-0.7,1-1.3s0.3-1.3,0.3-2.2c0-0.9-0.1-1.6-0.3-2.2c-0.2-0.6-0.5-1-1-1.3
				s-1-0.4-1.7-0.4c-0.7,0-1.3,0.1-1.7,0.4c-0.4,0.3-0.8,0.7-1,1.3c-0.2,0.6-0.3,1.3-0.3,2.2C29,344.1,29.1,344.9,29.3,345.5z"/>
		</g>
	</g>
</g>
<g>
	<g>
		<g>
			<path class="st5" d="M20,267l4.7-3.9c0.5-0.4,0.8-0.7,1-1c0.2-0.3,0.3-0.7,0.3-1.1c0-0.5-0.2-0.9-0.5-1.2
				c-0.3-0.3-0.8-0.5-1.5-0.5c-0.6,0-1.1,0.1-1.5,0.3c-0.4,0.2-0.7,0.6-0.9,1c-0.2,0.4-0.3,1-0.3,1.6H20c0-0.8,0.2-1.4,0.4-2
				s0.7-1.1,1.2-1.4c0.6-0.3,1.3-0.5,2.2-0.5c0.8,0,1.4,0.1,1.9,0.4s0.8,0.6,1.1,0.9c0.2,0.4,0.3,0.8,0.3,1.3c0,0.6-0.2,1.1-0.5,1.6
				c-0.3,0.5-0.9,1.1-1.7,1.7l-3.2,2.6h5.6v1H20V267z"/>
			<path class="st5" d="M30.3,266.3c0.2,0.3,0.4,0.5,0.8,0.7c0.4,0.2,0.8,0.2,1.4,0.2c0.6,0,1.1-0.1,1.4-0.3
				c0.4-0.2,0.7-0.5,0.8-0.8c0.2-0.3,0.3-0.8,0.3-1.2c0-0.5-0.1-0.9-0.3-1.3c-0.2-0.4-0.4-0.6-0.8-0.8c-0.3-0.2-0.7-0.3-1.2-0.3
				c-0.5,0-1,0.1-1.4,0.3s-0.8,0.5-1.1,0.9h-1.1l0.3-5.2h1.1l-0.3,4.2c0.3-0.3,0.7-0.6,1.1-0.8c0.4-0.2,1-0.3,1.6-0.3
				c0.7,0,1.2,0.1,1.7,0.4c0.5,0.3,0.9,0.6,1.1,1.1c0.3,0.5,0.4,1,0.4,1.7c0,1-0.3,1.8-0.9,2.4c-0.6,0.6-1.6,0.9-2.9,0.9
				c-0.8,0-1.5-0.1-2-0.4c-0.5-0.2-1-0.6-1.2-1c-0.3-0.4-0.4-0.9-0.5-1.5H30C30,265.7,30.1,266,30.3,266.3z M35.9,258.6v1H30v-1
				H35.9z"/>
		</g>
	</g>
</g>
<g>
	<g>
		<g>
			<path class="st5" d="M20.2,186.1c0.2,0.3,0.5,0.6,0.9,0.8s0.8,0.3,1.4,0.3c0.8,0,1.5-0.2,1.9-0.6c0.4-0.4,0.6-0.9,0.6-1.7
				c0-0.6-0.2-1.1-0.5-1.4c-0.3-0.4-0.8-0.5-1.5-0.5c-0.3,0-0.7,0-0.9,0.1s-0.5,0.2-0.8,0.4l-0.6-0.7l3.7-3.2H19v-1h6.7v1l-3.2,2.9
				c0.3-0.1,0.6-0.1,1-0.1c0.5,0,0.9,0.1,1.3,0.3c0.4,0.2,0.7,0.5,1,0.9c0.3,0.4,0.4,0.9,0.4,1.5c0,0.6-0.1,1.1-0.4,1.6
				s-0.7,0.9-1.2,1.2c-0.6,0.3-1.3,0.5-2.2,0.5c-0.8,0-1.5-0.1-2-0.4c-0.6-0.3-1-0.7-1.3-1.2c-0.3-0.5-0.4-1.1-0.4-1.7h1.2
				C19.9,185.3,20,185.7,20.2,186.1z"/>
			<path class="st5" d="M29.4,187.5c-0.6-0.4-1.1-1-1.4-1.7c-0.3-0.7-0.5-1.6-0.5-2.5s0.2-1.8,0.5-2.5c0.3-0.7,0.8-1.3,1.4-1.7
				s1.4-0.6,2.4-0.6c0.9,0,1.7,0.2,2.4,0.6c0.6,0.4,1.1,1,1.4,1.7c0.3,0.7,0.5,1.6,0.5,2.5c0,1-0.2,1.8-0.5,2.5
				c-0.3,0.7-0.8,1.3-1.4,1.7c-0.6,0.4-1.4,0.6-2.4,0.6C30.9,188.2,30.1,188,29.4,187.5z M29.1,185.5c0.2,0.6,0.5,1,1,1.3
				c0.4,0.3,1,0.4,1.7,0.4c0.7,0,1.3-0.1,1.7-0.4s0.8-0.7,1-1.3c0.2-0.6,0.3-1.3,0.3-2.2c0-0.9-0.1-1.6-0.3-2.2
				c-0.2-0.6-0.5-1-1-1.3s-1-0.4-1.7-0.4c-0.7,0-1.3,0.1-1.7,0.4c-0.4,0.3-0.8,0.7-1,1.3c-0.2,0.6-0.3,1.3-0.3,2.2
				C28.8,184.1,28.9,184.9,29.1,185.5z"/>
		</g>
	</g>
</g>
<g>
	<path class="st8" d="M52.4,670.2V104.7"/>
	<line class="st8" x1="52.4" y1="665.2" x2="46.4" y2="665.2"/>
	<line class="st8" x1="52.4" y1="584.7" x2="46.4" y2="584.7"/>
	<line class="st8" x1="52.4" y1="504.7" x2="46.4" y2="504.7"/>
	<line class="st8" x1="52.4" y1="424.7" x2="46.4" y2="424.7"/>
	<line class="st8" x1="52.4" y1="344.7" x2="46.4" y2="344.7"/>
	<line class="st8" x1="52.4" y1="264.7" x2="46.4" y2="264.7"/>
	<line class="st8" x1="52.4" y1="184.7" x2="46.4" y2="184.7"/>
	<line class="st8" x1="52.4" y1="104.7" x2="46.4" y2="104.7"/>
</g>
<g>
	<g>
		<g>
			<path class="st5" d="M21.2,106.1c0.2,0.3,0.5,0.6,0.9,0.8s0.8,0.3,1.4,0.3c0.8,0,1.5-0.2,1.9-0.6c0.4-0.4,0.6-0.9,0.6-1.7
				c0-0.6-0.2-1.1-0.5-1.4c-0.3-0.4-0.8-0.5-1.5-0.5c-0.3,0-0.7,0-0.9,0.1s-0.5,0.2-0.8,0.4l-0.6-0.7l3.7-3.2H20v-1h6.7v1l-3.2,2.9
				c0.3-0.1,0.6-0.1,1-0.1c0.5,0,0.9,0.1,1.3,0.3c0.4,0.2,0.7,0.5,1,0.9c0.3,0.4,0.4,0.9,0.4,1.5c0,0.6-0.1,1.1-0.4,1.6
				s-0.7,0.9-1.2,1.2c-0.6,0.3-1.3,0.5-2.2,0.5c-0.8,0-1.5-0.1-2-0.4c-0.6-0.3-1-0.7-1.3-1.2c-0.3-0.5-0.4-1.1-0.4-1.7h1.2
				C20.9,105.3,21,105.7,21.2,106.1z"/>
			<path class="st5" d="M30.1,106.3c0.2,0.3,0.4,0.5,0.8,0.7c0.4,0.2,0.8,0.2,1.4,0.2c0.6,0,1.1-0.1,1.4-0.3
				c0.4-0.2,0.7-0.5,0.8-0.8c0.2-0.3,0.3-0.8,0.3-1.2c0-0.5-0.1-0.9-0.3-1.3c-0.2-0.4-0.4-0.6-0.8-0.8c-0.3-0.2-0.7-0.3-1.2-0.3
				c-0.5,0-1,0.1-1.4,0.3s-0.8,0.5-1.1,0.9H29l0.3-5.2h1.1l-0.3,4.2c0.3-0.3,0.7-0.6,1.1-0.8c0.4-0.2,1-0.3,1.6-0.3
				c0.7,0,1.2,0.1,1.7,0.4c0.5,0.3,0.9,0.6,1.1,1.1c0.3,0.5,0.4,1,0.4,1.7c0,1-0.3,1.8-0.9,2.4c-0.6,0.6-1.6,0.9-2.9,0.9
				c-0.8,0-1.5-0.1-2-0.4c-0.5-0.2-1-0.6-1.2-1c-0.3-0.4-0.4-0.9-0.5-1.5h1.2C29.9,105.7,30,106,30.1,106.3z M35.7,98.6v1h-5.9v-1
				H35.7z"/>
		</g>
	</g>
</g>
<g>
	<line class="st8" x1="52" y1="665.2" x2="802" y2="665.2"/>
	<line class="st8" x1="120.2" y1="665.2" x2="120.2" y2="670.2"/>
	<line class="st8" x1="188.4" y1="665.2" x2="188.4" y2="670.2"/>
	<line class="st8" x1="256.6" y1="665.2" x2="256.6" y2="670.2"/>
	<line class="st8" x1="324.8" y1="665.2" x2="324.8" y2="670.2"/>
	<line class="st8" x1="393" y1="665.2" x2="393" y2="670.2"/>
	<line class="st8" x1="461.1" y1="665.2" x2="461.1" y2="670.2"/>
	<line class="st8" x1="529.3" y1="665.2" x2="529.3" y2="670.2"/>
	<line class="st8" x1="597.5" y1="665.2" x2="597.5" y2="670.2"/>
	<line class="st8" x1="665.7" y1="665.2" x2="665.7" y2="670.2"/>
	<line class="st8" x1="733.9" y1="665.2" x2="733.9" y2="670.2"/>
	<line class="st8" x1="802" y1="665.2" x2="802" y2="670.2"/>
	<line class="st8" x1="802" y1="665.2" x2="802" y2="670.2"/>
</g>
<g>
	<g>
		<line class="st9" x1="52.4" y1="104.7" x2="58.4" y2="104.7"/>
		<line class="st10" x1="68.4" y1="104.7" x2="789.8" y2="104.7"/>
		<line class="st9" x1="794.8" y1="104.7" x2="800.8" y2="104.7"/>
	</g>
</g>
<line class="st11" x1="52.4" y1="184.7" x2="800.8" y2="184.7"/>
<line class="st11" x1="52.4" y1="264.7" x2="800.8" y2="264.7"/>
<line class="st11" x1="52.4" y1="344.7" x2="800.8" y2="344.7"/>
<line class="st11" x1="52.4" y1="424.7" x2="800.8" y2="424.7"/>
<line class="st11" x1="52.4" y1="504.4" x2="800.8" y2="504.4"/>
<line class="st11" x1="52.4" y1="584.7" x2="800.8" y2="584.7"/>
<g>
	<g>
		<line class="st9" x1="52.4" y1="657.2" x2="58.4" y2="657.2"/>
		<line class="st10" x1="68.4" y1="657.2" x2="789.8" y2="657.2"/>
		<line class="st9" x1="794.8" y1="657.2" x2="800.8" y2="657.2"/>
	</g>
</g>
<g>
	<g>
		<g>
			<polygon class="st12" points="58.2,397.7 55.3,394.6 52.2,397.6 55.2,400.7 			"/>
		</g>
		<g>
			<path class="st12" d="M70.2,398.4c-0.9-1.1-1.8-2.2-2.8-3.3c-1.1,1-2.2,1.9-3.2,2.9c0.9,1.1,1.9,2.2,2.8,3.3
				C68,400.3,69.1,399.3,70.2,398.4z"/>
		</g>
		<g>
			<polygon class="st12" points="82.1,399.9 79.6,396.4 76.2,399 78.7,402.5 			"/>
		</g>
		<g>
			<polygon class="st12" points="93.9,402 91.5,398.4 88,401 90.5,404.5 			"/>
		</g>
		<g>
			<path class="st12" d="M105.8,403.3c-0.9-1.1-1.8-2.2-2.7-3.3c-1.1,0.9-2.2,1.9-3.3,2.8c0.9,1.1,1.8,2.2,2.7,3.3
				C103.7,405.2,104.8,404.3,105.8,403.3z"/>
		</g>
		<g>
			<polygon class="st12" points="117.8,403.8 114.9,400.6 111.8,403.6 114.7,406.8 			"/>
		</g>
		<g>
			<path class="st12" d="M129.6,401.9c-1.3-0.5-2.6-1.2-3.7-2c-0.6,1.2-1.3,2.4-2.1,3.6c1.1,0.9,2.4,1.7,3.8,2.4
				C128.4,404.6,129.1,403.3,129.6,401.9z"/>
		</g>
		<g>
			<path class="st12" d="M139.1,394.8c-1.4,0-2.8,0-4.2-0.1c0,1.4,0,2.8-0.2,4.2c1.4,0.2,2.9,0.3,4.4,0.3
				C139.2,397.7,139.2,396.3,139.1,394.8z"/>
		</g>
		<g>
			<path class="st12" d="M146.2,385.2c-1.4,0.3-2.8,0.6-4.2,0.8c0.3,1.4,0.6,2.8,0.9,4.2c1.4-0.2,2.8-0.5,4.2-0.8
				C146.9,387.9,146.5,386.5,146.2,385.2z"/>
		</g>
		<g>
			<polygon class="st12" points="152,374.7 147.8,375.9 149.2,380 153.3,378.7 			"/>
		</g>
		<g>
			<polygon class="st12" points="157.3,363.9 153.2,365.2 154.6,369.3 158.8,368 			"/>
		</g>
		<g>
			<path class="st12" d="M163.1,353.4c-1.4,0.3-2.8,0.7-4.2,1.1c0.4,1.4,0.8,2.8,1.2,4.1c1.4-0.4,2.8-0.7,4.2-1.1
				C163.9,356.2,163.5,354.8,163.1,353.4z"/>
		</g>
		<g>
			<path class="st12" d="M170.2,343.8c-1.4,0-2.9,0.1-4.4,0.3c0.1,1.5,0.3,2.9,0.6,4.3c1.4-0.2,2.8-0.3,4.2-0.4
				C170.5,346.6,170.3,345.2,170.2,343.8z"/>
		</g>
		<g>
			<path class="st12" d="M179.9,336.8c-1.3-0.6-2.7-1-4.2-1.4c-0.5,1.5-0.8,2.9-1,4.3c1.4,0.2,2.8,0.6,4,1
				C179,339.5,179.4,338.1,179.9,336.8z"/>
		</g>
		<g>
			<path class="st12" d="M191.7,335.1c-1-1-2-2-3-3.1c-1.1,1.1-2.1,2.2-3,3.3c1.1,1,2.1,1.9,3,2.9
				C189.7,337.1,190.7,336.1,191.7,335.1z"/>
		</g>
		<g>
			<path class="st12" d="M203.6,334.1c-1.2-0.9-2.3-1.8-3.3-2.7c-0.8,1.1-1.7,2.3-2.6,3.4c1.1,0.9,2.2,1.8,3.3,2.7
				C201.9,336.3,202.8,335.2,203.6,334.1z"/>
		</g>
		<g>
			<path class="st12" d="M215.3,331.3c-1.3-0.7-2.5-1.4-3.7-2.1c-0.6,1.3-1.3,2.5-2,3.8c1.2,0.7,2.4,1.4,3.7,2.1
				C214,333.8,214.7,332.5,215.3,331.3z"/>
		</g>
		<g>
			<polygon class="st12" points="226.5,327.1 222.7,325.3 220.9,329.2 224.8,331 			"/>
		</g>
		<g>
			<path class="st12" d="M238,323.7c-1.2-0.8-2.4-1.5-3.7-2.2c-0.8,1.3-1.5,2.5-2.1,3.7c1.3,0.7,2.5,1.5,3.7,2.2
				C236.6,326.2,237.3,324.9,238,323.7z"/>
		</g>
		<g>
			<path class="st12" d="M249.9,322.1c-1.1-0.9-2.2-1.9-3.3-2.8c-0.9,1.1-1.8,2.2-2.7,3.4c1.1,0.9,2.2,1.9,3.3,2.8
				C248.1,324.4,249,323.2,249.9,322.1z"/>
		</g>
		<g>
			<path class="st12" d="M261.9,322c-1-1-2-2.1-3-3.1c-1,1-2.1,2-3,3.1c1,1,2,2.1,3,3.1C259.9,324,260.9,323,261.9,322z"/>
		</g>
		<g>
			<path class="st12" d="M273.9,323.1c-0.8-1.1-1.7-2.3-2.6-3.4c-1.1,0.9-2.3,1.8-3.3,2.7c0.9,1.1,1.8,2.3,2.6,3.4
				C271.6,324.9,272.7,324,273.9,323.1z"/>
		</g>
		<g>
			<path class="st12" d="M285.6,325.7c-0.7-1.2-1.4-2.5-2.1-3.8c-1.3,0.7-2.5,1.5-3.7,2.2c0.7,1.3,1.4,2.5,2.1,3.8
				C283.1,327.2,284.3,326.5,285.6,325.7z"/>
		</g>
		<g>
			<polygon class="st12" points="297,329.3 295.1,325.5 291.3,327.5 293.3,331.4 			"/>
		</g>
		<g>
			<path class="st12" d="M308.7,331.9c-0.8-1.2-1.6-2.4-2.4-3.6c-1.1,0.8-2.3,1.7-3.5,2.5c0.8,1.2,1.6,2.4,2.4,3.6
				C306.4,333.5,307.6,332.7,308.7,331.9z"/>
		</g>
		<g>
			<path class="st12" d="M320.7,332.9c-1-1.1-1.9-2.2-2.8-3.2c-1,1-2.1,1.9-3.2,2.9c0.9,1.1,1.9,2.2,2.8,3.2
				C318.6,334.8,319.6,333.9,320.7,332.9z"/>
		</g>
		<g>
			<path class="st12" d="M332.7,332.5c-1.1-0.9-2.2-1.8-3.2-2.8c-0.9,1.1-1.8,2.2-2.8,3.2c1,1,2.1,2,3.2,2.9
				C330.9,334.8,331.8,333.7,332.7,332.5z"/>
		</g>
		<g>
			<path class="st12" d="M344.3,329.6c-1.3-0.6-2.6-1.2-3.8-1.9c-0.6,1.3-1.2,2.5-1.9,3.8c1.2,0.8,2.5,1.5,3.8,2.1
				C343.1,332.2,343.7,330.9,344.3,329.6z"/>
		</g>
		<g>
			<path class="st12" d="M354.8,323.8c-1.4-0.3-2.8-0.7-4.2-1c-0.3,1.4-0.6,2.8-0.9,4.2c1.3,0.4,2.7,0.7,4.2,1
				C354.2,326.6,354.5,325.2,354.8,323.8z"/>
		</g>
		<g>
			<path class="st12" d="M364.6,316.9c-1.4-0.3-2.8-0.6-4.2-0.8c-0.3,1.4-0.5,2.8-0.7,4.3c1.4,0.3,2.8,0.5,4.2,0.8
				C364.1,319.8,364.3,318.4,364.6,316.9z"/>
		</g>
		<g>
			<path class="st12" d="M375.2,311.4c-1.3-0.6-2.6-1.2-4-1.7c-0.5,1.4-1,2.8-1.4,4.1c1.4,0.4,2.7,0.9,4,1.5
				C374.1,314,374.6,312.7,375.2,311.4z"/>
		</g>
		<g>
			<path class="st12" d="M386.9,308.7c-1.1-0.9-2.3-1.8-3.5-2.7c-0.9,1.2-1.7,2.4-2.4,3.6c1.2,0.8,2.3,1.6,3.4,2.5
				C385.1,311,386,309.8,386.9,308.7z"/>
		</g>
		<g>
			<polygon class="st12" points="398.8,308.4 395.8,305.3 392.8,308.4 395.8,311.5 			"/>
		</g>
		<g>
			<polygon class="st12" points="410.8,308.5 407.9,305.4 404.8,308.4 407.8,311.6 			"/>
		</g>
		<g>
			<polygon class="st12" points="422.8,308.8 419.9,305.6 416.8,308.6 419.8,311.8 			"/>
		</g>
		<g>
			<polygon class="st12" points="434.8,309.2 431.9,306 428.8,309 431.7,312.2 			"/>
		</g>
		<g>
			<polygon class="st12" points="446.8,309.4 443.9,306.3 440.8,309.3 443.8,312.4 			"/>
		</g>
		<g>
			<polygon class="st12" points="458.8,309.5 455.8,306.4 452.8,309.4 455.8,312.5 			"/>
		</g>
		<g>
			<polygon class="st12" points="470.8,309.6 467.9,306.4 464.8,309.5 467.8,312.6 			"/>
		</g>
		<g>
			<polygon class="st12" points="482.8,310.1 480,306.9 476.8,309.8 479.6,313 			"/>
		</g>
		<g>
			<polygon class="st12" points="494.7,311.3 492.1,307.9 488.8,310.7 491.4,314 			"/>
		</g>
		<g>
			<polygon class="st12" points="506.7,312.5 504,309.1 500.7,311.9 503.4,315.3 			"/>
		</g>
		<g>
			<polygon class="st12" points="518.7,313.2 515.8,309.9 512.7,312.9 515.5,316.1 			"/>
		</g>
		<g>
			<polygon class="st12" points="530.7,313.3 527.7,310.2 524.7,313.3 527.6,316.4 			"/>
		</g>
		<g>
			<path class="st12" d="M542.6,314.3c-0.8-1.1-1.7-2.3-2.6-3.4c-1.2,0.9-2.3,1.8-3.4,2.7c0.9,1.1,1.8,2.3,2.6,3.4
				C540.3,316.1,541.4,315.2,542.6,314.3z"/>
		</g>
		<g>
			<path class="st12" d="M554.1,317.6c-0.5-1.3-1.1-2.7-1.8-4c-1.3,0.6-2.6,1.3-3.9,2c0.7,1.3,1.3,2.5,1.9,3.8
				C551.5,318.8,552.8,318.2,554.1,317.6z"/>
		</g>
		<g>
			<polygon class="st12" points="564.9,322.9 563.7,318.7 559.6,320.1 560.8,324.2 			"/>
		</g>
		<g>
			<path class="st12" d="M575.8,327.9c-0.6-1.4-1.1-2.7-1.6-4c-1.3,0.6-2.6,1.1-4,1.7c0.5,1.3,1,2.7,1.6,4
				C573.2,329.1,574.5,328.5,575.8,327.9z"/>
		</g>
		<g>
			<path class="st12" d="M587.4,330.8c-0.8-1.2-1.6-2.3-2.4-3.5c-1.1,0.8-2.3,1.6-3.5,2.4c0.7,1.2,1.5,2.5,2.4,3.7
				C585.1,332.5,586.3,331.6,587.4,330.8z"/>
		</g>
		<g>
			<path class="st12" d="M599.4,331.5l-1.5-1.6l-1.4-1.6c-1,1-2,2-3.1,3c0.9,1.1,1.9,2.1,2.9,3.2l1.6-1.5L599.4,331.5z"/>
		</g>
		<g>
			<path class="st12" d="M611,334.1c-0.5-1.3-1.1-2.7-1.8-4c-1.4,0.6-2.7,1.3-3.9,2.1c0.8,1.2,1.4,2.5,1.9,3.7
				C608.4,335.2,609.7,334.6,611,334.1z"/>
		</g>
		<g>
			<path class="st12" d="M620.9,340.9c0-1.4-0.1-2.9-0.3-4.4c-1.5,0.1-2.9,0.3-4.4,0.6c0.2,1.4,0.4,2.8,0.4,4.2
				C618,341,619.4,340.9,620.9,340.9z"/>
		</g>
		<g>
			<path class="st12" d="M628.8,349.9c0.2-1.4,0.4-2.8,0.5-4.3c-1.4-0.2-2.9-0.3-4.3-0.4c-0.2,1.4-0.3,2.9-0.5,4.3
				C625.9,349.6,627.3,349.7,628.8,349.9z"/>
		</g>
		<g>
			<polygon class="st12" points="636,359.5 636.6,355.2 632.4,354.7 631.7,358.9 			"/>
		</g>
		<g>
			<path class="st12" d="M643.9,368.4c0-1.4,0-2.8,0.1-4.2c-1.4,0-2.8,0-4.3-0.1c-0.1,1.4-0.2,2.9-0.2,4.4
				C641,368.5,642.5,368.5,643.9,368.4z"/>
		</g>
		<g>
			<path class="st12" d="M653.9,375.1c-0.5-1.3-0.9-2.7-1.2-4c-1.3,0.5-2.6,0.9-4,1.1c0.3,1.4,0.6,2.8,1.1,4.3
				C651.1,376.1,652.5,375.6,653.9,375.1z"/>
		</g>
		<g>
			<path class="st12" d="M665.5,377.5c-1-1-1.9-2.1-2.7-3.3c-1,0.9-2.1,1.8-3.3,2.6c0.8,1.2,1.7,2.4,2.6,3.5
				C663.4,379.4,664.5,378.5,665.5,377.5z"/>
		</g>
		<g>
			<path class="st12" d="M677.5,376.3c-1.2-0.8-2.3-1.6-3.4-2.5c-0.8,1.2-1.6,2.3-2.5,3.4c1.1,0.9,2.2,1.8,3.4,2.7
				C675.9,378.8,676.7,377.6,677.5,376.3z"/>
		</g>
		<g>
			<path class="st12" d="M688.7,372.1c-1.4-0.4-2.7-0.9-4-1.4c-0.4,1.3-0.9,2.6-1.5,4c1.3,0.6,2.7,1.2,4.1,1.6
				C687.8,374.9,688.3,373.5,688.7,372.1z"/>
		</g>
		<g>
			<path class="st12" d="M698.5,365.3c-1.4-0.2-2.9-0.4-4.2-0.7c-0.2,1.4-0.3,2.8-0.5,4.3c1.4,0.2,2.8,0.5,4.2,0.7
				C698.2,368.2,698.4,366.7,698.5,365.3z"/>
		</g>
		<g>
			<path class="st12" d="M708,358c-1.4-0.3-2.8-0.5-4.2-0.7c-0.2,1.4-0.4,2.9-0.6,4.3c1.4,0.2,2.9,0.5,4.2,0.7
				C707.6,360.9,707.8,359.5,708,358z"/>
		</g>
		<g>
			<path class="st12" d="M718.7,352.6c-1.3-0.6-2.6-1.2-4-1.8c-0.6,1.4-1.1,2.7-1.5,4.1c1.4,0.5,2.7,1,3.9,1.6
				C717.6,355.2,718.1,353.9,718.7,352.6z"/>
		</g>
		<g>
			<path class="st12" d="M730.4,350.3c-1.1-1-2.2-1.9-3.4-2.8c-0.9,1.2-1.8,2.3-2.6,3.5c1.2,0.8,2.3,1.7,3.4,2.6
				C728.6,352.5,729.5,351.3,730.4,350.3z"/>
		</g>
		<g>
			<path class="st12" d="M742.4,349.4c-1.2-0.8-2.3-1.7-3.3-2.6c-0.8,1.1-1.7,2.2-2.6,3.3c1,1,2.2,1.9,3.4,2.8
				C740.7,351.8,741.6,350.6,742.4,349.4z"/>
		</g>
		<g>
			<path class="st12" d="M753.5,345c-1.4-0.4-2.7-0.8-4-1.3c-0.4,1.3-0.8,2.7-1.3,4c1.3,0.6,2.7,1.1,4.1,1.5
				C752.8,347.8,753.2,346.4,753.5,345z"/>
		</g>
		<g>
			<path class="st12" d="M762.8,337.4c-1.5,0-2.9-0.1-4.3-0.2c0,1.4,0,2.8-0.1,4.3c1.4,0.1,2.8,0.2,4.3,0.2
				C762.7,340.2,762.8,338.8,762.8,337.4z"/>
		</g>
		<g>
			<polygon class="st12" points="770.9,328.5 766.6,328.7 766.9,333 771.2,332.8 			"/>
		</g>
		<g>
			<path class="st12" d="M779.4,320.2c-1.4-0.2-2.9-0.3-4.4-0.3c-0.1,1.5-0.1,2.9-0.1,4.4c1.4,0,2.9,0.1,4.2,0.2
				C779.2,323,779.3,321.6,779.4,320.2z"/>
		</g>
		<g>
			<path class="st12" d="M789.7,314.1c-1.3-0.6-2.7-1.1-4.1-1.6c-0.5,1.4-1,2.8-1.3,4.2c1.4,0.4,2.7,0.8,4,1.4
				C788.7,316.8,789.1,315.4,789.7,314.1z"/>
		</g>
		<g>
			<path class="st12" d="M801.5,311.9c-1-1-2.1-2-3.3-2.9c-1,1.1-1.9,2.3-2.7,3.5c1.2,0.8,2.3,1.7,3.3,2.6
				C799.6,314,800.5,313,801.5,311.9z"/>
		</g>
	</g>
</g>
<path class="st13" d="M53.3,380.6c34.1,0,34.1-26,68.1-26s34.1-22.9,68.1-22.9s34.1,25.1,68.1,25.1s34.1,17.1,68.1,17.1
	c34.1,0,34.1-8.8,68.1-8.8s34.1-92.8,68.1-92.8s34.1,106.9,68.1,106.9s34.1,4.2,68.1,4.2c34.1,0,34.1-15.6,68.1-15.6
	s34.1,38.4,68.1,38.4c34.1,0,34.1-15.6,68.1-15.6"/>
<g>
	<g>
		<path class="st6" d="M63,93.8c0.2,0.4,0.5,0.7,0.9,0.9c0.4,0.2,1,0.3,1.7,0.3c0.6,0,1.1-0.1,1.5-0.2c0.4-0.1,0.6-0.3,0.8-0.6
			c0.2-0.3,0.2-0.6,0.2-1c0-0.5-0.1-0.9-0.4-1.1s-0.7-0.4-1.3-0.5l-2.2-0.3c-0.8-0.1-1.4-0.4-1.8-0.8s-0.6-0.9-0.6-1.7
			c0-0.5,0.1-1,0.4-1.4s0.7-0.7,1.2-1c0.5-0.2,1.2-0.3,2-0.3c0.8,0,1.5,0.1,2,0.4c0.6,0.2,1,0.6,1.3,1.1c0.3,0.5,0.5,1,0.5,1.6h-1.1
			c0-0.4-0.2-0.8-0.4-1.1c-0.2-0.3-0.5-0.6-0.9-0.7c-0.4-0.2-0.9-0.3-1.4-0.3c-0.8,0-1.4,0.2-1.8,0.5S63,88.3,63,88.8
			c0,0.4,0.1,0.7,0.3,1s0.6,0.4,1.1,0.5l2.3,0.3c0.9,0.1,1.5,0.4,1.9,0.8s0.6,1,0.6,1.7c0,0.6-0.1,1.1-0.4,1.5s-0.7,0.7-1.2,0.9
			s-1.3,0.3-2.1,0.3c-1,0-1.8-0.2-2.4-0.4c-0.6-0.3-1-0.7-1.3-1.2c-0.3-0.5-0.4-1.1-0.4-1.7h1.1C62.7,93,62.8,93.5,63,93.8z"/>
		<path class="st6" d="M71.6,95.7c-0.3-0.2-0.6-0.4-0.8-0.7c-0.2-0.3-0.3-0.7-0.3-1.1c0-0.4,0.1-0.7,0.2-1c0.1-0.3,0.4-0.5,0.7-0.7
			c0.3-0.2,0.7-0.3,1.2-0.4l1.8-0.3c0.4-0.1,0.6-0.2,0.8-0.3s0.2-0.3,0.2-0.6s-0.1-0.5-0.2-0.7c-0.1-0.2-0.3-0.3-0.5-0.4
			c-0.3-0.1-0.6-0.2-1-0.2c-0.7,0-1.1,0.1-1.4,0.4s-0.5,0.7-0.5,1.1h-1.1c0-0.5,0.1-0.9,0.4-1.3c0.2-0.4,0.6-0.6,1-0.8
			c0.5-0.2,1-0.3,1.6-0.3c0.6,0,1.1,0.1,1.6,0.3s0.7,0.4,0.9,0.8c0.2,0.3,0.3,0.7,0.3,1.1V94c0,0.3,0,0.5,0,0.8s0,0.6,0.1,0.9h-1
			c0-0.3-0.1-0.6-0.1-0.8s0-0.5,0-0.8c-0.1,0.3-0.3,0.6-0.5,0.9c-0.2,0.3-0.5,0.5-0.9,0.7c-0.4,0.2-0.8,0.3-1.3,0.3
			C72.4,95.9,72,95.8,71.6,95.7z M74.4,94.7c0.4-0.2,0.6-0.6,0.8-1c0.2-0.4,0.3-0.8,0.3-1.3v-0.6c-0.2,0.1-0.3,0.2-0.5,0.3
			c-0.2,0.1-0.4,0.1-0.6,0.2l-0.2,0l-1.2,0.2c-0.5,0.1-0.8,0.3-1.1,0.5c-0.2,0.2-0.3,0.5-0.3,0.9c0,0.4,0.1,0.7,0.4,0.9
			s0.6,0.3,1,0.3C73.6,95,74.1,94.9,74.4,94.7z"/>
		<path class="st6" d="M78.4,85.9h1.1v9.8h-1.1V85.9z"/>
		<path class="st6" d="M81.3,86.4h1.5v1.2h-1.5V86.4z M81.4,88.7h1.1v7h-1.1V88.7z"/>
		<path class="st6" d="M84.5,88.7h1.1v7h-1.1V88.7z M85.6,90.7c0.2-0.7,0.5-1.2,1-1.6c0.5-0.4,1-0.6,1.7-0.6c0.6,0,1.1,0.1,1.4,0.3
			c0.4,0.2,0.6,0.5,0.8,0.9s0.3,0.9,0.3,1.5v4.5h-1.1v-4.3c0-0.5-0.1-0.9-0.2-1.2c-0.1-0.3-0.3-0.5-0.6-0.6
			c-0.2-0.1-0.6-0.2-0.9-0.2c-0.5,0-1,0.1-1.3,0.4c-0.4,0.3-0.6,0.7-0.8,1.2c-0.2,0.5-0.3,1.2-0.3,2h-0.4
			C85.3,92.1,85.4,91.3,85.6,90.7z"/>
		<path class="st6" d="M92.5,86.4h1.5v1.2h-1.5V86.4z M92.7,88.7h1.1v7h-1.1V88.7z"/>
		<path class="st6" d="M96.8,95.6c-0.2-0.1-0.4-0.3-0.5-0.5c-0.1-0.2-0.1-0.5-0.1-0.9v-4.5h-1.4V89l1.5-0.3l0.4-1.5h0.6v1.6h2.3v0.9
			h-2.3v5.2h2.2v0.9h-1.7C97.4,95.7,97,95.7,96.8,95.6z"/>
		<path class="st6" d="M101.7,95.7c-0.3-0.2-0.6-0.4-0.8-0.7c-0.2-0.3-0.3-0.7-0.3-1.1c0-0.4,0.1-0.7,0.2-1c0.1-0.3,0.4-0.5,0.7-0.7
			c0.3-0.2,0.7-0.3,1.2-0.4l1.8-0.3c0.4-0.1,0.6-0.2,0.8-0.3s0.2-0.3,0.2-0.6s-0.1-0.5-0.2-0.7c-0.1-0.2-0.3-0.3-0.5-0.4
			c-0.3-0.1-0.6-0.2-1-0.2c-0.7,0-1.1,0.1-1.4,0.4s-0.5,0.7-0.5,1.1h-1.1c0-0.5,0.1-0.9,0.4-1.3c0.2-0.4,0.6-0.6,1-0.8
			c0.5-0.2,1-0.3,1.6-0.3c0.6,0,1.1,0.1,1.6,0.3s0.7,0.4,0.9,0.8c0.2,0.3,0.3,0.7,0.3,1.1V94c0,0.3,0,0.5,0,0.8s0,0.6,0.1,0.9h-1
			c0-0.3-0.1-0.6-0.1-0.8s0-0.5,0-0.8c-0.1,0.3-0.3,0.6-0.5,0.9c-0.2,0.3-0.5,0.5-0.9,0.7c-0.4,0.2-0.8,0.3-1.3,0.3
			C102.5,95.9,102,95.8,101.7,95.7z M104.5,94.7c0.4-0.2,0.6-0.6,0.8-1c0.2-0.4,0.3-0.8,0.3-1.3v-0.6c-0.2,0.1-0.3,0.2-0.5,0.3
			c-0.2,0.1-0.4,0.1-0.6,0.2l-0.2,0l-1.2,0.2c-0.5,0.1-0.8,0.3-1.1,0.5c-0.2,0.2-0.3,0.5-0.3,0.9c0,0.4,0.1,0.7,0.4,0.9
			s0.6,0.3,1,0.3C103.7,95,104.1,94.9,104.5,94.7z M102.4,86.1l3,1.3l-0.2,0.4l-3.1-0.9L102.4,86.1z"/>
		<path class="st6" d="M121.8,95.7h-1.2v-8.4l-3.2,8.4h-1.6l-3.2-8.4v8.4h-1.2v-9.3h2l3.1,8.2l3.1-8.2h2V95.7z"/>
		<path class="st6" d="M124.5,95.7c-0.3-0.2-0.6-0.4-0.8-0.7c-0.2-0.3-0.3-0.7-0.3-1.1c0-0.4,0.1-0.7,0.2-1c0.1-0.3,0.4-0.5,0.7-0.7
			c0.3-0.2,0.7-0.3,1.2-0.4l1.8-0.3c0.4-0.1,0.6-0.2,0.8-0.3s0.2-0.3,0.2-0.6s-0.1-0.5-0.2-0.7c-0.1-0.2-0.3-0.3-0.5-0.4
			c-0.3-0.1-0.6-0.2-1-0.2c-0.7,0-1.1,0.1-1.4,0.4s-0.5,0.7-0.5,1.1h-1.1c0-0.5,0.1-0.9,0.4-1.3c0.2-0.4,0.6-0.6,1-0.8
			c0.5-0.2,1-0.3,1.6-0.3c0.6,0,1.1,0.1,1.6,0.3s0.7,0.4,0.9,0.8c0.2,0.3,0.3,0.7,0.3,1.1V94c0,0.3,0,0.5,0,0.8s0,0.6,0.1,0.9h-1
			c0-0.3-0.1-0.6-0.1-0.8s0-0.5,0-0.8c-0.1,0.3-0.3,0.6-0.5,0.9c-0.2,0.3-0.5,0.5-0.9,0.7c-0.4,0.2-0.8,0.3-1.3,0.3
			C125.2,95.9,124.8,95.8,124.5,95.7z M127.3,94.7c0.4-0.2,0.6-0.6,0.8-1c0.2-0.4,0.3-0.8,0.3-1.3v-0.6c-0.2,0.1-0.3,0.2-0.5,0.3
			c-0.2,0.1-0.4,0.1-0.6,0.2l-0.2,0l-1.2,0.2c-0.5,0.1-0.8,0.3-1.1,0.5c-0.2,0.2-0.3,0.5-0.3,0.9c0,0.4,0.1,0.7,0.4,0.9
			s0.6,0.3,1,0.3C126.4,95,126.9,94.9,127.3,94.7z"/>
		<path class="st6" d="M131.2,88.7h1.1v2.2l0,0.2v4.6h-1.1V88.7z M132.3,90.8c0.2-0.7,0.5-1.2,1-1.6c0.4-0.4,1-0.6,1.7-0.6h0.3v1.1
			h-0.3c-0.7,0-1.2,0.1-1.6,0.4c-0.4,0.3-0.6,0.7-0.8,1.2c-0.1,0.5-0.2,1.1-0.2,1.8H132C132,92.3,132.1,91.5,132.3,90.8z"/>
		<path class="st6" d="M137.5,95.5c-0.5-0.3-0.9-0.8-1.2-1.3c-0.3-0.6-0.4-1.2-0.4-1.9c0-0.7,0.1-1.3,0.4-1.9c0.3-0.6,0.7-1,1.2-1.3
			s1.2-0.5,1.9-0.5c0.7,0,1.3,0.1,1.8,0.4c0.5,0.3,0.9,0.7,1.1,1.2c0.3,0.5,0.4,1.1,0.4,1.8v0.2c0,0.1,0,0.2,0,0.3h-5.9v-0.8h5.3
			l-0.5,0.5c0-0.6,0-1.2-0.2-1.6c-0.2-0.4-0.4-0.7-0.7-0.9c-0.3-0.2-0.8-0.3-1.2-0.3c-0.5,0-1,0.1-1.3,0.3s-0.6,0.5-0.8,0.9
			c-0.2,0.4-0.3,1-0.3,1.7s0.1,1.2,0.3,1.7c0.2,0.4,0.5,0.7,0.8,0.9c0.4,0.2,0.8,0.3,1.3,0.3c0.5,0,0.8-0.1,1.1-0.2
			c0.3-0.1,0.5-0.3,0.7-0.5c0.2-0.2,0.3-0.5,0.4-0.8h1c0,0.4-0.2,0.8-0.4,1.1s-0.6,0.7-1.1,0.9c-0.5,0.2-1.1,0.3-1.8,0.3
			C138.7,96,138,95.8,137.5,95.5z"/>
		<path class="st6" d="M154.2,95.7l-0.9-2.4h-4.6l-0.9,2.4h-1.2l3.6-9.3h1.7l3.6,9.3H154.2z M149,92.4h3.9l-2-5.2L149,92.4z"/>
		<path class="st6" d="M161.7,89.5c0.5,0.7,0.8,1.6,0.8,2.7c0,0.8-0.1,1.4-0.3,2c-0.2,0.6-0.6,1-1,1.3s-1,0.5-1.7,0.5
			c-0.7,0-1.3-0.2-1.8-0.5c-0.5-0.3-0.8-0.8-1.1-1.3c-0.2-0.6-0.4-1.2-0.4-1.9c0-0.7,0.1-1.4,0.4-1.9c0.2-0.6,0.6-1,1.1-1.3
			c0.5-0.3,1.1-0.5,1.8-0.5C160.4,88.5,161.2,88.8,161.7,89.5z M158.3,89.7c-0.3,0.2-0.6,0.5-0.8,0.9c-0.2,0.4-0.2,0.9-0.2,1.6
			c0,0.6,0.1,1.1,0.2,1.6c0.2,0.4,0.4,0.7,0.8,0.9c0.3,0.2,0.8,0.3,1.3,0.3c0.5,0,0.9-0.1,1.3-0.3s0.6-0.5,0.8-0.9s0.3-0.9,0.3-1.6
			c0-0.6-0.1-1.2-0.3-1.6s-0.5-0.7-0.8-0.9s-0.8-0.3-1.3-0.3C159.1,89.4,158.6,89.5,158.3,89.7z M163.2,95.7h-1.1v-1.7v-0.2v-8h1.1
			V95.7z"/>
		<path class="st6" d="M165.2,88.7h1.1v2.2l0,0.2v4.6h-1.1V88.7z M166.3,90.8c0.2-0.7,0.5-1.2,1-1.6c0.4-0.4,1-0.6,1.7-0.6h0.3v1.1
			h-0.3c-0.7,0-1.2,0.1-1.6,0.4c-0.4,0.3-0.6,0.7-0.8,1.2c-0.1,0.5-0.2,1.1-0.2,1.8H166C166,92.3,166.1,91.5,166.3,90.8z"/>
		<path class="st6" d="M170.2,86.4h1.5v1.2h-1.5V86.4z M170.4,88.7h1.1v7h-1.1V88.7z"/>
		<path class="st6" d="M174.1,95.7c-0.3-0.2-0.6-0.4-0.8-0.7c-0.2-0.3-0.3-0.7-0.3-1.1c0-0.4,0.1-0.7,0.2-1c0.1-0.3,0.4-0.5,0.7-0.7
			c0.3-0.2,0.7-0.3,1.2-0.4l1.8-0.3c0.4-0.1,0.6-0.2,0.8-0.3s0.2-0.3,0.2-0.6s-0.1-0.5-0.2-0.7c-0.1-0.2-0.3-0.3-0.5-0.4
			c-0.3-0.1-0.6-0.2-1-0.2c-0.7,0-1.1,0.1-1.4,0.4s-0.5,0.7-0.5,1.1h-1.1c0-0.5,0.1-0.9,0.4-1.3c0.2-0.4,0.6-0.6,1-0.8
			c0.5-0.2,1-0.3,1.6-0.3c0.6,0,1.1,0.1,1.6,0.3s0.7,0.4,0.9,0.8c0.2,0.3,0.3,0.7,0.3,1.1V94c0,0.3,0,0.5,0,0.8s0,0.6,0.1,0.9h-1
			c0-0.3-0.1-0.6-0.1-0.8s0-0.5,0-0.8c-0.1,0.3-0.3,0.6-0.5,0.9c-0.2,0.3-0.5,0.5-0.9,0.7c-0.4,0.2-0.8,0.3-1.3,0.3
			C174.9,95.9,174.5,95.8,174.1,95.7z M176.9,94.7c0.4-0.2,0.6-0.6,0.8-1c0.2-0.4,0.3-0.8,0.3-1.3v-0.6c-0.2,0.1-0.3,0.2-0.5,0.3
			c-0.2,0.1-0.4,0.1-0.6,0.2l-0.2,0l-1.2,0.2c-0.5,0.1-0.8,0.3-1.1,0.5c-0.2,0.2-0.3,0.5-0.3,0.9c0,0.4,0.1,0.7,0.4,0.9
			s0.6,0.3,1,0.3C176.1,95,176.5,94.9,176.9,94.7z"/>
		<path class="st6" d="M181.9,95.6c-0.2-0.1-0.4-0.3-0.5-0.5c-0.1-0.2-0.1-0.5-0.1-0.9v-4.5h-1.4V89l1.5-0.3l0.4-1.5h0.6v1.6h2.3
			v0.9h-2.3v5.2h2.2v0.9H183C182.5,95.7,182.2,95.7,181.9,95.6z"/>
		<path class="st6" d="M185.9,86.4h1.5v1.2h-1.5V86.4z M186.1,88.7h1.1v7h-1.1V88.7z"/>
		<path class="st6" d="M189,90.3c0.3-0.6,0.7-1,1.2-1.3c0.5-0.3,1.2-0.5,1.9-0.5c0.7,0,1.3,0.1,1.8,0.3c0.5,0.2,0.8,0.6,1.1,1
			c0.3,0.4,0.4,0.9,0.4,1.5h-1.1c-0.1-0.4-0.2-0.7-0.4-1c-0.2-0.3-0.4-0.5-0.7-0.6c-0.3-0.1-0.7-0.2-1.1-0.2c-0.5,0-1,0.1-1.3,0.3
			c-0.4,0.2-0.6,0.5-0.8,0.9c-0.2,0.4-0.3,1-0.3,1.6c0,0.7,0.1,1.2,0.3,1.6c0.2,0.4,0.5,0.7,0.8,0.9c0.4,0.2,0.8,0.3,1.3,0.3
			c0.7,0,1.2-0.2,1.6-0.5s0.6-0.8,0.7-1.5h1.1c0,0.6-0.2,1-0.4,1.5c-0.3,0.4-0.7,0.8-1.2,1c-0.5,0.3-1.1,0.4-1.8,0.4
			c-0.8,0-1.4-0.2-1.9-0.5c-0.5-0.3-0.9-0.8-1.2-1.3c-0.3-0.6-0.4-1.2-0.4-1.9C188.6,91.5,188.8,90.9,189,90.3z"/>
		<path class="st6" d="M198,95.5c-0.5-0.3-0.9-0.8-1.2-1.3s-0.4-1.2-0.4-1.9c0-0.7,0.1-1.3,0.4-1.9c0.3-0.6,0.7-1,1.2-1.3
			s1.2-0.5,2-0.5c0.8,0,1.4,0.2,2,0.5s0.9,0.8,1.2,1.3c0.3,0.6,0.4,1.2,0.4,1.9c0,0.7-0.1,1.4-0.4,1.9c-0.3,0.6-0.7,1-1.2,1.3
			s-1.2,0.5-2,0.5C199.2,96,198.6,95.8,198,95.5z M197.8,93.8c0.2,0.4,0.4,0.7,0.8,0.9c0.4,0.2,0.8,0.3,1.3,0.3c0.5,0,1-0.1,1.3-0.3
			c0.4-0.2,0.6-0.5,0.8-0.9c0.2-0.4,0.3-1,0.3-1.6c0-0.7-0.1-1.2-0.3-1.6c-0.2-0.4-0.4-0.7-0.8-0.9c-0.4-0.2-0.8-0.3-1.3-0.3
			c-0.5,0-1,0.1-1.3,0.3s-0.6,0.5-0.8,0.9c-0.2,0.4-0.3,0.9-0.3,1.6C197.6,92.9,197.7,93.4,197.8,93.8z"/>
		<path class="st6" d="M209.4,93.9c0.2,0.3,0.5,0.6,0.9,0.8s0.8,0.3,1.4,0.3c0.8,0,1.5-0.2,1.9-0.6c0.4-0.4,0.6-0.9,0.6-1.7
			c0-0.6-0.2-1.1-0.5-1.4c-0.3-0.4-0.8-0.5-1.5-0.5c-0.3,0-0.7,0-0.9,0.1s-0.5,0.2-0.8,0.4l-0.6-0.7l3.7-3.2h-5.3v-1h6.7v1l-3.2,2.9
			c0.3-0.1,0.6-0.1,1-0.1c0.5,0,0.9,0.1,1.3,0.3c0.4,0.2,0.7,0.5,1,0.9s0.4,0.9,0.4,1.5c0,0.6-0.1,1.1-0.4,1.6
			c-0.3,0.5-0.7,0.9-1.2,1.2c-0.6,0.3-1.3,0.5-2.2,0.5c-0.8,0-1.5-0.1-2-0.4s-1-0.7-1.3-1.2s-0.4-1.1-0.4-1.7h1.2
			C209.1,93.1,209.2,93.5,209.4,93.9z"/>
		<path class="st6" d="M218.3,94.1c0.2,0.3,0.4,0.5,0.8,0.7c0.4,0.2,0.8,0.2,1.4,0.2c0.6,0,1.1-0.1,1.4-0.3c0.4-0.2,0.7-0.5,0.8-0.8
			c0.2-0.3,0.3-0.8,0.3-1.2c0-0.5-0.1-0.9-0.3-1.3c-0.2-0.3-0.4-0.6-0.8-0.8s-0.7-0.3-1.2-0.3c-0.5,0-1,0.1-1.4,0.3
			s-0.8,0.5-1.1,0.9h-1.1l0.3-5.2h1.1l-0.3,4.2c0.3-0.3,0.7-0.6,1.1-0.8c0.4-0.2,1-0.3,1.6-0.3c0.7,0,1.2,0.1,1.7,0.4
			c0.5,0.3,0.9,0.6,1.1,1.1s0.4,1,0.4,1.7c0,1-0.3,1.8-0.9,2.4c-0.6,0.6-1.6,0.9-2.9,0.9c-0.8,0-1.5-0.1-2-0.4c-0.5-0.2-1-0.6-1.2-1
			s-0.4-0.9-0.5-1.5h1.2C218,93.5,218.1,93.8,218.3,94.1z M223.9,86.4v1H218v-1H223.9z"/>
		<path class="st6" d="M230.1,95.2c-0.5-0.3-0.8-0.7-1.1-1.2s-0.4-1.2-0.4-1.9c0-1.1,0.3-2,0.8-2.6c0.5-0.6,1.4-0.9,2.4-0.9
			c1,0,1.8,0.3,2.3,0.9s0.8,1.5,0.8,2.6c0,0.8-0.1,1.4-0.3,2c-0.2,0.5-0.6,0.9-1,1.2c-0.5,0.3-1,0.4-1.7,0.4
			C231.2,95.6,230.6,95.4,230.1,95.2z M230.4,98.4c-0.5-0.2-0.9-0.5-1.1-0.9s-0.4-0.8-0.5-1.4h1.1c0,0.3,0.1,0.6,0.3,0.8
			c0.2,0.2,0.4,0.4,0.7,0.6c0.3,0.1,0.7,0.2,1.3,0.2c0.6,0,1-0.1,1.4-0.2c0.3-0.1,0.6-0.4,0.8-0.7s0.2-0.7,0.2-1.2v-7h1.1v7
			c0,0.6-0.1,1.2-0.3,1.6c-0.2,0.4-0.6,0.8-1.1,1c-0.5,0.2-1.2,0.3-2,0.3C231.5,98.7,230.9,98.6,230.4,98.4z M233.5,94.4
			c0.3-0.2,0.6-0.5,0.8-0.9c0.2-0.4,0.3-0.9,0.3-1.5c0-0.6-0.1-1.1-0.3-1.5c-0.2-0.4-0.5-0.7-0.8-0.9s-0.8-0.3-1.3-0.3
			c-0.5,0-1,0.1-1.3,0.3c-0.3,0.2-0.6,0.5-0.8,0.8s-0.3,0.9-0.3,1.5s0.1,1.1,0.3,1.5c0.2,0.4,0.4,0.7,0.8,0.9
			c0.3,0.2,0.8,0.3,1.3,0.3C232.7,94.7,233.2,94.6,233.5,94.4z"/>
		<path class="st6" d="M240.1,86.4h1l-3.2,9.3h-1L240.1,86.4z"/>
		<path class="st6" d="M242.2,86.4h1.2v9.3h-1.2V86.4z M243.1,94.8h5.2v0.9h-5.2V94.8z"/>
	</g>
</g>
<g>
	<g>
		<g>
			<path class="st6" d="M69.2,648.2l-0.9-2.4h-4.6l-0.9,2.4h-1.2l3.6-9.3h1.7l3.6,9.3H69.2z M64,644.9h3.9l-2-5.2L64,644.9z"/>
			<path class="st6" d="M71.5,642.7c0.3-0.6,0.7-1,1.2-1.3s1.2-0.5,1.9-0.5c0.7,0,1.3,0.1,1.8,0.3c0.5,0.2,0.8,0.6,1.1,1
				c0.3,0.4,0.4,0.9,0.4,1.5h-1.1c-0.1-0.4-0.2-0.7-0.4-1c-0.2-0.3-0.4-0.5-0.7-0.6s-0.7-0.2-1.1-0.2c-0.5,0-1,0.1-1.3,0.3
				c-0.4,0.2-0.6,0.5-0.8,0.9c-0.2,0.4-0.3,1-0.3,1.6c0,0.7,0.1,1.2,0.3,1.6c0.2,0.4,0.5,0.7,0.8,0.9c0.4,0.2,0.8,0.3,1.3,0.3
				c0.7,0,1.2-0.2,1.6-0.5s0.6-0.8,0.7-1.5H78c0,0.6-0.2,1-0.4,1.5c-0.3,0.4-0.7,0.8-1.2,1s-1.1,0.4-1.8,0.4c-0.8,0-1.4-0.2-1.9-0.5
				c-0.5-0.3-0.9-0.8-1.2-1.3c-0.3-0.6-0.4-1.2-0.4-1.9S71.2,643.3,71.5,642.7z"/>
			<path class="st6" d="M80.3,647.9c-0.5-0.3-0.8-0.7-1.1-1.3c-0.2-0.6-0.4-1.2-0.4-1.9c0-0.7,0.1-1.4,0.4-1.9
				c0.2-0.6,0.6-1,1.1-1.3c0.5-0.3,1.1-0.5,1.8-0.5c1,0,1.8,0.3,2.3,1c0.5,0.7,0.8,1.6,0.8,2.7s-0.3,2.1-0.8,2.7
				c-0.5,0.7-1.3,1-2.3,1C81.4,648.4,80.8,648.2,80.3,647.9z M83.7,647.2c0.4-0.2,0.6-0.5,0.8-0.9s0.3-1,0.3-1.6s-0.1-1.2-0.3-1.6
				s-0.5-0.7-0.8-0.9c-0.4-0.2-0.8-0.3-1.3-0.3c-0.5,0-1,0.1-1.3,0.3c-0.3,0.2-0.6,0.5-0.8,0.9c-0.2,0.4-0.2,0.9-0.2,1.6
				c0,0.6,0.1,1.2,0.2,1.6c0.2,0.4,0.4,0.7,0.8,0.9c0.3,0.2,0.8,0.3,1.3,0.3C82.9,647.5,83.3,647.4,83.7,647.2z M84.8,651v-9.8h1.1
				v9.8H84.8z"/>
			<path class="st6" d="M88.9,648.1c-0.4-0.2-0.7-0.5-0.8-0.9c-0.2-0.4-0.3-0.9-0.3-1.5v-4.5H89v4.3c0,0.5,0.1,0.9,0.2,1.2
				c0.1,0.3,0.3,0.5,0.6,0.6c0.3,0.1,0.6,0.2,1,0.2c0.5,0,0.9-0.1,1.3-0.4c0.3-0.3,0.6-0.7,0.8-1.2c0.2-0.5,0.3-1.2,0.3-2h0.4
				c0,0.9-0.1,1.7-0.3,2.4c-0.2,0.7-0.5,1.2-1,1.6c-0.4,0.4-1,0.6-1.7,0.6C89.8,648.4,89.3,648.3,88.9,648.1z M93,646v-0.2v-4.7h1.1
				v7H93V646z"/>
			<path class="st6" d="M96.9,648.1c-0.3-0.2-0.6-0.4-0.8-0.7c-0.2-0.3-0.3-0.7-0.3-1.1c0-0.4,0.1-0.7,0.2-1
				c0.1-0.3,0.4-0.5,0.7-0.7c0.3-0.2,0.7-0.3,1.2-0.4l1.8-0.3c0.4-0.1,0.6-0.2,0.8-0.3c0.2-0.1,0.2-0.3,0.2-0.6
				c0-0.3-0.1-0.5-0.2-0.7c-0.1-0.2-0.3-0.3-0.5-0.4c-0.3-0.1-0.6-0.2-1-0.2c-0.7,0-1.1,0.1-1.4,0.4c-0.3,0.3-0.5,0.7-0.5,1.1h-1.1
				c0-0.5,0.1-0.9,0.4-1.3c0.2-0.4,0.6-0.6,1-0.8c0.5-0.2,1-0.3,1.6-0.3c0.6,0,1.1,0.1,1.6,0.3c0.4,0.2,0.7,0.4,0.9,0.7
				c0.2,0.3,0.3,0.7,0.3,1.1v3.4c0,0.3,0,0.5,0,0.8c0,0.3,0,0.6,0.1,0.9h-1c0-0.3-0.1-0.6-0.1-0.8s0-0.5,0-0.8
				c-0.1,0.3-0.3,0.6-0.5,0.9s-0.5,0.5-0.9,0.7s-0.8,0.3-1.3,0.3C97.6,648.4,97.2,648.3,96.9,648.1z M99.6,647.1
				c0.4-0.2,0.6-0.6,0.8-1c0.2-0.4,0.3-0.8,0.3-1.3v-0.6c-0.2,0.1-0.3,0.2-0.5,0.3c-0.2,0.1-0.4,0.1-0.6,0.2l-0.2,0l-1.2,0.2
				c-0.5,0.1-0.8,0.3-1.1,0.5c-0.2,0.2-0.3,0.5-0.3,0.9c0,0.4,0.1,0.7,0.4,0.9s0.6,0.3,1,0.3C98.8,647.5,99.3,647.4,99.6,647.1z"/>
			<path class="st6" d="M111.8,641.9c0.5,0.7,0.8,1.6,0.8,2.7c0,0.8-0.1,1.4-0.3,2c-0.2,0.6-0.6,1-1,1.3c-0.5,0.3-1,0.5-1.7,0.5
				c-0.7,0-1.3-0.2-1.8-0.5c-0.5-0.3-0.8-0.8-1.1-1.3c-0.2-0.6-0.4-1.2-0.4-1.9c0-0.7,0.1-1.4,0.4-1.9c0.2-0.6,0.6-1,1.1-1.3
				c0.5-0.3,1.1-0.5,1.8-0.5C110.5,641,111.3,641.3,111.8,641.9z M108.4,642.2c-0.3,0.2-0.6,0.5-0.8,0.9c-0.2,0.4-0.2,0.9-0.2,1.6
				c0,0.6,0.1,1.1,0.2,1.6c0.2,0.4,0.4,0.7,0.8,0.9c0.3,0.2,0.8,0.3,1.3,0.3c0.5,0,0.9-0.1,1.3-0.3c0.4-0.2,0.6-0.5,0.8-0.9
				c0.2-0.4,0.3-0.9,0.3-1.6s-0.1-1.2-0.3-1.6s-0.5-0.7-0.8-0.9c-0.4-0.2-0.8-0.3-1.3-0.3C109.2,641.9,108.8,642,108.4,642.2z
				 M113.3,648.2h-1.1v-1.7v-0.2v-8h1.1V648.2z"/>
			<path class="st6" d="M116.4,647.9c-0.5-0.3-0.9-0.8-1.2-1.3s-0.4-1.2-0.4-1.9c0-0.7,0.1-1.3,0.4-1.9s0.7-1,1.2-1.3s1.2-0.5,2-0.5
				c0.8,0,1.4,0.2,2,0.5s0.9,0.8,1.2,1.3c0.3,0.6,0.4,1.2,0.4,1.9c0,0.7-0.1,1.4-0.4,1.9c-0.3,0.6-0.7,1-1.2,1.3
				c-0.5,0.3-1.2,0.5-2,0.5C117.6,648.4,117,648.2,116.4,647.9z M116.2,646.3c0.2,0.4,0.4,0.7,0.8,0.9c0.4,0.2,0.8,0.3,1.3,0.3
				c0.5,0,1-0.1,1.3-0.3c0.4-0.2,0.6-0.5,0.8-0.9c0.2-0.4,0.3-1,0.3-1.6c0-0.7-0.1-1.2-0.3-1.6c-0.2-0.4-0.4-0.7-0.8-0.9
				c-0.4-0.2-0.8-0.3-1.3-0.3c-0.5,0-1,0.1-1.3,0.3c-0.4,0.2-0.6,0.5-0.8,0.9c-0.2,0.4-0.3,0.9-0.3,1.6
				C116,645.3,116.1,645.9,116.2,646.3z"/>
			<path class="st6" d="M123.5,638.4h1.1v9.8h-1.1V638.4z"/>
			<path class="st6" d="M126.5,642.7c0.3-0.6,0.7-1,1.2-1.3s1.2-0.5,1.9-0.5c0.7,0,1.3,0.1,1.8,0.3c0.5,0.2,0.8,0.6,1.1,1
				c0.3,0.4,0.4,0.9,0.4,1.5h-1.1c-0.1-0.4-0.2-0.7-0.4-1c-0.2-0.3-0.4-0.5-0.7-0.6s-0.7-0.2-1.1-0.2c-0.5,0-1,0.1-1.3,0.3
				c-0.4,0.2-0.6,0.5-0.8,0.9c-0.2,0.4-0.3,1-0.3,1.6c0,0.7,0.1,1.2,0.3,1.6c0.2,0.4,0.5,0.7,0.8,0.9c0.4,0.2,0.8,0.3,1.3,0.3
				c0.7,0,1.2-0.2,1.6-0.5s0.6-0.8,0.7-1.5h1.1c0,0.6-0.2,1-0.4,1.5c-0.3,0.4-0.7,0.8-1.2,1s-1.1,0.4-1.8,0.4
				c-0.8,0-1.4-0.2-1.9-0.5c-0.5-0.3-0.9-0.8-1.2-1.3c-0.3-0.6-0.4-1.2-0.4-1.9S126.2,643.3,126.5,642.7z"/>
			<path class="st6" d="M135.4,647.9c-0.5-0.3-0.9-0.8-1.2-1.3s-0.4-1.2-0.4-1.9c0-0.7,0.1-1.3,0.4-1.9c0.3-0.6,0.7-1,1.2-1.3
				s1.2-0.5,1.9-0.5c0.7,0,1.3,0.1,1.8,0.4s0.9,0.7,1.1,1.2c0.3,0.5,0.4,1.1,0.4,1.8v0.2c0,0.1,0,0.2,0,0.3h-5.9v-0.8h5.3l-0.5,0.5
				c0-0.6,0-1.2-0.2-1.6c-0.2-0.4-0.4-0.7-0.7-0.9c-0.3-0.2-0.8-0.3-1.2-0.3c-0.5,0-1,0.1-1.3,0.3s-0.6,0.5-0.8,0.9
				c-0.2,0.4-0.3,1-0.3,1.7s0.1,1.2,0.3,1.7c0.2,0.4,0.5,0.7,0.8,0.9s0.8,0.3,1.3,0.3c0.5,0,0.8-0.1,1.1-0.2s0.5-0.3,0.7-0.5
				c0.2-0.2,0.3-0.5,0.4-0.8h1c0,0.4-0.2,0.8-0.4,1.1s-0.6,0.7-1.1,0.9c-0.5,0.2-1.1,0.3-1.8,0.3C136.6,648.4,136,648.2,135.4,647.9
				z"/>
			<path class="st6" d="M145.2,645v-0.9l4.7-1.8v0.9L145.2,645z M145.2,645.3v-0.9l4.7,1.8v0.9L145.2,645.3z"/>
			<path class="st6" d="M153.6,647.8c-0.6-0.4-1.1-1-1.4-1.7c-0.3-0.7-0.5-1.6-0.5-2.5c0-1,0.2-1.8,0.5-2.5c0.3-0.7,0.8-1.3,1.4-1.7
				s1.4-0.6,2.4-0.6c0.9,0,1.7,0.2,2.4,0.6c0.6,0.4,1.1,1,1.4,1.7c0.3,0.7,0.5,1.6,0.5,2.5s-0.2,1.8-0.5,2.5
				c-0.3,0.7-0.8,1.3-1.4,1.7c-0.6,0.4-1.4,0.6-2.4,0.6C155,648.4,154.2,648.2,153.6,647.8z M153.3,645.7c0.2,0.6,0.5,1,1,1.3
				c0.4,0.3,1,0.4,1.7,0.4c0.7,0,1.3-0.1,1.7-0.4s0.8-0.7,1-1.3s0.3-1.3,0.3-2.2c0-0.9-0.1-1.6-0.3-2.2c-0.2-0.6-0.5-1-1-1.3
				s-1-0.4-1.7-0.4c-0.7,0-1.3,0.1-1.7,0.4c-0.4,0.3-0.8,0.7-1,1.3c-0.2,0.6-0.3,1.3-0.3,2.2C153,644.4,153.1,645.1,153.3,645.7z"/>
			<path class="st6" d="M161.3,646.9h1.5v1.2h-1.5V646.9z"/>
			<path class="st6" d="M165.5,646.5c0.2,0.3,0.4,0.5,0.8,0.7c0.4,0.2,0.8,0.2,1.4,0.2c0.6,0,1.1-0.1,1.4-0.3
				c0.4-0.2,0.7-0.5,0.8-0.8c0.2-0.3,0.3-0.8,0.3-1.2c0-0.5-0.1-0.9-0.3-1.3c-0.2-0.4-0.4-0.6-0.8-0.8c-0.3-0.2-0.7-0.3-1.2-0.3
				c-0.5,0-1,0.1-1.4,0.3s-0.8,0.5-1.1,0.9h-1.1l0.3-5.2h1.1l-0.3,4.2c0.3-0.3,0.7-0.6,1.1-0.8c0.4-0.2,1-0.3,1.6-0.3
				c0.7,0,1.2,0.1,1.7,0.4c0.5,0.3,0.9,0.6,1.1,1.1c0.3,0.5,0.4,1,0.4,1.7c0,1-0.3,1.8-0.9,2.4c-0.6,0.6-1.6,0.9-2.9,0.9
				c-0.8,0-1.5-0.1-2-0.4c-0.5-0.2-1-0.6-1.2-1c-0.3-0.4-0.4-0.9-0.5-1.5h1.2C165.3,645.9,165.4,646.3,165.5,646.5z M171.1,638.9v1
				h-5.9v-1H171.1z"/>
			<path class="st6" d="M177.3,647.6c-0.5-0.3-0.8-0.7-1.1-1.2s-0.4-1.2-0.4-1.9c0-1.1,0.3-2,0.8-2.6c0.5-0.6,1.4-0.9,2.4-0.9
				c1,0,1.8,0.3,2.3,0.9s0.8,1.5,0.8,2.6c0,0.8-0.1,1.4-0.3,2s-0.6,0.9-1,1.2c-0.5,0.3-1,0.4-1.7,0.4
				C178.4,648,177.8,647.9,177.3,647.6z M177.7,650.8c-0.5-0.2-0.9-0.5-1.1-0.9s-0.4-0.8-0.5-1.4h1.1c0,0.3,0.1,0.6,0.3,0.8
				c0.2,0.2,0.4,0.4,0.7,0.6c0.3,0.1,0.7,0.2,1.3,0.2c0.6,0,1-0.1,1.4-0.2c0.3-0.1,0.6-0.4,0.8-0.7c0.2-0.3,0.2-0.7,0.2-1.2v-7h1.1
				v7c0,0.6-0.1,1.2-0.3,1.6c-0.2,0.4-0.6,0.8-1.1,1c-0.5,0.2-1.2,0.3-2,0.3C178.7,651.1,178.1,651,177.7,650.8z M180.7,646.9
				c0.3-0.2,0.6-0.5,0.8-0.9c0.2-0.4,0.3-0.9,0.3-1.5c0-0.6-0.1-1.1-0.3-1.5c-0.2-0.4-0.5-0.7-0.8-0.9s-0.8-0.3-1.3-0.3
				c-0.5,0-1,0.1-1.3,0.3c-0.3,0.2-0.6,0.5-0.8,0.8c-0.2,0.4-0.3,0.9-0.3,1.5c0,0.6,0.1,1.1,0.3,1.5c0.2,0.4,0.4,0.7,0.8,0.9
				c0.3,0.2,0.8,0.3,1.3,0.3C179.9,647.1,180.4,647.1,180.7,646.9z"/>
			<path class="st6" d="M187.3,638.9h1l-3.2,9.3h-1L187.3,638.9z"/>
			<path class="st6" d="M189.4,638.9h1.2v9.3h-1.2V638.9z M190.3,647.2h5.2v0.9h-5.2V647.2z"/>
		</g>
	</g>
</g>
<g>
	<g>
		<path class="st6" d="M823.2,392.5h-1.3v-9.6l-3.6,9.6h-1.8l-3.6-9.6v9.6h-1.3v-10.6h2.3l3.6,9.4l3.5-9.4h2.3V392.5z"/>
		<path class="st6" d="M826.6,392.2c-0.6-0.4-1-0.9-1.3-1.5c-0.3-0.6-0.4-1.4-0.4-2.2c0-0.8,0.2-1.5,0.5-2.2
			c0.3-0.6,0.8-1.1,1.3-1.5s1.3-0.6,2.2-0.6c0.8,0,1.5,0.2,2.1,0.5s1,0.8,1.3,1.4c0.3,0.6,0.4,1.3,0.4,2.1v0.2c0,0.1,0,0.2,0,0.3
			h-6.8v-1h6.1l-0.6,0.6c0-0.7,0-1.3-0.2-1.8c-0.2-0.5-0.5-0.8-0.9-1s-0.9-0.3-1.4-0.3c-0.6,0-1.1,0.1-1.5,0.3
			c-0.4,0.2-0.7,0.6-0.9,1.1c-0.2,0.5-0.3,1.1-0.3,1.9s0.1,1.4,0.3,1.9c0.2,0.5,0.5,0.8,1,1.1c0.4,0.2,0.9,0.3,1.5,0.3
			c0.5,0,1-0.1,1.3-0.2c0.3-0.1,0.6-0.3,0.8-0.6s0.3-0.6,0.4-0.9h1.2c-0.1,0.5-0.2,0.9-0.5,1.3c-0.3,0.4-0.7,0.8-1.2,1
			c-0.5,0.3-1.2,0.4-2.1,0.4C827.9,392.8,827.2,392.6,826.6,392.2z"/>
		<path class="st6" d="M840,385.4c0.6,0.8,0.9,1.8,0.9,3.1c0,0.9-0.1,1.6-0.4,2.3c-0.3,0.6-0.7,1.1-1.2,1.5
			c-0.5,0.3-1.2,0.5-1.9,0.5c-0.8,0-1.5-0.2-2.1-0.5c-0.5-0.4-1-0.9-1.2-1.5s-0.4-1.4-0.4-2.2c0-0.8,0.1-1.6,0.4-2.2
			c0.3-0.6,0.7-1.1,1.2-1.5c0.5-0.4,1.2-0.5,2.1-0.5C838.6,384.3,839.4,384.6,840,385.4z M836.1,385.7c-0.4,0.2-0.7,0.6-0.9,1.1
			s-0.3,1.1-0.3,1.8c0,0.7,0.1,1.3,0.3,1.8s0.5,0.8,0.9,1.1c0.4,0.2,0.9,0.4,1.5,0.4c0.6,0,1.1-0.1,1.5-0.3c0.4-0.2,0.7-0.6,1-1.1
			c0.2-0.5,0.3-1.1,0.3-1.8s-0.1-1.3-0.3-1.8c-0.2-0.5-0.5-0.8-1-1.1c-0.4-0.2-0.9-0.3-1.5-0.3C837,385.3,836.5,385.4,836.1,385.7z
			 M841.7,392.5h-1.3v-1.9v-0.2v-9.1h1.3V392.5z"/>
		<path class="st6" d="M843.8,381.9h1.7v1.3h-1.7V381.9z M843.9,384.5h1.3v8h-1.3V384.5z"/>
		<path class="st6" d="M848.2,392.5c-0.4-0.2-0.7-0.4-0.9-0.8c-0.2-0.3-0.3-0.8-0.3-1.3c0-0.4,0.1-0.8,0.3-1.1s0.4-0.6,0.8-0.8
			s0.8-0.4,1.4-0.5l2.1-0.3c0.4-0.1,0.7-0.2,0.9-0.3c0.2-0.1,0.3-0.4,0.3-0.7c0-0.3-0.1-0.6-0.2-0.8s-0.3-0.4-0.6-0.5
			c-0.3-0.1-0.7-0.2-1.2-0.2c-0.8,0-1.3,0.2-1.7,0.5s-0.5,0.7-0.6,1.3h-1.3c0-0.6,0.2-1.1,0.4-1.5c0.3-0.4,0.7-0.7,1.2-1
			c0.5-0.2,1.1-0.3,1.9-0.3c0.7,0,1.3,0.1,1.8,0.3c0.5,0.2,0.8,0.5,1.1,0.9c0.2,0.4,0.3,0.8,0.3,1.3v3.8c0,0.3,0,0.6,0,0.9
			c0,0.3,0,0.7,0.1,1h-1.2c0-0.3-0.1-0.7-0.1-1c0-0.3,0-0.6,0-0.9c-0.1,0.4-0.3,0.7-0.5,1c-0.2,0.3-0.6,0.6-1,0.8
			c-0.4,0.2-0.9,0.3-1.5,0.3C849.1,392.7,848.6,392.6,848.2,392.5z M851.4,391.3c0.4-0.3,0.7-0.6,0.9-1.1c0.2-0.5,0.3-0.9,0.3-1.5
			V388c-0.2,0.1-0.4,0.2-0.5,0.3s-0.4,0.1-0.7,0.2l-0.2,0l-1.3,0.3c-0.6,0.1-1,0.3-1.2,0.5s-0.4,0.6-0.4,1c0,0.4,0.1,0.8,0.4,1
			c0.3,0.2,0.7,0.4,1.2,0.4C850.5,391.7,851,391.6,851.4,391.3z"/>
		<path class="st6" d="M860.5,390.9c0.2,0.3,0.4,0.5,0.8,0.7c0.4,0.2,0.9,0.2,1.4,0.2c0.5,0,0.8-0.1,1.1-0.2
			c0.3-0.1,0.5-0.3,0.6-0.5c0.1-0.2,0.2-0.5,0.2-0.8c0-0.4-0.1-0.7-0.4-0.9c-0.2-0.2-0.6-0.4-1.1-0.4l-1.9-0.3
			c-0.7-0.1-1.3-0.3-1.6-0.7c-0.4-0.4-0.6-0.9-0.6-1.5c0-0.7,0.3-1.3,0.9-1.8c0.6-0.4,1.4-0.6,2.4-0.6c0.7,0,1.3,0.1,1.8,0.3
			c0.5,0.2,0.9,0.5,1.2,0.9s0.4,0.8,0.5,1.3h-1.3c0-0.5-0.2-0.8-0.6-1.1c-0.4-0.3-0.9-0.4-1.6-0.4c-0.7,0-1.1,0.1-1.5,0.4
			c-0.3,0.2-0.5,0.6-0.5,1c0,0.3,0.1,0.6,0.3,0.8c0.2,0.2,0.5,0.3,1,0.4l1.7,0.2c0.9,0.1,1.6,0.4,1.9,0.8c0.4,0.4,0.6,0.9,0.6,1.6
			c0,0.8-0.3,1.4-0.8,1.8s-1.4,0.6-2.4,0.6c-0.9,0-1.6-0.1-2.1-0.4c-0.5-0.2-1-0.6-1.2-1c-0.3-0.4-0.4-0.9-0.4-1.5h1.2
			C860.2,390.2,860.3,390.6,860.5,390.9z"/>
		<path class="st6" d="M869,392.3c-0.3-0.1-0.5-0.3-0.6-0.6c-0.1-0.3-0.2-0.6-0.2-1.1v-5.1h-1.6v-0.7l1.7-0.4l0.5-1.7h0.7v1.8h2.7v1
			h-2.7v6h2.6v1h-1.9C869.6,392.5,869.2,392.5,869,392.3z"/>
		<path class="st6" d="M875,392.2c-0.6-0.4-1.1-0.9-1.4-1.5c-0.3-0.6-0.5-1.4-0.5-2.2c0-0.8,0.2-1.5,0.5-2.2
			c0.3-0.6,0.8-1.1,1.4-1.5s1.4-0.6,2.2-0.6c0.9,0,1.6,0.2,2.2,0.6c0.6,0.4,1.1,0.9,1.4,1.5c0.3,0.6,0.5,1.4,0.5,2.2
			c0,0.8-0.2,1.6-0.5,2.2c-0.3,0.6-0.8,1.1-1.4,1.5c-0.6,0.4-1.4,0.6-2.2,0.6C876.4,392.8,875.7,392.6,875,392.2z M874.8,390.3
			c0.2,0.5,0.5,0.8,0.9,1.1c0.4,0.2,0.9,0.3,1.5,0.3c0.6,0,1.1-0.1,1.5-0.3c0.4-0.2,0.7-0.6,0.9-1.1c0.2-0.5,0.3-1.1,0.3-1.8
			c0-0.7-0.1-1.4-0.3-1.8c-0.2-0.5-0.5-0.8-0.9-1c-0.4-0.2-0.9-0.3-1.5-0.3c-0.6,0-1.1,0.1-1.5,0.3c-0.4,0.2-0.7,0.6-0.9,1
			s-0.3,1.1-0.3,1.8C874.5,389.3,874.6,389.9,874.8,390.3z"/>
		<path class="st6" d="M883.1,384.5h1.3v2.5l0,0.3v5.2h-1.3V384.5z M884.3,386.9c0.2-0.8,0.6-1.4,1.1-1.8s1.2-0.7,2-0.7h0.3v1.3
			h-0.4c-0.8,0-1.4,0.1-1.8,0.5c-0.4,0.3-0.7,0.8-0.9,1.3c-0.2,0.6-0.2,1.3-0.2,2.1h-0.5C883.9,388.6,884,387.7,884.3,386.9z"/>
		<path class="st6" d="M888.8,381.9h1.7v1.3h-1.7V381.9z M889,384.5h1.3v8H889V384.5z"/>
		<path class="st6" d="M892.4,386.3c0.3-0.6,0.8-1.1,1.4-1.5s1.3-0.5,2.2-0.5c0.8,0,1.5,0.1,2,0.4c0.5,0.3,1,0.6,1.3,1.1
			c0.3,0.5,0.5,1,0.5,1.7h-1.2c-0.1-0.4-0.2-0.8-0.4-1.2c-0.2-0.3-0.5-0.6-0.8-0.7s-0.8-0.3-1.3-0.3c-0.6,0-1.1,0.1-1.5,0.3
			c-0.4,0.2-0.7,0.6-0.9,1s-0.3,1.1-0.3,1.8c0,0.8,0.1,1.4,0.3,1.8c0.2,0.5,0.5,0.8,0.9,1c0.4,0.2,0.9,0.3,1.5,0.3
			c0.8,0,1.4-0.2,1.9-0.6c0.4-0.4,0.7-1,0.8-1.7h1.2c0,0.6-0.2,1.2-0.5,1.7s-0.7,0.9-1.3,1.2c-0.6,0.3-1.2,0.4-2,0.4
			c-0.9,0-1.6-0.2-2.2-0.5c-0.6-0.4-1.1-0.9-1.4-1.5c-0.3-0.6-0.5-1.4-0.5-2.2S892,387,892.4,386.3z"/>
		<path class="st6" d="M902.1,392.5c-0.4-0.2-0.7-0.4-0.9-0.8c-0.2-0.3-0.3-0.8-0.3-1.3c0-0.4,0.1-0.8,0.3-1.1s0.4-0.6,0.8-0.8
			s0.8-0.4,1.4-0.5l2.1-0.3c0.4-0.1,0.7-0.2,0.9-0.3c0.2-0.1,0.3-0.4,0.3-0.7c0-0.3-0.1-0.6-0.2-0.8s-0.3-0.4-0.6-0.5
			c-0.3-0.1-0.7-0.2-1.2-0.2c-0.8,0-1.3,0.2-1.7,0.5s-0.5,0.7-0.6,1.3H901c0-0.6,0.2-1.1,0.4-1.5c0.3-0.4,0.7-0.7,1.2-1
			c0.5-0.2,1.1-0.3,1.9-0.3c0.7,0,1.3,0.1,1.8,0.3c0.5,0.2,0.8,0.5,1.1,0.9c0.2,0.4,0.3,0.8,0.3,1.3v3.8c0,0.3,0,0.6,0,0.9
			c0,0.3,0,0.7,0.1,1h-1.2c0-0.3-0.1-0.7-0.1-1c0-0.3,0-0.6,0-0.9c-0.1,0.4-0.3,0.7-0.5,1c-0.2,0.3-0.6,0.6-1,0.8
			c-0.4,0.2-0.9,0.3-1.5,0.3C903,392.7,902.5,392.6,902.1,392.5z M905.3,391.3c0.4-0.3,0.7-0.6,0.9-1.1c0.2-0.5,0.3-0.9,0.3-1.5V388
			c-0.2,0.1-0.4,0.2-0.5,0.3s-0.4,0.1-0.7,0.2l-0.2,0l-1.3,0.3c-0.6,0.1-1,0.3-1.2,0.5s-0.4,0.6-0.4,1c0,0.4,0.1,0.8,0.4,1
			c0.3,0.2,0.7,0.4,1.2,0.4C904.4,391.7,904.9,391.6,905.3,391.3z"/>
	</g>
</g>
<g id="mesi_00000085236521911808642900000004693585228285083560_">
	<g transform="translate(-400,258)">
		<g>
			<g class="st7">
				<path class="st5" d="M439.4,436.2c-0.7-0.4-1.2-1-1.5-1.7s-0.5-1.6-0.5-2.5c0-1,0.2-1.8,0.5-2.6c0.3-0.7,0.9-1.3,1.6-1.7
					c0.7-0.4,1.6-0.6,2.6-0.6c0.9,0,1.7,0.1,2.3,0.4c0.6,0.3,1.1,0.7,1.5,1.2c0.4,0.5,0.6,1.2,0.7,2h-1.2c-0.1-0.6-0.2-1.1-0.5-1.5
					c-0.3-0.4-0.6-0.7-1.1-0.9c-0.5-0.2-1-0.3-1.7-0.3c-0.8,0-1.4,0.1-2,0.4c-0.5,0.3-0.9,0.7-1.2,1.3c-0.3,0.6-0.4,1.3-0.4,2.2
					c0,0.9,0.1,1.6,0.4,2.2c0.2,0.6,0.6,1,1.1,1.3c0.5,0.3,1.2,0.4,2,0.4c1,0,1.8-0.3,2.4-0.8c0.5-0.5,0.9-1.3,1-2.2h-4.2v-0.9h5.4
					v4.6h-1.1v-2.3c0,0.1,0,0.1-0.1,0.2c-0.2,0.4-0.4,0.8-0.7,1.2c-0.3,0.3-0.7,0.6-1.2,0.8c-0.5,0.2-1,0.3-1.7,0.3
					C440.9,436.8,440.1,436.6,439.4,436.2z"/>
				<path class="st5" d="M449.6,436.3c-0.5-0.3-0.9-0.8-1.2-1.3s-0.4-1.2-0.4-1.9c0-0.7,0.1-1.3,0.4-1.9c0.3-0.6,0.7-1,1.2-1.3
					s1.2-0.5,1.9-0.5c0.7,0,1.3,0.1,1.8,0.4s0.9,0.7,1.1,1.2c0.3,0.5,0.4,1.1,0.4,1.8v0.2c0,0.1,0,0.2,0,0.3h-5.9v-0.8h5.3l-0.5,0.5
					c0-0.6,0-1.2-0.2-1.6c-0.2-0.4-0.4-0.7-0.7-0.9c-0.3-0.2-0.8-0.3-1.2-0.3c-0.5,0-1,0.1-1.3,0.3s-0.6,0.5-0.8,0.9
					c-0.2,0.4-0.3,1-0.3,1.7s0.1,1.2,0.3,1.7c0.2,0.4,0.5,0.7,0.8,0.9s0.8,0.3,1.3,0.3c0.5,0,0.8-0.1,1.1-0.2s0.5-0.3,0.7-0.5
					c0.2-0.2,0.3-0.5,0.4-0.8h1c0,0.4-0.2,0.8-0.4,1.1s-0.6,0.7-1.1,0.9c-0.5,0.2-1.1,0.3-1.8,0.3
					C450.7,436.8,450.1,436.6,449.6,436.3z"/>
				<path class="st5" d="M456.3,429.5h1.1v7h-1.1V429.5z M457.4,431.5c0.2-0.7,0.5-1.2,1-1.6s1-0.6,1.7-0.6c0.6,0,1.1,0.1,1.4,0.3
					s0.6,0.5,0.8,0.9c0.2,0.4,0.3,0.9,0.3,1.5v4.5h-1.1v-4.3c0-0.5-0.1-0.9-0.2-1.2c-0.1-0.3-0.3-0.5-0.6-0.6
					c-0.2-0.1-0.6-0.2-0.9-0.2c-0.5,0-1,0.1-1.3,0.4c-0.4,0.3-0.6,0.7-0.8,1.2c-0.2,0.5-0.3,1.2-0.3,2H457
					C457,432.9,457.1,432.1,457.4,431.5z"/>
			</g>
		</g>
	</g>
	<g transform="translate(-400,258)">
		<g>
			<g class="st7">
				<path class="st5" d="M508.5,427.2h1.2v9.3h-1.2V427.2z M515.5,427.2v0.9h-6.1v-0.9H515.5z M515,431.4v0.9h-5.7v-0.9H515z"/>
				<path class="st5" d="M518.1,436.3c-0.5-0.3-0.9-0.8-1.2-1.3s-0.4-1.2-0.4-1.9c0-0.7,0.1-1.3,0.4-1.9c0.3-0.6,0.7-1,1.2-1.3
					s1.2-0.5,1.9-0.5c0.7,0,1.3,0.1,1.8,0.4s0.9,0.7,1.1,1.2c0.3,0.5,0.4,1.1,0.4,1.8v0.2c0,0.1,0,0.2,0,0.3h-5.9v-0.8h5.3l-0.5,0.5
					c0-0.6,0-1.2-0.2-1.6c-0.2-0.4-0.4-0.7-0.7-0.9c-0.3-0.2-0.8-0.3-1.2-0.3c-0.5,0-1,0.1-1.3,0.3s-0.6,0.5-0.8,0.9
					c-0.2,0.4-0.3,1-0.3,1.7s0.1,1.2,0.3,1.7c0.2,0.4,0.5,0.7,0.8,0.9s0.8,0.3,1.3,0.3c0.5,0,0.8-0.1,1.1-0.2s0.5-0.3,0.7-0.5
					c0.2-0.2,0.3-0.5,0.4-0.8h1c0,0.4-0.2,0.8-0.4,1.1s-0.6,0.7-1.1,0.9c-0.5,0.2-1.1,0.3-1.8,0.3
					C519.3,436.8,518.6,436.6,518.1,436.3z"/>
				<path class="st5" d="M525.9,426.7v9.8h-1.1v-9.8H525.9z M530.4,429.8c0.5,0.3,0.8,0.7,1.1,1.3c0.2,0.6,0.4,1.2,0.4,1.9
					c0,0.7-0.1,1.4-0.4,1.9c-0.2,0.6-0.6,1-1.1,1.3s-1.1,0.5-1.8,0.5c-1,0-1.8-0.3-2.3-1c-0.5-0.7-0.8-1.6-0.8-2.7s0.3-2.1,0.8-2.7
					c0.5-0.7,1.3-1,2.3-1C529.3,429.3,529.9,429.5,530.4,429.8z M527.1,430.5c-0.4,0.2-0.6,0.5-0.8,0.9c-0.2,0.4-0.3,1-0.3,1.6
					s0.1,1.2,0.3,1.6c0.2,0.4,0.5,0.7,0.8,0.9c0.4,0.2,0.8,0.3,1.3,0.3c0.5,0,1-0.1,1.3-0.3s0.6-0.5,0.8-0.9
					c0.2-0.4,0.2-0.9,0.2-1.6c0-0.6-0.1-1.2-0.2-1.6c-0.2-0.4-0.4-0.7-0.8-0.9s-0.8-0.3-1.3-0.3
					C527.9,430.2,527.4,430.3,527.1,430.5z"/>
			</g>
		</g>
	</g>
	<g transform="translate(-400,258)">
		<g>
			<g class="st7">
				<path class="st5" d="M587.2,436.5H586v-8.4l-3.2,8.4h-1.6l-3.2-8.4v8.4h-1.2v-9.3h2l3.1,8.2l3.1-8.2h2V436.5z"/>
				<path class="st5" d="M589.8,436.5c-0.3-0.2-0.6-0.4-0.8-0.7c-0.2-0.3-0.3-0.7-0.3-1.1c0-0.4,0.1-0.7,0.2-1
					c0.1-0.3,0.4-0.5,0.7-0.7c0.3-0.2,0.7-0.3,1.2-0.4l1.8-0.3c0.4-0.1,0.6-0.2,0.8-0.3c0.2-0.1,0.2-0.3,0.2-0.6
					c0-0.3-0.1-0.5-0.2-0.7c-0.1-0.2-0.3-0.3-0.5-0.4c-0.3-0.1-0.6-0.2-1-0.2c-0.7,0-1.1,0.1-1.4,0.4c-0.3,0.3-0.5,0.7-0.5,1.1h-1.1
					c0-0.5,0.1-0.9,0.4-1.3c0.2-0.4,0.6-0.6,1-0.8c0.5-0.2,1-0.3,1.6-0.3c0.6,0,1.1,0.1,1.6,0.3c0.4,0.2,0.7,0.4,0.9,0.7
					c0.2,0.3,0.3,0.7,0.3,1.1v3.4c0,0.3,0,0.5,0,0.8c0,0.3,0,0.6,0.1,0.9h-1c0-0.3-0.1-0.6-0.1-0.8s0-0.5,0-0.8
					c-0.1,0.3-0.3,0.6-0.5,0.9s-0.5,0.5-0.9,0.7s-0.8,0.3-1.3,0.3C590.6,436.7,590.2,436.6,589.8,436.5z M592.6,435.5
					c0.4-0.2,0.6-0.6,0.8-1c0.2-0.4,0.3-0.8,0.3-1.3v-0.6c-0.2,0.1-0.3,0.2-0.5,0.3c-0.2,0.1-0.4,0.1-0.6,0.2l-0.2,0l-1.2,0.2
					c-0.5,0.1-0.8,0.3-1.1,0.5c-0.2,0.2-0.3,0.5-0.3,0.9c0,0.4,0.1,0.7,0.4,0.9s0.6,0.3,1,0.3C591.8,435.8,592.2,435.7,592.6,435.5z
					"/>
				<path class="st5" d="M596.6,429.5h1.1v2.2l0,0.2v4.6h-1.1V429.5z M597.6,431.6c0.2-0.7,0.5-1.2,1-1.6c0.4-0.4,1-0.6,1.7-0.6h0.3
					v1.1h-0.3c-0.7,0-1.2,0.1-1.6,0.4c-0.4,0.3-0.6,0.7-0.8,1.2s-0.2,1.1-0.2,1.8h-0.4C597.3,433.1,597.4,432.3,597.6,431.6z"/>
			</g>
		</g>
	</g>
	<g transform="translate(-400,258)">
		<g>
			<g class="st7">
				<path class="st5" d="M652.5,436.5l-0.9-2.4h-4.6l-0.9,2.4h-1.2l3.6-9.3h1.7l3.6,9.3H652.5z M647.3,433.2h3.9l-2-5.2L647.3,433.2
					z"/>
				<path class="st5" d="M654.9,429.5h1.1v1.6v0.3v8h-1.1V429.5z M656.4,435.8c-0.5-0.7-0.8-1.6-0.8-2.7s0.3-2.1,0.8-2.7
					c0.5-0.7,1.3-1,2.3-1c0.7,0,1.3,0.2,1.8,0.5s0.8,0.8,1.1,1.3c0.2,0.6,0.4,1.2,0.4,1.9c0,0.7-0.1,1.4-0.4,1.9
					c-0.2,0.6-0.6,1-1.1,1.3s-1.1,0.5-1.8,0.5C657.7,436.8,656.9,436.4,656.4,435.8z M659.8,435.5c0.3-0.2,0.6-0.5,0.8-0.9
					c0.2-0.4,0.2-0.9,0.2-1.6c0-0.6-0.1-1.1-0.2-1.6c-0.2-0.4-0.4-0.7-0.8-0.9s-0.8-0.3-1.3-0.3c-0.5,0-0.9,0.1-1.3,0.3
					c-0.4,0.2-0.6,0.5-0.8,0.9c-0.2,0.4-0.3,0.9-0.3,1.6s0.1,1.2,0.3,1.6c0.2,0.4,0.5,0.7,0.8,0.9c0.4,0.2,0.8,0.3,1.3,0.3
					C659,435.9,659.4,435.7,659.8,435.5z"/>
				<path class="st5" d="M663.4,429.5h1.1v2.2l0,0.2v4.6h-1.1V429.5z M664.5,431.6c0.2-0.7,0.5-1.2,1-1.6c0.4-0.4,1-0.6,1.7-0.6h0.3
					v1.1h-0.3c-0.7,0-1.2,0.1-1.6,0.4c-0.4,0.3-0.6,0.7-0.8,1.2s-0.2,1.1-0.2,1.8h-0.4C664.2,433.1,664.3,432.3,664.5,431.6z"/>
			</g>
		</g>
	</g>
	<g transform="translate(-400,258)">
		<g>
			<g class="st7">
				<path class="st5" d="M722.5,436.5h-1.2v-8.4l-3.2,8.4h-1.6l-3.2-8.4v8.4h-1.2v-9.3h2l3.1,8.2l3.1-8.2h2V436.5z"/>
				<path class="st5" d="M725.1,436.5c-0.3-0.2-0.6-0.4-0.8-0.7c-0.2-0.3-0.3-0.7-0.3-1.1c0-0.4,0.1-0.7,0.2-1
					c0.1-0.3,0.4-0.5,0.7-0.7c0.3-0.2,0.7-0.3,1.2-0.4l1.8-0.3c0.4-0.1,0.6-0.2,0.8-0.3c0.2-0.1,0.2-0.3,0.2-0.6
					c0-0.3-0.1-0.5-0.2-0.7c-0.1-0.2-0.3-0.3-0.5-0.4c-0.3-0.1-0.6-0.2-1-0.2c-0.7,0-1.1,0.1-1.4,0.4c-0.3,0.3-0.5,0.7-0.5,1.1h-1.1
					c0-0.5,0.1-0.9,0.4-1.3c0.2-0.4,0.6-0.6,1-0.8c0.5-0.2,1-0.3,1.6-0.3c0.6,0,1.1,0.1,1.6,0.3c0.4,0.2,0.7,0.4,0.9,0.7
					c0.2,0.3,0.3,0.7,0.3,1.1v3.4c0,0.3,0,0.5,0,0.8c0,0.3,0,0.6,0.1,0.9h-1c0-0.3-0.1-0.6-0.1-0.8s0-0.5,0-0.8
					c-0.1,0.3-0.3,0.6-0.5,0.9s-0.5,0.5-0.9,0.7s-0.8,0.3-1.3,0.3C725.9,436.7,725.5,436.6,725.1,436.5z M727.9,435.5
					c0.4-0.2,0.6-0.6,0.8-1c0.2-0.4,0.3-0.8,0.3-1.3v-0.6c-0.2,0.1-0.3,0.2-0.5,0.3c-0.2,0.1-0.4,0.1-0.6,0.2l-0.2,0l-1.2,0.2
					c-0.5,0.1-0.8,0.3-1.1,0.5c-0.2,0.2-0.3,0.5-0.3,0.9c0,0.4,0.1,0.7,0.4,0.9s0.6,0.3,1,0.3C727.1,435.8,727.5,435.7,727.9,435.5z
					"/>
				<path class="st5" d="M732.8,436c-0.5-0.3-0.8-0.7-1.1-1.2s-0.4-1.2-0.4-1.9c0-1.1,0.3-2,0.8-2.6c0.5-0.6,1.4-0.9,2.4-0.9
					c1,0,1.8,0.3,2.3,0.9s0.8,1.5,0.8,2.6c0,0.8-0.1,1.4-0.3,2s-0.6,0.9-1,1.2c-0.5,0.3-1,0.4-1.7,0.4
					C733.9,436.4,733.3,436.2,732.8,436z M733.1,439.2c-0.5-0.2-0.9-0.5-1.1-0.9s-0.4-0.8-0.5-1.4h1.1c0,0.3,0.1,0.6,0.3,0.8
					c0.2,0.2,0.4,0.4,0.7,0.6c0.3,0.1,0.7,0.2,1.3,0.2c0.6,0,1-0.1,1.4-0.2c0.3-0.1,0.6-0.4,0.8-0.7c0.2-0.3,0.2-0.7,0.2-1.2v-7h1.1
					v7c0,0.6-0.1,1.2-0.3,1.6c-0.2,0.4-0.6,0.8-1.1,1c-0.5,0.2-1.2,0.3-2,0.3C734.2,439.5,733.6,439.4,733.1,439.2z M736.2,435.2
					c0.3-0.2,0.6-0.5,0.8-0.9c0.2-0.4,0.3-0.9,0.3-1.5c0-0.6-0.1-1.1-0.3-1.5c-0.2-0.4-0.5-0.7-0.8-0.9s-0.8-0.3-1.3-0.3
					c-0.5,0-1,0.1-1.3,0.3c-0.3,0.2-0.6,0.5-0.8,0.8c-0.2,0.4-0.3,0.9-0.3,1.5c0,0.6,0.1,1.1,0.3,1.5c0.2,0.4,0.4,0.7,0.8,0.9
					c0.3,0.2,0.8,0.3,1.3,0.3C735.4,435.5,735.8,435.4,736.2,435.2z"/>
			</g>
		</g>
	</g>
	<g transform="translate(-400,258)">
		<g>
			<g class="st7">
				<path class="st5" d="M784.3,436.2c-0.7-0.4-1.2-1-1.5-1.7s-0.5-1.6-0.5-2.5c0-1,0.2-1.8,0.5-2.6c0.3-0.7,0.9-1.3,1.6-1.7
					c0.7-0.4,1.6-0.6,2.6-0.6c0.9,0,1.7,0.1,2.3,0.4c0.6,0.3,1.1,0.7,1.5,1.2c0.4,0.5,0.6,1.2,0.7,2h-1.2c-0.1-0.6-0.2-1.1-0.5-1.5
					c-0.3-0.4-0.6-0.7-1.1-0.9c-0.5-0.2-1-0.3-1.7-0.3c-0.8,0-1.4,0.1-2,0.4c-0.5,0.3-0.9,0.7-1.2,1.3c-0.3,0.6-0.4,1.3-0.4,2.2
					c0,0.9,0.1,1.6,0.4,2.2c0.2,0.6,0.6,1,1.1,1.3c0.5,0.3,1.2,0.4,2,0.4c1,0,1.8-0.3,2.4-0.8c0.5-0.5,0.9-1.3,1-2.2h-4.2v-0.9h5.4
					v4.6h-1.1v-2.3c0,0.1,0,0.1-0.1,0.2c-0.2,0.4-0.4,0.8-0.7,1.2c-0.3,0.3-0.7,0.6-1.2,0.8c-0.5,0.2-1,0.3-1.7,0.3
					C785.8,436.8,785,436.6,784.3,436.2z"/>
				<path class="st5" d="M793.1,427.2h1.5v1.2h-1.5V427.2z M793.3,429.5h1.1v7h-1.1V429.5z"/>
				<path class="st5" d="M797.3,436.5c-0.4-0.2-0.7-0.5-0.8-0.9c-0.2-0.4-0.3-0.9-0.3-1.5v-4.5h1.1v4.3c0,0.5,0.1,0.9,0.2,1.2
					c0.1,0.3,0.3,0.5,0.6,0.6c0.3,0.1,0.6,0.2,1,0.2c0.5,0,0.9-0.1,1.3-0.4c0.3-0.3,0.6-0.7,0.8-1.2c0.2-0.5,0.3-1.2,0.3-2h0.4
					c0,0.9-0.1,1.7-0.3,2.4c-0.2,0.7-0.5,1.2-1,1.6c-0.4,0.4-1,0.6-1.7,0.6C798.2,436.8,797.7,436.7,797.3,436.5z M801.4,434.4v-0.2
					v-4.7h1.1v7h-1.1V434.4z"/>
			</g>
		</g>
	</g>
	<g transform="translate(-400,258)">
		<g>
			<g class="st7">
				<path class="st5" d="M849.9,427.2h1.2v9.3h-1.2V427.2z M850.8,435.6h5.2v0.9h-5.2V435.6z"/>
				<path class="st5" d="M858.2,436.5c-0.4-0.2-0.7-0.5-0.8-0.9s-0.3-0.9-0.3-1.5v-4.5h1.1v4.3c0,0.5,0.1,0.9,0.2,1.2
					c0.1,0.3,0.3,0.5,0.6,0.6c0.3,0.1,0.6,0.2,1,0.2c0.5,0,0.9-0.1,1.3-0.4s0.6-0.7,0.8-1.2s0.3-1.2,0.3-2h0.4
					c0,0.9-0.1,1.7-0.3,2.4c-0.2,0.7-0.5,1.2-1,1.6c-0.4,0.4-1,0.6-1.7,0.6C859.1,436.8,858.6,436.7,858.2,436.5z M862.3,434.4v-0.2
					v-4.7h1.1v7h-1.1V434.4z"/>
				<path class="st5" d="M866.4,436c-0.5-0.3-0.8-0.7-1.1-1.2c-0.2-0.5-0.4-1.2-0.4-1.9c0-1.1,0.3-2,0.8-2.6
					c0.5-0.6,1.4-0.9,2.4-0.9c1,0,1.8,0.3,2.3,0.9s0.8,1.5,0.8,2.6c0,0.8-0.1,1.4-0.3,2c-0.2,0.5-0.6,0.9-1,1.2s-1,0.4-1.7,0.4
					C867.5,436.4,866.9,436.2,866.4,436z M866.7,439.2c-0.5-0.2-0.9-0.5-1.1-0.9c-0.3-0.4-0.4-0.8-0.5-1.4h1.1
					c0,0.3,0.1,0.6,0.3,0.8c0.2,0.2,0.4,0.4,0.7,0.6c0.3,0.1,0.7,0.2,1.3,0.2c0.6,0,1-0.1,1.4-0.2c0.3-0.1,0.6-0.4,0.8-0.7
					c0.2-0.3,0.2-0.7,0.2-1.2v-7h1.1v7c0,0.6-0.1,1.2-0.3,1.6c-0.2,0.4-0.6,0.8-1.1,1c-0.5,0.2-1.2,0.3-2,0.3
					C867.8,439.5,867.2,439.4,866.7,439.2z M869.8,435.2c0.3-0.2,0.6-0.5,0.8-0.9c0.2-0.4,0.3-0.9,0.3-1.5c0-0.6-0.1-1.1-0.3-1.5
					c-0.2-0.4-0.5-0.7-0.8-0.9c-0.3-0.2-0.8-0.3-1.3-0.3c-0.5,0-1,0.1-1.3,0.3c-0.3,0.2-0.6,0.5-0.8,0.8c-0.2,0.4-0.3,0.9-0.3,1.5
					c0,0.6,0.1,1.1,0.3,1.5c0.2,0.4,0.4,0.7,0.8,0.9c0.3,0.2,0.8,0.3,1.3,0.3C869,435.5,869.5,435.4,869.8,435.2z"/>
			</g>
		</g>
	</g>
	<g transform="translate(-400,258)">
		<g>
			<g class="st7">
				<path class="st5" d="M923.6,436.5l-0.9-2.4H918l-0.9,2.4h-1.2l3.6-9.3h1.7l3.6,9.3H923.6z M918.3,433.2h3.9l-2-5.2L918.3,433.2z
					"/>
				<path class="st5" d="M926.9,436c-0.5-0.3-0.8-0.7-1.1-1.2c-0.2-0.5-0.4-1.2-0.4-1.9c0-1.1,0.3-2,0.8-2.6
					c0.5-0.6,1.4-0.9,2.4-0.9c1,0,1.8,0.3,2.3,0.9s0.8,1.5,0.8,2.6c0,0.8-0.1,1.4-0.3,2c-0.2,0.5-0.6,0.9-1,1.2s-1,0.4-1.7,0.4
					C928,436.4,927.4,436.2,926.9,436z M927.2,439.2c-0.5-0.2-0.9-0.5-1.1-0.9c-0.3-0.4-0.4-0.8-0.5-1.4h1.1c0,0.3,0.1,0.6,0.3,0.8
					c0.2,0.2,0.4,0.4,0.7,0.6c0.3,0.1,0.7,0.2,1.3,0.2c0.6,0,1-0.1,1.4-0.2c0.3-0.1,0.6-0.4,0.8-0.7c0.2-0.3,0.2-0.7,0.2-1.2v-7h1.1
					v7c0,0.6-0.1,1.2-0.3,1.6c-0.2,0.4-0.6,0.8-1.1,1c-0.5,0.2-1.2,0.3-2,0.3C928.3,439.5,927.7,439.4,927.2,439.2z M930.3,435.2
					c0.3-0.2,0.6-0.5,0.8-0.9c0.2-0.4,0.3-0.9,0.3-1.5c0-0.6-0.1-1.1-0.3-1.5c-0.2-0.4-0.5-0.7-0.8-0.9c-0.3-0.2-0.8-0.3-1.3-0.3
					c-0.5,0-1,0.1-1.3,0.3c-0.3,0.2-0.6,0.5-0.8,0.8c-0.2,0.4-0.3,0.9-0.3,1.5c0,0.6,0.1,1.1,0.3,1.5c0.2,0.4,0.4,0.7,0.8,0.9
					c0.3,0.2,0.8,0.3,1.3,0.3C929.5,435.5,929.9,435.4,930.3,435.2z"/>
				<path class="st5" d="M935.6,436.3c-0.5-0.3-0.9-0.8-1.2-1.3s-0.4-1.2-0.4-1.9c0-0.7,0.1-1.3,0.4-1.9s0.7-1,1.2-1.3
					s1.2-0.5,2-0.5c0.8,0,1.4,0.2,2,0.5s0.9,0.8,1.2,1.3s0.4,1.2,0.4,1.9c0,0.7-0.1,1.4-0.4,1.9c-0.3,0.6-0.7,1-1.2,1.3
					c-0.5,0.3-1.2,0.5-2,0.5C936.8,436.8,936.1,436.6,935.6,436.3z M935.4,434.6c0.2,0.4,0.4,0.7,0.8,0.9c0.4,0.2,0.8,0.3,1.4,0.3
					c0.5,0,1-0.1,1.3-0.3c0.4-0.2,0.6-0.5,0.8-0.9s0.3-1,0.3-1.6c0-0.7-0.1-1.2-0.3-1.6c-0.2-0.4-0.4-0.7-0.8-0.9
					c-0.4-0.2-0.8-0.3-1.3-0.3c-0.5,0-1,0.1-1.4,0.3c-0.4,0.2-0.6,0.5-0.8,0.9c-0.2,0.4-0.3,0.9-0.3,1.6
					C935.1,433.7,935.2,434.2,935.4,434.6z"/>
			</g>
		</g>
	</g>
	<g transform="translate(-400,258)">
		<g>
			<g class="st7">
				<path class="st5" d="M987.4,434.7c0.2,0.4,0.5,0.7,0.9,0.9s1,0.3,1.7,0.3c0.6,0,1.1-0.1,1.5-0.2c0.4-0.1,0.6-0.3,0.8-0.6
					s0.2-0.6,0.2-1c0-0.5-0.1-0.9-0.4-1.1c-0.3-0.3-0.7-0.4-1.3-0.5l-2.2-0.3c-0.8-0.1-1.4-0.4-1.8-0.8c-0.4-0.4-0.6-1-0.6-1.7
					c0-0.5,0.1-1,0.4-1.4s0.7-0.7,1.2-1s1.2-0.3,2-0.3c0.8,0,1.5,0.1,2,0.4c0.6,0.2,1,0.6,1.3,1.1s0.5,1,0.5,1.6h-1.1
					c0-0.4-0.2-0.8-0.4-1.1c-0.2-0.3-0.5-0.6-0.9-0.7c-0.4-0.2-0.9-0.3-1.4-0.3c-0.8,0-1.4,0.2-1.8,0.5c-0.4,0.3-0.6,0.7-0.6,1.3
					c0,0.4,0.1,0.7,0.3,1c0.2,0.3,0.6,0.4,1.1,0.5l2.3,0.3c0.9,0.1,1.5,0.4,1.9,0.8c0.4,0.4,0.6,1,0.6,1.7c0,0.6-0.1,1.1-0.4,1.5
					c-0.3,0.4-0.7,0.7-1.2,0.9c-0.6,0.2-1.3,0.3-2.1,0.3c-1,0-1.8-0.1-2.4-0.4c-0.6-0.3-1-0.7-1.3-1.2s-0.4-1.1-0.4-1.7h1.1
					C987.1,433.8,987.2,434.3,987.4,434.7z"/>
				<path class="st5" d="M996.5,436.3c-0.5-0.3-0.9-0.8-1.2-1.3c-0.3-0.6-0.4-1.2-0.4-1.9c0-0.7,0.1-1.3,0.4-1.9s0.7-1,1.2-1.3
					c0.5-0.3,1.2-0.5,1.9-0.5c0.7,0,1.3,0.1,1.8,0.4c0.5,0.3,0.9,0.7,1.1,1.2c0.3,0.5,0.4,1.1,0.4,1.8v0.2c0,0.1,0,0.2,0,0.3h-5.9
					v-0.8h5.3l-0.5,0.5c0-0.6,0-1.2-0.2-1.6s-0.4-0.7-0.7-0.9c-0.3-0.2-0.8-0.3-1.2-0.3c-0.5,0-1,0.1-1.3,0.3
					c-0.4,0.2-0.6,0.5-0.8,0.9s-0.3,1-0.3,1.7s0.1,1.2,0.3,1.7c0.2,0.4,0.5,0.7,0.8,0.9c0.4,0.2,0.8,0.3,1.3,0.3
					c0.5,0,0.8-0.1,1.1-0.2c0.3-0.1,0.5-0.3,0.7-0.5c0.2-0.2,0.3-0.5,0.4-0.8h1c0,0.4-0.2,0.8-0.4,1.1s-0.6,0.7-1.1,0.9
					c-0.5,0.2-1.1,0.3-1.8,0.3C997.6,436.8,997,436.6,996.5,436.3z"/>
				<path class="st5" d="M1004.2,436.4c-0.2-0.1-0.4-0.3-0.5-0.5c-0.1-0.2-0.1-0.5-0.1-0.9v-4.5h-1.4v-0.6l1.5-0.3l0.4-1.5h0.6v1.6
					h2.3v0.9h-2.3v5.2h2.2v0.9h-1.7C1004.8,436.5,1004.5,436.5,1004.2,436.4z"/>
			</g>
		</g>
	</g>
	<g transform="translate(-400,258)">
		<g>
			<g class="st7">
				<path class="st5" d="M1056.5,436.2c-0.7-0.4-1.2-1-1.6-1.7c-0.3-0.7-0.5-1.6-0.5-2.5c0-1,0.2-1.8,0.5-2.5
					c0.3-0.7,0.9-1.3,1.6-1.7s1.6-0.6,2.6-0.6c1.1,0,1.9,0.2,2.6,0.6s1.2,1,1.5,1.7c0.3,0.7,0.5,1.6,0.5,2.5c0,1-0.2,1.8-0.5,2.5
					c-0.3,0.7-0.9,1.3-1.5,1.7s-1.6,0.6-2.6,0.6C1058.1,436.8,1057.2,436.6,1056.5,436.2z M1056,434.1c0.2,0.6,0.6,1,1.1,1.3
					s1.2,0.4,2,0.4c0.8,0,1.4-0.1,2-0.4s0.9-0.7,1.1-1.3s0.4-1.3,0.4-2.2c0-0.9-0.1-1.6-0.4-2.2c-0.2-0.6-0.6-1-1.1-1.3
					s-1.2-0.4-2-0.4c-0.8,0-1.5,0.1-2,0.4s-0.9,0.7-1.1,1.3c-0.2,0.6-0.4,1.3-0.4,2.2C1055.7,432.8,1055.8,433.5,1056,434.1z"/>
				<path class="st5" d="M1066.5,436.4c-0.2-0.1-0.4-0.3-0.5-0.5c-0.1-0.2-0.1-0.5-0.1-0.9v-4.5h-1.4v-0.6l1.5-0.3l0.4-1.5h0.6v1.6
					h3.9v0.9h-3.9v5.2h2.2v0.9h-1.7C1067.1,436.5,1066.7,436.5,1066.5,436.4z M1071.1,436.4c-0.2-0.1-0.4-0.3-0.5-0.5
					c-0.1-0.2-0.1-0.5-0.1-0.9v-4.5h-1.4v-0.6l1.4-0.2l0.5-1.7h0.6v1.6h2.3v0.9h-2.3v5.2h2.2v0.9h-1.7
					C1071.7,436.5,1071.3,436.5,1071.1,436.4z"/>
			</g>
		</g>
	</g>
	<g transform="translate(-400,258)">
		<g>
			<g class="st7">
				<path class="st5" d="M1128.3,427.2h1.2v9.3h-2l-4.3-7.3c-0.3-0.5-0.5-0.9-0.6-1.2v8.5h-1.2v-9.3h2l4.3,7.3
					c0.2,0.3,0.3,0.7,0.6,1.2V427.2z"/>
				<path class="st5" d="M1132.5,436.3c-0.5-0.3-0.9-0.8-1.2-1.3s-0.4-1.2-0.4-1.9c0-0.7,0.1-1.3,0.4-1.9s0.7-1,1.2-1.3
					s1.2-0.5,2-0.5c0.8,0,1.4,0.2,2,0.5s0.9,0.8,1.2,1.3s0.4,1.2,0.4,1.9c0,0.7-0.1,1.4-0.4,1.9c-0.3,0.6-0.7,1-1.2,1.3
					c-0.5,0.3-1.2,0.5-2,0.5C1133.7,436.8,1133.1,436.6,1132.5,436.3z M1132.3,434.6c0.2,0.4,0.4,0.7,0.8,0.9
					c0.4,0.2,0.8,0.3,1.4,0.3c0.5,0,1-0.1,1.3-0.3c0.4-0.2,0.6-0.5,0.8-0.9s0.3-1,0.3-1.6c0-0.7-0.1-1.2-0.3-1.6
					c-0.2-0.4-0.4-0.7-0.8-0.9c-0.4-0.2-0.8-0.3-1.3-0.3c-0.5,0-1,0.1-1.4,0.3c-0.4,0.2-0.6,0.5-0.8,0.9c-0.2,0.4-0.3,0.9-0.3,1.6
					C1132.1,433.7,1132.2,434.2,1132.3,434.6z"/>
				<path class="st5" d="M1139.9,429.5l2.6,6.6h-0.5l2.6-6.6h1.1l-2.8,7h-1.5l-2.8-7H1139.9z"/>
			</g>
		</g>
	</g>
	<g transform="translate(-400,258)">
		<g>
			<g class="st7">
				<path class="st5" d="M1192.4,427.2h1.2v9.3h-1.2V427.2z M1193.1,435.6h3c0.8,0,1.5-0.1,2-0.4c0.5-0.3,0.9-0.7,1.1-1.3
					s0.3-1.2,0.3-2.1s-0.1-1.5-0.3-2s-0.6-1-1.1-1.2c-0.5-0.3-1.2-0.4-2-0.4h-3v-0.9h3.2c1,0,1.8,0.2,2.5,0.6c0.7,0.4,1.1,1,1.4,1.7
					c0.3,0.7,0.5,1.5,0.5,2.4c0,0.9-0.2,1.7-0.5,2.4c-0.3,0.7-0.8,1.3-1.4,1.7c-0.7,0.4-1.5,0.6-2.5,0.6h-3.2V435.6z"/>
				<path class="st5" d="M1202,427.2h1.5v1.2h-1.5V427.2z M1202.2,429.5h1.1v7h-1.1V429.5z"/>
				<path class="st5" d="M1205.2,431.1c0.3-0.6,0.7-1,1.2-1.3c0.5-0.3,1.2-0.5,1.9-0.5c0.7,0,1.3,0.1,1.8,0.3s0.8,0.6,1.1,1
					c0.3,0.4,0.4,0.9,0.4,1.5h-1.1c-0.1-0.4-0.2-0.7-0.4-1c-0.2-0.3-0.4-0.5-0.7-0.6c-0.3-0.1-0.7-0.2-1.1-0.2c-0.5,0-1,0.1-1.3,0.3
					c-0.4,0.2-0.6,0.5-0.8,0.9c-0.2,0.4-0.3,1-0.3,1.6c0,0.7,0.1,1.2,0.3,1.6s0.5,0.7,0.8,0.9c0.4,0.2,0.8,0.3,1.3,0.3
					c0.7,0,1.2-0.2,1.6-0.5c0.4-0.3,0.6-0.8,0.7-1.5h1.1c0,0.6-0.2,1-0.4,1.5c-0.3,0.4-0.7,0.8-1.2,1s-1.1,0.4-1.8,0.4
					c-0.8,0-1.4-0.2-1.9-0.5c-0.5-0.3-0.9-0.8-1.2-1.3c-0.3-0.6-0.4-1.2-0.4-1.9S1204.9,431.7,1205.2,431.1z"/>
			</g>
		</g>
	</g>
</g>
<g>
	<g>
		<g>
			<path class="st5" d="M196,13.3h1.4l3,8.2c0.1,0.2,0.2,0.4,0.2,0.6c0.1,0.2,0.1,0.4,0.2,0.6c0.1,0.2,0.1,0.4,0.2,0.6
				c0,0.2,0.1,0.4,0.1,0.6h-1.2L196,13.3z M200.8,23.1c0.1-0.3,0.1-0.5,0.2-0.8c0.1-0.3,0.2-0.5,0.3-0.8l3-8.2h1.4l-3.9,10.6h-1.2
				C200.7,23.6,200.8,23.4,200.8,23.1z"/>
			<path class="st5" d="M208,23.9c-0.4-0.2-0.7-0.4-0.9-0.8s-0.3-0.8-0.3-1.3c0-0.4,0.1-0.8,0.3-1.1s0.4-0.6,0.8-0.8
				c0.4-0.2,0.8-0.4,1.4-0.5l2.1-0.3c0.4-0.1,0.7-0.2,0.9-0.3s0.3-0.4,0.3-0.7c0-0.3-0.1-0.6-0.2-0.8c-0.1-0.2-0.3-0.4-0.6-0.5
				c-0.3-0.1-0.7-0.2-1.2-0.2c-0.8,0-1.3,0.2-1.7,0.5c-0.4,0.3-0.5,0.7-0.6,1.3h-1.3c0-0.6,0.2-1.1,0.4-1.5s0.7-0.7,1.2-1
				c0.5-0.2,1.1-0.3,1.9-0.3c0.7,0,1.3,0.1,1.8,0.3c0.5,0.2,0.8,0.5,1.1,0.9c0.2,0.4,0.3,0.8,0.3,1.3V22c0,0.3,0,0.6,0,0.9
				s0,0.7,0.1,1h-1.2c0-0.3-0.1-0.7-0.1-1s0-0.6,0-0.9c-0.1,0.4-0.3,0.7-0.5,1c-0.2,0.3-0.6,0.6-1,0.8c-0.4,0.2-0.9,0.3-1.5,0.3
				C208.8,24.2,208.4,24.1,208,23.9z M211.1,22.7c0.4-0.3,0.7-0.6,0.9-1.1c0.2-0.5,0.3-0.9,0.3-1.5v-0.7c-0.2,0.1-0.4,0.2-0.5,0.3
				s-0.4,0.1-0.7,0.2l-0.2,0l-1.3,0.3c-0.6,0.1-1,0.3-1.2,0.5s-0.4,0.6-0.4,1c0,0.4,0.1,0.8,0.4,1c0.3,0.2,0.7,0.4,1.2,0.4
				C210.2,23.1,210.7,23,211.1,22.7z"/>
			<path class="st5" d="M215.7,12.7h1.3v11.2h-1.3V12.7z"/>
			<path class="st5" d="M219.3,12.7h1.3v11.2h-1.3V12.7z"/>
			<path class="st5" d="M224.1,23.7c-0.6-0.4-1.1-0.9-1.4-1.5c-0.3-0.6-0.5-1.4-0.5-2.2c0-0.8,0.2-1.5,0.5-2.2
				c0.3-0.6,0.8-1.1,1.4-1.5s1.4-0.6,2.2-0.6c0.9,0,1.6,0.2,2.2,0.6s1.1,0.9,1.4,1.5c0.3,0.6,0.5,1.4,0.5,2.2c0,0.8-0.2,1.6-0.5,2.2
				c-0.3,0.6-0.8,1.1-1.4,1.5c-0.6,0.4-1.4,0.6-2.2,0.6C225.5,24.2,224.7,24,224.1,23.7z M223.9,21.8c0.2,0.5,0.5,0.8,0.9,1.1
				s0.9,0.3,1.5,0.3c0.6,0,1.1-0.1,1.5-0.3s0.7-0.6,0.9-1.1c0.2-0.5,0.3-1.1,0.3-1.8c0-0.7-0.1-1.4-0.3-1.8s-0.5-0.8-0.9-1
				s-0.9-0.3-1.5-0.3c-0.6,0-1.1,0.1-1.5,0.3s-0.7,0.6-0.9,1c-0.2,0.5-0.3,1.1-0.3,1.8C223.6,20.7,223.7,21.3,223.9,21.8z"/>
			<path class="st5" d="M232.1,15.9h1.3v8h-1.3V15.9z M233.4,18.1c0.2-0.8,0.6-1.4,1.1-1.8c0.5-0.4,1.2-0.6,2-0.6
				c0.7,0,1.2,0.1,1.6,0.4c0.4,0.2,0.7,0.6,0.9,1.1c0.2,0.5,0.3,1,0.3,1.7v5.1h-1.3v-5c0-0.6-0.1-1-0.2-1.3
				c-0.2-0.3-0.4-0.6-0.7-0.7c-0.3-0.1-0.6-0.2-1.1-0.2c-0.6,0-1.1,0.2-1.5,0.5c-0.4,0.3-0.7,0.8-0.9,1.4c-0.2,0.6-0.3,1.4-0.3,2.3
				H233C233,19.8,233.1,18.9,233.4,18.1z"/>
			<path class="st5" d="M242.3,23.9c-0.4-0.2-0.7-0.4-0.9-0.8s-0.3-0.8-0.3-1.3c0-0.4,0.1-0.8,0.3-1.1s0.4-0.6,0.8-0.8
				c0.4-0.2,0.8-0.4,1.4-0.5l2.1-0.3c0.4-0.1,0.7-0.2,0.9-0.3s0.3-0.4,0.3-0.7c0-0.3-0.1-0.6-0.2-0.8c-0.1-0.2-0.3-0.4-0.6-0.5
				c-0.3-0.1-0.7-0.2-1.2-0.2c-0.8,0-1.3,0.2-1.7,0.5c-0.4,0.3-0.5,0.7-0.6,1.3h-1.3c0-0.6,0.2-1.1,0.4-1.5s0.7-0.7,1.2-1
				c0.5-0.2,1.1-0.3,1.9-0.3c0.7,0,1.3,0.1,1.8,0.3c0.5,0.2,0.8,0.5,1.1,0.9c0.2,0.4,0.3,0.8,0.3,1.3V22c0,0.3,0,0.6,0,0.9
				s0,0.7,0.1,1h-1.2c0-0.3-0.1-0.7-0.1-1s0-0.6,0-0.9c-0.1,0.4-0.3,0.7-0.5,1c-0.2,0.3-0.6,0.6-1,0.8c-0.4,0.2-0.9,0.3-1.5,0.3
				C243.2,24.2,242.7,24.1,242.3,23.9z M245.5,22.7c0.4-0.3,0.7-0.6,0.9-1.1c0.2-0.5,0.3-0.9,0.3-1.5v-0.7c-0.2,0.1-0.4,0.2-0.5,0.3
				s-0.4,0.1-0.7,0.2l-0.2,0l-1.3,0.3c-0.6,0.1-1,0.3-1.2,0.5s-0.4,0.6-0.4,1c0,0.4,0.1,0.8,0.4,1c0.3,0.2,0.7,0.4,1.2,0.4
				C244.6,23.1,245.1,23,245.5,22.7z"/>
		</g>
	</g>
</g>
</svg>
