<?xml version="1.0" encoding="utf-8"?>
<!-- Generator: Adobe Illustrator 26.3.1, SVG Export Plug-In . SVG Version: 6.00 Build 0)  -->
<svg version="1.1" id="Livello_1" xmlns="http://www.w3.org/2000/svg" xmlns:xlink="http://www.w3.org/1999/xlink" x="0px" y="0px"
	 viewBox="0 0 1000 700" style="enable-background:new 0 0 1000 700;" xml:space="preserve">
<style type="text/css">
	.st0{clip-path:url(#SVGID_00000119816829602149197450000000118870030146118799_);}
	.st1{fill:none;stroke:#000000;}
	.st2{fill:none;stroke:#1F77B4;}
	.st3{fill:none;stroke:#CCCCCC;}
	.st4{fill:#0047CC;}
	.st5{fill:#F0F0F0;}
	.st6{fill:#CCDAF5;}
	.st7{enable-background:new    ;}
	.st8{fill:none;stroke:#F0F0F0;stroke-width:0.75;stroke-miterlimit:10;}
	.st9{fill:none;stroke:#CCDAF5;stroke-miterlimit:10;}
	.st10{fill:none;stroke:#CCDAF5;stroke-miterlimit:10;stroke-dasharray:12.0062,10.0051;}
	.st11{fill:none;stroke:#F0F0F0;stroke-width:0.5;stroke-miterlimit:10;}
	.st12{fill-rule:evenodd;clip-rule:evenodd;fill:#FFFFFF;}
	.st13{fill:none;stroke:#85A7E6;stroke-width:2;stroke-miterlimit:10;}
	.st14{clip-path:url(#SVGID_00000119084624713161866000000017784440447427794314_);}
	.st15{clip-path:url(#SVGID_00000115488859453290108520000005262848303190347937_);}
	.st16{clip-path:url(#SVGID_00000121279475567750872650000014032074935933935271_);}
	.st17{clip-path:url(#SVGID_00000085219205837827219540000011250632062316246162_);}
	.st18{clip-path:url(#SVGID_00000093867225636913027440000005000472240869856169_);}
	.st19{clip-path:url(#SVGID_00000018209341059904778370000000480828609615135366_);}
</style>
<rect y="0" class="st4" width="1000" height="700"/>
<g>
	<g>
		<g>
			<path class="st5" d="M21.4,21.8c0.2,0.4,0.6,0.8,1.1,1c0.5,0.2,1.1,0.4,2,0.4c0.7,0,1.3-0.1,1.7-0.2c0.4-0.2,0.7-0.4,0.9-0.7
				c0.2-0.3,0.3-0.7,0.3-1.1c0-0.6-0.2-1-0.5-1.3c-0.3-0.3-0.8-0.5-1.5-0.6l-2.5-0.4c-0.9-0.1-1.6-0.4-2.1-0.9
				c-0.4-0.5-0.7-1.1-0.7-1.9c0-0.6,0.1-1.1,0.4-1.6c0.3-0.5,0.8-0.8,1.4-1.1s1.4-0.4,2.3-0.4c0.9,0,1.7,0.1,2.3,0.4
				c0.6,0.3,1.1,0.7,1.5,1.2c0.3,0.5,0.5,1.1,0.6,1.8h-1.3c-0.1-0.5-0.2-0.9-0.4-1.3c-0.2-0.4-0.6-0.6-1-0.8c-0.4-0.2-1-0.3-1.6-0.3
				c-0.9,0-1.6,0.2-2.1,0.5s-0.7,0.8-0.7,1.5c0,0.4,0.1,0.8,0.4,1.1c0.2,0.3,0.7,0.5,1.2,0.6l2.7,0.4c1,0.1,1.7,0.5,2.2,0.9
				c0.5,0.5,0.7,1.1,0.7,1.9c0,0.7-0.1,1.3-0.4,1.8c-0.3,0.5-0.8,0.8-1.4,1.1s-1.4,0.4-2.4,0.4c-1.1,0-2-0.2-2.7-0.5
				c-0.7-0.3-1.2-0.8-1.5-1.4c-0.3-0.6-0.5-1.2-0.5-2h1.3C21.1,20.9,21.2,21.4,21.4,21.8z"/>
			<path class="st5" d="M31.3,23.9c-0.4-0.2-0.7-0.4-0.9-0.8S30,22.3,30,21.8c0-0.4,0.1-0.8,0.3-1.1s0.4-0.6,0.8-0.8
				c0.4-0.2,0.8-0.4,1.4-0.5l2.1-0.3c0.4-0.1,0.7-0.2,0.9-0.3s0.3-0.4,0.3-0.7c0-0.3-0.1-0.6-0.2-0.8c-0.1-0.2-0.3-0.4-0.6-0.5
				c-0.3-0.1-0.7-0.2-1.2-0.2c-0.8,0-1.3,0.2-1.7,0.5c-0.4,0.3-0.5,0.7-0.6,1.3h-1.3c0-0.6,0.2-1.1,0.4-1.5s0.7-0.7,1.2-1
				c0.5-0.2,1.1-0.3,1.9-0.3c0.7,0,1.3,0.1,1.8,0.3c0.5,0.2,0.8,0.5,1.1,0.9c0.2,0.4,0.3,0.8,0.3,1.3V22c0,0.3,0,0.6,0,0.9
				s0,0.7,0.1,1h-1.2c0-0.3-0.1-0.7-0.1-1s0-0.6,0-0.9c-0.1,0.4-0.3,0.7-0.5,1c-0.2,0.3-0.6,0.6-1,0.8c-0.4,0.2-0.9,0.3-1.5,0.3
				C32.2,24.2,31.7,24.1,31.3,23.9z M34.5,22.7c0.4-0.3,0.7-0.6,0.9-1.1c0.2-0.5,0.3-0.9,0.3-1.5v-0.7c-0.2,0.1-0.4,0.2-0.5,0.3
				s-0.4,0.1-0.7,0.2l-0.2,0l-1.3,0.3c-0.6,0.1-1,0.3-1.2,0.5s-0.4,0.6-0.4,1c0,0.4,0.1,0.8,0.4,1c0.3,0.2,0.7,0.4,1.2,0.4
				C33.5,23.1,34.1,23,34.5,22.7z"/>
			<path class="st5" d="M39,12.7h1.3v11.2H39V12.7z"/>
			<path class="st5" d="M42.3,13.3H44v1.3h-1.7V13.3z M42.5,15.9h1.3v8h-1.3V15.9z"/>
			<path class="st5" d="M46,15.9h1.3v8H46V15.9z M47.2,18.1c0.2-0.8,0.6-1.4,1.1-1.8c0.5-0.4,1.2-0.6,2-0.6c0.7,0,1.2,0.1,1.6,0.4
				c0.4,0.2,0.7,0.6,0.9,1.1c0.2,0.5,0.3,1,0.3,1.7v5.1H52v-5c0-0.6-0.1-1-0.2-1.3c-0.2-0.3-0.4-0.6-0.7-0.7
				c-0.3-0.1-0.6-0.2-1.1-0.2c-0.6,0-1.1,0.2-1.5,0.5c-0.4,0.3-0.7,0.8-0.9,1.4c-0.2,0.6-0.3,1.4-0.3,2.3h-0.4
				C46.9,19.8,47,18.9,47.2,18.1z"/>
			<path class="st5" d="M55.1,13.3h1.7v1.3h-1.7V13.3z M55.3,15.9h1.3v8h-1.3V15.9z"/>
			<path class="st5" d="M60,23.7c-0.3-0.1-0.5-0.3-0.6-0.6c-0.1-0.3-0.2-0.6-0.2-1.1V17h-1.6v-0.7l1.7-0.4l0.5-1.7h0.7v1.8h2.7v1
				h-2.7v6h2.6v1h-1.9C60.7,23.9,60.3,23.9,60,23.7z"/>
			<path class="st5" d="M65.7,23.9c-0.4-0.2-0.7-0.4-0.9-0.8s-0.3-0.8-0.3-1.3c0-0.4,0.1-0.8,0.3-1.1s0.4-0.6,0.8-0.8
				c0.4-0.2,0.8-0.4,1.4-0.5l2.1-0.3c0.4-0.1,0.7-0.2,0.9-0.3s0.3-0.4,0.3-0.7c0-0.3-0.1-0.6-0.2-0.8c-0.1-0.2-0.3-0.4-0.6-0.5
				c-0.3-0.1-0.7-0.2-1.2-0.2c-0.8,0-1.3,0.2-1.7,0.5c-0.4,0.3-0.5,0.7-0.6,1.3h-1.3c0-0.6,0.2-1.1,0.4-1.5s0.7-0.7,1.2-1
				c0.5-0.2,1.1-0.3,1.9-0.3c0.7,0,1.3,0.1,1.8,0.3c0.5,0.2,0.8,0.5,1.1,0.9c0.2,0.4,0.3,0.8,0.3,1.3V22c0,0.3,0,0.6,0,0.9
				s0,0.7,0.1,1h-1.2c0-0.3-0.1-0.7-0.1-1s0-0.6,0-0.9c-0.1,0.4-0.3,0.7-0.5,1c-0.2,0.3-0.6,0.6-1,0.8c-0.4,0.2-0.9,0.3-1.5,0.3
				C66.5,24.2,66.1,24.1,65.7,23.9z M68.8,22.7c0.4-0.3,0.7-0.6,0.9-1.1c0.2-0.5,0.3-0.9,0.3-1.5v-0.7c-0.2,0.1-0.4,0.2-0.5,0.3
				s-0.4,0.1-0.7,0.2l-0.2,0l-1.3,0.3c-0.6,0.1-1,0.3-1.2,0.5s-0.4,0.6-0.4,1c0,0.4,0.1,0.8,0.4,1c0.3,0.2,0.7,0.4,1.2,0.4
				C67.9,23.1,68.4,23,68.8,22.7z M66.5,13l3.4,1.5L69.7,15l-3.6-1L66.5,13z"/>
			<path class="st5" d="M82.8,16.8c0.6,0.8,0.9,1.8,0.9,3.1c0,0.9-0.1,1.6-0.4,2.3c-0.3,0.6-0.7,1.1-1.2,1.5
				c-0.5,0.3-1.2,0.5-1.9,0.5c-0.8,0-1.5-0.2-2.1-0.5s-1-0.9-1.2-1.5c-0.3-0.6-0.4-1.4-0.4-2.2c0-0.8,0.1-1.6,0.4-2.2
				c0.3-0.6,0.7-1.1,1.2-1.5s1.2-0.5,2.1-0.5C81.3,15.7,82.2,16.1,82.8,16.8z M78.9,17.1c-0.4,0.2-0.7,0.6-0.9,1.1s-0.3,1.1-0.3,1.8
				c0,0.7,0.1,1.3,0.3,1.8s0.5,0.8,0.9,1.1c0.4,0.2,0.9,0.4,1.5,0.4c0.6,0,1.1-0.1,1.5-0.3s0.7-0.6,1-1.1s0.3-1.1,0.3-1.8
				s-0.1-1.3-0.3-1.8c-0.2-0.5-0.5-0.8-1-1.1s-0.9-0.3-1.5-0.3C79.8,16.7,79.3,16.8,78.9,17.1z M84.5,23.9h-1.3V22v-0.2v-9.1h1.3
				V23.9z"/>
			<path class="st5" d="M88,23.7c-0.6-0.4-1-0.9-1.3-1.5c-0.3-0.6-0.4-1.4-0.4-2.2c0-0.8,0.2-1.5,0.5-2.2c0.3-0.6,0.8-1.1,1.3-1.5
				s1.3-0.6,2.2-0.6c0.8,0,1.5,0.2,2.1,0.5c0.6,0.3,1,0.8,1.3,1.4c0.3,0.6,0.4,1.3,0.4,2.1v0.2c0,0.1,0,0.2,0,0.3h-6.8v-1h6.1
				l-0.6,0.6c0-0.7,0-1.3-0.2-1.8s-0.5-0.8-0.9-1s-0.9-0.3-1.4-0.3c-0.6,0-1.1,0.1-1.5,0.3S88,17.6,87.8,18
				c-0.2,0.5-0.3,1.1-0.3,1.9s0.1,1.4,0.3,1.9c0.2,0.5,0.5,0.8,1,1.1c0.4,0.2,0.9,0.3,1.5,0.3c0.5,0,1-0.1,1.3-0.2
				c0.3-0.1,0.6-0.3,0.8-0.6s0.3-0.6,0.4-0.9H94c-0.1,0.5-0.2,0.9-0.5,1.3c-0.3,0.4-0.7,0.8-1.2,1c-0.5,0.3-1.2,0.4-2.1,0.4
				C89.3,24.2,88.6,24,88,23.7z"/>
			<path class="st5" d="M95.6,12.7h1.3v11.2h-1.3V12.7z"/>
			<path class="st5" d="M99.2,12.7h1.3v11.2h-1.3V12.7z"/>
			<path class="st5" d="M102.3,13.3h1.7v2.3c0,0.4-0.1,0.7-0.3,0.9s-0.5,0.3-1,0.3h-0.4V16h0.8v-1.4h-0.8V13.3z"/>
			<path class="st5" d="M106.4,23.9c-0.4-0.2-0.7-0.4-0.9-0.8s-0.3-0.8-0.3-1.3c0-0.4,0.1-0.8,0.3-1.1s0.4-0.6,0.8-0.8
				c0.4-0.2,0.8-0.4,1.4-0.5l2.1-0.3c0.4-0.1,0.7-0.2,0.9-0.3s0.3-0.4,0.3-0.7c0-0.3-0.1-0.6-0.2-0.8c-0.1-0.2-0.3-0.4-0.6-0.5
				c-0.3-0.1-0.7-0.2-1.2-0.2c-0.8,0-1.3,0.2-1.7,0.5c-0.4,0.3-0.5,0.7-0.6,1.3h-1.3c0-0.6,0.2-1.1,0.4-1.5s0.7-0.7,1.2-1
				c0.5-0.2,1.1-0.3,1.9-0.3c0.7,0,1.3,0.1,1.8,0.3c0.5,0.2,0.8,0.5,1.1,0.9c0.2,0.4,0.3,0.8,0.3,1.3V22c0,0.3,0,0.6,0,0.9
				s0,0.7,0.1,1h-1.2c0-0.3-0.1-0.7-0.1-1s0-0.6,0-0.9c-0.1,0.4-0.3,0.7-0.5,1c-0.2,0.3-0.6,0.6-1,0.8c-0.4,0.2-0.9,0.3-1.5,0.3
				C107.3,24.2,106.8,24.1,106.4,23.9z M109.6,22.7c0.4-0.3,0.7-0.6,0.9-1.1c0.2-0.5,0.3-0.9,0.3-1.5v-0.7c-0.2,0.1-0.4,0.2-0.5,0.3
				s-0.4,0.1-0.7,0.2l-0.2,0l-1.3,0.3c-0.6,0.1-1,0.3-1.2,0.5s-0.4,0.6-0.4,1c0,0.4,0.1,0.8,0.4,1c0.3,0.2,0.7,0.4,1.2,0.4
				C108.6,23.1,109.2,23,109.6,22.7z"/>
			<path class="st5" d="M114,17.7c0.3-0.6,0.8-1.1,1.4-1.5s1.3-0.5,2.2-0.5c0.8,0,1.5,0.1,2,0.4c0.5,0.3,1,0.6,1.3,1.1
				c0.3,0.5,0.5,1,0.5,1.7h-1.2c-0.1-0.4-0.2-0.8-0.4-1.2c-0.2-0.3-0.5-0.6-0.8-0.7c-0.4-0.2-0.8-0.3-1.3-0.3
				c-0.6,0-1.1,0.1-1.5,0.3c-0.4,0.2-0.7,0.6-0.9,1s-0.3,1.1-0.3,1.8c0,0.8,0.1,1.4,0.3,1.8c0.2,0.5,0.5,0.8,0.9,1
				c0.4,0.2,0.9,0.3,1.5,0.3c0.8,0,1.4-0.2,1.9-0.6c0.4-0.4,0.7-1,0.8-1.7h1.2c0,0.6-0.2,1.2-0.5,1.7c-0.3,0.5-0.7,0.9-1.3,1.2
				c-0.6,0.3-1.2,0.4-2,0.4c-0.9,0-1.6-0.2-2.2-0.5s-1.1-0.9-1.4-1.5c-0.3-0.6-0.5-1.4-0.5-2.2S113.7,18.4,114,17.7z"/>
			<path class="st5" d="M124.1,23.7c-0.5-0.4-1-0.9-1.2-1.5c-0.3-0.6-0.4-1.4-0.4-2.2c0-0.8,0.1-1.6,0.4-2.2
				c0.3-0.6,0.7-1.1,1.2-1.5s1.2-0.5,2.1-0.5c1.2,0,2,0.4,2.6,1.1s0.9,1.8,0.9,3.1c0,1.3-0.3,2.4-0.9,3.1s-1.5,1.1-2.6,1.1
				C125.3,24.2,124.6,24,124.1,23.7z M127.9,22.8c0.4-0.2,0.7-0.6,1-1.1c0.2-0.5,0.3-1.1,0.3-1.8s-0.1-1.3-0.3-1.8
				c-0.2-0.5-0.5-0.8-1-1.1s-0.9-0.3-1.5-0.3c-0.6,0-1.1,0.1-1.5,0.4c-0.4,0.2-0.7,0.6-0.9,1.1s-0.3,1.1-0.3,1.8
				c0,0.7,0.1,1.3,0.3,1.8s0.5,0.8,0.9,1.1s0.9,0.4,1.5,0.4C127,23.2,127.5,23,127.9,22.8z M129.2,27.1V15.9h1.3v11.2H129.2z"/>
			<path class="st5" d="M133.9,23.9c-0.4-0.2-0.8-0.6-1-1c-0.2-0.5-0.3-1-0.3-1.8v-5.1h1.3v5c0,0.6,0.1,1,0.2,1.4
				c0.2,0.3,0.4,0.6,0.7,0.7c0.3,0.1,0.7,0.2,1.1,0.2c0.6,0,1-0.2,1.4-0.5c0.4-0.3,0.7-0.8,0.9-1.4s0.3-1.4,0.3-2.2h0.4
				c0,1.1-0.1,2-0.3,2.8s-0.6,1.4-1.1,1.8c-0.5,0.4-1.2,0.6-2,0.6C134.9,24.2,134.3,24.1,133.9,23.9z M138.6,21.5v-0.2v-5.3h1.3v8
				h-1.3V21.5z"/>
			<path class="st5" d="M142.9,23.9c-0.4-0.2-0.7-0.4-0.9-0.8s-0.3-0.8-0.3-1.3c0-0.4,0.1-0.8,0.3-1.1s0.4-0.6,0.8-0.8
				c0.4-0.2,0.8-0.4,1.4-0.5l2.1-0.3c0.4-0.1,0.7-0.2,0.9-0.3s0.3-0.4,0.3-0.7c0-0.3-0.1-0.6-0.2-0.8c-0.1-0.2-0.3-0.4-0.6-0.5
				c-0.3-0.1-0.7-0.2-1.2-0.2c-0.8,0-1.3,0.2-1.7,0.5c-0.4,0.3-0.5,0.7-0.6,1.3h-1.3c0-0.6,0.2-1.1,0.4-1.5s0.7-0.7,1.2-1
				c0.5-0.2,1.1-0.3,1.9-0.3c0.7,0,1.3,0.1,1.8,0.3c0.5,0.2,0.8,0.5,1.1,0.9c0.2,0.4,0.3,0.8,0.3,1.3V22c0,0.3,0,0.6,0,0.9
				s0,0.7,0.1,1h-1.2c0-0.3-0.1-0.7-0.1-1s0-0.6,0-0.9c-0.1,0.4-0.3,0.7-0.5,1c-0.2,0.3-0.6,0.6-1,0.8c-0.4,0.2-0.9,0.3-1.5,0.3
				C143.8,24.2,143.3,24.1,142.9,23.9z M146.1,22.7c0.4-0.3,0.7-0.6,0.9-1.1c0.2-0.5,0.3-0.9,0.3-1.5v-0.7c-0.2,0.1-0.4,0.2-0.5,0.3
				s-0.4,0.1-0.7,0.2l-0.2,0l-1.3,0.3c-0.6,0.1-1,0.3-1.2,0.5s-0.4,0.6-0.4,1c0,0.4,0.1,0.8,0.4,1c0.3,0.2,0.7,0.4,1.2,0.4
				C145.2,23.1,145.7,23,146.1,22.7z"/>
			<path class="st5" d="M21.3,42.5c-0.6-0.3-1-0.8-1.2-1.4c-0.3-0.6-0.4-1.3-0.4-2.2c0-1.3,0.3-2.2,0.9-3c0.6-0.7,1.6-1.1,2.8-1.1
				c1.2,0,2,0.3,2.6,1c0.6,0.7,0.9,1.7,0.9,3c0,0.9-0.1,1.6-0.4,2.2s-0.6,1-1.2,1.3c-0.5,0.3-1.2,0.4-2,0.4
				C22.6,43,21.9,42.8,21.3,42.5z M21.7,46.2c-0.6-0.2-1-0.5-1.3-1c-0.3-0.4-0.5-0.9-0.5-1.6h1.3c0,0.4,0.1,0.7,0.3,1
				c0.2,0.3,0.5,0.5,0.8,0.7c0.4,0.2,0.8,0.2,1.4,0.2c0.6,0,1.2-0.1,1.6-0.2s0.7-0.4,0.9-0.8s0.3-0.8,0.3-1.4v-8h1.3v8
				c0,0.7-0.1,1.3-0.4,1.8c-0.3,0.5-0.7,0.9-1.3,1.1c-0.6,0.3-1.4,0.4-2.3,0.4C22.9,46.5,22.2,46.4,21.7,46.2z M25.2,41.7
				c0.4-0.2,0.7-0.5,0.9-1s0.3-1,0.3-1.7c0-0.7-0.1-1.3-0.3-1.7s-0.5-0.8-0.9-1s-0.9-0.3-1.5-0.3c-0.6,0-1.1,0.1-1.5,0.3
				s-0.7,0.5-0.9,1s-0.3,1-0.3,1.7s0.1,1.3,0.3,1.7s0.5,0.8,0.9,1c0.4,0.2,0.9,0.3,1.5,0.3C24.3,42,24.8,41.9,25.2,41.7z"/>
			<path class="st5" d="M32.7,32.5h1.1l-3.7,10.6H29L32.7,32.5z"/>
			<path class="st5" d="M35.1,32.5h1.3v10.6h-1.3V32.5z M36.1,42.1h6v1.1h-6V42.1z"/>
		</g>
	</g>
</g>
<g>
	<g>
		<g>
			<path class="st5" d="M196.8,13.3h1.3v10.6h-1.3V13.3z M197.9,22.9h4c0.5,0,0.9-0.1,1.2-0.2c0.3-0.2,0.5-0.4,0.6-0.7
				s0.2-0.6,0.2-1c0-0.7-0.2-1.1-0.5-1.5c-0.4-0.3-0.9-0.5-1.7-0.5h-3.8v-1h3.7c0.5,0,0.9-0.1,1.2-0.2s0.5-0.3,0.7-0.6
				c0.2-0.3,0.2-0.6,0.2-1c0-0.4-0.1-0.8-0.2-1c-0.1-0.3-0.3-0.4-0.6-0.6c-0.3-0.1-0.7-0.2-1.2-0.2h-3.9v-1.1h4.2
				c0.7,0,1.3,0.1,1.8,0.3c0.5,0.2,0.8,0.5,1,0.9c0.2,0.4,0.3,0.8,0.3,1.4c0,0.7-0.2,1.3-0.6,1.7c-0.4,0.4-0.9,0.7-1.5,0.8
				c0.6,0.1,1.2,0.3,1.6,0.8s0.6,1.1,0.6,1.8c0,0.9-0.3,1.6-0.8,2.1s-1.4,0.8-2.5,0.8h-4.2V22.9z"/>
			<path class="st5" d="M208,23.9c-0.4-0.2-0.7-0.4-0.9-0.8s-0.3-0.8-0.3-1.3c0-0.4,0.1-0.8,0.3-1.1s0.4-0.6,0.8-0.8
				c0.4-0.2,0.8-0.4,1.4-0.5l2.1-0.3c0.4-0.1,0.7-0.2,0.9-0.3s0.3-0.4,0.3-0.7c0-0.3-0.1-0.6-0.2-0.8c-0.1-0.2-0.3-0.4-0.6-0.5
				c-0.3-0.1-0.7-0.2-1.2-0.2c-0.8,0-1.3,0.2-1.7,0.5c-0.4,0.3-0.5,0.7-0.6,1.3h-1.3c0-0.6,0.2-1.1,0.4-1.5s0.7-0.7,1.2-1
				c0.5-0.2,1.1-0.3,1.9-0.3c0.7,0,1.3,0.1,1.8,0.3c0.5,0.2,0.8,0.5,1.1,0.9c0.2,0.4,0.3,0.8,0.3,1.3V22c0,0.3,0,0.6,0,0.9
				s0,0.7,0.1,1h-1.2c0-0.3-0.1-0.7-0.1-1s0-0.6,0-0.9c-0.1,0.4-0.3,0.7-0.5,1c-0.2,0.3-0.6,0.6-1,0.8c-0.4,0.2-0.9,0.3-1.5,0.3
				C208.8,24.2,208.4,24.1,208,23.9z M211.2,22.7c0.4-0.3,0.7-0.6,0.9-1.1c0.2-0.5,0.3-0.9,0.3-1.5v-0.7c-0.2,0.1-0.4,0.2-0.5,0.3
				s-0.4,0.1-0.7,0.2l-0.2,0l-1.3,0.3c-0.6,0.1-1,0.3-1.2,0.5s-0.4,0.6-0.4,1c0,0.4,0.1,0.8,0.4,1c0.3,0.2,0.7,0.4,1.2,0.4
				C210.2,23.1,210.7,23,211.2,22.7z"/>
			<path class="st5" d="M215.7,15.9h1.3v2.5l0,0.3v5.2h-1.3V15.9z M216.9,18.3c0.2-0.8,0.6-1.4,1.1-1.8c0.5-0.5,1.2-0.7,2-0.7h0.3
				v1.3h-0.4c-0.8,0-1.4,0.1-1.8,0.5s-0.7,0.8-0.9,1.3c-0.2,0.6-0.2,1.3-0.2,2.1h-0.5C216.5,20,216.6,19.1,216.9,18.3z"/>
			<path class="st5" d="M223,12.7v11.2h-1.3V12.7H223z M228.1,16.2c0.5,0.4,1,0.9,1.2,1.5c0.3,0.6,0.4,1.4,0.4,2.2
				c0,0.8-0.1,1.6-0.4,2.2s-0.7,1.1-1.2,1.5c-0.5,0.4-1.2,0.5-2.1,0.5c-1.2,0-2-0.4-2.6-1.1s-0.9-1.8-0.9-3.1c0-1.3,0.3-2.4,0.9-3.1
				s1.5-1.1,2.6-1.1C226.9,15.7,227.6,15.9,228.1,16.2z M224.3,17.1c-0.4,0.2-0.7,0.6-1,1.1c-0.2,0.5-0.3,1.1-0.3,1.8
				s0.1,1.3,0.3,1.8s0.5,0.8,1,1.1s0.9,0.3,1.5,0.3c0.6,0,1.1-0.1,1.5-0.4c0.4-0.2,0.7-0.6,0.9-1.1s0.3-1.1,0.3-1.8
				c0-0.7-0.1-1.3-0.3-1.8s-0.5-0.8-0.9-1.1c-0.4-0.2-0.9-0.4-1.5-0.4C225.2,16.7,224.7,16.8,224.3,17.1z"/>
			<path class="st5" d="M232.3,23.9c-0.4-0.2-0.7-0.4-0.9-0.8s-0.3-0.8-0.3-1.3c0-0.4,0.1-0.8,0.3-1.1s0.4-0.6,0.8-0.8
				c0.4-0.2,0.8-0.4,1.4-0.5l2.1-0.3c0.4-0.1,0.7-0.2,0.9-0.3s0.3-0.4,0.3-0.7c0-0.3-0.1-0.6-0.2-0.8c-0.1-0.2-0.3-0.4-0.6-0.5
				c-0.3-0.1-0.7-0.2-1.2-0.2c-0.8,0-1.3,0.2-1.7,0.5c-0.4,0.3-0.5,0.7-0.6,1.3h-1.3c0-0.6,0.2-1.1,0.4-1.5s0.7-0.7,1.2-1
				c0.5-0.2,1.1-0.3,1.9-0.3c0.7,0,1.3,0.1,1.8,0.3c0.5,0.2,0.8,0.5,1.1,0.9c0.2,0.4,0.3,0.8,0.3,1.3V22c0,0.3,0,0.6,0,0.9
				s0,0.7,0.1,1h-1.2c0-0.3-0.1-0.7-0.1-1s0-0.6,0-0.9c-0.1,0.4-0.3,0.7-0.5,1c-0.2,0.3-0.6,0.6-1,0.8c-0.4,0.2-0.9,0.3-1.5,0.3
				C233.1,24.2,232.7,24.1,232.3,23.9z M235.5,22.7c0.4-0.3,0.7-0.6,0.9-1.1c0.2-0.5,0.3-0.9,0.3-1.5v-0.7c-0.2,0.1-0.4,0.2-0.5,0.3
				s-0.4,0.1-0.7,0.2l-0.2,0l-1.3,0.3c-0.6,0.1-1,0.3-1.2,0.5s-0.4,0.6-0.4,1c0,0.4,0.1,0.8,0.4,1c0.3,0.2,0.7,0.4,1.2,0.4
				C234.5,23.1,235,23,235.5,22.7z"/>
			<path class="st5" d="M240,15.9h1.3v8H240V15.9z M245.4,17.7c-0.1-0.3-0.3-0.6-0.6-0.7c-0.3-0.1-0.6-0.2-1-0.2
				c-0.6,0-1,0.2-1.4,0.5c-0.4,0.3-0.7,0.8-0.8,1.4c-0.2,0.6-0.3,1.4-0.3,2.3h-0.4v-0.3c0-1,0.1-1.9,0.4-2.6s0.6-1.3,1.1-1.7
				c0.5-0.4,1.1-0.6,1.9-0.6c0.6,0,1.1,0.1,1.5,0.4c0.4,0.2,0.7,0.6,0.9,1s0.3,1,0.3,1.7v5.2h-1.3v-5
				C245.7,18.4,245.6,18,245.4,17.7z M251.1,17.7c-0.1-0.3-0.3-0.6-0.6-0.7c-0.3-0.1-0.6-0.2-1-0.2c-0.6,0-1.1,0.2-1.4,0.5
				c-0.4,0.3-0.7,0.8-0.8,1.4c-0.2,0.6-0.3,1.4-0.3,2.3h-0.5c0-1.1,0.1-2,0.3-2.8c0.2-0.8,0.6-1.4,1.1-1.8c0.5-0.4,1.2-0.6,2-0.6
				c0.6,0,1.1,0.1,1.5,0.4c0.4,0.2,0.7,0.6,0.9,1c0.2,0.5,0.3,1,0.3,1.7v5.2h-1.3v-5C251.3,18.4,251.2,18,251.1,17.7z"/>
			<path class="st5" d="M255.5,23.9c-0.4-0.2-0.7-0.4-0.9-0.8s-0.3-0.8-0.3-1.3c0-0.4,0.1-0.8,0.3-1.1s0.4-0.6,0.8-0.8
				c0.4-0.2,0.8-0.4,1.4-0.5l2.1-0.3c0.4-0.1,0.7-0.2,0.9-0.3s0.3-0.4,0.3-0.7c0-0.3-0.1-0.6-0.2-0.8c-0.1-0.2-0.3-0.4-0.6-0.5
				c-0.3-0.1-0.7-0.2-1.2-0.2c-0.8,0-1.3,0.2-1.7,0.5c-0.4,0.3-0.5,0.7-0.6,1.3h-1.3c0-0.6,0.2-1.1,0.4-1.5s0.7-0.7,1.2-1
				c0.5-0.2,1.1-0.3,1.9-0.3c0.7,0,1.3,0.1,1.8,0.3c0.5,0.2,0.8,0.5,1.1,0.9c0.2,0.4,0.3,0.8,0.3,1.3V22c0,0.3,0,0.6,0,0.9
				s0,0.7,0.1,1h-1.2c0-0.3-0.1-0.7-0.1-1s0-0.6,0-0.9c-0.1,0.4-0.3,0.7-0.5,1c-0.2,0.3-0.6,0.6-1,0.8c-0.4,0.2-0.9,0.3-1.5,0.3
				C256.4,24.2,255.9,24.1,255.5,23.9z M258.7,22.7c0.4-0.3,0.7-0.6,0.9-1.1c0.2-0.5,0.3-0.9,0.3-1.5v-0.7c-0.2,0.1-0.4,0.2-0.5,0.3
				s-0.4,0.1-0.7,0.2l-0.2,0l-1.3,0.3c-0.6,0.1-1,0.3-1.2,0.5s-0.4,0.6-0.4,1c0,0.4,0.1,0.8,0.4,1c0.3,0.2,0.7,0.4,1.2,0.4
				C257.8,23.1,258.3,23,258.7,22.7z"/>
			<path class="st5" d="M263.2,15.9h1.3v2.5l0,0.3v5.2h-1.3V15.9z M264.4,18.3c0.2-0.8,0.6-1.4,1.1-1.8c0.5-0.5,1.2-0.7,2-0.7h0.3
				v1.3h-0.4c-0.8,0-1.4,0.1-1.8,0.5s-0.7,0.8-0.9,1.3c-0.2,0.6-0.2,1.3-0.2,2.1h-0.5C264.1,20,264.2,19.1,264.4,18.3z"/>
			<path class="st5" d="M269.1,17.7c0.3-0.6,0.8-1.1,1.4-1.5s1.3-0.5,2.2-0.5c0.8,0,1.5,0.1,2,0.4c0.5,0.3,1,0.6,1.3,1.1
				c0.3,0.5,0.5,1,0.5,1.7h-1.2c-0.1-0.4-0.2-0.8-0.4-1.2c-0.2-0.3-0.5-0.6-0.8-0.7c-0.4-0.2-0.8-0.3-1.3-0.3
				c-0.6,0-1.1,0.1-1.5,0.3c-0.4,0.2-0.7,0.6-0.9,1s-0.3,1.1-0.3,1.8c0,0.8,0.1,1.4,0.3,1.8c0.2,0.5,0.5,0.8,0.9,1
				c0.4,0.2,0.9,0.3,1.5,0.3c0.8,0,1.4-0.2,1.9-0.6c0.4-0.4,0.7-1,0.8-1.7h1.2c0,0.6-0.2,1.2-0.5,1.7c-0.3,0.5-0.7,0.9-1.3,1.2
				c-0.6,0.3-1.2,0.4-2,0.4c-0.9,0-1.6-0.2-2.2-0.5s-1.1-0.9-1.4-1.5c-0.3-0.6-0.5-1.4-0.5-2.2S268.8,18.4,269.1,17.7z"/>
			<path class="st5" d="M279.4,23.7c-0.6-0.4-1.1-0.9-1.4-1.5c-0.3-0.6-0.5-1.4-0.5-2.2c0-0.8,0.2-1.5,0.5-2.2
				c0.3-0.6,0.8-1.1,1.4-1.5s1.4-0.6,2.2-0.6c0.9,0,1.6,0.2,2.2,0.6s1.1,0.9,1.4,1.5c0.3,0.6,0.5,1.4,0.5,2.2c0,0.8-0.2,1.6-0.5,2.2
				c-0.3,0.6-0.8,1.1-1.4,1.5c-0.6,0.4-1.4,0.6-2.2,0.6C280.7,24.2,280,24,279.4,23.7z M279.2,21.8c0.2,0.5,0.5,0.8,0.9,1.1
				s0.9,0.3,1.5,0.3c0.6,0,1.1-0.1,1.5-0.3s0.7-0.6,0.9-1.1c0.2-0.5,0.3-1.1,0.3-1.8c0-0.7-0.1-1.4-0.3-1.8s-0.5-0.8-0.9-1
				s-0.9-0.3-1.5-0.3c-0.6,0-1.1,0.1-1.5,0.3s-0.7,0.6-0.9,1c-0.2,0.5-0.3,1.1-0.3,1.8C278.9,20.7,279,21.3,279.2,21.8z"/>
		</g>
	</g>
</g>
<g>
	<g>
		<path class="st6" d="M63,93.8c0.2,0.4,0.5,0.7,0.9,0.9c0.4,0.2,1,0.3,1.7,0.3c0.6,0,1.1-0.1,1.5-0.2c0.4-0.1,0.6-0.3,0.8-0.6
			c0.2-0.3,0.2-0.6,0.2-1c0-0.5-0.1-0.9-0.4-1.1c-0.3-0.3-0.7-0.4-1.3-0.5l-2.2-0.3c-0.8-0.1-1.4-0.4-1.8-0.8s-0.6-1-0.6-1.7
			c0-0.5,0.1-1,0.4-1.4s0.7-0.7,1.2-1s1.2-0.3,2-0.3c0.8,0,1.5,0.1,2,0.4c0.6,0.2,1,0.6,1.3,1.1c0.3,0.5,0.5,1,0.5,1.6h-1.1
			c0-0.4-0.2-0.8-0.4-1.1c-0.2-0.3-0.5-0.6-0.9-0.7c-0.4-0.2-0.9-0.3-1.4-0.3c-0.8,0-1.4,0.2-1.8,0.5S63,88.3,63,88.8
			c0,0.4,0.1,0.7,0.3,1c0.2,0.3,0.6,0.4,1.1,0.5l2.3,0.3c0.9,0.1,1.5,0.4,1.9,0.8s0.6,1,0.6,1.7c0,0.6-0.1,1.1-0.4,1.5
			c-0.3,0.4-0.7,0.7-1.2,0.9c-0.6,0.2-1.3,0.3-2.1,0.3c-1,0-1.8-0.1-2.4-0.4c-0.6-0.3-1-0.7-1.3-1.2c-0.3-0.5-0.4-1.1-0.4-1.7h1.1
			C62.7,93,62.8,93.5,63,93.8z"/>
		<path class="st6" d="M71.6,95.7c-0.3-0.2-0.6-0.4-0.8-0.7c-0.2-0.3-0.3-0.7-0.3-1.1c0-0.4,0.1-0.7,0.2-1c0.1-0.3,0.4-0.5,0.7-0.7
			c0.3-0.2,0.7-0.3,1.2-0.4l1.8-0.3c0.4-0.1,0.6-0.2,0.8-0.3c0.2-0.1,0.2-0.3,0.2-0.6c0-0.3-0.1-0.5-0.2-0.7
			c-0.1-0.2-0.3-0.3-0.5-0.4c-0.3-0.1-0.6-0.2-1-0.2c-0.7,0-1.1,0.1-1.4,0.4c-0.3,0.3-0.5,0.7-0.5,1.1h-1.1c0-0.5,0.1-0.9,0.4-1.3
			c0.2-0.4,0.6-0.6,1-0.8c0.5-0.2,1-0.3,1.6-0.3c0.6,0,1.1,0.1,1.6,0.3c0.4,0.2,0.7,0.4,0.9,0.7c0.2,0.3,0.3,0.7,0.3,1.1V94
			c0,0.3,0,0.5,0,0.8c0,0.3,0,0.6,0.1,0.9h-1c0-0.3-0.1-0.6-0.1-0.8s0-0.5,0-0.8c-0.1,0.3-0.3,0.6-0.5,0.9s-0.5,0.5-0.9,0.7
			s-0.8,0.3-1.3,0.3C72.4,95.9,72,95.8,71.6,95.7z M74.4,94.7c0.4-0.2,0.6-0.6,0.8-1c0.2-0.4,0.3-0.8,0.3-1.3v-0.6
			c-0.2,0.1-0.3,0.2-0.5,0.3c-0.2,0.1-0.4,0.1-0.6,0.2l-0.2,0l-1.2,0.2c-0.5,0.1-0.8,0.3-1.1,0.5c-0.2,0.2-0.3,0.5-0.3,0.9
			c0,0.4,0.1,0.7,0.4,0.9s0.6,0.3,1,0.3C73.6,95,74.1,94.9,74.4,94.7z"/>
		<path class="st6" d="M78.4,85.9h1.1v9.8h-1.1V85.9z"/>
		<path class="st6" d="M81.3,86.4h1.5v1.2h-1.5V86.4z M81.4,88.7h1.1v7h-1.1V88.7z"/>
		<path class="st6" d="M84.5,88.7h1.1v7h-1.1V88.7z M85.6,90.7c0.2-0.7,0.5-1.2,1-1.6s1-0.6,1.7-0.6c0.6,0,1.1,0.1,1.4,0.3
			s0.6,0.5,0.8,0.9c0.2,0.4,0.3,0.9,0.3,1.5v4.5h-1.1v-4.3c0-0.5-0.1-0.9-0.2-1.2c-0.1-0.3-0.3-0.5-0.6-0.6
			c-0.2-0.1-0.6-0.2-0.9-0.2c-0.5,0-1,0.1-1.3,0.4c-0.4,0.3-0.6,0.7-0.8,1.2c-0.2,0.5-0.3,1.2-0.3,2h-0.4
			C85.3,92.1,85.4,91.3,85.6,90.7z"/>
		<path class="st6" d="M92.5,86.4h1.5v1.2h-1.5V86.4z M92.7,88.7h1.1v7h-1.1V88.7z"/>
		<path class="st6" d="M96.8,95.6c-0.2-0.1-0.4-0.3-0.5-0.5c-0.1-0.2-0.1-0.5-0.1-0.9v-4.5h-1.4V89l1.5-0.3l0.4-1.5h0.6v1.6h2.3v0.9
			h-2.3v5.2h2.2v0.9h-1.7C97.4,95.7,97,95.7,96.8,95.6z"/>
		<path class="st6" d="M101.7,95.7c-0.3-0.2-0.6-0.4-0.8-0.7c-0.2-0.3-0.3-0.7-0.3-1.1c0-0.4,0.1-0.7,0.2-1c0.1-0.3,0.4-0.5,0.7-0.7
			c0.3-0.2,0.7-0.3,1.2-0.4l1.8-0.3c0.4-0.1,0.6-0.2,0.8-0.3c0.2-0.1,0.2-0.3,0.2-0.6c0-0.3-0.1-0.5-0.2-0.7
			c-0.1-0.2-0.3-0.3-0.5-0.4c-0.3-0.1-0.6-0.2-1-0.2c-0.7,0-1.1,0.1-1.4,0.4c-0.3,0.3-0.5,0.7-0.5,1.1h-1.1c0-0.5,0.1-0.9,0.4-1.3
			c0.2-0.4,0.6-0.6,1-0.8c0.5-0.2,1-0.3,1.6-0.3c0.6,0,1.1,0.1,1.6,0.3c0.4,0.2,0.7,0.4,0.9,0.7c0.2,0.3,0.3,0.7,0.3,1.1V94
			c0,0.3,0,0.5,0,0.8c0,0.3,0,0.6,0.1,0.9h-1c0-0.3-0.1-0.6-0.1-0.8s0-0.5,0-0.8c-0.1,0.3-0.3,0.6-0.5,0.9s-0.5,0.5-0.9,0.7
			s-0.8,0.3-1.3,0.3C102.5,95.9,102,95.8,101.7,95.7z M104.5,94.7c0.4-0.2,0.6-0.6,0.8-1c0.2-0.4,0.3-0.8,0.3-1.3v-0.6
			c-0.2,0.1-0.3,0.2-0.5,0.3c-0.2,0.1-0.4,0.1-0.6,0.2l-0.2,0l-1.2,0.2c-0.5,0.1-0.8,0.3-1.1,0.5c-0.2,0.2-0.3,0.5-0.3,0.9
			c0,0.4,0.1,0.7,0.4,0.9s0.6,0.3,1,0.3C103.7,95,104.1,94.9,104.5,94.7z M102.4,86.1l3,1.3l-0.2,0.4l-3.1-0.9L102.4,86.1z"/>
		<path class="st6" d="M121.8,95.7h-1.2v-8.4l-3.2,8.4h-1.6l-3.2-8.4v8.4h-1.2v-9.3h2l3.1,8.2l3.1-8.2h2V95.7z"/>
		<path class="st6" d="M124.5,95.7c-0.3-0.2-0.6-0.4-0.8-0.7c-0.2-0.3-0.3-0.7-0.3-1.1c0-0.4,0.1-0.7,0.2-1c0.1-0.3,0.4-0.5,0.7-0.7
			c0.3-0.2,0.7-0.3,1.2-0.4l1.8-0.3c0.4-0.1,0.6-0.2,0.8-0.3c0.2-0.1,0.2-0.3,0.2-0.6c0-0.3-0.1-0.5-0.2-0.7
			c-0.1-0.2-0.3-0.3-0.5-0.4c-0.3-0.1-0.6-0.2-1-0.2c-0.7,0-1.1,0.1-1.4,0.4c-0.3,0.3-0.5,0.7-0.5,1.1h-1.1c0-0.5,0.1-0.9,0.4-1.3
			c0.2-0.4,0.6-0.6,1-0.8c0.5-0.2,1-0.3,1.6-0.3c0.6,0,1.1,0.1,1.6,0.3c0.4,0.2,0.7,0.4,0.9,0.7c0.2,0.3,0.3,0.7,0.3,1.1V94
			c0,0.3,0,0.5,0,0.8c0,0.3,0,0.6,0.1,0.9h-1c0-0.3-0.1-0.6-0.1-0.8s0-0.5,0-0.8c-0.1,0.3-0.3,0.6-0.5,0.9s-0.5,0.5-0.9,0.7
			s-0.8,0.3-1.3,0.3C125.2,95.9,124.8,95.8,124.5,95.7z M127.3,94.7c0.4-0.2,0.6-0.6,0.8-1c0.2-0.4,0.3-0.8,0.3-1.3v-0.6
			c-0.2,0.1-0.3,0.2-0.5,0.3c-0.2,0.1-0.4,0.1-0.6,0.2l-0.2,0l-1.2,0.2c-0.5,0.1-0.8,0.3-1.1,0.5c-0.2,0.2-0.3,0.5-0.3,0.9
			c0,0.4,0.1,0.7,0.4,0.9s0.6,0.3,1,0.3C126.4,95,126.9,94.9,127.3,94.7z"/>
		<path class="st6" d="M131.2,88.7h1.1v2.2l0,0.2v4.6h-1.1V88.7z M132.3,90.8c0.2-0.7,0.5-1.2,1-1.6c0.4-0.4,1-0.6,1.7-0.6h0.3v1.1
			h-0.3c-0.7,0-1.2,0.1-1.6,0.4c-0.4,0.3-0.6,0.7-0.8,1.2s-0.2,1.1-0.2,1.8H132C132,92.3,132.1,91.5,132.3,90.8z"/>
		<path class="st6" d="M137.5,95.5c-0.5-0.3-0.9-0.8-1.2-1.3s-0.4-1.2-0.4-1.9c0-0.7,0.1-1.3,0.4-1.9c0.3-0.6,0.7-1,1.2-1.3
			s1.2-0.5,1.9-0.5c0.7,0,1.3,0.1,1.8,0.4s0.9,0.7,1.1,1.2c0.3,0.5,0.4,1.1,0.4,1.8v0.2c0,0.1,0,0.2,0,0.3h-5.9v-0.8h5.3l-0.5,0.5
			c0-0.6,0-1.2-0.2-1.6c-0.2-0.4-0.4-0.7-0.7-0.9c-0.3-0.2-0.8-0.3-1.2-0.3c-0.5,0-1,0.1-1.3,0.3s-0.6,0.5-0.8,0.9
			c-0.2,0.4-0.3,1-0.3,1.7s0.1,1.2,0.3,1.7c0.2,0.4,0.5,0.7,0.8,0.9s0.8,0.3,1.3,0.3c0.5,0,0.8-0.1,1.1-0.2s0.5-0.3,0.7-0.5
			c0.2-0.2,0.3-0.5,0.4-0.8h1c0,0.4-0.2,0.8-0.4,1.1s-0.6,0.7-1.1,0.9c-0.5,0.2-1.1,0.3-1.8,0.3C138.7,96,138,95.8,137.5,95.5z"/>
		<path class="st6" d="M154.2,95.7l-0.9-2.4h-4.6l-0.9,2.4h-1.2l3.6-9.3h1.7l3.6,9.3H154.2z M149,92.4h3.9l-2-5.2L149,92.4z"/>
		<path class="st6" d="M161.7,89.5c0.5,0.7,0.8,1.6,0.8,2.7c0,0.8-0.1,1.4-0.3,2c-0.2,0.6-0.6,1-1,1.3c-0.5,0.3-1,0.5-1.7,0.5
			c-0.7,0-1.3-0.2-1.8-0.5c-0.5-0.3-0.8-0.8-1.1-1.3c-0.2-0.6-0.4-1.2-0.4-1.9c0-0.7,0.1-1.4,0.4-1.9c0.2-0.6,0.6-1,1.1-1.3
			c0.5-0.3,1.1-0.5,1.8-0.5C160.4,88.5,161.2,88.8,161.7,89.5z M158.3,89.7c-0.3,0.2-0.6,0.5-0.8,0.9c-0.2,0.4-0.2,0.9-0.2,1.6
			c0,0.6,0.1,1.1,0.2,1.6c0.2,0.4,0.4,0.7,0.8,0.9c0.3,0.2,0.8,0.3,1.3,0.3c0.5,0,0.9-0.1,1.3-0.3c0.4-0.2,0.6-0.5,0.8-0.9
			c0.2-0.4,0.3-0.9,0.3-1.6s-0.1-1.2-0.3-1.6s-0.5-0.7-0.8-0.9c-0.4-0.2-0.8-0.3-1.3-0.3C159.1,89.4,158.6,89.5,158.3,89.7z
			 M163.2,95.7h-1.1v-1.7v-0.2v-8h1.1V95.7z"/>
		<path class="st6" d="M165.2,88.7h1.1v2.2l0,0.2v4.6h-1.1V88.7z M166.3,90.8c0.2-0.7,0.5-1.2,1-1.6c0.4-0.4,1-0.6,1.7-0.6h0.3v1.1
			h-0.3c-0.7,0-1.2,0.1-1.6,0.4c-0.4,0.3-0.6,0.7-0.8,1.2s-0.2,1.1-0.2,1.8H166C166,92.3,166.1,91.5,166.3,90.8z"/>
		<path class="st6" d="M170.2,86.4h1.5v1.2h-1.5V86.4z M170.4,88.7h1.1v7h-1.1V88.7z"/>
		<path class="st6" d="M174.1,95.7c-0.3-0.2-0.6-0.4-0.8-0.7c-0.2-0.3-0.3-0.7-0.3-1.1c0-0.4,0.1-0.7,0.2-1c0.1-0.3,0.4-0.5,0.7-0.7
			c0.3-0.2,0.7-0.3,1.2-0.4l1.8-0.3c0.4-0.1,0.6-0.2,0.8-0.3c0.2-0.1,0.2-0.3,0.2-0.6c0-0.3-0.1-0.5-0.2-0.7
			c-0.1-0.2-0.3-0.3-0.5-0.4c-0.3-0.1-0.6-0.2-1-0.2c-0.7,0-1.1,0.1-1.4,0.4c-0.3,0.3-0.5,0.7-0.5,1.1h-1.1c0-0.5,0.1-0.9,0.4-1.3
			c0.2-0.4,0.6-0.6,1-0.8c0.5-0.2,1-0.3,1.6-0.3c0.6,0,1.1,0.1,1.6,0.3c0.4,0.2,0.7,0.4,0.9,0.7c0.2,0.3,0.3,0.7,0.3,1.1V94
			c0,0.3,0,0.5,0,0.8c0,0.3,0,0.6,0.1,0.9h-1c0-0.3-0.1-0.6-0.1-0.8s0-0.5,0-0.8c-0.1,0.3-0.3,0.6-0.5,0.9s-0.5,0.5-0.9,0.7
			s-0.8,0.3-1.3,0.3C174.9,95.9,174.5,95.8,174.1,95.7z M176.9,94.7c0.4-0.2,0.6-0.6,0.8-1c0.2-0.4,0.3-0.8,0.3-1.3v-0.6
			c-0.2,0.1-0.3,0.2-0.5,0.3c-0.2,0.1-0.4,0.1-0.6,0.2l-0.2,0l-1.2,0.2c-0.5,0.1-0.8,0.3-1.1,0.5c-0.2,0.2-0.3,0.5-0.3,0.9
			c0,0.4,0.1,0.7,0.4,0.9s0.6,0.3,1,0.3C176.1,95,176.5,94.9,176.9,94.7z"/>
		<path class="st6" d="M181.9,95.6c-0.2-0.1-0.4-0.3-0.5-0.5c-0.1-0.2-0.1-0.5-0.1-0.9v-4.5h-1.4V89l1.5-0.3l0.4-1.5h0.6v1.6h2.3
			v0.9h-2.3v5.2h2.2v0.9H183C182.5,95.7,182.2,95.7,181.9,95.6z"/>
		<path class="st6" d="M185.9,86.4h1.5v1.2h-1.5V86.4z M186.1,88.7h1.1v7h-1.1V88.7z"/>
		<path class="st6" d="M189,90.3c0.3-0.6,0.7-1,1.2-1.3s1.2-0.5,1.9-0.5c0.7,0,1.3,0.1,1.8,0.3c0.5,0.2,0.8,0.6,1.1,1
			c0.3,0.4,0.4,0.9,0.4,1.5h-1.1c-0.1-0.4-0.2-0.7-0.4-1c-0.2-0.3-0.4-0.5-0.7-0.6s-0.7-0.2-1.1-0.2c-0.5,0-1,0.1-1.3,0.3
			c-0.4,0.2-0.6,0.5-0.8,0.9c-0.2,0.4-0.3,1-0.3,1.6c0,0.7,0.1,1.2,0.3,1.6c0.2,0.4,0.5,0.7,0.8,0.9c0.4,0.2,0.8,0.3,1.3,0.3
			c0.7,0,1.2-0.2,1.6-0.5s0.6-0.8,0.7-1.5h1.1c0,0.6-0.2,1-0.4,1.5c-0.3,0.4-0.7,0.8-1.2,1s-1.1,0.4-1.8,0.4c-0.8,0-1.4-0.2-1.9-0.5
			c-0.5-0.3-0.9-0.8-1.2-1.3c-0.3-0.6-0.4-1.2-0.4-1.9S188.8,90.9,189,90.3z"/>
		<path class="st6" d="M198,95.5c-0.5-0.3-0.9-0.8-1.2-1.3s-0.4-1.2-0.4-1.9c0-0.7,0.1-1.3,0.4-1.9s0.7-1,1.2-1.3s1.2-0.5,2-0.5
			c0.8,0,1.4,0.2,2,0.5s0.9,0.8,1.2,1.3c0.3,0.6,0.4,1.2,0.4,1.9c0,0.7-0.1,1.4-0.4,1.9c-0.3,0.6-0.7,1-1.2,1.3
			c-0.5,0.3-1.2,0.5-2,0.5C199.2,96,198.6,95.8,198,95.5z M197.8,93.8c0.2,0.4,0.4,0.7,0.8,0.9c0.4,0.2,0.8,0.3,1.3,0.3
			c0.5,0,1-0.1,1.3-0.3c0.4-0.2,0.6-0.5,0.8-0.9c0.2-0.4,0.3-1,0.3-1.6c0-0.7-0.1-1.2-0.3-1.6c-0.2-0.4-0.4-0.7-0.8-0.9
			c-0.4-0.2-0.8-0.3-1.3-0.3c-0.5,0-1,0.1-1.3,0.3c-0.4,0.2-0.6,0.5-0.8,0.9c-0.2,0.4-0.3,0.9-0.3,1.6
			C197.6,92.9,197.7,93.4,197.8,93.8z"/>
		<path class="st6" d="M209.4,93.9c0.2,0.3,0.5,0.6,0.9,0.8s0.8,0.3,1.4,0.3c0.8,0,1.5-0.2,1.9-0.6s0.6-0.9,0.6-1.7
			c0-0.6-0.2-1.1-0.5-1.4c-0.3-0.4-0.8-0.5-1.5-0.5c-0.3,0-0.7,0-0.9,0.1s-0.5,0.2-0.8,0.4l-0.6-0.7l3.7-3.2h-5.3v-1h6.7v1l-3.2,2.9
			c0.3-0.1,0.6-0.1,1-0.1c0.5,0,0.9,0.1,1.3,0.3c0.4,0.2,0.7,0.5,1,0.9c0.3,0.4,0.4,0.9,0.4,1.5c0,0.6-0.1,1.1-0.4,1.6
			c-0.3,0.5-0.7,0.9-1.2,1.2c-0.6,0.3-1.3,0.5-2.2,0.5c-0.8,0-1.5-0.1-2-0.4c-0.6-0.3-1-0.7-1.3-1.2c-0.3-0.5-0.4-1.1-0.4-1.7h1.2
			C209.1,93.1,209.2,93.5,209.4,93.9z"/>
		<path class="st6" d="M218.3,94.1c0.2,0.3,0.4,0.5,0.8,0.7c0.4,0.2,0.8,0.2,1.4,0.2c0.6,0,1.1-0.1,1.4-0.3c0.4-0.2,0.7-0.5,0.8-0.8
			c0.2-0.3,0.3-0.8,0.3-1.2c0-0.5-0.1-0.9-0.3-1.3c-0.2-0.4-0.4-0.6-0.8-0.8c-0.3-0.2-0.7-0.3-1.2-0.3c-0.5,0-1,0.1-1.4,0.3
			s-0.8,0.5-1.1,0.9h-1.1l0.3-5.2h1.1l-0.3,4.2c0.3-0.3,0.7-0.6,1.1-0.8c0.4-0.2,1-0.3,1.6-0.3c0.7,0,1.2,0.1,1.7,0.4
			c0.5,0.3,0.9,0.6,1.1,1.1c0.3,0.5,0.4,1,0.4,1.7c0,1-0.3,1.8-0.9,2.4c-0.6,0.6-1.6,0.9-2.9,0.9c-0.8,0-1.5-0.1-2-0.4
			c-0.5-0.2-1-0.6-1.2-1c-0.3-0.4-0.4-0.9-0.5-1.5h1.2C218,93.5,218.1,93.8,218.3,94.1z M223.9,86.4v1H218v-1H223.9z"/>
		<path class="st6" d="M230.1,95.1c-0.5-0.3-0.8-0.7-1.1-1.2s-0.4-1.2-0.4-1.9c0-1.1,0.3-2,0.8-2.6c0.5-0.6,1.4-0.9,2.4-0.9
			c1,0,1.8,0.3,2.3,0.9s0.8,1.5,0.8,2.6c0,0.8-0.1,1.4-0.3,2s-0.6,0.9-1,1.2c-0.5,0.3-1,0.4-1.7,0.4
			C231.2,95.6,230.6,95.4,230.1,95.1z M230.4,98.4c-0.5-0.2-0.9-0.5-1.1-0.9s-0.4-0.8-0.5-1.4h1.1c0,0.3,0.1,0.6,0.3,0.8
			c0.2,0.2,0.4,0.4,0.7,0.6c0.3,0.1,0.7,0.2,1.3,0.2c0.6,0,1-0.1,1.4-0.2c0.3-0.1,0.6-0.4,0.8-0.7c0.2-0.3,0.2-0.7,0.2-1.2v-7h1.1v7
			c0,0.6-0.1,1.2-0.3,1.6c-0.2,0.4-0.6,0.8-1.1,1c-0.5,0.2-1.2,0.3-2,0.3C231.5,98.7,230.9,98.6,230.4,98.4z M233.5,94.4
			c0.3-0.2,0.6-0.5,0.8-0.9c0.2-0.4,0.3-0.9,0.3-1.5c0-0.6-0.1-1.1-0.3-1.5c-0.2-0.4-0.5-0.7-0.8-0.9s-0.8-0.3-1.3-0.3
			c-0.5,0-1,0.1-1.3,0.3c-0.3,0.2-0.6,0.5-0.8,0.8c-0.2,0.4-0.3,0.9-0.3,1.5c0,0.6,0.1,1.1,0.3,1.5c0.2,0.4,0.4,0.7,0.8,0.9
			c0.3,0.2,0.8,0.3,1.3,0.3C232.7,94.7,233.2,94.6,233.5,94.4z"/>
		<path class="st6" d="M240.1,86.4h1l-3.2,9.3h-1L240.1,86.4z"/>
		<path class="st6" d="M242.2,86.4h1.2v9.3h-1.2V86.4z M243.1,94.8h5.2v0.9h-5.2V94.8z"/>
	</g>
</g>
<g>
	<g>
		<g>
			<path class="st6" d="M69.2,648.2l-0.9-2.4h-4.6l-0.9,2.4h-1.2l3.6-9.3h1.7l3.6,9.3H69.2z M64,644.9h3.9l-2-5.2L64,644.9z"/>
			<path class="st6" d="M71.5,642.7c0.3-0.6,0.7-1,1.2-1.3s1.2-0.5,1.9-0.5c0.7,0,1.3,0.1,1.8,0.3c0.5,0.2,0.8,0.6,1.1,1
				c0.3,0.4,0.4,0.9,0.4,1.5h-1.1c-0.1-0.4-0.2-0.7-0.4-1c-0.2-0.3-0.4-0.5-0.7-0.6s-0.7-0.2-1.1-0.2c-0.5,0-1,0.1-1.3,0.3
				c-0.4,0.2-0.6,0.5-0.8,0.9c-0.2,0.4-0.3,1-0.3,1.6c0,0.7,0.1,1.2,0.3,1.6c0.2,0.4,0.5,0.7,0.8,0.9c0.4,0.2,0.8,0.3,1.3,0.3
				c0.7,0,1.2-0.2,1.6-0.5s0.6-0.8,0.7-1.5H78c0,0.6-0.2,1-0.4,1.5c-0.3,0.4-0.7,0.8-1.2,1s-1.1,0.4-1.8,0.4c-0.8,0-1.4-0.2-1.9-0.5
				c-0.5-0.3-0.9-0.8-1.2-1.3c-0.3-0.6-0.4-1.2-0.4-1.9S71.2,643.3,71.5,642.7z"/>
			<path class="st6" d="M80.3,647.9c-0.5-0.3-0.8-0.7-1.1-1.3c-0.2-0.6-0.4-1.2-0.4-1.9c0-0.7,0.1-1.4,0.4-1.9
				c0.2-0.6,0.6-1,1.1-1.3c0.5-0.3,1.1-0.5,1.8-0.5c1,0,1.8,0.3,2.3,1c0.5,0.7,0.8,1.6,0.8,2.7s-0.3,2.1-0.8,2.7
				c-0.5,0.7-1.3,1-2.3,1C81.4,648.4,80.8,648.2,80.3,647.9z M83.7,647.2c0.4-0.2,0.6-0.5,0.8-0.9s0.3-1,0.3-1.6s-0.1-1.2-0.3-1.6
				s-0.5-0.7-0.8-0.9c-0.4-0.2-0.8-0.3-1.3-0.3c-0.5,0-1,0.1-1.3,0.3c-0.3,0.2-0.6,0.5-0.8,0.9c-0.2,0.4-0.2,0.9-0.2,1.6
				c0,0.6,0.1,1.2,0.2,1.6c0.2,0.4,0.4,0.7,0.8,0.9c0.3,0.2,0.8,0.3,1.3,0.3C82.9,647.5,83.3,647.4,83.7,647.2z M84.8,651v-9.8h1.1
				v9.8H84.8z"/>
			<path class="st6" d="M88.9,648.1c-0.4-0.2-0.7-0.5-0.8-0.9c-0.2-0.4-0.3-0.9-0.3-1.5v-4.5H89v4.3c0,0.5,0.1,0.9,0.2,1.2
				c0.1,0.3,0.3,0.5,0.6,0.6c0.3,0.1,0.6,0.2,1,0.2c0.5,0,0.9-0.1,1.3-0.4c0.3-0.3,0.6-0.7,0.8-1.2c0.2-0.5,0.3-1.2,0.3-2h0.4
				c0,0.9-0.1,1.7-0.3,2.4c-0.2,0.7-0.5,1.2-1,1.6c-0.4,0.4-1,0.6-1.7,0.6C89.8,648.4,89.3,648.3,88.9,648.1z M93,646v-0.2v-4.7h1.1
				v7H93V646z"/>
			<path class="st6" d="M96.9,648.1c-0.3-0.2-0.6-0.4-0.8-0.7c-0.2-0.3-0.3-0.7-0.3-1.1c0-0.4,0.1-0.7,0.2-1
				c0.1-0.3,0.4-0.5,0.7-0.7c0.3-0.2,0.7-0.3,1.2-0.4l1.8-0.3c0.4-0.1,0.6-0.2,0.8-0.3c0.2-0.1,0.2-0.3,0.2-0.6
				c0-0.3-0.1-0.5-0.2-0.7c-0.1-0.2-0.3-0.3-0.5-0.4c-0.3-0.1-0.6-0.2-1-0.2c-0.7,0-1.1,0.1-1.4,0.4c-0.3,0.3-0.5,0.7-0.5,1.1h-1.1
				c0-0.5,0.1-0.9,0.4-1.3c0.2-0.4,0.6-0.6,1-0.8c0.5-0.2,1-0.3,1.6-0.3c0.6,0,1.1,0.1,1.6,0.3c0.4,0.2,0.7,0.4,0.9,0.7
				c0.2,0.3,0.3,0.7,0.3,1.1v3.4c0,0.3,0,0.5,0,0.8c0,0.3,0,0.6,0.1,0.9h-1c0-0.3-0.1-0.6-0.1-0.8s0-0.5,0-0.8
				c-0.1,0.3-0.3,0.6-0.5,0.9s-0.5,0.5-0.9,0.7s-0.8,0.3-1.3,0.3C97.6,648.4,97.2,648.3,96.9,648.1z M99.6,647.1
				c0.4-0.2,0.6-0.6,0.8-1c0.2-0.4,0.3-0.8,0.3-1.3v-0.6c-0.2,0.1-0.3,0.2-0.5,0.3c-0.2,0.1-0.4,0.1-0.6,0.2l-0.2,0l-1.2,0.2
				c-0.5,0.1-0.8,0.3-1.1,0.5c-0.2,0.2-0.3,0.5-0.3,0.9c0,0.4,0.1,0.7,0.4,0.9s0.6,0.3,1,0.3C98.8,647.5,99.3,647.4,99.6,647.1z"/>
			<path class="st6" d="M111.8,641.9c0.5,0.7,0.8,1.6,0.8,2.7c0,0.8-0.1,1.4-0.3,2c-0.2,0.6-0.6,1-1,1.3c-0.5,0.3-1,0.5-1.7,0.5
				c-0.7,0-1.3-0.2-1.8-0.5c-0.5-0.3-0.8-0.8-1.1-1.3c-0.2-0.6-0.4-1.2-0.4-1.9c0-0.7,0.1-1.4,0.4-1.9c0.2-0.6,0.6-1,1.1-1.3
				c0.5-0.3,1.1-0.5,1.8-0.5C110.5,641,111.3,641.3,111.8,641.9z M108.4,642.2c-0.3,0.2-0.6,0.5-0.8,0.9c-0.2,0.4-0.2,0.9-0.2,1.6
				c0,0.6,0.1,1.1,0.2,1.6c0.2,0.4,0.4,0.7,0.8,0.9c0.3,0.2,0.8,0.3,1.3,0.3c0.5,0,0.9-0.1,1.3-0.3c0.4-0.2,0.6-0.5,0.8-0.9
				c0.2-0.4,0.3-0.9,0.3-1.6s-0.1-1.2-0.3-1.6s-0.5-0.7-0.8-0.9c-0.4-0.2-0.8-0.3-1.3-0.3C109.2,641.9,108.8,642,108.4,642.2z
				 M113.3,648.2h-1.1v-1.7v-0.2v-8h1.1V648.2z"/>
			<path class="st6" d="M116.4,647.9c-0.5-0.3-0.9-0.8-1.2-1.3s-0.4-1.2-0.4-1.9c0-0.7,0.1-1.3,0.4-1.9s0.7-1,1.2-1.3s1.2-0.5,2-0.5
				c0.8,0,1.4,0.2,2,0.5s0.9,0.8,1.2,1.3c0.3,0.6,0.4,1.2,0.4,1.9c0,0.7-0.1,1.4-0.4,1.9c-0.3,0.6-0.7,1-1.2,1.3
				c-0.5,0.3-1.2,0.5-2,0.5C117.6,648.4,117,648.2,116.4,647.9z M116.2,646.3c0.2,0.4,0.4,0.7,0.8,0.9c0.4,0.2,0.8,0.3,1.3,0.3
				c0.5,0,1-0.1,1.3-0.3c0.4-0.2,0.6-0.5,0.8-0.9c0.2-0.4,0.3-1,0.3-1.6c0-0.7-0.1-1.2-0.3-1.6c-0.2-0.4-0.4-0.7-0.8-0.9
				c-0.4-0.2-0.8-0.3-1.3-0.3c-0.5,0-1,0.1-1.3,0.3c-0.4,0.2-0.6,0.5-0.8,0.9c-0.2,0.4-0.3,0.9-0.3,1.6
				C116,645.3,116.1,645.9,116.2,646.3z"/>
			<path class="st6" d="M123.5,638.4h1.1v9.8h-1.1V638.4z"/>
			<path class="st6" d="M126.5,642.7c0.3-0.6,0.7-1,1.2-1.3s1.2-0.5,1.9-0.5c0.7,0,1.3,0.1,1.8,0.3c0.5,0.2,0.8,0.6,1.1,1
				c0.3,0.4,0.4,0.9,0.4,1.5h-1.1c-0.1-0.4-0.2-0.7-0.4-1c-0.2-0.3-0.4-0.5-0.7-0.6s-0.7-0.2-1.1-0.2c-0.5,0-1,0.1-1.3,0.3
				c-0.4,0.2-0.6,0.5-0.8,0.9c-0.2,0.4-0.3,1-0.3,1.6c0,0.7,0.1,1.2,0.3,1.6c0.2,0.4,0.5,0.7,0.8,0.9c0.4,0.2,0.8,0.3,1.3,0.3
				c0.7,0,1.2-0.2,1.6-0.5s0.6-0.8,0.7-1.5h1.1c0,0.6-0.2,1-0.4,1.5c-0.3,0.4-0.7,0.8-1.2,1s-1.1,0.4-1.8,0.4
				c-0.8,0-1.4-0.2-1.9-0.5c-0.5-0.3-0.9-0.8-1.2-1.3c-0.3-0.6-0.4-1.2-0.4-1.9S126.2,643.3,126.5,642.7z"/>
			<path class="st6" d="M135.4,647.9c-0.5-0.3-0.9-0.8-1.2-1.3s-0.4-1.2-0.4-1.9c0-0.7,0.1-1.3,0.4-1.9c0.3-0.6,0.7-1,1.2-1.3
				s1.2-0.5,1.9-0.5c0.7,0,1.3,0.1,1.8,0.4s0.9,0.7,1.1,1.2c0.3,0.5,0.4,1.1,0.4,1.8v0.2c0,0.1,0,0.2,0,0.3h-5.9v-0.8h5.3l-0.5,0.5
				c0-0.6,0-1.2-0.2-1.6c-0.2-0.4-0.4-0.7-0.7-0.9c-0.3-0.2-0.8-0.3-1.2-0.3c-0.5,0-1,0.1-1.3,0.3s-0.6,0.5-0.8,0.9
				c-0.2,0.4-0.3,1-0.3,1.7s0.1,1.2,0.3,1.7c0.2,0.4,0.5,0.7,0.8,0.9s0.8,0.3,1.3,0.3c0.5,0,0.8-0.1,1.1-0.2s0.5-0.3,0.7-0.5
				c0.2-0.2,0.3-0.5,0.4-0.8h1c0,0.4-0.2,0.8-0.4,1.1s-0.6,0.7-1.1,0.9c-0.5,0.2-1.1,0.3-1.8,0.3C136.6,648.4,136,648.2,135.4,647.9
				z"/>
			<path class="st6" d="M145.2,645v-0.9l4.7-1.8v0.9L145.2,645z M145.2,645.3v-0.9l4.7,1.8v0.9L145.2,645.3z"/>
			<path class="st6" d="M153.6,647.8c-0.6-0.4-1.1-1-1.4-1.7c-0.3-0.7-0.5-1.6-0.5-2.5c0-1,0.2-1.8,0.5-2.5c0.3-0.7,0.8-1.3,1.4-1.7
				s1.4-0.6,2.4-0.6c0.9,0,1.7,0.2,2.4,0.6c0.6,0.4,1.1,1,1.4,1.7c0.3,0.7,0.5,1.6,0.5,2.5s-0.2,1.8-0.5,2.5
				c-0.3,0.7-0.8,1.3-1.4,1.7c-0.6,0.4-1.4,0.6-2.4,0.6C155,648.4,154.2,648.2,153.6,647.8z M153.3,645.7c0.2,0.6,0.5,1,1,1.3
				c0.4,0.3,1,0.4,1.7,0.4c0.7,0,1.3-0.1,1.7-0.4s0.8-0.7,1-1.3s0.3-1.3,0.3-2.2c0-0.9-0.1-1.6-0.3-2.2c-0.2-0.6-0.5-1-1-1.3
				s-1-0.4-1.7-0.4c-0.7,0-1.3,0.1-1.7,0.4c-0.4,0.3-0.8,0.7-1,1.3c-0.2,0.6-0.3,1.3-0.3,2.2C153,644.4,153.1,645.1,153.3,645.7z"/>
			<path class="st6" d="M161.3,646.9h1.5v1.2h-1.5V646.9z"/>
			<path class="st6" d="M165.5,646.5c0.2,0.3,0.4,0.5,0.8,0.7c0.4,0.2,0.8,0.2,1.4,0.2c0.6,0,1.1-0.1,1.4-0.3
				c0.4-0.2,0.7-0.5,0.8-0.8c0.2-0.3,0.3-0.8,0.3-1.2c0-0.5-0.1-0.9-0.3-1.3c-0.2-0.4-0.4-0.6-0.8-0.8c-0.3-0.2-0.7-0.3-1.2-0.3
				c-0.5,0-1,0.1-1.4,0.3s-0.8,0.5-1.1,0.9h-1.1l0.3-5.2h1.1l-0.3,4.2c0.3-0.3,0.7-0.6,1.1-0.8c0.4-0.2,1-0.3,1.6-0.3
				c0.7,0,1.2,0.1,1.7,0.4c0.5,0.3,0.9,0.6,1.1,1.1c0.3,0.5,0.4,1,0.4,1.7c0,1-0.3,1.8-0.9,2.4c-0.6,0.6-1.6,0.9-2.9,0.9
				c-0.8,0-1.5-0.1-2-0.4c-0.5-0.2-1-0.6-1.2-1c-0.3-0.4-0.4-0.9-0.5-1.5h1.2C165.3,645.9,165.4,646.3,165.5,646.5z M171.1,638.9v1
				h-5.9v-1H171.1z"/>
			<path class="st6" d="M177.3,647.6c-0.5-0.3-0.8-0.7-1.1-1.2s-0.4-1.2-0.4-1.9c0-1.1,0.3-2,0.8-2.6c0.5-0.6,1.4-0.9,2.4-0.9
				c1,0,1.8,0.3,2.3,0.9s0.8,1.5,0.8,2.6c0,0.8-0.1,1.4-0.3,2s-0.6,0.9-1,1.2c-0.5,0.3-1,0.4-1.7,0.4
				C178.4,648,177.8,647.9,177.3,647.6z M177.7,650.8c-0.5-0.2-0.9-0.5-1.1-0.9s-0.4-0.8-0.5-1.4h1.1c0,0.3,0.1,0.6,0.3,0.8
				c0.2,0.2,0.4,0.4,0.7,0.6c0.3,0.1,0.7,0.2,1.3,0.2c0.6,0,1-0.1,1.4-0.2c0.3-0.1,0.6-0.4,0.8-0.7c0.2-0.3,0.2-0.7,0.2-1.2v-7h1.1
				v7c0,0.6-0.1,1.2-0.3,1.6c-0.2,0.4-0.6,0.8-1.1,1c-0.5,0.2-1.2,0.3-2,0.3C178.7,651.1,178.1,651,177.7,650.8z M180.7,646.9
				c0.3-0.2,0.6-0.5,0.8-0.9c0.2-0.4,0.3-0.9,0.3-1.5c0-0.6-0.1-1.1-0.3-1.5c-0.2-0.4-0.5-0.7-0.8-0.9s-0.8-0.3-1.3-0.3
				c-0.5,0-1,0.1-1.3,0.3c-0.3,0.2-0.6,0.5-0.8,0.8c-0.2,0.4-0.3,0.9-0.3,1.5c0,0.6,0.1,1.1,0.3,1.5c0.2,0.4,0.4,0.7,0.8,0.9
				c0.3,0.2,0.8,0.3,1.3,0.3C179.9,647.1,180.4,647.1,180.7,646.9z"/>
			<path class="st6" d="M187.3,638.9h1l-3.2,9.3h-1L187.3,638.9z"/>
			<path class="st6" d="M189.4,638.9h1.2v9.3h-1.2V638.9z M190.3,647.2h5.2v0.9h-5.2V647.2z"/>
		</g>
	</g>
</g>
<g id="mesi_00000105404850238136731470000012803527373580791186_">
	<g transform="translate(-400,258)">
		<g>
			<g class="st7">
				<path class="st5" d="M439.4,436.2c-0.7-0.4-1.2-1-1.5-1.7s-0.5-1.6-0.5-2.5c0-1,0.2-1.8,0.5-2.6c0.3-0.7,0.9-1.3,1.6-1.7
					c0.7-0.4,1.6-0.6,2.6-0.6c0.9,0,1.7,0.1,2.3,0.4c0.6,0.3,1.1,0.7,1.5,1.2c0.4,0.5,0.6,1.2,0.7,2h-1.2c-0.1-0.6-0.2-1.1-0.5-1.5
					c-0.3-0.4-0.6-0.7-1.1-0.9c-0.5-0.2-1-0.3-1.7-0.3c-0.8,0-1.4,0.1-2,0.4c-0.5,0.3-0.9,0.7-1.2,1.3c-0.3,0.6-0.4,1.3-0.4,2.2
					c0,0.9,0.1,1.6,0.4,2.2c0.2,0.6,0.6,1,1.1,1.3c0.5,0.3,1.2,0.4,2,0.4c1,0,1.8-0.3,2.4-0.8c0.5-0.5,0.9-1.3,1-2.2h-4.2v-0.9h5.4
					v4.6h-1.1v-2.3c0,0.1,0,0.1-0.1,0.2c-0.2,0.4-0.4,0.8-0.7,1.2c-0.3,0.3-0.7,0.6-1.2,0.8c-0.5,0.2-1,0.3-1.7,0.3
					C440.9,436.8,440.1,436.6,439.4,436.2z"/>
				<path class="st5" d="M449.6,436.3c-0.5-0.3-0.9-0.8-1.2-1.3s-0.4-1.2-0.4-1.9c0-0.7,0.1-1.3,0.4-1.9c0.3-0.6,0.7-1,1.2-1.3
					s1.2-0.5,1.9-0.5c0.7,0,1.3,0.1,1.8,0.4s0.9,0.7,1.1,1.2c0.3,0.5,0.4,1.1,0.4,1.8v0.2c0,0.1,0,0.2,0,0.3h-5.9v-0.8h5.3l-0.5,0.5
					c0-0.6,0-1.2-0.2-1.6c-0.2-0.4-0.4-0.7-0.7-0.9c-0.3-0.2-0.8-0.3-1.2-0.3c-0.5,0-1,0.1-1.3,0.3s-0.6,0.5-0.8,0.9
					c-0.2,0.4-0.3,1-0.3,1.7s0.1,1.2,0.3,1.7c0.2,0.4,0.5,0.7,0.8,0.9s0.8,0.3,1.3,0.3c0.5,0,0.8-0.1,1.1-0.2s0.5-0.3,0.7-0.5
					c0.2-0.2,0.3-0.5,0.4-0.8h1c0,0.4-0.2,0.8-0.4,1.1s-0.6,0.7-1.1,0.9c-0.5,0.2-1.1,0.3-1.8,0.3
					C450.7,436.8,450.1,436.6,449.6,436.3z"/>
				<path class="st5" d="M456.3,429.5h1.1v7h-1.1V429.5z M457.4,431.5c0.2-0.7,0.5-1.2,1-1.6s1-0.6,1.7-0.6c0.6,0,1.1,0.1,1.4,0.3
					s0.6,0.5,0.8,0.9c0.2,0.4,0.3,0.9,0.3,1.5v4.5h-1.1v-4.3c0-0.5-0.1-0.9-0.2-1.2c-0.1-0.3-0.3-0.5-0.6-0.6
					c-0.2-0.1-0.6-0.2-0.9-0.2c-0.5,0-1,0.1-1.3,0.4c-0.4,0.3-0.6,0.7-0.8,1.2c-0.2,0.5-0.3,1.2-0.3,2H457
					C457,432.9,457.1,432.1,457.4,431.5z"/>
			</g>
		</g>
	</g>
	<g transform="translate(-400,258)">
		<g>
			<g class="st7">
				<path class="st5" d="M508.5,427.2h1.2v9.3h-1.2V427.2z M515.5,427.2v0.9h-6.1v-0.9H515.5z M515,431.4v0.9h-5.7v-0.9H515z"/>
				<path class="st5" d="M518.1,436.3c-0.5-0.3-0.9-0.8-1.2-1.3s-0.4-1.2-0.4-1.9c0-0.7,0.1-1.3,0.4-1.9c0.3-0.6,0.7-1,1.2-1.3
					s1.2-0.5,1.9-0.5c0.7,0,1.3,0.1,1.8,0.4s0.9,0.7,1.1,1.2c0.3,0.5,0.4,1.1,0.4,1.8v0.2c0,0.1,0,0.2,0,0.3h-5.9v-0.8h5.3l-0.5,0.5
					c0-0.6,0-1.2-0.2-1.6c-0.2-0.4-0.4-0.7-0.7-0.9c-0.3-0.2-0.8-0.3-1.2-0.3c-0.5,0-1,0.1-1.3,0.3s-0.6,0.5-0.8,0.9
					c-0.2,0.4-0.3,1-0.3,1.7s0.1,1.2,0.3,1.7c0.2,0.4,0.5,0.7,0.8,0.9s0.8,0.3,1.3,0.3c0.5,0,0.8-0.1,1.1-0.2s0.5-0.3,0.7-0.5
					c0.2-0.2,0.3-0.5,0.4-0.8h1c0,0.4-0.2,0.8-0.4,1.1s-0.6,0.7-1.1,0.9c-0.5,0.2-1.1,0.3-1.8,0.3
					C519.3,436.8,518.6,436.6,518.1,436.3z"/>
				<path class="st5" d="M525.9,426.7v9.8h-1.1v-9.8H525.9z M530.4,429.8c0.5,0.3,0.8,0.7,1.1,1.3c0.2,0.6,0.4,1.2,0.4,1.9
					c0,0.7-0.1,1.4-0.4,1.9c-0.2,0.6-0.6,1-1.1,1.3s-1.1,0.5-1.8,0.5c-1,0-1.8-0.3-2.3-1c-0.5-0.7-0.8-1.6-0.8-2.7s0.3-2.1,0.8-2.7
					c0.5-0.7,1.3-1,2.3-1C529.3,429.3,529.9,429.5,530.4,429.8z M527.1,430.5c-0.4,0.2-0.6,0.5-0.8,0.9c-0.2,0.4-0.3,1-0.3,1.6
					s0.1,1.2,0.3,1.6c0.2,0.4,0.5,0.7,0.8,0.9c0.4,0.2,0.8,0.3,1.3,0.3c0.5,0,1-0.1,1.3-0.3s0.6-0.5,0.8-0.9
					c0.2-0.4,0.2-0.9,0.2-1.6c0-0.6-0.1-1.2-0.2-1.6c-0.2-0.4-0.4-0.7-0.8-0.9s-0.8-0.3-1.3-0.3
					C527.9,430.2,527.4,430.3,527.1,430.5z"/>
			</g>
		</g>
	</g>
	<g transform="translate(-400,258)">
		<g>
			<g class="st7">
				<path class="st5" d="M587.2,436.5H586v-8.4l-3.2,8.4h-1.6l-3.2-8.4v8.4h-1.2v-9.3h2l3.1,8.2l3.1-8.2h2V436.5z"/>
				<path class="st5" d="M589.8,436.5c-0.3-0.2-0.6-0.4-0.8-0.7c-0.2-0.3-0.3-0.7-0.3-1.1c0-0.4,0.1-0.7,0.2-1
					c0.1-0.3,0.4-0.5,0.7-0.7c0.3-0.2,0.7-0.3,1.2-0.4l1.8-0.3c0.4-0.1,0.6-0.2,0.8-0.3c0.2-0.1,0.2-0.3,0.2-0.6
					c0-0.3-0.1-0.5-0.2-0.7c-0.1-0.2-0.3-0.3-0.5-0.4c-0.3-0.1-0.6-0.2-1-0.2c-0.7,0-1.1,0.1-1.4,0.4c-0.3,0.3-0.5,0.7-0.5,1.1h-1.1
					c0-0.5,0.1-0.9,0.4-1.3c0.2-0.4,0.6-0.6,1-0.8c0.5-0.2,1-0.3,1.6-0.3c0.6,0,1.1,0.1,1.6,0.3c0.4,0.2,0.7,0.4,0.9,0.7
					c0.2,0.3,0.3,0.7,0.3,1.1v3.4c0,0.3,0,0.5,0,0.8c0,0.3,0,0.6,0.1,0.9h-1c0-0.3-0.1-0.6-0.1-0.8s0-0.5,0-0.8
					c-0.1,0.3-0.3,0.6-0.5,0.9s-0.5,0.5-0.9,0.7s-0.8,0.3-1.3,0.3C590.6,436.7,590.2,436.6,589.8,436.5z M592.6,435.5
					c0.4-0.2,0.6-0.6,0.8-1c0.2-0.4,0.3-0.8,0.3-1.3v-0.6c-0.2,0.1-0.3,0.2-0.5,0.3c-0.2,0.1-0.4,0.1-0.6,0.2l-0.2,0l-1.2,0.2
					c-0.5,0.1-0.8,0.3-1.1,0.5c-0.2,0.2-0.3,0.5-0.3,0.9c0,0.4,0.1,0.7,0.4,0.9s0.6,0.3,1,0.3C591.8,435.8,592.2,435.7,592.6,435.5z
					"/>
				<path class="st5" d="M596.6,429.5h1.1v2.2l0,0.2v4.6h-1.1V429.5z M597.6,431.6c0.2-0.7,0.5-1.2,1-1.6c0.4-0.4,1-0.6,1.7-0.6h0.3
					v1.1h-0.3c-0.7,0-1.2,0.1-1.6,0.4c-0.4,0.3-0.6,0.7-0.8,1.2s-0.2,1.1-0.2,1.8h-0.4C597.3,433.1,597.4,432.3,597.6,431.6z"/>
			</g>
		</g>
	</g>
	<g transform="translate(-400,258)">
		<g>
			<g class="st7">
				<path class="st5" d="M652.5,436.5l-0.9-2.4h-4.6l-0.9,2.4h-1.2l3.6-9.3h1.7l3.6,9.3H652.5z M647.3,433.2h3.9l-2-5.2L647.3,433.2
					z"/>
				<path class="st5" d="M654.9,429.5h1.1v1.6v0.3v8h-1.1V429.5z M656.4,435.8c-0.5-0.7-0.8-1.6-0.8-2.7s0.3-2.1,0.8-2.7
					c0.5-0.7,1.3-1,2.3-1c0.7,0,1.3,0.2,1.8,0.5s0.8,0.8,1.1,1.3c0.2,0.6,0.4,1.2,0.4,1.9c0,0.7-0.1,1.4-0.4,1.9
					c-0.2,0.6-0.6,1-1.1,1.3s-1.1,0.5-1.8,0.5C657.7,436.8,656.9,436.4,656.4,435.8z M659.8,435.5c0.3-0.2,0.6-0.5,0.8-0.9
					c0.2-0.4,0.2-0.9,0.2-1.6c0-0.6-0.1-1.1-0.2-1.6c-0.2-0.4-0.4-0.7-0.8-0.9s-0.8-0.3-1.3-0.3c-0.5,0-0.9,0.1-1.3,0.3
					c-0.4,0.2-0.6,0.5-0.8,0.9c-0.2,0.4-0.3,0.9-0.3,1.6s0.1,1.2,0.3,1.6c0.2,0.4,0.5,0.7,0.8,0.9c0.4,0.2,0.8,0.3,1.3,0.3
					C659,435.9,659.4,435.7,659.8,435.5z"/>
				<path class="st5" d="M663.4,429.5h1.1v2.2l0,0.2v4.6h-1.1V429.5z M664.5,431.6c0.2-0.7,0.5-1.2,1-1.6c0.4-0.4,1-0.6,1.7-0.6h0.3
					v1.1h-0.3c-0.7,0-1.2,0.1-1.6,0.4c-0.4,0.3-0.6,0.7-0.8,1.2s-0.2,1.1-0.2,1.8h-0.4C664.2,433.1,664.3,432.3,664.5,431.6z"/>
			</g>
		</g>
	</g>
	<g transform="translate(-400,258)">
		<g>
			<g class="st7">
				<path class="st5" d="M722.5,436.5h-1.2v-8.4l-3.2,8.4h-1.6l-3.2-8.4v8.4h-1.2v-9.3h2l3.1,8.2l3.1-8.2h2V436.5z"/>
				<path class="st5" d="M725.1,436.5c-0.3-0.2-0.6-0.4-0.8-0.7c-0.2-0.3-0.3-0.7-0.3-1.1c0-0.4,0.1-0.7,0.2-1
					c0.1-0.3,0.4-0.5,0.7-0.7c0.3-0.2,0.7-0.3,1.2-0.4l1.8-0.3c0.4-0.1,0.6-0.2,0.8-0.3c0.2-0.1,0.2-0.3,0.2-0.6
					c0-0.3-0.1-0.5-0.2-0.7c-0.1-0.2-0.3-0.3-0.5-0.4c-0.3-0.1-0.6-0.2-1-0.2c-0.7,0-1.1,0.1-1.4,0.4c-0.3,0.3-0.5,0.7-0.5,1.1h-1.1
					c0-0.5,0.1-0.9,0.4-1.3c0.2-0.4,0.6-0.6,1-0.8c0.5-0.2,1-0.3,1.6-0.3c0.6,0,1.1,0.1,1.6,0.3c0.4,0.2,0.7,0.4,0.9,0.7
					c0.2,0.3,0.3,0.7,0.3,1.1v3.4c0,0.3,0,0.5,0,0.8c0,0.3,0,0.6,0.1,0.9h-1c0-0.3-0.1-0.6-0.1-0.8s0-0.5,0-0.8
					c-0.1,0.3-0.3,0.6-0.5,0.9s-0.5,0.5-0.9,0.7s-0.8,0.3-1.3,0.3C725.9,436.7,725.5,436.6,725.1,436.5z M727.9,435.5
					c0.4-0.2,0.6-0.6,0.8-1c0.2-0.4,0.3-0.8,0.3-1.3v-0.6c-0.2,0.1-0.3,0.2-0.5,0.3c-0.2,0.1-0.4,0.1-0.6,0.2l-0.2,0l-1.2,0.2
					c-0.5,0.1-0.8,0.3-1.1,0.5c-0.2,0.2-0.3,0.5-0.3,0.9c0,0.4,0.1,0.7,0.4,0.9s0.6,0.3,1,0.3C727.1,435.8,727.5,435.7,727.9,435.5z
					"/>
				<path class="st5" d="M732.8,436c-0.5-0.3-0.8-0.7-1.1-1.2s-0.4-1.2-0.4-1.9c0-1.1,0.3-2,0.8-2.6c0.5-0.6,1.4-0.9,2.4-0.9
					c1,0,1.8,0.3,2.3,0.9s0.8,1.5,0.8,2.6c0,0.8-0.1,1.4-0.3,2s-0.6,0.9-1,1.2c-0.5,0.3-1,0.4-1.7,0.4
					C733.9,436.4,733.3,436.2,732.8,436z M733.1,439.2c-0.5-0.2-0.9-0.5-1.1-0.9s-0.4-0.8-0.5-1.4h1.1c0,0.3,0.1,0.6,0.3,0.8
					c0.2,0.2,0.4,0.4,0.7,0.6c0.3,0.1,0.7,0.2,1.3,0.2c0.6,0,1-0.1,1.4-0.2c0.3-0.1,0.6-0.4,0.8-0.7c0.2-0.3,0.2-0.7,0.2-1.2v-7h1.1
					v7c0,0.6-0.1,1.2-0.3,1.6c-0.2,0.4-0.6,0.8-1.1,1c-0.5,0.2-1.2,0.3-2,0.3C734.2,439.5,733.6,439.4,733.1,439.2z M736.2,435.2
					c0.3-0.2,0.6-0.5,0.8-0.9c0.2-0.4,0.3-0.9,0.3-1.5c0-0.6-0.1-1.1-0.3-1.5c-0.2-0.4-0.5-0.7-0.8-0.9s-0.8-0.3-1.3-0.3
					c-0.5,0-1,0.1-1.3,0.3c-0.3,0.2-0.6,0.5-0.8,0.8c-0.2,0.4-0.3,0.9-0.3,1.5c0,0.6,0.1,1.1,0.3,1.5c0.2,0.4,0.4,0.7,0.8,0.9
					c0.3,0.2,0.8,0.3,1.3,0.3C735.4,435.5,735.8,435.4,736.2,435.2z"/>
			</g>
		</g>
	</g>
	<g transform="translate(-400,258)">
		<g>
			<g class="st7">
				<path class="st5" d="M784.3,436.2c-0.7-0.4-1.2-1-1.5-1.7s-0.5-1.6-0.5-2.5c0-1,0.2-1.8,0.5-2.6c0.3-0.7,0.9-1.3,1.6-1.7
					c0.7-0.4,1.6-0.6,2.6-0.6c0.9,0,1.7,0.1,2.3,0.4c0.6,0.3,1.1,0.7,1.5,1.2c0.4,0.5,0.6,1.2,0.7,2h-1.2c-0.1-0.6-0.2-1.1-0.5-1.5
					c-0.3-0.4-0.6-0.7-1.1-0.9c-0.5-0.2-1-0.3-1.7-0.3c-0.8,0-1.4,0.1-2,0.4c-0.5,0.3-0.9,0.7-1.2,1.3c-0.3,0.6-0.4,1.3-0.4,2.2
					c0,0.9,0.1,1.6,0.4,2.2c0.2,0.6,0.6,1,1.1,1.3c0.5,0.3,1.2,0.4,2,0.4c1,0,1.8-0.3,2.4-0.8c0.5-0.5,0.9-1.3,1-2.2h-4.2v-0.9h5.4
					v4.6h-1.1v-2.3c0,0.1,0,0.1-0.1,0.2c-0.2,0.4-0.4,0.8-0.7,1.2c-0.3,0.3-0.7,0.6-1.2,0.8c-0.5,0.2-1,0.3-1.7,0.3
					C785.8,436.8,785,436.6,784.3,436.2z"/>
				<path class="st5" d="M793.1,427.2h1.5v1.2h-1.5V427.2z M793.3,429.5h1.1v7h-1.1V429.5z"/>
				<path class="st5" d="M797.3,436.5c-0.4-0.2-0.7-0.5-0.8-0.9c-0.2-0.4-0.3-0.9-0.3-1.5v-4.5h1.1v4.3c0,0.5,0.1,0.9,0.2,1.2
					c0.1,0.3,0.3,0.5,0.6,0.6c0.3,0.1,0.6,0.2,1,0.2c0.5,0,0.9-0.1,1.3-0.4c0.3-0.3,0.6-0.7,0.8-1.2c0.2-0.5,0.3-1.2,0.3-2h0.4
					c0,0.9-0.1,1.7-0.3,2.4c-0.2,0.7-0.5,1.2-1,1.6c-0.4,0.4-1,0.6-1.7,0.6C798.2,436.8,797.7,436.7,797.3,436.5z M801.4,434.4v-0.2
					v-4.7h1.1v7h-1.1V434.4z"/>
			</g>
		</g>
	</g>
	<g transform="translate(-400,258)">
		<g>
			<g class="st7">
				<path class="st5" d="M849.9,427.2h1.2v9.3h-1.2V427.2z M850.8,435.6h5.2v0.9h-5.2V435.6z"/>
				<path class="st5" d="M858.2,436.5c-0.4-0.2-0.7-0.5-0.8-0.9s-0.3-0.9-0.3-1.5v-4.5h1.1v4.3c0,0.5,0.1,0.9,0.2,1.2
					c0.1,0.3,0.3,0.5,0.6,0.6c0.3,0.1,0.6,0.2,1,0.2c0.5,0,0.9-0.1,1.3-0.4s0.6-0.7,0.8-1.2s0.3-1.2,0.3-2h0.4
					c0,0.9-0.1,1.7-0.3,2.4c-0.2,0.7-0.5,1.2-1,1.6c-0.4,0.4-1,0.6-1.7,0.6C859.1,436.8,858.6,436.7,858.2,436.5z M862.3,434.4v-0.2
					v-4.7h1.1v7h-1.1V434.4z"/>
				<path class="st5" d="M866.4,436c-0.5-0.3-0.8-0.7-1.1-1.2c-0.2-0.5-0.4-1.2-0.4-1.9c0-1.1,0.3-2,0.8-2.6
					c0.5-0.6,1.4-0.9,2.4-0.9c1,0,1.8,0.3,2.3,0.9s0.8,1.5,0.8,2.6c0,0.8-0.1,1.4-0.3,2c-0.2,0.5-0.6,0.9-1,1.2s-1,0.4-1.7,0.4
					C867.5,436.4,866.9,436.2,866.4,436z M866.7,439.2c-0.5-0.2-0.9-0.5-1.1-0.9c-0.3-0.4-0.4-0.8-0.5-1.4h1.1
					c0,0.3,0.1,0.6,0.3,0.8c0.2,0.2,0.4,0.4,0.7,0.6c0.3,0.1,0.7,0.2,1.3,0.2c0.6,0,1-0.1,1.4-0.2c0.3-0.1,0.6-0.4,0.8-0.7
					c0.2-0.3,0.2-0.7,0.2-1.2v-7h1.1v7c0,0.6-0.1,1.2-0.3,1.6c-0.2,0.4-0.6,0.8-1.1,1c-0.5,0.2-1.2,0.3-2,0.3
					C867.8,439.5,867.2,439.4,866.7,439.2z M869.8,435.2c0.3-0.2,0.6-0.5,0.8-0.9c0.2-0.4,0.3-0.9,0.3-1.5c0-0.6-0.1-1.1-0.3-1.5
					c-0.2-0.4-0.5-0.7-0.8-0.9c-0.3-0.2-0.8-0.3-1.3-0.3c-0.5,0-1,0.1-1.3,0.3c-0.3,0.2-0.6,0.5-0.8,0.8c-0.2,0.4-0.3,0.9-0.3,1.5
					c0,0.6,0.1,1.1,0.3,1.5c0.2,0.4,0.4,0.7,0.8,0.9c0.3,0.2,0.8,0.3,1.3,0.3C869,435.5,869.5,435.4,869.8,435.2z"/>
			</g>
		</g>
	</g>
	<g transform="translate(-400,258)">
		<g>
			<g class="st7">
				<path class="st5" d="M923.6,436.5l-0.9-2.4H918l-0.9,2.4h-1.2l3.6-9.3h1.7l3.6,9.3H923.6z M918.3,433.2h3.9l-2-5.2L918.3,433.2z
					"/>
				<path class="st5" d="M926.9,436c-0.5-0.3-0.8-0.7-1.1-1.2c-0.2-0.5-0.4-1.2-0.4-1.9c0-1.1,0.3-2,0.8-2.6
					c0.5-0.6,1.4-0.9,2.4-0.9c1,0,1.8,0.3,2.3,0.9s0.8,1.5,0.8,2.6c0,0.8-0.1,1.4-0.3,2c-0.2,0.5-0.6,0.9-1,1.2s-1,0.4-1.7,0.4
					C928,436.4,927.4,436.2,926.9,436z M927.2,439.2c-0.5-0.2-0.9-0.5-1.1-0.9c-0.3-0.4-0.4-0.8-0.5-1.4h1.1c0,0.3,0.1,0.6,0.3,0.8
					c0.2,0.2,0.4,0.4,0.7,0.6c0.3,0.1,0.7,0.2,1.3,0.2c0.6,0,1-0.1,1.4-0.2c0.3-0.1,0.6-0.4,0.8-0.7c0.2-0.3,0.2-0.7,0.2-1.2v-7h1.1
					v7c0,0.6-0.1,1.2-0.3,1.6c-0.2,0.4-0.6,0.8-1.1,1c-0.5,0.2-1.2,0.3-2,0.3C928.3,439.5,927.7,439.4,927.2,439.2z M930.3,435.2
					c0.3-0.2,0.6-0.5,0.8-0.9c0.2-0.4,0.3-0.9,0.3-1.5c0-0.6-0.1-1.1-0.3-1.5c-0.2-0.4-0.5-0.7-0.8-0.9c-0.3-0.2-0.8-0.3-1.3-0.3
					c-0.5,0-1,0.1-1.3,0.3c-0.3,0.2-0.6,0.5-0.8,0.8c-0.2,0.4-0.3,0.9-0.3,1.5c0,0.6,0.1,1.1,0.3,1.5c0.2,0.4,0.4,0.7,0.8,0.9
					c0.3,0.2,0.8,0.3,1.3,0.3C929.5,435.5,929.9,435.4,930.3,435.2z"/>
				<path class="st5" d="M935.6,436.3c-0.5-0.3-0.9-0.8-1.2-1.3s-0.4-1.2-0.4-1.9c0-0.7,0.1-1.3,0.4-1.9s0.7-1,1.2-1.3
					s1.2-0.5,2-0.5c0.8,0,1.4,0.2,2,0.5s0.9,0.8,1.2,1.3s0.4,1.2,0.4,1.9c0,0.7-0.1,1.4-0.4,1.9c-0.3,0.6-0.7,1-1.2,1.3
					c-0.5,0.3-1.2,0.5-2,0.5C936.8,436.8,936.1,436.6,935.6,436.3z M935.4,434.6c0.2,0.4,0.4,0.7,0.8,0.9c0.4,0.2,0.8,0.3,1.4,0.3
					c0.5,0,1-0.1,1.3-0.3c0.4-0.2,0.6-0.5,0.8-0.9s0.3-1,0.3-1.6c0-0.7-0.1-1.2-0.3-1.6c-0.2-0.4-0.4-0.7-0.8-0.9
					c-0.4-0.2-0.8-0.3-1.3-0.3c-0.5,0-1,0.1-1.4,0.3c-0.4,0.2-0.6,0.5-0.8,0.9c-0.2,0.4-0.3,0.9-0.3,1.6
					C935.1,433.7,935.2,434.2,935.4,434.6z"/>
			</g>
		</g>
	</g>
	<g transform="translate(-400,258)">
		<g>
			<g class="st7">
				<path class="st5" d="M987.4,434.7c0.2,0.4,0.5,0.7,0.9,0.9s1,0.3,1.7,0.3c0.6,0,1.1-0.1,1.5-0.2c0.4-0.1,0.6-0.3,0.8-0.6
					s0.2-0.6,0.2-1c0-0.5-0.1-0.9-0.4-1.1c-0.3-0.3-0.7-0.4-1.3-0.5l-2.2-0.3c-0.8-0.1-1.4-0.4-1.8-0.8c-0.4-0.4-0.6-1-0.6-1.7
					c0-0.5,0.1-1,0.4-1.4s0.7-0.7,1.2-1s1.2-0.3,2-0.3c0.8,0,1.5,0.1,2,0.4c0.6,0.2,1,0.6,1.3,1.1s0.5,1,0.5,1.6h-1.1
					c0-0.4-0.2-0.8-0.4-1.1c-0.2-0.3-0.5-0.6-0.9-0.7c-0.4-0.2-0.9-0.3-1.4-0.3c-0.8,0-1.4,0.2-1.8,0.5c-0.4,0.3-0.6,0.7-0.6,1.3
					c0,0.4,0.1,0.7,0.3,1c0.2,0.3,0.6,0.4,1.1,0.5l2.3,0.3c0.9,0.1,1.5,0.4,1.9,0.8c0.4,0.4,0.6,1,0.6,1.7c0,0.6-0.1,1.1-0.4,1.5
					c-0.3,0.4-0.7,0.7-1.2,0.9c-0.6,0.2-1.3,0.3-2.1,0.3c-1,0-1.8-0.1-2.4-0.4c-0.6-0.3-1-0.7-1.3-1.2s-0.4-1.1-0.4-1.7h1.1
					C987.1,433.8,987.2,434.3,987.4,434.7z"/>
				<path class="st5" d="M996.5,436.3c-0.5-0.3-0.9-0.8-1.2-1.3c-0.3-0.6-0.4-1.2-0.4-1.9c0-0.7,0.1-1.3,0.4-1.9s0.7-1,1.2-1.3
					c0.5-0.3,1.2-0.5,1.9-0.5c0.7,0,1.3,0.1,1.8,0.4c0.5,0.3,0.9,0.7,1.1,1.2c0.3,0.5,0.4,1.1,0.4,1.8v0.2c0,0.1,0,0.2,0,0.3h-5.9
					v-0.8h5.3l-0.5,0.5c0-0.6,0-1.2-0.2-1.6s-0.4-0.7-0.7-0.9c-0.3-0.2-0.8-0.3-1.2-0.3c-0.5,0-1,0.1-1.3,0.3
					c-0.4,0.2-0.6,0.5-0.8,0.9s-0.3,1-0.3,1.7s0.1,1.2,0.3,1.7c0.2,0.4,0.5,0.7,0.8,0.9c0.4,0.2,0.8,0.3,1.3,0.3
					c0.5,0,0.8-0.1,1.1-0.2c0.3-0.1,0.5-0.3,0.7-0.5c0.2-0.2,0.3-0.5,0.4-0.8h1c0,0.4-0.2,0.8-0.4,1.1s-0.6,0.7-1.1,0.9
					c-0.5,0.2-1.1,0.3-1.8,0.3C997.6,436.8,997,436.6,996.5,436.3z"/>
				<path class="st5" d="M1004.2,436.4c-0.2-0.1-0.4-0.3-0.5-0.5c-0.1-0.2-0.1-0.5-0.1-0.9v-4.5h-1.4v-0.6l1.5-0.3l0.4-1.5h0.6v1.6
					h2.3v0.9h-2.3v5.2h2.2v0.9h-1.7C1004.8,436.5,1004.5,436.5,1004.2,436.4z"/>
			</g>
		</g>
	</g>
	<g transform="translate(-400,258)">
		<g>
			<g class="st7">
				<path class="st5" d="M1056.5,436.2c-0.7-0.4-1.2-1-1.6-1.7c-0.3-0.7-0.5-1.6-0.5-2.5c0-1,0.2-1.8,0.5-2.5
					c0.3-0.7,0.9-1.3,1.6-1.7s1.6-0.6,2.6-0.6c1.1,0,1.9,0.2,2.6,0.6s1.2,1,1.5,1.7c0.3,0.7,0.5,1.6,0.5,2.5c0,1-0.2,1.8-0.5,2.5
					c-0.3,0.7-0.9,1.3-1.5,1.7s-1.6,0.6-2.6,0.6C1058.1,436.8,1057.2,436.6,1056.5,436.2z M1056,434.1c0.2,0.6,0.6,1,1.1,1.3
					s1.2,0.4,2,0.4c0.8,0,1.4-0.1,2-0.4s0.9-0.7,1.1-1.3s0.4-1.3,0.4-2.2c0-0.9-0.1-1.6-0.4-2.2c-0.2-0.6-0.6-1-1.1-1.3
					s-1.2-0.4-2-0.4c-0.8,0-1.5,0.1-2,0.4s-0.9,0.7-1.1,1.3c-0.2,0.6-0.4,1.3-0.4,2.2C1055.7,432.8,1055.8,433.5,1056,434.1z"/>
				<path class="st5" d="M1066.5,436.4c-0.2-0.1-0.4-0.3-0.5-0.5c-0.1-0.2-0.1-0.5-0.1-0.9v-4.5h-1.4v-0.6l1.5-0.3l0.4-1.5h0.6v1.6
					h3.9v0.9h-3.9v5.2h2.2v0.9h-1.7C1067.1,436.5,1066.7,436.5,1066.5,436.4z M1071.1,436.4c-0.2-0.1-0.4-0.3-0.5-0.5
					c-0.1-0.2-0.1-0.5-0.1-0.9v-4.5h-1.4v-0.6l1.4-0.2l0.5-1.7h0.6v1.6h2.3v0.9h-2.3v5.2h2.2v0.9h-1.7
					C1071.7,436.5,1071.3,436.5,1071.1,436.4z"/>
			</g>
		</g>
	</g>
	<g transform="translate(-400,258)">
		<g>
			<g class="st7">
				<path class="st5" d="M1128.3,427.2h1.2v9.3h-2l-4.3-7.3c-0.3-0.5-0.5-0.9-0.6-1.2v8.5h-1.2v-9.3h2l4.3,7.3
					c0.2,0.3,0.3,0.7,0.6,1.2V427.2z"/>
				<path class="st5" d="M1132.5,436.3c-0.5-0.3-0.9-0.8-1.2-1.3s-0.4-1.2-0.4-1.9c0-0.7,0.1-1.3,0.4-1.9s0.7-1,1.2-1.3
					s1.2-0.5,2-0.5c0.8,0,1.4,0.2,2,0.5s0.9,0.8,1.2,1.3s0.4,1.2,0.4,1.9c0,0.7-0.1,1.4-0.4,1.9c-0.3,0.6-0.7,1-1.2,1.3
					c-0.5,0.3-1.2,0.5-2,0.5C1133.7,436.8,1133.1,436.6,1132.5,436.3z M1132.3,434.6c0.2,0.4,0.4,0.7,0.8,0.9
					c0.4,0.2,0.8,0.3,1.4,0.3c0.5,0,1-0.1,1.3-0.3c0.4-0.2,0.6-0.5,0.8-0.9s0.3-1,0.3-1.6c0-0.7-0.1-1.2-0.3-1.6
					c-0.2-0.4-0.4-0.7-0.8-0.9c-0.4-0.2-0.8-0.3-1.3-0.3c-0.5,0-1,0.1-1.4,0.3c-0.4,0.2-0.6,0.5-0.8,0.9c-0.2,0.4-0.3,0.9-0.3,1.6
					C1132.1,433.7,1132.2,434.2,1132.3,434.6z"/>
				<path class="st5" d="M1139.9,429.5l2.6,6.6h-0.5l2.6-6.6h1.1l-2.8,7h-1.5l-2.8-7H1139.9z"/>
			</g>
		</g>
	</g>
	<g transform="translate(-400,258)">
		<g>
			<g class="st7">
				<path class="st5" d="M1192.4,427.2h1.2v9.3h-1.2V427.2z M1193.1,435.6h3c0.8,0,1.5-0.1,2-0.4c0.5-0.3,0.9-0.7,1.1-1.3
					s0.3-1.2,0.3-2.1s-0.1-1.5-0.3-2s-0.6-1-1.1-1.2c-0.5-0.3-1.2-0.4-2-0.4h-3v-0.9h3.2c1,0,1.8,0.2,2.5,0.6c0.7,0.4,1.1,1,1.4,1.7
					c0.3,0.7,0.5,1.5,0.5,2.4c0,0.9-0.2,1.7-0.5,2.4c-0.3,0.7-0.8,1.3-1.4,1.7c-0.7,0.4-1.5,0.6-2.5,0.6h-3.2V435.6z"/>
				<path class="st5" d="M1202,427.2h1.5v1.2h-1.5V427.2z M1202.2,429.5h1.1v7h-1.1V429.5z"/>
				<path class="st5" d="M1205.2,431.1c0.3-0.6,0.7-1,1.2-1.3c0.5-0.3,1.2-0.5,1.9-0.5c0.7,0,1.3,0.1,1.8,0.3s0.8,0.6,1.1,1
					c0.3,0.4,0.4,0.9,0.4,1.5h-1.1c-0.1-0.4-0.2-0.7-0.4-1c-0.2-0.3-0.4-0.5-0.7-0.6c-0.3-0.1-0.7-0.2-1.1-0.2c-0.5,0-1,0.1-1.3,0.3
					c-0.4,0.2-0.6,0.5-0.8,0.9c-0.2,0.4-0.3,1-0.3,1.6c0,0.7,0.1,1.2,0.3,1.6s0.5,0.7,0.8,0.9c0.4,0.2,0.8,0.3,1.3,0.3
					c0.7,0,1.2-0.2,1.6-0.5c0.4-0.3,0.6-0.8,0.7-1.5h1.1c0,0.6-0.2,1-0.4,1.5c-0.3,0.4-0.7,0.8-1.2,1s-1.1,0.4-1.8,0.4
					c-0.8,0-1.4-0.2-1.9-0.5c-0.5-0.3-0.9-0.8-1.2-1.3c-0.3-0.6-0.4-1.2-0.4-1.9S1204.9,431.7,1205.2,431.1z"/>
			</g>
		</g>
	</g>
</g>
<g>
	<g>
		<g>
			<path class="st5" d="M30.7,667.5c-0.6-0.4-1.1-1-1.4-1.7c-0.3-0.7-0.5-1.6-0.5-2.5c0-1,0.2-1.8,0.5-2.5c0.3-0.7,0.8-1.3,1.4-1.7
				s1.4-0.6,2.4-0.6c0.9,0,1.7,0.2,2.4,0.6c0.6,0.4,1.1,1,1.4,1.7c0.3,0.7,0.5,1.6,0.5,2.5s-0.2,1.8-0.5,2.5
				c-0.3,0.7-0.8,1.3-1.4,1.7c-0.6,0.4-1.4,0.6-2.4,0.6C32.1,668.2,31.3,668,30.7,667.5z M30.4,665.5c0.2,0.6,0.5,1,1,1.3
				c0.4,0.3,1,0.4,1.7,0.4c0.7,0,1.3-0.1,1.7-0.4s0.8-0.7,1-1.3s0.3-1.3,0.3-2.2c0-0.9-0.1-1.6-0.3-2.2c-0.2-0.6-0.5-1-1-1.3
				s-1-0.4-1.7-0.4c-0.7,0-1.3,0.1-1.7,0.4c-0.4,0.3-0.8,0.7-1,1.3c-0.2,0.6-0.3,1.3-0.3,2.2C30,664.1,30.1,664.9,30.4,665.5z"/>
		</g>
	</g>
</g>
<g>
	<g>
		<g>
			<path class="st5" d="M31.4,586.3c0.2,0.3,0.4,0.5,0.8,0.7c0.4,0.2,0.8,0.2,1.4,0.2c0.6,0,1.1-0.1,1.4-0.3
				c0.4-0.2,0.7-0.5,0.8-0.8c0.2-0.3,0.3-0.8,0.3-1.2c0-0.5-0.1-0.9-0.3-1.3c-0.2-0.4-0.4-0.6-0.8-0.8c-0.3-0.2-0.7-0.3-1.2-0.3
				c-0.5,0-1,0.1-1.4,0.3s-0.8,0.5-1.1,0.9h-1.1l0.3-5.2h1.1l-0.3,4.2c0.3-0.3,0.7-0.6,1.1-0.8c0.4-0.2,1-0.3,1.6-0.3
				c0.7,0,1.2,0.1,1.7,0.4c0.5,0.3,0.9,0.6,1.1,1.1c0.3,0.5,0.4,1,0.4,1.7c0,1-0.3,1.8-0.9,2.4c-0.6,0.6-1.6,0.9-2.9,0.9
				c-0.8,0-1.5-0.1-2-0.4c-0.5-0.2-1-0.6-1.2-1c-0.3-0.4-0.4-0.9-0.5-1.5h1.2C31.1,585.7,31.2,586,31.4,586.3z M37,578.6v1h-5.9v-1
				H37z"/>
		</g>
	</g>
</g>
<g>
	<g>
		<g>
			<path class="st5" d="M22,507h2.2v-7.4H22v-1h2c0.5,0,0.8,0.1,1,0.3c0.2,0.2,0.3,0.5,0.3,0.9v7.2h2v1H22V507z"/>
			<path class="st5" d="M30.3,507.5c-0.6-0.4-1.1-1-1.4-1.7c-0.3-0.7-0.5-1.6-0.5-2.5c0-1,0.2-1.8,0.5-2.5c0.3-0.7,0.8-1.3,1.4-1.7
				s1.4-0.6,2.4-0.6c0.9,0,1.7,0.2,2.4,0.6c0.6,0.4,1.1,1,1.4,1.7c0.3,0.7,0.5,1.6,0.5,2.5s-0.2,1.8-0.5,2.5
				c-0.3,0.7-0.8,1.3-1.4,1.7c-0.6,0.4-1.4,0.6-2.4,0.6C31.7,508.2,30.9,508,30.3,507.5z M30,505.5c0.2,0.6,0.5,1,1,1.3
				c0.4,0.3,1,0.4,1.7,0.4c0.7,0,1.3-0.1,1.7-0.4s0.8-0.7,1-1.3s0.3-1.3,0.3-2.2c0-0.9-0.1-1.6-0.3-2.2c-0.2-0.6-0.5-1-1-1.3
				s-1-0.4-1.7-0.4c-0.7,0-1.3,0.1-1.7,0.4c-0.4,0.3-0.8,0.7-1,1.3c-0.2,0.6-0.3,1.3-0.3,2.2C29.7,504.1,29.8,504.9,30,505.5z"/>
		</g>
	</g>
</g>
<g>
	<g>
		<g>
			<path class="st5" d="M22.8,427H25v-7.4h-2.2v-1h2c0.5,0,0.8,0.1,1,0.3c0.2,0.2,0.3,0.5,0.3,0.9v7.2h2v1h-5.4V427z"/>
			<path class="st5" d="M30.8,426.3c0.2,0.3,0.4,0.5,0.8,0.7c0.4,0.2,0.8,0.2,1.4,0.2c0.6,0,1.1-0.1,1.4-0.3
				c0.4-0.2,0.7-0.5,0.8-0.8c0.2-0.3,0.3-0.8,0.3-1.2c0-0.5-0.1-0.9-0.3-1.3c-0.2-0.4-0.4-0.6-0.8-0.8c-0.3-0.2-0.7-0.3-1.2-0.3
				c-0.5,0-1,0.1-1.4,0.3s-0.8,0.5-1.1,0.9h-1.1l0.3-5.2H31l-0.3,4.2c0.3-0.3,0.7-0.6,1.1-0.8c0.4-0.2,1-0.3,1.6-0.3
				c0.7,0,1.2,0.1,1.7,0.4c0.5,0.3,0.9,0.6,1.1,1.1c0.3,0.5,0.4,1,0.4,1.7c0,1-0.3,1.8-0.9,2.4c-0.6,0.6-1.6,0.9-2.9,0.9
				c-0.8,0-1.5-0.1-2-0.4c-0.5-0.2-1-0.6-1.2-1c-0.3-0.4-0.4-0.9-0.5-1.5h1.2C30.5,425.7,30.6,426,30.8,426.3z M36.4,418.6v1h-5.9
				v-1H36.4z"/>
		</g>
	</g>
</g>
<g>
	<g>
		<g>
			<path class="st5" d="M19,347l4.7-3.9c0.5-0.4,0.8-0.7,1-1c0.2-0.3,0.3-0.7,0.3-1.1c0-0.5-0.2-0.9-0.5-1.2
				c-0.3-0.3-0.8-0.5-1.5-0.5c-0.6,0-1.1,0.1-1.5,0.3c-0.4,0.2-0.7,0.6-0.9,1c-0.2,0.4-0.3,1-0.3,1.6H19c0-0.8,0.2-1.4,0.4-2
				s0.7-1.1,1.2-1.4c0.6-0.3,1.3-0.5,2.2-0.5c0.8,0,1.4,0.1,1.9,0.4s0.8,0.6,1.1,0.9c0.2,0.4,0.3,0.8,0.3,1.3c0,0.6-0.2,1.1-0.5,1.6
				c-0.3,0.5-0.9,1.1-1.7,1.7l-3.2,2.6h5.6v1H19V347z"/>
			<path class="st5" d="M29.6,347.5c-0.6-0.4-1.1-1-1.4-1.7c-0.3-0.7-0.5-1.6-0.5-2.5c0-1,0.2-1.8,0.5-2.5c0.3-0.7,0.8-1.3,1.4-1.7
				s1.4-0.6,2.4-0.6c0.9,0,1.7,0.2,2.4,0.6c0.6,0.4,1.1,1,1.4,1.7c0.3,0.7,0.5,1.6,0.5,2.5s-0.2,1.8-0.5,2.5
				c-0.3,0.7-0.8,1.3-1.4,1.7c-0.6,0.4-1.4,0.6-2.4,0.6C31,348.2,30.2,348,29.6,347.5z M29.3,345.5c0.2,0.6,0.5,1,1,1.3
				c0.4,0.3,1,0.4,1.7,0.4c0.7,0,1.3-0.1,1.7-0.4s0.8-0.7,1-1.3s0.3-1.3,0.3-2.2c0-0.9-0.1-1.6-0.3-2.2c-0.2-0.6-0.5-1-1-1.3
				s-1-0.4-1.7-0.4c-0.7,0-1.3,0.1-1.7,0.4c-0.4,0.3-0.8,0.7-1,1.3c-0.2,0.6-0.3,1.3-0.3,2.2C29,344.1,29.1,344.9,29.3,345.5z"/>
		</g>
	</g>
</g>
<g>
	<g>
		<g>
			<path class="st5" d="M20,267l4.7-3.9c0.5-0.4,0.8-0.7,1-1c0.2-0.3,0.3-0.7,0.3-1.1c0-0.5-0.2-0.9-0.5-1.2
				c-0.3-0.3-0.8-0.5-1.5-0.5c-0.6,0-1.1,0.1-1.5,0.3c-0.4,0.2-0.7,0.6-0.9,1c-0.2,0.4-0.3,1-0.3,1.6H20c0-0.8,0.2-1.4,0.4-2
				s0.7-1.1,1.2-1.4c0.6-0.3,1.3-0.5,2.2-0.5c0.8,0,1.4,0.1,1.9,0.4s0.8,0.6,1.1,0.9c0.2,0.4,0.3,0.8,0.3,1.3c0,0.6-0.2,1.1-0.5,1.6
				c-0.3,0.5-0.9,1.1-1.7,1.7l-3.2,2.6h5.6v1H20V267z"/>
			<path class="st5" d="M30.3,266.3c0.2,0.3,0.4,0.5,0.8,0.7c0.4,0.2,0.8,0.2,1.4,0.2c0.6,0,1.1-0.1,1.4-0.3
				c0.4-0.2,0.7-0.5,0.8-0.8c0.2-0.3,0.3-0.8,0.3-1.2c0-0.5-0.1-0.9-0.3-1.3c-0.2-0.4-0.4-0.6-0.8-0.8c-0.3-0.2-0.7-0.3-1.2-0.3
				c-0.5,0-1,0.1-1.4,0.3s-0.8,0.5-1.1,0.9h-1.1l0.3-5.2h1.1l-0.3,4.2c0.3-0.3,0.7-0.6,1.1-0.8c0.4-0.2,1-0.3,1.6-0.3
				c0.7,0,1.2,0.1,1.7,0.4c0.5,0.3,0.9,0.6,1.1,1.1c0.3,0.5,0.4,1,0.4,1.7c0,1-0.3,1.8-0.9,2.4c-0.6,0.6-1.6,0.9-2.9,0.9
				c-0.8,0-1.5-0.1-2-0.4c-0.5-0.2-1-0.6-1.2-1c-0.3-0.4-0.4-0.9-0.5-1.5H30C30,265.7,30.1,266,30.3,266.3z M35.9,258.6v1H30v-1
				H35.9z"/>
		</g>
	</g>
</g>
<g>
	<g>
		<g>
			<path class="st5" d="M20.2,186.1c0.2,0.3,0.5,0.6,0.9,0.8s0.8,0.3,1.4,0.3c0.8,0,1.5-0.2,1.9-0.6s0.6-0.9,0.6-1.7
				c0-0.6-0.2-1.1-0.5-1.4c-0.3-0.4-0.8-0.5-1.5-0.5c-0.3,0-0.7,0-0.9,0.1s-0.5,0.2-0.8,0.4l-0.6-0.7l3.7-3.2H19v-1h6.7v1l-3.2,2.9
				c0.3-0.1,0.6-0.1,1-0.1c0.5,0,0.9,0.1,1.3,0.3c0.4,0.2,0.7,0.5,1,0.9c0.3,0.4,0.4,0.9,0.4,1.5c0,0.6-0.1,1.1-0.4,1.6
				c-0.3,0.5-0.7,0.9-1.2,1.2c-0.6,0.3-1.3,0.5-2.2,0.5c-0.8,0-1.5-0.1-2-0.4c-0.6-0.3-1-0.7-1.3-1.2c-0.3-0.5-0.4-1.1-0.4-1.7h1.2
				C19.9,185.3,20,185.7,20.2,186.1z"/>
			<path class="st5" d="M29.4,187.5c-0.6-0.4-1.1-1-1.4-1.7c-0.3-0.7-0.5-1.6-0.5-2.5c0-1,0.2-1.8,0.5-2.5c0.3-0.7,0.8-1.3,1.4-1.7
				s1.4-0.6,2.4-0.6c0.9,0,1.7,0.2,2.4,0.6c0.6,0.4,1.1,1,1.4,1.7c0.3,0.7,0.5,1.6,0.5,2.5s-0.2,1.8-0.5,2.5
				c-0.3,0.7-0.8,1.3-1.4,1.7c-0.6,0.4-1.4,0.6-2.4,0.6C30.9,188.2,30.1,188,29.4,187.5z M29.1,185.5c0.2,0.6,0.5,1,1,1.3
				c0.4,0.3,1,0.4,1.7,0.4c0.7,0,1.3-0.1,1.7-0.4s0.8-0.7,1-1.3s0.3-1.3,0.3-2.2c0-0.9-0.1-1.6-0.3-2.2c-0.2-0.6-0.5-1-1-1.3
				s-1-0.4-1.7-0.4c-0.7,0-1.3,0.1-1.7,0.4c-0.4,0.3-0.8,0.7-1,1.3c-0.2,0.6-0.3,1.3-0.3,2.2C28.8,184.1,28.9,184.9,29.1,185.5z"/>
		</g>
	</g>
</g>
<g>
	<path class="st8" d="M52.4,670.2V104.7"/>
	<line class="st8" x1="52.4" y1="665.2" x2="46.4" y2="665.2"/>
	<line class="st8" x1="52.4" y1="584.7" x2="46.4" y2="584.7"/>
	<line class="st8" x1="52.4" y1="504.7" x2="46.4" y2="504.7"/>
	<line class="st8" x1="52.4" y1="424.7" x2="46.4" y2="424.7"/>
	<line class="st8" x1="52.4" y1="344.7" x2="46.4" y2="344.7"/>
	<line class="st8" x1="52.4" y1="264.7" x2="46.4" y2="264.7"/>
	<line class="st8" x1="52.4" y1="184.7" x2="46.4" y2="184.7"/>
	<line class="st8" x1="52.4" y1="104.7" x2="46.4" y2="104.7"/>
</g>
<g>
	<g>
		<g>
			<path class="st5" d="M21.2,106.1c0.2,0.3,0.5,0.6,0.9,0.8s0.8,0.3,1.4,0.3c0.8,0,1.5-0.2,1.9-0.6s0.6-0.9,0.6-1.7
				c0-0.6-0.2-1.1-0.5-1.4c-0.3-0.4-0.8-0.5-1.5-0.5c-0.3,0-0.7,0-0.9,0.1s-0.5,0.2-0.8,0.4l-0.6-0.7l3.7-3.2H20v-1h6.7v1l-3.2,2.9
				c0.3-0.1,0.6-0.1,1-0.1c0.5,0,0.9,0.1,1.3,0.3c0.4,0.2,0.7,0.5,1,0.9c0.3,0.4,0.4,0.9,0.4,1.5c0,0.6-0.1,1.1-0.4,1.6
				c-0.3,0.5-0.7,0.9-1.2,1.2c-0.6,0.3-1.3,0.5-2.2,0.5c-0.8,0-1.5-0.1-2-0.4c-0.6-0.3-1-0.7-1.3-1.2c-0.3-0.5-0.4-1.1-0.4-1.7h1.2
				C20.9,105.3,21,105.7,21.2,106.1z"/>
			<path class="st5" d="M30.1,106.3c0.2,0.3,0.4,0.5,0.8,0.7c0.4,0.2,0.8,0.2,1.4,0.2c0.6,0,1.1-0.1,1.4-0.3
				c0.4-0.2,0.7-0.5,0.8-0.8c0.2-0.3,0.3-0.8,0.3-1.2c0-0.5-0.1-0.9-0.3-1.3c-0.2-0.4-0.4-0.6-0.8-0.8c-0.3-0.2-0.7-0.3-1.2-0.3
				c-0.5,0-1,0.1-1.4,0.3s-0.8,0.5-1.1,0.9H29l0.3-5.2h1.1l-0.3,4.2c0.3-0.3,0.7-0.6,1.1-0.8c0.4-0.2,1-0.3,1.6-0.3
				c0.7,0,1.2,0.1,1.7,0.4c0.5,0.3,0.9,0.6,1.1,1.1c0.3,0.5,0.4,1,0.4,1.7c0,1-0.3,1.8-0.9,2.4c-0.6,0.6-1.6,0.9-2.9,0.9
				c-0.8,0-1.5-0.1-2-0.4c-0.5-0.2-1-0.6-1.2-1c-0.3-0.4-0.4-0.9-0.5-1.5h1.2C29.9,105.7,30,106,30.1,106.3z M35.7,98.6v1h-5.9v-1
				H35.7z"/>
		</g>
	</g>
</g>
<g>
	<line class="st8" x1="52" y1="665.2" x2="802" y2="665.2"/>
	<line class="st8" x1="120.2" y1="665.2" x2="120.2" y2="670.2"/>
	<line class="st8" x1="188.4" y1="665.2" x2="188.4" y2="670.2"/>
	<line class="st8" x1="256.6" y1="665.2" x2="256.6" y2="670.2"/>
	<line class="st8" x1="324.8" y1="665.2" x2="324.8" y2="670.2"/>
	<line class="st8" x1="393" y1="665.2" x2="393" y2="670.2"/>
	<line class="st8" x1="461.1" y1="665.2" x2="461.1" y2="670.2"/>
	<line class="st8" x1="529.3" y1="665.2" x2="529.3" y2="670.2"/>
	<line class="st8" x1="597.5" y1="665.2" x2="597.5" y2="670.2"/>
	<line class="st8" x1="665.7" y1="665.2" x2="665.7" y2="670.2"/>
	<line class="st8" x1="733.9" y1="665.2" x2="733.9" y2="670.2"/>
	<line class="st8" x1="802" y1="665.2" x2="802" y2="670.2"/>
	<line class="st8" x1="802" y1="665.2" x2="802" y2="670.2"/>
</g>
<g>
	<g>
		<line class="st9" x1="52.4" y1="104.7" x2="58.4" y2="104.7"/>
		<line class="st10" x1="68.4" y1="104.7" x2="789.8" y2="104.7"/>
		<line class="st9" x1="794.8" y1="104.7" x2="800.8" y2="104.7"/>
	</g>
</g>
<line class="st11" x1="52.4" y1="184.7" x2="800.8" y2="184.7"/>
<line class="st11" x1="52.4" y1="264.7" x2="800.8" y2="264.7"/>
<line class="st11" x1="52.4" y1="344.7" x2="800.8" y2="344.7"/>
<line class="st11" x1="52.4" y1="424.7" x2="800.8" y2="424.7"/>
<line class="st11" x1="52.4" y1="504.4" x2="800.8" y2="504.4"/>
<line class="st11" x1="52.4" y1="584.7" x2="800.8" y2="584.7"/>
<g>
	<g>
		<line class="st9" x1="52.4" y1="657.2" x2="58.4" y2="657.2"/>
		<line class="st10" x1="68.4" y1="657.2" x2="789.8" y2="657.2"/>
		<line class="st9" x1="794.8" y1="657.2" x2="800.8" y2="657.2"/>
	</g>
</g>
<g>
	<g>
		<g>
			<path class="st12" d="M58.6,227.1c-0.9-1.1-1.9-2.1-2.9-3.2c-1.1,1-2.1,2-3.1,3c1,1.1,2,2.1,2.9,3.2
				C56.5,229.1,57.6,228.1,58.6,227.1z"/>
		</g>
		<g>
			<path class="st12" d="M70.5,228.8c-0.8-1.2-1.5-2.4-2.4-3.6c-1.2,0.8-2.4,1.7-3.5,2.5c0.8,1.2,1.6,2.4,2.4,3.6
				C68.1,230.5,69.3,229.6,70.5,228.8z"/>
		</g>
		<g>
			<path class="st12" d="M81.9,232.6c-0.5-1.3-1.1-2.6-1.7-4c-1.3,0.6-2.6,1.2-3.9,1.8c0.6,1.3,1.2,2.7,1.7,4
				C79.2,233.8,80.5,233.2,81.9,232.6z"/>
		</g>
		<g>
			<path class="st12" d="M92.8,237.5c-0.5-1.4-1-2.7-1.5-4c-1.3,0.6-2.6,1.1-4,1.6c0.5,1.3,1,2.7,1.5,4
				C90.2,238.6,91.5,238,92.8,237.5z"/>
		</g>
		<g>
			<path class="st12" d="M104.3,241c-0.8-1.3-1.5-2.5-2.1-3.7c-1.2,0.8-2.4,1.5-3.7,2.2c0.7,1.2,1.4,2.5,2.1,3.7
				C101.9,242.5,103.1,241.8,104.3,241z"/>
		</g>
		<g>
			<path class="st12" d="M116.2,242.4c-1-1.1-1.9-2.2-2.7-3.3c-1,1-2.1,1.9-3.2,2.8c0.9,1.1,1.8,2.2,2.7,3.3
				C114.1,244.3,115.1,243.4,116.2,242.4z"/>
		</g>
		<g>
			<path class="st12" d="M128.2,242.2c-1.1-1-2.2-1.9-3.2-2.9c-0.9,1.1-1.8,2.2-2.8,3.2c1,1,2.1,1.9,3.2,2.9
				C126.3,244.3,127.3,243.3,128.2,242.2z"/>
		</g>
		<g>
			<path class="st12" d="M139.9,239.8c-1.3-0.7-2.5-1.4-3.7-2.2c-0.7,1.2-1.4,2.5-2.2,3.7c1.2,0.8,2.4,1.6,3.7,2.3
				C138.6,242.4,139.3,241.1,139.9,239.8z"/>
		</g>
		<g>
			<path class="st12" d="M150.9,235c-1.4-0.5-2.7-0.9-4.1-1.4c-0.4,1.4-0.8,2.7-1.3,4.1c1.3,0.5,2.7,1,4.1,1.4
				C150,237.7,150.5,236.3,150.9,235z"/>
		</g>
		<g>
			<path class="st12" d="M161.4,229.2c-1.3-0.4-2.7-0.9-4.1-1.3c-0.4,1.4-0.8,2.8-1.2,4.2c1.4,0.4,2.8,0.8,4.1,1.3
				C160.6,231.9,161,230.5,161.4,229.2z"/>
		</g>
		<g>
			<path class="st12" d="M172.6,224.9c-1.2-0.7-2.5-1.5-3.8-2.1c-0.7,1.3-1.3,2.6-1.9,3.9c1.3,0.6,2.6,1.3,3.8,2
				C171.2,227.4,171.8,226.1,172.6,224.9z"/>
		</g>
		<g>
			<path class="st12" d="M184.4,223.2c-1.1-0.9-2.1-1.9-3.3-2.8c-0.9,1.1-1.8,2.2-2.7,3.4c1.1,0.9,2.2,1.9,3.3,2.8
				C182.6,225.4,183.5,224.3,184.4,223.2z"/>
		</g>
		<g>
			<path class="st12" d="M196.4,222.7c-1.1-1-2.2-1.9-3.2-2.9c-0.9,1.1-1.8,2.2-2.8,3.3c1,1,2.1,1.9,3.2,2.9
				C194.6,224.8,195.5,223.8,196.4,222.7z"/>
		</g>
		<g>
			<path class="st12" d="M208.1,220.2c-1.3-0.7-2.5-1.4-3.7-2.1c-0.6,1.2-1.4,2.5-2.1,3.7c1.2,0.8,2.4,1.6,3.7,2.3
				C206.8,222.8,207.5,221.5,208.1,220.2z"/>
		</g>
		<g>
			<path class="st12" d="M219,215.3c-1.4-0.4-2.7-0.9-4.1-1.4c-0.4,1.4-0.8,2.7-1.3,4.1c1.3,0.5,2.7,0.9,4.1,1.4
				C218.2,218,218.7,216.6,219,215.3z"/>
		</g>
		<g>
			<path class="st12" d="M229.5,209.4c-1.3-0.4-2.7-0.9-4.1-1.3c-0.4,1.4-0.8,2.8-1.1,4.2c1.4,0.4,2.8,0.8,4.1,1.3
				C228.7,212.2,229.1,210.8,229.5,209.4z"/>
		</g>
		<g>
			<path class="st12" d="M240.7,205.1c-1.2-0.7-2.5-1.4-3.8-2.1c-0.7,1.3-1.3,2.6-1.9,3.9c1.3,0.6,2.6,1.2,3.8,1.9
				C239.3,207.6,240,206.3,240.7,205.1z"/>
		</g>
		<g>
			<path class="st12" d="M252.5,203.3c-1.1-0.9-2.1-1.9-3.3-2.8c-0.9,1.1-1.8,2.2-2.7,3.4c1.1,0.9,2.2,1.8,3.3,2.8
				C250.7,205.6,251.6,204.4,252.5,203.3z"/>
		</g>
		<g>
			<polygon class="st12" points="264.5,203.4 261.6,200.2 258.5,203.2 261.4,206.4 			"/>
		</g>
		<g>
			<path class="st12" d="M276.5,204.5c-0.8-1.1-1.7-2.3-2.6-3.4c-1.1,0.9-2.3,1.8-3.3,2.7c0.9,1.1,1.8,2.3,2.6,3.4
				C274.2,206.3,275.3,205.4,276.5,204.5z"/>
		</g>
		<g>
			<path class="st12" d="M288.2,206.9c-0.7-1.2-1.5-2.5-2.2-3.7c-1.2,0.8-2.4,1.6-3.6,2.3c0.8,1.2,1.5,2.5,2.2,3.7
				C285.8,208.4,287,207.6,288.2,206.9z"/>
		</g>
		<g>
			<path class="st12" d="M299.9,209.7c-0.8-1.2-1.5-2.5-2.2-3.7c-1.2,0.8-2.4,1.6-3.6,2.3c0.7,1.2,1.5,2.4,2.2,3.7
				C297.5,211.3,298.7,210.5,299.9,209.7z"/>
		</g>
		<g>
			<path class="st12" d="M311.7,211.4c-0.9-1.1-1.8-2.3-2.6-3.4c-1.1,0.9-2.2,1.8-3.3,2.7c0.8,1.1,1.7,2.3,2.6,3.4
				C309.5,213.2,310.6,212.3,311.7,211.4z"/>
		</g>
		<g>
			<polygon class="st12" points="323.7,211.9 320.8,208.8 317.7,211.8 320.6,214.9 			"/>
		</g>
		<g>
			<path class="st12" d="M335.6,210.9c-1.2-0.8-2.3-1.6-3.4-2.5c-0.8,1.2-1.6,2.3-2.5,3.4c1.1,0.9,2.2,1.8,3.4,2.7
				C334,213.3,334.9,212.1,335.6,210.9z"/>
		</g>
		<g>
			<path class="st12" d="M346.8,206.7c-1.4-0.4-2.7-0.9-4-1.4c-0.4,1.3-0.9,2.6-1.5,4c1.3,0.6,2.7,1.2,4.1,1.6
				C346,209.4,346.5,208,346.8,206.7z"/>
		</g>
		<g>
			<path class="st12" d="M356.7,199.8c-1.4-0.2-2.9-0.4-4.2-0.6c-0.1,1.4-0.3,2.8-0.5,4.3c1.4,0.2,2.8,0.4,4.2,0.6
				C356.4,202.6,356.5,201.2,356.7,199.8z"/>
		</g>
		<g>
			<path class="st12" d="M366.1,192.3c-1.4-0.2-2.8-0.4-4.2-0.6c-0.2,1.4-0.4,2.9-0.5,4.3c1.4,0.2,2.9,0.4,4.2,0.6
				C365.7,195.2,365.9,193.8,366.1,192.3z"/>
		</g>
		<g>
			<path class="st12" d="M376.6,186.6c-1.3-0.6-2.7-1.2-4.1-1.6c-0.5,1.4-1,2.8-1.4,4.2c1.4,0.4,2.7,0.9,4,1.4
				C375.5,189.3,376,187.9,376.6,186.6z"/>
		</g>
		<g>
			<path class="st12" d="M388.3,184.1c-1.1-0.9-2.2-1.8-3.4-2.7c-0.9,1.2-1.7,2.4-2.5,3.6c1.2,0.8,2.3,1.6,3.4,2.5
				C386.5,186.3,387.3,185.2,388.3,184.1z"/>
		</g>
		<g>
			<path class="st12" d="M400.2,183.6c-1.1-1-2.1-2-3.1-3c-0.9,1.1-1.9,2.1-2.9,3.2c1,1,2.1,2,3.1,3
				C398.4,185.8,399.3,184.7,400.2,183.6z"/>
		</g>
		<g>
			<path class="st12" d="M412.1,181.8c-1.2-0.8-2.4-1.6-3.6-2.4c-0.7,1.2-1.5,2.4-2.3,3.6c1.1,0.8,2.3,1.6,3.6,2.4
				C410.6,184.2,411.4,183,412.1,181.8z"/>
		</g>
		<g>
			<path class="st12" d="M423.4,177.8c-1.3-0.6-2.6-1.2-3.9-1.8c-0.5,1.3-1.1,2.6-1.6,4c1.3,0.6,2.6,1.2,3.9,1.8
				C422.3,180.4,422.9,179.1,423.4,177.8z"/>
		</g>
		<g>
			<path class="st12" d="M434.4,173c-1.3-0.6-2.6-1.1-4-1.7c-0.5,1.3-1.1,2.7-1.6,4c1.3,0.5,2.7,1.1,4,1.7
				C433.3,175.7,433.8,174.3,434.4,173z"/>
		</g>
		<g>
			<path class="st12" d="M445.9,169.7c-1.2-0.8-2.4-1.6-3.6-2.3c-0.8,1.2-1.5,2.5-2.2,3.7c1.3,0.8,2.5,1.5,3.6,2.3
				C444.4,172.2,445.1,170.9,445.9,169.7z"/>
		</g>
		<g>
			<path class="st12" d="M457.8,168.5c-1-1-2.1-1.9-3.2-2.9c-1,1.1-1.9,2.2-2.8,3.3c1.1,1,2.2,1.9,3.2,2.9
				C455.9,170.6,456.9,169.6,457.8,168.5z"/>
		</g>
		<g>
			<polygon class="st12" points="469.8,168.5 466.9,165.4 463.8,168.4 466.8,171.6 			"/>
		</g>
		<g>
			<polygon class="st12" points="481.8,169 479,165.8 475.8,168.7 478.7,171.9 			"/>
		</g>
		<g>
			<polygon class="st12" points="493.8,170.1 491.1,166.7 487.8,169.5 490.5,172.9 			"/>
		</g>
		<g>
			<polygon class="st12" points="505.7,171.3 503,168 499.7,170.8 502.4,174.1 			"/>
		</g>
		<g>
			<polygon class="st12" points="517.7,172 514.8,168.7 511.7,171.7 514.6,174.9 			"/>
		</g>
		<g>
			<polygon class="st12" points="529.7,172.1 526.7,169 523.7,172.1 526.7,175.2 			"/>
		</g>
		<g>
			<path class="st12" d="M541.6,170.8c-1.2-0.8-2.3-1.6-3.4-2.5c-0.8,1.2-1.6,2.3-2.5,3.4c1.1,0.9,2.3,1.8,3.5,2.7
				C540,173.3,540.9,172.1,541.6,170.8z"/>
		</g>
		<g>
			<path class="st12" d="M552.8,166.7c-1.4-0.4-2.7-0.9-4-1.5c-0.4,1.3-0.9,2.6-1.5,4c1.3,0.6,2.6,1.2,4,1.7
				C551.9,169.4,552.4,168.1,552.8,166.7z"/>
		</g>
		<g>
			<path class="st12" d="M562.9,160.2c-1.4-0.3-2.8-0.5-4.2-0.8c-0.2,1.4-0.5,2.8-0.7,4.3c1.4,0.3,2.8,0.6,4.2,0.8
				C562.4,163,562.7,161.6,562.9,160.2z"/>
		</g>
		<g>
			<path class="st12" d="M572.9,153.6c-1.3-0.4-2.7-0.7-4.2-1.1c-0.4,1.4-0.7,2.8-1,4.2c1.4,0.3,2.8,0.7,4.2,1.1
				C572.3,156.5,572.6,155.1,572.9,153.6z"/>
		</g>
		<g>
			<path class="st12" d="M584.1,149.3c-1.2-0.8-2.5-1.5-3.8-2.1c-0.7,1.3-1.3,2.6-1.9,3.9c1.3,0.6,2.6,1.2,3.8,1.9
				C582.7,151.8,583.4,150.5,584.1,149.3z"/>
		</g>
		<g>
			<path class="st12" d="M596,147.8c-1-1-2.1-1.9-3.2-2.9c-1,1.1-1.9,2.2-2.8,3.3c1.1,1,2.2,1.9,3.2,2.9
				C594.1,150,595,148.9,596,147.8z"/>
		</g>
		<g>
			<path class="st12" d="M607.6,150.1c-0.5-1.4-1.1-2.7-1.8-4.1c-1.4,0.6-2.7,1.4-3.9,2.2c0.8,1.2,1.4,2.4,1.9,3.7
				C605,151.2,606.3,150.6,607.6,150.1z"/>
		</g>
		<g>
			<path class="st12" d="M617,157.5c0.1-1.4,0.1-2.9,0-4.4c-1.5,0-3,0.1-4.4,0.3c0.1,1.4,0.2,2.8,0.1,4.2
				C614.2,157.4,615.6,157.4,617,157.5z"/>
		</g>
		<g>
			<path class="st12" d="M624.1,167.2c0.3-1.4,0.6-2.8,0.9-4.2c-1.4-0.3-2.8-0.6-4.2-0.8c-0.3,1.4-0.6,2.8-0.9,4.2
				C621.2,166.6,622.6,166.9,624.1,167.2z"/>
		</g>
		<g>
			<polygon class="st12" points="629.9,177.6 631.2,173.5 627.1,172.4 625.8,176.5 			"/>
		</g>
		<g>
			<polygon class="st12" points="635.5,188.2 636.8,184.1 632.7,183 631.4,187.1 			"/>
		</g>
		<g>
			<path class="st12" d="M641.8,198.4c0.3-1.4,0.6-2.8,0.9-4.2c-1.4-0.2-2.8-0.5-4.2-0.8c-0.3,1.4-0.6,2.8-0.9,4.2
				C639,197.9,640.5,198.2,641.8,198.4z"/>
		</g>
		<g>
			<path class="st12" d="M649.9,207.3c-0.1-1.4-0.2-2.8-0.1-4.2c-1.4,0.1-2.8,0.1-4.2,0.1c-0.1,1.4-0.1,2.9,0,4.4
				C647,207.5,648.5,207.4,649.9,207.3z"/>
		</g>
		<g>
			<path class="st12" d="M660.7,212.4c-0.8-1.2-1.4-2.4-1.9-3.7c-1.1,0.7-2.4,1.3-3.8,1.8c0.5,1.4,1.1,2.7,1.8,4.1
				C658.2,213.9,659.5,213.2,660.7,212.4z"/>
		</g>
		<g>
			<path class="st12" d="M672.6,212.4c-1.1-1-2.2-1.9-3.2-2.9c-0.9,1.1-1.8,2.2-2.8,3.3c1,1,2.1,1.9,3.2,2.9
				C670.8,214.6,671.7,213.5,672.6,212.4z"/>
		</g>
		<g>
			<path class="st12" d="M684.3,209.7c-1.3-0.6-2.5-1.3-3.7-2c-0.6,1.3-1.3,2.5-2,3.7c1.2,0.8,2.5,1.5,3.8,2.2
				C683.1,212.3,683.7,211,684.3,209.7z"/>
		</g>
		<g>
			<path class="st12" d="M694.9,204.2c-1.4-0.4-2.8-0.7-4.1-1.2c-0.3,1.4-0.7,2.8-1,4.2c1.3,0.4,2.7,0.8,4.1,1.2
				C694.3,207,694.6,205.6,694.9,204.2z"/>
		</g>
		<g>
			<path class="st12" d="M704.9,197.6c-1.4-0.3-2.8-0.6-4.2-0.9c-0.3,1.4-0.6,2.8-0.8,4.2c1.4,0.3,2.8,0.6,4.2,0.9
				C704.4,200.4,704.6,199,704.9,197.6z"/>
		</g>
		<g>
			<path class="st12" d="M715.7,192.3c-1.3-0.7-2.6-1.2-4-1.8c-0.6,1.4-1.1,2.7-1.5,4.1c1.4,0.5,2.7,1,3.9,1.6
				C714.6,194.9,715.1,193.6,715.7,192.3z"/>
		</g>
		<g>
			<path class="st12" d="M727.4,189.9c-1.1-0.9-2.2-1.8-3.4-2.7c-0.9,1.2-1.7,2.4-2.5,3.6c1.2,0.8,2.3,1.7,3.4,2.5
				C725.7,192.2,726.5,191,727.4,189.9z"/>
		</g>
		<g>
			<path class="st12" d="M739.4,189.9c-0.9-1.1-1.9-2.1-2.9-3.2c-1.1,1-2.1,2-3.1,2.9c1,1.1,2,2.1,2.9,3.2
				C737.3,191.9,738.3,190.9,739.4,189.9z"/>
		</g>
		<g>
			<path class="st12" d="M751.1,192.4c-0.6-1.3-1.3-2.6-2-3.9c-1.3,0.7-2.6,1.5-3.7,2.3c0.8,1.2,1.5,2.4,2.1,3.7
				C748.6,193.8,749.9,193.1,751.1,192.4z"/>
		</g>
		<g>
			<path class="st12" d="M761.8,197.8c-0.3-1.4-0.6-2.8-1-4.2c-1.4,0.4-2.8,0.8-4.2,1.2c0.4,1.4,0.8,2.7,1.1,4.1
				C759.1,198.5,760.4,198.1,761.8,197.8z"/>
		</g>
		<g>
			<polygon class="st12" points="771.7,204.6 771,200.4 766.8,201.2 767.5,205.5 			"/>
		</g>
		<g>
			<path class="st12" d="M782.2,210.3c-0.5-1.3-1-2.7-1.4-4c-1.3,0.5-2.6,1-4,1.4c0.4,1.4,0.8,2.8,1.3,4.2
				C779.6,211.5,780.9,210.9,782.2,210.3z"/>
		</g>
		<g>
			<path class="st12" d="M793.8,213.3c-0.9-1.1-1.7-2.3-2.4-3.5c-1.1,0.8-2.3,1.6-3.5,2.4c0.7,1.2,1.5,2.5,2.4,3.7
				C791.5,215,792.7,214.2,793.8,213.3z"/>
		</g>
		<g>
			<path class="st12" d="M801.5,213.7c-0.3-1-0.6-2.1-0.8-3.1c-0.3,1-0.6,2.1-0.9,3.1c0.3,1,0.5,2.1,0.8,3.1
				C800.9,215.8,801.2,214.7,801.5,213.7z"/>
		</g>
	</g>
</g>
<g id="Barbamarco_00000148647699035062693320000017621410896289551012_">
	<path class="st13" d="M53.1,240.5c33.9,0,33.9-10.6,67.9-10.6s33.9,41.9,67.9,41.9s33.9-78.8,67.9-78.8s33.9,54.5,67.9,54.5
		s33.9-42.9,67.9-42.9s33.9,3.8,67.9,3.8s33.9,2.2,67.9,2.2c33.9,0,33.9,54.5,67.9,54.5s33.9,55.8,67.9,55.8
		c33.9,0,33.9-56.9,67.9-56.9c33.9,0,33.9-0.8,67.9-0.8"/>
</g>
<g>
	<g>
		<path class="st6" d="M811.1,216.5l5.3-4.4c0.5-0.4,0.9-0.8,1.1-1.2s0.3-0.8,0.3-1.2c0-0.6-0.2-1-0.6-1.4c-0.4-0.3-1-0.5-1.7-0.5
			c-0.7,0-1.3,0.1-1.7,0.4c-0.4,0.3-0.8,0.6-1,1.2c-0.2,0.5-0.3,1.1-0.3,1.9h-1.4c0-0.9,0.2-1.6,0.5-2.3c0.3-0.7,0.8-1.2,1.4-1.6
			c0.7-0.4,1.5-0.6,2.5-0.6c0.9,0,1.6,0.1,2.1,0.4c0.5,0.3,1,0.6,1.2,1.1c0.3,0.4,0.4,1,0.4,1.5c0,0.7-0.2,1.3-0.6,1.9
			c-0.4,0.6-1.1,1.2-2,2l-3.6,3h6.4v1.1h-8.3V216.5z"/>
		<path class="st6" d="M823.1,217.2c-0.7-0.5-1.3-1.1-1.6-2c-0.3-0.8-0.5-1.8-0.5-2.9s0.2-2.1,0.5-2.9c0.3-0.8,0.9-1.5,1.6-2
			c0.7-0.5,1.6-0.7,2.7-0.7c1.1,0,2,0.2,2.7,0.7c0.7,0.5,1.3,1.1,1.6,2c0.4,0.8,0.5,1.8,0.5,2.9s-0.2,2.1-0.5,2.9
			c-0.3,0.8-0.9,1.5-1.6,2c-0.7,0.5-1.6,0.7-2.7,0.7C824.7,217.9,823.8,217.6,823.1,217.2z M822.8,214.8c0.2,0.7,0.6,1.2,1.1,1.5
			c0.5,0.3,1.2,0.5,1.9,0.5c0.8,0,1.4-0.2,1.9-0.5c0.5-0.3,0.9-0.8,1.1-1.5c0.2-0.7,0.4-1.5,0.4-2.5c0-1-0.1-1.9-0.4-2.5
			s-0.6-1.2-1.1-1.5c-0.5-0.3-1.2-0.5-1.9-0.5c-0.8,0-1.4,0.2-1.9,0.5c-0.5,0.3-0.9,0.8-1.1,1.5s-0.4,1.5-0.4,2.5
			C822.4,213.3,822.5,214.1,822.8,214.8z"/>
		<path class="st6" d="M832.5,216.5l5.3-4.4c0.5-0.4,0.9-0.8,1.1-1.2s0.3-0.8,0.3-1.2c0-0.6-0.2-1-0.6-1.4c-0.4-0.3-1-0.5-1.7-0.5
			c-0.7,0-1.3,0.1-1.7,0.4c-0.4,0.3-0.8,0.6-1,1.2c-0.2,0.5-0.3,1.1-0.3,1.9h-1.4c0-0.9,0.2-1.6,0.5-2.3c0.3-0.7,0.8-1.2,1.4-1.6
			c0.7-0.4,1.5-0.6,2.5-0.6c0.9,0,1.6,0.1,2.1,0.4c0.5,0.3,1,0.6,1.2,1.1c0.3,0.4,0.4,1,0.4,1.5c0,0.7-0.2,1.3-0.6,1.9
			c-0.4,0.6-1.1,1.2-2,2l-3.6,3h6.4v1.1h-8.3V216.5z"/>
		<path class="st6" d="M842.6,216.5h2.5v-8.5h-2.5V207h2.3c0.5,0,0.9,0.1,1.2,0.3c0.2,0.2,0.3,0.6,0.3,1v8.2h2.3v1.1h-6.1V216.5z"/>
	</g>
</g>
<g>
	<g>
		<path class="st6" d="M821.7,264.7h-1.3v-9.6l-3.6,9.6H815l-3.6-9.6v9.6H810v-10.6h2.3l3.6,9.4l3.5-9.4h2.3V264.7z"/>
		<path class="st6" d="M825.2,264.4c-0.6-0.4-1-0.9-1.3-1.5c-0.3-0.6-0.4-1.4-0.4-2.2c0-0.8,0.2-1.5,0.5-2.2
			c0.3-0.6,0.8-1.1,1.3-1.5s1.3-0.6,2.2-0.6c0.8,0,1.5,0.2,2.1,0.5s1,0.8,1.3,1.4c0.3,0.6,0.4,1.3,0.4,2.1v0.2c0,0.1,0,0.2,0,0.3
			h-6.8v-1h6.1l-0.6,0.6c0-0.7,0-1.3-0.2-1.8c-0.2-0.5-0.5-0.8-0.9-1s-0.9-0.3-1.4-0.3c-0.6,0-1.1,0.1-1.5,0.3
			c-0.4,0.2-0.7,0.6-0.9,1.1c-0.2,0.5-0.3,1.1-0.3,1.9s0.1,1.4,0.3,1.9c0.2,0.5,0.5,0.8,1,1.1c0.4,0.2,0.9,0.3,1.5,0.3
			c0.5,0,0.9-0.1,1.3-0.2c0.3-0.1,0.6-0.3,0.8-0.6s0.3-0.6,0.4-0.9h1.2c-0.1,0.5-0.2,0.9-0.5,1.3c-0.3,0.4-0.7,0.8-1.2,1
			c-0.5,0.3-1.2,0.4-2.1,0.4C826.5,265,825.8,264.8,825.2,264.4z"/>
		<path class="st6" d="M838.6,257.6c0.6,0.8,0.9,1.8,0.9,3.1c0,0.9-0.1,1.6-0.4,2.3c-0.3,0.6-0.7,1.1-1.2,1.5
			c-0.5,0.3-1.2,0.5-1.9,0.5c-0.8,0-1.5-0.2-2.1-0.5c-0.5-0.4-1-0.9-1.2-1.5c-0.3-0.6-0.4-1.4-0.4-2.2c0-0.8,0.1-1.6,0.4-2.2
			c0.3-0.6,0.7-1.1,1.2-1.5c0.5-0.4,1.2-0.5,2.1-0.5C837.1,256.5,838,256.9,838.6,257.6z M834.7,257.9c-0.4,0.2-0.7,0.6-0.9,1.1
			s-0.3,1.1-0.3,1.8c0,0.7,0.1,1.3,0.3,1.8s0.5,0.8,0.9,1.1c0.4,0.2,0.9,0.4,1.5,0.4c0.6,0,1.1-0.1,1.5-0.3s0.7-0.6,1-1.1
			c0.2-0.5,0.3-1.1,0.3-1.8s-0.1-1.3-0.3-1.8c-0.2-0.5-0.5-0.8-1-1.1s-0.9-0.3-1.5-0.3C835.6,257.5,835.1,257.6,834.7,257.9z
			 M840.3,264.7H839v-1.9v-0.2v-9.1h1.3V264.7z"/>
		<path class="st6" d="M842.3,254.1h1.7v1.3h-1.7V254.1z M842.5,256.7h1.3v8h-1.3V256.7z"/>
		<path class="st6" d="M846.8,264.7c-0.4-0.2-0.7-0.4-0.9-0.8s-0.3-0.8-0.3-1.3c0-0.4,0.1-0.8,0.3-1.1s0.4-0.6,0.8-0.8
			c0.4-0.2,0.8-0.4,1.4-0.5l2.1-0.3c0.4-0.1,0.7-0.2,0.9-0.3s0.3-0.4,0.3-0.7c0-0.3-0.1-0.6-0.2-0.8c-0.1-0.2-0.3-0.4-0.6-0.5
			c-0.3-0.1-0.7-0.2-1.2-0.2c-0.8,0-1.3,0.2-1.7,0.5c-0.4,0.3-0.5,0.7-0.6,1.3h-1.3c0-0.6,0.2-1.1,0.4-1.5s0.7-0.7,1.2-1
			s1.1-0.3,1.9-0.3c0.7,0,1.3,0.1,1.8,0.3s0.8,0.5,1.1,0.9c0.2,0.4,0.3,0.8,0.3,1.3v3.8c0,0.3,0,0.6,0,0.9c0,0.3,0,0.7,0.1,1h-1.2
			c0-0.3-0.1-0.7-0.1-1s0-0.6,0-0.9c-0.1,0.4-0.3,0.7-0.5,1c-0.2,0.3-0.6,0.6-1,0.8c-0.4,0.2-0.9,0.3-1.5,0.3
			C847.7,264.9,847.2,264.9,846.8,264.7z M850,263.5c0.4-0.3,0.7-0.6,0.9-1.1c0.2-0.5,0.3-0.9,0.3-1.5v-0.7
			c-0.2,0.1-0.4,0.2-0.5,0.3s-0.4,0.1-0.7,0.2l-0.2,0l-1.3,0.3c-0.6,0.1-1,0.3-1.2,0.5s-0.4,0.6-0.4,1c0,0.4,0.1,0.8,0.4,1
			c0.3,0.2,0.7,0.4,1.2,0.4C849,263.9,849.6,263.8,850,263.5z"/>
		<path class="st6" d="M859,263.1c0.2,0.3,0.4,0.5,0.8,0.7c0.4,0.2,0.9,0.2,1.4,0.2c0.5,0,0.8-0.1,1.1-0.2c0.3-0.1,0.5-0.3,0.6-0.5
			c0.1-0.2,0.2-0.5,0.2-0.8c0-0.4-0.1-0.7-0.4-0.9c-0.2-0.2-0.6-0.4-1.1-0.4l-1.9-0.3c-0.7-0.1-1.3-0.3-1.6-0.7s-0.6-0.9-0.6-1.5
			c0-0.7,0.3-1.3,0.9-1.8c0.6-0.4,1.4-0.6,2.4-0.6c0.7,0,1.3,0.1,1.8,0.3c0.5,0.2,0.9,0.5,1.2,0.9c0.3,0.4,0.4,0.8,0.5,1.3h-1.3
			c0-0.5-0.2-0.8-0.6-1.1c-0.4-0.3-0.9-0.4-1.6-0.4c-0.7,0-1.1,0.1-1.5,0.4c-0.3,0.2-0.5,0.6-0.5,1c0,0.3,0.1,0.6,0.3,0.8
			c0.2,0.2,0.5,0.3,1,0.4l1.7,0.2c0.9,0.1,1.6,0.4,1.9,0.8c0.4,0.4,0.6,0.9,0.6,1.6c0,0.8-0.3,1.4-0.8,1.8s-1.4,0.6-2.4,0.6
			c-0.9,0-1.6-0.1-2.1-0.4c-0.5-0.2-1-0.6-1.2-1c-0.3-0.4-0.4-0.9-0.4-1.5h1.2C858.8,262.4,858.9,262.8,859,263.1z"/>
		<path class="st6" d="M867.6,264.5c-0.3-0.1-0.5-0.3-0.6-0.6c-0.1-0.3-0.2-0.6-0.2-1.1v-5.1h-1.6V257l1.7-0.4l0.5-1.7h0.7v1.8h2.7
			v1h-2.7v6h2.6v1h-1.9C868.2,264.7,867.8,264.7,867.6,264.5z"/>
		<path class="st6" d="M873.6,264.4c-0.6-0.4-1.1-0.9-1.4-1.5c-0.3-0.6-0.5-1.4-0.5-2.2c0-0.8,0.2-1.5,0.5-2.2
			c0.3-0.6,0.8-1.1,1.4-1.5c0.6-0.4,1.4-0.6,2.2-0.6c0.9,0,1.6,0.2,2.2,0.6s1.1,0.9,1.4,1.5c0.3,0.6,0.5,1.4,0.5,2.2
			c0,0.8-0.2,1.6-0.5,2.2c-0.3,0.6-0.8,1.1-1.4,1.5c-0.6,0.4-1.4,0.6-2.2,0.6C875,265,874.2,264.8,873.6,264.4z M873.4,262.6
			c0.2,0.5,0.5,0.8,0.9,1.1s0.9,0.3,1.5,0.3c0.6,0,1.1-0.1,1.5-0.3c0.4-0.2,0.7-0.6,0.9-1.1c0.2-0.5,0.3-1.1,0.3-1.8
			c0-0.7-0.1-1.4-0.3-1.8s-0.5-0.8-0.9-1c-0.4-0.2-0.9-0.3-1.5-0.3c-0.6,0-1.1,0.1-1.5,0.3s-0.7,0.6-0.9,1c-0.2,0.5-0.3,1.1-0.3,1.8
			C873.1,261.5,873.2,262.1,873.4,262.6z"/>
		<path class="st6" d="M881.7,256.7h1.3v2.5l0,0.3v5.2h-1.3V256.7z M882.8,259.1c0.2-0.8,0.6-1.4,1.1-1.8c0.5-0.5,1.2-0.7,2-0.7h0.3
			v1.3h-0.4c-0.8,0-1.4,0.1-1.8,0.5s-0.7,0.8-0.9,1.3c-0.2,0.6-0.2,1.3-0.2,2.1h-0.5C882.5,260.8,882.6,259.9,882.8,259.1z"/>
		<path class="st6" d="M887.4,254.1h1.7v1.3h-1.7V254.1z M887.6,256.7h1.3v8h-1.3V256.7z"/>
		<path class="st6" d="M890.9,258.5c0.3-0.6,0.8-1.1,1.4-1.5s1.3-0.5,2.2-0.5c0.8,0,1.5,0.1,2,0.4c0.5,0.3,1,0.6,1.3,1.1
			c0.3,0.5,0.5,1,0.5,1.7h-1.2c-0.1-0.4-0.2-0.8-0.4-1.2c-0.2-0.3-0.5-0.6-0.8-0.7c-0.4-0.2-0.8-0.3-1.3-0.3c-0.6,0-1.1,0.1-1.5,0.3
			s-0.7,0.6-0.9,1s-0.3,1.1-0.3,1.8c0,0.8,0.1,1.4,0.3,1.8s0.5,0.8,0.9,1c0.4,0.2,0.9,0.3,1.5,0.3c0.8,0,1.4-0.2,1.9-0.6
			c0.4-0.4,0.7-1,0.8-1.7h1.2c0,0.6-0.2,1.2-0.5,1.7c-0.3,0.5-0.7,0.9-1.3,1.2c-0.6,0.3-1.2,0.4-2,0.4c-0.9,0-1.6-0.2-2.2-0.5
			s-1.1-0.9-1.4-1.5s-0.5-1.4-0.5-2.2S890.6,259.2,890.9,258.5z"/>
		<path class="st6" d="M900.7,264.7c-0.4-0.2-0.7-0.4-0.9-0.8s-0.3-0.8-0.3-1.3c0-0.4,0.1-0.8,0.3-1.1s0.4-0.6,0.8-0.8
			c0.4-0.2,0.8-0.4,1.4-0.5l2.1-0.3c0.4-0.1,0.7-0.2,0.9-0.3s0.3-0.4,0.3-0.7c0-0.3-0.1-0.6-0.2-0.8c-0.1-0.2-0.3-0.4-0.6-0.5
			c-0.3-0.1-0.7-0.2-1.2-0.2c-0.8,0-1.3,0.2-1.7,0.5c-0.4,0.3-0.5,0.7-0.6,1.3h-1.3c0-0.6,0.2-1.1,0.4-1.5s0.7-0.7,1.2-1
			s1.1-0.3,1.9-0.3c0.7,0,1.3,0.1,1.8,0.3s0.8,0.5,1.1,0.9c0.2,0.4,0.3,0.8,0.3,1.3v3.8c0,0.3,0,0.6,0,0.9c0,0.3,0,0.7,0.1,1h-1.2
			c0-0.3-0.1-0.7-0.1-1s0-0.6,0-0.9c-0.1,0.4-0.3,0.7-0.5,1c-0.2,0.3-0.6,0.6-1,0.8c-0.4,0.2-0.9,0.3-1.5,0.3
			C901.6,264.9,901.1,264.9,900.7,264.7z M903.9,263.5c0.4-0.3,0.7-0.6,0.9-1.1c0.2-0.5,0.3-0.9,0.3-1.5v-0.7
			c-0.2,0.1-0.4,0.2-0.5,0.3s-0.4,0.1-0.7,0.2l-0.2,0l-1.3,0.3c-0.6,0.1-1,0.3-1.2,0.5s-0.4,0.6-0.4,1c0,0.4,0.1,0.8,0.4,1
			c0.3,0.2,0.7,0.4,1.2,0.4C903,263.9,903.5,263.8,903.9,263.5z"/>
	</g>
</g>
</svg>
