<?xml version="1.0" encoding="utf-8"?>
<!-- Generator: Adobe Illustrator 26.3.1, SVG Export Plug-In . SVG Version: 6.00 Build 0)  -->
<svg version="1.1" id="Livello_1" xmlns="http://www.w3.org/2000/svg" xmlns:xlink="http://www.w3.org/1999/xlink" x="0px" y="0px"
	 viewBox="0 0 1000 700" style="enable-background:new 0 0 1000 700;" xml:space="preserve">
<style type="text/css">
	.st0{clip-path:url(#SVGID_00000148640308779013012220000010422343884944510878_);}
	.st1{fill:none;stroke:#000000;}
	.st2{fill:none;stroke:#1F77B4;}
	.st3{fill:none;stroke:#CCCCCC;}
	.st4{fill:#0047CC;}
	.st5{fill:#F0F0F0;}
	.st6{fill:#CCDAF5;}
	.st7{enable-background:new    ;}
	.st8{fill:none;stroke:#F0F0F0;stroke-width:0.75;stroke-miterlimit:10;}
	.st9{fill:none;stroke:#CCDAF5;stroke-miterlimit:10;}
	.st10{fill:none;stroke:#CCDAF5;stroke-miterlimit:10;stroke-dasharray:12.0062,10.0051;}
	.st11{fill:none;stroke:#F0F0F0;stroke-width:0.5;stroke-miterlimit:10;}
	.st12{fill-rule:evenodd;clip-rule:evenodd;fill:#FFFFFF;}
	.st13{fill:none;stroke:#85A7E6;stroke-width:2;stroke-miterlimit:10;}
	.st14{clip-path:url(#SVGID_00000157289407022651185290000015748697987121207448_);}
	.st15{clip-path:url(#SVGID_00000012470381350649510830000006581352293994749572_);}
	.st16{clip-path:url(#SVGID_00000124855466639733837760000006606067177874093200_);}
	.st17{clip-path:url(#SVGID_00000176756782364762142310000005280518874232216200_);}
	.st18{clip-path:url(#SVGID_00000136412117000450130730000007781246125633843604_);}
	.st19{clip-path:url(#SVGID_00000014611238931954457400000006710749024069544603_);}
</style>
<rect x="0.6" class="st4" width="999.4" height="700"/>
<g>
	<g>
		<g>
			<path class="st5" d="M21.4,21.8c0.2,0.4,0.6,0.8,1.1,1c0.5,0.2,1.1,0.4,2,0.4c0.7,0,1.3-0.1,1.7-0.2c0.4-0.2,0.7-0.4,0.9-0.7
				c0.2-0.3,0.3-0.7,0.3-1.1c0-0.6-0.2-1-0.5-1.3c-0.3-0.3-0.8-0.5-1.5-0.6l-2.5-0.4c-0.9-0.1-1.6-0.4-2.1-0.9
				c-0.4-0.5-0.7-1.1-0.7-1.9c0-0.6,0.1-1.1,0.4-1.6c0.3-0.5,0.8-0.8,1.4-1.1s1.4-0.4,2.3-0.4c0.9,0,1.7,0.1,2.3,0.4
				c0.6,0.3,1.1,0.7,1.5,1.2c0.3,0.5,0.5,1.1,0.6,1.8h-1.3c-0.1-0.5-0.2-0.9-0.4-1.3c-0.2-0.4-0.6-0.6-1-0.8c-0.4-0.2-1-0.3-1.6-0.3
				c-0.9,0-1.6,0.2-2.1,0.5s-0.7,0.8-0.7,1.5c0,0.4,0.1,0.8,0.4,1.1c0.2,0.3,0.7,0.5,1.2,0.6l2.7,0.4c1,0.1,1.7,0.5,2.2,0.9
				c0.5,0.5,0.7,1.1,0.7,1.9c0,0.7-0.1,1.3-0.4,1.8c-0.3,0.5-0.8,0.8-1.4,1.1s-1.4,0.4-2.4,0.4c-1.1,0-2-0.2-2.7-0.5
				c-0.7-0.3-1.2-0.8-1.5-1.4c-0.3-0.6-0.5-1.2-0.5-2h1.3C21.1,20.9,21.2,21.4,21.4,21.8z"/>
			<path class="st5" d="M31.3,23.9c-0.4-0.2-0.7-0.4-0.9-0.8S30,22.3,30,21.8c0-0.4,0.1-0.8,0.3-1.1s0.4-0.6,0.8-0.8
				c0.4-0.2,0.8-0.4,1.4-0.5l2.1-0.3c0.4-0.1,0.7-0.2,0.9-0.3s0.3-0.4,0.3-0.7c0-0.3-0.1-0.6-0.2-0.8c-0.1-0.2-0.3-0.4-0.6-0.5
				c-0.3-0.1-0.7-0.2-1.2-0.2c-0.8,0-1.3,0.2-1.7,0.5c-0.4,0.3-0.5,0.7-0.6,1.3h-1.3c0-0.6,0.2-1.1,0.4-1.5s0.7-0.7,1.2-1
				c0.5-0.2,1.1-0.3,1.9-0.3c0.7,0,1.3,0.1,1.8,0.3c0.5,0.2,0.8,0.5,1.1,0.9c0.2,0.4,0.3,0.8,0.3,1.3V22c0,0.3,0,0.6,0,0.9
				s0,0.7,0.1,1h-1.2c0-0.3-0.1-0.7-0.1-1s0-0.6,0-0.9c-0.1,0.4-0.3,0.7-0.5,1c-0.2,0.3-0.6,0.6-1,0.8c-0.4,0.2-0.9,0.3-1.5,0.3
				C32.2,24.2,31.7,24.1,31.3,23.9z M34.5,22.7c0.4-0.3,0.7-0.6,0.9-1.1c0.2-0.5,0.3-0.9,0.3-1.5v-0.7c-0.2,0.1-0.4,0.2-0.5,0.3
				s-0.4,0.1-0.7,0.2l-0.2,0l-1.3,0.3c-0.6,0.1-1,0.3-1.2,0.5s-0.4,0.6-0.4,1c0,0.4,0.1,0.8,0.4,1c0.3,0.2,0.7,0.4,1.2,0.4
				C33.5,23.1,34.1,23,34.5,22.7z"/>
			<path class="st5" d="M39,12.7h1.3v11.2H39V12.7z"/>
			<path class="st5" d="M42.3,13.3H44v1.3h-1.7V13.3z M42.5,15.9h1.3v8h-1.3V15.9z"/>
			<path class="st5" d="M46,15.9h1.3v8H46V15.9z M47.2,18.1c0.2-0.8,0.6-1.4,1.1-1.8c0.5-0.4,1.2-0.6,2-0.6c0.7,0,1.2,0.1,1.6,0.4
				c0.4,0.2,0.7,0.6,0.9,1.1c0.2,0.5,0.3,1,0.3,1.7v5.1H52v-5c0-0.6-0.1-1-0.2-1.3c-0.2-0.3-0.4-0.6-0.7-0.7
				c-0.3-0.1-0.6-0.2-1.1-0.2c-0.6,0-1.1,0.2-1.5,0.5c-0.4,0.3-0.7,0.8-0.9,1.4c-0.2,0.6-0.3,1.4-0.3,2.3h-0.4
				C46.9,19.8,47,18.9,47.2,18.1z"/>
			<path class="st5" d="M55.1,13.3h1.7v1.3h-1.7V13.3z M55.3,15.9h1.3v8h-1.3V15.9z"/>
			<path class="st5" d="M60,23.7c-0.3-0.1-0.5-0.3-0.6-0.6c-0.1-0.3-0.2-0.6-0.2-1.1V17h-1.6v-0.7l1.7-0.4l0.5-1.7h0.7v1.8h2.7v1
				h-2.7v6h2.6v1h-1.9C60.7,23.9,60.3,23.9,60,23.7z"/>
			<path class="st5" d="M65.7,23.9c-0.4-0.2-0.7-0.4-0.9-0.8s-0.3-0.8-0.3-1.3c0-0.4,0.1-0.8,0.3-1.1s0.4-0.6,0.8-0.8
				c0.4-0.2,0.8-0.4,1.4-0.5l2.1-0.3c0.4-0.1,0.7-0.2,0.9-0.3s0.3-0.4,0.3-0.7c0-0.3-0.1-0.6-0.2-0.8c-0.1-0.2-0.3-0.4-0.6-0.5
				c-0.3-0.1-0.7-0.2-1.2-0.2c-0.8,0-1.3,0.2-1.7,0.5c-0.4,0.3-0.5,0.7-0.6,1.3h-1.3c0-0.6,0.2-1.1,0.4-1.5s0.7-0.7,1.2-1
				c0.5-0.2,1.1-0.3,1.9-0.3c0.7,0,1.3,0.1,1.8,0.3c0.5,0.2,0.8,0.5,1.1,0.9c0.2,0.4,0.3,0.8,0.3,1.3V22c0,0.3,0,0.6,0,0.9
				s0,0.7,0.1,1h-1.2c0-0.3-0.1-0.7-0.1-1s0-0.6,0-0.9c-0.1,0.4-0.3,0.7-0.5,1c-0.2,0.3-0.6,0.6-1,0.8c-0.4,0.2-0.9,0.3-1.5,0.3
				C66.5,24.2,66.1,24.1,65.7,23.9z M68.8,22.7c0.4-0.3,0.7-0.6,0.9-1.1c0.2-0.5,0.3-0.9,0.3-1.5v-0.7c-0.2,0.1-0.4,0.2-0.5,0.3
				s-0.4,0.1-0.7,0.2l-0.2,0l-1.3,0.3c-0.6,0.1-1,0.3-1.2,0.5s-0.4,0.6-0.4,1c0,0.4,0.1,0.8,0.4,1c0.3,0.2,0.7,0.4,1.2,0.4
				C67.9,23.1,68.4,23,68.8,22.7z M66.5,13l3.4,1.5L69.7,15l-3.6-1L66.5,13z"/>
			<path class="st5" d="M82.8,16.8c0.6,0.8,0.9,1.8,0.9,3.1c0,0.9-0.1,1.6-0.4,2.3c-0.3,0.6-0.7,1.1-1.2,1.5
				c-0.5,0.3-1.2,0.5-1.9,0.5c-0.8,0-1.5-0.2-2.1-0.5s-1-0.9-1.2-1.5c-0.3-0.6-0.4-1.4-0.4-2.2c0-0.8,0.1-1.6,0.4-2.2
				c0.3-0.6,0.7-1.1,1.2-1.5s1.2-0.5,2.1-0.5C81.3,15.7,82.2,16.1,82.8,16.8z M78.9,17.1c-0.4,0.2-0.7,0.6-0.9,1.1s-0.3,1.1-0.3,1.8
				c0,0.7,0.1,1.3,0.3,1.8s0.5,0.8,0.9,1.1c0.4,0.2,0.9,0.4,1.5,0.4c0.6,0,1.1-0.1,1.5-0.3s0.7-0.6,1-1.1s0.3-1.1,0.3-1.8
				s-0.1-1.3-0.3-1.8c-0.2-0.5-0.5-0.8-1-1.1s-0.9-0.3-1.5-0.3C79.8,16.7,79.3,16.8,78.9,17.1z M84.5,23.9h-1.3V22v-0.2v-9.1h1.3
				V23.9z"/>
			<path class="st5" d="M88,23.7c-0.6-0.4-1-0.9-1.3-1.5c-0.3-0.6-0.4-1.4-0.4-2.2c0-0.8,0.2-1.5,0.5-2.2c0.3-0.6,0.8-1.1,1.3-1.5
				s1.3-0.6,2.2-0.6c0.8,0,1.5,0.2,2.1,0.5c0.6,0.3,1,0.8,1.3,1.4c0.3,0.6,0.4,1.3,0.4,2.1v0.2c0,0.1,0,0.2,0,0.3h-6.8v-1h6.1
				l-0.6,0.6c0-0.7,0-1.3-0.2-1.8s-0.5-0.8-0.9-1s-0.9-0.3-1.4-0.3c-0.6,0-1.1,0.1-1.5,0.3S88,17.6,87.8,18
				c-0.2,0.5-0.3,1.1-0.3,1.9s0.1,1.4,0.3,1.9c0.2,0.5,0.5,0.8,1,1.1c0.4,0.2,0.9,0.3,1.5,0.3c0.5,0,1-0.1,1.3-0.2
				c0.3-0.1,0.6-0.3,0.8-0.6s0.3-0.6,0.4-0.9H94c-0.1,0.5-0.2,0.9-0.5,1.3c-0.3,0.4-0.7,0.8-1.2,1c-0.5,0.3-1.2,0.4-2.1,0.4
				C89.3,24.2,88.6,24,88,23.7z"/>
			<path class="st5" d="M95.6,12.7h1.3v11.2h-1.3V12.7z"/>
			<path class="st5" d="M99.2,12.7h1.3v11.2h-1.3V12.7z"/>
			<path class="st5" d="M102.3,13.3h1.7v2.3c0,0.4-0.1,0.7-0.3,0.9s-0.5,0.3-1,0.3h-0.4V16h0.8v-1.4h-0.8V13.3z"/>
			<path class="st5" d="M106.4,23.9c-0.4-0.2-0.7-0.4-0.9-0.8s-0.3-0.8-0.3-1.3c0-0.4,0.1-0.8,0.3-1.1s0.4-0.6,0.8-0.8
				c0.4-0.2,0.8-0.4,1.4-0.5l2.1-0.3c0.4-0.1,0.7-0.2,0.9-0.3s0.3-0.4,0.3-0.7c0-0.3-0.1-0.6-0.2-0.8c-0.1-0.2-0.3-0.4-0.6-0.5
				c-0.3-0.1-0.7-0.2-1.2-0.2c-0.8,0-1.3,0.2-1.7,0.5c-0.4,0.3-0.5,0.7-0.6,1.3h-1.3c0-0.6,0.2-1.1,0.4-1.5s0.7-0.7,1.2-1
				c0.5-0.2,1.1-0.3,1.9-0.3c0.7,0,1.3,0.1,1.8,0.3c0.5,0.2,0.8,0.5,1.1,0.9c0.2,0.4,0.3,0.8,0.3,1.3V22c0,0.3,0,0.6,0,0.9
				s0,0.7,0.1,1h-1.2c0-0.3-0.1-0.7-0.1-1s0-0.6,0-0.9c-0.1,0.4-0.3,0.7-0.5,1c-0.2,0.3-0.6,0.6-1,0.8c-0.4,0.2-0.9,0.3-1.5,0.3
				C107.3,24.2,106.8,24.1,106.4,23.9z M109.6,22.7c0.4-0.3,0.7-0.6,0.9-1.1c0.2-0.5,0.3-0.9,0.3-1.5v-0.7c-0.2,0.1-0.4,0.2-0.5,0.3
				s-0.4,0.1-0.7,0.2l-0.2,0l-1.3,0.3c-0.6,0.1-1,0.3-1.2,0.5s-0.4,0.6-0.4,1c0,0.4,0.1,0.8,0.4,1c0.3,0.2,0.7,0.4,1.2,0.4
				C108.6,23.1,109.2,23,109.6,22.7z"/>
			<path class="st5" d="M114,17.7c0.3-0.6,0.8-1.1,1.4-1.5s1.3-0.5,2.2-0.5c0.8,0,1.5,0.1,2,0.4c0.5,0.3,1,0.6,1.3,1.1
				c0.3,0.5,0.5,1,0.5,1.7h-1.2c-0.1-0.4-0.2-0.8-0.4-1.2c-0.2-0.3-0.5-0.6-0.8-0.7c-0.4-0.2-0.8-0.3-1.3-0.3
				c-0.6,0-1.1,0.1-1.5,0.3c-0.4,0.2-0.7,0.6-0.9,1s-0.3,1.1-0.3,1.8c0,0.8,0.1,1.4,0.3,1.8c0.2,0.5,0.5,0.8,0.9,1
				c0.4,0.2,0.9,0.3,1.5,0.3c0.8,0,1.4-0.2,1.9-0.6c0.4-0.4,0.7-1,0.8-1.7h1.2c0,0.6-0.2,1.2-0.5,1.7c-0.3,0.5-0.7,0.9-1.3,1.2
				c-0.6,0.3-1.2,0.4-2,0.4c-0.9,0-1.6-0.2-2.2-0.5s-1.1-0.9-1.4-1.5c-0.3-0.6-0.5-1.4-0.5-2.2S113.7,18.4,114,17.7z"/>
			<path class="st5" d="M124.1,23.7c-0.5-0.4-1-0.9-1.2-1.5c-0.3-0.6-0.4-1.4-0.4-2.2c0-0.8,0.1-1.6,0.4-2.2
				c0.3-0.6,0.7-1.1,1.2-1.5s1.2-0.5,2.1-0.5c1.2,0,2,0.4,2.6,1.1s0.9,1.8,0.9,3.1c0,1.3-0.3,2.4-0.9,3.1s-1.5,1.1-2.6,1.1
				C125.3,24.2,124.6,24,124.1,23.7z M127.9,22.8c0.4-0.2,0.7-0.6,1-1.1c0.2-0.5,0.3-1.1,0.3-1.8s-0.1-1.3-0.3-1.8
				c-0.2-0.5-0.5-0.8-1-1.1s-0.9-0.3-1.5-0.3c-0.6,0-1.1,0.1-1.5,0.4c-0.4,0.2-0.7,0.6-0.9,1.1s-0.3,1.1-0.3,1.8
				c0,0.7,0.1,1.3,0.3,1.8s0.5,0.8,0.9,1.1s0.9,0.4,1.5,0.4C127,23.2,127.5,23,127.9,22.8z M129.2,27.1V15.9h1.3v11.2H129.2z"/>
			<path class="st5" d="M133.9,23.9c-0.4-0.2-0.8-0.6-1-1c-0.2-0.5-0.3-1-0.3-1.8v-5.1h1.3v5c0,0.6,0.1,1,0.2,1.4
				c0.2,0.3,0.4,0.6,0.7,0.7c0.3,0.1,0.7,0.2,1.1,0.2c0.6,0,1-0.2,1.4-0.5c0.4-0.3,0.7-0.8,0.9-1.4s0.3-1.4,0.3-2.2h0.4
				c0,1.1-0.1,2-0.3,2.8s-0.6,1.4-1.1,1.8c-0.5,0.4-1.2,0.6-2,0.6C134.9,24.2,134.3,24.1,133.9,23.9z M138.6,21.5v-0.2v-5.3h1.3v8
				h-1.3V21.5z"/>
			<path class="st5" d="M142.9,23.9c-0.4-0.2-0.7-0.4-0.9-0.8s-0.3-0.8-0.3-1.3c0-0.4,0.1-0.8,0.3-1.1s0.4-0.6,0.8-0.8
				c0.4-0.2,0.8-0.4,1.4-0.5l2.1-0.3c0.4-0.1,0.7-0.2,0.9-0.3s0.3-0.4,0.3-0.7c0-0.3-0.1-0.6-0.2-0.8c-0.1-0.2-0.3-0.4-0.6-0.5
				c-0.3-0.1-0.7-0.2-1.2-0.2c-0.8,0-1.3,0.2-1.7,0.5c-0.4,0.3-0.5,0.7-0.6,1.3h-1.3c0-0.6,0.2-1.1,0.4-1.5s0.7-0.7,1.2-1
				c0.5-0.2,1.1-0.3,1.9-0.3c0.7,0,1.3,0.1,1.8,0.3c0.5,0.2,0.8,0.5,1.1,0.9c0.2,0.4,0.3,0.8,0.3,1.3V22c0,0.3,0,0.6,0,0.9
				s0,0.7,0.1,1h-1.2c0-0.3-0.1-0.7-0.1-1s0-0.6,0-0.9c-0.1,0.4-0.3,0.7-0.5,1c-0.2,0.3-0.6,0.6-1,0.8c-0.4,0.2-0.9,0.3-1.5,0.3
				C143.8,24.2,143.3,24.1,142.9,23.9z M146.1,22.7c0.4-0.3,0.7-0.6,0.9-1.1c0.2-0.5,0.3-0.9,0.3-1.5v-0.7c-0.2,0.1-0.4,0.2-0.5,0.3
				s-0.4,0.1-0.7,0.2l-0.2,0l-1.3,0.3c-0.6,0.1-1,0.3-1.2,0.5s-0.4,0.6-0.4,1c0,0.4,0.1,0.8,0.4,1c0.3,0.2,0.7,0.4,1.2,0.4
				C145.2,23.1,145.7,23,146.1,22.7z"/>
			<path class="st5" d="M21.3,42.5c-0.6-0.3-1-0.8-1.2-1.4c-0.3-0.6-0.4-1.3-0.4-2.2c0-1.3,0.3-2.2,0.9-3c0.6-0.7,1.6-1.1,2.8-1.1
				c1.2,0,2,0.3,2.6,1c0.6,0.7,0.9,1.7,0.9,3c0,0.9-0.1,1.6-0.4,2.2s-0.6,1-1.2,1.3c-0.5,0.3-1.2,0.4-2,0.4
				C22.6,43,21.9,42.8,21.3,42.5z M21.7,46.2c-0.6-0.2-1-0.5-1.3-1c-0.3-0.4-0.5-0.9-0.5-1.6h1.3c0,0.4,0.1,0.7,0.3,1
				c0.2,0.3,0.5,0.5,0.8,0.7c0.4,0.2,0.8,0.2,1.4,0.2c0.6,0,1.2-0.1,1.6-0.2s0.7-0.4,0.9-0.8s0.3-0.8,0.3-1.4v-8h1.3v8
				c0,0.7-0.1,1.3-0.4,1.8c-0.3,0.5-0.7,0.9-1.3,1.1c-0.6,0.3-1.4,0.4-2.3,0.4C22.9,46.5,22.2,46.4,21.7,46.2z M25.2,41.7
				c0.4-0.2,0.7-0.5,0.9-1s0.3-1,0.3-1.7c0-0.7-0.1-1.3-0.3-1.7s-0.5-0.8-0.9-1s-0.9-0.3-1.5-0.3c-0.6,0-1.1,0.1-1.5,0.3
				s-0.7,0.5-0.9,1s-0.3,1-0.3,1.7s0.1,1.3,0.3,1.7s0.5,0.8,0.9,1c0.4,0.2,0.9,0.3,1.5,0.3C24.3,42,24.8,41.9,25.2,41.7z"/>
			<path class="st5" d="M32.7,32.5h1.1l-3.7,10.6H29L32.7,32.5z"/>
			<path class="st5" d="M35.1,32.5h1.3v10.6h-1.3V32.5z M36.1,42.1h6v1.1h-6V42.1z"/>
		</g>
	</g>
</g>
<g>
	<g>
		<g>
			<path class="st5" d="M30.7,667.5c-0.6-0.4-1.1-1-1.4-1.7c-0.3-0.7-0.5-1.6-0.5-2.5s0.2-1.8,0.5-2.5c0.3-0.7,0.8-1.3,1.4-1.7
				s1.4-0.6,2.4-0.6c0.9,0,1.7,0.2,2.4,0.6c0.6,0.4,1.1,1,1.4,1.7c0.3,0.7,0.5,1.6,0.5,2.5c0,1-0.2,1.8-0.5,2.5
				c-0.3,0.7-0.8,1.3-1.4,1.7c-0.6,0.4-1.4,0.6-2.4,0.6C32.1,668.2,31.3,668,30.7,667.5z M30.4,665.5c0.2,0.6,0.5,1,1,1.3
				c0.4,0.3,1,0.4,1.7,0.4c0.7,0,1.3-0.1,1.7-0.4s0.8-0.7,1-1.3c0.2-0.6,0.3-1.3,0.3-2.2c0-0.9-0.1-1.6-0.3-2.2
				c-0.2-0.6-0.5-1-1-1.3s-1-0.4-1.7-0.4c-0.7,0-1.3,0.1-1.7,0.4c-0.4,0.3-0.8,0.7-1,1.3c-0.2,0.6-0.3,1.3-0.3,2.2
				C30,664.1,30.1,664.9,30.4,665.5z"/>
		</g>
	</g>
</g>
<g>
	<g>
		<g>
			<path class="st5" d="M31.4,586.3c0.2,0.3,0.4,0.5,0.8,0.7c0.4,0.2,0.8,0.2,1.4,0.2c0.6,0,1.1-0.1,1.4-0.3
				c0.4-0.2,0.7-0.5,0.8-0.8c0.2-0.3,0.3-0.8,0.3-1.2c0-0.5-0.1-0.9-0.3-1.3c-0.2-0.4-0.4-0.6-0.8-0.8c-0.3-0.2-0.7-0.3-1.2-0.3
				c-0.5,0-1,0.1-1.4,0.3s-0.8,0.5-1.1,0.9h-1.1l0.3-5.2h1.1l-0.3,4.2c0.3-0.3,0.7-0.6,1.1-0.8c0.4-0.2,1-0.3,1.6-0.3
				c0.7,0,1.2,0.1,1.7,0.4c0.5,0.3,0.9,0.6,1.1,1.1c0.3,0.5,0.4,1,0.4,1.7c0,1-0.3,1.8-0.9,2.4c-0.6,0.6-1.6,0.9-2.9,0.9
				c-0.8,0-1.5-0.1-2-0.4c-0.5-0.2-1-0.6-1.2-1c-0.3-0.4-0.4-0.9-0.5-1.5h1.2C31.1,585.7,31.2,586,31.4,586.3z M37,578.6v1h-5.9v-1
				H37z"/>
		</g>
	</g>
</g>
<g>
	<g>
		<g>
			<path class="st5" d="M22,507h2.2v-7.4H22v-1h2c0.5,0,0.8,0.1,1,0.3c0.2,0.2,0.3,0.5,0.3,0.9v7.2h2v1H22V507z"/>
			<path class="st5" d="M30.3,507.5c-0.6-0.4-1.1-1-1.4-1.7c-0.3-0.7-0.5-1.6-0.5-2.5c0-1,0.2-1.8,0.5-2.5c0.3-0.7,0.8-1.3,1.4-1.7
				s1.4-0.6,2.4-0.6c0.9,0,1.7,0.2,2.4,0.6c0.6,0.4,1.1,1,1.4,1.7c0.3,0.7,0.5,1.6,0.5,2.5s-0.2,1.8-0.5,2.5
				c-0.3,0.7-0.8,1.3-1.4,1.7c-0.6,0.4-1.4,0.6-2.4,0.6C31.7,508.2,30.9,508,30.3,507.5z M30,505.5c0.2,0.6,0.5,1,1,1.3
				c0.4,0.3,1,0.4,1.7,0.4c0.7,0,1.3-0.1,1.7-0.4s0.8-0.7,1-1.3s0.3-1.3,0.3-2.2c0-0.9-0.1-1.6-0.3-2.2c-0.2-0.6-0.5-1-1-1.3
				s-1-0.4-1.7-0.4c-0.7,0-1.3,0.1-1.7,0.4c-0.4,0.3-0.8,0.7-1,1.3c-0.2,0.6-0.3,1.3-0.3,2.2C29.7,504.1,29.8,504.9,30,505.5z"/>
		</g>
	</g>
</g>
<g>
	<g>
		<g>
			<path class="st5" d="M22.8,427H25v-7.4h-2.2v-1h2c0.5,0,0.8,0.1,1,0.3s0.3,0.5,0.3,0.9v7.2h2v1h-5.4V427z"/>
			<path class="st5" d="M30.8,426.3c0.2,0.3,0.4,0.5,0.8,0.7c0.4,0.2,0.8,0.2,1.4,0.2c0.6,0,1.1-0.1,1.4-0.3
				c0.4-0.2,0.7-0.5,0.8-0.8c0.2-0.3,0.3-0.8,0.3-1.2c0-0.5-0.1-0.9-0.3-1.3c-0.2-0.3-0.4-0.6-0.8-0.8s-0.7-0.3-1.2-0.3
				c-0.5,0-1,0.1-1.4,0.3s-0.8,0.5-1.1,0.9h-1.1l0.3-5.2H31l-0.3,4.2c0.3-0.3,0.7-0.6,1.1-0.8c0.4-0.2,1-0.3,1.6-0.3
				c0.7,0,1.2,0.1,1.7,0.4c0.5,0.3,0.9,0.6,1.1,1.1s0.4,1,0.4,1.7c0,1-0.3,1.8-0.9,2.4c-0.6,0.6-1.6,0.9-2.9,0.9
				c-0.8,0-1.5-0.1-2-0.4c-0.5-0.2-1-0.6-1.2-1s-0.4-0.9-0.5-1.5h1.2C30.5,425.7,30.6,426,30.8,426.3z M36.4,418.6v1h-5.9v-1H36.4z"
				/>
		</g>
	</g>
</g>
<g>
	<g>
		<g>
			<path class="st5" d="M19,347l4.7-3.9c0.5-0.4,0.8-0.7,1-1c0.2-0.3,0.3-0.7,0.3-1.1c0-0.5-0.2-0.9-0.5-1.2
				c-0.3-0.3-0.8-0.5-1.5-0.5c-0.6,0-1.1,0.1-1.5,0.3c-0.4,0.2-0.7,0.6-0.9,1c-0.2,0.4-0.3,1-0.3,1.6H19c0-0.8,0.2-1.4,0.4-2
				s0.7-1.1,1.2-1.4c0.6-0.3,1.3-0.5,2.2-0.5c0.8,0,1.4,0.1,1.9,0.4s0.8,0.6,1.1,0.9c0.2,0.4,0.3,0.8,0.3,1.3c0,0.6-0.2,1.1-0.5,1.6
				c-0.3,0.5-0.9,1.1-1.7,1.7l-3.2,2.6h5.6v1H19V347z"/>
			<path class="st5" d="M29.6,347.5c-0.6-0.4-1.1-1-1.4-1.7c-0.3-0.7-0.5-1.6-0.5-2.5c0-1,0.2-1.8,0.5-2.5c0.3-0.7,0.8-1.3,1.4-1.7
				s1.4-0.6,2.4-0.6c0.9,0,1.7,0.2,2.4,0.6c0.6,0.4,1.1,1,1.4,1.7c0.3,0.7,0.5,1.6,0.5,2.5s-0.2,1.8-0.5,2.5
				c-0.3,0.7-0.8,1.3-1.4,1.7c-0.6,0.4-1.4,0.6-2.4,0.6C31,348.2,30.2,348,29.6,347.5z M29.3,345.5c0.2,0.6,0.5,1,1,1.3
				c0.4,0.3,1,0.4,1.7,0.4c0.7,0,1.3-0.1,1.7-0.4s0.8-0.7,1-1.3s0.3-1.3,0.3-2.2c0-0.9-0.1-1.6-0.3-2.2c-0.2-0.6-0.5-1-1-1.3
				s-1-0.4-1.7-0.4c-0.7,0-1.3,0.1-1.7,0.4c-0.4,0.3-0.8,0.7-1,1.3c-0.2,0.6-0.3,1.3-0.3,2.2C29,344.1,29.1,344.9,29.3,345.5z"/>
		</g>
	</g>
</g>
<g>
	<g>
		<g>
			<path class="st5" d="M20,267l4.7-3.9c0.5-0.4,0.8-0.7,1-1c0.2-0.3,0.3-0.7,0.3-1.1c0-0.5-0.2-0.9-0.5-1.2
				c-0.3-0.3-0.8-0.5-1.5-0.5c-0.6,0-1.1,0.1-1.5,0.3c-0.4,0.2-0.7,0.6-0.9,1c-0.2,0.4-0.3,1-0.3,1.6H20c0-0.8,0.2-1.4,0.4-2
				s0.7-1.1,1.2-1.4c0.6-0.3,1.3-0.5,2.2-0.5c0.8,0,1.4,0.1,1.9,0.4s0.8,0.6,1.1,0.9c0.2,0.4,0.3,0.8,0.3,1.3c0,0.6-0.2,1.1-0.5,1.6
				c-0.3,0.5-0.9,1.1-1.7,1.7l-3.2,2.6h5.6v1H20V267z"/>
			<path class="st5" d="M30.3,266.3c0.2,0.3,0.4,0.5,0.8,0.7c0.4,0.2,0.8,0.2,1.4,0.2c0.6,0,1.1-0.1,1.4-0.3
				c0.4-0.2,0.7-0.5,0.8-0.8c0.2-0.3,0.3-0.8,0.3-1.2c0-0.5-0.1-0.9-0.3-1.3c-0.2-0.4-0.4-0.6-0.8-0.8c-0.3-0.2-0.7-0.3-1.2-0.3
				c-0.5,0-1,0.1-1.4,0.3s-0.8,0.5-1.1,0.9h-1.1l0.3-5.2h1.1l-0.3,4.2c0.3-0.3,0.7-0.6,1.1-0.8c0.4-0.2,1-0.3,1.6-0.3
				c0.7,0,1.2,0.1,1.7,0.4c0.5,0.3,0.9,0.6,1.1,1.1c0.3,0.5,0.4,1,0.4,1.7c0,1-0.3,1.8-0.9,2.4c-0.6,0.6-1.6,0.9-2.9,0.9
				c-0.8,0-1.5-0.1-2-0.4c-0.5-0.2-1-0.6-1.2-1c-0.3-0.4-0.4-0.9-0.5-1.5H30C30,265.7,30.1,266,30.3,266.3z M35.9,258.6v1H30v-1
				H35.9z"/>
		</g>
	</g>
</g>
<g>
	<g>
		<g>
			<path class="st5" d="M20.2,186.1c0.2,0.3,0.5,0.6,0.9,0.8s0.8,0.3,1.4,0.3c0.8,0,1.5-0.2,1.9-0.6c0.4-0.4,0.6-0.9,0.6-1.7
				c0-0.6-0.2-1.1-0.5-1.4c-0.3-0.4-0.8-0.5-1.5-0.5c-0.3,0-0.7,0-0.9,0.1s-0.5,0.2-0.8,0.4l-0.6-0.7l3.7-3.2H19v-1h6.7v1l-3.2,2.9
				c0.3-0.1,0.6-0.1,1-0.1c0.5,0,0.9,0.1,1.3,0.3c0.4,0.2,0.7,0.5,1,0.9s0.4,0.9,0.4,1.5c0,0.6-0.1,1.1-0.4,1.6
				c-0.3,0.5-0.7,0.9-1.2,1.2c-0.6,0.3-1.3,0.5-2.2,0.5c-0.8,0-1.5-0.1-2-0.4s-1-0.7-1.3-1.2s-0.4-1.1-0.4-1.7h1.2
				C19.9,185.3,20,185.7,20.2,186.1z"/>
			<path class="st5" d="M29.4,187.5c-0.6-0.4-1.1-1-1.4-1.7c-0.3-0.7-0.5-1.6-0.5-2.5c0-1,0.2-1.8,0.5-2.5c0.3-0.7,0.8-1.3,1.4-1.7
				s1.4-0.6,2.4-0.6c0.9,0,1.7,0.2,2.4,0.6c0.6,0.4,1.1,1,1.4,1.7c0.3,0.7,0.5,1.6,0.5,2.5c0,1-0.2,1.8-0.5,2.5
				c-0.3,0.7-0.8,1.3-1.4,1.7c-0.6,0.4-1.4,0.6-2.4,0.6C30.9,188.2,30.1,188,29.4,187.5z M29.1,185.5c0.2,0.6,0.5,1,1,1.3
				c0.4,0.3,1,0.4,1.7,0.4c0.7,0,1.3-0.1,1.7-0.4s0.8-0.7,1-1.3c0.2-0.6,0.3-1.3,0.3-2.2c0-0.9-0.1-1.6-0.3-2.2s-0.5-1-1-1.3
				s-1-0.4-1.7-0.4c-0.7,0-1.3,0.1-1.7,0.4c-0.4,0.3-0.8,0.7-1,1.3s-0.3,1.3-0.3,2.2C28.8,184.1,28.9,184.9,29.1,185.5z"/>
		</g>
	</g>
</g>
<g>
	<path class="st8" d="M52.4,670.2V104.7"/>
	<line class="st8" x1="52.4" y1="665.2" x2="46.4" y2="665.2"/>
	<line class="st8" x1="52.4" y1="584.7" x2="46.4" y2="584.7"/>
	<line class="st8" x1="52.4" y1="504.7" x2="46.4" y2="504.7"/>
	<line class="st8" x1="52.4" y1="424.7" x2="46.4" y2="424.7"/>
	<line class="st8" x1="52.4" y1="344.7" x2="46.4" y2="344.7"/>
	<line class="st8" x1="52.4" y1="264.7" x2="46.4" y2="264.7"/>
	<line class="st8" x1="52.4" y1="184.7" x2="46.4" y2="184.7"/>
	<line class="st8" x1="52.4" y1="104.7" x2="46.4" y2="104.7"/>
</g>
<g>
	<g>
		<g>
			<path class="st5" d="M21.2,106.1c0.2,0.3,0.5,0.6,0.9,0.8s0.8,0.3,1.4,0.3c0.8,0,1.5-0.2,1.9-0.6c0.4-0.4,0.6-0.9,0.6-1.7
				c0-0.6-0.2-1.1-0.5-1.4c-0.3-0.4-0.8-0.5-1.5-0.5c-0.3,0-0.7,0-0.9,0.1s-0.5,0.2-0.8,0.4l-0.6-0.7l3.7-3.2H20v-1h6.7v1l-3.2,2.9
				c0.3-0.1,0.6-0.1,1-0.1c0.5,0,0.9,0.1,1.3,0.3c0.4,0.2,0.7,0.5,1,0.9s0.4,0.9,0.4,1.5c0,0.6-0.1,1.1-0.4,1.6
				c-0.3,0.5-0.7,0.9-1.2,1.2c-0.6,0.3-1.3,0.5-2.2,0.5c-0.8,0-1.5-0.1-2-0.4s-1-0.7-1.3-1.2s-0.4-1.1-0.4-1.7h1.2
				C20.9,105.3,21,105.7,21.2,106.1z"/>
			<path class="st5" d="M30.1,106.3c0.2,0.3,0.4,0.5,0.8,0.7c0.4,0.2,0.8,0.2,1.4,0.2c0.6,0,1.1-0.1,1.4-0.3
				c0.4-0.2,0.7-0.5,0.8-0.8c0.2-0.3,0.3-0.8,0.3-1.2c0-0.5-0.1-0.9-0.3-1.3c-0.2-0.3-0.4-0.6-0.8-0.8s-0.7-0.3-1.2-0.3
				c-0.5,0-1,0.1-1.4,0.3s-0.8,0.5-1.1,0.9H29l0.3-5.2h1.1l-0.3,4.2c0.3-0.3,0.7-0.6,1.1-0.8c0.4-0.2,1-0.3,1.6-0.3
				c0.7,0,1.2,0.1,1.7,0.4c0.5,0.3,0.9,0.6,1.1,1.1s0.4,1,0.4,1.7c0,1-0.3,1.8-0.9,2.4c-0.6,0.6-1.6,0.9-2.9,0.9
				c-0.8,0-1.5-0.1-2-0.4c-0.5-0.2-1-0.6-1.2-1s-0.4-0.9-0.5-1.5h1.2C29.9,105.7,30,106,30.1,106.3z M35.7,98.6v1h-5.9v-1H35.7z"/>
		</g>
	</g>
</g>
<g>
	<line class="st8" x1="52" y1="665.2" x2="802" y2="665.2"/>
	<line class="st8" x1="120.2" y1="665.2" x2="120.2" y2="670.2"/>
	<line class="st8" x1="188.4" y1="665.2" x2="188.4" y2="670.2"/>
	<line class="st8" x1="256.6" y1="665.2" x2="256.6" y2="670.2"/>
	<line class="st8" x1="324.8" y1="665.2" x2="324.8" y2="670.2"/>
	<line class="st8" x1="393" y1="665.2" x2="393" y2="670.2"/>
	<line class="st8" x1="461.1" y1="665.2" x2="461.1" y2="670.2"/>
	<line class="st8" x1="529.3" y1="665.2" x2="529.3" y2="670.2"/>
	<line class="st8" x1="597.5" y1="665.2" x2="597.5" y2="670.2"/>
	<line class="st8" x1="665.7" y1="665.2" x2="665.7" y2="670.2"/>
	<line class="st8" x1="733.9" y1="665.2" x2="733.9" y2="670.2"/>
	<line class="st8" x1="802" y1="665.2" x2="802" y2="670.2"/>
	<line class="st8" x1="802" y1="665.2" x2="802" y2="670.2"/>
</g>
<g>
	<g>
		<line class="st9" x1="52.4" y1="104.7" x2="58.4" y2="104.7"/>
		<line class="st10" x1="68.4" y1="104.7" x2="789.8" y2="104.7"/>
		<line class="st9" x1="794.8" y1="104.7" x2="800.8" y2="104.7"/>
	</g>
</g>
<line class="st11" x1="52.4" y1="184.7" x2="800.8" y2="184.7"/>
<line class="st11" x1="52.4" y1="264.7" x2="800.8" y2="264.7"/>
<line class="st11" x1="52.4" y1="344.7" x2="800.8" y2="344.7"/>
<line class="st11" x1="52.4" y1="424.7" x2="800.8" y2="424.7"/>
<line class="st11" x1="52.4" y1="504.4" x2="800.8" y2="504.4"/>
<line class="st11" x1="52.4" y1="584.7" x2="800.8" y2="584.7"/>
<g>
	<g>
		<line class="st9" x1="52.4" y1="657.2" x2="58.4" y2="657.2"/>
		<line class="st10" x1="68.4" y1="657.2" x2="789.8" y2="657.2"/>
		<line class="st9" x1="794.8" y1="657.2" x2="800.8" y2="657.2"/>
	</g>
</g>
<g>
	<g>
		<g>
			<path class="st12" d="M58.8,249.6c-0.7-1.2-1.6-2.5-2.6-3.6c-1.2,0.9-2.4,1.9-3.4,2.9c1,1,1.9,2.1,2.6,3.2
				C56.4,251.1,57.5,250.3,58.8,249.6z"/>
		</g>
		<g>
			<path class="st12" d="M69.2,255.3c-0.1-1.4-0.2-2.9-0.5-4.4c-1.5,0.2-3,0.5-4.3,0.9c0.4,1.4,0.6,2.8,0.7,4.1
				C66.3,255.6,67.7,255.4,69.2,255.3z"/>
		</g>
		<g>
			<path class="st12" d="M76.9,264.4c0.3-1.4,0.6-2.8,0.8-4.3c-1.5-0.2-2.9-0.4-4.3-0.5c-0.2,1.4-0.4,2.8-0.6,4.2
				C74.1,264,75.5,264.2,76.9,264.4z"/>
		</g>
		<g>
			<path class="st12" d="M83,274.8c0.4-1.4,0.8-2.7,1.2-4.1c-1.4-0.4-2.8-0.8-4.2-1.1c-0.4,1.4-0.8,2.8-1.2,4.1
				C80.2,274,81.6,274.4,83,274.8z"/>
		</g>
		<g>
			<polygon class="st12" points="88.5,285.4 89.9,281.4 85.7,280.1 84.4,284.2 			"/>
		</g>
		<g>
			<path class="st12" d="M94.2,296c0.4-1.4,0.8-2.8,1.2-4.1c-1.4-0.3-2.8-0.7-4.2-1.1c-0.4,1.4-0.8,2.7-1.2,4.1
				C91.5,295.3,92.8,295.6,94.2,296z"/>
		</g>
		<g>
			<path class="st12" d="M101.2,305.7c0.1-1.4,0.3-2.8,0.5-4.2c-1.4-0.1-2.8-0.3-4.2-0.5c-0.3,1.4-0.5,2.8-0.7,4.3
				C98.3,305.5,99.7,305.7,101.2,305.7z"/>
		</g>
		<g>
			<path class="st12" d="M110.5,313.2c-0.4-1.4-0.7-2.7-0.9-4.1c-1.3,0.4-2.7,0.7-4.1,0.8c0.1,1.4,0.4,2.9,0.7,4.4
				C107.7,314,109.2,313.6,110.5,313.2z"/>
		</g>
		<g>
			<path class="st12" d="M122.2,315.4c-0.5-0.5-1-1-1.5-1.5c-0.5-0.5-0.9-1-1.3-1.6c-0.9,1-2,1.9-3.2,2.7c0.8,1.2,1.7,2.4,2.8,3.5
				c0.6-0.5,1.2-1,1.7-1.5C121.2,316.5,121.7,316,122.2,315.4z"/>
		</g>
		<g>
			<path class="st12" d="M132.8,310.4c-1.4-0.1-2.8-0.3-4.1-0.6c-0.1,1.3-0.4,2.7-0.8,4.1c1.4,0.5,2.8,0.8,4.4,1
				C132.6,313.3,132.8,311.8,132.8,310.4z"/>
		</g>
		<g>
			<path class="st12" d="M140.1,300.9c-1.4,0.3-2.8,0.6-4.2,0.9c0.3,1.4,0.6,2.7,0.9,4.1c1.4-0.2,2.9-0.4,4.3-0.8
				C140.8,303.7,140.5,302.3,140.1,300.9z"/>
		</g>
		<g>
			<path class="st12" d="M145.4,290.2c-1.4,0.5-2.7,1-4.1,1.4c0.5,1.3,1.1,2.7,1.6,4c1.3-0.5,2.7-0.9,4.1-1.4
				C146.5,292.8,146,291.5,145.4,290.2z"/>
		</g>
		<g>
			<polygon class="st12" points="149.8,279 145.8,280.7 147.7,284.6 151.6,282.9 			"/>
		</g>
		<g>
			<polygon class="st12" points="153.6,267.7 149.8,269.5 151.7,273.3 155.6,271.5 			"/>
		</g>
		<g>
			<polygon class="st12" points="157.5,256.3 153.6,258.1 155.5,262 159.4,260.1 			"/>
		</g>
		<g>
			<polygon class="st12" points="161.5,245 157.6,246.7 159.4,250.6 163.4,248.9 			"/>
		</g>
		<g>
			<path class="st12" d="M166.2,233.9c-1.3,0.5-2.7,1-4,1.5c0.5,1.4,1.1,2.7,1.6,4c1.4-0.5,2.7-1,4-1.5
				C167.2,236.6,166.7,235.3,166.2,233.9z"/>
		</g>
		<g>
			<path class="st12" d="M172.2,223.5c-1.4,0.2-2.9,0.5-4.3,0.8c0.3,1.4,0.7,2.9,1.1,4.2c1.4-0.4,2.8-0.7,4.2-0.9
				C172.7,226.3,172.4,225,172.2,223.5z"/>
		</g>
		<g>
			<path class="st12" d="M180.9,215.4c-1.4-0.4-2.8-0.7-4.4-0.8c-0.3,1.5-0.4,3-0.4,4.4c1.4,0,2.8,0.2,4.1,0.5
				C180.3,218.2,180.5,216.8,180.9,215.4z"/>
		</g>
		<g>
			<path class="st12" d="M192.5,213.5c-1-1-2-2.1-3-3.1l-0.8,0.8l-0.8,0.8c-0.5,0.5-1,1.1-1.4,1.6c0.6,0.5,1.1,1,1.6,1.4l1.4,1.5
				C190.5,215.5,191.5,214.5,192.5,213.5z"/>
		</g>
		<g>
			<path class="st12" d="M204.5,214.8c-0.8-1.2-1.6-2.3-2.5-3.5c-1.2,0.9-2.3,1.7-3.4,2.6c0.9,1.2,1.7,2.3,2.5,3.5
				C202.1,216.5,203.3,215.6,204.5,214.8z"/>
		</g>
		<g>
			<path class="st12" d="M215.9,218.2c-0.6-1.3-1.2-2.6-1.8-3.9c-1.3,0.6-2.6,1.3-3.8,1.9c0.6,1.3,1.3,2.6,1.8,3.9
				C213.3,219.5,214.6,218.8,215.9,218.2z"/>
		</g>
		<g>
			<polygon class="st12" points="226.9,223 225.4,219 221.5,220.6 223,224.6 			"/>
		</g>
		<g>
			<path class="st12" d="M238.3,226.9c-0.7-1.3-1.4-2.6-2-3.8c-1.2,0.7-2.4,1.4-3.7,2.1c0.6,1.3,1.3,2.5,2,3.8
				C235.8,228.3,237.1,227.6,238.3,226.9z"/>
		</g>
		<g>
			<path class="st12" d="M250.1,228.6c-0.9-1.1-1.8-2.3-2.7-3.4c-1.1,0.9-2.2,1.8-3.3,2.8c0.8,1.1,1.7,2.2,2.7,3.4
				C248,230.5,249.1,229.5,250.1,228.6z"/>
		</g>
		<g>
			<path class="st12" d="M262.1,228.4c-1.2-0.8-2.2-1.8-3.2-2.7c-0.8,1.1-1.8,2.1-2.8,3.2c1,1,2.1,2,3.2,3
				C260.4,230.7,261.3,229.6,262.1,228.4z"/>
		</g>
		<g>
			<path class="st12" d="M273.2,224c-1.4-0.3-2.7-0.7-4-1.2c-0.3,1.3-0.7,2.7-1.3,4c1.3,0.6,2.7,1.1,4.2,1.5
				C272.5,226.8,272.9,225.4,273.2,224z"/>
		</g>
		<g>
			<path class="st12" d="M282.1,216c-1.4,0.1-2.9,0.1-4.2,0.1c0.1,1.4,0.1,2.8,0.1,4.2c1.4,0.1,2.9,0.1,4.4,0
				C282.3,218.9,282.2,217.4,282.1,216z"/>
		</g>
		<g>
			<polygon class="st12" points="289.4,206.5 285.1,207.1 285.9,211.3 290.1,210.7 			"/>
		</g>
		<g>
			<path class="st12" d="M296.5,196.8c-1.4,0.2-2.8,0.3-4.3,0.5c0.2,1.4,0.4,2.9,0.7,4.3c1.4-0.2,2.9-0.4,4.3-0.6
				C296.9,199.6,296.7,198.2,296.5,196.8z"/>
		</g>
		<g>
			<path class="st12" d="M304.7,188.1c-1.4-0.2-2.9-0.2-4.4-0.2c-0.1,1.5,0,2.9,0,4.4c1.4,0,2.9,0,4.2,0.1
				C304.5,190.9,304.6,189.5,304.7,188.1z"/>
		</g>
		<g>
			<path class="st12" d="M315.1,182.2c-1.3-0.7-2.6-1.3-4-1.8c-0.6,1.4-1.1,2.8-1.4,4.2c1.4,0.4,2.7,0.9,3.9,1.5
				C313.9,184.8,314.4,183.5,315.1,182.2z"/>
		</g>
		<g>
			<path class="st12" d="M326.9,180.8c-1-1-1.9-2.1-3.1-3.1c-1.1,1.1-2.1,2.2-2.9,3.2c1.1,1,2.1,2,3.1,2.9
				C324.9,182.8,326,181.9,326.9,180.8z"/>
		</g>
		<g>
			<path class="st12" d="M338.9,181.5c-0.9-1.1-1.8-2.2-2.8-3.3c-1.1,0.9-2.2,1.9-3.2,2.9c0.9,1.1,1.9,2.2,2.8,3.3
				C336.7,183.4,337.8,182.4,338.9,181.5z"/>
		</g>
		<g>
			<path class="st12" d="M350.8,183.4c-0.8-1.2-1.5-2.4-2.4-3.6c-1.2,0.8-2.4,1.6-3.5,2.5c0.8,1.2,1.6,2.4,2.4,3.6
				C348.4,185,349.6,184.2,350.8,183.4z"/>
		</g>
		<g>
			<polygon class="st12" points="362.4,186.3 360.3,182.6 356.6,184.8 358.7,188.6 			"/>
		</g>
		<g>
			<path class="st12" d="M374.1,188.7c-0.8-1.2-1.7-2.4-2.4-3.5c-1.1,0.9-2.3,1.7-3.5,2.5c0.8,1.2,1.6,2.4,2.4,3.5
				C371.9,190.4,373,189.5,374.1,188.7z"/>
		</g>
		<g>
			<path class="st12" d="M386.1,189.7c-1-1.1-1.9-2.2-2.8-3.3c-1,1-2.1,1.9-3.2,2.9c0.9,1.1,1.8,2.2,2.8,3.3
				C384,191.6,385.1,190.7,386.1,189.7z"/>
		</g>
		<g>
			<path class="st12" d="M398.1,189.7l-3-3c-1,1-2,2.1-3,3.1c1,1,2,2,3,3L398.1,189.7z"/>
		</g>
		<g>
			<path class="st12" d="M410.1,188.8c-1.1-0.9-2.2-1.8-3.3-2.8c-0.9,1.1-1.8,2.2-2.7,3.4c1.1,0.9,2.2,1.8,3.3,2.8
				C408.3,191.1,409.2,189.9,410.1,188.8z"/>
		</g>
		<g>
			<path class="st12" d="M421.8,186.6c-1.2-0.8-2.4-1.6-3.6-2.4c-0.7,1.2-1.5,2.4-2.3,3.7c1.2,0.8,2.4,1.6,3.6,2.4
				C420.3,189,421.1,187.8,421.8,186.6z"/>
		</g>
		<g>
			<polygon class="st12" points="433.5,183.7 429.8,181.4 427.6,185.1 431.3,187.4 			"/>
		</g>
		<g>
			<path class="st12" d="M445.3,181.7c-1.1-0.9-2.2-1.8-3.4-2.7c-0.9,1.2-1.7,2.3-2.6,3.5c1.2,0.9,2.3,1.8,3.4,2.7
				C443.6,184,444.4,182.9,445.3,181.7z"/>
		</g>
		<g>
			<path class="st12" d="M457.3,181c-1-1-2.1-2-3.1-3c-1,1.1-1.9,2.1-2.9,3.2c1.1,1,2.1,2,3.1,3C455.3,183.1,456.3,182.1,457.3,181z
				"/>
		</g>
		<g>
			<path class="st12" d="M469.3,180.5c-1.1-1-2.2-1.9-3.2-2.9c-0.9,1.1-1.8,2.2-2.8,3.3c1,1,2.1,1.9,3.2,2.9
				C467.4,182.7,468.4,181.6,469.3,180.5z"/>
		</g>
		<g>
			<path class="st12" d="M481,178.1c-1.3-0.7-2.5-1.4-3.7-2.2c-0.7,1.2-1.4,2.5-2.2,3.7c1.2,0.8,2.4,1.6,3.7,2.3
				C479.7,180.7,480.4,179.4,481,178.1z"/>
		</g>
		<g>
			<path class="st12" d="M492,173.5c-1.4-0.5-2.7-1-4-1.5c-0.4,1.3-0.9,2.7-1.4,4.1c1.3,0.5,2.6,1,4,1.5
				C491.1,176.2,491.6,174.8,492,173.5z"/>
		</g>
		<g>
			<path class="st12" d="M502.8,168.3c-1.3-0.5-2.6-1.1-4-1.6c-0.5,1.4-1,2.7-1.4,4.1c1.4,0.5,2.7,1,4,1.6
				C501.8,171,502.3,169.6,502.8,168.3z"/>
		</g>
		<g>
			<path class="st12" d="M514.3,164.8c-1.2-0.8-2.4-1.6-3.7-2.4c-0.8,1.2-1.5,2.5-2.2,3.8c1.3,0.7,2.5,1.4,3.6,2.2
				C512.8,167.2,513.5,166,514.3,164.8z"/>
		</g>
		<g>
			<path class="st12" d="M526.2,163.7c-1-1-2.1-1.9-3.2-2.9c-1,1.1-1.9,2.2-2.8,3.3c1.1,1,2.2,1.9,3.2,2.9
				C524.3,165.8,525.3,164.7,526.2,163.7z"/>
		</g>
		<g>
			<path class="st12" d="M538.2,164.1c-0.9-1.1-1.8-2.2-2.8-3.3c-1.1,1-2.2,1.9-3.2,2.9c1,1.1,1.9,2.2,2.8,3.3
				C536,166,537.1,165.1,538.2,164.1z"/>
		</g>
		<g>
			<path class="st12" d="M550,166.5c-0.7-1.2-1.4-2.5-2.2-3.7c-1.3,0.7-2.5,1.5-3.7,2.3c0.8,1.3,1.5,2.5,2.2,3.7
				C547.5,168,548.7,167.3,550,166.5z"/>
		</g>
		<g>
			<path class="st12" d="M561.1,171c-0.5-1.3-1-2.7-1.5-4c-1.3,0.5-2.7,1.1-4,1.6c0.5,1.4,1,2.7,1.5,4
				C558.4,172,559.8,171.5,561.1,171z"/>
		</g>
		<g>
			<path class="st12" d="M572.1,175.7c-0.6-1.3-1.1-2.7-1.6-4c-1.3,0.6-2.6,1.2-3.9,1.8c0.5,1.3,1.1,2.6,1.7,4
				C569.6,176.9,570.9,176.3,572.1,175.7z"/>
		</g>
		<g>
			<path class="st12" d="M583.8,178.6c-0.8-1.2-1.6-2.4-2.3-3.6c-1.1,0.8-2.3,1.6-3.5,2.5c0.7,1.2,1.5,2.4,2.3,3.6
				C581.5,180.2,582.6,179.4,583.8,178.6z"/>
		</g>
		<g>
			<path class="st12" d="M595.7,179.4c-1-1.1-2-2.1-2.9-3.2c-1,1-2,2-3.1,3c0.9,1.1,1.9,2.1,2.9,3.2
				C593.7,181.4,594.7,180.4,595.7,179.4z"/>
		</g>
		<g>
			<path class="st12" d="M607.7,180.7c-0.7-1.2-1.6-2.4-2.4-3.6c-1.2,0.8-2.4,1.7-3.5,2.7c0.9,1.1,1.7,2.3,2.5,3.4
				C605.3,182.2,606.4,181.4,607.7,180.7z"/>
		</g>
		<g>
			<path class="st12" d="M618.7,185.1c-0.3-1.4-0.8-2.8-1.3-4.2c-1.4,0.4-2.8,1-4.1,1.5c0.5,1.3,1,2.7,1.4,4
				C616,186,617.4,185.5,618.7,185.1z"/>
		</g>
		<g>
			<path class="st12" d="M628.4,192.2c-0.1-1.4-0.3-2.8-0.4-4.3c-1.4,0.2-2.9,0.4-4.3,0.6c0.2,1.4,0.3,2.9,0.4,4.3
				C625.6,192.5,627,192.3,628.4,192.2z"/>
		</g>
		<g>
			<path class="st12" d="M637.8,199.7c-0.2-1.4-0.4-2.9-0.5-4.3c-1.4,0.2-2.8,0.4-4.2,0.6c0.1,1.4,0.3,2.8,0.5,4.3
				C635,200.1,636.4,199.9,637.8,199.7z"/>
		</g>
		<g>
			<path class="st12" d="M648.3,205.3c-0.6-1.3-1.1-2.6-1.5-3.9c-1.3,0.6-2.6,1-4,1.5c0.4,1.4,0.9,2.8,1.4,4.1
				C645.7,206.5,647,206,648.3,205.3z"/>
		</g>
		<g>
			<path class="st12" d="M660,207.8c-0.9-1.1-1.8-2.2-2.6-3.4c-1.1,0.9-2.2,1.7-3.4,2.6c0.8,1.2,1.6,2.4,2.5,3.6
				C657.8,209.7,659,208.7,660,207.8z"/>
		</g>
		<g>
			<polygon class="st12" points="672,207.9 669,204.8 666,207.9 669.1,211 			"/>
		</g>
		<g>
			<polygon class="st12" points="684,207.6 680.9,204.6 678,207.8 681.1,210.8 			"/>
		</g>
		<g>
			<polygon class="st12" points="696,207 692.8,204.1 690,207.3 693.2,210.2 			"/>
		</g>
		<g>
			<polygon class="st12" points="708,206.3 704.8,203.3 702,206.6 705.2,209.5 			"/>
		</g>
		<g>
			<polygon class="st12" points="720,205.9 716.9,202.9 714,206 717.1,209 			"/>
		</g>
		<g>
			<polygon class="st12" points="732,205.8 729,202.7 726,205.8 729,208.9 			"/>
		</g>
		<g>
			<path class="st12" d="M743.7,203.4c-1.3-0.5-2.6-1.2-3.7-1.9c-0.5,1.2-1.2,2.5-2,3.7c1.2,0.8,2.5,1.6,3.8,2.2
				C742.5,206.1,743.2,204.8,743.7,203.4z"/>
		</g>
		<g>
			<path class="st12" d="M753.4,196.6c-1.4,0-2.8-0.1-4.2-0.3c0,1.4-0.1,2.8-0.4,4.2c1.4,0.3,2.9,0.4,4.4,0.5
				C753.4,199.5,753.4,198,753.4,196.6z"/>
		</g>
		<g>
			<path class="st12" d="M761.1,187.3c-1.4,0.2-2.9,0.4-4.3,0.5c0.2,1.4,0.5,2.8,0.7,4.3c1.4-0.1,2.8-0.3,4.3-0.5
				C761.5,190.1,761.3,188.7,761.1,187.3z"/>
		</g>
		<g>
			<polygon class="st12" points="767.7,177.4 763.5,178.2 764.4,182.4 768.7,181.6 			"/>
		</g>
		<g>
			<path class="st12" d="M774.7,167.6c-1.4,0.1-2.8,0.3-4.3,0.5c0.2,1.4,0.4,2.9,0.7,4.3c1.4-0.2,2.9-0.4,4.3-0.5
				C775.1,170.5,774.9,169.1,774.7,167.6z"/>
		</g>
		<g>
			<path class="st12" d="M783.3,159.3c-1.4-0.3-2.9-0.4-4.4-0.5c-0.2,1.5-0.2,2.9-0.2,4.4c1.4,0,2.8,0.1,4.2,0.3
				C783,162.1,783.1,160.7,783.3,159.3z"/>
		</g>
		<g>
			<path class="st12" d="M794.2,154.5c-1.2-0.8-2.5-1.6-3.8-2.2c-0.8,1.3-1.4,2.7-1.9,4c1.3,0.5,2.6,1.2,3.7,1.9
				C792.8,157,793.5,155.7,794.2,154.5z"/>
		</g>
	</g>
</g>
<path class="st13" d="M52.6,273.4c34.1,0,34.1,1,68.1,1s34.1,5,68.1,5s34.1-23.7,68.1-23.7s34.1,19.1,68.1,19.1s34.1-28.9,68.1-28.9
	c34.1,0,34.1-60.2,68.1-60.2s34.1,38.9,68.1,38.9s34.1-16.5,68.1-16.5c34.1,0,34.1,22.3,68.1,22.3c34.1,0,34.1,68.9,68.1,68.9
	c34.1,0,34.1,46,68.1,46"/>
<g>
	<g>
		<path class="st6" d="M63,93.8c0.2,0.4,0.5,0.7,0.9,0.9c0.4,0.2,1,0.3,1.7,0.3c0.6,0,1.1-0.1,1.5-0.2c0.4-0.1,0.6-0.3,0.8-0.6
			c0.2-0.3,0.2-0.6,0.2-1c0-0.5-0.1-0.9-0.4-1.1c-0.3-0.3-0.7-0.4-1.3-0.5l-2.2-0.3c-0.8-0.1-1.4-0.4-1.8-0.8s-0.6-1-0.6-1.7
			c0-0.5,0.1-1,0.4-1.4s0.7-0.7,1.2-1c0.5-0.2,1.2-0.3,2-0.3c0.8,0,1.5,0.1,2,0.4c0.6,0.2,1,0.6,1.3,1.1c0.3,0.5,0.5,1,0.5,1.6h-1.1
			c0-0.4-0.2-0.8-0.4-1.1c-0.2-0.3-0.5-0.6-0.9-0.7c-0.4-0.2-0.9-0.3-1.4-0.3c-0.8,0-1.4,0.2-1.8,0.5S63,88.3,63,88.8
			c0,0.4,0.1,0.7,0.3,1c0.2,0.3,0.6,0.4,1.1,0.5l2.3,0.3c0.9,0.1,1.5,0.4,1.9,0.8s0.6,1,0.6,1.7c0,0.6-0.1,1.1-0.4,1.5
			c-0.3,0.4-0.7,0.7-1.2,0.9c-0.6,0.2-1.3,0.3-2.1,0.3c-1,0-1.8-0.1-2.4-0.4c-0.6-0.3-1-0.7-1.3-1.2c-0.3-0.5-0.4-1.1-0.4-1.7h1.1
			C62.7,93,62.8,93.5,63,93.8z"/>
		<path class="st6" d="M71.6,95.7c-0.3-0.2-0.6-0.4-0.8-0.7c-0.2-0.3-0.3-0.7-0.3-1.1c0-0.4,0.1-0.7,0.2-1s0.4-0.5,0.7-0.7
			c0.3-0.2,0.7-0.3,1.2-0.4l1.8-0.3c0.4-0.1,0.6-0.2,0.8-0.3c0.2-0.1,0.2-0.3,0.2-0.6c0-0.3-0.1-0.5-0.2-0.7
			c-0.1-0.2-0.3-0.3-0.5-0.4s-0.6-0.2-1-0.2c-0.7,0-1.1,0.1-1.4,0.4c-0.3,0.3-0.5,0.7-0.5,1.1h-1.1c0-0.5,0.1-0.9,0.4-1.3
			c0.2-0.4,0.6-0.6,1-0.8s1-0.3,1.6-0.3c0.6,0,1.1,0.1,1.6,0.3c0.4,0.2,0.7,0.4,0.9,0.7c0.2,0.3,0.3,0.7,0.3,1.1V94
			c0,0.3,0,0.5,0,0.8c0,0.3,0,0.6,0.1,0.9h-1c0-0.3-0.1-0.6-0.1-0.8s0-0.5,0-0.8c-0.1,0.3-0.3,0.6-0.5,0.9c-0.2,0.3-0.5,0.5-0.9,0.7
			c-0.4,0.2-0.8,0.3-1.3,0.3C72.4,95.9,72,95.8,71.6,95.7z M74.4,94.7c0.4-0.2,0.6-0.6,0.8-1c0.2-0.4,0.3-0.8,0.3-1.3v-0.6
			c-0.2,0.1-0.3,0.2-0.5,0.3c-0.2,0.1-0.4,0.1-0.6,0.2l-0.2,0l-1.2,0.2c-0.5,0.1-0.8,0.3-1.1,0.5c-0.2,0.2-0.3,0.5-0.3,0.9
			c0,0.4,0.1,0.7,0.4,0.9s0.6,0.3,1,0.3C73.6,95,74.1,94.9,74.4,94.7z"/>
		<path class="st6" d="M78.4,85.9h1.1v9.8h-1.1V85.9z"/>
		<path class="st6" d="M81.3,86.4h1.5v1.2h-1.5V86.4z M81.4,88.7h1.1v7h-1.1V88.7z"/>
		<path class="st6" d="M84.5,88.7h1.1v7h-1.1V88.7z M85.6,90.7c0.2-0.7,0.5-1.2,1-1.6c0.5-0.4,1-0.6,1.7-0.6c0.6,0,1.1,0.1,1.4,0.3
			c0.4,0.2,0.6,0.5,0.8,0.9c0.2,0.4,0.3,0.9,0.3,1.5v4.5h-1.1v-4.3c0-0.5-0.1-0.9-0.2-1.2c-0.1-0.3-0.3-0.5-0.6-0.6
			s-0.6-0.2-0.9-0.2c-0.5,0-1,0.1-1.3,0.4c-0.4,0.3-0.6,0.7-0.8,1.2c-0.2,0.5-0.3,1.2-0.3,2h-0.4C85.3,92.1,85.4,91.3,85.6,90.7z"/>
		<path class="st6" d="M92.5,86.4h1.5v1.2h-1.5V86.4z M92.7,88.7h1.1v7h-1.1V88.7z"/>
		<path class="st6" d="M96.8,95.6c-0.2-0.1-0.4-0.3-0.5-0.5c-0.1-0.2-0.1-0.5-0.1-0.9v-4.5h-1.4V89l1.5-0.3l0.4-1.5h0.6v1.6h2.3v0.9
			h-2.3v5.2h2.2v0.9h-1.7C97.4,95.7,97,95.7,96.8,95.6z"/>
		<path class="st6" d="M101.7,95.7c-0.3-0.2-0.6-0.4-0.8-0.7c-0.2-0.3-0.3-0.7-0.3-1.1c0-0.4,0.1-0.7,0.2-1s0.4-0.5,0.7-0.7
			c0.3-0.2,0.7-0.3,1.2-0.4l1.8-0.3c0.4-0.1,0.6-0.2,0.8-0.3c0.2-0.1,0.2-0.3,0.2-0.6c0-0.3-0.1-0.5-0.2-0.7
			c-0.1-0.2-0.3-0.3-0.5-0.4s-0.6-0.2-1-0.2c-0.7,0-1.1,0.1-1.4,0.4c-0.3,0.3-0.5,0.7-0.5,1.1h-1.1c0-0.5,0.1-0.9,0.4-1.3
			c0.2-0.4,0.6-0.6,1-0.8s1-0.3,1.6-0.3c0.6,0,1.1,0.1,1.6,0.3c0.4,0.2,0.7,0.4,0.9,0.7c0.2,0.3,0.3,0.7,0.3,1.1V94
			c0,0.3,0,0.5,0,0.8c0,0.3,0,0.6,0.1,0.9h-1c0-0.3-0.1-0.6-0.1-0.8s0-0.5,0-0.8c-0.1,0.3-0.3,0.6-0.5,0.9c-0.2,0.3-0.5,0.5-0.9,0.7
			c-0.4,0.2-0.8,0.3-1.3,0.3C102.5,95.9,102,95.8,101.7,95.7z M104.5,94.7c0.4-0.2,0.6-0.6,0.8-1c0.2-0.4,0.3-0.8,0.3-1.3v-0.6
			c-0.2,0.1-0.3,0.2-0.5,0.3c-0.2,0.1-0.4,0.1-0.6,0.2l-0.2,0l-1.2,0.2c-0.5,0.1-0.8,0.3-1.1,0.5c-0.2,0.2-0.3,0.5-0.3,0.9
			c0,0.4,0.1,0.7,0.4,0.9s0.6,0.3,1,0.3C103.7,95,104.1,94.9,104.5,94.7z M102.4,86.1l3,1.3l-0.2,0.4l-3.1-0.9L102.4,86.1z"/>
		<path class="st6" d="M121.8,95.7h-1.2v-8.4l-3.2,8.4h-1.6l-3.2-8.4v8.4h-1.2v-9.3h2l3.1,8.2l3.1-8.2h2V95.7z"/>
		<path class="st6" d="M124.5,95.7c-0.3-0.2-0.6-0.4-0.8-0.7c-0.2-0.3-0.3-0.7-0.3-1.1c0-0.4,0.1-0.7,0.2-1s0.4-0.5,0.7-0.7
			c0.3-0.2,0.7-0.3,1.2-0.4l1.8-0.3c0.4-0.1,0.6-0.2,0.8-0.3c0.2-0.1,0.2-0.3,0.2-0.6c0-0.3-0.1-0.5-0.2-0.7
			c-0.1-0.2-0.3-0.3-0.5-0.4s-0.6-0.2-1-0.2c-0.7,0-1.1,0.1-1.4,0.4c-0.3,0.3-0.5,0.7-0.5,1.1h-1.1c0-0.5,0.1-0.9,0.4-1.3
			c0.2-0.4,0.6-0.6,1-0.8s1-0.3,1.6-0.3c0.6,0,1.1,0.1,1.6,0.3c0.4,0.2,0.7,0.4,0.9,0.7c0.2,0.3,0.3,0.7,0.3,1.1V94
			c0,0.3,0,0.5,0,0.8c0,0.3,0,0.6,0.1,0.9h-1c0-0.3-0.1-0.6-0.1-0.8s0-0.5,0-0.8c-0.1,0.3-0.3,0.6-0.5,0.9c-0.2,0.3-0.5,0.5-0.9,0.7
			c-0.4,0.2-0.8,0.3-1.3,0.3C125.2,95.9,124.8,95.8,124.5,95.7z M127.3,94.7c0.4-0.2,0.6-0.6,0.8-1c0.2-0.4,0.3-0.8,0.3-1.3v-0.6
			c-0.2,0.1-0.3,0.2-0.5,0.3c-0.2,0.1-0.4,0.1-0.6,0.2l-0.2,0l-1.2,0.2c-0.5,0.1-0.8,0.3-1.1,0.5c-0.2,0.2-0.3,0.5-0.3,0.9
			c0,0.4,0.1,0.7,0.4,0.9s0.6,0.3,1,0.3C126.4,95,126.9,94.9,127.3,94.7z"/>
		<path class="st6" d="M131.2,88.7h1.1v2.2l0,0.2v4.6h-1.1V88.7z M132.3,90.8c0.2-0.7,0.5-1.2,1-1.6c0.4-0.4,1-0.6,1.7-0.6h0.3v1.1
			h-0.3c-0.7,0-1.2,0.1-1.6,0.4s-0.6,0.7-0.8,1.2c-0.1,0.5-0.2,1.1-0.2,1.8H132C132,92.3,132.1,91.5,132.3,90.8z"/>
		<path class="st6" d="M137.5,95.5c-0.5-0.3-0.9-0.8-1.2-1.3c-0.3-0.6-0.4-1.2-0.4-1.9c0-0.7,0.1-1.3,0.4-1.9c0.3-0.6,0.7-1,1.2-1.3
			s1.2-0.5,1.9-0.5c0.7,0,1.3,0.1,1.8,0.4c0.5,0.3,0.9,0.7,1.1,1.2c0.3,0.5,0.4,1.1,0.4,1.8v0.2c0,0.1,0,0.2,0,0.3h-5.9v-0.8h5.3
			l-0.5,0.5c0-0.6,0-1.2-0.2-1.6c-0.2-0.4-0.4-0.7-0.7-0.9c-0.3-0.2-0.8-0.3-1.2-0.3c-0.5,0-1,0.1-1.3,0.3s-0.6,0.5-0.8,0.9
			c-0.2,0.4-0.3,1-0.3,1.7s0.1,1.2,0.3,1.7c0.2,0.4,0.5,0.7,0.8,0.9c0.4,0.2,0.8,0.3,1.3,0.3c0.5,0,0.8-0.1,1.1-0.2
			c0.3-0.1,0.5-0.3,0.7-0.5c0.2-0.2,0.3-0.5,0.4-0.8h1c0,0.4-0.2,0.8-0.4,1.1s-0.6,0.7-1.1,0.9c-0.5,0.2-1.1,0.3-1.8,0.3
			C138.7,96,138,95.8,137.5,95.5z"/>
		<path class="st6" d="M154.2,95.7l-0.9-2.4h-4.6l-0.9,2.4h-1.2l3.6-9.3h1.7l3.6,9.3H154.2z M149,92.4h3.9l-2-5.2L149,92.4z"/>
		<path class="st6" d="M161.7,89.5c0.5,0.7,0.8,1.6,0.8,2.7c0,0.8-0.1,1.4-0.3,2s-0.6,1-1,1.3c-0.5,0.3-1,0.5-1.7,0.5
			c-0.7,0-1.3-0.2-1.8-0.5c-0.5-0.3-0.8-0.8-1.1-1.3c-0.2-0.6-0.4-1.2-0.4-1.9c0-0.7,0.1-1.4,0.4-1.9c0.2-0.6,0.6-1,1.1-1.3
			c0.5-0.3,1.1-0.5,1.8-0.5C160.4,88.5,161.2,88.8,161.7,89.5z M158.3,89.7c-0.3,0.2-0.6,0.5-0.8,0.9c-0.2,0.4-0.2,0.9-0.2,1.6
			c0,0.6,0.1,1.1,0.2,1.6c0.2,0.4,0.4,0.7,0.8,0.9c0.3,0.2,0.8,0.3,1.3,0.3c0.5,0,0.9-0.1,1.3-0.3c0.4-0.2,0.6-0.5,0.8-0.9
			c0.2-0.4,0.3-0.9,0.3-1.6c0-0.6-0.1-1.2-0.3-1.6s-0.5-0.7-0.8-0.9c-0.4-0.2-0.8-0.3-1.3-0.3C159.1,89.4,158.6,89.5,158.3,89.7z
			 M163.2,95.7h-1.1v-1.7v-0.2v-8h1.1V95.7z"/>
		<path class="st6" d="M165.2,88.7h1.1v2.2l0,0.2v4.6h-1.1V88.7z M166.3,90.8c0.2-0.7,0.5-1.2,1-1.6c0.4-0.4,1-0.6,1.7-0.6h0.3v1.1
			h-0.3c-0.7,0-1.2,0.1-1.6,0.4s-0.6,0.7-0.8,1.2c-0.1,0.5-0.2,1.1-0.2,1.8H166C166,92.3,166.1,91.5,166.3,90.8z"/>
		<path class="st6" d="M170.2,86.4h1.5v1.2h-1.5V86.4z M170.4,88.7h1.1v7h-1.1V88.7z"/>
		<path class="st6" d="M174.1,95.7c-0.3-0.2-0.6-0.4-0.8-0.7c-0.2-0.3-0.3-0.7-0.3-1.1c0-0.4,0.1-0.7,0.2-1s0.4-0.5,0.7-0.7
			c0.3-0.2,0.7-0.3,1.2-0.4l1.8-0.3c0.4-0.1,0.6-0.2,0.8-0.3c0.2-0.1,0.2-0.3,0.2-0.6c0-0.3-0.1-0.5-0.2-0.7
			c-0.1-0.2-0.3-0.3-0.5-0.4s-0.6-0.2-1-0.2c-0.7,0-1.1,0.1-1.4,0.4c-0.3,0.3-0.5,0.7-0.5,1.1h-1.1c0-0.5,0.1-0.9,0.4-1.3
			c0.2-0.4,0.6-0.6,1-0.8s1-0.3,1.6-0.3c0.6,0,1.1,0.1,1.6,0.3c0.4,0.2,0.7,0.4,0.9,0.7c0.2,0.3,0.3,0.7,0.3,1.1V94
			c0,0.3,0,0.5,0,0.8c0,0.3,0,0.6,0.1,0.9h-1c0-0.3-0.1-0.6-0.1-0.8s0-0.5,0-0.8c-0.1,0.3-0.3,0.6-0.5,0.9c-0.2,0.3-0.5,0.5-0.9,0.7
			c-0.4,0.2-0.8,0.3-1.3,0.3C174.9,95.9,174.5,95.8,174.1,95.7z M176.9,94.7c0.4-0.2,0.6-0.6,0.8-1c0.2-0.4,0.3-0.8,0.3-1.3v-0.6
			c-0.2,0.1-0.3,0.2-0.5,0.3c-0.2,0.1-0.4,0.1-0.6,0.2l-0.2,0l-1.2,0.2c-0.5,0.1-0.8,0.3-1.1,0.5c-0.2,0.2-0.3,0.5-0.3,0.9
			c0,0.4,0.1,0.7,0.4,0.9s0.6,0.3,1,0.3C176.1,95,176.5,94.9,176.9,94.7z"/>
		<path class="st6" d="M181.9,95.6c-0.2-0.1-0.4-0.3-0.5-0.5c-0.1-0.2-0.1-0.5-0.1-0.9v-4.5h-1.4V89l1.5-0.3l0.4-1.5h0.6v1.6h2.3
			v0.9h-2.3v5.2h2.2v0.9H183C182.5,95.7,182.2,95.7,181.9,95.6z"/>
		<path class="st6" d="M185.9,86.4h1.5v1.2h-1.5V86.4z M186.1,88.7h1.1v7h-1.1V88.7z"/>
		<path class="st6" d="M189,90.3c0.3-0.6,0.7-1,1.2-1.3c0.5-0.3,1.2-0.5,1.9-0.5c0.7,0,1.3,0.1,1.8,0.3c0.5,0.2,0.8,0.6,1.1,1
			s0.4,0.9,0.4,1.5h-1.1c-0.1-0.4-0.2-0.7-0.4-1c-0.2-0.3-0.4-0.5-0.7-0.6c-0.3-0.2-0.7-0.2-1.1-0.2c-0.5,0-1,0.1-1.3,0.3
			s-0.6,0.5-0.8,0.9c-0.2,0.4-0.3,1-0.3,1.6s0.1,1.2,0.3,1.6c0.2,0.4,0.5,0.7,0.8,0.9c0.4,0.2,0.8,0.3,1.3,0.3
			c0.7,0,1.2-0.2,1.6-0.5s0.6-0.8,0.7-1.5h1.1c0,0.6-0.2,1-0.4,1.5s-0.7,0.8-1.2,1c-0.5,0.3-1.1,0.4-1.8,0.4c-0.8,0-1.4-0.2-1.9-0.5
			c-0.5-0.3-0.9-0.8-1.2-1.3c-0.3-0.6-0.4-1.2-0.4-1.9C188.6,91.5,188.8,90.9,189,90.3z"/>
		<path class="st6" d="M198,95.5c-0.5-0.3-0.9-0.8-1.2-1.3s-0.4-1.2-0.4-1.9c0-0.7,0.1-1.3,0.4-1.9c0.3-0.6,0.7-1,1.2-1.3
			s1.2-0.5,2-0.5c0.8,0,1.4,0.2,2,0.5s0.9,0.8,1.2,1.3c0.3,0.6,0.4,1.2,0.4,1.9c0,0.7-0.1,1.4-0.4,1.9c-0.3,0.6-0.7,1-1.2,1.3
			c-0.5,0.3-1.2,0.5-2,0.5C199.2,96,198.6,95.8,198,95.5z M197.8,93.8c0.2,0.4,0.4,0.7,0.8,0.9s0.8,0.3,1.3,0.3c0.5,0,1-0.1,1.3-0.3
			c0.4-0.2,0.6-0.5,0.8-0.9c0.2-0.4,0.3-1,0.3-1.6c0-0.7-0.1-1.2-0.3-1.6c-0.2-0.4-0.4-0.7-0.8-0.9c-0.4-0.2-0.8-0.3-1.3-0.3
			c-0.5,0-1,0.1-1.3,0.3c-0.4,0.2-0.6,0.5-0.8,0.9c-0.2,0.4-0.3,0.9-0.3,1.6C197.6,92.9,197.7,93.4,197.8,93.8z"/>
		<path class="st6" d="M209.4,93.9c0.2,0.3,0.5,0.6,0.9,0.8s0.8,0.3,1.4,0.3c0.8,0,1.5-0.2,1.9-0.6c0.4-0.4,0.6-0.9,0.6-1.7
			c0-0.6-0.2-1.1-0.5-1.4c-0.3-0.4-0.8-0.5-1.5-0.5c-0.3,0-0.7,0-0.9,0.1s-0.5,0.2-0.8,0.4l-0.6-0.7l3.7-3.2h-5.3v-1h6.7v1l-3.2,2.9
			c0.3-0.1,0.6-0.1,1-0.1c0.5,0,0.9,0.1,1.3,0.3c0.4,0.2,0.7,0.5,1,0.9c0.3,0.4,0.4,0.9,0.4,1.5c0,0.6-0.1,1.1-0.4,1.6
			s-0.7,0.9-1.2,1.2c-0.6,0.3-1.3,0.5-2.2,0.5c-0.8,0-1.5-0.1-2-0.4c-0.6-0.3-1-0.7-1.3-1.2c-0.3-0.5-0.4-1.1-0.4-1.7h1.2
			C209.1,93.1,209.2,93.5,209.4,93.9z"/>
		<path class="st6" d="M218.3,94.1c0.2,0.3,0.4,0.5,0.8,0.7c0.4,0.2,0.8,0.2,1.4,0.2c0.6,0,1.1-0.1,1.4-0.3c0.4-0.2,0.7-0.5,0.8-0.8
			c0.2-0.3,0.3-0.8,0.3-1.2c0-0.5-0.1-0.9-0.3-1.3c-0.2-0.4-0.4-0.6-0.8-0.8c-0.3-0.2-0.7-0.3-1.2-0.3c-0.5,0-1,0.1-1.4,0.3
			s-0.8,0.5-1.1,0.9h-1.1l0.3-5.2h1.1l-0.3,4.2c0.3-0.3,0.7-0.6,1.1-0.8c0.4-0.2,1-0.3,1.6-0.3c0.7,0,1.2,0.1,1.7,0.4
			c0.5,0.3,0.9,0.6,1.1,1.1c0.3,0.5,0.4,1,0.4,1.7c0,1-0.3,1.8-0.9,2.4c-0.6,0.6-1.6,0.9-2.9,0.9c-0.8,0-1.5-0.1-2-0.4
			c-0.5-0.2-1-0.6-1.2-1c-0.3-0.4-0.4-0.9-0.5-1.5h1.2C218,93.5,218.1,93.8,218.3,94.1z M223.9,86.4v1H218v-1H223.9z"/>
		<path class="st6" d="M230.1,95.1c-0.5-0.3-0.8-0.7-1.1-1.2s-0.4-1.2-0.4-1.9c0-1.1,0.3-2,0.8-2.6c0.5-0.6,1.4-0.9,2.4-0.9
			c1,0,1.8,0.3,2.3,0.9s0.8,1.5,0.8,2.6c0,0.8-0.1,1.4-0.3,2c-0.2,0.5-0.6,0.9-1,1.2c-0.5,0.3-1,0.4-1.7,0.4
			C231.2,95.6,230.6,95.4,230.1,95.1z M230.4,98.4c-0.5-0.2-0.9-0.5-1.1-0.9s-0.4-0.8-0.5-1.4h1.1c0,0.3,0.1,0.6,0.3,0.8
			c0.2,0.2,0.4,0.4,0.7,0.6c0.3,0.1,0.7,0.2,1.3,0.2c0.6,0,1-0.1,1.4-0.2c0.3-0.1,0.6-0.4,0.8-0.7c0.2-0.3,0.2-0.7,0.2-1.2v-7h1.1v7
			c0,0.6-0.1,1.2-0.3,1.6s-0.6,0.8-1.1,1c-0.5,0.2-1.2,0.3-2,0.3C231.5,98.7,230.9,98.6,230.4,98.4z M233.5,94.4
			c0.3-0.2,0.6-0.5,0.8-0.9c0.2-0.4,0.3-0.9,0.3-1.5c0-0.6-0.1-1.1-0.3-1.5c-0.2-0.4-0.5-0.7-0.8-0.9s-0.8-0.3-1.3-0.3
			c-0.5,0-1,0.1-1.3,0.3c-0.3,0.2-0.6,0.5-0.8,0.8c-0.2,0.4-0.3,0.9-0.3,1.5c0,0.6,0.1,1.1,0.3,1.5s0.4,0.7,0.8,0.9
			c0.3,0.2,0.8,0.3,1.3,0.3C232.7,94.7,233.2,94.6,233.5,94.4z"/>
		<path class="st6" d="M240.1,86.4h1l-3.2,9.3h-1L240.1,86.4z"/>
		<path class="st6" d="M242.2,86.4h1.2v9.3h-1.2V86.4z M243.1,94.8h5.2v0.9h-5.2V94.8z"/>
	</g>
</g>
<g>
	<g>
		<g>
			<path class="st6" d="M69.2,648.2l-0.9-2.4h-4.6l-0.9,2.4h-1.2l3.6-9.3h1.7l3.6,9.3H69.2z M64,644.9h3.9l-2-5.2L64,644.9z"/>
			<path class="st6" d="M71.5,642.7c0.3-0.6,0.7-1,1.2-1.3s1.2-0.5,1.9-0.5c0.7,0,1.3,0.1,1.8,0.3c0.5,0.2,0.8,0.6,1.1,1
				c0.3,0.4,0.4,0.9,0.4,1.5h-1.1c-0.1-0.4-0.2-0.7-0.4-1c-0.2-0.3-0.4-0.5-0.7-0.6s-0.7-0.2-1.1-0.2c-0.5,0-1,0.1-1.3,0.3
				c-0.4,0.2-0.6,0.5-0.8,0.9c-0.2,0.4-0.3,1-0.3,1.6c0,0.7,0.1,1.2,0.3,1.6c0.2,0.4,0.5,0.7,0.8,0.9c0.4,0.2,0.8,0.3,1.3,0.3
				c0.7,0,1.2-0.2,1.6-0.5s0.6-0.8,0.7-1.5H78c0,0.6-0.2,1-0.4,1.5c-0.3,0.4-0.7,0.8-1.2,1s-1.1,0.4-1.8,0.4c-0.8,0-1.4-0.2-1.9-0.5
				c-0.5-0.3-0.9-0.8-1.2-1.3c-0.3-0.6-0.4-1.2-0.4-1.9S71.2,643.3,71.5,642.7z"/>
			<path class="st6" d="M80.3,647.9c-0.5-0.3-0.8-0.7-1.1-1.3c-0.2-0.6-0.4-1.2-0.4-1.9c0-0.7,0.1-1.4,0.4-1.9
				c0.2-0.6,0.6-1,1.1-1.3c0.5-0.3,1.1-0.5,1.8-0.5c1,0,1.8,0.3,2.3,1c0.5,0.7,0.8,1.6,0.8,2.7s-0.3,2.1-0.8,2.7
				c-0.5,0.7-1.3,1-2.3,1C81.4,648.4,80.8,648.2,80.3,647.9z M83.7,647.2c0.4-0.2,0.6-0.5,0.8-0.9s0.3-1,0.3-1.6s-0.1-1.2-0.3-1.6
				s-0.5-0.7-0.8-0.9c-0.4-0.2-0.8-0.3-1.3-0.3c-0.5,0-1,0.1-1.3,0.3c-0.3,0.2-0.6,0.5-0.8,0.9c-0.2,0.4-0.2,0.9-0.2,1.6
				c0,0.6,0.1,1.2,0.2,1.6c0.2,0.4,0.4,0.7,0.8,0.9c0.3,0.2,0.8,0.3,1.3,0.3C82.9,647.5,83.3,647.4,83.7,647.2z M84.8,651v-9.8h1.1
				v9.8H84.8z"/>
			<path class="st6" d="M88.9,648.1c-0.4-0.2-0.7-0.5-0.8-0.9c-0.2-0.4-0.3-0.9-0.3-1.5v-4.5H89v4.3c0,0.5,0.1,0.9,0.2,1.2
				c0.1,0.3,0.3,0.5,0.6,0.6c0.3,0.1,0.6,0.2,1,0.2c0.5,0,0.9-0.1,1.3-0.4c0.3-0.3,0.6-0.7,0.8-1.2c0.2-0.5,0.3-1.2,0.3-2h0.4
				c0,0.9-0.1,1.7-0.3,2.4c-0.2,0.7-0.5,1.2-1,1.6c-0.4,0.4-1,0.6-1.7,0.6C89.8,648.4,89.3,648.3,88.9,648.1z M93,646v-0.2v-4.7h1.1
				v7H93V646z"/>
			<path class="st6" d="M96.9,648.1c-0.3-0.2-0.6-0.4-0.8-0.7c-0.2-0.3-0.3-0.7-0.3-1.1c0-0.4,0.1-0.7,0.2-1
				c0.1-0.3,0.4-0.5,0.7-0.7c0.3-0.2,0.7-0.3,1.2-0.4l1.8-0.3c0.4-0.1,0.6-0.2,0.8-0.3c0.2-0.1,0.2-0.3,0.2-0.6
				c0-0.3-0.1-0.5-0.2-0.7c-0.1-0.2-0.3-0.3-0.5-0.4c-0.3-0.1-0.6-0.2-1-0.2c-0.7,0-1.1,0.1-1.4,0.4c-0.3,0.3-0.5,0.7-0.5,1.1h-1.1
				c0-0.5,0.1-0.9,0.4-1.3c0.2-0.4,0.6-0.6,1-0.8c0.5-0.2,1-0.3,1.6-0.3c0.6,0,1.1,0.1,1.6,0.3c0.4,0.2,0.7,0.4,0.9,0.7
				c0.2,0.3,0.3,0.7,0.3,1.1v3.4c0,0.3,0,0.5,0,0.8c0,0.3,0,0.6,0.1,0.9h-1c0-0.3-0.1-0.6-0.1-0.8s0-0.5,0-0.8
				c-0.1,0.3-0.3,0.6-0.5,0.9s-0.5,0.5-0.9,0.7s-0.8,0.3-1.3,0.3C97.6,648.4,97.2,648.3,96.9,648.1z M99.6,647.1
				c0.4-0.2,0.6-0.6,0.8-1c0.2-0.4,0.3-0.8,0.3-1.3v-0.6c-0.2,0.1-0.3,0.2-0.5,0.3c-0.2,0.1-0.4,0.1-0.6,0.2l-0.2,0l-1.2,0.2
				c-0.5,0.1-0.8,0.3-1.1,0.5c-0.2,0.2-0.3,0.5-0.3,0.9c0,0.4,0.1,0.7,0.4,0.9s0.6,0.3,1,0.3C98.8,647.5,99.3,647.4,99.6,647.1z"/>
			<path class="st6" d="M111.8,641.9c0.5,0.7,0.8,1.6,0.8,2.7c0,0.8-0.1,1.4-0.3,2c-0.2,0.6-0.6,1-1,1.3c-0.5,0.3-1,0.5-1.7,0.5
				c-0.7,0-1.3-0.2-1.8-0.5c-0.5-0.3-0.8-0.8-1.1-1.3c-0.2-0.6-0.4-1.2-0.4-1.9c0-0.7,0.1-1.4,0.4-1.9c0.2-0.6,0.6-1,1.1-1.3
				c0.5-0.3,1.1-0.5,1.8-0.5C110.5,641,111.3,641.3,111.8,641.9z M108.4,642.2c-0.3,0.2-0.6,0.5-0.8,0.9c-0.2,0.4-0.2,0.9-0.2,1.6
				c0,0.6,0.1,1.1,0.2,1.6c0.2,0.4,0.4,0.7,0.8,0.9c0.3,0.2,0.8,0.3,1.3,0.3c0.5,0,0.9-0.1,1.3-0.3c0.4-0.2,0.6-0.5,0.8-0.9
				c0.2-0.4,0.3-0.9,0.3-1.6s-0.1-1.2-0.3-1.6s-0.5-0.7-0.8-0.9c-0.4-0.2-0.8-0.3-1.3-0.3C109.2,641.9,108.8,642,108.4,642.2z
				 M113.3,648.2h-1.1v-1.7v-0.2v-8h1.1V648.2z"/>
			<path class="st6" d="M116.4,647.9c-0.5-0.3-0.9-0.8-1.2-1.3s-0.4-1.2-0.4-1.9c0-0.7,0.1-1.3,0.4-1.9s0.7-1,1.2-1.3s1.2-0.5,2-0.5
				c0.8,0,1.4,0.2,2,0.5s0.9,0.8,1.2,1.3c0.3,0.6,0.4,1.2,0.4,1.9c0,0.7-0.1,1.4-0.4,1.9c-0.3,0.6-0.7,1-1.2,1.3
				c-0.5,0.3-1.2,0.5-2,0.5C117.6,648.4,117,648.2,116.4,647.9z M116.2,646.3c0.2,0.4,0.4,0.7,0.8,0.9c0.4,0.2,0.8,0.3,1.3,0.3
				c0.5,0,1-0.1,1.3-0.3c0.4-0.2,0.6-0.5,0.8-0.9c0.2-0.4,0.3-1,0.3-1.6c0-0.7-0.1-1.2-0.3-1.6c-0.2-0.4-0.4-0.7-0.8-0.9
				c-0.4-0.2-0.8-0.3-1.3-0.3c-0.5,0-1,0.1-1.3,0.3c-0.4,0.2-0.6,0.5-0.8,0.9c-0.2,0.4-0.3,0.9-0.3,1.6
				C116,645.3,116.1,645.9,116.2,646.3z"/>
			<path class="st6" d="M123.5,638.4h1.1v9.8h-1.1V638.4z"/>
			<path class="st6" d="M126.5,642.7c0.3-0.6,0.7-1,1.2-1.3s1.2-0.5,1.9-0.5c0.7,0,1.3,0.1,1.8,0.3c0.5,0.2,0.8,0.6,1.1,1
				c0.3,0.4,0.4,0.9,0.4,1.5h-1.1c-0.1-0.4-0.2-0.7-0.4-1c-0.2-0.3-0.4-0.5-0.7-0.6s-0.7-0.2-1.1-0.2c-0.5,0-1,0.1-1.3,0.3
				c-0.4,0.2-0.6,0.5-0.8,0.9c-0.2,0.4-0.3,1-0.3,1.6c0,0.7,0.1,1.2,0.3,1.6c0.2,0.4,0.5,0.7,0.8,0.9c0.4,0.2,0.8,0.3,1.3,0.3
				c0.7,0,1.2-0.2,1.6-0.5s0.6-0.8,0.7-1.5h1.1c0,0.6-0.2,1-0.4,1.5c-0.3,0.4-0.7,0.8-1.2,1s-1.1,0.4-1.8,0.4
				c-0.8,0-1.4-0.2-1.9-0.5c-0.5-0.3-0.9-0.8-1.2-1.3c-0.3-0.6-0.4-1.2-0.4-1.9S126.2,643.3,126.5,642.7z"/>
			<path class="st6" d="M135.4,647.9c-0.5-0.3-0.9-0.8-1.2-1.3s-0.4-1.2-0.4-1.9c0-0.7,0.1-1.3,0.4-1.9c0.3-0.6,0.7-1,1.2-1.3
				s1.2-0.5,1.9-0.5c0.7,0,1.3,0.1,1.8,0.4s0.9,0.7,1.1,1.2c0.3,0.5,0.4,1.1,0.4,1.8v0.2c0,0.1,0,0.2,0,0.3h-5.9v-0.8h5.3l-0.5,0.5
				c0-0.6,0-1.2-0.2-1.6c-0.2-0.4-0.4-0.7-0.7-0.9c-0.3-0.2-0.8-0.3-1.2-0.3c-0.5,0-1,0.1-1.3,0.3s-0.6,0.5-0.8,0.9
				c-0.2,0.4-0.3,1-0.3,1.7s0.1,1.2,0.3,1.7c0.2,0.4,0.5,0.7,0.8,0.9s0.8,0.3,1.3,0.3c0.5,0,0.8-0.1,1.1-0.2s0.5-0.3,0.7-0.5
				c0.2-0.2,0.3-0.5,0.4-0.8h1c0,0.4-0.2,0.8-0.4,1.1s-0.6,0.7-1.1,0.9c-0.5,0.2-1.1,0.3-1.8,0.3C136.6,648.4,136,648.2,135.4,647.9
				z"/>
			<path class="st6" d="M145.2,645v-0.9l4.7-1.8v0.9L145.2,645z M145.2,645.3v-0.9l4.7,1.8v0.9L145.2,645.3z"/>
			<path class="st6" d="M153.6,647.8c-0.6-0.4-1.1-1-1.4-1.7c-0.3-0.7-0.5-1.6-0.5-2.5c0-1,0.2-1.8,0.5-2.5c0.3-0.7,0.8-1.3,1.4-1.7
				s1.4-0.6,2.4-0.6c0.9,0,1.7,0.2,2.4,0.6c0.6,0.4,1.1,1,1.4,1.7c0.3,0.7,0.5,1.6,0.5,2.5s-0.2,1.8-0.5,2.5
				c-0.3,0.7-0.8,1.3-1.4,1.7c-0.6,0.4-1.4,0.6-2.4,0.6C155,648.4,154.2,648.2,153.6,647.8z M153.3,645.7c0.2,0.6,0.5,1,1,1.3
				c0.4,0.3,1,0.4,1.7,0.4c0.7,0,1.3-0.1,1.7-0.4s0.8-0.7,1-1.3s0.3-1.3,0.3-2.2c0-0.9-0.1-1.6-0.3-2.2c-0.2-0.6-0.5-1-1-1.3
				s-1-0.4-1.7-0.4c-0.7,0-1.3,0.1-1.7,0.4c-0.4,0.3-0.8,0.7-1,1.3c-0.2,0.6-0.3,1.3-0.3,2.2C153,644.4,153.1,645.1,153.3,645.7z"/>
			<path class="st6" d="M161.3,646.9h1.5v1.2h-1.5V646.9z"/>
			<path class="st6" d="M165.5,646.5c0.2,0.3,0.4,0.5,0.8,0.7c0.4,0.2,0.8,0.2,1.4,0.2c0.6,0,1.1-0.1,1.4-0.3
				c0.4-0.2,0.7-0.5,0.8-0.8c0.2-0.3,0.3-0.8,0.3-1.2c0-0.5-0.1-0.9-0.3-1.3c-0.2-0.4-0.4-0.6-0.8-0.8c-0.3-0.2-0.7-0.3-1.2-0.3
				c-0.5,0-1,0.1-1.4,0.3s-0.8,0.5-1.1,0.9h-1.1l0.3-5.2h1.1l-0.3,4.2c0.3-0.3,0.7-0.6,1.1-0.8c0.4-0.2,1-0.3,1.6-0.3
				c0.7,0,1.2,0.1,1.7,0.4c0.5,0.3,0.9,0.6,1.1,1.1c0.3,0.5,0.4,1,0.4,1.7c0,1-0.3,1.8-0.9,2.4c-0.6,0.6-1.6,0.9-2.9,0.9
				c-0.8,0-1.5-0.1-2-0.4c-0.5-0.2-1-0.6-1.2-1c-0.3-0.4-0.4-0.9-0.5-1.5h1.2C165.3,645.9,165.4,646.3,165.5,646.5z M171.1,638.9v1
				h-5.9v-1H171.1z"/>
			<path class="st6" d="M177.3,647.6c-0.5-0.3-0.8-0.7-1.1-1.2s-0.4-1.2-0.4-1.9c0-1.1,0.3-2,0.8-2.6c0.5-0.6,1.4-0.9,2.4-0.9
				c1,0,1.8,0.3,2.3,0.9s0.8,1.5,0.8,2.6c0,0.8-0.1,1.4-0.3,2s-0.6,0.9-1,1.2c-0.5,0.3-1,0.4-1.7,0.4
				C178.4,648,177.8,647.9,177.3,647.6z M177.7,650.8c-0.5-0.2-0.9-0.5-1.1-0.9s-0.4-0.8-0.5-1.4h1.1c0,0.3,0.1,0.6,0.3,0.8
				c0.2,0.2,0.4,0.4,0.7,0.6c0.3,0.1,0.7,0.2,1.3,0.2c0.6,0,1-0.1,1.4-0.2c0.3-0.1,0.6-0.4,0.8-0.7c0.2-0.3,0.2-0.7,0.2-1.2v-7h1.1
				v7c0,0.6-0.1,1.2-0.3,1.6c-0.2,0.4-0.6,0.8-1.1,1c-0.5,0.2-1.2,0.3-2,0.3C178.7,651.1,178.1,651,177.7,650.8z M180.7,646.9
				c0.3-0.2,0.6-0.5,0.8-0.9c0.2-0.4,0.3-0.9,0.3-1.5c0-0.6-0.1-1.1-0.3-1.5c-0.2-0.4-0.5-0.7-0.8-0.9s-0.8-0.3-1.3-0.3
				c-0.5,0-1,0.1-1.3,0.3c-0.3,0.2-0.6,0.5-0.8,0.8c-0.2,0.4-0.3,0.9-0.3,1.5c0,0.6,0.1,1.1,0.3,1.5c0.2,0.4,0.4,0.7,0.8,0.9
				c0.3,0.2,0.8,0.3,1.3,0.3C179.9,647.1,180.4,647.1,180.7,646.9z"/>
			<path class="st6" d="M187.3,638.9h1l-3.2,9.3h-1L187.3,638.9z"/>
			<path class="st6" d="M189.4,638.9h1.2v9.3h-1.2V638.9z M190.3,647.2h5.2v0.9h-5.2V647.2z"/>
		</g>
	</g>
</g>
<g>
	<g>
		<path class="st6" d="M807.8,152.9l5.3-4.4c0.5-0.4,0.9-0.8,1.1-1.2s0.3-0.8,0.3-1.2c0-0.6-0.2-1-0.6-1.4c-0.4-0.3-1-0.5-1.7-0.5
			c-0.7,0-1.3,0.1-1.7,0.4c-0.4,0.3-0.8,0.6-1,1.2c-0.2,0.5-0.3,1.1-0.3,1.9h-1.4c0-0.9,0.2-1.6,0.5-2.3c0.3-0.7,0.8-1.2,1.4-1.6
			c0.7-0.4,1.5-0.6,2.5-0.6c0.9,0,1.6,0.1,2.1,0.4c0.5,0.3,1,0.6,1.2,1.1c0.3,0.4,0.4,1,0.4,1.5c0,0.7-0.2,1.3-0.6,1.9
			c-0.4,0.6-1.1,1.2-2,2l-3.6,3h6.4v1.1h-8.3V152.9z"/>
		<path class="st6" d="M819.8,153.5c-0.7-0.5-1.3-1.1-1.6-2c-0.3-0.8-0.5-1.8-0.5-2.9s0.2-2.1,0.5-2.9c0.3-0.8,0.9-1.5,1.6-2
			c0.7-0.5,1.6-0.7,2.7-0.7c1.1,0,2,0.2,2.7,0.7c0.7,0.5,1.3,1.1,1.6,2c0.4,0.8,0.5,1.8,0.5,2.9s-0.2,2.1-0.5,2.9
			c-0.3,0.8-0.9,1.5-1.6,2c-0.7,0.5-1.6,0.7-2.7,0.7C821.4,154.2,820.5,154,819.8,153.5z M819.5,151.1c0.2,0.7,0.6,1.2,1.1,1.5
			c0.5,0.3,1.2,0.5,1.9,0.5c0.8,0,1.4-0.2,1.9-0.5c0.5-0.3,0.9-0.8,1.1-1.5c0.2-0.7,0.4-1.5,0.4-2.5c0-1-0.1-1.9-0.4-2.5
			s-0.6-1.2-1.1-1.5c-0.5-0.3-1.2-0.5-1.9-0.5c-0.8,0-1.4,0.2-1.9,0.5c-0.5,0.3-0.9,0.8-1.1,1.5s-0.4,1.5-0.4,2.5
			C819.1,149.6,819.2,150.5,819.5,151.1z"/>
		<path class="st6" d="M829.2,152.9l5.3-4.4c0.5-0.4,0.9-0.8,1.1-1.2s0.3-0.8,0.3-1.2c0-0.6-0.2-1-0.6-1.4c-0.4-0.3-1-0.5-1.7-0.5
			c-0.7,0-1.3,0.1-1.7,0.4c-0.4,0.3-0.8,0.6-1,1.2c-0.2,0.5-0.3,1.1-0.3,1.9h-1.4c0-0.9,0.2-1.6,0.5-2.3c0.3-0.7,0.8-1.2,1.4-1.6
			c0.7-0.4,1.5-0.6,2.5-0.6c0.9,0,1.6,0.1,2.1,0.4c0.5,0.3,1,0.6,1.2,1.1c0.3,0.4,0.4,1,0.4,1.5c0,0.7-0.2,1.3-0.6,1.9
			c-0.4,0.6-1.1,1.2-2,2l-3.6,3h6.4v1.1h-8.3V152.9z"/>
		<path class="st6" d="M839.3,152.9h2.5v-8.5h-2.5v-1.1h2.3c0.5,0,0.9,0.1,1.2,0.3c0.2,0.2,0.3,0.6,0.3,1v8.2h2.3v1.1h-6.1V152.9z"
			/>
	</g>
</g>
<g>
	<g>
		<path class="st6" d="M819.5,345.3h-1.3v-9.6l-3.6,9.6h-1.8l-3.6-9.6v9.6h-1.3v-10.6h2.3l3.6,9.4l3.5-9.4h2.3V345.3z"/>
		<path class="st6" d="M822.9,345c-0.6-0.4-1-0.9-1.3-1.5c-0.3-0.6-0.4-1.4-0.4-2.2c0-0.8,0.2-1.5,0.5-2.2c0.3-0.6,0.8-1.1,1.3-1.5
			s1.3-0.6,2.2-0.6c0.8,0,1.5,0.2,2.1,0.5c0.6,0.3,1,0.8,1.3,1.4s0.4,1.3,0.4,2.1v0.2c0,0.1,0,0.2,0,0.3h-6.8v-1h6.1l-0.6,0.6
			c0-0.7,0-1.3-0.2-1.8c-0.2-0.5-0.5-0.8-0.9-1s-0.9-0.3-1.4-0.3c-0.6,0-1.1,0.1-1.5,0.3c-0.4,0.2-0.7,0.6-0.9,1.1
			c-0.2,0.5-0.3,1.1-0.3,1.9s0.1,1.4,0.3,1.9c0.2,0.5,0.5,0.8,1,1.1c0.4,0.2,0.9,0.3,1.5,0.3c0.5,0,1-0.1,1.3-0.2
			c0.3-0.1,0.6-0.3,0.8-0.6s0.3-0.6,0.4-0.9h1.2c-0.1,0.5-0.2,0.9-0.5,1.3c-0.3,0.4-0.7,0.8-1.2,1c-0.5,0.3-1.2,0.4-2.1,0.4
			C824.3,345.5,823.5,345.3,822.9,345z"/>
		<path class="st6" d="M836.4,338.1c0.6,0.8,0.9,1.8,0.9,3.1c0,0.9-0.1,1.6-0.4,2.3c-0.3,0.6-0.7,1.1-1.2,1.5
			c-0.5,0.3-1.2,0.5-1.9,0.5c-0.8,0-1.5-0.2-2.1-0.5c-0.5-0.4-1-0.9-1.2-1.5c-0.3-0.6-0.4-1.4-0.4-2.2c0-0.8,0.1-1.6,0.4-2.2
			c0.3-0.6,0.7-1.1,1.2-1.5c0.5-0.4,1.2-0.5,2.1-0.5C834.9,337,835.8,337.4,836.4,338.1z M832.5,338.4c-0.4,0.2-0.7,0.6-0.9,1.1
			s-0.3,1.1-0.3,1.8c0,0.7,0.1,1.3,0.3,1.8s0.5,0.8,0.9,1.1c0.4,0.2,0.9,0.4,1.5,0.4c0.6,0,1.1-0.1,1.5-0.3c0.4-0.2,0.7-0.6,1-1.1
			c0.2-0.5,0.3-1.1,0.3-1.8s-0.1-1.3-0.3-1.8c-0.2-0.5-0.5-0.8-1-1.1c-0.4-0.2-0.9-0.3-1.5-0.3C833.4,338.1,832.9,338.2,832.5,338.4
			z M838.1,345.3h-1.3v-1.9v-0.2v-9.1h1.3V345.3z"/>
		<path class="st6" d="M840.1,334.6h1.7v1.3h-1.7V334.6z M840.3,337.3h1.3v8h-1.3V337.3z"/>
		<path class="st6" d="M844.5,345.2c-0.4-0.2-0.7-0.4-0.9-0.8c-0.2-0.3-0.3-0.8-0.3-1.3c0-0.4,0.1-0.8,0.2-1.1s0.4-0.6,0.8-0.8
			c0.4-0.2,0.8-0.4,1.4-0.5l2.1-0.3c0.4-0.1,0.7-0.2,0.9-0.3c0.2-0.1,0.3-0.4,0.3-0.7c0-0.3-0.1-0.6-0.2-0.8
			c-0.1-0.2-0.3-0.4-0.6-0.5c-0.3-0.1-0.7-0.2-1.2-0.2c-0.8,0-1.3,0.2-1.7,0.5c-0.4,0.3-0.5,0.7-0.6,1.3h-1.3c0-0.6,0.2-1.1,0.4-1.5
			c0.3-0.4,0.7-0.7,1.2-1s1.1-0.3,1.9-0.3c0.7,0,1.3,0.1,1.8,0.3s0.8,0.5,1.1,0.9c0.2,0.4,0.3,0.8,0.3,1.3v3.8c0,0.3,0,0.6,0,0.9
			c0,0.3,0,0.7,0.1,1h-1.2c0-0.3-0.1-0.7-0.1-1c0-0.3,0-0.6,0-0.9c-0.1,0.4-0.3,0.7-0.5,1c-0.2,0.3-0.6,0.6-1,0.8
			c-0.4,0.2-0.9,0.3-1.5,0.3C845.4,345.5,844.9,345.4,844.5,345.2z M847.7,344.1c0.4-0.3,0.7-0.6,0.9-1.1c0.2-0.5,0.3-0.9,0.3-1.5
			v-0.7c-0.2,0.1-0.4,0.2-0.5,0.3s-0.4,0.1-0.7,0.2l-0.2,0l-1.3,0.3c-0.6,0.1-1,0.3-1.2,0.5s-0.4,0.6-0.4,1c0,0.4,0.1,0.8,0.4,1
			c0.3,0.2,0.7,0.4,1.2,0.4C846.8,344.5,847.3,344.3,847.7,344.1z"/>
		<path class="st6" d="M856.8,343.6c0.2,0.3,0.4,0.5,0.8,0.7c0.4,0.2,0.9,0.2,1.4,0.2c0.5,0,0.8-0.1,1.1-0.2s0.5-0.3,0.6-0.5
			c0.1-0.2,0.2-0.5,0.2-0.8c0-0.4-0.1-0.7-0.4-0.9c-0.2-0.2-0.6-0.4-1.1-0.4l-1.9-0.3c-0.7-0.1-1.3-0.3-1.6-0.7s-0.6-0.9-0.6-1.5
			c0-0.7,0.3-1.3,0.9-1.8c0.6-0.4,1.4-0.6,2.4-0.6c0.7,0,1.3,0.1,1.8,0.3c0.5,0.2,0.9,0.5,1.2,0.9s0.4,0.8,0.5,1.3h-1.3
			c0-0.5-0.2-0.8-0.6-1.1c-0.4-0.3-0.9-0.4-1.6-0.4c-0.7,0-1.1,0.1-1.5,0.4c-0.3,0.2-0.5,0.6-0.5,1c0,0.3,0.1,0.6,0.3,0.8
			s0.5,0.3,1,0.4l1.7,0.2c0.9,0.1,1.6,0.4,1.9,0.8c0.4,0.4,0.6,0.9,0.6,1.6c0,0.8-0.3,1.4-0.8,1.8c-0.6,0.4-1.4,0.6-2.4,0.6
			c-0.9,0-1.6-0.1-2.1-0.4c-0.5-0.2-1-0.6-1.2-1c-0.3-0.4-0.4-0.9-0.4-1.5h1.2C856.5,343,856.6,343.3,856.8,343.6z"/>
		<path class="st6" d="M865.3,345.1c-0.3-0.1-0.5-0.3-0.6-0.6s-0.2-0.6-0.2-1.1v-5.1H863v-0.7l1.7-0.4l0.5-1.7h0.7v1.8h2.7v1h-2.7v6
			h2.6v1h-1.9C866,345.3,865.6,345.2,865.3,345.1z"/>
		<path class="st6" d="M871.4,345c-0.6-0.4-1.1-0.9-1.4-1.5c-0.3-0.6-0.5-1.4-0.5-2.2c0-0.8,0.2-1.5,0.5-2.2
			c0.3-0.6,0.8-1.1,1.4-1.5s1.4-0.6,2.2-0.6c0.9,0,1.6,0.2,2.2,0.6c0.6,0.4,1.1,0.9,1.4,1.5c0.3,0.6,0.5,1.4,0.5,2.2
			c0,0.8-0.2,1.6-0.5,2.2c-0.3,0.6-0.8,1.1-1.4,1.5c-0.6,0.4-1.4,0.6-2.2,0.6C872.7,345.5,872,345.3,871.4,345z M871.2,343.1
			c0.2,0.5,0.5,0.8,0.9,1.1c0.4,0.2,0.9,0.3,1.5,0.3c0.6,0,1.1-0.1,1.5-0.3c0.4-0.2,0.7-0.6,0.9-1.1c0.2-0.5,0.3-1.1,0.3-1.8
			c0-0.7-0.1-1.4-0.3-1.8c-0.2-0.5-0.5-0.8-0.9-1c-0.4-0.2-0.9-0.3-1.5-0.3c-0.6,0-1.1,0.1-1.5,0.3c-0.4,0.2-0.7,0.6-0.9,1
			c-0.2,0.5-0.3,1.1-0.3,1.8C870.8,342,870.9,342.6,871.2,343.1z"/>
		<path class="st6" d="M879.4,337.3h1.3v2.5l0,0.3v5.2h-1.3V337.3z M880.6,339.7c0.2-0.8,0.6-1.4,1.1-1.8c0.5-0.5,1.2-0.7,2-0.7h0.3
			v1.3h-0.4c-0.8,0-1.4,0.1-1.8,0.5c-0.4,0.3-0.7,0.8-0.9,1.3s-0.2,1.3-0.2,2.1h-0.5C880.2,341.3,880.3,340.4,880.6,339.7z"/>
		<path class="st6" d="M885.1,334.6h1.7v1.3h-1.7V334.6z M885.3,337.3h1.3v8h-1.3V337.3z"/>
		<path class="st6" d="M888.7,339.1c0.3-0.6,0.8-1.1,1.4-1.5s1.3-0.5,2.2-0.5c0.8,0,1.5,0.1,2,0.4c0.5,0.3,1,0.6,1.3,1.1
			c0.3,0.5,0.5,1,0.5,1.7h-1.2c-0.1-0.4-0.2-0.8-0.4-1.2c-0.2-0.3-0.5-0.6-0.8-0.7c-0.4-0.2-0.8-0.3-1.3-0.3c-0.6,0-1.1,0.1-1.5,0.3
			s-0.7,0.6-0.9,1s-0.3,1.1-0.3,1.8c0,0.8,0.1,1.4,0.3,1.8s0.5,0.8,0.9,1c0.4,0.2,0.9,0.3,1.5,0.3c0.8,0,1.4-0.2,1.9-0.6
			c0.4-0.4,0.7-1,0.8-1.7h1.2c0,0.6-0.2,1.2-0.5,1.7c-0.3,0.5-0.7,0.9-1.3,1.2c-0.6,0.3-1.2,0.4-2,0.4c-0.9,0-1.6-0.2-2.2-0.5
			c-0.6-0.4-1.1-0.9-1.4-1.5s-0.5-1.4-0.5-2.2S888.4,339.7,888.7,339.1z"/>
		<path class="st6" d="M898.5,345.2c-0.4-0.2-0.7-0.4-0.9-0.8c-0.2-0.3-0.3-0.8-0.3-1.3c0-0.4,0.1-0.8,0.2-1.1s0.4-0.6,0.8-0.8
			c0.4-0.2,0.8-0.4,1.4-0.5l2.1-0.3c0.4-0.1,0.7-0.2,0.9-0.3c0.2-0.1,0.3-0.4,0.3-0.7c0-0.3-0.1-0.6-0.2-0.8
			c-0.1-0.2-0.3-0.4-0.6-0.5c-0.3-0.1-0.7-0.2-1.2-0.2c-0.8,0-1.3,0.2-1.7,0.5c-0.4,0.3-0.5,0.7-0.6,1.3h-1.3c0-0.6,0.2-1.1,0.4-1.5
			c0.3-0.4,0.7-0.7,1.2-1s1.1-0.3,1.9-0.3c0.7,0,1.3,0.1,1.8,0.3s0.8,0.5,1.1,0.9c0.2,0.4,0.3,0.8,0.3,1.3v3.8c0,0.3,0,0.6,0,0.9
			c0,0.3,0,0.7,0.1,1H903c0-0.3-0.1-0.7-0.1-1c0-0.3,0-0.6,0-0.9c-0.1,0.4-0.3,0.7-0.5,1c-0.2,0.3-0.6,0.6-1,0.8
			c-0.4,0.2-0.9,0.3-1.5,0.3C899.3,345.5,898.9,345.4,898.5,345.2z M901.6,344.1c0.4-0.3,0.7-0.6,0.9-1.1c0.2-0.5,0.3-0.9,0.3-1.5
			v-0.7c-0.2,0.1-0.4,0.2-0.5,0.3s-0.4,0.1-0.7,0.2l-0.2,0l-1.3,0.3c-0.6,0.1-1,0.3-1.2,0.5s-0.4,0.6-0.4,1c0,0.4,0.1,0.8,0.4,1
			c0.3,0.2,0.7,0.4,1.2,0.4C900.7,344.5,901.2,344.3,901.6,344.1z"/>
	</g>
</g>
<g id="mesi_00000069377699500997806500000014704131651480070805_">
	<g transform="translate(-400,258)">
		<g>
			<g class="st7">
				<path class="st5" d="M439.4,436.2c-0.7-0.4-1.2-1-1.5-1.7s-0.5-1.6-0.5-2.5c0-1,0.2-1.8,0.5-2.6c0.3-0.7,0.9-1.3,1.6-1.7
					c0.7-0.4,1.6-0.6,2.6-0.6c0.9,0,1.7,0.1,2.3,0.4c0.6,0.3,1.1,0.7,1.5,1.2c0.4,0.5,0.6,1.2,0.7,2h-1.2c-0.1-0.6-0.2-1.1-0.5-1.5
					c-0.3-0.4-0.6-0.7-1.1-0.9c-0.5-0.2-1-0.3-1.7-0.3c-0.8,0-1.4,0.1-2,0.4c-0.5,0.3-0.9,0.7-1.2,1.3c-0.3,0.6-0.4,1.3-0.4,2.2
					c0,0.9,0.1,1.6,0.4,2.2c0.2,0.6,0.6,1,1.1,1.3c0.5,0.3,1.2,0.4,2,0.4c1,0,1.8-0.3,2.4-0.8c0.5-0.5,0.9-1.3,1-2.2h-4.2v-0.9h5.4
					v4.6h-1.1v-2.3c0,0.1,0,0.1-0.1,0.2c-0.2,0.4-0.4,0.8-0.7,1.2c-0.3,0.3-0.7,0.6-1.2,0.8c-0.5,0.2-1,0.3-1.7,0.3
					C440.9,436.8,440.1,436.6,439.4,436.2z"/>
				<path class="st5" d="M449.6,436.3c-0.5-0.3-0.9-0.8-1.2-1.3s-0.4-1.2-0.4-1.9c0-0.7,0.1-1.3,0.4-1.9c0.3-0.6,0.7-1,1.2-1.3
					s1.2-0.5,1.9-0.5c0.7,0,1.3,0.1,1.8,0.4s0.9,0.7,1.1,1.2c0.3,0.5,0.4,1.1,0.4,1.8v0.2c0,0.1,0,0.2,0,0.3h-5.9v-0.8h5.3l-0.5,0.5
					c0-0.6,0-1.2-0.2-1.6c-0.2-0.4-0.4-0.7-0.7-0.9c-0.3-0.2-0.8-0.3-1.2-0.3c-0.5,0-1,0.1-1.3,0.3s-0.6,0.5-0.8,0.9
					c-0.2,0.4-0.3,1-0.3,1.7s0.1,1.2,0.3,1.7c0.2,0.4,0.5,0.7,0.8,0.9s0.8,0.3,1.3,0.3c0.5,0,0.8-0.1,1.1-0.2s0.5-0.3,0.7-0.5
					c0.2-0.2,0.3-0.5,0.4-0.8h1c0,0.4-0.2,0.8-0.4,1.1s-0.6,0.7-1.1,0.9c-0.5,0.2-1.1,0.3-1.8,0.3
					C450.7,436.8,450.1,436.6,449.6,436.3z"/>
				<path class="st5" d="M456.3,429.5h1.1v7h-1.1V429.5z M457.4,431.5c0.2-0.7,0.5-1.2,1-1.6s1-0.6,1.7-0.6c0.6,0,1.1,0.1,1.4,0.3
					s0.6,0.5,0.8,0.9c0.2,0.4,0.3,0.9,0.3,1.5v4.5h-1.1v-4.3c0-0.5-0.1-0.9-0.2-1.2c-0.1-0.3-0.3-0.5-0.6-0.6
					c-0.2-0.1-0.6-0.2-0.9-0.2c-0.5,0-1,0.1-1.3,0.4c-0.4,0.3-0.6,0.7-0.8,1.2c-0.2,0.5-0.3,1.2-0.3,2H457
					C457,432.9,457.1,432.1,457.4,431.5z"/>
			</g>
		</g>
	</g>
	<g transform="translate(-400,258)">
		<g>
			<g class="st7">
				<path class="st5" d="M508.5,427.2h1.2v9.3h-1.2V427.2z M515.5,427.2v0.9h-6.1v-0.9H515.5z M515,431.4v0.9h-5.7v-0.9H515z"/>
				<path class="st5" d="M518.1,436.3c-0.5-0.3-0.9-0.8-1.2-1.3s-0.4-1.2-0.4-1.9c0-0.7,0.1-1.3,0.4-1.9c0.3-0.6,0.7-1,1.2-1.3
					s1.2-0.5,1.9-0.5c0.7,0,1.3,0.1,1.8,0.4s0.9,0.7,1.1,1.2c0.3,0.5,0.4,1.1,0.4,1.8v0.2c0,0.1,0,0.2,0,0.3h-5.9v-0.8h5.3l-0.5,0.5
					c0-0.6,0-1.2-0.2-1.6c-0.2-0.4-0.4-0.7-0.7-0.9c-0.3-0.2-0.8-0.3-1.2-0.3c-0.5,0-1,0.1-1.3,0.3s-0.6,0.5-0.8,0.9
					c-0.2,0.4-0.3,1-0.3,1.7s0.1,1.2,0.3,1.7c0.2,0.4,0.5,0.7,0.8,0.9s0.8,0.3,1.3,0.3c0.5,0,0.8-0.1,1.1-0.2s0.5-0.3,0.7-0.5
					c0.2-0.2,0.3-0.5,0.4-0.8h1c0,0.4-0.2,0.8-0.4,1.1s-0.6,0.7-1.1,0.9c-0.5,0.2-1.1,0.3-1.8,0.3
					C519.3,436.8,518.6,436.6,518.1,436.3z"/>
				<path class="st5" d="M525.9,426.7v9.8h-1.1v-9.8H525.9z M530.4,429.8c0.5,0.3,0.8,0.7,1.1,1.3c0.2,0.6,0.4,1.2,0.4,1.9
					c0,0.7-0.1,1.4-0.4,1.9c-0.2,0.6-0.6,1-1.1,1.3s-1.1,0.5-1.8,0.5c-1,0-1.8-0.3-2.3-1c-0.5-0.7-0.8-1.6-0.8-2.7s0.3-2.1,0.8-2.7
					c0.5-0.7,1.3-1,2.3-1C529.3,429.3,529.9,429.5,530.4,429.8z M527.1,430.5c-0.4,0.2-0.6,0.5-0.8,0.9c-0.2,0.4-0.3,1-0.3,1.6
					s0.1,1.2,0.3,1.6c0.2,0.4,0.5,0.7,0.8,0.9c0.4,0.2,0.8,0.3,1.3,0.3c0.5,0,1-0.1,1.3-0.3s0.6-0.5,0.8-0.9
					c0.2-0.4,0.2-0.9,0.2-1.6c0-0.6-0.1-1.2-0.2-1.6c-0.2-0.4-0.4-0.7-0.8-0.9s-0.8-0.3-1.3-0.3
					C527.9,430.2,527.4,430.3,527.1,430.5z"/>
			</g>
		</g>
	</g>
	<g transform="translate(-400,258)">
		<g>
			<g class="st7">
				<path class="st5" d="M587.2,436.5H586v-8.4l-3.2,8.4h-1.6l-3.2-8.4v8.4h-1.2v-9.3h2l3.1,8.2l3.1-8.2h2V436.5z"/>
				<path class="st5" d="M589.8,436.5c-0.3-0.2-0.6-0.4-0.8-0.7c-0.2-0.3-0.3-0.7-0.3-1.1c0-0.4,0.1-0.7,0.2-1
					c0.1-0.3,0.4-0.5,0.7-0.7c0.3-0.2,0.7-0.3,1.2-0.4l1.8-0.3c0.4-0.1,0.6-0.2,0.8-0.3c0.2-0.1,0.2-0.3,0.2-0.6
					c0-0.3-0.1-0.5-0.2-0.7c-0.1-0.2-0.3-0.3-0.5-0.4c-0.3-0.1-0.6-0.2-1-0.2c-0.7,0-1.1,0.1-1.4,0.4c-0.3,0.3-0.5,0.7-0.5,1.1h-1.1
					c0-0.5,0.1-0.9,0.4-1.3c0.2-0.4,0.6-0.6,1-0.8c0.5-0.2,1-0.3,1.6-0.3c0.6,0,1.1,0.1,1.6,0.3c0.4,0.2,0.7,0.4,0.9,0.7
					c0.2,0.3,0.3,0.7,0.3,1.1v3.4c0,0.3,0,0.5,0,0.8c0,0.3,0,0.6,0.1,0.9h-1c0-0.3-0.1-0.6-0.1-0.8s0-0.5,0-0.8
					c-0.1,0.3-0.3,0.6-0.5,0.9s-0.5,0.5-0.9,0.7s-0.8,0.3-1.3,0.3C590.6,436.7,590.2,436.6,589.8,436.5z M592.6,435.5
					c0.4-0.2,0.6-0.6,0.8-1c0.2-0.4,0.3-0.8,0.3-1.3v-0.6c-0.2,0.1-0.3,0.2-0.5,0.3c-0.2,0.1-0.4,0.1-0.6,0.2l-0.2,0l-1.2,0.2
					c-0.5,0.1-0.8,0.3-1.1,0.5c-0.2,0.2-0.3,0.5-0.3,0.9c0,0.4,0.1,0.7,0.4,0.9s0.6,0.3,1,0.3C591.8,435.8,592.2,435.7,592.6,435.5z
					"/>
				<path class="st5" d="M596.6,429.5h1.1v2.2l0,0.2v4.6h-1.1V429.5z M597.6,431.6c0.2-0.7,0.5-1.2,1-1.6c0.4-0.4,1-0.6,1.7-0.6h0.3
					v1.1h-0.3c-0.7,0-1.2,0.1-1.6,0.4c-0.4,0.3-0.6,0.7-0.8,1.2s-0.2,1.1-0.2,1.8h-0.4C597.3,433.1,597.4,432.3,597.6,431.6z"/>
			</g>
		</g>
	</g>
	<g transform="translate(-400,258)">
		<g>
			<g class="st7">
				<path class="st5" d="M652.5,436.5l-0.9-2.4h-4.6l-0.9,2.4h-1.2l3.6-9.3h1.7l3.6,9.3H652.5z M647.3,433.2h3.9l-2-5.2L647.3,433.2
					z"/>
				<path class="st5" d="M654.9,429.5h1.1v1.6v0.3v8h-1.1V429.5z M656.4,435.8c-0.5-0.7-0.8-1.6-0.8-2.7s0.3-2.1,0.8-2.7
					c0.5-0.7,1.3-1,2.3-1c0.7,0,1.3,0.2,1.8,0.5s0.8,0.8,1.1,1.3c0.2,0.6,0.4,1.2,0.4,1.9c0,0.7-0.1,1.4-0.4,1.9
					c-0.2,0.6-0.6,1-1.1,1.3s-1.1,0.5-1.8,0.5C657.7,436.8,656.9,436.4,656.4,435.8z M659.8,435.5c0.3-0.2,0.6-0.5,0.8-0.9
					c0.2-0.4,0.2-0.9,0.2-1.6c0-0.6-0.1-1.1-0.2-1.6c-0.2-0.4-0.4-0.7-0.8-0.9s-0.8-0.3-1.3-0.3c-0.5,0-0.9,0.1-1.3,0.3
					c-0.4,0.2-0.6,0.5-0.8,0.9c-0.2,0.4-0.3,0.9-0.3,1.6s0.1,1.2,0.3,1.6c0.2,0.4,0.5,0.7,0.8,0.9c0.4,0.2,0.8,0.3,1.3,0.3
					C659,435.9,659.4,435.7,659.8,435.5z"/>
				<path class="st5" d="M663.4,429.5h1.1v2.2l0,0.2v4.6h-1.1V429.5z M664.5,431.6c0.2-0.7,0.5-1.2,1-1.6c0.4-0.4,1-0.6,1.7-0.6h0.3
					v1.1h-0.3c-0.7,0-1.2,0.1-1.6,0.4c-0.4,0.3-0.6,0.7-0.8,1.2s-0.2,1.1-0.2,1.8h-0.4C664.2,433.1,664.3,432.3,664.5,431.6z"/>
			</g>
		</g>
	</g>
	<g transform="translate(-400,258)">
		<g>
			<g class="st7">
				<path class="st5" d="M722.5,436.5h-1.2v-8.4l-3.2,8.4h-1.6l-3.2-8.4v8.4h-1.2v-9.3h2l3.1,8.2l3.1-8.2h2V436.5z"/>
				<path class="st5" d="M725.1,436.5c-0.3-0.2-0.6-0.4-0.8-0.7c-0.2-0.3-0.3-0.7-0.3-1.1c0-0.4,0.1-0.7,0.2-1
					c0.1-0.3,0.4-0.5,0.7-0.7c0.3-0.2,0.7-0.3,1.2-0.4l1.8-0.3c0.4-0.1,0.6-0.2,0.8-0.3c0.2-0.1,0.2-0.3,0.2-0.6
					c0-0.3-0.1-0.5-0.2-0.7c-0.1-0.2-0.3-0.3-0.5-0.4c-0.3-0.1-0.6-0.2-1-0.2c-0.7,0-1.1,0.1-1.4,0.4c-0.3,0.3-0.5,0.7-0.5,1.1h-1.1
					c0-0.5,0.1-0.9,0.4-1.3c0.2-0.4,0.6-0.6,1-0.8c0.5-0.2,1-0.3,1.6-0.3c0.6,0,1.1,0.1,1.6,0.3c0.4,0.2,0.7,0.4,0.9,0.7
					c0.2,0.3,0.3,0.7,0.3,1.1v3.4c0,0.3,0,0.5,0,0.8c0,0.3,0,0.6,0.1,0.9h-1c0-0.3-0.1-0.6-0.1-0.8s0-0.5,0-0.8
					c-0.1,0.3-0.3,0.6-0.5,0.9s-0.5,0.5-0.9,0.7s-0.8,0.3-1.3,0.3C725.9,436.7,725.5,436.6,725.1,436.5z M727.9,435.5
					c0.4-0.2,0.6-0.6,0.8-1c0.2-0.4,0.3-0.8,0.3-1.3v-0.6c-0.2,0.1-0.3,0.2-0.5,0.3c-0.2,0.1-0.4,0.1-0.6,0.2l-0.2,0l-1.2,0.2
					c-0.5,0.1-0.8,0.3-1.1,0.5c-0.2,0.2-0.3,0.5-0.3,0.9c0,0.4,0.1,0.7,0.4,0.9s0.6,0.3,1,0.3C727.1,435.8,727.5,435.7,727.9,435.5z
					"/>
				<path class="st5" d="M732.8,436c-0.5-0.3-0.8-0.7-1.1-1.2s-0.4-1.2-0.4-1.9c0-1.1,0.3-2,0.8-2.6c0.5-0.6,1.4-0.9,2.4-0.9
					c1,0,1.8,0.3,2.3,0.9s0.8,1.5,0.8,2.6c0,0.8-0.1,1.4-0.3,2s-0.6,0.9-1,1.2c-0.5,0.3-1,0.4-1.7,0.4
					C733.9,436.4,733.3,436.2,732.8,436z M733.1,439.2c-0.5-0.2-0.9-0.5-1.1-0.9s-0.4-0.8-0.5-1.4h1.1c0,0.3,0.1,0.6,0.3,0.8
					c0.2,0.2,0.4,0.4,0.7,0.6c0.3,0.1,0.7,0.2,1.3,0.2c0.6,0,1-0.1,1.4-0.2c0.3-0.1,0.6-0.4,0.8-0.7c0.2-0.3,0.2-0.7,0.2-1.2v-7h1.1
					v7c0,0.6-0.1,1.2-0.3,1.6c-0.2,0.4-0.6,0.8-1.1,1c-0.5,0.2-1.2,0.3-2,0.3C734.2,439.5,733.6,439.4,733.1,439.2z M736.2,435.2
					c0.3-0.2,0.6-0.5,0.8-0.9c0.2-0.4,0.3-0.9,0.3-1.5c0-0.6-0.1-1.1-0.3-1.5c-0.2-0.4-0.5-0.7-0.8-0.9s-0.8-0.3-1.3-0.3
					c-0.5,0-1,0.1-1.3,0.3c-0.3,0.2-0.6,0.5-0.8,0.8c-0.2,0.4-0.3,0.9-0.3,1.5c0,0.6,0.1,1.1,0.3,1.5c0.2,0.4,0.4,0.7,0.8,0.9
					c0.3,0.2,0.8,0.3,1.3,0.3C735.4,435.5,735.8,435.4,736.2,435.2z"/>
			</g>
		</g>
	</g>
	<g transform="translate(-400,258)">
		<g>
			<g class="st7">
				<path class="st5" d="M784.3,436.2c-0.7-0.4-1.2-1-1.5-1.7s-0.5-1.6-0.5-2.5c0-1,0.2-1.8,0.5-2.6c0.3-0.7,0.9-1.3,1.6-1.7
					c0.7-0.4,1.6-0.6,2.6-0.6c0.9,0,1.7,0.1,2.3,0.4c0.6,0.3,1.1,0.7,1.5,1.2c0.4,0.5,0.6,1.2,0.7,2h-1.2c-0.1-0.6-0.2-1.1-0.5-1.5
					c-0.3-0.4-0.6-0.7-1.1-0.9c-0.5-0.2-1-0.3-1.7-0.3c-0.8,0-1.4,0.1-2,0.4c-0.5,0.3-0.9,0.7-1.2,1.3c-0.3,0.6-0.4,1.3-0.4,2.2
					c0,0.9,0.1,1.6,0.4,2.2c0.2,0.6,0.6,1,1.1,1.3c0.5,0.3,1.2,0.4,2,0.4c1,0,1.8-0.3,2.4-0.8c0.5-0.5,0.9-1.3,1-2.2h-4.2v-0.9h5.4
					v4.6h-1.1v-2.3c0,0.1,0,0.1-0.1,0.2c-0.2,0.4-0.4,0.8-0.7,1.2c-0.3,0.3-0.7,0.6-1.2,0.8c-0.5,0.2-1,0.3-1.7,0.3
					C785.8,436.8,785,436.6,784.3,436.2z"/>
				<path class="st5" d="M793.1,427.2h1.5v1.2h-1.5V427.2z M793.3,429.5h1.1v7h-1.1V429.5z"/>
				<path class="st5" d="M797.3,436.5c-0.4-0.2-0.7-0.5-0.8-0.9c-0.2-0.4-0.3-0.9-0.3-1.5v-4.5h1.1v4.3c0,0.5,0.1,0.9,0.2,1.2
					c0.1,0.3,0.3,0.5,0.6,0.6c0.3,0.1,0.6,0.2,1,0.2c0.5,0,0.9-0.1,1.3-0.4c0.3-0.3,0.6-0.7,0.8-1.2c0.2-0.5,0.3-1.2,0.3-2h0.4
					c0,0.9-0.1,1.7-0.3,2.4c-0.2,0.7-0.5,1.2-1,1.6c-0.4,0.4-1,0.6-1.7,0.6C798.2,436.8,797.7,436.7,797.3,436.5z M801.4,434.4v-0.2
					v-4.7h1.1v7h-1.1V434.4z"/>
			</g>
		</g>
	</g>
	<g transform="translate(-400,258)">
		<g>
			<g class="st7">
				<path class="st5" d="M849.9,427.2h1.2v9.3h-1.2V427.2z M850.8,435.6h5.2v0.9h-5.2V435.6z"/>
				<path class="st5" d="M858.2,436.5c-0.4-0.2-0.7-0.5-0.8-0.9s-0.3-0.9-0.3-1.5v-4.5h1.1v4.3c0,0.5,0.1,0.9,0.2,1.2
					c0.1,0.3,0.3,0.5,0.6,0.6c0.3,0.1,0.6,0.2,1,0.2c0.5,0,0.9-0.1,1.3-0.4s0.6-0.7,0.8-1.2s0.3-1.2,0.3-2h0.4
					c0,0.9-0.1,1.7-0.3,2.4c-0.2,0.7-0.5,1.2-1,1.6c-0.4,0.4-1,0.6-1.7,0.6C859.1,436.8,858.6,436.7,858.2,436.5z M862.3,434.4v-0.2
					v-4.7h1.1v7h-1.1V434.4z"/>
				<path class="st5" d="M866.4,436c-0.5-0.3-0.8-0.7-1.1-1.2c-0.2-0.5-0.4-1.2-0.4-1.9c0-1.1,0.3-2,0.8-2.6
					c0.5-0.6,1.4-0.9,2.4-0.9c1,0,1.8,0.3,2.3,0.9s0.8,1.5,0.8,2.6c0,0.8-0.1,1.4-0.3,2c-0.2,0.5-0.6,0.9-1,1.2s-1,0.4-1.7,0.4
					C867.5,436.4,866.9,436.2,866.4,436z M866.7,439.2c-0.5-0.2-0.9-0.5-1.1-0.9c-0.3-0.4-0.4-0.8-0.5-1.4h1.1
					c0,0.3,0.1,0.6,0.3,0.8c0.2,0.2,0.4,0.4,0.7,0.6c0.3,0.1,0.7,0.2,1.3,0.2c0.6,0,1-0.1,1.4-0.2c0.3-0.1,0.6-0.4,0.8-0.7
					c0.2-0.3,0.2-0.7,0.2-1.2v-7h1.1v7c0,0.6-0.1,1.2-0.3,1.6c-0.2,0.4-0.6,0.8-1.1,1c-0.5,0.2-1.2,0.3-2,0.3
					C867.8,439.5,867.2,439.4,866.7,439.2z M869.8,435.2c0.3-0.2,0.6-0.5,0.8-0.9c0.2-0.4,0.3-0.9,0.3-1.5c0-0.6-0.1-1.1-0.3-1.5
					c-0.2-0.4-0.5-0.7-0.8-0.9c-0.3-0.2-0.8-0.3-1.3-0.3c-0.5,0-1,0.1-1.3,0.3c-0.3,0.2-0.6,0.5-0.8,0.8c-0.2,0.4-0.3,0.9-0.3,1.5
					c0,0.6,0.1,1.1,0.3,1.5c0.2,0.4,0.4,0.7,0.8,0.9c0.3,0.2,0.8,0.3,1.3,0.3C869,435.5,869.5,435.4,869.8,435.2z"/>
			</g>
		</g>
	</g>
	<g transform="translate(-400,258)">
		<g>
			<g class="st7">
				<path class="st5" d="M923.6,436.5l-0.9-2.4H918l-0.9,2.4h-1.2l3.6-9.3h1.7l3.6,9.3H923.6z M918.3,433.2h3.9l-2-5.2L918.3,433.2z
					"/>
				<path class="st5" d="M926.9,436c-0.5-0.3-0.8-0.7-1.1-1.2c-0.2-0.5-0.4-1.2-0.4-1.9c0-1.1,0.3-2,0.8-2.6
					c0.5-0.6,1.4-0.9,2.4-0.9c1,0,1.8,0.3,2.3,0.9s0.8,1.5,0.8,2.6c0,0.8-0.1,1.4-0.3,2c-0.2,0.5-0.6,0.9-1,1.2s-1,0.4-1.7,0.4
					C928,436.4,927.4,436.2,926.9,436z M927.2,439.2c-0.5-0.2-0.9-0.5-1.1-0.9c-0.3-0.4-0.4-0.8-0.5-1.4h1.1c0,0.3,0.1,0.6,0.3,0.8
					c0.2,0.2,0.4,0.4,0.7,0.6c0.3,0.1,0.7,0.2,1.3,0.2c0.6,0,1-0.1,1.4-0.2c0.3-0.1,0.6-0.4,0.8-0.7c0.2-0.3,0.2-0.7,0.2-1.2v-7h1.1
					v7c0,0.6-0.1,1.2-0.3,1.6c-0.2,0.4-0.6,0.8-1.1,1c-0.5,0.2-1.2,0.3-2,0.3C928.3,439.5,927.7,439.4,927.2,439.2z M930.3,435.2
					c0.3-0.2,0.6-0.5,0.8-0.9c0.2-0.4,0.3-0.9,0.3-1.5c0-0.6-0.1-1.1-0.3-1.5c-0.2-0.4-0.5-0.7-0.8-0.9c-0.3-0.2-0.8-0.3-1.3-0.3
					c-0.5,0-1,0.1-1.3,0.3c-0.3,0.2-0.6,0.5-0.8,0.8c-0.2,0.4-0.3,0.9-0.3,1.5c0,0.6,0.1,1.1,0.3,1.5c0.2,0.4,0.4,0.7,0.8,0.9
					c0.3,0.2,0.8,0.3,1.3,0.3C929.5,435.5,929.9,435.4,930.3,435.2z"/>
				<path class="st5" d="M935.6,436.3c-0.5-0.3-0.9-0.8-1.2-1.3s-0.4-1.2-0.4-1.9c0-0.7,0.1-1.3,0.4-1.9s0.7-1,1.2-1.3
					s1.2-0.5,2-0.5c0.8,0,1.4,0.2,2,0.5s0.9,0.8,1.2,1.3s0.4,1.2,0.4,1.9c0,0.7-0.1,1.4-0.4,1.9c-0.3,0.6-0.7,1-1.2,1.3
					c-0.5,0.3-1.2,0.5-2,0.5C936.8,436.8,936.1,436.6,935.6,436.3z M935.4,434.6c0.2,0.4,0.4,0.7,0.8,0.9c0.4,0.2,0.8,0.3,1.4,0.3
					c0.5,0,1-0.1,1.3-0.3c0.4-0.2,0.6-0.5,0.8-0.9s0.3-1,0.3-1.6c0-0.7-0.1-1.2-0.3-1.6c-0.2-0.4-0.4-0.7-0.8-0.9
					c-0.4-0.2-0.8-0.3-1.3-0.3c-0.5,0-1,0.1-1.4,0.3c-0.4,0.2-0.6,0.5-0.8,0.9c-0.2,0.4-0.3,0.9-0.3,1.6
					C935.1,433.7,935.2,434.2,935.4,434.6z"/>
			</g>
		</g>
	</g>
	<g transform="translate(-400,258)">
		<g>
			<g class="st7">
				<path class="st5" d="M987.4,434.7c0.2,0.4,0.5,0.7,0.9,0.9s1,0.3,1.7,0.3c0.6,0,1.1-0.1,1.5-0.2c0.4-0.1,0.6-0.3,0.8-0.6
					s0.2-0.6,0.2-1c0-0.5-0.1-0.9-0.4-1.1c-0.3-0.3-0.7-0.4-1.3-0.5l-2.2-0.3c-0.8-0.1-1.4-0.4-1.8-0.8c-0.4-0.4-0.6-1-0.6-1.7
					c0-0.5,0.1-1,0.4-1.4s0.7-0.7,1.2-1s1.2-0.3,2-0.3c0.8,0,1.5,0.1,2,0.4c0.6,0.2,1,0.6,1.3,1.1s0.5,1,0.5,1.6h-1.1
					c0-0.4-0.2-0.8-0.4-1.1c-0.2-0.3-0.5-0.6-0.9-0.7c-0.4-0.2-0.9-0.3-1.4-0.3c-0.8,0-1.4,0.2-1.8,0.5c-0.4,0.3-0.6,0.7-0.6,1.3
					c0,0.4,0.1,0.7,0.3,1c0.2,0.3,0.6,0.4,1.1,0.5l2.3,0.3c0.9,0.1,1.5,0.4,1.9,0.8c0.4,0.4,0.6,1,0.6,1.7c0,0.6-0.1,1.1-0.4,1.5
					c-0.3,0.4-0.7,0.7-1.2,0.9c-0.6,0.2-1.3,0.3-2.1,0.3c-1,0-1.8-0.1-2.4-0.4c-0.6-0.3-1-0.7-1.3-1.2s-0.4-1.1-0.4-1.7h1.1
					C987.1,433.8,987.2,434.3,987.4,434.7z"/>
				<path class="st5" d="M996.5,436.3c-0.5-0.3-0.9-0.8-1.2-1.3c-0.3-0.6-0.4-1.2-0.4-1.9c0-0.7,0.1-1.3,0.4-1.9s0.7-1,1.2-1.3
					c0.5-0.3,1.2-0.5,1.9-0.5c0.7,0,1.3,0.1,1.8,0.4c0.5,0.3,0.9,0.7,1.1,1.2c0.3,0.5,0.4,1.1,0.4,1.8v0.2c0,0.1,0,0.2,0,0.3h-5.9
					v-0.8h5.3l-0.5,0.5c0-0.6,0-1.2-0.2-1.6s-0.4-0.7-0.7-0.9c-0.3-0.2-0.8-0.3-1.2-0.3c-0.5,0-1,0.1-1.3,0.3
					c-0.4,0.2-0.6,0.5-0.8,0.9s-0.3,1-0.3,1.7s0.1,1.2,0.3,1.7c0.2,0.4,0.5,0.7,0.8,0.9c0.4,0.2,0.8,0.3,1.3,0.3
					c0.5,0,0.8-0.1,1.1-0.2c0.3-0.1,0.5-0.3,0.7-0.5c0.2-0.2,0.3-0.5,0.4-0.8h1c0,0.4-0.2,0.8-0.4,1.1s-0.6,0.7-1.1,0.9
					c-0.5,0.2-1.1,0.3-1.8,0.3C997.6,436.8,997,436.6,996.5,436.3z"/>
				<path class="st5" d="M1004.2,436.4c-0.2-0.1-0.4-0.3-0.5-0.5c-0.1-0.2-0.1-0.5-0.1-0.9v-4.5h-1.4v-0.6l1.5-0.3l0.4-1.5h0.6v1.6
					h2.3v0.9h-2.3v5.2h2.2v0.9h-1.7C1004.8,436.5,1004.5,436.5,1004.2,436.4z"/>
			</g>
		</g>
	</g>
	<g transform="translate(-400,258)">
		<g>
			<g class="st7">
				<path class="st5" d="M1056.5,436.2c-0.7-0.4-1.2-1-1.6-1.7c-0.3-0.7-0.5-1.6-0.5-2.5c0-1,0.2-1.8,0.5-2.5
					c0.3-0.7,0.9-1.3,1.6-1.7s1.6-0.6,2.6-0.6c1.1,0,1.9,0.2,2.6,0.6s1.2,1,1.5,1.7c0.3,0.7,0.5,1.6,0.5,2.5c0,1-0.2,1.8-0.5,2.5
					c-0.3,0.7-0.9,1.3-1.5,1.7s-1.6,0.6-2.6,0.6C1058.1,436.8,1057.2,436.6,1056.5,436.2z M1056,434.1c0.2,0.6,0.6,1,1.1,1.3
					s1.2,0.4,2,0.4c0.8,0,1.4-0.1,2-0.4s0.9-0.7,1.1-1.3s0.4-1.3,0.4-2.2c0-0.9-0.1-1.6-0.4-2.2c-0.2-0.6-0.6-1-1.1-1.3
					s-1.2-0.4-2-0.4c-0.8,0-1.5,0.1-2,0.4s-0.9,0.7-1.1,1.3c-0.2,0.6-0.4,1.3-0.4,2.2C1055.7,432.8,1055.8,433.5,1056,434.1z"/>
				<path class="st5" d="M1066.5,436.4c-0.2-0.1-0.4-0.3-0.5-0.5c-0.1-0.2-0.1-0.5-0.1-0.9v-4.5h-1.4v-0.6l1.5-0.3l0.4-1.5h0.6v1.6
					h3.9v0.9h-3.9v5.2h2.2v0.9h-1.7C1067.1,436.5,1066.7,436.5,1066.5,436.4z M1071.1,436.4c-0.2-0.1-0.4-0.3-0.5-0.5
					c-0.1-0.2-0.1-0.5-0.1-0.9v-4.5h-1.4v-0.6l1.4-0.2l0.5-1.7h0.6v1.6h2.3v0.9h-2.3v5.2h2.2v0.9h-1.7
					C1071.7,436.5,1071.3,436.5,1071.1,436.4z"/>
			</g>
		</g>
	</g>
	<g transform="translate(-400,258)">
		<g>
			<g class="st7">
				<path class="st5" d="M1128.3,427.2h1.2v9.3h-2l-4.3-7.3c-0.3-0.5-0.5-0.9-0.6-1.2v8.5h-1.2v-9.3h2l4.3,7.3
					c0.2,0.3,0.3,0.7,0.6,1.2V427.2z"/>
				<path class="st5" d="M1132.5,436.3c-0.5-0.3-0.9-0.8-1.2-1.3s-0.4-1.2-0.4-1.9c0-0.7,0.1-1.3,0.4-1.9s0.7-1,1.2-1.3
					s1.2-0.5,2-0.5c0.8,0,1.4,0.2,2,0.5s0.9,0.8,1.2,1.3s0.4,1.2,0.4,1.9c0,0.7-0.1,1.4-0.4,1.9c-0.3,0.6-0.7,1-1.2,1.3
					c-0.5,0.3-1.2,0.5-2,0.5C1133.7,436.8,1133.1,436.6,1132.5,436.3z M1132.3,434.6c0.2,0.4,0.4,0.7,0.8,0.9
					c0.4,0.2,0.8,0.3,1.4,0.3c0.5,0,1-0.1,1.3-0.3c0.4-0.2,0.6-0.5,0.8-0.9s0.3-1,0.3-1.6c0-0.7-0.1-1.2-0.3-1.6
					c-0.2-0.4-0.4-0.7-0.8-0.9c-0.4-0.2-0.8-0.3-1.3-0.3c-0.5,0-1,0.1-1.4,0.3c-0.4,0.2-0.6,0.5-0.8,0.9c-0.2,0.4-0.3,0.9-0.3,1.6
					C1132.1,433.7,1132.2,434.2,1132.3,434.6z"/>
				<path class="st5" d="M1139.9,429.5l2.6,6.6h-0.5l2.6-6.6h1.1l-2.8,7h-1.5l-2.8-7H1139.9z"/>
			</g>
		</g>
	</g>
	<g transform="translate(-400,258)">
		<g>
			<g class="st7">
				<path class="st5" d="M1192.4,427.2h1.2v9.3h-1.2V427.2z M1193.1,435.6h3c0.8,0,1.5-0.1,2-0.4c0.5-0.3,0.9-0.7,1.1-1.3
					s0.3-1.2,0.3-2.1s-0.1-1.5-0.3-2s-0.6-1-1.1-1.2c-0.5-0.3-1.2-0.4-2-0.4h-3v-0.9h3.2c1,0,1.8,0.2,2.5,0.6c0.7,0.4,1.1,1,1.4,1.7
					c0.3,0.7,0.5,1.5,0.5,2.4c0,0.9-0.2,1.7-0.5,2.4c-0.3,0.7-0.8,1.3-1.4,1.7c-0.7,0.4-1.5,0.6-2.5,0.6h-3.2V435.6z"/>
				<path class="st5" d="M1202,427.2h1.5v1.2h-1.5V427.2z M1202.2,429.5h1.1v7h-1.1V429.5z"/>
				<path class="st5" d="M1205.2,431.1c0.3-0.6,0.7-1,1.2-1.3c0.5-0.3,1.2-0.5,1.9-0.5c0.7,0,1.3,0.1,1.8,0.3s0.8,0.6,1.1,1
					c0.3,0.4,0.4,0.9,0.4,1.5h-1.1c-0.1-0.4-0.2-0.7-0.4-1c-0.2-0.3-0.4-0.5-0.7-0.6c-0.3-0.1-0.7-0.2-1.1-0.2c-0.5,0-1,0.1-1.3,0.3
					c-0.4,0.2-0.6,0.5-0.8,0.9c-0.2,0.4-0.3,1-0.3,1.6c0,0.7,0.1,1.2,0.3,1.6s0.5,0.7,0.8,0.9c0.4,0.2,0.8,0.3,1.3,0.3
					c0.7,0,1.2-0.2,1.6-0.5c0.4-0.3,0.6-0.8,0.7-1.5h1.1c0,0.6-0.2,1-0.4,1.5c-0.3,0.4-0.7,0.8-1.2,1s-1.1,0.4-1.8,0.4
					c-0.8,0-1.4-0.2-1.9-0.5c-0.5-0.3-0.9-0.8-1.2-1.3c-0.3-0.6-0.4-1.2-0.4-1.9S1204.9,431.7,1205.2,431.1z"/>
			</g>
		</g>
	</g>
</g>
<g>
	<g>
		<g>
			<path class="st5" d="M198.1,21.8c0.2,0.4,0.6,0.8,1.1,1c0.5,0.2,1.1,0.4,2,0.4c0.7,0,1.3-0.1,1.7-0.2c0.4-0.2,0.7-0.4,0.9-0.7
				c0.2-0.3,0.3-0.7,0.3-1.1c0-0.6-0.2-1-0.5-1.3c-0.3-0.3-0.8-0.5-1.5-0.6l-2.5-0.4c-0.9-0.1-1.6-0.4-2.1-0.9
				c-0.4-0.5-0.7-1.1-0.7-1.9c0-0.6,0.1-1.1,0.4-1.6c0.3-0.5,0.8-0.8,1.4-1.1s1.4-0.4,2.3-0.4c0.9,0,1.7,0.1,2.3,0.4
				c0.6,0.3,1.1,0.7,1.5,1.2c0.3,0.5,0.5,1.1,0.6,1.8h-1.3c-0.1-0.5-0.2-0.9-0.4-1.3c-0.2-0.4-0.6-0.6-1-0.8c-0.4-0.2-1-0.3-1.6-0.3
				c-0.9,0-1.6,0.2-2.1,0.5s-0.7,0.8-0.7,1.5c0,0.4,0.1,0.8,0.4,1.1c0.2,0.3,0.7,0.5,1.2,0.6l2.7,0.4c1,0.1,1.7,0.5,2.2,0.9
				c0.5,0.5,0.7,1.1,0.7,1.9c0,0.7-0.1,1.3-0.4,1.8c-0.3,0.5-0.8,0.8-1.4,1.1s-1.4,0.4-2.4,0.4c-1.1,0-2-0.2-2.7-0.5
				c-0.7-0.3-1.2-0.8-1.5-1.4c-0.3-0.6-0.5-1.2-0.5-2h1.3C197.7,20.9,197.9,21.4,198.1,21.8z"/>
			<path class="st5" d="M207.1,17.7c0.3-0.6,0.8-1.1,1.4-1.5s1.3-0.5,2.2-0.5c0.8,0,1.5,0.1,2,0.4c0.5,0.3,1,0.6,1.3,1.1
				c0.3,0.5,0.5,1,0.5,1.7h-1.2c-0.1-0.4-0.2-0.8-0.4-1.2c-0.2-0.3-0.5-0.6-0.8-0.7c-0.4-0.2-0.8-0.3-1.3-0.3
				c-0.6,0-1.1,0.1-1.5,0.3c-0.4,0.2-0.7,0.6-0.9,1s-0.3,1.1-0.3,1.8c0,0.8,0.1,1.4,0.3,1.8c0.2,0.5,0.5,0.8,0.9,1
				c0.4,0.2,0.9,0.3,1.5,0.3c0.8,0,1.4-0.2,1.9-0.6c0.4-0.4,0.7-1,0.8-1.7h1.2c0,0.6-0.2,1.2-0.5,1.7c-0.3,0.5-0.7,0.9-1.3,1.2
				c-0.6,0.3-1.2,0.4-2,0.4c-0.9,0-1.6-0.2-2.2-0.5s-1.1-0.9-1.4-1.5c-0.3-0.6-0.5-1.4-0.5-2.2S206.8,18.4,207.1,17.7z"/>
			<path class="st5" d="M216.9,23.9c-0.4-0.2-0.7-0.4-0.9-0.8s-0.3-0.8-0.3-1.3c0-0.4,0.1-0.8,0.3-1.1s0.4-0.6,0.8-0.8
				c0.4-0.2,0.8-0.4,1.4-0.5l2.1-0.3c0.4-0.1,0.7-0.2,0.9-0.3s0.3-0.4,0.3-0.7c0-0.3-0.1-0.6-0.2-0.8c-0.1-0.2-0.3-0.4-0.6-0.5
				c-0.3-0.1-0.7-0.2-1.2-0.2c-0.8,0-1.3,0.2-1.7,0.5c-0.4,0.3-0.5,0.7-0.6,1.3h-1.3c0-0.6,0.2-1.1,0.4-1.5s0.7-0.7,1.2-1
				c0.5-0.2,1.1-0.3,1.9-0.3c0.7,0,1.3,0.1,1.8,0.3c0.5,0.2,0.8,0.5,1.1,0.9c0.2,0.4,0.3,0.8,0.3,1.3V22c0,0.3,0,0.6,0,0.9
				s0,0.7,0.1,1h-1.2c0-0.3-0.1-0.7-0.1-1s0-0.6,0-0.9c-0.1,0.4-0.3,0.7-0.5,1c-0.2,0.3-0.6,0.6-1,0.8c-0.4,0.2-0.9,0.3-1.5,0.3
				C217.7,24.2,217.3,24.1,216.9,23.9z M220.1,22.7c0.4-0.3,0.7-0.6,0.9-1.1c0.2-0.5,0.3-0.9,0.3-1.5v-0.7c-0.2,0.1-0.4,0.2-0.5,0.3
				s-0.4,0.1-0.7,0.2l-0.2,0l-1.3,0.3c-0.6,0.1-1,0.3-1.2,0.5s-0.4,0.6-0.4,1c0,0.4,0.1,0.8,0.4,1c0.3,0.2,0.7,0.4,1.2,0.4
				C219.1,23.1,219.6,23,220.1,22.7z"/>
			<path class="st5" d="M224.6,15.9h1.3v2.5l0,0.3v5.2h-1.3V15.9z M225.8,18.3c0.2-0.8,0.6-1.4,1.1-1.8c0.5-0.5,1.2-0.7,2-0.7h0.3
				v1.3h-0.4c-0.8,0-1.4,0.1-1.8,0.5s-0.7,0.8-0.9,1.3c-0.2,0.6-0.2,1.3-0.2,2.1h-0.5C225.4,20,225.5,19.1,225.8,18.3z"/>
			<path class="st5" d="M236.4,16.8c0.6,0.8,0.9,1.8,0.9,3.1c0,0.9-0.1,1.6-0.4,2.3c-0.3,0.6-0.7,1.1-1.2,1.5
				c-0.5,0.3-1.2,0.5-1.9,0.5c-0.8,0-1.5-0.2-2.1-0.5s-1-0.9-1.2-1.5c-0.3-0.6-0.4-1.4-0.4-2.2c0-0.8,0.1-1.6,0.4-2.2
				c0.3-0.6,0.7-1.1,1.2-1.5s1.2-0.5,2.1-0.5C234.9,15.7,235.8,16.1,236.4,16.8z M232.5,17.1c-0.4,0.2-0.7,0.6-0.9,1.1
				s-0.3,1.1-0.3,1.8c0,0.7,0.1,1.3,0.3,1.8s0.5,0.8,0.9,1.1c0.4,0.2,0.9,0.4,1.5,0.4c0.6,0,1.1-0.1,1.5-0.3s0.7-0.6,1-1.1
				s0.3-1.1,0.3-1.8s-0.1-1.3-0.3-1.8c-0.2-0.5-0.5-0.8-1-1.1s-0.9-0.3-1.5-0.3C233.4,16.7,232.9,16.8,232.5,17.1z M238.1,23.9h-1.3
				V22v-0.2v-9.1h1.3V23.9z"/>
			<path class="st5" d="M241.6,23.7c-0.6-0.4-1.1-0.9-1.4-1.5c-0.3-0.6-0.5-1.4-0.5-2.2c0-0.8,0.2-1.5,0.5-2.2
				c0.3-0.6,0.8-1.1,1.4-1.5s1.4-0.6,2.2-0.6c0.9,0,1.6,0.2,2.2,0.6s1.1,0.9,1.4,1.5c0.3,0.6,0.5,1.4,0.5,2.2c0,0.8-0.2,1.6-0.5,2.2
				c-0.3,0.6-0.8,1.1-1.4,1.5c-0.6,0.4-1.4,0.6-2.2,0.6C243,24.2,242.2,24,241.6,23.7z M241.4,21.8c0.2,0.5,0.5,0.8,0.9,1.1
				s0.9,0.3,1.5,0.3c0.6,0,1.1-0.1,1.5-0.3s0.7-0.6,0.9-1.1c0.2-0.5,0.3-1.1,0.3-1.8c0-0.7-0.1-1.4-0.3-1.8s-0.5-0.8-0.9-1
				s-0.9-0.3-1.5-0.3c-0.6,0-1.1,0.1-1.5,0.3s-0.7,0.6-0.9,1c-0.2,0.5-0.3,1.1-0.3,1.8C241.1,20.7,241.2,21.3,241.4,21.8z"/>
			<path class="st5" d="M250,15.9l3,7.6h-0.5l3-7.6h1.3l-3.2,8h-1.7l-3.2-8H250z"/>
			<path class="st5" d="M258.8,23.9c-0.4-0.2-0.7-0.4-0.9-0.8s-0.3-0.8-0.3-1.3c0-0.4,0.1-0.8,0.3-1.1s0.4-0.6,0.8-0.8
				c0.4-0.2,0.8-0.4,1.4-0.5l2.1-0.3c0.4-0.1,0.7-0.2,0.9-0.3s0.3-0.4,0.3-0.7c0-0.3-0.1-0.6-0.2-0.8c-0.1-0.2-0.3-0.4-0.6-0.5
				c-0.3-0.1-0.7-0.2-1.2-0.2c-0.8,0-1.3,0.2-1.7,0.5c-0.4,0.3-0.5,0.7-0.6,1.3h-1.3c0-0.6,0.2-1.1,0.4-1.5s0.7-0.7,1.2-1
				c0.5-0.2,1.1-0.3,1.9-0.3c0.7,0,1.3,0.1,1.8,0.3c0.5,0.2,0.8,0.5,1.1,0.9c0.2,0.4,0.3,0.8,0.3,1.3V22c0,0.3,0,0.6,0,0.9
				s0,0.7,0.1,1h-1.2c0-0.3-0.1-0.7-0.1-1s0-0.6,0-0.9c-0.1,0.4-0.3,0.7-0.5,1c-0.2,0.3-0.6,0.6-1,0.8c-0.4,0.2-0.9,0.3-1.5,0.3
				C259.7,24.2,259.2,24.1,258.8,23.9z M262,22.7c0.4-0.3,0.7-0.6,0.9-1.1c0.2-0.5,0.3-0.9,0.3-1.5v-0.7c-0.2,0.1-0.4,0.2-0.5,0.3
				s-0.4,0.1-0.7,0.2l-0.2,0l-1.3,0.3c-0.6,0.1-1,0.3-1.2,0.5s-0.4,0.6-0.4,1c0,0.4,0.1,0.8,0.4,1c0.3,0.2,0.7,0.4,1.2,0.4
				C261.1,23.1,261.6,23,262,22.7z"/>
			<path class="st5" d="M266.6,15.9h1.3v2.5l0,0.3v5.2h-1.3V15.9z M267.7,18.3c0.2-0.8,0.6-1.4,1.1-1.8c0.5-0.5,1.2-0.7,2-0.7h0.3
				v1.3h-0.4c-0.8,0-1.4,0.1-1.8,0.5s-0.7,0.8-0.9,1.3c-0.2,0.6-0.2,1.3-0.2,2.1h-0.5C267.4,20,267.5,19.1,267.7,18.3z"/>
			<path class="st5" d="M272.3,13.3h1.7v1.3h-1.7V13.3z M272.5,15.9h1.3v8h-1.3V15.9z"/>
			<path class="st5" d="M279.6,15.9h1.3v8h-1.3V15.9z M285.1,17.7c-0.1-0.3-0.3-0.6-0.6-0.7c-0.3-0.1-0.6-0.2-1-0.2
				c-0.6,0-1,0.2-1.4,0.5c-0.4,0.3-0.7,0.8-0.8,1.4c-0.2,0.6-0.3,1.4-0.3,2.3h-0.4v-0.3c0-1,0.1-1.9,0.4-2.6s0.6-1.3,1.1-1.7
				c0.5-0.4,1.1-0.6,1.9-0.6c0.6,0,1.1,0.1,1.5,0.4c0.4,0.2,0.7,0.6,0.9,1s0.3,1,0.3,1.7v5.2h-1.3v-5
				C285.3,18.4,285.2,18,285.1,17.7z M290.7,17.7c-0.1-0.3-0.3-0.6-0.6-0.7c-0.3-0.1-0.6-0.2-1-0.2c-0.6,0-1.1,0.2-1.4,0.5
				c-0.4,0.3-0.7,0.8-0.8,1.4c-0.2,0.6-0.3,1.4-0.3,2.3h-0.5c0-1.1,0.1-2,0.3-2.8c0.2-0.8,0.6-1.4,1.1-1.8c0.5-0.4,1.2-0.6,2-0.6
				c0.6,0,1.1,0.1,1.5,0.4c0.4,0.2,0.7,0.6,0.9,1c0.2,0.5,0.3,1,0.3,1.7v5.2h-1.3v-5C290.9,18.4,290.9,18,290.7,17.7z"/>
			<path class="st5" d="M295.1,23.9c-0.4-0.2-0.7-0.4-0.9-0.8s-0.3-0.8-0.3-1.3c0-0.4,0.1-0.8,0.3-1.1s0.4-0.6,0.8-0.8
				c0.4-0.2,0.8-0.4,1.4-0.5l2.1-0.3c0.4-0.1,0.7-0.2,0.9-0.3s0.3-0.4,0.3-0.7c0-0.3-0.1-0.6-0.2-0.8c-0.1-0.2-0.3-0.4-0.6-0.5
				c-0.3-0.1-0.7-0.2-1.2-0.2c-0.8,0-1.3,0.2-1.7,0.5c-0.4,0.3-0.5,0.7-0.6,1.3H294c0-0.6,0.2-1.1,0.4-1.5s0.7-0.7,1.2-1
				c0.5-0.2,1.1-0.3,1.9-0.3c0.7,0,1.3,0.1,1.8,0.3c0.5,0.2,0.8,0.5,1.1,0.9c0.2,0.4,0.3,0.8,0.3,1.3V22c0,0.3,0,0.6,0,0.9
				s0,0.7,0.1,1h-1.2c0-0.3-0.1-0.7-0.1-1s0-0.6,0-0.9c-0.1,0.4-0.3,0.7-0.5,1c-0.2,0.3-0.6,0.6-1,0.8c-0.4,0.2-0.9,0.3-1.5,0.3
				C296,24.2,295.5,24.1,295.1,23.9z M298.3,22.7c0.4-0.3,0.7-0.6,0.9-1.1c0.2-0.5,0.3-0.9,0.3-1.5v-0.7c-0.2,0.1-0.4,0.2-0.5,0.3
				s-0.4,0.1-0.7,0.2l-0.2,0l-1.3,0.3c-0.6,0.1-1,0.3-1.2,0.5s-0.4,0.6-0.4,1c0,0.4,0.1,0.8,0.4,1c0.3,0.2,0.7,0.4,1.2,0.4
				C297.4,23.1,297.9,23,298.3,22.7z"/>
			<path class="st5" d="M302.8,15.9h1.3v2.5l0,0.3v5.2h-1.3V15.9z M304,18.3c0.2-0.8,0.6-1.4,1.1-1.8c0.5-0.5,1.2-0.7,2-0.7h0.3v1.3
				H307c-0.8,0-1.4,0.1-1.8,0.5s-0.7,0.8-0.9,1.3c-0.2,0.6-0.2,1.3-0.2,2.1h-0.5C303.7,20,303.8,19.1,304,18.3z"/>
			<path class="st5" d="M310,23.7c-0.6-0.4-1-0.9-1.3-1.5c-0.3-0.6-0.4-1.4-0.4-2.2c0-0.8,0.2-1.5,0.5-2.2c0.3-0.6,0.8-1.1,1.3-1.5
				s1.3-0.6,2.2-0.6c0.8,0,1.5,0.2,2.1,0.5c0.6,0.3,1,0.8,1.3,1.4c0.3,0.6,0.4,1.3,0.4,2.1v0.2c0,0.1,0,0.2,0,0.3h-6.8v-1h6.1
				l-0.6,0.6c0-0.7,0-1.3-0.2-1.8s-0.5-0.8-0.9-1s-0.9-0.3-1.4-0.3c-0.6,0-1.1,0.1-1.5,0.3s-0.7,0.6-0.9,1.1
				c-0.2,0.5-0.3,1.1-0.3,1.9s0.1,1.4,0.3,1.9c0.2,0.5,0.5,0.8,1,1.1c0.4,0.2,0.9,0.3,1.5,0.3c0.5,0,1-0.1,1.3-0.2
				c0.3-0.1,0.6-0.3,0.8-0.6s0.3-0.6,0.4-0.9h1.2c-0.1,0.5-0.2,0.9-0.5,1.3c-0.3,0.4-0.7,0.8-1.2,1c-0.5,0.3-1.2,0.4-2.1,0.4
				C311.4,24.2,310.6,24,310,23.7z"/>
		</g>
	</g>
</g>
</svg>
