<svg width="90" height="30" viewBox="0 0 90 30" fill="none" xmlns="http://www.w3.org/2000/svg">
<rect width="90" height="30" fill="black"/>
<path d="M15.5922 19.204C14.7042 19.204 13.9602 19.028 13.3602 18.676C12.7682 18.316 12.3282 17.82 12.0402 17.188C11.7522 16.556 11.6082 15.828 11.6082 15.004C11.6082 14.18 11.7522 13.452 12.0402 12.82C12.3362 12.188 12.7842 11.696 13.3842 11.344C13.9842 10.984 14.7282 10.804 15.6162 10.804C16.4242 10.804 17.0962 10.932 17.6322 11.188C18.1682 11.436 18.5762 11.8 18.8562 12.28C19.1442 12.752 19.3242 13.324 19.3962 13.996H18.3762C18.3202 13.476 18.1802 13.04 17.9562 12.688C17.7402 12.336 17.4362 12.072 17.0442 11.896C16.6522 11.72 16.1722 11.632 15.6042 11.632C14.9402 11.632 14.3882 11.76 13.9482 12.016C13.5162 12.264 13.1922 12.64 12.9762 13.144C12.7602 13.64 12.6522 14.26 12.6522 15.004C12.6522 15.756 12.7562 16.38 12.9642 16.876C13.1802 17.372 13.5042 17.748 13.9362 18.004C14.3682 18.252 14.9162 18.376 15.5802 18.376C16.1722 18.376 16.6722 18.28 17.0802 18.088C17.4962 17.888 17.8122 17.596 18.0282 17.212C18.2442 16.828 18.3682 16.364 18.4002 15.82H19.4202C19.3802 16.516 19.2162 17.116 18.9282 17.62C18.6482 18.124 18.2282 18.516 17.6682 18.796C17.1162 19.068 16.4242 19.204 15.5922 19.204ZM26.9984 14.476V15.28H21.5624V14.476H26.9984ZM20.9144 11.02H21.9104V19H20.9144V11.02ZM26.5544 11.02H27.5384V19H26.5544V11.02ZM30.9281 11.404H31.9241V18.616H30.9281V11.404ZM29.2361 18.196H33.6161V19H29.2361V18.196ZM29.2361 11.02H33.6161V11.824H29.2361V11.02ZM38.9235 16.264C38.9315 16.696 39.0155 17.072 39.1755 17.392C39.3435 17.704 39.6115 17.952 39.9795 18.136C40.3475 18.312 40.8315 18.4 41.4315 18.4C41.9675 18.4 42.3915 18.344 42.7035 18.232C43.0155 18.112 43.2395 17.944 43.3755 17.728C43.5115 17.512 43.5795 17.24 43.5795 16.912C43.5795 16.496 43.4635 16.176 43.2315 15.952C43.0075 15.72 42.6395 15.564 42.1275 15.484L40.2435 15.196C39.5555 15.092 39.0475 14.872 38.7195 14.536C38.3915 14.192 38.2275 13.716 38.2275 13.108C38.2275 12.668 38.3355 12.276 38.5515 11.932C38.7755 11.58 39.1155 11.304 39.5715 11.104C40.0275 10.904 40.5875 10.804 41.2515 10.804C41.9315 10.804 42.5075 10.912 42.9795 11.128C43.4515 11.336 43.8115 11.636 44.0595 12.028C44.3075 12.42 44.4515 12.876 44.4915 13.396H43.5195C43.4795 13.02 43.3755 12.7 43.2075 12.436C43.0395 12.172 42.7915 11.964 42.4635 11.812C42.1355 11.66 41.7315 11.584 41.2515 11.584C40.5635 11.584 40.0555 11.72 39.7275 11.992C39.3995 12.256 39.2355 12.62 39.2355 13.084C39.2355 13.42 39.3275 13.696 39.5115 13.912C39.6955 14.128 40.0035 14.272 40.4355 14.344L42.4275 14.644C43.1555 14.756 43.6955 14.984 44.0475 15.328C44.4075 15.664 44.5875 16.148 44.5875 16.78C44.5875 17.3 44.4755 17.74 44.2515 18.1C44.0355 18.452 43.6915 18.72 43.2195 18.904C42.7555 19.088 42.1595 19.18 41.4315 19.18C40.6075 19.18 39.9355 19.052 39.4155 18.796C38.9035 18.54 38.5315 18.196 38.2995 17.764C38.0675 17.324 37.9515 16.824 37.9515 16.264H38.9235ZM47.6793 11.404H48.6753V18.616H47.6793V11.404ZM45.9873 18.196H50.3673V19H45.9873V18.196ZM45.9873 11.02H50.3673V11.824H45.9873V11.02ZM57.9235 19L57.1435 16.96H53.1955L52.4155 19H51.4075L54.4435 11.02H55.9195L58.9435 19H57.9235ZM53.4955 16.156H56.8435L55.1755 11.74L53.4955 16.156ZM68.883 19H67.887V11.776L65.199 19H63.855L61.155 11.776V19H60.159V11.02H61.899L64.539 18.064L67.167 11.02H68.883V19ZM74.4184 19.204C73.5224 19.204 72.7744 19.028 72.1744 18.676C71.5824 18.316 71.1424 17.82 70.8544 17.188C70.5744 16.556 70.4344 15.828 70.4344 15.004C70.4344 14.188 70.5744 13.464 70.8544 12.832C71.1424 12.2 71.5824 11.704 72.1744 11.344C72.7744 10.984 73.5224 10.804 74.4184 10.804C75.3144 10.804 76.0584 10.984 76.6504 11.344C77.2424 11.704 77.6784 12.2 77.9584 12.832C78.2464 13.464 78.3904 14.188 78.3904 15.004C78.3904 15.828 78.2464 16.556 77.9584 17.188C77.6784 17.812 77.2424 18.304 76.6504 18.664C76.0584 19.024 75.3144 19.204 74.4184 19.204ZM71.4784 15.004C71.4784 15.756 71.5824 16.384 71.7904 16.888C71.9984 17.384 72.3184 17.756 72.7504 18.004C73.1824 18.252 73.7384 18.376 74.4184 18.376C75.0904 18.376 75.6424 18.252 76.0744 18.004C76.5064 17.756 76.8264 17.384 77.0344 16.888C77.2424 16.384 77.3464 15.756 77.3464 15.004C77.3464 14.244 77.2424 13.616 77.0344 13.12C76.8264 12.624 76.5064 12.252 76.0744 12.004C75.6424 11.756 75.0904 11.632 74.4184 11.632C73.7384 11.632 73.1824 11.756 72.7504 12.004C72.3184 12.252 71.9984 12.624 71.7904 13.12C71.5824 13.616 71.4784 14.244 71.4784 15.004Z" fill="white"/>
</svg>
