<svg width="30" height="30" viewBox="0 0 30 30" fill="none" xmlns="http://www.w3.org/2000/svg">
<rect width="30" height="30" fill="white"/>
<path d="M13.7681 15.6H14.8281C16.1215 15.6 17.0348 15.3333 17.5681 14.8C18.1148 14.2533 18.3881 13.5267 18.3881 12.62C18.3881 12.0733 18.2748 11.58 18.0481 11.14C17.8215 10.7 17.4748 10.3533 17.0081 10.1C16.5548 9.84667 15.9948 9.72 15.3281 9.72C14.5015 9.72 13.8215 9.86667 13.2881 10.16C12.7548 10.44 12.3548 10.84 12.0881 11.36C11.8215 11.88 11.6681 12.5067 11.6281 13.24H9.92813C9.96813 12.3467 10.1681 11.5333 10.5281 10.8C10.8881 10.0667 11.4615 9.47333 12.2481 9.02C13.0348 8.56667 14.0615 8.34 15.3281 8.34C16.4081 8.34 17.3081 8.52667 18.0281 8.9C18.7481 9.27333 19.2748 9.77333 19.6081 10.4C19.9548 11.0267 20.1281 11.7267 20.1281 12.5C20.1281 13.42 19.9148 14.22 19.4881 14.9C19.0748 15.5667 18.4815 16.08 17.7081 16.44C16.9348 16.7867 16.0148 16.96 14.9481 16.96H13.7681V15.6ZM13.9881 20.24H16.0681V22H13.9881V20.24Z" fill="black"/>
<rect x="0.75" y="0.75" width="28.5" height="28.5" stroke="black" stroke-width="1.5"/>
</svg>
