<svg width="120" height="30" viewBox="0 0 120 30" fill="none" xmlns="http://www.w3.org/2000/svg">
<rect width="120" height="30" fill="black"/>
<path d="M18.8116 11.404H19.8076V18.616H18.8116V11.404ZM17.1196 18.196H21.4996V19H17.1196V18.196ZM17.1196 11.02H21.4996V11.824H17.1196V11.02ZM23.7997 18.196H26.3317C27.0277 18.196 27.5837 18.072 27.9997 17.824C28.4237 17.576 28.7277 17.22 28.9117 16.756C29.0957 16.284 29.1877 15.696 29.1877 14.992C29.1877 14.288 29.0957 13.704 28.9117 13.24C28.7277 12.776 28.4277 12.424 28.0117 12.184C27.5957 11.944 27.0357 11.824 26.3317 11.824H23.7997V11.02H26.5117C27.3517 11.02 28.0477 11.196 28.5997 11.548C29.1597 11.892 29.5717 12.364 29.8357 12.964C30.0997 13.564 30.2317 14.24 30.2317 14.992C30.2317 15.752 30.0997 16.436 29.8357 17.044C29.5717 17.644 29.1597 18.12 28.5997 18.472C28.0477 18.824 27.3517 19 26.5117 19H23.7997V18.196ZM23.1997 11.02H24.1957V19H23.1997V11.02ZM37.6995 17.728C37.6995 17.992 37.7115 18.224 37.7355 18.424C37.7675 18.616 37.8075 18.808 37.8555 19H36.8835C36.8835 18.984 36.8795 18.968 36.8715 18.952C36.8315 18.824 36.7995 18.66 36.7755 18.46C36.7515 18.252 36.7395 18.02 36.7395 17.764V17.032C36.7395 16.656 36.6715 16.352 36.5355 16.12C36.4075 15.88 36.2155 15.704 35.9595 15.592C35.7115 15.48 35.3995 15.424 35.0235 15.424H32.7795V19H31.7835V11.02H35.5035C36.0395 11.02 36.4915 11.108 36.8595 11.284C37.2275 11.452 37.4995 11.692 37.6755 12.004C37.8595 12.316 37.9515 12.688 37.9515 13.12C37.9515 13.64 37.8075 14.08 37.5195 14.44C37.2315 14.792 36.8595 15.024 36.4035 15.136C36.8275 15.256 37.1475 15.444 37.3635 15.7C37.5875 15.948 37.6995 16.344 37.6995 16.888V17.728ZM35.3835 14.68C35.9195 14.68 36.3075 14.552 36.5475 14.296C36.7875 14.04 36.9075 13.676 36.9075 13.204C36.9075 12.74 36.7835 12.396 36.5355 12.172C36.2955 11.94 35.9155 11.824 35.3955 11.824H32.7795V14.68H35.3835ZM43.3241 19.204C42.4281 19.204 41.6801 19.028 41.0801 18.676C40.4881 18.316 40.0481 17.82 39.7601 17.188C39.4801 16.556 39.3401 15.828 39.3401 15.004C39.3401 14.188 39.4801 13.464 39.7601 12.832C40.0481 12.2 40.4881 11.704 41.0801 11.344C41.6801 10.984 42.4281 10.804 43.3241 10.804C44.2201 10.804 44.9641 10.984 45.5561 11.344C46.1481 11.704 46.5841 12.2 46.8641 12.832C47.1521 13.464 47.2961 14.188 47.2961 15.004C47.2961 15.828 47.1521 16.556 46.8641 17.188C46.5841 17.812 46.1481 18.304 45.5561 18.664C44.9641 19.024 44.2201 19.204 43.3241 19.204ZM40.3841 15.004C40.3841 15.756 40.4881 16.384 40.6961 16.888C40.9041 17.384 41.2241 17.756 41.6561 18.004C42.0881 18.252 42.6441 18.376 43.3241 18.376C43.9961 18.376 44.5481 18.252 44.9801 18.004C45.4121 17.756 45.7321 17.384 45.9401 16.888C46.1481 16.384 46.2521 15.756 46.2521 15.004C46.2521 14.244 46.1481 13.616 45.9401 13.12C45.7321 12.624 45.4121 12.252 44.9801 12.004C44.5481 11.756 43.9961 11.632 43.3241 11.632C42.6441 11.632 42.0881 11.756 41.6561 12.004C41.2241 12.252 40.9041 12.624 40.6961 13.12C40.4881 13.616 40.3841 14.244 40.3841 15.004ZM52.3855 19.204C51.5375 19.204 50.8215 19.028 50.2375 18.676C49.6615 18.316 49.2295 17.82 48.9415 17.188C48.6615 16.556 48.5215 15.828 48.5215 15.004C48.5215 14.172 48.6695 13.444 48.9655 12.82C49.2615 12.188 49.7135 11.696 50.3215 11.344C50.9295 10.984 51.6775 10.804 52.5655 10.804C53.3495 10.804 54.0095 10.924 54.5455 11.164C55.0895 11.396 55.5095 11.74 55.8055 12.196C56.1095 12.644 56.2975 13.204 56.3695 13.876H55.3375C55.2735 13.364 55.1295 12.944 54.9055 12.616C54.6895 12.28 54.3855 12.032 53.9935 11.872C53.6095 11.712 53.1215 11.632 52.5295 11.632C51.8575 11.632 51.3015 11.756 50.8615 12.004C50.4295 12.252 50.1055 12.624 49.8895 13.12C49.6735 13.616 49.5655 14.244 49.5655 15.004C49.5655 15.756 49.6695 16.384 49.8775 16.888C50.0935 17.384 50.4175 17.756 50.8495 18.004C51.2895 18.252 51.8495 18.376 52.5295 18.376C53.4175 18.376 54.0855 18.148 54.5335 17.692C54.9815 17.236 55.2655 16.608 55.3855 15.808H51.7975V15.064H56.3575V18.988H55.4575V17.044C55.4415 17.1 55.4175 17.168 55.3855 17.248C55.2495 17.632 55.0535 17.968 54.7975 18.256C54.5415 18.544 54.2095 18.776 53.8015 18.952C53.4015 19.12 52.9295 19.204 52.3855 19.204ZM64.0953 17.728C64.0953 17.992 64.1073 18.224 64.1313 18.424C64.1633 18.616 64.2033 18.808 64.2513 19H63.2793C63.2793 18.984 63.2753 18.968 63.2673 18.952C63.2273 18.824 63.1953 18.66 63.1713 18.46C63.1473 18.252 63.1353 18.02 63.1353 17.764V17.032C63.1353 16.656 63.0673 16.352 62.9313 16.12C62.8033 15.88 62.6113 15.704 62.3553 15.592C62.1073 15.48 61.7953 15.424 61.4193 15.424H59.1753V19H58.1793V11.02H61.8993C62.4353 11.02 62.8873 11.108 63.2553 11.284C63.6233 11.452 63.8953 11.692 64.0713 12.004C64.2553 12.316 64.3473 12.688 64.3473 13.12C64.3473 13.64 64.2033 14.08 63.9153 14.44C63.6273 14.792 63.2553 15.024 62.7993 15.136C63.2233 15.256 63.5433 15.444 63.7593 15.7C63.9833 15.948 64.0953 16.344 64.0953 16.888V17.728ZM61.7793 14.68C62.3153 14.68 62.7033 14.552 62.9433 14.296C63.1833 14.04 63.3033 13.676 63.3033 13.204C63.3033 12.74 63.1793 12.396 62.9313 12.172C62.6913 11.94 62.3113 11.824 61.7913 11.824H59.1753V14.68H61.7793ZM71.9159 19L71.1359 16.96H67.1879L66.4079 19H65.3999L68.4359 11.02H69.9119L72.9359 19H71.9159ZM67.4879 16.156H70.8359L69.1679 11.74L67.4879 16.156ZM74.1515 11.02H75.1475V19H74.1515V11.02ZM80.0435 11.02V11.824H74.8355V11.02H80.0435ZM79.6835 14.56V15.352H74.8355V14.56H79.6835ZM83.1105 11.404H84.1065V18.616H83.1105V11.404ZM81.4185 18.196H85.7985V19H81.4185V18.196ZM81.4185 11.02H85.7985V11.824H81.4185V11.02ZM91.1587 19.204C90.2707 19.204 89.5267 19.028 88.9267 18.676C88.3347 18.316 87.8947 17.82 87.6067 17.188C87.3187 16.556 87.1747 15.828 87.1747 15.004C87.1747 14.18 87.3187 13.452 87.6067 12.82C87.9027 12.188 88.3507 11.696 88.9507 11.344C89.5507 10.984 90.2947 10.804 91.1827 10.804C91.9907 10.804 92.6627 10.932 93.1987 11.188C93.7347 11.436 94.1427 11.8 94.4227 12.28C94.7107 12.752 94.8907 13.324 94.9627 13.996H93.9427C93.8867 13.476 93.7467 13.04 93.5227 12.688C93.3067 12.336 93.0027 12.072 92.6107 11.896C92.2187 11.72 91.7387 11.632 91.1707 11.632C90.5067 11.632 89.9547 11.76 89.5147 12.016C89.0827 12.264 88.7587 12.64 88.5427 13.144C88.3267 13.64 88.2187 14.26 88.2187 15.004C88.2187 15.756 88.3227 16.38 88.5307 16.876C88.7467 17.372 89.0707 17.748 89.5027 18.004C89.9347 18.252 90.4827 18.376 91.1467 18.376C91.7387 18.376 92.2387 18.28 92.6467 18.088C93.0627 17.888 93.3787 17.596 93.5947 17.212C93.8107 16.828 93.9347 16.364 93.9667 15.82H94.9867C94.9467 16.516 94.7827 17.116 94.4947 17.62C94.2147 18.124 93.7947 18.516 93.2347 18.796C92.6827 19.068 91.9907 19.204 91.1587 19.204ZM102.337 19L101.557 16.96H97.6088L96.8288 19H95.8208L98.8568 11.02H100.333L103.357 19H102.337ZM97.9088 16.156H101.257L99.5888 11.74L97.9088 16.156Z" fill="white"/>
</svg>
