<svg width="120" height="30" viewBox="0 0 120 30" fill="none" xmlns="http://www.w3.org/2000/svg">
<rect width="120" height="30" fill="white"/>
<path d="M18.8115 11.404H19.8075V18.616H18.8115V11.404ZM17.1195 18.196H21.4995V19H17.1195V18.196ZM17.1195 11.02H21.4995V11.824H17.1195V11.02ZM23.7997 18.196H26.3317C27.0277 18.196 27.5837 18.072 27.9997 17.824C28.4237 17.576 28.7277 17.22 28.9117 16.756C29.0957 16.284 29.1877 15.696 29.1877 14.992C29.1877 14.288 29.0957 13.704 28.9117 13.24C28.7277 12.776 28.4277 12.424 28.0117 12.184C27.5957 11.944 27.0357 11.824 26.3317 11.824H23.7997V11.02H26.5117C27.3517 11.02 28.0477 11.196 28.5997 11.548C29.1597 11.892 29.5717 12.364 29.8357 12.964C30.0997 13.564 30.2317 14.24 30.2317 14.992C30.2317 15.752 30.0997 16.436 29.8357 17.044C29.5717 17.644 29.1597 18.12 28.5997 18.472C28.0477 18.824 27.3517 19 26.5117 19H23.7997V18.196ZM23.1997 11.02H24.1957V19H23.1997V11.02ZM37.6994 17.728C37.6994 17.992 37.7114 18.224 37.7354 18.424C37.7674 18.616 37.8074 18.808 37.8554 19H36.8834C36.8834 18.984 36.8794 18.968 36.8714 18.952C36.8314 18.824 36.7994 18.66 36.7754 18.46C36.7514 18.252 36.7394 18.02 36.7394 17.764V17.032C36.7394 16.656 36.6714 16.352 36.5354 16.12C36.4074 15.88 36.2154 15.704 35.9594 15.592C35.7114 15.48 35.3994 15.424 35.0234 15.424H32.7794V19H31.7834V11.02H35.5034C36.0394 11.02 36.4914 11.108 36.8594 11.284C37.2274 11.452 37.4994 11.692 37.6754 12.004C37.8594 12.316 37.9514 12.688 37.9514 13.12C37.9514 13.64 37.8074 14.08 37.5194 14.44C37.2314 14.792 36.8594 15.024 36.4034 15.136C36.8274 15.256 37.1474 15.444 37.3634 15.7C37.5874 15.948 37.6994 16.344 37.6994 16.888V17.728ZM35.3834 14.68C35.9194 14.68 36.3074 14.552 36.5474 14.296C36.7874 14.04 36.9074 13.676 36.9074 13.204C36.9074 12.74 36.7834 12.396 36.5354 12.172C36.2954 11.94 35.9154 11.824 35.3954 11.824H32.7794V14.68H35.3834ZM43.3241 19.204C42.4281 19.204 41.6801 19.028 41.0801 18.676C40.4881 18.316 40.0481 17.82 39.7601 17.188C39.4801 16.556 39.3401 15.828 39.3401 15.004C39.3401 14.188 39.4801 13.464 39.7601 12.832C40.0481 12.2 40.4881 11.704 41.0801 11.344C41.6801 10.984 42.4281 10.804 43.3241 10.804C44.2201 10.804 44.9641 10.984 45.5561 11.344C46.1481 11.704 46.5841 12.2 46.8641 12.832C47.1521 13.464 47.2961 14.188 47.2961 15.004C47.2961 15.828 47.1521 16.556 46.8641 17.188C46.5841 17.812 46.1481 18.304 45.5561 18.664C44.9641 19.024 44.2201 19.204 43.3241 19.204ZM40.3841 15.004C40.3841 15.756 40.4881 16.384 40.6961 16.888C40.9041 17.384 41.2241 17.756 41.6561 18.004C42.0881 18.252 42.6441 18.376 43.3241 18.376C43.9961 18.376 44.5481 18.252 44.9801 18.004C45.4121 17.756 45.7321 17.384 45.9401 16.888C46.1481 16.384 46.2521 15.756 46.2521 15.004C46.2521 14.244 46.1481 13.616 45.9401 13.12C45.7321 12.624 45.4121 12.252 44.9801 12.004C44.5481 11.756 43.9961 11.632 43.3241 11.632C42.6441 11.632 42.0881 11.756 41.6561 12.004C41.2241 12.252 40.9041 12.624 40.6961 13.12C40.4881 13.616 40.3841 14.244 40.3841 15.004ZM52.3855 19.204C51.5375 19.204 50.8215 19.028 50.2375 18.676C49.6615 18.316 49.2295 17.82 48.9415 17.188C48.6615 16.556 48.5215 15.828 48.5215 15.004C48.5215 14.172 48.6695 13.444 48.9655 12.82C49.2615 12.188 49.7135 11.696 50.3215 11.344C50.9295 10.984 51.6775 10.804 52.5655 10.804C53.3495 10.804 54.0095 10.924 54.5455 11.164C55.0895 11.396 55.5095 11.74 55.8055 12.196C56.1095 12.644 56.2975 13.204 56.3695 13.876H55.3375C55.2735 13.364 55.1295 12.944 54.9055 12.616C54.6895 12.28 54.3855 12.032 53.9935 11.872C53.6095 11.712 53.1215 11.632 52.5295 11.632C51.8575 11.632 51.3015 11.756 50.8615 12.004C50.4295 12.252 50.1055 12.624 49.8895 13.12C49.6735 13.616 49.5655 14.244 49.5655 15.004C49.5655 15.756 49.6695 16.384 49.8775 16.888C50.0935 17.384 50.4175 17.756 50.8495 18.004C51.2895 18.252 51.8495 18.376 52.5295 18.376C53.4175 18.376 54.0855 18.148 54.5335 17.692C54.9815 17.236 55.2655 16.608 55.3855 15.808H51.7975V15.064H56.3575V18.988H55.4575V17.044C55.4415 17.1 55.4175 17.168 55.3855 17.248C55.2495 17.632 55.0535 17.968 54.7975 18.256C54.5415 18.544 54.2095 18.776 53.8015 18.952C53.4015 19.12 52.9295 19.204 52.3855 19.204ZM64.0952 17.728C64.0952 17.992 64.1072 18.224 64.1312 18.424C64.1632 18.616 64.2032 18.808 64.2512 19H63.2792C63.2792 18.984 63.2752 18.968 63.2672 18.952C63.2272 18.824 63.1952 18.66 63.1712 18.46C63.1472 18.252 63.1352 18.02 63.1352 17.764V17.032C63.1352 16.656 63.0672 16.352 62.9312 16.12C62.8032 15.88 62.6112 15.704 62.3552 15.592C62.1072 15.48 61.7952 15.424 61.4192 15.424H59.1752V19H58.1792V11.02H61.8992C62.4352 11.02 62.8872 11.108 63.2552 11.284C63.6232 11.452 63.8952 11.692 64.0712 12.004C64.2552 12.316 64.3472 12.688 64.3472 13.12C64.3472 13.64 64.2032 14.08 63.9152 14.44C63.6272 14.792 63.2552 15.024 62.7992 15.136C63.2232 15.256 63.5432 15.444 63.7592 15.7C63.9832 15.948 64.0952 16.344 64.0952 16.888V17.728ZM61.7792 14.68C62.3152 14.68 62.7032 14.552 62.9432 14.296C63.1832 14.04 63.3032 13.676 63.3032 13.204C63.3032 12.74 63.1792 12.396 62.9312 12.172C62.6912 11.94 62.3112 11.824 61.7912 11.824H59.1752V14.68H61.7792ZM71.9158 19L71.1358 16.96H67.1878L66.4078 19H65.3998L68.4358 11.02H69.9118L72.9358 19H71.9158ZM67.4878 16.156H70.8358L69.1678 11.74L67.4878 16.156ZM74.1514 11.02H75.1474V19H74.1514V11.02ZM80.0434 11.02V11.824H74.8354V11.02H80.0434ZM79.6834 14.56V15.352H74.8354V14.56H79.6834ZM83.1104 11.404H84.1064V18.616H83.1104V11.404ZM81.4184 18.196H85.7984V19H81.4184V18.196ZM81.4184 11.02H85.7984V11.824H81.4184V11.02ZM91.1586 19.204C90.2706 19.204 89.5266 19.028 88.9266 18.676C88.3346 18.316 87.8946 17.82 87.6066 17.188C87.3186 16.556 87.1746 15.828 87.1746 15.004C87.1746 14.18 87.3186 13.452 87.6066 12.82C87.9026 12.188 88.3506 11.696 88.9506 11.344C89.5506 10.984 90.2946 10.804 91.1826 10.804C91.9906 10.804 92.6626 10.932 93.1986 11.188C93.7346 11.436 94.1426 11.8 94.4226 12.28C94.7106 12.752 94.8906 13.324 94.9626 13.996H93.9426C93.8866 13.476 93.7466 13.04 93.5226 12.688C93.3066 12.336 93.0026 12.072 92.6106 11.896C92.2186 11.72 91.7386 11.632 91.1706 11.632C90.5066 11.632 89.9546 11.76 89.5146 12.016C89.0826 12.264 88.7586 12.64 88.5426 13.144C88.3266 13.64 88.2186 14.26 88.2186 15.004C88.2186 15.756 88.3226 16.38 88.5306 16.876C88.7466 17.372 89.0706 17.748 89.5026 18.004C89.9346 18.252 90.4826 18.376 91.1466 18.376C91.7386 18.376 92.2386 18.28 92.6466 18.088C93.0626 17.888 93.3786 17.596 93.5946 17.212C93.8106 16.828 93.9346 16.364 93.9666 15.82H94.9866C94.9466 16.516 94.7826 17.116 94.4946 17.62C94.2146 18.124 93.7946 18.516 93.2346 18.796C92.6826 19.068 91.9906 19.204 91.1586 19.204ZM102.337 19L101.557 16.96H97.6088L96.8288 19H95.8208L98.8568 11.02H100.333L103.357 19H102.337ZM97.9088 16.156H101.257L99.5888 11.74L97.9088 16.156Z" fill="black"/>
<rect x="0.75" y="0.75" width="118.5" height="28.5" stroke="black" stroke-width="1.5"/>
</svg>
