<svg width="338" height="48" viewBox="0 0 338 48" fill="none" xmlns="http://www.w3.org/2000/svg">
<path d="M1 47V1H337V47H1Z" fill="white" stroke="#0047CC" stroke-width="2"/>
<path d="M11.468 15.71H13.73L18.566 29.048C18.7047 29.412 18.826 29.75 18.93 30.062C19.034 30.374 19.138 30.7033 19.242 31.05C19.3287 31.3793 19.4067 31.7087 19.476 32.038C19.5627 32.3673 19.6407 32.688 19.71 33H17.734L11.468 15.71ZM18.956 33C19.0427 32.5147 19.138 32.038 19.242 31.57C19.346 31.154 19.4673 30.738 19.606 30.322C19.7447 29.906 19.892 29.4813 20.048 29.048L24.91 15.71H27.094L20.854 33H18.956ZM31.5061 31.258H42.2181V33H29.3481V15.71H42.1401V17.452H31.5061V23.25H41.3601V24.966H31.5061V31.258ZM46.568 31.258H52.054C53.562 31.258 54.7667 30.9893 55.668 30.452C56.5867 29.9147 57.2453 29.1433 57.644 28.138C58.0427 27.1153 58.242 25.8413 58.242 24.316C58.242 22.7907 58.0427 21.5253 57.644 20.52C57.2453 19.5147 56.5953 18.752 55.694 18.232C54.7927 17.712 53.5793 17.452 52.054 17.452H46.568V15.71H52.444C54.264 15.71 55.772 16.0913 56.968 16.854C58.1813 17.5993 59.074 18.622 59.646 19.922C60.218 21.222 60.504 22.6867 60.504 24.316C60.504 25.9627 60.218 27.4447 59.646 28.762C59.074 30.062 58.1813 31.0933 56.968 31.856C55.772 32.6187 54.264 33 52.444 33H46.568V31.258ZM45.268 15.71H47.426V33H45.268V15.71ZM66.6221 16.542H68.7801V32.168H66.6221V16.542ZM62.9561 31.258H72.4461V33H62.9561V31.258ZM62.9561 15.71H72.4461V17.452H62.9561V15.71ZM84.7256 16.542H86.8836V32.168H84.7256V16.542ZM81.0596 31.258H90.5496V33H81.0596V31.258ZM81.0596 15.71H90.5496V17.452H81.0596V15.71ZM106.297 15.71H108.429V33H104.815L96.9633 19.428C96.4606 18.492 96.0966 17.738 95.8713 17.166V33H93.7133V15.71H97.3533L105.205 29.308C105.483 29.7933 105.847 30.53 106.297 31.518V15.71ZM113.451 27.072C113.468 28.008 113.65 28.8227 113.997 29.516C114.361 30.192 114.941 30.7293 115.739 31.128C116.536 31.5093 117.585 31.7 118.885 31.7C120.046 31.7 120.965 31.5787 121.641 31.336C122.317 31.076 122.802 30.712 123.097 30.244C123.391 29.776 123.539 29.1867 123.539 28.476C123.539 27.5747 123.287 26.8813 122.785 26.396C122.299 25.8933 121.502 25.5553 120.393 25.382L116.311 24.758C114.82 24.5327 113.719 24.056 113.009 23.328C112.298 22.5827 111.943 21.5513 111.943 20.234C111.943 19.2807 112.177 18.4313 112.645 17.686C113.13 16.9233 113.867 16.3253 114.855 15.892C115.843 15.4587 117.056 15.242 118.495 15.242C119.968 15.242 121.216 15.476 122.239 15.944C123.261 16.3947 124.041 17.0447 124.579 17.894C125.116 18.7433 125.428 19.7313 125.515 20.858H123.409C123.322 20.0433 123.097 19.35 122.733 18.778C122.369 18.206 121.831 17.7553 121.121 17.426C120.41 17.0967 119.535 16.932 118.495 16.932C117.004 16.932 115.903 17.2267 115.193 17.816C114.482 18.388 114.127 19.1767 114.127 20.182C114.127 20.91 114.326 21.508 114.725 21.976C115.123 22.444 115.791 22.756 116.727 22.912L121.043 23.562C122.62 23.8047 123.79 24.2987 124.553 25.044C125.333 25.772 125.723 26.8207 125.723 28.19C125.723 29.3167 125.48 30.27 124.995 31.05C124.527 31.8127 123.781 32.3933 122.759 32.792C121.753 33.1907 120.462 33.39 118.885 33.39C117.099 33.39 115.643 33.1127 114.517 32.558C113.407 32.0033 112.601 31.258 112.099 30.322C111.596 29.3687 111.345 28.2853 111.345 27.072H113.451ZM133.435 16.594H135.567V33.026H133.435V16.594ZM127.195 15.71H141.755V17.452H127.195V15.71ZM156.573 33L154.883 28.58H146.329L144.639 33H142.455L149.033 15.71H152.231L158.783 33H156.573ZM146.979 26.838H154.233L150.619 17.27L146.979 26.838ZM160.897 15.71H163.055V33H160.897V15.71ZM162.483 31.258H172.103V33H162.483V31.258ZM174.303 15.71H176.461V33H174.303V15.71ZM175.889 31.258H185.509V33H175.889V31.258ZM200.397 33L198.707 28.58H190.153L188.463 33H186.279L192.857 15.71H196.055L202.607 33H200.397ZM190.803 26.838H198.057L194.443 17.27L190.803 26.838ZM203.785 31.258L216.889 15.918L218.189 17.452L205.137 32.792L203.785 31.258ZM203.785 31.258H218.267V33H203.785V31.258ZM203.941 15.71H218.189V17.452H203.941V15.71ZM224.019 16.542H226.177V32.168H224.019V16.542ZM220.353 31.258H229.843V33H220.353V31.258ZM220.353 15.71H229.843V17.452H220.353V15.71ZM240.936 33.442C238.995 33.442 237.374 33.0607 236.074 32.298C234.792 31.518 233.838 30.4433 233.214 29.074C232.608 27.7047 232.304 26.1273 232.304 24.342C232.304 22.574 232.608 21.0053 233.214 19.636C233.838 18.2667 234.792 17.192 236.074 16.412C237.374 15.632 238.995 15.242 240.936 15.242C242.878 15.242 244.49 15.632 245.772 16.412C247.055 17.192 248 18.2667 248.606 19.636C249.23 21.0053 249.542 22.574 249.542 24.342C249.542 26.1273 249.23 27.7047 248.606 29.074C248 30.426 247.055 31.492 245.772 32.272C244.49 33.052 242.878 33.442 240.936 33.442ZM234.566 24.342C234.566 25.9713 234.792 27.332 235.242 28.424C235.693 29.4987 236.386 30.3047 237.322 30.842C238.258 31.3793 239.463 31.648 240.936 31.648C242.392 31.648 243.588 31.3793 244.524 30.842C245.46 30.3047 246.154 29.4987 246.604 28.424C247.055 27.332 247.28 25.9713 247.28 24.342C247.28 22.6953 247.055 21.3347 246.604 20.26C246.154 19.1853 245.46 18.3793 244.524 17.842C243.588 17.3047 242.392 17.036 240.936 17.036C239.463 17.036 238.258 17.3047 237.322 17.842C236.386 18.3793 235.693 19.1853 235.242 20.26C234.792 21.3347 234.566 22.6953 234.566 24.342ZM264.963 15.71H267.095V33H263.481L255.629 19.428C255.127 18.492 254.763 17.738 254.537 17.166V33H252.379V15.71H256.019L263.871 29.308C264.149 29.7933 264.513 30.53 264.963 31.518V15.71ZM272.819 31.258H283.531V33H270.661V15.71H283.453V17.452H272.819V23.25H282.673V24.966H272.819V31.258Z" fill="#0047CC"/>
<path d="M314.629 12.467L326.136 23.974L314.629 35.518L312.853 33.705L322.658 23.974L312.853 14.243L314.629 12.467ZM324.397 22.79V25.195H301.124V22.79H324.397Z" fill="#0047CC"/>
</svg>
