<svg width="338" height="48" viewBox="0 0 338 48" fill="none" xmlns="http://www.w3.org/2000/svg">
<path d="M1 47V1H337V47H1Z" fill="#0047CC" stroke="#0047CC" stroke-width="2"/>
<path d="M11.468 14.71H13.73L18.566 28.048C18.7047 28.412 18.826 28.75 18.93 29.062C19.034 29.374 19.138 29.7033 19.242 30.05C19.3287 30.3793 19.4067 30.7087 19.476 31.038C19.5627 31.3673 19.6407 31.688 19.71 32H17.734L11.468 14.71ZM18.956 32C19.0427 31.5147 19.138 31.038 19.242 30.57C19.346 30.154 19.4673 29.738 19.606 29.322C19.7447 28.906 19.892 28.4813 20.048 28.048L24.91 14.71H27.094L20.854 32H18.956ZM31.5061 30.258H42.2181V32H29.3481V14.71H42.1401V16.452H31.5061V22.25H41.3601V23.966H31.5061V30.258ZM46.568 30.258H52.054C53.562 30.258 54.7667 29.9893 55.668 29.452C56.5867 28.9147 57.2453 28.1433 57.644 27.138C58.0427 26.1153 58.242 24.8413 58.242 23.316C58.242 21.7907 58.0427 20.5253 57.644 19.52C57.2453 18.5147 56.5953 17.752 55.694 17.232C54.7927 16.712 53.5793 16.452 52.054 16.452H46.568V14.71H52.444C54.264 14.71 55.772 15.0913 56.968 15.854C58.1813 16.5993 59.074 17.622 59.646 18.922C60.218 20.222 60.504 21.6867 60.504 23.316C60.504 24.9627 60.218 26.4447 59.646 27.762C59.074 29.062 58.1813 30.0933 56.968 30.856C55.772 31.6187 54.264 32 52.444 32H46.568V30.258ZM45.268 14.71H47.426V32H45.268V14.71ZM66.6221 15.542H68.7801V31.168H66.6221V15.542ZM62.9561 30.258H72.4461V32H62.9561V30.258ZM62.9561 14.71H72.4461V16.452H62.9561V14.71ZM84.7256 15.542H86.8836V31.168H84.7256V15.542ZM81.0596 30.258H90.5496V32H81.0596V30.258ZM81.0596 14.71H90.5496V16.452H81.0596V14.71ZM106.297 14.71H108.429V32H104.815L96.9633 18.428C96.4606 17.492 96.0966 16.738 95.8713 16.166V32H93.7133V14.71H97.3533L105.205 28.308C105.483 28.7933 105.847 29.53 106.297 30.518V14.71ZM113.451 26.072C113.468 27.008 113.65 27.8227 113.997 28.516C114.361 29.192 114.941 29.7293 115.739 30.128C116.536 30.5093 117.585 30.7 118.885 30.7C120.046 30.7 120.965 30.5787 121.641 30.336C122.317 30.076 122.802 29.712 123.097 29.244C123.391 28.776 123.539 28.1867 123.539 27.476C123.539 26.5747 123.287 25.8813 122.785 25.396C122.299 24.8933 121.502 24.5553 120.393 24.382L116.311 23.758C114.82 23.5327 113.719 23.056 113.009 22.328C112.298 21.5827 111.943 20.5513 111.943 19.234C111.943 18.2807 112.177 17.4313 112.645 16.686C113.13 15.9233 113.867 15.3253 114.855 14.892C115.843 14.4587 117.056 14.242 118.495 14.242C119.968 14.242 121.216 14.476 122.239 14.944C123.261 15.3947 124.041 16.0447 124.579 16.894C125.116 17.7433 125.428 18.7313 125.515 19.858H123.409C123.322 19.0433 123.097 18.35 122.733 17.778C122.369 17.206 121.831 16.7553 121.121 16.426C120.41 16.0967 119.535 15.932 118.495 15.932C117.004 15.932 115.903 16.2267 115.193 16.816C114.482 17.388 114.127 18.1767 114.127 19.182C114.127 19.91 114.326 20.508 114.725 20.976C115.123 21.444 115.791 21.756 116.727 21.912L121.043 22.562C122.62 22.8047 123.79 23.2987 124.553 24.044C125.333 24.772 125.723 25.8207 125.723 27.19C125.723 28.3167 125.48 29.27 124.995 30.05C124.527 30.8127 123.781 31.3933 122.759 31.792C121.753 32.1907 120.462 32.39 118.885 32.39C117.099 32.39 115.643 32.1127 114.517 31.558C113.407 31.0033 112.601 30.258 112.099 29.322C111.596 28.3687 111.345 27.2853 111.345 26.072H113.451ZM133.435 15.594H135.567V32.026H133.435V15.594ZM127.195 14.71H141.755V16.452H127.195V14.71ZM156.573 32L154.883 27.58H146.329L144.639 32H142.455L149.033 14.71H152.231L158.783 32H156.573ZM146.979 25.838H154.233L150.619 16.27L146.979 25.838ZM160.897 14.71H163.055V32H160.897V14.71ZM162.483 30.258H172.103V32H162.483V30.258ZM174.303 14.71H176.461V32H174.303V14.71ZM175.889 30.258H185.509V32H175.889V30.258ZM200.397 32L198.707 27.58H190.153L188.463 32H186.279L192.857 14.71H196.055L202.607 32H200.397ZM190.803 25.838H198.057L194.443 16.27L190.803 25.838ZM203.785 30.258L216.889 14.918L218.189 16.452L205.137 31.792L203.785 30.258ZM203.785 30.258H218.267V32H203.785V30.258ZM203.941 14.71H218.189V16.452H203.941V14.71ZM224.019 15.542H226.177V31.168H224.019V15.542ZM220.353 30.258H229.843V32H220.353V30.258ZM220.353 14.71H229.843V16.452H220.353V14.71ZM240.936 32.442C238.995 32.442 237.374 32.0607 236.074 31.298C234.792 30.518 233.838 29.4433 233.214 28.074C232.608 26.7047 232.304 25.1273 232.304 23.342C232.304 21.574 232.608 20.0053 233.214 18.636C233.838 17.2667 234.792 16.192 236.074 15.412C237.374 14.632 238.995 14.242 240.936 14.242C242.878 14.242 244.49 14.632 245.772 15.412C247.055 16.192 248 17.2667 248.606 18.636C249.23 20.0053 249.542 21.574 249.542 23.342C249.542 25.1273 249.23 26.7047 248.606 28.074C248 29.426 247.055 30.492 245.772 31.272C244.49 32.052 242.878 32.442 240.936 32.442ZM234.566 23.342C234.566 24.9713 234.792 26.332 235.242 27.424C235.693 28.4987 236.386 29.3047 237.322 29.842C238.258 30.3793 239.463 30.648 240.936 30.648C242.392 30.648 243.588 30.3793 244.524 29.842C245.46 29.3047 246.154 28.4987 246.604 27.424C247.055 26.332 247.28 24.9713 247.28 23.342C247.28 21.6953 247.055 20.3347 246.604 19.26C246.154 18.1853 245.46 17.3793 244.524 16.842C243.588 16.3047 242.392 16.036 240.936 16.036C239.463 16.036 238.258 16.3047 237.322 16.842C236.386 17.3793 235.693 18.1853 235.242 19.26C234.792 20.3347 234.566 21.6953 234.566 23.342ZM264.963 14.71H267.095V32H263.481L255.629 18.428C255.127 17.492 254.763 16.738 254.537 16.166V32H252.379V14.71H256.019L263.871 28.308C264.149 28.7933 264.513 29.53 264.963 30.518V14.71ZM272.819 30.258H283.531V32H270.661V14.71H283.453V16.452H272.819V22.25H282.673V23.966H272.819V30.258Z" fill="white"/>
<path d="M314.629 13.467L326.136 24.974L314.629 36.518L312.853 34.705L322.658 24.974L312.853 15.243L314.629 13.467ZM324.397 23.79V26.195H301.124V23.79H324.397Z" fill="white"/>
</svg>
