<?xml version="1.0" encoding="utf-8"?>
<!-- Generator: Adobe Illustrator 25.2.0, SVG Export Plug-In . SVG Version: 6.00 Build 0)  -->
<svg version="1.1" id="Livello_1" xmlns="http://www.w3.org/2000/svg" xmlns:xlink="http://www.w3.org/1999/xlink" x="0px" y="0px"
	 viewBox="0 0 1206.4 740.6" style="enable-background:new 0 0 1206.4 740.6;" xml:space="preserve">
<style type="text/css">
	.st0{fill:none;stroke:#6691E0;stroke-width:4;stroke-linejoin:round;}
	.st1{fill:none;stroke:#003599;stroke-width:5;stroke-linejoin:round;stroke-dasharray:1,5;}
	.st2{fill:none;stroke:#99B5EB;stroke-width:5;stroke-linejoin:round;stroke-dasharray:1,5;}
	.st3{enable-background:new    ;}
	.st4{fill:none;stroke:#000000;stroke-width:0.5;stroke-linecap:square;stroke-linejoin:round;}
	.st5{fill:none;stroke:#000000;stroke-width:0.25;stroke-linecap:square;stroke-linejoin:round;}
	.st6{fill:none;stroke:#000000;stroke-width:0.75;stroke-miterlimit:10;stroke-dasharray:0.3456,1.3824;}
	.st7{fill:none;stroke:#000000;stroke-width:0.75;stroke-miterlimit:10;stroke-dasharray:0.3411,1.3643;}
	.st8{fill:none;stroke:#000000;}
</style>
<path class="st0" d="M68.7,331c19,0,19-5.3,38-5.3c17.2,0,17.2-8.3,34.3-8.3c19,0,19,14.2,38,14.2c18.4,0,18.4-10.3,36.8-10.3
	c19,0,19,4.4,38,4.4c18.4,0,18.4,15.4,36.8,15.4c19,0,19,16.7,38,16.7s19,71.7,38,71.7c18.4,0,18.4,4.4,36.8,4.4
	c19,0,19-34.3,38.1-34.3c18.4,0,18.4-15.6,36.8-15.6c19,0,19-4.5,38-4.5c19,0,19-3.5,38-3.5c17.2,0,17.2,1.9,34.3,1.9
	c19,0,19,17.4,38,17.4c18.4,0,18.4,16.5,36.8,16.5c19,0,19,30,38,30c18.4,0,18.4,77.2,36.8,77.2c19,0,19,45.1,38,45.1s19,9.8,38,9.8
	c18.4,0,18.4,8.4,36.8,8.4c19,0,19-21.6,38.1-21.6c18.4,0,18.4-12.8,36.8-12.8c19,0,19-13.4,38-13.4s19,1.5,38,1.5
	c17.2,0,17.2-7.8,34.3-7.8c19,0,19-2.8,38-2.8c18.4,0,18.4-59.1,36.8-59.1c19,0,19-58.7,38-58.7"/>
<path class="st1" d="M68.7,278.2c19,0,19,14.6,38,14.6c17.2,0,17.2-2.2,34.3-2.2c19,0,19-0.4,38-0.4c18.4,0,18.4-4,36.8-4
	c19,0,19-15.4,38-15.4c18.4,0,18.4,34.3,36.8,34.3c19,0,19,26.1,38,26.1s19,1.2,38,1.2c18.4,0,18.4-115.9,36.8-115.9
	c19,0,19-87,38.1-87c18.4,0,18.4,67.5,36.8,67.5c19,0,19,81.1,38,81.1c19,0,19,14.6,38,14.6c17.2,0,17.2-2.2,34.3-2.2
	c19,0,19-0.4,38-0.4c18.4,0,18.4-4,36.8-4c19,0,19-15.4,38-15.4c18.4,0,18.4,34.3,36.8,34.3c19,0,19,26.1,38,26.1s19,1.2,38,1.2
	c18.4,0,18.4-115.9,36.8-115.9c19,0,19-87,38.1-87c18.4,0,18.4,67.5,36.8,67.5c19,0,19,81.1,38,81.1s19,14.6,38,14.6
	c17.2,0,17.2-2.2,34.3-2.2c19,0,19-0.4,38-0.4c18.4,0,18.4-4,36.8-4c19,0,19-15.4,38-15.4"/>
<path class="st2" d="M68.7,577.6c19,0,19-4.1,38-4.1c17.2,0,17.2-34.2,34.3-34.2c19,0,19-4.8,38-4.8c18.4,0,18.4,28.1,36.8,28.1
	c19,0,19,40.2,38,40.2c18.4,0,18.4,1.1,36.8,1.1c19,0,19,16.9,38,16.9s19,2.9,38,2.9c18.4,0,18.4-2.7,36.8-2.7
	c19,0,19-25.8,38.1-25.8c18.4,0,18.4-24.1,36.8-24.1c19,0,19,6.5,38,6.5c19,0,19-4.1,38-4.1c17.2,0,17.2-34.2,34.3-34.2
	c19,0,19-4.8,38-4.8c18.4,0,18.4,28.1,36.8,28.1c19,0,19,40.2,38,40.2c18.4,0,18.4,1.1,36.8,1.1c19,0,19,16.9,38,16.9s19,2.9,38,2.9
	c18.4,0,18.4-2.7,36.8-2.7c19,0,19-25.8,38.1-25.8c18.4,0,18.4-24.1,36.8-24.1c19,0,19,6.5,38,6.5s19-4.1,38-4.1
	c17.2,0,17.2-34.2,34.3-34.2c19,0,19-4.8,38-4.8c18.4,0,18.4,28.1,36.8,28.1c19,0,19,40.2,38,40.2"/>
<g>
	<g class="st3">
		<path d="M1143.7,258.8h-1.3v-9.6l-3.6,9.6h-1.8l-3.6-9.6v9.6h-1.3v-10.6h2.3l3.5,9.4l3.5-9.4h2.3V258.8z"/>
		<path d="M1153.7,258.8l-1-2.7h-5.3l-1,2.7h-1.3l4-10.6h2l4,10.6H1153.7z M1147.8,255h4.5l-2.2-5.9L1147.8,255z"/>
		<path d="M1157.3,258.8h-1.6l4.3-5.9l0.8,1L1157.3,258.8z M1155.8,248.1h1.6l8,10.6h-1.7L1155.8,248.1z M1163.7,248.1h1.6l-4.2,5.8
			l-0.8-1L1163.7,248.1z"/>
	</g>
</g>
<g>
	<g class="st3">
		<path d="M1143.7,625.7h-1.3v-9.6l-3.6,9.6h-1.8l-3.6-9.6v9.6h-1.3v-10.6h2.3l3.5,9.4l3.5-9.4h2.3V625.7z"/>
		<path d="M1145.6,615.1h5.8v1.1h-5.8V615.1z M1145.6,624.7h5.8v1.1h-5.8V624.7z M1147.9,615.6h1.3v9.6h-1.3V615.6z"/>
		<path d="M1161.2,615.1h1.3v10.6h-2.2l-4.8-8.4c-0.3-0.6-0.5-1-0.7-1.4v9.7h-1.3V615h2.2l4.8,8.4c0.2,0.3,0.4,0.8,0.7,1.4V615.1z"
			/>
	</g>
</g>
<line class="st4" x1="68.9" y1="650.8" x2="68.9" y2="84.7"/>
<line class="st5" x1="1187.3" y1="650.8" x2="1187.3" y2="84.7"/>
<line class="st5" x1="179.4" y1="650.8" x2="179.4" y2="84.7"/>
<line class="st5" x1="105.6" y1="650.8" x2="105.6" y2="644.5"/>
<line class="st5" x1="142.5" y1="650.8" x2="142.5" y2="644.5"/>
<line class="st5" x1="291" y1="650.8" x2="291" y2="84.7"/>
<line class="st5" x1="217.2" y1="650.8" x2="217.2" y2="644.5"/>
<line class="st5" x1="254.1" y1="650.8" x2="254.1" y2="644.5"/>
<line class="st5" x1="364.8" y1="650.8" x2="364.8" y2="644.5"/>
<line class="st5" x1="327.9" y1="650.8" x2="327.9" y2="644.5"/>
<line class="st5" x1="403.8" y1="650.8" x2="403.8" y2="84.7"/>
<line class="st5" x1="440.8" y1="650.8" x2="440.8" y2="644.5"/>
<line class="st5" x1="479.8" y1="650.8" x2="479.8" y2="644.5"/>
<line class="st4" x1="516.7" y1="650.8" x2="516.7" y2="84.7"/>
<line class="st5" x1="555.8" y1="650.8" x2="555.8" y2="644.5"/>
<line class="st5" x1="592.7" y1="650.8" x2="592.7" y2="644.5"/>
<line class="st5" x1="627" y1="650.8" x2="627" y2="84.7"/>
<line class="st5" x1="667.4" y1="650.8" x2="667.4" y2="644.5"/>
<line class="st5" x1="704.3" y1="650.8" x2="704.3" y2="644.5"/>
<line class="st5" x1="738.6" y1="650.8" x2="738.6" y2="84.7"/>
<line class="st5" x1="775.5" y1="650.8" x2="775.5" y2="644.5"/>
<line class="st5" x1="809.9" y1="650.8" x2="809.9" y2="644.5"/>
<line class="st5" x1="851.5" y1="650.8" x2="851.5" y2="84.7"/>
<line class="st5" x1="885.9" y1="650.8" x2="885.9" y2="644.5"/>
<line class="st5" x1="927.4" y1="650.8" x2="927.4" y2="644.5"/>
<line class="st4" x1="964.4" y1="650.8" x2="964.4" y2="84.7"/>
<line class="st5" x1="1005.9" y1="650.8" x2="1005.9" y2="644.5"/>
<line class="st5" x1="1042.9" y1="650.8" x2="1042.9" y2="644.5"/>
<line class="st5" x1="1074.7" y1="650.8" x2="1074.7" y2="84.7"/>
<line class="st5" x1="1111.6" y1="650.8" x2="1111.6" y2="644.5"/>
<line class="st5" x1="1143.4" y1="650.8" x2="1143.4" y2="644.5"/>
<line class="st4" x1="68.9" y1="650.8" x2="62.9" y2="650.8"/>
<line class="st4" x1="68.9" y1="599.2" x2="62.9" y2="599.2"/>
<line class="st4" x1="68.9" y1="547.9" x2="62.9" y2="547.9"/>
<line class="st4" x1="68.9" y1="496.5" x2="62.9" y2="496.5"/>
<line class="st4" x1="68.9" y1="445.1" x2="62.9" y2="445.1"/>
<line class="st4" x1="68.9" y1="393.8" x2="62.9" y2="393.8"/>
<line class="st4" x1="68.9" y1="342.4" x2="62.9" y2="342.4"/>
<line class="st4" x1="68.9" y1="291" x2="62.9" y2="291"/>
<line class="st4" x1="68.9" y1="239.6" x2="62.9" y2="239.6"/>
<line class="st4" x1="68.9" y1="188.3" x2="62.9" y2="188.3"/>
<line class="st4" x1="68.9" y1="136.9" x2="62.9" y2="136.9"/>
<line class="st4" x1="68.9" y1="84.6" x2="62.9" y2="84.6"/>
<line class="st4" x1="68.9" y1="650.8" x2="62.9" y2="650.8"/>
<g>
	<g>
		<g class="st3">
			<path d="M48.2,655.5c-0.7-0.5-1.2-1.1-1.6-2c-0.3-0.8-0.5-1.8-0.5-2.9s0.2-2.1,0.5-2.9c0.3-0.8,0.9-1.5,1.6-2
				c0.7-0.5,1.6-0.7,2.7-0.7c1.1,0,2,0.2,2.7,0.7s1.2,1.1,1.6,2c0.3,0.8,0.5,1.8,0.5,2.9s-0.2,2.1-0.5,2.9c-0.3,0.8-0.9,1.5-1.6,2
				c-0.7,0.5-1.6,0.7-2.7,0.7C49.8,656.2,48.9,656,48.2,655.5z M47.8,653.1c0.2,0.7,0.6,1.2,1.1,1.5s1.1,0.5,1.9,0.5
				c0.8,0,1.4-0.2,1.9-0.5s0.9-0.8,1.1-1.5c0.2-0.7,0.4-1.5,0.4-2.5s-0.1-1.9-0.4-2.5s-0.6-1.2-1.1-1.5s-1.1-0.5-1.9-0.5
				c-0.8,0-1.4,0.2-1.9,0.5s-0.9,0.8-1.1,1.5c-0.2,0.7-0.4,1.5-0.4,2.5C47.5,651.6,47.6,652.5,47.8,653.1z"/>
		</g>
	</g>
</g>
<g>
	<g>
		<g class="st3">
			<path d="M36.4,602.7l5.3-4.4c0.5-0.4,0.9-0.8,1.1-1.2s0.3-0.8,0.3-1.2c0-0.6-0.2-1-0.6-1.4s-0.9-0.5-1.7-0.5
				c-0.7,0-1.3,0.1-1.7,0.4c-0.4,0.3-0.8,0.6-1,1.2c-0.2,0.5-0.3,1.1-0.3,1.9h-1.4c0-0.9,0.2-1.6,0.5-2.3s0.8-1.2,1.4-1.6
				c0.6-0.4,1.5-0.6,2.5-0.6c0.9,0,1.6,0.1,2.1,0.4c0.5,0.3,0.9,0.6,1.2,1.1c0.2,0.4,0.4,1,0.4,1.5c0,0.7-0.2,1.3-0.6,1.9
				s-1,1.2-2,2l-3.6,3h6.4v1.1h-8.3V602.7z"/>
			<path d="M48.4,603.3c-0.7-0.5-1.2-1.1-1.6-2c-0.3-0.8-0.5-1.8-0.5-2.9s0.2-2.1,0.5-2.9c0.3-0.8,0.9-1.5,1.6-2s1.6-0.7,2.7-0.7
				c1.1,0,2,0.2,2.7,0.7s1.2,1.1,1.6,2c0.3,0.8,0.5,1.8,0.5,2.9s-0.2,2.1-0.5,2.9c-0.3,0.8-0.9,1.5-1.6,2c-0.7,0.5-1.6,0.7-2.7,0.7
				C50,604.1,49.1,603.8,48.4,603.3z M48,601c0.2,0.7,0.6,1.2,1.1,1.5s1.1,0.5,1.9,0.5c0.8,0,1.4-0.2,1.9-0.5s0.9-0.8,1.1-1.5
				c0.2-0.7,0.4-1.5,0.4-2.5s-0.1-1.9-0.4-2.5c-0.2-0.7-0.6-1.2-1.1-1.5S51.8,594,51,594c-0.8,0-1.4,0.2-1.9,0.5s-0.9,0.8-1.1,1.5
				s-0.4,1.5-0.4,2.5C47.7,599.5,47.8,600.3,48,601z"/>
		</g>
	</g>
</g>
<g>
	<g class="st3">
		<path d="M42.7,550.1h-5.8V549l5.1-6.9h1.4l-5.1,6.9h4.5v-6.9h1.3v6.9h1.8v1.1h-1.8v2.7h-1.3v-2.7H42.7z"/>
		<path d="M49.1,552.3c-0.7-0.5-1.2-1.1-1.6-2c-0.3-0.8-0.5-1.8-0.5-2.9s0.2-2.1,0.5-2.9c0.3-0.8,0.9-1.5,1.6-2
			c0.7-0.5,1.6-0.7,2.7-0.7c1.1,0,2,0.2,2.7,0.7s1.2,1.1,1.6,2s0.5,1.8,0.5,2.9s-0.2,2.1-0.5,2.9s-0.9,1.5-1.6,2
			c-0.7,0.5-1.6,0.7-2.7,0.7C50.7,553.1,49.8,552.8,49.1,552.3z M48.8,550c0.2,0.7,0.6,1.2,1.1,1.5s1.1,0.5,1.9,0.5
			c0.8,0,1.4-0.2,1.9-0.5s0.9-0.8,1.1-1.5c0.2-0.7,0.4-1.5,0.4-2.5s-0.1-1.9-0.4-2.5c-0.2-0.7-0.6-1.2-1.1-1.5s-1.1-0.5-1.9-0.5
			c-0.8,0-1.4,0.2-1.9,0.5s-0.9,0.8-1.1,1.5c-0.2,0.7-0.4,1.5-0.4,2.5S48.5,549.3,48.8,550z"/>
	</g>
</g>
<g>
	<g class="st3">
		<path d="M39,500.9c-0.6-0.4-1.1-0.9-1.5-1.8c-0.4-0.8-0.5-1.9-0.5-3.1s0.2-2.2,0.5-3.1s0.9-1.5,1.5-2s1.5-0.7,2.5-0.7
			c0.8,0,1.5,0.1,2,0.4c0.5,0.2,0.9,0.6,1.2,1s0.5,1,0.6,1.6H44c-0.1-0.4-0.2-0.7-0.4-1s-0.5-0.5-0.8-0.7s-0.8-0.2-1.3-0.2
			c-1.1,0-1.9,0.4-2.5,1.2c-0.5,0.8-0.8,2-0.8,3.8v1l-0.3-0.2c0.2-0.8,0.6-1.4,1.3-1.9s1.5-0.7,2.4-0.7c0.7,0,1.3,0.1,1.9,0.4
			c0.6,0.3,1,0.6,1.3,1.1s0.5,1.1,0.5,1.8c0,0.7-0.2,1.3-0.5,1.8s-0.8,1-1.4,1.3c-0.6,0.3-1.3,0.5-2.2,0.5
			C40.4,501.5,39.7,501.3,39,500.9z M43.3,499.7c0.4-0.4,0.7-1,0.7-1.8s-0.2-1.4-0.7-1.8c-0.4-0.4-1.1-0.7-1.9-0.7
			c-0.6,0-1,0.1-1.5,0.3c-0.4,0.2-0.8,0.5-1,0.8c-0.2,0.4-0.4,0.8-0.4,1.3c0,0.7,0.2,1.3,0.7,1.8s1.1,0.7,2,0.7
			C42.1,500.4,42.8,500.1,43.3,499.7z"/>
		<path d="M49,500.7c-0.7-0.5-1.2-1.1-1.6-2c-0.3-0.8-0.5-1.8-0.5-2.9s0.2-2.1,0.5-2.9s0.9-1.5,1.6-2c0.7-0.5,1.6-0.7,2.7-0.7
			c1.1,0,2,0.2,2.7,0.7s1.2,1.1,1.6,2c0.3,0.8,0.5,1.8,0.5,2.9s-0.2,2.1-0.5,2.9s-0.9,1.5-1.6,2c-0.7,0.5-1.6,0.7-2.7,0.7
			C50.6,501.5,49.7,501.2,49,500.7z M48.7,498.4c0.2,0.7,0.6,1.2,1.1,1.5s1.1,0.5,1.9,0.5c0.8,0,1.4-0.2,1.9-0.5s0.9-0.8,1.1-1.5
			c0.2-0.7,0.4-1.5,0.4-2.5s-0.1-1.9-0.4-2.5s-0.6-1.2-1.1-1.5s-1.1-0.5-1.9-0.5c-0.8,0-1.4,0.2-1.9,0.5s-0.9,0.8-1.1,1.5
			c-0.2,0.7-0.4,1.5-0.4,2.5C48.3,496.9,48.4,497.7,48.7,498.4z"/>
	</g>
</g>
<g>
	<g class="st3">
		<path d="M38.7,449.4c-0.6-0.3-1.1-0.7-1.4-1.1c-0.3-0.5-0.4-1-0.4-1.5c0-0.7,0.2-1.2,0.6-1.7c0.4-0.5,0.9-0.8,1.6-1
			c-0.6-0.2-1-0.5-1.4-1c-0.3-0.4-0.5-0.9-0.5-1.5c0-0.5,0.1-1,0.4-1.4s0.7-0.8,1.3-1c0.6-0.3,1.3-0.4,2.2-0.4s1.6,0.1,2.2,0.4
			c0.6,0.3,1,0.6,1.3,1s0.4,0.9,0.4,1.4c0,0.6-0.2,1.1-0.5,1.5s-0.8,0.8-1.4,1c0.5,0.1,0.8,0.4,1.2,0.6c0.3,0.3,0.6,0.6,0.7,0.9
			c0.2,0.4,0.2,0.8,0.2,1.2c0,0.6-0.1,1.1-0.4,1.5c-0.3,0.5-0.7,0.8-1.4,1.1s-1.4,0.4-2.4,0.4S39.4,449.7,38.7,449.4z M42.7,448.5
			c0.4-0.2,0.7-0.4,0.9-0.7s0.3-0.7,0.3-1.1c0-0.7-0.2-1.2-0.7-1.6s-1.2-0.6-2.1-0.6c-0.6,0-1.1,0.1-1.6,0.3
			c-0.4,0.2-0.7,0.4-0.9,0.7c-0.2,0.3-0.3,0.7-0.3,1.1c0,0.6,0.2,1.1,0.7,1.5s1.2,0.6,2.1,0.6C41.7,448.8,42.3,448.7,42.7,448.5z
			 M42.6,443.3c0.4-0.2,0.7-0.4,0.8-0.7c0.2-0.3,0.3-0.6,0.3-1c0-0.6-0.2-1-0.6-1.4c-0.4-0.3-1.1-0.5-2-0.5c-0.6,0-1.1,0.1-1.5,0.2
			c-0.4,0.2-0.7,0.4-0.9,0.7c-0.2,0.3-0.3,0.6-0.3,1s0.1,0.7,0.3,1s0.5,0.5,0.8,0.7c0.4,0.2,0.9,0.3,1.5,0.3
			C41.7,443.6,42.2,443.5,42.6,443.3z"/>
		<path d="M48.9,449.1c-0.7-0.5-1.2-1.1-1.6-2c-0.3-0.8-0.5-1.8-0.5-2.9s0.2-2.1,0.5-2.9s0.9-1.5,1.6-2s1.6-0.7,2.7-0.7
			c1.1,0,2,0.2,2.7,0.7s1.2,1.1,1.6,2c0.3,0.8,0.5,1.8,0.5,2.9s-0.2,2.1-0.5,2.9s-0.9,1.5-1.6,2c-0.7,0.5-1.6,0.7-2.7,0.7
			C50.5,449.9,49.6,449.6,48.9,449.1z M48.6,446.8c0.2,0.7,0.6,1.2,1.1,1.5s1.1,0.5,1.9,0.5c0.8,0,1.4-0.2,1.9-0.5s0.9-0.8,1.1-1.5
			c0.2-0.7,0.4-1.5,0.4-2.5s-0.1-1.9-0.4-2.5c-0.2-0.7-0.6-1.2-1.1-1.5s-1.1-0.5-1.9-0.5c-0.8,0-1.4,0.2-1.9,0.5s-0.9,0.8-1.1,1.5
			s-0.4,1.5-0.4,2.5S48.3,446.1,48.6,446.8z"/>
	</g>
</g>
<g>
	<g class="st3">
		<path d="M29,396.9h2.5v-8.5H29v-1.1h2.3c0.5,0,0.9,0.1,1.2,0.3c0.2,0.2,0.3,0.6,0.3,1v8.2h2.3v1.1H29C29,397.9,29,396.9,29,396.9z
			"/>
		<path d="M38.4,397.5c-0.7-0.5-1.2-1.1-1.6-2c-0.3-0.8-0.5-1.8-0.5-2.9s0.2-2.1,0.5-2.9s0.9-1.5,1.6-2s1.6-0.7,2.7-0.7
			c1.1,0,2,0.2,2.7,0.7s1.2,1.1,1.6,2s0.5,1.8,0.5,2.9s-0.2,2.1-0.5,2.9s-0.9,1.5-1.6,2c-0.7,0.5-1.6,0.7-2.7,0.7
			C40,398.3,39.1,398,38.4,397.5z M38.1,395.2c0.2,0.7,0.6,1.2,1.1,1.5s1.1,0.5,1.9,0.5s1.4-0.2,1.9-0.5s0.9-0.8,1.1-1.5
			c0.2-0.7,0.4-1.5,0.4-2.5s-0.1-1.9-0.4-2.5s-0.6-1.2-1.1-1.5s-1.1-0.5-1.9-0.5s-1.4,0.2-1.9,0.5s-0.9,0.8-1.1,1.5
			s-0.4,1.5-0.4,2.5S37.8,394.5,38.1,395.2z"/>
		<path d="M49.5,397.5c-0.7-0.5-1.2-1.1-1.6-2c-0.3-0.8-0.5-1.8-0.5-2.9s0.2-2.1,0.5-2.9s0.9-1.5,1.6-2c0.7-0.5,1.6-0.7,2.7-0.7
			c1.1,0,2,0.2,2.7,0.7s1.2,1.1,1.6,2s0.5,1.8,0.5,2.9s-0.2,2.1-0.5,2.9s-0.9,1.5-1.6,2c-0.7,0.5-1.6,0.7-2.7,0.7
			C51.1,398.3,50.2,398,49.5,397.5z M49.1,395.2c0.2,0.7,0.6,1.2,1.1,1.5s1.1,0.5,1.9,0.5c0.8,0,1.4-0.2,1.9-0.5s0.9-0.8,1.1-1.5
			c0.2-0.7,0.4-1.5,0.4-2.5s-0.1-1.9-0.4-2.5c-0.2-0.7-0.6-1.2-1.1-1.5s-1.1-0.5-1.9-0.5c-0.8,0-1.4,0.2-1.9,0.5s-0.9,0.8-1.1,1.5
			c-0.2,0.7-0.4,1.5-0.4,2.5C48.8,393.7,48.9,394.5,49.1,395.2z"/>
	</g>
</g>
<g>
	<g class="st3">
		<path d="M29.8,346.3h2.5v-8.5h-2.5v-1.1h2.3c0.5,0,0.9,0.1,1.2,0.3c0.2,0.2,0.3,0.6,0.3,1v8.2h2.3v1.1h-6.1
			C29.8,347.3,29.8,346.3,29.8,346.3z"/>
		<path d="M37.4,346.3l5.3-4.4c0.5-0.4,0.9-0.8,1.1-1.2s0.3-0.8,0.3-1.2c0-0.6-0.2-1-0.6-1.4s-0.9-0.5-1.7-0.5
			c-0.7,0-1.3,0.1-1.7,0.4s-0.8,0.6-1,1.2c-0.2,0.5-0.3,1.1-0.3,1.9h-1.4c0-0.9,0.2-1.6,0.5-2.3c0.3-0.7,0.8-1.2,1.4-1.6
			c0.6-0.4,1.5-0.6,2.5-0.6c0.9,0,1.6,0.1,2.1,0.4s0.9,0.6,1.2,1.1c0.2,0.4,0.4,1,0.4,1.5c0,0.7-0.2,1.3-0.6,1.9s-1,1.2-2,2l-3.6,3
			h6.4v1.1h-8.3V346.3z"/>
		<path d="M49.3,346.9c-0.7-0.5-1.2-1.1-1.6-2c-0.3-0.8-0.5-1.8-0.5-2.9s0.2-2.1,0.5-2.9s0.9-1.5,1.6-2s1.6-0.7,2.7-0.7
			c1.1,0,2,0.2,2.7,0.7s1.2,1.1,1.6,2c0.3,0.8,0.5,1.8,0.5,2.9s-0.2,2.1-0.5,2.9s-0.9,1.5-1.6,2c-0.7,0.5-1.6,0.7-2.7,0.7
			C51,347.7,50.1,347.4,49.3,346.9z M49,344.6c0.2,0.7,0.6,1.2,1.1,1.5s1.1,0.5,1.9,0.5c0.8,0,1.4-0.2,1.9-0.5s0.9-0.8,1.1-1.5
			c0.2-0.7,0.4-1.5,0.4-2.5s-0.1-1.9-0.4-2.5c-0.2-0.7-0.6-1.2-1.1-1.5s-1.1-0.5-1.9-0.5c-0.8,0-1.4,0.2-1.9,0.5s-0.9,0.8-1.1,1.5
			s-0.4,1.5-0.4,2.5C48.6,343.1,48.8,343.9,49,344.6z"/>
	</g>
</g>
<g>
	<g class="st3">
		<path d="M30.8,293.7h2.5v-8.5h-2.5v-1.1h2.3c0.5,0,0.9,0.1,1.2,0.3c0.2,0.2,0.3,0.6,0.3,1v8.2h2.3v1.1h-6.1
			C30.8,294.7,30.8,293.7,30.8,293.7z"/>
		<path d="M43.7,292.1h-5.8V291l5.1-6.9h1.4l-5.1,6.9h4.5v-6.9h1.3v6.9h1.8v1.1h-1.8v2.7h-1.3v-2.7H43.7z"/>
		<path d="M50.1,294.4c-0.7-0.5-1.2-1.1-1.6-2c-0.3-0.8-0.5-1.8-0.5-2.9s0.2-2.1,0.5-2.9s0.9-1.5,1.6-2s1.6-0.7,2.7-0.7
			c1.1,0,2,0.2,2.7,0.7s1.2,1.1,1.6,2s0.5,1.8,0.5,2.9s-0.2,2.1-0.5,2.9s-0.9,1.5-1.6,2c-0.7,0.5-1.6,0.7-2.7,0.7
			S50.8,294.8,50.1,294.4z M49.8,292c0.2,0.7,0.6,1.2,1.1,1.5s1.1,0.5,1.9,0.5s1.4-0.2,1.9-0.5s0.9-0.8,1.1-1.5
			c0.2-0.7,0.4-1.5,0.4-2.5s-0.1-1.9-0.4-2.5s-0.6-1.2-1.1-1.5s-1.1-0.5-1.9-0.5s-1.4,0.2-1.9,0.5s-0.9,0.8-1.1,1.5
			s-0.4,1.5-0.4,2.5S49.5,291.3,49.8,292z"/>
	</g>
</g>
<g>
	<g class="st3">
		<path d="M30.2,243.1h2.5v-8.5h-2.5v-1.1h2.3c0.5,0,0.9,0.1,1.2,0.3c0.2,0.2,0.3,0.6,0.3,1v8.2h2.3v1.1h-6.1
			C30.2,244.1,30.2,243.1,30.2,243.1z"/>
		<path d="M39.5,243.9c-0.6-0.4-1.1-0.9-1.5-1.8c-0.4-0.8-0.5-1.9-0.5-3.1c0-1.2,0.2-2.2,0.5-3.1c0.3-0.9,0.9-1.5,1.5-2
			s1.5-0.7,2.5-0.7c0.8,0,1.5,0.1,2,0.4c0.5,0.2,0.9,0.6,1.2,1s0.5,1,0.6,1.6h-1.3c-0.1-0.4-0.2-0.7-0.4-1s-0.5-0.5-0.8-0.7
			s-0.8-0.2-1.3-0.2c-1.1,0-1.9,0.4-2.5,1.2c-0.5,0.8-0.8,2-0.8,3.8v1l-0.3-0.2c0.2-0.8,0.6-1.4,1.3-1.9s1.4-0.7,2.4-0.7
			c0.7,0,1.3,0.1,1.9,0.4s1,0.6,1.3,1.1s0.5,1.1,0.5,1.8s-0.2,1.3-0.5,1.8s-0.8,1-1.4,1.3c-0.6,0.3-1.3,0.5-2.2,0.5
			C40.9,244.5,40.1,244.3,39.5,243.9z M43.8,242.7c0.4-0.4,0.7-1,0.7-1.8s-0.2-1.4-0.7-1.8c-0.4-0.4-1.1-0.7-1.9-0.7
			c-0.6,0-1,0.1-1.5,0.3c-0.4,0.2-0.8,0.5-1,0.8c-0.2,0.4-0.4,0.8-0.4,1.3c0,0.7,0.2,1.3,0.7,1.8s1.1,0.7,2,0.7
			C42.6,243.4,43.3,243.1,43.8,242.7z"/>
		<path d="M49.5,243.8c-0.7-0.5-1.2-1.1-1.6-2c-0.3-0.8-0.5-1.8-0.5-2.9s0.2-2.1,0.5-2.9c0.3-0.8,0.9-1.5,1.6-2s1.6-0.7,2.7-0.7
			c1.1,0,2,0.2,2.7,0.7s1.2,1.1,1.6,2c0.3,0.8,0.5,1.8,0.5,2.9s-0.2,2.1-0.5,2.9c-0.3,0.8-0.9,1.5-1.6,2c-0.7,0.5-1.6,0.7-2.7,0.7
			C51.1,244.5,50.2,244.2,49.5,243.8z M49.2,241.4c0.2,0.7,0.6,1.2,1.1,1.5s1.1,0.5,1.9,0.5c0.8,0,1.4-0.2,1.9-0.5s0.9-0.8,1.1-1.5
			c0.2-0.7,0.4-1.5,0.4-2.5s-0.1-1.9-0.4-2.5c-0.2-0.7-0.6-1.2-1.1-1.5s-1.1-0.5-1.9-0.5c-0.8,0-1.4,0.2-1.9,0.5s-0.9,0.8-1.1,1.5
			s-0.4,1.5-0.4,2.5C48.8,239.9,48.9,240.7,49.2,241.4z"/>
	</g>
</g>
<g>
	<g class="st3">
		<path d="M29.7,190.5h2.5V182h-2.5v-1.1H32c0.5,0,0.9,0.1,1.2,0.3c0.2,0.2,0.3,0.6,0.3,1v8.2h2.3v1.1h-6.1
			C29.7,191.5,29.7,190.5,29.7,190.5z"/>
		<path d="M38.9,191.4c-0.6-0.3-1.1-0.7-1.4-1.1c-0.3-0.5-0.4-1-0.4-1.5c0-0.7,0.2-1.2,0.6-1.7c0.4-0.5,0.9-0.8,1.6-1
			c-0.6-0.2-1-0.5-1.4-1c-0.3-0.4-0.5-0.9-0.5-1.5c0-0.5,0.1-1,0.4-1.4s0.7-0.8,1.3-1c0.6-0.3,1.3-0.4,2.2-0.4s1.6,0.1,2.2,0.4
			c0.6,0.3,1,0.6,1.3,1s0.4,0.9,0.4,1.4c0,0.6-0.2,1.1-0.5,1.5s-0.8,0.8-1.4,1c0.5,0.1,0.8,0.4,1.2,0.6s0.6,0.6,0.7,0.9
			c0.2,0.4,0.2,0.8,0.2,1.2c0,0.6-0.1,1.1-0.4,1.5c-0.3,0.5-0.7,0.8-1.4,1.1s-1.4,0.4-2.4,0.4S39.5,191.7,38.9,191.4z M42.8,190.5
			c0.4-0.2,0.7-0.4,0.9-0.7s0.3-0.7,0.3-1.1c0-0.7-0.2-1.2-0.7-1.6s-1.2-0.6-2.1-0.6c-0.6,0-1.1,0.1-1.6,0.3
			c-0.4,0.2-0.7,0.4-0.9,0.7s-0.3,0.7-0.3,1.1c0,0.6,0.2,1.1,0.7,1.5s1.2,0.6,2.1,0.6C41.9,190.8,42.4,190.7,42.8,190.5z
			 M42.7,185.3c0.4-0.2,0.7-0.4,0.8-0.7c0.2-0.3,0.3-0.6,0.3-1c0-0.6-0.2-1-0.6-1.4s-1.1-0.5-2-0.5c-0.6,0-1.1,0.1-1.5,0.2
			c-0.4,0.2-0.7,0.4-0.9,0.7s-0.3,0.6-0.3,1s0.1,0.7,0.3,1s0.5,0.5,0.8,0.7c0.4,0.2,0.9,0.3,1.5,0.3
			C41.8,185.6,42.3,185.5,42.7,185.3z"/>
		<path d="M49,191.2c-0.7-0.5-1.2-1.1-1.6-2c-0.3-0.8-0.5-1.8-0.5-2.9s0.2-2.1,0.5-2.9c0.3-0.8,0.9-1.5,1.6-2
			c0.7-0.5,1.6-0.7,2.7-0.7c1.1,0,2,0.2,2.7,0.7s1.2,1.1,1.6,2c0.3,0.8,0.5,1.8,0.5,2.9s-0.2,2.1-0.5,2.9c-0.3,0.8-0.9,1.5-1.6,2
			c-0.7,0.5-1.6,0.7-2.7,0.7C50.6,191.9,49.7,191.6,49,191.2z M48.7,188.8c0.2,0.7,0.6,1.2,1.1,1.5s1.1,0.5,1.9,0.5
			c0.8,0,1.4-0.2,1.9-0.5s0.9-0.8,1.1-1.5c0.2-0.7,0.4-1.5,0.4-2.5s-0.1-1.9-0.4-2.5s-0.6-1.2-1.1-1.5s-1.1-0.5-1.9-0.5
			c-0.8,0-1.4,0.2-1.9,0.5s-0.9,0.8-1.1,1.5c-0.2,0.7-0.4,1.5-0.4,2.5C48.3,187.3,48.4,188.1,48.7,188.8z"/>
	</g>
</g>
<g>
	<g class="st3">
		<path d="M26.1,138.9l5.3-4.4c0.5-0.4,0.9-0.8,1.1-1.2c0.2-0.3,0.3-0.8,0.3-1.2c0-0.6-0.2-1-0.6-1.4c-0.4-0.3-0.9-0.5-1.7-0.5
			c-0.7,0-1.3,0.1-1.7,0.4c-0.4,0.3-0.8,0.6-1,1.2c-0.2,0.5-0.3,1.1-0.3,1.9h-1.4c0-0.9,0.2-1.6,0.5-2.3s0.8-1.2,1.4-1.6
			c0.6-0.4,1.5-0.6,2.5-0.6c0.9,0,1.6,0.1,2.1,0.4c0.5,0.3,0.9,0.6,1.2,1.1c0.3,0.4,0.4,1,0.4,1.5c0,0.7-0.2,1.3-0.6,1.9
			c-0.4,0.6-1,1.2-2,2l-3.6,3h6.4v1.1h-8.3V138.9z"/>
		<path d="M38,139.6c-0.7-0.5-1.2-1.1-1.6-2c-0.3-0.8-0.5-1.8-0.5-2.9s0.2-2.1,0.5-2.9c0.3-0.8,0.9-1.5,1.6-2
			c0.7-0.5,1.6-0.7,2.7-0.7s2,0.2,2.7,0.7s1.2,1.1,1.6,2c0.3,0.8,0.5,1.8,0.5,2.9s-0.2,2.1-0.5,2.9c-0.3,0.8-0.9,1.5-1.6,2
			c-0.7,0.5-1.6,0.7-2.7,0.7C39.7,140.3,38.8,140,38,139.6z M37.7,137.2c0.2,0.7,0.6,1.2,1.1,1.5c0.5,0.3,1.1,0.5,1.9,0.5
			c0.8,0,1.4-0.2,1.9-0.5s0.9-0.8,1.1-1.5c0.2-0.7,0.4-1.5,0.4-2.5s-0.1-1.9-0.4-2.5s-0.6-1.2-1.1-1.5s-1.1-0.5-1.9-0.5
			c-0.8,0-1.4,0.2-1.9,0.5s-0.9,0.8-1.1,1.5s-0.4,1.5-0.4,2.5C37.3,135.7,37.5,136.5,37.7,137.2z"/>
		<path d="M49.1,139.6c-0.7-0.5-1.2-1.1-1.6-2c-0.3-0.8-0.5-1.8-0.5-2.9s0.2-2.1,0.5-2.9c0.3-0.8,0.9-1.5,1.6-2s1.6-0.7,2.7-0.7
			c1.1,0,2,0.2,2.7,0.7s1.2,1.1,1.6,2s0.5,1.8,0.5,2.9s-0.2,2.1-0.5,2.9s-0.9,1.5-1.6,2c-0.7,0.5-1.6,0.7-2.7,0.7
			S49.8,140,49.1,139.6z M48.8,137.2c0.2,0.7,0.6,1.2,1.1,1.5s1.1,0.5,1.9,0.5s1.4-0.2,1.9-0.5s0.9-0.8,1.1-1.5
			c0.2-0.7,0.4-1.5,0.4-2.5s-0.1-1.9-0.4-2.5s-0.6-1.2-1.1-1.5s-1.1-0.5-1.9-0.5s-1.4,0.2-1.9,0.5s-0.9,0.8-1.1,1.5
			s-0.4,1.5-0.4,2.5S48.5,136.5,48.8,137.2z"/>
	</g>
</g>
<g>
	<g class="st3">
		<path d="M27.1,88.3l5.3-4.4c0.5-0.4,0.9-0.8,1.1-1.2s0.3-0.8,0.3-1.2c0-0.6-0.2-1-0.6-1.4c-0.4-0.3-0.9-0.5-1.7-0.5
			c-0.7,0-1.3,0.1-1.7,0.4c-0.4,0.3-0.8,0.6-1,1.2c-0.2,0.5-0.3,1.1-0.3,1.9h-1.4c0-0.9,0.2-1.6,0.5-2.3s0.8-1.2,1.4-1.6
			c0.6-0.4,1.5-0.6,2.5-0.6c0.9,0,1.6,0.1,2.1,0.4s0.9,0.6,1.2,1.1c0.2,0.4,0.4,1,0.4,1.5c0,0.7-0.2,1.3-0.6,1.9c-0.4,0.6-1,1.2-2,2
			l-3.6,3h6.4v1.1h-8.3C27.1,89.6,27.1,88.3,27.1,88.3z"/>
		<path d="M37.2,88.3l5.3-4.4c0.5-0.4,0.9-0.8,1.1-1.2c0.2-0.3,0.3-0.8,0.3-1.2c0-0.6-0.2-1-0.6-1.4s-0.9-0.5-1.7-0.5
			c-0.7,0-1.3,0.1-1.7,0.4s-0.8,0.6-1,1.2c-0.2,0.5-0.3,1.1-0.3,1.9h-1.4c0-0.9,0.2-1.6,0.5-2.3c0.3-0.7,0.8-1.2,1.4-1.6
			s1.5-0.6,2.5-0.6c0.9,0,1.6,0.1,2.1,0.4s0.9,0.6,1.2,1.1c0.3,0.4,0.4,1,0.4,1.5c0,0.7-0.2,1.3-0.6,1.9c-0.4,0.6-1,1.2-2,2l-3.6,3
			h6.4v1.1h-8.3C37.2,89.6,37.2,88.3,37.2,88.3z"/>
		<path d="M49.2,89c-0.7-0.5-1.2-1.1-1.6-2c-0.3-0.8-0.5-1.8-0.5-2.9s0.2-2.1,0.5-2.9s0.9-1.5,1.6-2c0.7-0.5,1.6-0.7,2.7-0.7
			c1.1,0,2,0.2,2.7,0.7s1.2,1.1,1.6,2c0.3,0.8,0.5,1.8,0.5,2.9s-0.2,2.1-0.5,2.9s-0.9,1.5-1.6,2c-0.7,0.5-1.6,0.7-2.7,0.7
			C50.8,89.7,49.9,89.4,49.2,89z M48.8,86.6c0.2,0.7,0.6,1.2,1.1,1.5s1.1,0.5,1.9,0.5c0.8,0,1.4-0.2,1.9-0.5s0.9-0.8,1.1-1.5
			c0.2-0.7,0.4-1.5,0.4-2.5s-0.1-1.9-0.4-2.5s-0.6-1.2-1.1-1.5s-1.1-0.5-1.9-0.5c-0.8,0-1.4,0.2-1.9,0.5s-0.9,0.8-1.1,1.5
			c-0.2,0.7-0.4,1.5-0.4,2.5S48.6,85.9,48.8,86.6z"/>
	</g>
</g>
<g transform="translate(-408,-220)">
	<g>
		<g>
			<g class="st3">
				<path d="M442.1,242.1l-1-2.7h-5.3l-1,2.7h-1.4l4-10.6h2l4,10.6H442.1z M436.2,238.4h4.5l-2.2-5.9L436.2,238.4z"/>
				<path d="M444.9,230.9h1.3v11.2h-1.3V230.9z"/>
				<path d="M449.7,241.9c-0.3-0.1-0.5-0.3-0.6-0.6s-0.2-0.6-0.2-1.1v-5.1h-1.5v-0.7l1.6-0.4l0.5-1.7h0.7v1.8h2.6v1h-2.6v6h2.5v1
					h-1.9C450.3,242.1,449.9,242.1,449.7,241.9z"/>
				<path d="M455.6,241.8c-0.6-0.4-1-0.9-1.3-1.5s-0.4-1.4-0.4-2.2s0.1-1.5,0.4-2.2c0.3-0.6,0.7-1.1,1.3-1.5
					c0.6-0.4,1.3-0.6,2.2-0.6c0.8,0,1.5,0.2,2,0.5s1,0.8,1.3,1.4c0.3,0.6,0.4,1.3,0.4,2.1v0.2c0,0.1,0,0.2,0,0.3h-6.7v-1h6l-0.6,0.6
					c0-0.7,0-1.3-0.2-1.8s-0.5-0.8-0.8-1c-0.4-0.2-0.9-0.3-1.4-0.3c-0.6,0-1.1,0.1-1.5,0.3s-0.7,0.6-0.9,1.1
					c-0.2,0.5-0.3,1.1-0.3,1.9s0.1,1.4,0.3,1.9c0.2,0.5,0.5,0.8,0.9,1.1c0.4,0.2,0.9,0.3,1.5,0.3c0.5,0,0.9-0.1,1.3-0.2
					c0.3-0.1,0.6-0.3,0.8-0.6c0.2-0.3,0.3-0.6,0.4-0.9h1.2c-0.1,0.5-0.2,0.9-0.5,1.3c-0.3,0.4-0.7,0.8-1.2,1
					c-0.5,0.3-1.2,0.4-2.1,0.4C456.9,242.4,456.2,242.2,455.6,241.8z"/>
				<path d="M462.8,234.1h7v1h-7V234.1z M462.8,241.2l5.7-6.4l1.2,0.3l-5.9,6.6L462.8,241.2z M462.8,241.2h7v1h-7V241.2z"/>
				<path d="M471.3,234.1h7v1h-7V234.1z M471.3,241.2l5.7-6.4l1.2,0.3l-5.9,6.6L471.3,241.2z M471.3,241.2h7v1h-7V241.2z"/>
				<path d="M480.9,242.1c-0.4-0.2-0.7-0.4-0.9-0.8s-0.3-0.8-0.3-1.3c0-0.4,0.1-0.8,0.2-1.1c0.2-0.3,0.4-0.6,0.8-0.8
					s0.8-0.4,1.4-0.5l2-0.3c0.4-0.1,0.7-0.2,0.9-0.3c0.2-0.1,0.3-0.4,0.3-0.7s-0.1-0.6-0.2-0.8s-0.3-0.4-0.6-0.5
					c-0.3-0.1-0.7-0.2-1.2-0.2c-0.7,0-1.3,0.2-1.6,0.5s-0.5,0.7-0.6,1.3h-1.3c0-0.6,0.2-1.1,0.4-1.5c0.3-0.4,0.7-0.7,1.2-1
					c0.5-0.2,1.1-0.3,1.9-0.3c0.7,0,1.3,0.1,1.8,0.3s0.8,0.5,1.1,0.9c0.2,0.4,0.3,0.8,0.3,1.3v3.8c0,0.3,0,0.6,0,0.9s0,0.7,0.1,1
					h-1.2c0-0.3-0.1-0.7-0.1-1s0-0.6,0-0.9c-0.1,0.4-0.3,0.7-0.5,1s-0.6,0.6-1,0.8s-0.9,0.3-1.5,0.3
					C481.8,242.4,481.3,242.3,480.9,242.1z M484.1,240.9c0.4-0.3,0.7-0.6,0.9-1.1c0.2-0.5,0.3-0.9,0.3-1.5v-0.7
					c-0.2,0.1-0.3,0.2-0.5,0.3s-0.4,0.1-0.7,0.2h-0.2l-1.3,0.3c-0.6,0.1-1,0.3-1.2,0.5c-0.3,0.2-0.4,0.6-0.4,1s0.1,0.8,0.4,1
					s0.7,0.4,1.2,0.4C483.2,241.3,483.7,241.2,484.1,240.9z"/>
				<path d="M491.9,231.5h5.8v1.1h-5.8V231.5z M491.9,241.1h5.8v1.1h-5.8V241.1z M494.1,232h1.3v9.6h-1.3V232z"/>
				<path d="M505.4,235c0.6,0.8,0.9,1.8,0.9,3.1c0,0.9-0.1,1.6-0.4,2.3c-0.3,0.6-0.7,1.1-1.2,1.5c-0.5,0.3-1.2,0.5-1.9,0.5
					c-0.8,0-1.5-0.2-2-0.5c-0.5-0.4-1-0.9-1.2-1.5s-0.4-1.4-0.4-2.2s0.1-1.6,0.4-2.2c0.3-0.6,0.7-1.1,1.2-1.5s1.2-0.5,2-0.5
					C504,233.9,504.8,234.3,505.4,235z M501.6,235.3c-0.4,0.2-0.7,0.6-0.9,1.1c-0.2,0.5-0.3,1.1-0.3,1.8s0.1,1.3,0.3,1.8
					c0.2,0.5,0.5,0.8,0.9,1.1c0.4,0.2,0.9,0.4,1.5,0.4s1.1-0.1,1.5-0.3s0.7-0.6,1-1.1s0.3-1.1,0.3-1.8s-0.1-1.3-0.3-1.8
					c-0.2-0.5-0.5-0.8-1-1.1s-0.9-0.3-1.5-0.3C502.5,234.9,502,235,501.6,235.3z M507.1,242.1h-1.3v-1.9V240v-9.1h1.3V242.1z"/>
				<path d="M509.4,234.1h1.3v2.5v0.3v5.2h-1.3V234.1z M510.6,236.5c0.2-0.8,0.6-1.4,1.1-1.8s1.1-0.7,1.9-0.7h0.3v1.3h-0.4
					c-0.8,0-1.3,0.1-1.8,0.5s-0.7,0.8-0.9,1.3c-0.2,0.6-0.2,1.3-0.2,2.1h-0.4C510.3,238.2,510.4,237.3,510.6,236.5z"/>
				<path d="M516.6,241.8c-0.6-0.4-1.1-0.9-1.4-1.5s-0.5-1.4-0.5-2.2s0.2-1.5,0.5-2.2c0.3-0.6,0.8-1.1,1.4-1.5
					c0.6-0.4,1.3-0.6,2.2-0.6s1.6,0.2,2.2,0.6c0.6,0.4,1.1,0.9,1.4,1.5c0.3,0.6,0.4,1.4,0.4,2.2s-0.1,1.6-0.4,2.2
					c-0.3,0.6-0.8,1.1-1.4,1.5c-0.6,0.4-1.3,0.6-2.2,0.6C518,242.4,517.2,242.2,516.6,241.8z M516.4,240c0.2,0.5,0.5,0.8,0.9,1.1
					c0.4,0.3,0.9,0.3,1.5,0.3c0.6,0,1.1-0.1,1.5-0.3s0.7-0.6,0.9-1.1s0.3-1.1,0.3-1.8s-0.1-1.4-0.3-1.8c-0.2-0.5-0.5-0.8-0.9-1
					s-0.9-0.3-1.5-0.3c-0.6,0-1.1,0.1-1.5,0.3c-0.4,0.2-0.7,0.6-0.9,1c-0.2,0.4-0.3,1.1-0.3,1.8S516.2,239.5,516.4,240z"/>
				<path d="M524.6,234.1h1.3v8h-1.3V234.1z M530,235.9c-0.1-0.3-0.3-0.6-0.6-0.7c-0.3-0.1-0.6-0.2-1-0.2c-0.6,0-1,0.2-1.4,0.5
					s-0.6,0.8-0.8,1.4c-0.2,0.6-0.3,1.4-0.3,2.3h-0.5v-0.3c0-1,0.1-1.9,0.4-2.6c0.2-0.7,0.6-1.3,1.1-1.7s1.1-0.6,1.9-0.6
					c0.6,0,1.1,0.1,1.5,0.4c0.4,0.2,0.7,0.6,0.9,1s0.3,1,0.3,1.7v5.2h-1.3v-5C530.2,236.6,530.1,236.2,530,235.9z M535.6,235.9
					c-0.1-0.3-0.3-0.6-0.6-0.7c-0.3-0.1-0.6-0.2-1-0.2c-0.6,0-1.1,0.2-1.4,0.5c-0.4,0.3-0.6,0.8-0.8,1.4c-0.2,0.6-0.3,1.4-0.3,2.3
					H531c0-1.1,0.1-2,0.3-2.8s0.6-1.4,1.1-1.8s1.2-0.6,2-0.6c0.6,0,1.1,0.1,1.5,0.4c0.4,0.2,0.7,0.6,0.9,1c0.2,0.5,0.3,1,0.3,1.7
					v5.2h-1.3v-5C535.8,236.6,535.7,236.2,535.6,235.9z"/>
				<path d="M540.4,241.8c-0.6-0.4-1-0.9-1.3-1.5s-0.4-1.4-0.4-2.2s0.1-1.5,0.4-2.2c0.3-0.6,0.7-1.1,1.3-1.5s1.3-0.6,2.2-0.6
					c0.8,0,1.5,0.2,2,0.5s1,0.8,1.3,1.4s0.4,1.3,0.4,2.1v0.2c0,0.1,0,0.2,0,0.3h-6.7v-1h6l-0.6,0.6c0-0.7,0-1.3-0.2-1.8
					s-0.5-0.8-0.8-1c-0.4-0.2-0.9-0.3-1.4-0.3c-0.6,0-1.1,0.1-1.5,0.3s-0.7,0.6-0.9,1.1s-0.3,1.1-0.3,1.9s0.1,1.4,0.3,1.9
					s0.5,0.8,0.9,1.1c0.4,0.2,0.9,0.3,1.5,0.3c0.5,0,0.9-0.1,1.3-0.2c0.3-0.1,0.6-0.3,0.8-0.6s0.3-0.6,0.4-0.9h1.2
					c-0.1,0.5-0.2,0.9-0.5,1.3c-0.3,0.4-0.7,0.8-1.2,1c-0.5,0.3-1.2,0.4-2.1,0.4C541.7,242.4,541,242.2,540.4,241.8z"/>
				<path d="M549.2,241.9c-0.3-0.1-0.5-0.3-0.6-0.6s-0.2-0.6-0.2-1.1v-5.1h-1.5v-0.7l1.6-0.4l0.5-1.7h0.7v1.8h2.6v1h-2.6v6h2.5v1
					h-1.9C549.8,242.1,549.4,242.1,549.2,241.9z"/>
				<path d="M554,234.1h1.3v2.5v0.3v5.2H554V234.1z M555.1,236.5c0.2-0.8,0.6-1.4,1.1-1.8s1.1-0.7,1.9-0.7h0.3v1.3H558
					c-0.8,0-1.3,0.1-1.8,0.5s-0.7,0.8-0.9,1.3c-0.2,0.6-0.2,1.3-0.2,2.1h-0.4C554.8,238.2,554.9,237.3,555.1,236.5z"/>
				<path d="M559.6,231.5h1.6v1.3h-1.6V231.5z M559.8,234.1h1.3v8h-1.3V234.1z"/>
				<path d="M563.2,235.9c0.3-0.6,0.8-1.1,1.4-1.5s1.3-0.5,2.2-0.5c0.8,0,1.4,0.1,2,0.4c0.5,0.3,1,0.6,1.2,1.1
					c0.3,0.5,0.5,1,0.5,1.7h-1.2c-0.1-0.4-0.2-0.8-0.4-1.2c-0.2-0.3-0.5-0.6-0.8-0.7s-0.8-0.3-1.3-0.3c-0.6,0-1.1,0.1-1.5,0.3
					s-0.7,0.6-0.9,1s-0.3,1.1-0.3,1.8c0,0.8,0.1,1.4,0.3,1.8c0.2,0.5,0.5,0.8,0.9,1s0.9,0.3,1.5,0.3c0.8,0,1.4-0.2,1.8-0.6
					c0.4-0.4,0.7-1,0.8-1.7h1.2c0,0.6-0.2,1.2-0.5,1.7s-0.7,0.9-1.3,1.2s-1.2,0.4-2,0.4c-0.9,0-1.6-0.2-2.2-0.5
					c-0.6-0.4-1.1-0.9-1.4-1.5c-0.3-0.6-0.5-1.4-0.5-2.2S562.9,236.6,563.2,235.9z"/>
				<path d="M572.9,242.1c-0.4-0.2-0.7-0.4-0.9-0.8s-0.3-0.8-0.3-1.3c0-0.4,0.1-0.8,0.2-1.1c0.2-0.3,0.4-0.6,0.8-0.8
					s0.8-0.4,1.4-0.5l2-0.3c0.4-0.1,0.7-0.2,0.9-0.3s0.3-0.4,0.3-0.7s-0.1-0.6-0.2-0.8c-0.1-0.2-0.3-0.4-0.6-0.5s-0.7-0.2-1.2-0.2
					c-0.7,0-1.3,0.2-1.6,0.5s-0.5,0.7-0.6,1.3h-1.3c0-0.6,0.2-1.1,0.4-1.5c0.3-0.4,0.7-0.7,1.2-1c0.5-0.2,1.1-0.3,1.9-0.3
					c0.7,0,1.3,0.1,1.8,0.3s0.8,0.5,1.1,0.9c0.2,0.4,0.3,0.8,0.3,1.3v3.8c0,0.3,0,0.6,0,0.9s0,0.7,0.1,1h-1.2c0-0.3-0.1-0.7-0.1-1
					s0-0.6,0-0.9c-0.1,0.4-0.3,0.7-0.5,1s-0.6,0.6-1,0.8s-0.9,0.3-1.5,0.3C573.7,242.4,573.3,242.3,572.9,242.1z M576,240.9
					c0.4-0.3,0.7-0.6,0.9-1.1s0.3-0.9,0.3-1.5v-0.7c-0.2,0.1-0.3,0.2-0.5,0.3s-0.4,0.1-0.7,0.2h-0.2l-1.3,0.3
					c-0.6,0.1-1,0.3-1.2,0.5c-0.3,0.2-0.4,0.6-0.4,1s0.1,0.8,0.4,1c0.3,0.2,0.7,0.4,1.2,0.4C575.1,241.3,575.6,241.2,576,240.9z"/>
				<path d="M434.3,255.1c0.3-0.6,0.8-1.1,1.4-1.5s1.3-0.5,2.2-0.5c0.8,0,1.4,0.1,2,0.4c0.5,0.3,1,0.6,1.2,1.1
					c0.3,0.5,0.5,1,0.5,1.7h-1.2c-0.1-0.4-0.2-0.8-0.4-1.2c-0.2-0.3-0.5-0.6-0.8-0.7s-0.8-0.3-1.3-0.3c-0.6,0-1.1,0.1-1.5,0.3
					c-0.4,0.2-0.7,0.6-0.9,1s-0.3,1.1-0.3,1.8c0,0.8,0.1,1.4,0.3,1.8c0.2,0.5,0.5,0.8,0.9,1s0.9,0.3,1.5,0.3c0.8,0,1.4-0.2,1.8-0.6
					s0.7-1,0.8-1.7h1.2c0,0.6-0.2,1.2-0.5,1.7s-0.7,0.9-1.3,1.2c-0.6,0.3-1.2,0.4-2,0.4c-0.9,0-1.6-0.2-2.2-0.5
					c-0.6-0.4-1.1-0.9-1.4-1.5s-0.5-1.4-0.5-2.2S434,255.8,434.3,255.1z"/>
				<path d="M443.2,253.3h1.3v8h-1.3V253.3z M448.6,255.1c-0.1-0.3-0.3-0.6-0.6-0.7c-0.3-0.1-0.6-0.2-1-0.2c-0.6,0-1,0.2-1.4,0.5
					s-0.6,0.8-0.8,1.4c-0.2,0.6-0.3,1.4-0.3,2.3h-0.4v-0.3c0-1,0.1-1.9,0.4-2.6c0.2-0.7,0.6-1.3,1.1-1.7c0.5-0.4,1.1-0.6,1.9-0.6
					c0.6,0,1.1,0.1,1.5,0.4c0.4,0.2,0.7,0.6,0.9,1s0.3,1,0.3,1.7v5.2h-1.3v-5C448.8,255.8,448.8,255.4,448.6,255.1z M454.2,255.1
					c-0.1-0.3-0.3-0.6-0.6-0.7c-0.3-0.1-0.6-0.2-1-0.2c-0.6,0-1.1,0.2-1.4,0.5c-0.4,0.3-0.6,0.8-0.8,1.4c-0.2,0.6-0.3,1.4-0.3,2.3
					h-0.5c0-1.1,0.1-2,0.3-2.8c0.2-0.8,0.6-1.4,1.1-1.8s1.2-0.6,2-0.6c0.6,0,1.1,0.1,1.5,0.4c0.4,0.2,0.7,0.6,0.9,1
					c0.2,0.5,0.3,1,0.3,1.7v5.2h-1.3v-5C454.4,255.8,454.4,255.4,454.2,255.1z"/>
			</g>
		</g>
	</g>
</g>
<g>
	<g>
		<path d="M57.3,677.1c-0.6-0.3-1-0.8-1.3-1.5c-0.3-0.6-0.4-1.4-0.4-2.3c0-1.3,0.3-2.4,1-3.1c0.7-0.8,1.6-1.1,2.9-1.1
			c1.2,0,2.1,0.4,2.8,1.1s0.9,1.8,0.9,3.2c0,1-0.1,1.7-0.4,2.4c-0.3,0.6-0.7,1.1-1.2,1.4c-0.5,0.3-1.2,0.5-2.1,0.5
			C58.6,677.6,57.9,677.5,57.3,677.1z M57.7,681c-0.6-0.2-1-0.6-1.4-1c-0.3-0.5-0.5-1-0.6-1.6H57c0,0.4,0.1,0.7,0.3,1
			s0.5,0.5,0.9,0.7s0.9,0.2,1.5,0.2c0.7,0,1.2-0.1,1.6-0.3c0.4-0.2,0.7-0.4,0.9-0.8c0.2-0.4,0.3-0.9,0.3-1.5v-8.5h1.4v8.5
			c0,0.8-0.1,1.4-0.4,2c-0.3,0.5-0.7,0.9-1.3,1.2s-1.4,0.4-2.4,0.4C58.9,681.4,58.2,681.3,57.7,681z M61.3,676.2
			c0.4-0.2,0.7-0.6,1-1c0.2-0.5,0.3-1.1,0.3-1.8s-0.1-1.4-0.3-1.8c-0.2-0.5-0.5-0.8-1-1c-0.4-0.2-0.9-0.3-1.6-0.3
			c-0.7,0-1.2,0.1-1.6,0.3c-0.4,0.2-0.7,0.6-0.9,1c-0.2,0.5-0.3,1.1-0.3,1.8c0,0.8,0.1,1.4,0.3,1.9s0.5,0.8,0.9,1s0.9,0.3,1.6,0.3
			S60.9,676.5,61.3,676.2z"/>
		<path d="M67.6,677.5c-0.6-0.4-1.1-0.9-1.4-1.6c-0.3-0.7-0.5-1.5-0.5-2.3c0-0.9,0.2-1.6,0.5-2.3c0.3-0.7,0.8-1.2,1.4-1.6
			c0.6-0.4,1.4-0.6,2.3-0.6c0.8,0,1.6,0.2,2.2,0.5c0.6,0.4,1.1,0.9,1.4,1.5s0.5,1.4,0.5,2.2v0.2c0,0.1,0,0.2,0,0.4h-7.1v-1h6.4
			l-0.6,0.6c0-0.8,0-1.4-0.2-1.9s-0.5-0.9-0.9-1.1c-0.4-0.2-0.9-0.3-1.5-0.3s-1.1,0.1-1.6,0.3c-0.4,0.2-0.8,0.6-1,1.1
			c-0.2,0.5-0.3,1.2-0.3,2s0.1,1.5,0.4,2c0.2,0.5,0.6,0.9,1,1.1c0.4,0.2,1,0.3,1.6,0.3c0.5,0,1-0.1,1.4-0.2c0.4-0.2,0.7-0.4,0.9-0.6
			c0.2-0.3,0.4-0.6,0.5-1h1.2c-0.1,0.5-0.2,0.9-0.5,1.4s-0.7,0.8-1.3,1.1c-0.6,0.3-1.3,0.4-2.2,0.4
			C69.1,678.1,68.3,677.9,67.6,677.5z"/>
		<path d="M75.7,669.3h1.4v8.5h-1.4V669.3z M77,671.7c0.3-0.8,0.7-1.5,1.2-1.9c0.5-0.5,1.2-0.7,2.1-0.7c0.7,0,1.3,0.1,1.7,0.4
			c0.4,0.3,0.8,0.6,1,1.1s0.3,1.1,0.3,1.8v5.4h-1.4v-5.3c0-0.6-0.1-1.1-0.2-1.4s-0.4-0.6-0.7-0.7c-0.3-0.1-0.7-0.2-1.1-0.2
			c-0.6,0-1.2,0.2-1.6,0.5s-0.8,0.8-1,1.5s-0.3,1.5-0.3,2.4h-0.4C76.6,673.5,76.8,672.5,77,671.7z"/>
	</g>
</g>
<g>
	<g>
		<path d="M169.5,677.8c-0.4-0.2-0.7-0.5-1-0.8c-0.2-0.4-0.4-0.8-0.4-1.4c0-0.5,0.1-0.9,0.3-1.2s0.5-0.6,0.8-0.8s0.9-0.4,1.5-0.5
			l2.2-0.4c0.5-0.1,0.8-0.2,1-0.3s0.3-0.4,0.3-0.7s-0.1-0.6-0.2-0.8c-0.1-0.2-0.3-0.4-0.6-0.5s-0.7-0.2-1.3-0.2
			c-0.8,0-1.4,0.2-1.7,0.5c-0.4,0.3-0.6,0.8-0.6,1.4h-1.4c0-0.6,0.2-1.1,0.5-1.6c0.3-0.4,0.7-0.8,1.2-1s1.2-0.4,2-0.4
			c0.7,0,1.4,0.1,1.9,0.3s0.9,0.5,1.1,0.9c0.2,0.4,0.4,0.8,0.4,1.4v4.1c0,0.3,0,0.6,0,1c0,0.3,0,0.7,0.1,1.1h-1.2
			c0-0.4-0.1-0.7-0.1-1s0-0.7,0-1c-0.1,0.4-0.3,0.7-0.6,1.1c-0.3,0.3-0.6,0.6-1,0.8s-1,0.3-1.6,0.3
			C170.4,678,169.9,677.9,169.5,677.8z M172.9,676.5c0.4-0.3,0.8-0.7,1-1.2s0.3-1,0.3-1.6V673c-0.2,0.1-0.4,0.2-0.6,0.3
			s-0.4,0.2-0.7,0.2l-0.2,0.1l-1.4,0.3c-0.6,0.1-1,0.3-1.3,0.6c-0.3,0.2-0.4,0.6-0.4,1c0,0.5,0.2,0.8,0.5,1.1
			c0.3,0.2,0.7,0.4,1.2,0.4C171.9,677,172.4,676.8,172.9,676.5z"/>
		<path d="M177.6,669.3h1.4v1.9v0.3v9.7h-1.4V669.3z M179.4,676.9c-0.6-0.8-0.9-1.9-0.9-3.3s0.3-2.5,0.9-3.3s1.6-1.2,2.8-1.2
			c0.9,0,1.6,0.2,2.2,0.6c0.6,0.4,1,0.9,1.3,1.6c0.3,0.7,0.4,1.5,0.4,2.3c0,0.9-0.1,1.7-0.4,2.4c-0.3,0.7-0.7,1.2-1.3,1.6
			c-0.6,0.4-1.3,0.6-2.2,0.6C180.9,678.1,180,677.7,179.4,676.9z M183.5,676.6c0.4-0.2,0.7-0.6,0.9-1.1s0.3-1.1,0.3-1.9
			c0-0.8-0.1-1.4-0.3-1.9s-0.5-0.9-0.9-1.1c-0.4-0.3-0.9-0.4-1.6-0.4c-0.6,0-1.1,0.1-1.6,0.4c-0.4,0.2-0.8,0.6-1,1.1
			s-0.3,1.1-0.3,1.9s0.1,1.4,0.3,1.9s0.6,0.9,1,1.1c0.4,0.2,1,0.4,1.6,0.4C182.5,677,183.1,676.9,183.5,676.6z"/>
		<path d="M187.9,669.3h1.3v2.7v0.3v5.6h-1.4L187.9,669.3L187.9,669.3z M189.2,671.9c0.2-0.8,0.6-1.5,1.2-1.9
			c0.5-0.5,1.2-0.7,2.1-0.7h0.3v1.3h-0.4c-0.8,0-1.4,0.1-1.9,0.5s-0.8,0.8-0.9,1.4c-0.2,0.6-0.2,1.4-0.2,2.2h-0.5
			C188.8,673.6,188.9,672.7,189.2,671.9z"/>
	</g>
</g>
<g>
	<g>
		<path d="M281.1,665.9h1.4v11.9h-1.4V665.9z"/>
		<path d="M286.1,677.7c-0.5-0.2-0.8-0.6-1-1.1s-0.3-1.1-0.3-1.9v-5.4h1.4v5.3c0,0.6,0.1,1.1,0.2,1.4c0.2,0.3,0.4,0.6,0.7,0.7
			c0.3,0.1,0.7,0.2,1.2,0.2c0.6,0,1.1-0.2,1.5-0.5s0.7-0.8,0.9-1.5s0.3-1.5,0.3-2.4h0.4c0,1.1-0.1,2.1-0.4,2.9
			c-0.2,0.8-0.6,1.5-1.2,1.9c-0.5,0.5-1.2,0.7-2.1,0.7C287.1,678.1,286.5,678,286.1,677.7z M291,675.2V675v-5.7h1.4v8.5H291V675.2z"
			/>
		<path d="M295.9,677.1c-0.6-0.3-1-0.8-1.3-1.5c-0.3-0.6-0.4-1.4-0.4-2.3c0-1.3,0.3-2.4,1-3.1c0.7-0.8,1.6-1.1,2.9-1.1
			c1.2,0,2.1,0.4,2.8,1.1s0.9,1.8,0.9,3.2c0,1-0.1,1.7-0.4,2.4c-0.3,0.6-0.7,1.1-1.2,1.4c-0.5,0.3-1.2,0.5-2.1,0.5
			C297.2,677.6,296.5,677.5,295.9,677.1z M296.3,681c-0.6-0.2-1-0.6-1.4-1c-0.3-0.5-0.5-1-0.6-1.6h1.3c0,0.4,0.1,0.7,0.3,1
			c0.2,0.3,0.5,0.5,0.9,0.7s0.9,0.2,1.5,0.2c0.7,0,1.2-0.1,1.6-0.3s0.7-0.4,0.9-0.8c0.2-0.4,0.3-0.9,0.3-1.5v-8.5h1.4v8.5
			c0,0.8-0.1,1.4-0.4,2c-0.3,0.5-0.7,0.9-1.3,1.2c-0.6,0.3-1.4,0.4-2.4,0.4C297.6,681.4,296.9,681.3,296.3,681z M300,676.2
			c0.4-0.2,0.7-0.6,1-1c0.2-0.5,0.3-1.1,0.3-1.8s-0.1-1.4-0.3-1.8c-0.2-0.5-0.5-0.8-1-1c-0.4-0.2-0.9-0.3-1.6-0.3s-1.2,0.1-1.6,0.3
			s-0.7,0.6-0.9,1c-0.2,0.5-0.3,1.1-0.3,1.8c0,0.8,0.1,1.4,0.3,1.9c0.2,0.5,0.5,0.8,0.9,1s0.9,0.3,1.6,0.3
			C299,676.6,299.6,676.5,300,676.2z"/>
	</g>
</g>
<g>
	<g>
		<path d="M396.3,677.5c-0.6-0.4-1.1-0.9-1.4-1.6c-0.3-0.7-0.5-1.5-0.5-2.3c0-0.9,0.2-1.6,0.5-2.3s0.8-1.2,1.4-1.6s1.4-0.6,2.4-0.6
			c0.9,0,1.7,0.2,2.3,0.6s1.1,0.9,1.4,1.6s0.5,1.5,0.5,2.3c0,0.9-0.2,1.6-0.5,2.3s-0.8,1.2-1.4,1.6s-1.4,0.6-2.3,0.6
			C397.8,678.1,397,677.9,396.3,677.5z M396.1,675.5c0.2,0.5,0.5,0.9,1,1.1c0.4,0.2,1,0.4,1.6,0.4s1.2-0.1,1.6-0.4
			c0.4-0.2,0.7-0.6,1-1.1c0.2-0.5,0.3-1.2,0.3-1.9c0-0.8-0.1-1.4-0.3-1.9s-0.5-0.9-1-1.1c-0.4-0.2-1-0.4-1.6-0.4
			c-0.7,0-1.2,0.1-1.6,0.4c-0.4,0.2-0.7,0.6-1,1.1s-0.3,1.2-0.3,1.9C395.8,674.4,395.9,675,396.1,675.5z"/>
		<path d="M406.1,677.6c-0.3-0.1-0.5-0.4-0.6-0.6s-0.2-0.7-0.2-1.1v-5.4h-1.6v-0.8l1.8-0.4l0.5-1.8h0.7v1.9h4.7v1.1h-4.7v6.3h2.7
			v1.1h-2C406.8,677.8,406.4,677.7,406.1,677.6z M411.6,677.6c-0.3-0.1-0.5-0.4-0.6-0.6s-0.2-0.7-0.2-1.1v-5.4h-1.6v-0.8l1.6-0.2
			l0.6-2h0.7v1.9h2.8v1.1h-2.8v6.3h2.7v1.1h-2C412.3,677.8,411.9,677.7,411.6,677.6z"/>
	</g>
</g>
<g>
	<g>
		<path d="M505.2,677.1c-0.6-0.3-1-0.8-1.3-1.5c-0.3-0.6-0.4-1.4-0.4-2.3c0-1.3,0.3-2.4,1-3.1c0.7-0.8,1.6-1.1,2.9-1.1
			c1.2,0,2.1,0.4,2.8,1.1s0.9,1.8,0.9,3.2c0,1-0.1,1.7-0.4,2.4c-0.3,0.6-0.7,1.1-1.2,1.4c-0.5,0.3-1.2,0.5-2.1,0.5
			C506.5,677.6,505.8,677.5,505.2,677.1z M505.6,681c-0.6-0.2-1-0.6-1.4-1c-0.3-0.5-0.5-1-0.6-1.6h1.3c0,0.4,0.1,0.7,0.3,1
			c0.2,0.3,0.5,0.5,0.9,0.7s0.9,0.2,1.5,0.2c0.7,0,1.2-0.1,1.6-0.3s0.7-0.4,0.9-0.8c0.2-0.4,0.3-0.9,0.3-1.5v-8.5h1.4v8.5
			c0,0.8-0.1,1.4-0.4,2c-0.3,0.5-0.7,0.9-1.3,1.2c-0.6,0.3-1.4,0.4-2.4,0.4C506.8,681.4,506.1,681.3,505.6,681z M509.2,676.2
			c0.4-0.2,0.7-0.6,1-1c0.2-0.5,0.3-1.1,0.3-1.8s-0.1-1.4-0.3-1.8c-0.2-0.5-0.5-0.8-1-1c-0.4-0.2-0.9-0.3-1.6-0.3s-1.2,0.1-1.6,0.3
			s-0.7,0.6-0.9,1c-0.2,0.5-0.3,1.1-0.3,1.8c0,0.8,0.1,1.4,0.3,1.9c0.2,0.5,0.5,0.8,0.9,1s0.9,0.3,1.6,0.3S508.8,676.5,509.2,676.2z
			"/>
		<path d="M515.5,677.5c-0.6-0.4-1.1-0.9-1.4-1.6c-0.3-0.7-0.5-1.5-0.5-2.3c0-0.9,0.2-1.6,0.5-2.3s0.8-1.2,1.4-1.6
			c0.6-0.4,1.4-0.6,2.3-0.6c0.8,0,1.6,0.2,2.2,0.5c0.6,0.4,1.1,0.9,1.4,1.5s0.5,1.4,0.5,2.2v0.2c0,0.1,0,0.2,0,0.4h-7.1v-1h6.4
			l-0.6,0.6c0-0.8,0-1.4-0.2-1.9s-0.5-0.9-0.9-1.1c-0.4-0.2-0.9-0.3-1.5-0.3c-0.6,0-1.1,0.1-1.6,0.3c-0.4,0.2-0.8,0.6-1,1.1
			s-0.3,1.2-0.3,2s0.1,1.5,0.4,2c0.2,0.5,0.6,0.9,1,1.1c0.4,0.2,1,0.3,1.6,0.3c0.5,0,1-0.1,1.4-0.2c0.4-0.2,0.7-0.4,0.9-0.6
			c0.2-0.3,0.4-0.6,0.5-1h1.2c-0.1,0.5-0.2,0.9-0.5,1.4s-0.7,0.8-1.3,1.1s-1.3,0.4-2.2,0.4C517,678.1,516.2,677.9,515.5,677.5z"/>
		<path d="M523.6,669.3h1.4v8.5h-1.4V669.3z M524.9,671.7c0.3-0.8,0.7-1.5,1.2-1.9c0.5-0.5,1.2-0.7,2.1-0.7c0.7,0,1.3,0.1,1.7,0.4
			c0.4,0.3,0.8,0.6,1,1.1s0.3,1.1,0.3,1.8v5.4h-1.4v-5.3c0-0.6-0.1-1.1-0.2-1.4s-0.4-0.6-0.7-0.7c-0.3-0.1-0.7-0.2-1.1-0.2
			c-0.6,0-1.2,0.2-1.6,0.5s-0.8,0.8-1,1.5s-0.3,1.5-0.3,2.4h-0.4C524.5,673.5,524.7,672.5,524.9,671.7z"/>
	</g>
</g>
<g>
	<g>
		<path d="M617.2,677.8c-0.4-0.2-0.7-0.5-1-0.8s-0.4-0.8-0.4-1.4c0-0.5,0.1-0.9,0.3-1.2s0.5-0.6,0.8-0.8s0.9-0.4,1.5-0.5l2.2-0.4
			c0.5-0.1,0.8-0.2,1-0.3s0.3-0.4,0.3-0.7s-0.1-0.6-0.2-0.8c-0.1-0.2-0.3-0.4-0.6-0.5s-0.7-0.2-1.3-0.2c-0.8,0-1.4,0.2-1.7,0.5
			c-0.4,0.3-0.6,0.8-0.6,1.4h-1.4c0-0.6,0.2-1.1,0.5-1.6c0.3-0.4,0.7-0.8,1.2-1s1.2-0.4,2-0.4c0.7,0,1.4,0.1,1.9,0.3
			s0.9,0.5,1.1,0.9s0.4,0.8,0.4,1.4v4.1c0,0.3,0,0.6,0,1c0,0.3,0,0.7,0.1,1.1h-1.2c0-0.4-0.1-0.7-0.1-1s0-0.7,0-1
			c-0.1,0.4-0.3,0.7-0.6,1.1c-0.3,0.3-0.6,0.6-1,0.8s-1,0.3-1.6,0.3C618.1,678,617.6,677.9,617.2,677.8z M620.6,676.5
			c0.4-0.3,0.8-0.7,1-1.2s0.3-1,0.3-1.6V673c-0.2,0.1-0.4,0.2-0.6,0.3s-0.4,0.2-0.7,0.2l-0.2,0.1l-1.4,0.3c-0.6,0.1-1,0.3-1.3,0.6
			c-0.3,0.2-0.4,0.6-0.4,1c0,0.5,0.2,0.8,0.5,1.1c0.3,0.2,0.7,0.4,1.2,0.4C619.6,677,620.1,676.8,620.6,676.5z"/>
		<path d="M625.3,669.3h1.4v1.9v0.3v9.7h-1.4V669.3z M627.1,676.9c-0.6-0.8-0.9-1.9-0.9-3.3s0.3-2.5,0.9-3.3s1.6-1.2,2.8-1.2
			c0.9,0,1.6,0.2,2.2,0.6c0.6,0.4,1,0.9,1.3,1.6c0.3,0.7,0.4,1.5,0.4,2.3c0,0.9-0.1,1.7-0.4,2.4c-0.3,0.7-0.7,1.2-1.3,1.6
			c-0.6,0.4-1.3,0.6-2.2,0.6C628.6,678.1,627.7,677.7,627.1,676.9z M631.2,676.6c0.4-0.2,0.7-0.6,0.9-1.1s0.3-1.1,0.3-1.9
			c0-0.8-0.1-1.4-0.3-1.9s-0.5-0.9-0.9-1.1s-0.9-0.4-1.6-0.4c-0.6,0-1.1,0.1-1.6,0.4c-0.4,0.2-0.8,0.6-1,1.1s-0.3,1.1-0.3,1.9
			s0.1,1.4,0.3,1.9s0.6,0.9,1,1.1c0.4,0.2,1,0.4,1.6,0.4C630.2,677,630.8,676.9,631.2,676.6z"/>
		<path d="M635.6,669.3h1.3v2.7v0.3v5.6h-1.4v-8.6H635.6z M636.9,671.9c0.2-0.8,0.6-1.5,1.2-1.9c0.5-0.5,1.2-0.7,2.1-0.7h0.3v1.3
			h-0.4c-0.8,0-1.4,0.1-1.9,0.5c-0.4,0.3-0.8,0.8-0.9,1.4s-0.2,1.4-0.2,2.2h-0.5C636.5,673.6,636.6,672.7,636.9,671.9z"/>
	</g>
</g>
<g>
	<g>
		<path d="M728.8,665.9h1.4v11.9h-1.4V665.9z"/>
		<path d="M733.8,677.7c-0.5-0.2-0.8-0.6-1-1.1s-0.3-1.1-0.3-1.9v-5.4h1.4v5.3c0,0.6,0.1,1.1,0.2,1.4c0.2,0.3,0.4,0.6,0.7,0.7
			c0.3,0.1,0.7,0.2,1.2,0.2c0.6,0,1.1-0.2,1.5-0.5s0.7-0.8,0.9-1.5s0.3-1.5,0.3-2.4h0.4c0,1.1-0.1,2.1-0.4,2.9
			c-0.2,0.8-0.6,1.5-1.2,1.9s-1.2,0.7-2.1,0.7C734.8,678.1,734.2,678,733.8,677.7z M738.7,675.2V675v-5.7h1.4v8.5h-1.4V675.2z"/>
		<path d="M743.6,677.1c-0.6-0.3-1-0.8-1.3-1.5c-0.3-0.6-0.4-1.4-0.4-2.3c0-1.3,0.3-2.4,1-3.1s1.6-1.1,2.9-1.1
			c1.2,0,2.1,0.4,2.8,1.1c0.6,0.7,0.9,1.8,0.9,3.2c0,1-0.1,1.7-0.4,2.4c-0.3,0.6-0.7,1.1-1.2,1.4s-1.2,0.5-2.1,0.5
			C744.9,677.6,744.2,677.5,743.6,677.1z M744,681c-0.6-0.2-1-0.6-1.4-1c-0.3-0.5-0.5-1-0.6-1.6h1.3c0,0.4,0.1,0.7,0.3,1
			s0.5,0.5,0.9,0.7s0.9,0.2,1.5,0.2c0.7,0,1.2-0.1,1.6-0.3s0.7-0.4,0.9-0.8c0.2-0.4,0.3-0.9,0.3-1.5v-8.5h1.4v8.5
			c0,0.8-0.1,1.4-0.4,2c-0.3,0.5-0.7,0.9-1.3,1.2s-1.4,0.4-2.4,0.4C745.3,681.4,744.6,681.3,744,681z M747.7,676.2
			c0.4-0.2,0.7-0.6,1-1c0.2-0.5,0.3-1.1,0.3-1.8s-0.1-1.4-0.3-1.8c-0.2-0.5-0.5-0.8-1-1c-0.4-0.2-0.9-0.3-1.6-0.3
			c-0.7,0-1.2,0.1-1.6,0.3c-0.4,0.2-0.7,0.6-0.9,1c-0.2,0.5-0.3,1.1-0.3,1.8c0,0.8,0.1,1.4,0.3,1.9s0.5,0.8,0.9,1s0.9,0.3,1.6,0.3
			C746.7,676.6,747.3,676.5,747.7,676.2z"/>
	</g>
</g>
<g>
	<g>
		<path d="M952.9,677.1c-0.6-0.3-1-0.8-1.3-1.5c-0.3-0.6-0.4-1.4-0.4-2.3c0-1.3,0.3-2.4,1-3.1c0.7-0.8,1.6-1.1,2.9-1.1
			c1.2,0,2.1,0.4,2.8,1.1c0.6,0.7,0.9,1.8,0.9,3.2c0,1-0.1,1.7-0.4,2.4s-0.7,1.1-1.2,1.4c-0.5,0.3-1.2,0.5-2.1,0.5
			C954.2,677.6,953.5,677.5,952.9,677.1z M953.3,681c-0.6-0.2-1-0.6-1.4-1c-0.3-0.5-0.5-1-0.6-1.6h1.3c0,0.4,0.1,0.7,0.3,1
			s0.5,0.5,0.9,0.7s0.9,0.2,1.5,0.2c0.7,0,1.2-0.1,1.6-0.3c0.4-0.2,0.7-0.4,0.9-0.8s0.3-0.9,0.3-1.5v-8.5h1.4v8.5
			c0,0.8-0.1,1.4-0.4,2s-0.7,0.9-1.3,1.2s-1.4,0.4-2.4,0.4C954.5,681.4,953.8,681.3,953.3,681z M956.9,676.2c0.4-0.2,0.7-0.6,1-1
			c0.2-0.5,0.3-1.1,0.3-1.8s-0.1-1.4-0.3-1.8c-0.2-0.5-0.5-0.8-1-1c-0.4-0.2-0.9-0.3-1.6-0.3c-0.7,0-1.2,0.1-1.6,0.3
			c-0.4,0.2-0.7,0.6-0.9,1s-0.3,1.1-0.3,1.8c0,0.8,0.1,1.4,0.3,1.9s0.5,0.8,0.9,1s0.9,0.3,1.6,0.3S956.5,676.5,956.9,676.2z"/>
		<path d="M963.2,677.5c-0.6-0.4-1.1-0.9-1.4-1.6s-0.5-1.5-0.5-2.3c0-0.9,0.2-1.6,0.5-2.3s0.8-1.2,1.4-1.6s1.4-0.6,2.3-0.6
			c0.8,0,1.6,0.2,2.2,0.5c0.6,0.4,1.1,0.9,1.4,1.5s0.5,1.4,0.5,2.2v0.2c0,0.1,0,0.2,0,0.4h-7.2v-1h6.4l-0.6,0.6c0-0.8,0-1.4-0.2-1.9
			s-0.5-0.9-0.9-1.1c-0.4-0.2-0.9-0.3-1.5-0.3s-1.1,0.1-1.6,0.3c-0.4,0.2-0.8,0.6-1,1.1s-0.3,1.2-0.3,2s0.1,1.5,0.4,2
			c0.2,0.5,0.6,0.9,1,1.1c0.4,0.2,1,0.3,1.6,0.3c0.5,0,1-0.1,1.4-0.2c0.4-0.2,0.7-0.4,0.9-0.6c0.2-0.3,0.4-0.6,0.5-1h1.2
			c-0.1,0.5-0.2,0.9-0.5,1.4s-0.7,0.8-1.3,1.1s-1.3,0.4-2.2,0.4C964.7,678.1,963.9,677.9,963.2,677.5z"/>
		<path d="M971.3,669.3h1.4v8.5h-1.4V669.3z M972.6,671.7c0.3-0.8,0.7-1.5,1.2-1.9c0.5-0.5,1.2-0.7,2.1-0.7c0.7,0,1.3,0.1,1.7,0.4
			c0.4,0.3,0.8,0.6,1,1.1s0.3,1.1,0.3,1.8v5.4h-1.4v-5.3c0-0.6-0.1-1.1-0.2-1.4c-0.2-0.4-0.4-0.6-0.7-0.7c-0.3-0.1-0.7-0.2-1.1-0.2
			c-0.6,0-1.2,0.2-1.6,0.5s-0.8,0.8-1,1.5s-0.3,1.5-0.3,2.4h-0.4C972.2,673.5,972.4,672.5,972.6,671.7z"/>
	</g>
</g>
<g>
	<g>
		<path d="M1064.9,677.8c-0.4-0.2-0.7-0.5-1-0.8s-0.4-0.8-0.4-1.4c0-0.5,0.1-0.9,0.3-1.2c0.2-0.3,0.5-0.6,0.8-0.8s0.9-0.4,1.5-0.5
			l2.2-0.4c0.5-0.1,0.8-0.2,1-0.3s0.3-0.4,0.3-0.7s-0.1-0.6-0.2-0.8s-0.3-0.4-0.6-0.5c-0.3-0.1-0.7-0.2-1.3-0.2
			c-0.8,0-1.4,0.2-1.7,0.5c-0.4,0.3-0.6,0.8-0.6,1.4h-1.4c0-0.6,0.2-1.1,0.5-1.6c0.3-0.4,0.7-0.8,1.2-1s1.2-0.4,2-0.4
			c0.7,0,1.4,0.1,1.9,0.3s0.9,0.5,1.1,0.9s0.4,0.8,0.4,1.4v4.1c0,0.3,0,0.6,0,1c0,0.3,0,0.7,0.1,1.1h-1.2c0-0.4-0.1-0.7-0.1-1
			s0-0.7,0-1c-0.1,0.4-0.3,0.7-0.6,1.1c-0.3,0.3-0.6,0.6-1,0.8s-1,0.3-1.6,0.3C1065.8,678,1065.3,677.9,1064.9,677.8z M1068.3,676.5
			c0.4-0.3,0.8-0.7,1-1.2s0.3-1,0.3-1.6V673c-0.2,0.1-0.4,0.2-0.6,0.3s-0.4,0.2-0.7,0.2l-0.2,0.1l-1.4,0.3c-0.6,0.1-1,0.3-1.3,0.6
			c-0.3,0.2-0.4,0.6-0.4,1c0,0.5,0.2,0.8,0.5,1.1c0.3,0.2,0.7,0.4,1.2,0.4C1067.3,677,1067.8,676.8,1068.3,676.5z"/>
		<path d="M1073,669.3h1.4v1.9v0.3v9.7h-1.4V669.3z M1074.8,676.9c-0.6-0.8-0.9-1.9-0.9-3.3s0.3-2.5,0.9-3.3s1.6-1.2,2.8-1.2
			c0.9,0,1.6,0.2,2.2,0.6c0.6,0.4,1,0.9,1.3,1.6c0.3,0.7,0.4,1.5,0.4,2.3c0,0.9-0.1,1.7-0.4,2.4s-0.7,1.2-1.3,1.6
			c-0.6,0.4-1.3,0.6-2.2,0.6C1076.3,678.1,1075.4,677.7,1074.8,676.9z M1078.9,676.6c0.4-0.2,0.7-0.6,0.9-1.1
			c0.2-0.5,0.3-1.1,0.3-1.9c0-0.8-0.1-1.4-0.3-1.9c-0.2-0.5-0.5-0.9-0.9-1.1c-0.4-0.3-0.9-0.4-1.6-0.4c-0.6,0-1.1,0.1-1.6,0.4
			c-0.4,0.2-0.8,0.6-1,1.1s-0.3,1.1-0.3,1.9s0.1,1.4,0.3,1.9c0.2,0.5,0.6,0.9,1,1.1c0.4,0.2,1,0.4,1.6,0.4
			C1077.9,677,1078.5,676.9,1078.9,676.6z"/>
		<path d="M1083.3,669.3h1.3v2.7v0.3v5.6h-1.4L1083.3,669.3L1083.3,669.3z M1084.6,671.9c0.2-0.8,0.6-1.5,1.2-1.9
			c0.5-0.5,1.2-0.7,2.1-0.7h0.3v1.3h-0.4c-0.8,0-1.4,0.1-1.9,0.5s-0.8,0.8-0.9,1.4c-0.2,0.6-0.2,1.4-0.2,2.2h-0.5
			C1084.2,673.6,1084.3,672.7,1084.6,671.9z"/>
	</g>
</g>
<g>
	<g>
		<path d="M1177.5,665.9h1.4v11.9h-1.4V665.9z"/>
		<path d="M1182.5,677.7c-0.5-0.2-0.8-0.6-1-1.1s-0.3-1.1-0.3-1.9v-5.4h1.4v5.3c0,0.6,0.1,1.1,0.2,1.4c0.2,0.3,0.4,0.6,0.7,0.7
			s0.7,0.2,1.2,0.2c0.6,0,1.1-0.2,1.5-0.5s0.7-0.8,0.9-1.5c0.2-0.7,0.3-1.5,0.3-2.4h0.4c0,1.1-0.1,2.1-0.4,2.9s-0.6,1.5-1.2,1.9
			c-0.5,0.5-1.2,0.7-2.1,0.7C1183.5,678.1,1182.9,678,1182.5,677.7z M1187.4,675.2V675v-5.7h1.4v8.5h-1.4V675.2z"/>
		<path d="M1192.3,677.1c-0.6-0.3-1-0.8-1.3-1.5c-0.3-0.6-0.4-1.4-0.4-2.3c0-1.3,0.3-2.4,1-3.1c0.7-0.8,1.6-1.1,2.9-1.1
			c1.2,0,2.1,0.4,2.8,1.1c0.6,0.7,0.9,1.8,0.9,3.2c0,1-0.1,1.7-0.4,2.4s-0.7,1.1-1.2,1.4c-0.5,0.3-1.2,0.5-2.1,0.5
			C1193.6,677.6,1192.9,677.5,1192.3,677.1z M1192.7,681c-0.6-0.2-1-0.6-1.4-1c-0.3-0.5-0.5-1-0.6-1.6h1.3c0,0.4,0.1,0.7,0.3,1
			c0.2,0.3,0.5,0.5,0.9,0.7s0.9,0.2,1.5,0.2c0.7,0,1.2-0.1,1.6-0.3s0.7-0.4,0.9-0.8s0.3-0.9,0.3-1.5v-8.5h1.4v8.5
			c0,0.8-0.1,1.4-0.4,2s-0.7,0.9-1.3,1.2c-0.6,0.3-1.4,0.4-2.4,0.4C1194,681.4,1193.3,681.3,1192.7,681z M1196.4,676.2
			c0.4-0.2,0.7-0.6,1-1c0.2-0.5,0.3-1.1,0.3-1.8s-0.1-1.4-0.3-1.8c-0.2-0.5-0.5-0.8-1-1c-0.4-0.2-0.9-0.3-1.6-0.3s-1.2,0.1-1.6,0.3
			s-0.7,0.6-0.9,1s-0.3,1.1-0.3,1.8c0,0.8,0.1,1.4,0.3,1.9c0.2,0.5,0.5,0.8,0.9,1s0.9,0.3,1.6,0.3
			C1195.4,676.6,1196,676.5,1196.4,676.2z"/>
	</g>
</g>
<g>
	<g>
		<path d="M844,677.5c-0.6-0.4-1.1-0.9-1.4-1.6c-0.3-0.7-0.5-1.5-0.5-2.3c0-0.9,0.2-1.6,0.5-2.3s0.8-1.2,1.4-1.6
			c0.6-0.4,1.4-0.6,2.4-0.6c0.9,0,1.7,0.2,2.3,0.6c0.6,0.4,1.1,0.9,1.4,1.6s0.5,1.5,0.5,2.3c0,0.9-0.2,1.6-0.5,2.3s-0.8,1.2-1.4,1.6
			c-0.6,0.4-1.4,0.6-2.3,0.6C845.5,678.1,844.7,677.9,844,677.5z M843.8,675.5c0.2,0.5,0.5,0.9,1,1.1c0.4,0.2,1,0.4,1.6,0.4
			s1.2-0.1,1.6-0.4c0.4-0.2,0.7-0.6,1-1.1c0.2-0.5,0.3-1.2,0.3-1.9c0-0.8-0.1-1.4-0.3-1.9s-0.5-0.9-1-1.1c-0.4-0.2-1-0.4-1.6-0.4
			c-0.7,0-1.2,0.1-1.6,0.4c-0.4,0.2-0.7,0.6-1,1.1c-0.2,0.5-0.3,1.2-0.3,1.9C843.5,674.4,843.6,675,843.8,675.5z"/>
		<path d="M853.8,677.6c-0.3-0.1-0.5-0.4-0.6-0.6s-0.2-0.7-0.2-1.1v-5.4h-1.6v-0.8l1.8-0.4l0.5-1.8h0.7v1.9h4.7v1.1h-4.7v6.3h2.7
			v1.1h-2C854.5,677.8,854.1,677.7,853.8,677.6z M859.3,677.6c-0.3-0.1-0.5-0.4-0.6-0.6s-0.2-0.7-0.2-1.1v-5.4h-1.6v-0.8l1.6-0.2
			l0.6-2h0.7v1.9h2.8v1.1h-2.8v6.3h2.7v1.1h-2C860,677.8,859.6,677.7,859.3,677.6z"/>
	</g>
</g>
<g transform="translate(-400,258)">
	<g>
		<g class="st3">
			<path d="M671.9,456l5.3-4.4c0.5-0.4,0.9-0.8,1.1-1.2s0.3-0.8,0.3-1.2c0-0.6-0.2-1-0.6-1.4c-0.4-0.4-0.9-0.5-1.7-0.5
				c-0.7,0-1.3,0.1-1.7,0.4s-0.8,0.6-1,1.2c-0.2,0.5-0.3,1.1-0.3,1.9h-1.4c0-0.9,0.2-1.6,0.5-2.3c0.3-0.7,0.8-1.2,1.4-1.6
				c0.6-0.4,1.5-0.6,2.5-0.6c0.9,0,1.6,0.1,2.1,0.4s0.9,0.6,1.2,1.1c0.2,0.4,0.4,1,0.4,1.5c0,0.7-0.2,1.3-0.6,1.9
				c-0.4,0.6-1,1.2-2,2l-3.6,3h6.4v1.1h-8.3L671.9,456L671.9,456z"/>
			<path d="M683.8,456.6c-0.7-0.5-1.2-1.1-1.6-2c-0.3-0.8-0.5-1.8-0.5-2.9s0.2-2.1,0.5-2.9s0.9-1.5,1.6-2s1.6-0.7,2.7-0.7
				c1.1,0,2,0.2,2.7,0.7s1.2,1.1,1.6,2c0.4,0.9,0.5,1.8,0.5,2.9s-0.2,2.1-0.5,2.9s-0.9,1.5-1.6,2s-1.6,0.7-2.7,0.7
				C685.5,457.3,684.6,457.1,683.8,456.6z M683.5,454.2c0.2,0.7,0.6,1.2,1.1,1.5s1.1,0.5,1.9,0.5s1.4-0.2,1.9-0.5s0.9-0.8,1.1-1.5
				s0.4-1.5,0.4-2.5s-0.1-1.9-0.4-2.5s-0.6-1.2-1.1-1.5s-1.1-0.5-1.9-0.5s-1.4,0.2-1.9,0.5s-0.9,0.8-1.1,1.5s-0.4,1.5-0.4,2.5
				S683.3,453.6,683.5,454.2z"/>
			<path d="M693.1,456l5.3-4.4c0.5-0.4,0.9-0.8,1.1-1.2c0.2-0.3,0.3-0.8,0.3-1.2c0-0.6-0.2-1-0.6-1.4c-0.4-0.4-0.9-0.5-1.7-0.5
				c-0.7,0-1.3,0.1-1.7,0.4s-0.8,0.6-1,1.2c-0.2,0.5-0.3,1.1-0.3,1.9h-1.4c0-0.9,0.2-1.6,0.5-2.3c0.3-0.7,0.8-1.2,1.4-1.6
				c0.6-0.4,1.5-0.6,2.5-0.6c0.9,0,1.6,0.1,2.1,0.4s0.9,0.6,1.2,1.1c0.3,0.4,0.4,1,0.4,1.5c0,0.7-0.2,1.3-0.6,1.9
				c-0.4,0.6-1,1.2-2,2l-3.6,3h6.4v1.1h-8.3L693.1,456L693.1,456z"/>
			<path d="M703.2,456h2.5v-8.5h-2.5v-1.1h2.3c0.5,0,0.9,0.1,1.2,0.3c0.2,0.2,0.3,0.6,0.3,1v8.2h2.3v1.1h-6.1V456L703.2,456z"/>
		</g>
	</g>
</g>
<g transform="translate(-400,258)">
	<g>
		<g class="st3">
			<path d="M1118.8,456l5.3-4.4c0.5-0.4,0.9-0.8,1.1-1.2s0.3-0.8,0.3-1.2c0-0.6-0.2-1-0.6-1.4c-0.4-0.3-0.9-0.5-1.7-0.5
				c-0.7,0-1.3,0.1-1.7,0.4s-0.8,0.6-1,1.2c-0.2,0.5-0.3,1.1-0.3,1.9h-1.4c0-0.9,0.2-1.6,0.5-2.3c0.3-0.7,0.8-1.2,1.4-1.6
				c0.6-0.4,1.5-0.6,2.5-0.6c0.9,0,1.6,0.1,2.1,0.4s0.9,0.6,1.2,1.1c0.2,0.4,0.4,1,0.4,1.5c0,0.7-0.2,1.3-0.6,1.9s-1,1.2-2,2l-3.6,3
				h6.4v1.1h-8.3L1118.8,456L1118.8,456z"/>
			<path d="M1130.8,456.6c-0.7-0.5-1.2-1.1-1.6-2c-0.3-0.8-0.5-1.8-0.5-2.9s0.2-2.1,0.5-2.9c0.3-0.8,0.9-1.5,1.6-2s1.6-0.7,2.7-0.7
				c1.1,0,2,0.2,2.7,0.7c0.7,0.5,1.2,1.1,1.6,2c0.3,0.8,0.5,1.8,0.5,2.9s-0.2,2.1-0.5,2.9c-0.3,0.8-0.9,1.5-1.6,2s-1.6,0.7-2.7,0.7
				C1132.4,457.3,1131.4,457.1,1130.8,456.6z M1130.3,454.2c0.2,0.7,0.6,1.2,1.1,1.5s1.1,0.5,1.9,0.5s1.4-0.2,1.9-0.5
				s0.9-0.8,1.1-1.5c0.2-0.7,0.4-1.5,0.4-2.5s-0.1-1.9-0.4-2.5c-0.2-0.7-0.6-1.2-1.1-1.5s-1.1-0.5-1.9-0.5c-0.8,0-1.4,0.2-1.9,0.5
				s-0.9,0.8-1.1,1.5s-0.4,1.5-0.4,2.5S1130.1,453.6,1130.3,454.2z"/>
			<path d="M1139.9,456l5.3-4.4c0.5-0.4,0.9-0.8,1.1-1.2s0.3-0.8,0.3-1.2c0-0.6-0.2-1-0.6-1.4c-0.4-0.4-0.9-0.5-1.7-0.5
				c-0.7,0-1.3,0.1-1.7,0.4s-0.8,0.6-1,1.2c-0.2,0.5-0.3,1.1-0.3,1.9h-1.4c0-0.9,0.2-1.6,0.5-2.3c0.3-0.7,0.8-1.2,1.4-1.6
				c0.6-0.4,1.5-0.6,2.5-0.6c0.9,0,1.6,0.1,2.1,0.4s0.9,0.6,1.2,1.1c0.2,0.4,0.4,1,0.4,1.5c0,0.7-0.2,1.3-0.6,1.9
				c-0.4,0.6-1,1.2-2,2l-3.6,3h6.4v1.1h-8.3L1139.9,456L1139.9,456z"/>
			<path d="M1150.1,456l5.3-4.4c0.5-0.4,0.9-0.8,1.1-1.2c0.2-0.3,0.3-0.8,0.3-1.2c0-0.6-0.2-1-0.6-1.4c-0.4-0.3-0.9-0.5-1.7-0.5
				c-0.7,0-1.3,0.1-1.7,0.4s-0.8,0.6-1,1.2c-0.2,0.5-0.3,1.1-0.3,1.9h-1.4c0-0.9,0.2-1.6,0.5-2.3c0.3-0.7,0.8-1.2,1.4-1.6
				s1.5-0.6,2.5-0.6c0.9,0,1.6,0.1,2.1,0.4s0.9,0.6,1.2,1.1c0.3,0.4,0.4,1,0.4,1.5c0,0.7-0.2,1.3-0.6,1.9c-0.4,0.6-1,1.2-2,2l-3.6,3
				h6.4v1.1h-8.3V456L1150.1,456z"/>
		</g>
	</g>
</g>
<g transform="translate(-400,258)">
	<g>
		<g class="st3">
			<path d="M1456.1,455.7l5.3-4.4c0.5-0.4,0.9-0.8,1.1-1.2s0.3-0.8,0.3-1.2c0-0.6-0.2-1-0.6-1.4c-0.4-0.3-0.9-0.5-1.7-0.5
				c-0.7,0-1.3,0.1-1.7,0.4c-0.4,0.3-0.8,0.6-1,1.2c-0.2,0.5-0.3,1.1-0.3,1.9h-1.4c0-0.9,0.2-1.6,0.5-2.3s0.8-1.2,1.4-1.6
				s1.5-0.6,2.5-0.6c0.9,0,1.6,0.1,2.1,0.4s0.9,0.6,1.2,1.1c0.2,0.4,0.4,1,0.4,1.5c0,0.7-0.2,1.3-0.6,1.9s-1,1.2-2,2l-3.6,3h6.4v1.1
				h-8.3L1456.1,455.7L1456.1,455.7z"/>
			<path d="M1468,456.3c-0.7-0.5-1.2-1.1-1.6-2c-0.3-0.8-0.5-1.8-0.5-2.9s0.2-2.1,0.5-2.9s0.9-1.5,1.6-2s1.6-0.7,2.7-0.7
				s2,0.2,2.7,0.7s1.2,1.1,1.6,2c0.3,0.8,0.5,1.8,0.5,2.9s-0.2,2.1-0.5,2.9s-0.9,1.5-1.6,2s-1.6,0.7-2.7,0.7
				C1469.7,457,1468.8,456.8,1468,456.3z M1467.7,453.9c0.2,0.7,0.6,1.2,1.1,1.5s1.1,0.5,1.9,0.5s1.4-0.2,1.9-0.5s0.9-0.8,1.1-1.5
				s0.4-1.5,0.4-2.5s-0.1-1.9-0.4-2.5c-0.2-0.7-0.6-1.2-1.1-1.5s-1.1-0.5-1.9-0.5s-1.4,0.2-1.9,0.5s-0.9,0.8-1.1,1.5
				s-0.4,1.5-0.4,2.5C1467.3,452.4,1467.5,453.3,1467.7,453.9z"/>
			<path d="M1477.3,455.7l5.3-4.4c0.5-0.4,0.9-0.8,1.1-1.2s0.3-0.8,0.3-1.2c0-0.6-0.2-1-0.6-1.4s-0.9-0.5-1.7-0.5
				c-0.7,0-1.3,0.1-1.7,0.4c-0.4,0.3-0.8,0.6-1,1.2c-0.2,0.5-0.3,1.1-0.3,1.9h-1.4c0-0.9,0.2-1.6,0.5-2.3c0.3-0.7,0.8-1.2,1.4-1.6
				s1.5-0.6,2.5-0.6c0.9,0,1.6,0.1,2.1,0.4s0.9,0.6,1.2,1.1c0.2,0.4,0.4,1,0.4,1.5c0,0.7-0.2,1.3-0.6,1.9s-1,1.2-2,2l-3.6,3h6.4v1.1
				h-8.3L1477.3,455.7L1477.3,455.7z"/>
			<path d="M1488.9,454.6c0.2,0.4,0.6,0.7,1,0.9c0.4,0.2,0.9,0.4,1.5,0.4c0.9,0,1.7-0.2,2.1-0.6c0.5-0.4,0.7-1.1,0.7-1.9
				c0-0.7-0.2-1.2-0.6-1.7c-0.4-0.4-1-0.6-1.7-0.6c-0.4,0-0.7,0-1,0.1s-0.6,0.2-0.9,0.5l-0.6-0.8l4.2-3.6h-6v-1.1h7.6v1.1l-3.7,3.3
				c0.3-0.1,0.7-0.1,1.1-0.1c0.5,0,1,0.1,1.5,0.3c0.5,0.2,0.8,0.6,1.1,1c0.3,0.5,0.4,1,0.4,1.7c0,0.6-0.1,1.2-0.4,1.8
				s-0.8,1-1.4,1.3s-1.5,0.5-2.5,0.5c-0.9,0-1.7-0.2-2.3-0.5s-1.1-0.8-1.4-1.3c-0.3-0.6-0.5-1.2-0.5-1.9h1.4
				C1488.5,453.8,1488.6,454.2,1488.9,454.6z"/>
		</g>
	</g>
</g>
<line class="st6" x1="68.9" y1="650.8" x2="68.9" y2="709.8"/>
<line class="st6" x1="516.7" y1="650.8" x2="516.7" y2="709.8"/>
<line class="st6" x1="964.4" y1="650.8" x2="964.4" y2="709.8"/>
<line class="st7" x1="1187.3" y1="650.8" x2="1187.3" y2="709.8"/>
<line class="st8" x1="315.9" y1="709.8" x2="516.8" y2="709.8"/>
<line class="st8" x1="68.9" y1="709.8" x2="265.3" y2="709.8"/>
<line class="st8" x1="764.3" y1="709.8" x2="964.8" y2="709.8"/>
<line class="st8" x1="516.8" y1="709.8" x2="713.7" y2="709.8"/>
<line class="st8" x1="1101.8" y1="709.8" x2="1187.3" y2="709.8"/>
<line class="st8" x1="964.5" y1="709.8" x2="1051.2" y2="709.8"/>
</svg>
