<?xml version="1.0" encoding="utf-8"?>
<!-- Generator: Adobe Illustrator 25.2.0, SVG Export Plug-In . SVG Version: 6.00 Build 0)  -->
<svg version="1.1" id="Livello_1" xmlns="http://www.w3.org/2000/svg" xmlns:xlink="http://www.w3.org/1999/xlink" x="0px" y="0px"
	 viewBox="0 0 1247.2 985.1" style="enable-background:new 0 0 1247.2 985.1;" xml:space="preserve">
<style type="text/css">
	.st0{display:none;opacity:0.5;}
	.st1{display:inline;fill:none;stroke:#000000;stroke-width:0.5;stroke-linecap:square;stroke-linejoin:round;}
	.st2{display:inline;fill:none;stroke:#000000;stroke-width:0.25;stroke-linecap:square;stroke-linejoin:round;}
	.st3{display:inline;fill:none;stroke:#000000;stroke-width:0.75;}
	.st4{display:inline;fill:none;stroke:#6691E0;stroke-width:4;stroke-linejoin:round;}
	.st5{display:inline;fill:none;stroke:#003599;stroke-width:5;stroke-linejoin:round;stroke-dasharray:3,8;}
	.st6{display:inline;fill:none;stroke:#99B5EB;stroke-width:5;stroke-linejoin:round;stroke-dasharray:3,8;}
	.st7{fill:none;stroke:#000000;stroke-width:0.5;stroke-linecap:square;stroke-linejoin:round;}
	.st8{fill:none;stroke:#000000;stroke-width:0.25;stroke-linecap:square;stroke-linejoin:round;}
	.st9{fill:none;stroke:#000000;stroke-width:0.75;stroke-linecap:square;stroke-linejoin:round;}
	.st10{fill:none;stroke:#6691E0;stroke-width:4;stroke-linejoin:round;}
	.st11{fill:none;stroke:#003599;stroke-width:5;stroke-linejoin:round;stroke-dasharray:3,8;}
	.st12{fill:none;stroke:#99B5EB;stroke-width:5;stroke-linejoin:round;stroke-dasharray:3,8;}
	.st13{fill:none;stroke:#000000;stroke-width:0.75;}
	.st14{fill:none;stroke:#000000;stroke-miterlimit:10;stroke-dasharray:0.6855,2.7418;}
	.st15{fill:none;stroke:#000000;}
</style>
<g class="st0">
	<line class="st1" x1="91" y1="837.8" x2="91" y2="271.7"/>
	<line class="st2" x1="1209.6" y1="837.8" x2="1209.6" y2="271.7"/>
	<line class="st2" x1="201.6" y1="837.8" x2="201.6" y2="271.7"/>
	<line class="st2" x1="127.8" y1="837.8" x2="127.8" y2="831.5"/>
	<line class="st2" x1="164.6" y1="837.8" x2="164.6" y2="831.5"/>
	<line class="st2" x1="313.2" y1="837.8" x2="313.2" y2="271.7"/>
	<line class="st2" x1="239.4" y1="837.8" x2="239.4" y2="831.5"/>
	<line class="st2" x1="276.2" y1="837.8" x2="276.2" y2="831.5"/>
	<line class="st2" x1="387" y1="837.8" x2="387" y2="831.5"/>
	<line class="st2" x1="350" y1="837.8" x2="350" y2="831.5"/>
	<line class="st2" x1="426" y1="837.8" x2="426" y2="271.7"/>
	<line class="st2" x1="463" y1="837.8" x2="463" y2="831.5"/>
	<line class="st2" x1="502" y1="837.8" x2="502" y2="831.5"/>
	<line class="st1" x1="538.9" y1="837.8" x2="538.9" y2="271.7"/>
	<line class="st2" x1="578" y1="837.8" x2="578" y2="831.5"/>
	<line class="st2" x1="614.9" y1="837.8" x2="614.9" y2="831.5"/>
	<line class="st2" x1="649.3" y1="837.8" x2="649.3" y2="271.7"/>
	<line class="st2" x1="689.6" y1="837.8" x2="689.6" y2="831.5"/>
	<line class="st2" x1="726.5" y1="837.8" x2="726.5" y2="831.5"/>
	<line class="st2" x1="760.9" y1="837.8" x2="760.9" y2="271.7"/>
	<line class="st2" x1="797.8" y1="837.8" x2="797.8" y2="831.5"/>
	<line class="st2" x1="832.2" y1="837.8" x2="832.2" y2="831.5"/>
	<line class="st2" x1="873.7" y1="837.8" x2="873.7" y2="271.7"/>
	<line class="st2" x1="908.1" y1="837.8" x2="908.1" y2="831.5"/>
	<line class="st2" x1="949.7" y1="837.8" x2="949.7" y2="831.5"/>
	<line class="st1" x1="986.6" y1="837.8" x2="986.6" y2="271.7"/>
	<line class="st2" x1="1028.2" y1="837.8" x2="1028.2" y2="831.5"/>
	<line class="st2" x1="1065.1" y1="837.8" x2="1065.1" y2="831.5"/>
	<line class="st2" x1="1097" y1="837.8" x2="1097" y2="271.7"/>
	<line class="st2" x1="1133.9" y1="837.8" x2="1133.9" y2="831.5"/>
	<line class="st2" x1="1165.7" y1="837.8" x2="1165.7" y2="831.5"/>
	<line class="st1" x1="91" y1="751.5" x2="85" y2="751.5"/>
	<line class="st1" x1="91" y1="800.5" x2="85" y2="800.5"/>
	<line class="st1" x1="91" y1="702.5" x2="85" y2="702.5"/>
	<line class="st3" x1="91" y1="653.4" x2="85" y2="653.4"/>
	<line class="st1" x1="91" y1="604.4" x2="85" y2="604.4"/>
	<line class="st1" x1="91" y1="555.4" x2="85" y2="555.4"/>
	<line class="st1" x1="91" y1="506.4" x2="85" y2="506.4"/>
	<line class="st1" x1="91" y1="457.3" x2="85" y2="457.3"/>
	<line class="st1" x1="91" y1="408.3" x2="85" y2="408.3"/>
	<line class="st1" x1="91" y1="310.3" x2="85" y2="310.3"/>
	<line class="st1" x1="91" y1="359.3" x2="85" y2="359.3"/>
	<line class="st3" x1="91" y1="653.4" x2="1209.6" y2="653.4"/>
	<path class="st4" d="M91.7,482.1c19,0,19,29.8,38,29.8c17.2,0,17.2,103.7,34.3,103.7c19,0,19-13.2,37.9-13.2
		c18.4,0,18.4-178.4,36.8-178.4c19,0,19-22.8,38-22.8c18.4,0,18.4,139.4,36.8,139.4c19,0,19-44.7,38-44.7s19,106.8,38,106.8
		c18.4,0,18.4-87.4,36.8-87.4c19,0,19-61.2,38-61.2c18.4,0,18.4,42,36.8,42c19,0,19,107,38,107c19,0,19,81,38,81
		c17.2,0,17.2,20,34.3,20c19,0,19-34.5,37.9-34.5c18.4,0,18.4-148.7,36.8-148.7c19,0,19,57.5,38,57.5c18.4,0,18.4,121.4,36.8,121.4
		c19,0,19,13.2,38,13.2s19-30.8,38-30.8c18.4,0,18.4,1.9,36.8,1.9c19,0,19-92.6,38-92.6c18.4,0,18.4,41.1,36.8,41.1
		c19,0,19,29.5,38,29.5s19,10.5,38,10.5c17.2,0,17.2-6.3,34.3-6.3c19,0,19-58.6,37.9-58.6c18.4,0,18.4-189.3,36.8-189.3
		c19,0,19-28.9,38-28.9"/>
	<path class="st5" d="M91.7,392.2c19,0,19,15.5,38,15.5c17.2,0,17.2,28,34.3,28c19,0,19-32.6,37.9-32.6c18.4,0,18.4-23.2,36.8-23.2
		c19,0,19-14.8,38-14.8c18.4,0,18.4,13.6,36.8,13.6c19,0,19,24.6,38,24.6s19-34.3,38-34.3c18.4,0,18.4,3.4,36.8,3.4
		c19,0,19-17.3,38-17.3c18.4,0,18.4,27.9,36.8,27.9c19,0,19,9.1,38,9.1c19,0,19,15.5,38,15.5c17.2,0,17.2,28,34.3,28
		c19,0,19-32.6,37.9-32.6c18.4,0,18.4-23.2,36.8-23.2c19,0,19-14.8,38-14.8c18.4,0,18.4,13.6,36.8,13.6c19,0,19,24.6,38,24.6
		s19-34.3,38-34.3c18.4,0,18.4,3.4,36.8,3.4c19,0,19-17.3,38-17.3c18.4,0,18.4,27.9,36.8,27.9c19,0,19,9.1,38,9.1s19,15.5,38,15.5
		c17.2,0,17.2,28,34.3,28c19,0,19-32.6,37.9-32.6c18.4,0,18.4-23.2,36.8-23.2c19,0,19-14.8,38-14.8"/>
	<path class="st6" d="M91.7,724.9c19,0,19,28.7,38,28.7c17.2,0,17.2,18.3,34.3,18.3c19,0,19-9.5,37.9-9.5
		c18.4,0,18.4-55.1,36.8-55.1c19,0,19-44.9,38-44.9c18.4,0,18.4,80.4,36.8,80.4c19,0,19,20.9,38,20.9s19-5.4,38-5.4
		c18.4,0,18.4-23.4,36.8-23.4c19,0,19-12.7,38-12.7c18.4,0,18.4,2.2,36.8,2.2c19,0,19,0.5,38,0.5c19,0,19,28.7,38,28.7
		c17.2,0,17.2,18.3,34.3,18.3c19,0,19-9.5,37.9-9.5c18.4,0,18.4-55.1,36.8-55.1c19,0,19-44.9,38-44.9c18.4,0,18.4,80.4,36.8,80.4
		c19,0,19,20.9,38,20.9s19-5.4,38-5.4c18.4,0,18.4-23.4,36.8-23.4c19,0,19-12.7,38-12.7c18.4,0,18.4,2.2,36.8,2.2
		c19,0,19,0.5,38,0.5s19,28.7,38,28.7c17.2,0,17.2,18.3,34.3,18.3c19,0,19-9.5,37.9-9.5c18.4,0,18.4-55.1,36.8-55.1
		c19,0,19-44.9,38-44.9"/>
</g>
<g id="Livello_1_1_">
	<line class="st7" x1="91" y1="804.4" x2="91" y2="238.3"/>
	<line class="st8" x1="1209.2" y1="804.4" x2="1209.2" y2="238.3"/>
	<line class="st8" x1="201.5" y1="804.4" x2="201.5" y2="238.3"/>
	<line class="st8" x1="127.7" y1="804.4" x2="127.7" y2="798.2"/>
	<line class="st8" x1="164.6" y1="804.4" x2="164.6" y2="798.2"/>
	<line class="st8" x1="313.1" y1="804.4" x2="313.1" y2="238.3"/>
	<line class="st8" x1="239.3" y1="804.4" x2="239.3" y2="798.2"/>
	<line class="st8" x1="276.1" y1="804.4" x2="276.1" y2="798.2"/>
	<line class="st8" x1="386.8" y1="804.4" x2="386.8" y2="798.2"/>
	<line class="st8" x1="349.9" y1="804.4" x2="349.9" y2="798.2"/>
	<line class="st8" x1="425.9" y1="804.4" x2="425.9" y2="238.3"/>
	<line class="st8" x1="462.8" y1="804.4" x2="462.8" y2="798.2"/>
	<line class="st8" x1="501.9" y1="804.4" x2="501.9" y2="798.2"/>
	<line class="st7" x1="538.7" y1="804.4" x2="538.7" y2="238.3"/>
	<line class="st8" x1="577.8" y1="804.4" x2="577.8" y2="798.2"/>
	<line class="st8" x1="614.7" y1="804.4" x2="614.7" y2="798.2"/>
	<line class="st8" x1="649" y1="804.4" x2="649" y2="238.3"/>
	<line class="st8" x1="689.4" y1="804.4" x2="689.4" y2="798.2"/>
	<line class="st8" x1="726.2" y1="804.4" x2="726.2" y2="798.2"/>
	<line class="st8" x1="760.6" y1="804.4" x2="760.6" y2="238.3"/>
	<line class="st8" x1="797.5" y1="804.4" x2="797.5" y2="798.2"/>
	<line class="st8" x1="831.9" y1="804.4" x2="831.9" y2="798.2"/>
	<line class="st8" x1="873.4" y1="804.4" x2="873.4" y2="238.3"/>
	<line class="st8" x1="907.8" y1="804.4" x2="907.8" y2="798.2"/>
	<line class="st8" x1="949.3" y1="804.4" x2="949.3" y2="798.2"/>
	<line class="st7" x1="986.3" y1="804.4" x2="986.3" y2="238.3"/>
	<line class="st8" x1="1027.8" y1="804.4" x2="1027.8" y2="798.2"/>
	<line class="st8" x1="1064.8" y1="804.4" x2="1064.8" y2="798.2"/>
	<line class="st8" x1="1096.6" y1="804.4" x2="1096.6" y2="238.3"/>
	<line class="st8" x1="1133.5" y1="804.4" x2="1133.5" y2="798.2"/>
	<line class="st8" x1="1165.3" y1="804.4" x2="1165.3" y2="798.2"/>
	<line class="st7" x1="91" y1="804.4" x2="85" y2="804.4"/>
	<line class="st7" x1="91" y1="766.6" x2="85" y2="766.6"/>
	<line class="st7" x1="91" y1="728.9" x2="85" y2="728.9"/>
	<line class="st7" x1="91" y1="691.2" x2="85" y2="691.2"/>
	<line class="st9" x1="91" y1="653.4" x2="85" y2="653.4"/>
	<line class="st7" x1="91" y1="615.7" x2="85" y2="615.7"/>
	<line class="st7" x1="91" y1="577.9" x2="85" y2="577.9"/>
	<line class="st7" x1="91" y1="540.2" x2="85" y2="540.2"/>
	<line class="st7" x1="91" y1="502.5" x2="85" y2="502.5"/>
	<line class="st7" x1="91" y1="464.7" x2="85" y2="464.7"/>
	<line class="st7" x1="91" y1="427" x2="85" y2="427"/>
	<line class="st7" x1="91" y1="389.3" x2="85" y2="389.3"/>
	<line class="st7" x1="91" y1="351.5" x2="85" y2="351.5"/>
	<line class="st7" x1="91" y1="313.8" x2="85" y2="313.8"/>
	<line class="st7" x1="91" y1="276" x2="85" y2="276"/>
	<line class="st7" x1="91" y1="238.2" x2="85" y2="238.2"/>
	<line class="st7" x1="91" y1="804.4" x2="85" y2="804.4"/>
	<g>
		<g>
			<path d="M1174.6,313.3h-2.2v-21.7l-8.6,21.7h-3.1l-8.6-21.7v21.7h-2.2v-23.3h3.9l8.4,21.4l8.5-21.4h3.8V313.3z"/>
			<path d="M1196.7,313.3l-2.5-6.4h-11.8l-2.5,6.4h-2.2l9-23.3h3.2l9,23.3H1196.7z M1183.2,305.1h10.4l-5.2-13.4L1183.2,305.1z"/>
			<path d="M1203.3,313.3h-2.6l9.3-12.6l1.3,1.7L1203.3,313.3z M1200.8,290.1h2.6l17.4,23.3h-2.7L1200.8,290.1z M1218,290.1h2.5
				l-9.1,12.4l-1.3-1.7L1218,290.1z"/>
		</g>
	</g>
	<g>
		<g>
			<path d="M1174.6,698.4h-2.2v-21.7l-8.6,21.7h-3.1l-8.6-21.7v21.7h-2.2v-23.3h3.9l8.4,21.3l8.5-21.3h3.8V698.4z"/>
			<path d="M1179,675.1h12.4v1.8H1179V675.1z M1179,696.5h12.4v1.8H1179V696.5z M1184.1,676h2.2v21.5h-2.2V676z"/>
			<path d="M1212.7,675.1h2.2v23.3h-3.5l-12.2-19.2c-0.5-0.9-0.9-1.7-1.2-2.3v21.6h-2.2v-23.3h3.5l12.2,19.2
				c0.3,0.6,0.8,1.4,1.3,2.4V675.1z"/>
		</g>
	</g>
</g>
<g id="rawgraph">
	<g id="Anno_00000105417608227171071620000014775418991258327439_">
		<path class="st10" d="M91.1,595.9c19,0,19,16.8,38,16.8c17.2,0,17.2,45.4,34.3,45.4c19,0,19,0.6,38,0.6
			c18.4,0,18.4-111.8,36.8-111.8c19,0,19-58.9,38-58.9c18.4,0,18.4,55.5,36.8,55.5c19,0,19-49.4,38-49.4s19,133.5,38,133.5
			c18.4,0,18.4-53.2,36.8-53.2c19,0,19,48.4,38.1,48.4c18.4,0,18.4,44.5,36.8,44.5c19,0,19,18.3,38,18.3c19,0,19-7,38-7
			c17.2,0,17.2,22.8,34.3,22.8c19,0,19-4.4,38-4.4c18.4,0,18.4-117.3,36.8-117.3c19,0,19,39.5,38,39.5c18.4,0,18.4,98,36.8,98
			c19,0,19,2,38,2s19-38.9,38-38.9c18.4,0,18.4-34.2,36.8-34.2c19,0,19-73.2,38.1-73.2c18.4,0,18.4,46.9,36.8,46.9
			c19,0,19,30.9,38,30.9s19,10.5,38,10.5c17.2,0,17.2-2,34.3-2c19,0,19-27.7,38-27.7c18.4,0,18.4-129.9,36.8-129.9
			c19,0,19-27.9,38-27.9"/>
	</g>
	<path class="st11" d="M91.1,446.1c19,0,19,36.6,38,36.6c17.2,0,17.2,19.9,34.3,19.9c19,0,19-84.3,38-84.3
		c18.4,0,18.4-59.7,36.8-59.7c19,0,19-31.4,38-31.4c18.4,0,18.4-41.1,36.8-41.1c19,0,19,72.7,38,72.7s19-67.5,38-67.5
		c18.4,0,18.4-55.8,36.8-55.8c19,0,19,33.9,38.1,33.9c18.4,0,18.4,85.8,36.8,85.8c19,0,19,90.8,38,90.8c19,0,19,36.6,38,36.6
		c17.2,0,17.2,19.9,34.3,19.9c19,0,19-84.3,38-84.3c18.4,0,18.4-59.7,36.8-59.7c19,0,19-31.4,38-31.4c18.4,0,18.4-41.1,36.8-41.1
		c19,0,19,72.7,38,72.7s19-67.5,38-67.5c18.4,0,18.4-55.8,36.8-55.8c19,0,19,33.9,38.1,33.9c18.4,0,18.4,85.8,36.8,85.8
		c19,0,19,90.8,38,90.8s19,36.6,38,36.6c17.2,0,17.2,19.9,34.3,19.9c19,0,19-84.3,38-84.3c18.4,0,18.4-59.7,36.8-59.7
		c19,0,19-31.4,38-31.4"/>
	<path class="st12" d="M91.1,761.9c19,0,19,12.4,38,12.4c17.2,0,17.2-33.9,34.3-33.9c19,0,19-27.3,38-27.3
		c18.4,0,18.4,17.4,36.8,17.4c19,0,19-20.9,38-20.9c18.4,0,18.4-41.7,36.8-41.7c19,0,19,17.6,38,17.6s19,35.2,38,35.2
		c18.4,0,18.4,10.5,36.8,10.5c19,0,19,0.7,38.1,0.7c18.4,0,18.4,24.4,36.8,24.4c19,0,19,5.5,38,5.5c19,0,19,12.4,38,12.4
		c17.2,0,17.2-33.9,34.3-33.9c19,0,19-27.3,38-27.3c18.4,0,18.4,17.4,36.8,17.4c19,0,19-20.9,38-20.9c18.4,0,18.4-41.7,36.8-41.7
		c19,0,19,17.6,38,17.6s19,35.2,38,35.2c18.4,0,18.4,10.5,36.8,10.5c19,0,19,0.7,38.1,0.7c18.4,0,18.4,24.4,36.8,24.4
		c19,0,19,5.5,38,5.5s19,12.4,38,12.4c17.2,0,17.2-33.9,34.3-33.9c19,0,19-27.3,38-27.3c18.4,0,18.4,17.4,36.8,17.4
		c19,0,19-20.9,38-20.9"/>
	<line class="st13" x1="91" y1="653.4" x2="1209.2" y2="653.4"/>
</g>
<g>
	<g>
		<path d="M62.3,852.7c-1.3-0.8-2.3-1.9-3-3.4c-0.7-1.5-1-3.3-1-5.5c0-3.3,0.8-5.7,2.3-7.5c1.5-1.7,3.8-2.6,6.7-2.6
			c2.9,0,5.1,0.9,6.6,2.6s2.2,4.2,2.2,7.5c0,2.2-0.3,4.1-1,5.6c-0.7,1.5-1.6,2.6-2.9,3.4s-2.9,1.1-4.9,1.1
			C65.3,853.9,63.6,853.5,62.3,852.7z M63.1,861.9c-1.3-0.5-2.3-1.3-3-2.4c-0.7-1-1.1-2.3-1.3-3.8h2.4c0.1,1,0.3,1.8,0.8,2.6
			c0.5,0.7,1.2,1.3,2.1,1.8c1,0.5,2.2,0.7,3.7,0.7c1.7,0,3.1-0.2,4.1-0.6c1-0.4,1.8-1.1,2.3-2c0.5-0.9,0.7-2.1,0.7-3.6v-20.2h2.4
			v20.2c0,1.8-0.3,3.3-0.9,4.5c-0.6,1.2-1.6,2.1-3,2.8c-1.4,0.6-3.2,1-5.6,1C66,862.7,64.4,862.4,63.1,861.9z M71.7,851.1
			c1.1-0.5,1.9-1.4,2.5-2.6c0.6-1.2,0.9-2.8,0.9-4.7c0-1.9-0.3-3.5-0.9-4.7c-0.6-1.2-1.4-2.1-2.5-2.6c-1.1-0.5-2.3-0.8-3.8-0.8
			c-1.6,0-2.9,0.3-4,0.8c-1,0.6-1.8,1.4-2.3,2.6s-0.8,2.7-0.8,4.6c0,1.9,0.3,3.4,0.8,4.6c0.5,1.2,1.3,2.1,2.3,2.7
			c1,0.6,2.4,0.9,4,0.9C69.3,852,70.6,851.7,71.7,851.1z"/>
		<path d="M86.2,853.6c-1.5-0.9-2.5-2.2-3.3-3.8c-0.7-1.6-1.1-3.5-1.1-5.6c0-2.1,0.4-3.9,1.1-5.5c0.7-1.6,1.8-2.8,3.3-3.7
			c1.5-0.9,3.3-1.4,5.4-1.4c1.8,0,3.4,0.4,4.8,1.2c1.4,0.8,2.4,1.9,3.2,3.4c0.7,1.5,1.1,3.2,1.1,5.2v0.5c0,0.2,0,0.5,0,0.7h-17v-1.9
			h15.7l-1,1.2c0.1-1.9-0.1-3.5-0.7-4.8s-1.3-2.1-2.3-2.7c-1-0.6-2.3-0.8-3.7-0.8c-1.6,0-2.9,0.3-4,0.9c-1.1,0.6-1.9,1.5-2.5,2.8
			c-0.6,1.3-0.9,2.9-0.9,4.9c0,2,0.3,3.7,0.9,5c0.6,1.3,1.4,2.2,2.5,2.9s2.4,0.9,4,0.9c1.4,0,2.5-0.2,3.5-0.6c0.9-0.4,1.7-1,2.2-1.7
			c0.5-0.7,0.9-1.6,1.1-2.7h2.2c-0.2,1.2-0.6,2.3-1.3,3.4c-0.7,1-1.7,1.9-3,2.6c-1.3,0.7-2.9,1-4.9,1
			C89.4,854.9,87.6,854.5,86.2,853.6z"/>
		<path d="M104.8,834.3h2.4v20h-2.4V834.3z M107.4,839.7c0.7-2,1.7-3.6,3-4.6s3-1.5,4.9-1.5c1.6,0,2.9,0.3,3.9,0.8
			c1,0.6,1.8,1.4,2.3,2.5c0.5,1.1,0.8,2.6,0.8,4.3v13h-2.4v-12.6c0-1.4-0.2-2.6-0.6-3.5s-1-1.5-1.7-1.9c-0.8-0.4-1.7-0.6-2.8-0.6
			c-1.7,0-3,0.5-4.1,1.4c-1.1,0.9-1.9,2.3-2.5,4c-0.6,1.8-0.9,3.9-0.9,6.4h-0.8C106.4,844.3,106.7,841.7,107.4,839.7z"/>
	</g>
</g>
<g>
	<g>
		<path d="M176.9,854.2c-1-0.4-1.8-1.1-2.4-1.9c-0.6-0.9-0.9-1.9-0.9-3.2c0-1.1,0.2-2,0.6-2.8c0.4-0.8,1.1-1.5,2-2
			c0.9-0.5,2.1-0.9,3.4-1.1l5.2-0.9c1.2-0.2,2-0.5,2.5-0.8c0.5-0.4,0.7-0.9,0.7-1.7c0-0.8-0.2-1.5-0.5-2.1c-0.3-0.6-0.9-1.1-1.7-1.5
			c-0.8-0.4-1.9-0.5-3.3-0.5c-2.1,0-3.6,0.5-4.6,1.4c-0.9,0.9-1.5,2.1-1.6,3.6h-2.3c0.1-1.4,0.4-2.6,1.1-3.7c0.7-1,1.6-1.8,2.8-2.4
			c1.2-0.6,2.7-0.9,4.5-0.9c1.8,0,3.2,0.3,4.4,0.8c1.1,0.5,2,1.2,2.5,2.1c0.5,0.9,0.8,2,0.8,3.2v9.3c0,0.7,0,1.6,0.1,2.5
			c0,0.9,0.1,1.9,0.2,2.8h-2.2c-0.1-0.9-0.1-1.8-0.2-2.6c-0.1-0.8-0.1-1.6-0.1-2.3c-0.3,0.9-0.7,1.8-1.3,2.6s-1.4,1.5-2.5,2
			c-1.1,0.5-2.4,0.8-3.9,0.8C179,854.8,177.9,854.6,176.9,854.2z M184.8,851.7c1.1-0.8,1.9-1.8,2.5-2.9c0.5-1.2,0.8-2.4,0.8-3.7
			v-2.2c-0.5,0.3-0.9,0.5-1.3,0.7c-0.4,0.2-1,0.3-1.7,0.5l-0.6,0.1l-3.9,0.7c-1.5,0.3-2.6,0.8-3.4,1.4c-0.7,0.7-1.1,1.6-1.1,2.8
			c0,1.3,0.4,2.2,1.2,2.8c0.8,0.6,1.9,1,3.3,1C182.3,852.8,183.7,852.5,184.8,851.7z"/>
		<path d="M195.6,834.3h2.4v4.8v0.6v22.6h-2.4V834.3z M199.2,852.1c-1.5-1.9-2.3-4.5-2.3-7.9c0-3.3,0.8-5.9,2.3-7.8s3.7-2.8,6.5-2.8
			c2,0,3.7,0.4,5,1.3c1.3,0.9,2.3,2.1,3,3.7c0.7,1.6,1,3.5,1,5.6s-0.3,4-1,5.6c-0.7,1.6-1.7,2.8-3,3.7c-1.3,0.9-3,1.3-5,1.3
			C202.9,855,200.8,854,199.2,852.1z M209.2,852c1-0.6,1.8-1.6,2.3-2.9s0.8-2.9,0.8-4.8c0-1.9-0.3-3.6-0.8-4.8
			c-0.5-1.3-1.3-2.2-2.3-2.9c-1-0.6-2.3-0.9-3.9-0.9c-1.5,0-2.7,0.3-3.8,0.9c-1.1,0.6-1.9,1.5-2.5,2.8c-0.6,1.3-0.9,2.9-0.9,4.9
			s0.3,3.6,0.9,4.9c0.6,1.3,1.5,2.2,2.5,2.9c1.1,0.6,2.4,0.9,3.8,0.9C206.9,853,208.1,852.6,209.2,852z"/>
		<path d="M219.2,834.3h2.4v7.1v0.5v12.4h-2.4V834.3z M221.7,840.1c0.6-1.9,1.5-3.4,2.8-4.5c1.3-1,2.9-1.6,4.8-1.6h0.8v2.4l-0.7,0
			c-2.1-0.1-3.7,0.3-4.8,1.3s-1.9,2.2-2.3,3.8c-0.4,1.6-0.6,3.5-0.6,5.7h-0.9C220.8,844.4,221.1,842.1,221.7,840.1z"/>
	</g>
</g>
<g>
	<g>
		<path d="M288.6,826.3h2.4v28h-2.4V826.3z"/>
		<path d="M299.7,854.1c-1.1-0.5-1.8-1.4-2.4-2.5c-0.5-1.1-0.8-2.6-0.8-4.3v-13h2.4v12.6c0,1.5,0.2,2.8,0.6,3.6
			c0.4,0.9,1,1.5,1.8,1.8c0.8,0.3,1.8,0.5,3,0.5c1.6,0,2.9-0.5,4-1.4c1.1-0.9,1.9-2.3,2.4-4.1c0.5-1.8,0.8-3.9,0.8-6.3h0.8
			c0,3.1-0.3,5.7-1,7.7s-1.6,3.6-2.9,4.6s-2.9,1.5-4.8,1.5C302.1,854.9,300.7,854.6,299.7,854.1z M311.5,847.3v-0.4v-12.6h2.4v20
			h-2.4V847.3z"/>
		<path d="M322.3,852.7c-1.3-0.8-2.3-1.9-3-3.4c-0.7-1.5-1-3.3-1-5.5c0-3.3,0.8-5.7,2.3-7.5c1.5-1.7,3.8-2.6,6.7-2.6
			c2.9,0,5.1,0.9,6.6,2.6c1.5,1.7,2.2,4.2,2.2,7.5c0,2.2-0.3,4.1-1,5.6s-1.6,2.6-2.9,3.4s-2.9,1.1-4.9,1.1
			C325.4,853.9,323.7,853.5,322.3,852.7z M323.2,861.9c-1.3-0.5-2.3-1.3-3-2.4s-1.1-2.3-1.3-3.8h2.4c0.1,1,0.3,1.8,0.8,2.6
			c0.5,0.7,1.2,1.3,2.1,1.8c1,0.5,2.2,0.7,3.7,0.7c1.7,0,3.1-0.2,4.1-0.6s1.8-1.1,2.3-2s0.7-2.1,0.7-3.6v-20.2h2.4v20.2
			c0,1.8-0.3,3.3-0.9,4.5c-0.6,1.2-1.6,2.1-3,2.8c-1.4,0.6-3.2,1-5.6,1C326.1,862.7,324.5,862.4,323.2,861.9z M331.7,851.1
			c1.1-0.5,1.9-1.4,2.5-2.6c0.6-1.2,0.9-2.8,0.9-4.7c0-1.9-0.3-3.5-0.9-4.7c-0.6-1.2-1.4-2.1-2.5-2.6c-1.1-0.5-2.3-0.8-3.8-0.8
			c-1.6,0-2.9,0.3-4,0.8s-1.8,1.4-2.3,2.6c-0.5,1.2-0.8,2.7-0.8,4.6s0.3,3.4,0.8,4.6s1.3,2.1,2.3,2.7s2.4,0.9,4,0.9
			C329.4,852,330.6,851.7,331.7,851.1z"/>
	</g>
</g>
<g>
	<g>
		<path d="M406.8,853.6c-1.5-0.9-2.6-2.2-3.3-3.8c-0.7-1.6-1.1-3.5-1.1-5.6c0-2.1,0.4-3.9,1.1-5.5c0.7-1.6,1.8-2.8,3.3-3.7
			s3.3-1.4,5.4-1.4c2.1,0,3.9,0.5,5.4,1.4c1.5,0.9,2.6,2.2,3.3,3.8c0.7,1.6,1.1,3.4,1.1,5.5c0,2.1-0.4,3.9-1.1,5.5
			c-0.7,1.6-1.9,2.9-3.3,3.8c-1.5,0.9-3.3,1.4-5.4,1.4C410.1,854.9,408.3,854.5,406.8,853.6z M405.7,849.1c0.6,1.3,1.4,2.2,2.5,2.9
			c1.1,0.6,2.4,0.9,4,0.9c1.6,0,2.9-0.3,4-0.9c1.1-0.6,1.9-1.6,2.5-2.9c0.6-1.3,0.8-2.9,0.8-4.9c0-1.9-0.3-3.6-0.8-4.8
			c-0.6-1.3-1.4-2.2-2.5-2.8c-1.1-0.6-2.4-0.9-4-0.9c-1.6,0-2.9,0.3-4,0.9c-1.1,0.6-1.9,1.6-2.5,2.8c-0.6,1.3-0.8,2.9-0.8,4.8
			C404.9,846.2,405.2,847.8,405.7,849.1z"/>
		<path d="M429,853.9c-0.5-0.2-0.9-0.6-1.1-1.1c-0.2-0.5-0.3-1.2-0.3-2v-14.6h-3.8v-1.4l4-0.6l0.8-4.2h1.4v4.3h11.3v1.9h-11.3v16.1
			h6.7v2h-5.4C430.2,854.3,429.5,854.2,429,853.9z M441.7,853.9c-0.5-0.2-0.9-0.6-1.1-1.1c-0.2-0.5-0.3-1.2-0.3-2v-14.6h-3.8v-1.4
			l3.9-0.3l0.9-4.5h1.4v4.3h6.8v1.9h-6.8v16.1h6.7v2h-5.4C443,854.3,442.3,854.2,441.7,853.9z"/>
	</g>
</g>
<g>
	<g>
		<path d="M510.2,852.7c-1.3-0.8-2.3-1.9-3-3.4c-0.7-1.5-1-3.3-1-5.5c0-3.3,0.8-5.7,2.3-7.5c1.5-1.7,3.8-2.6,6.7-2.6
			c2.9,0,5.1,0.9,6.6,2.6s2.2,4.2,2.2,7.5c0,2.2-0.3,4.1-1,5.6c-0.7,1.5-1.6,2.6-2.9,3.4s-2.9,1.1-4.9,1.1
			C513.2,853.9,511.5,853.5,510.2,852.7z M511,861.9c-1.3-0.5-2.3-1.3-3-2.4c-0.7-1-1.1-2.3-1.3-3.8h2.4c0.1,1,0.3,1.8,0.8,2.6
			c0.5,0.7,1.2,1.3,2.1,1.8c1,0.5,2.2,0.7,3.7,0.7c1.7,0,3.1-0.2,4.1-0.6c1-0.4,1.8-1.1,2.3-2c0.5-0.9,0.7-2.1,0.7-3.6v-20.2h2.4
			v20.2c0,1.8-0.3,3.3-0.9,4.5c-0.6,1.2-1.6,2.1-3,2.8c-1.4,0.6-3.2,1-5.6,1C513.9,862.7,512.3,862.4,511,861.9z M519.6,851.1
			c1.1-0.5,1.9-1.4,2.5-2.6c0.6-1.2,0.9-2.8,0.9-4.7c0-1.9-0.3-3.5-0.9-4.7c-0.6-1.2-1.4-2.1-2.5-2.6c-1.1-0.5-2.3-0.8-3.8-0.8
			c-1.6,0-2.9,0.3-4,0.8c-1,0.6-1.8,1.4-2.3,2.6s-0.8,2.7-0.8,4.6c0,1.9,0.3,3.4,0.8,4.6c0.5,1.2,1.3,2.1,2.3,2.7
			c1,0.6,2.4,0.9,4,0.9C517.2,852,518.5,851.7,519.6,851.1z"/>
		<path d="M534.1,853.6c-1.5-0.9-2.5-2.2-3.3-3.8c-0.7-1.6-1.1-3.5-1.1-5.6c0-2.1,0.4-3.9,1.1-5.5c0.7-1.6,1.8-2.8,3.3-3.7
			c1.5-0.9,3.3-1.4,5.4-1.4c1.8,0,3.4,0.4,4.8,1.2c1.4,0.8,2.4,1.9,3.2,3.4c0.7,1.5,1.1,3.2,1.1,5.2v0.5c0,0.2,0,0.5,0,0.7h-17v-1.9
			h15.7l-1,1.2c0.1-1.9-0.1-3.5-0.7-4.8s-1.3-2.1-2.3-2.7c-1-0.6-2.3-0.8-3.7-0.8c-1.6,0-2.9,0.3-4,0.9c-1.1,0.6-1.9,1.5-2.5,2.8
			c-0.6,1.3-0.9,2.9-0.9,4.9c0,2,0.3,3.7,0.9,5c0.6,1.3,1.4,2.2,2.5,2.9s2.4,0.9,4,0.9c1.4,0,2.5-0.2,3.5-0.6c0.9-0.4,1.7-1,2.2-1.7
			c0.5-0.7,0.9-1.6,1.1-2.7h2.2c-0.2,1.2-0.6,2.3-1.3,3.4c-0.7,1-1.7,1.9-3,2.6c-1.3,0.7-2.9,1-4.9,1
			C537.3,854.9,535.5,854.5,534.1,853.6z"/>
		<path d="M552.7,834.3h2.4v20h-2.4V834.3z M555.3,839.7c0.7-2,1.7-3.6,3-4.6s3-1.5,4.9-1.5c1.6,0,2.9,0.3,3.9,0.8
			c1,0.6,1.8,1.4,2.3,2.5c0.5,1.1,0.8,2.6,0.8,4.3v13h-2.4v-12.6c0-1.4-0.2-2.6-0.6-3.5s-1-1.5-1.7-1.9c-0.8-0.4-1.7-0.6-2.8-0.6
			c-1.7,0-3,0.5-4.1,1.4c-1.1,0.9-1.9,2.3-2.5,4c-0.6,1.8-0.9,3.9-0.9,6.4h-0.8C554.3,844.3,554.6,841.7,555.3,839.7z"/>
	</g>
</g>
<g>
	<g>
		<path d="M625,854.2c-1-0.4-1.8-1.1-2.4-1.9c-0.6-0.9-0.9-1.9-0.9-3.2c0-1.1,0.2-2,0.6-2.8c0.4-0.8,1.1-1.5,2-2
			c0.9-0.5,2.1-0.9,3.4-1.1l5.2-0.9c1.2-0.2,2-0.5,2.5-0.8s0.7-0.9,0.7-1.7c0-0.8-0.2-1.5-0.5-2.1c-0.3-0.6-0.9-1.1-1.7-1.5
			c-0.8-0.4-1.9-0.5-3.3-0.5c-2.1,0-3.6,0.5-4.6,1.4c-0.9,0.9-1.5,2.1-1.6,3.6h-2.3c0.1-1.4,0.4-2.6,1.1-3.7c0.7-1,1.6-1.8,2.8-2.4
			c1.2-0.6,2.7-0.9,4.5-0.9c1.8,0,3.2,0.3,4.4,0.8c1.1,0.5,2,1.2,2.5,2.1c0.5,0.9,0.8,2,0.8,3.2v9.3c0,0.7,0,1.6,0.1,2.5
			c0,0.9,0.1,1.9,0.2,2.8h-2.2c-0.1-0.9-0.1-1.8-0.2-2.6s-0.1-1.6-0.1-2.3c-0.3,0.9-0.7,1.8-1.3,2.6c-0.6,0.8-1.4,1.5-2.5,2
			c-1.1,0.5-2.4,0.8-3.9,0.8C627.1,854.8,626,854.6,625,854.2z M632.9,851.7c1.1-0.8,1.9-1.8,2.5-2.9c0.5-1.2,0.8-2.4,0.8-3.7v-2.2
			c-0.5,0.3-0.9,0.5-1.3,0.7c-0.4,0.2-1,0.3-1.7,0.5l-0.6,0.1l-3.9,0.7c-1.5,0.3-2.6,0.8-3.4,1.4c-0.7,0.7-1.1,1.6-1.1,2.8
			c0,1.3,0.4,2.2,1.2,2.8c0.8,0.6,1.9,1,3.3,1C630.4,852.8,631.8,852.5,632.9,851.7z"/>
		<path d="M643.7,834.3h2.4v4.8v0.6v22.6h-2.4V834.3z M647.3,852.1c-1.5-1.9-2.3-4.5-2.3-7.9c0-3.3,0.8-5.9,2.3-7.8
			c1.5-1.9,3.7-2.8,6.5-2.8c2,0,3.7,0.4,5,1.3c1.3,0.9,2.3,2.1,3,3.7c0.7,1.6,1,3.5,1,5.6s-0.3,4-1,5.6c-0.7,1.6-1.7,2.8-3,3.7
			c-1.3,0.9-3,1.3-5,1.3C651,855,648.8,854,647.3,852.1z M657.3,852c1-0.6,1.8-1.6,2.3-2.9c0.5-1.3,0.8-2.9,0.8-4.8
			c0-1.9-0.3-3.6-0.8-4.8c-0.5-1.3-1.3-2.2-2.3-2.9c-1-0.6-2.3-0.9-3.9-0.9c-1.5,0-2.7,0.3-3.8,0.9c-1.1,0.6-1.9,1.5-2.5,2.8
			c-0.6,1.3-0.9,2.9-0.9,4.9s0.3,3.6,0.9,4.9c0.6,1.3,1.5,2.2,2.5,2.9s2.4,0.9,3.8,0.9C654.9,853,656.2,852.6,657.3,852z"/>
		<path d="M667.3,834.3h2.4v7.1v0.5v12.4h-2.4V834.3z M669.7,840.1c0.6-1.9,1.5-3.4,2.8-4.5c1.3-1,2.9-1.6,4.8-1.6h0.8v2.4l-0.7,0
			c-2.1-0.1-3.7,0.3-4.8,1.3s-1.9,2.2-2.3,3.8c-0.4,1.6-0.6,3.5-0.6,5.7h-0.9C668.8,844.4,669.1,842.1,669.7,840.1z"/>
	</g>
</g>
<g>
	<g>
		<path d="M736.9,826.3h2.4v28h-2.4V826.3z"/>
		<path d="M748,854.1c-1.1-0.5-1.8-1.4-2.4-2.5s-0.8-2.6-0.8-4.3v-13h2.4v12.6c0,1.5,0.2,2.8,0.6,3.6c0.4,0.9,1,1.5,1.8,1.8
			c0.8,0.3,1.8,0.5,3,0.5c1.6,0,2.9-0.5,4-1.4s1.9-2.3,2.4-4.1c0.5-1.8,0.8-3.9,0.8-6.3h0.8c0,3.1-0.3,5.7-1,7.7
			c-0.6,2-1.6,3.6-2.9,4.6c-1.3,1-2.9,1.5-4.8,1.5C750.4,854.9,749.1,854.6,748,854.1z M759.8,847.3v-0.4v-12.6h2.4v20h-2.4V847.3z"
			/>
		<path d="M770.7,852.7c-1.3-0.8-2.3-1.9-3-3.4c-0.7-1.5-1-3.3-1-5.5c0-3.3,0.8-5.7,2.3-7.5c1.5-1.7,3.8-2.6,6.7-2.6
			c2.9,0,5.1,0.9,6.6,2.6c1.5,1.7,2.2,4.2,2.2,7.5c0,2.2-0.3,4.1-1,5.6c-0.7,1.5-1.6,2.6-2.9,3.4c-1.3,0.8-2.9,1.1-4.9,1.1
			C773.7,853.9,772,853.5,770.7,852.7z M771.5,861.9c-1.3-0.5-2.3-1.3-3-2.4c-0.7-1-1.1-2.3-1.3-3.8h2.4c0.1,1,0.3,1.8,0.8,2.6
			c0.5,0.7,1.2,1.3,2.1,1.8s2.2,0.7,3.7,0.7c1.7,0,3.1-0.2,4.1-0.6s1.8-1.1,2.3-2c0.5-0.9,0.7-2.1,0.7-3.6v-20.2h2.4v20.2
			c0,1.8-0.3,3.3-0.9,4.5c-0.6,1.2-1.6,2.1-3,2.8c-1.4,0.6-3.2,1-5.6,1C774.4,862.7,772.8,862.4,771.5,861.9z M780,851.1
			c1.1-0.5,1.9-1.4,2.5-2.6c0.6-1.2,0.9-2.8,0.9-4.7c0-1.9-0.3-3.5-0.9-4.7c-0.6-1.2-1.4-2.1-2.5-2.6c-1.1-0.5-2.3-0.8-3.8-0.8
			c-1.6,0-2.9,0.3-4,0.8s-1.8,1.4-2.3,2.6c-0.5,1.2-0.8,2.7-0.8,4.6s0.3,3.4,0.8,4.6c0.5,1.2,1.3,2.1,2.3,2.7s2.4,0.9,4,0.9
			C777.7,852,779,851.7,780,851.1z"/>
	</g>
</g>
<g>
	<g>
		<path d="M959.9,852.7c-1.3-0.8-2.3-1.9-3-3.4c-0.7-1.5-1-3.3-1-5.5c0-3.3,0.8-5.7,2.3-7.5s3.8-2.6,6.7-2.6c2.9,0,5.1,0.9,6.6,2.6
			c1.5,1.7,2.2,4.2,2.2,7.5c0,2.2-0.3,4.1-1,5.6c-0.7,1.5-1.6,2.6-2.9,3.4c-1.3,0.8-2.9,1.1-4.9,1.1
			C962.9,853.9,961.2,853.5,959.9,852.7z M960.7,861.9c-1.3-0.5-2.3-1.3-3-2.4c-0.7-1-1.1-2.3-1.3-3.8h2.4c0.1,1,0.3,1.8,0.8,2.6
			c0.5,0.7,1.2,1.3,2.1,1.8c1,0.5,2.2,0.7,3.7,0.7c1.7,0,3.1-0.2,4.1-0.6c1-0.4,1.8-1.1,2.3-2c0.5-0.9,0.7-2.1,0.7-3.6v-20.2h2.4
			v20.2c0,1.8-0.3,3.3-0.9,4.5c-0.6,1.2-1.6,2.1-3,2.8c-1.4,0.6-3.2,1-5.6,1C963.6,862.7,962,862.4,960.7,861.9z M969.2,851.1
			c1.1-0.5,1.9-1.4,2.5-2.6c0.6-1.2,0.9-2.8,0.9-4.7c0-1.9-0.3-3.5-0.9-4.7c-0.6-1.2-1.4-2.1-2.5-2.6c-1.1-0.5-2.3-0.8-3.8-0.8
			c-1.6,0-2.9,0.3-4,0.8c-1,0.6-1.8,1.4-2.3,2.6c-0.5,1.2-0.8,2.7-0.8,4.6c0,1.9,0.3,3.4,0.8,4.6c0.5,1.2,1.3,2.1,2.3,2.7
			c1,0.6,2.4,0.9,4,0.9C966.9,852,968.2,851.7,969.2,851.1z"/>
		<path d="M983.7,853.6c-1.5-0.9-2.5-2.2-3.3-3.8c-0.7-1.6-1.1-3.5-1.1-5.6c0-2.1,0.4-3.9,1.1-5.5s1.8-2.8,3.3-3.7
			c1.5-0.9,3.3-1.4,5.4-1.4c1.8,0,3.4,0.4,4.8,1.2c1.4,0.8,2.4,1.9,3.2,3.4c0.7,1.5,1.1,3.2,1.1,5.2v0.5c0,0.2,0,0.5,0,0.7h-17v-1.9
			h15.7l-1,1.2c0.1-1.9-0.1-3.5-0.7-4.8c-0.5-1.2-1.3-2.1-2.3-2.7c-1-0.6-2.3-0.8-3.7-0.8c-1.6,0-2.9,0.3-4,0.9
			c-1.1,0.6-1.9,1.5-2.5,2.8c-0.6,1.3-0.9,2.9-0.9,4.9c0,2,0.3,3.7,0.9,5c0.6,1.3,1.4,2.2,2.5,2.9s2.4,0.9,4,0.9
			c1.4,0,2.5-0.2,3.5-0.6c0.9-0.4,1.7-1,2.2-1.7c0.5-0.7,0.9-1.6,1.1-2.7h2.2c-0.2,1.2-0.6,2.3-1.3,3.4c-0.7,1-1.7,1.9-3,2.6
			s-2.9,1-4.9,1C987,854.9,985.2,854.5,983.7,853.6z"/>
		<path d="M1002.4,834.3h2.4v20h-2.4V834.3z M1005,839.7c0.7-2,1.7-3.6,3-4.6c1.3-1,3-1.5,4.9-1.5c1.6,0,2.9,0.3,3.9,0.8
			c1,0.6,1.8,1.4,2.3,2.5c0.5,1.1,0.8,2.6,0.8,4.3v13h-2.4v-12.6c0-1.4-0.2-2.6-0.6-3.5c-0.4-0.9-1-1.5-1.7-1.9
			c-0.8-0.4-1.7-0.6-2.8-0.6c-1.7,0-3,0.5-4.1,1.4c-1.1,0.9-1.9,2.3-2.5,4c-0.6,1.8-0.9,3.9-0.9,6.4h-0.8
			C1004,844.3,1004.3,841.7,1005,839.7z"/>
	</g>
</g>
<g>
	<g>
		<path d="M1074.7,854.2c-1-0.4-1.8-1.1-2.4-1.9c-0.6-0.9-0.9-1.9-0.9-3.2c0-1.1,0.2-2,0.6-2.8c0.4-0.8,1.1-1.5,2-2
			c0.9-0.5,2.1-0.9,3.4-1.1l5.2-0.9c1.2-0.2,2-0.5,2.5-0.8c0.5-0.4,0.7-0.9,0.7-1.7c0-0.8-0.2-1.5-0.5-2.1c-0.3-0.6-0.9-1.1-1.7-1.5
			c-0.8-0.4-1.9-0.5-3.3-0.5c-2.1,0-3.6,0.5-4.6,1.4c-0.9,0.9-1.5,2.1-1.6,3.6h-2.3c0.1-1.4,0.4-2.6,1.1-3.7s1.6-1.8,2.8-2.4
			c1.2-0.6,2.7-0.9,4.5-0.9c1.8,0,3.2,0.3,4.4,0.8s2,1.2,2.5,2.1c0.5,0.9,0.8,2,0.8,3.2v9.3c0,0.7,0,1.6,0.1,2.5s0.1,1.9,0.2,2.8
			h-2.2c-0.1-0.9-0.1-1.8-0.2-2.6c-0.1-0.8-0.1-1.6-0.1-2.3c-0.3,0.9-0.7,1.8-1.3,2.6c-0.6,0.8-1.4,1.5-2.5,2
			c-1.1,0.5-2.4,0.8-3.9,0.8C1076.8,854.8,1075.7,854.6,1074.7,854.2z M1082.6,851.7c1.1-0.8,1.9-1.8,2.5-2.9
			c0.5-1.2,0.8-2.4,0.8-3.7v-2.2c-0.5,0.3-0.9,0.5-1.3,0.7c-0.4,0.2-1,0.3-1.7,0.5l-0.6,0.1l-3.9,0.7c-1.5,0.3-2.6,0.8-3.4,1.4
			c-0.7,0.7-1.1,1.6-1.1,2.8c0,1.3,0.4,2.2,1.2,2.8c0.8,0.6,1.9,1,3.3,1C1080.1,852.8,1081.5,852.5,1082.6,851.7z"/>
		<path d="M1093.4,834.3h2.4v4.8v0.6v22.6h-2.4V834.3z M1097,852.1c-1.5-1.9-2.3-4.5-2.3-7.9c0-3.3,0.8-5.9,2.3-7.8
			c1.5-1.9,3.7-2.8,6.5-2.8c2,0,3.7,0.4,5,1.3c1.3,0.9,2.3,2.1,3,3.7c0.7,1.6,1,3.5,1,5.6s-0.3,4-1,5.6c-0.7,1.6-1.7,2.8-3,3.7
			c-1.3,0.9-3,1.3-5,1.3C1100.7,855,1098.5,854,1097,852.1z M1106.9,852c1-0.6,1.8-1.6,2.3-2.9c0.5-1.3,0.8-2.9,0.8-4.8
			c0-1.9-0.3-3.6-0.8-4.8c-0.5-1.3-1.3-2.2-2.3-2.9c-1-0.6-2.3-0.9-3.9-0.9c-1.5,0-2.7,0.3-3.8,0.9c-1.1,0.6-1.9,1.5-2.5,2.8
			c-0.6,1.3-0.9,2.9-0.9,4.9s0.3,3.6,0.9,4.9c0.6,1.3,1.5,2.2,2.5,2.9c1.1,0.6,2.4,0.9,3.8,0.9C1104.6,853,1105.9,852.6,1106.9,852z
			"/>
		<path d="M1117,834.3h2.4v7.1v0.5v12.4h-2.4V834.3z M1119.4,840.1c0.6-1.9,1.5-3.4,2.8-4.5s2.9-1.6,4.8-1.6h0.8v2.4l-0.7,0
			c-2.1-0.1-3.7,0.3-4.8,1.3s-1.9,2.2-2.3,3.8c-0.4,1.6-0.6,3.5-0.6,5.7h-0.9C1118.5,844.4,1118.8,842.1,1119.4,840.1z"/>
	</g>
</g>
<g>
	<g>
		<path d="M1186.6,826.3h2.4v28h-2.4V826.3z"/>
		<path d="M1197.7,854.1c-1.1-0.5-1.8-1.4-2.4-2.5c-0.5-1.1-0.8-2.6-0.8-4.3v-13h2.4v12.6c0,1.5,0.2,2.8,0.6,3.6
			c0.4,0.9,1,1.5,1.8,1.8c0.8,0.3,1.8,0.5,3,0.5c1.6,0,2.9-0.5,4-1.4c1.1-0.9,1.9-2.3,2.4-4.1c0.5-1.8,0.8-3.9,0.8-6.3h0.8
			c0,3.1-0.3,5.7-1,7.7c-0.6,2-1.6,3.6-2.9,4.6c-1.3,1-2.9,1.5-4.8,1.5C1200.1,854.9,1198.7,854.6,1197.7,854.1z M1209.5,847.3v-0.4
			v-12.6h2.4v20h-2.4V847.3z"/>
		<path d="M1220.3,852.7c-1.3-0.8-2.3-1.9-3-3.4c-0.7-1.5-1-3.3-1-5.5c0-3.3,0.8-5.7,2.3-7.5c1.5-1.7,3.8-2.6,6.7-2.6
			c2.9,0,5.1,0.9,6.6,2.6c1.5,1.7,2.2,4.2,2.2,7.5c0,2.2-0.3,4.1-1,5.6c-0.7,1.5-1.6,2.6-2.9,3.4c-1.3,0.8-2.9,1.1-4.9,1.1
			C1223.4,853.9,1221.7,853.5,1220.3,852.7z M1221.2,861.9c-1.3-0.5-2.3-1.3-3-2.4c-0.7-1-1.1-2.3-1.3-3.8h2.4
			c0.1,1,0.3,1.8,0.8,2.6c0.5,0.7,1.2,1.3,2.1,1.8c1,0.5,2.2,0.7,3.7,0.7c1.7,0,3.1-0.2,4.1-0.6s1.8-1.1,2.3-2
			c0.5-0.9,0.7-2.1,0.7-3.6v-20.2h2.4v20.2c0,1.8-0.3,3.3-0.9,4.5c-0.6,1.2-1.6,2.1-3,2.8c-1.4,0.6-3.2,1-5.6,1
			C1224.1,862.7,1222.5,862.4,1221.2,861.9z M1229.7,851.1c1.1-0.5,1.9-1.4,2.5-2.6c0.6-1.2,0.9-2.8,0.9-4.7c0-1.9-0.3-3.5-0.9-4.7
			c-0.6-1.2-1.4-2.1-2.5-2.6c-1.1-0.5-2.3-0.8-3.8-0.8c-1.6,0-2.9,0.3-4,0.8s-1.8,1.4-2.3,2.6c-0.5,1.2-0.8,2.7-0.8,4.6
			s0.3,3.4,0.8,4.6c0.5,1.2,1.3,2.1,2.3,2.7s2.4,0.9,4,0.9C1227.4,852,1228.6,851.7,1229.7,851.1z"/>
	</g>
</g>
<g>
	<g>
		<path d="M854.2,853.6c-1.5-0.9-2.6-2.2-3.3-3.8c-0.7-1.6-1.1-3.5-1.1-5.6c0-2.1,0.4-3.9,1.1-5.5c0.7-1.6,1.8-2.8,3.3-3.7
			c1.5-0.9,3.3-1.4,5.4-1.4c2.1,0,3.9,0.5,5.4,1.4c1.5,0.9,2.6,2.2,3.3,3.8c0.7,1.6,1.1,3.4,1.1,5.5c0,2.1-0.4,3.9-1.1,5.5
			c-0.7,1.6-1.9,2.9-3.3,3.8c-1.5,0.9-3.3,1.4-5.4,1.4C857.5,854.9,855.7,854.5,854.2,853.6z M853.1,849.1c0.6,1.3,1.4,2.2,2.5,2.9
			c1.1,0.6,2.4,0.9,4,0.9c1.6,0,2.9-0.3,4-0.9c1.1-0.6,1.9-1.6,2.5-2.9c0.6-1.3,0.8-2.9,0.8-4.9c0-1.9-0.3-3.6-0.8-4.8
			c-0.6-1.3-1.4-2.2-2.5-2.8c-1.1-0.6-2.4-0.9-4-0.9c-1.6,0-2.9,0.3-4,0.9c-1.1,0.6-1.9,1.6-2.5,2.8c-0.6,1.3-0.8,2.9-0.8,4.8
			C852.3,846.2,852.5,847.8,853.1,849.1z"/>
		<path d="M876.3,853.9c-0.5-0.2-0.9-0.6-1.1-1.1c-0.2-0.5-0.3-1.2-0.3-2v-14.6h-3.8v-1.4l4-0.6l0.8-4.2h1.4v4.3h11.3v1.9h-11.3
			v16.1h6.7v2h-5.4C877.6,854.3,876.9,854.2,876.3,853.9z M889.1,853.9c-0.5-0.2-0.9-0.6-1.1-1.1c-0.2-0.5-0.3-1.2-0.3-2v-14.6h-3.8
			v-1.4l3.9-0.3l0.9-4.5h1.4v4.3h6.8v1.9h-6.8v16.1h6.7v2h-5.4C890.4,854.3,889.6,854.2,889.1,853.9z"/>
	</g>
</g>
<line class="st14" x1="90.8" y1="804.6" x2="90.8" y2="915.5"/>
<line class="st14" x1="538.7" y1="804.6" x2="538.7" y2="915.5"/>
<line class="st14" x1="986.3" y1="804.6" x2="986.3" y2="915.5"/>
<line class="st14" x1="1209.2" y1="804.6" x2="1209.2" y2="915.5"/>
<line class="st15" x1="1154.1" y1="915.5" x2="1209.4" y2="915.5"/>
<line class="st15" x1="815.5" y1="915.5" x2="1045.8" y2="915.5"/>
<line class="st15" x1="367.8" y1="915.5" x2="707.2" y2="915.5"/>
<line class="st15" x1="90.8" y1="915.5" x2="259.5" y2="915.5"/>
<g>
	<g>
		<path d="M268.9,925.3l12.8-11.1c1.5-1.3,2.5-2.5,3.1-3.4c0.6-1,0.9-2.1,0.9-3.4c0-1.6-0.5-2.8-1.6-3.8c-1-0.9-2.6-1.4-4.6-1.4
			c-1.8,0-3.3,0.3-4.4,1c-1.2,0.7-2,1.7-2.6,3c-0.6,1.3-0.9,3.1-0.9,5.1h-2.6c0-2.4,0.4-4.4,1.2-6.1s2-3,3.5-3.8
			c1.5-0.9,3.5-1.3,5.8-1.3c2,0,3.7,0.3,5,1c1.3,0.7,2.3,1.5,2.9,2.6c0.6,1.1,0.9,2.3,0.9,3.6c0,1.6-0.4,3.1-1.3,4.5
			c-0.9,1.4-2.4,3-4.5,4.9l-10,8.6h16.4v2.1h-19.9V925.3z"/>
		<path d="M297.7,926.4c-1.7-1.2-3-2.8-3.9-4.9c-0.9-2.1-1.3-4.6-1.3-7.4c0-2.7,0.4-5.2,1.3-7.3c0.9-2.1,2.2-3.7,3.9-4.9
			c1.7-1.2,3.9-1.8,6.4-1.8c2.6,0,4.7,0.6,6.5,1.8s3,2.8,3.9,4.9c0.9,2.1,1.3,4.5,1.3,7.3c0,2.8-0.4,5.3-1.3,7.4
			c-0.9,2.1-2.1,3.7-3.9,4.9s-3.9,1.8-6.5,1.8C301.6,928.1,299.4,927.5,297.7,926.4z M296.1,920.7c0.7,1.8,1.7,3.1,3,4s3,1.3,5,1.3
			s3.7-0.4,5-1.3s2.3-2.2,3-4c0.7-1.8,1-4,1-6.7c0-2.6-0.3-4.8-1-6.6s-1.7-3.1-3-4s-3-1.3-5-1.3s-3.7,0.4-5,1.3s-2.3,2.2-3,4
			s-1,4-1,6.6C295.1,916.7,295.4,919,296.1,920.7z"/>
		<path d="M320.2,925.3l12.8-11.1c1.5-1.3,2.5-2.5,3.1-3.4c0.6-1,0.9-2.1,0.9-3.4c0-1.6-0.5-2.8-1.6-3.8c-1-0.9-2.6-1.4-4.6-1.4
			c-1.8,0-3.3,0.3-4.4,1c-1.2,0.7-2,1.7-2.6,3c-0.6,1.3-0.9,3.1-0.9,5.1h-2.6c0-2.4,0.4-4.4,1.2-6.1s2-3,3.5-3.8
			c1.5-0.9,3.5-1.3,5.8-1.3c2,0,3.7,0.3,5,1c1.3,0.7,2.3,1.5,2.9,2.6c0.6,1.1,0.9,2.3,0.9,3.6c0,1.6-0.4,3.1-1.3,4.5
			c-0.9,1.4-2.4,3-4.5,4.9l-10,8.6h16.4v2.1h-19.9V925.3z"/>
		<path d="M344.4,925.3h6.2V903h-6.2v-2.1h5.7c1.1,0,1.9,0.2,2.4,0.7c0.5,0.5,0.7,1.2,0.7,2.1v21.7h5.7v2.1h-14.4V925.3z"/>
	</g>
</g>
<g>
	<g>
		<path d="M713.3,925.3l12.8-11.1c1.5-1.3,2.5-2.5,3.1-3.4c0.6-1,0.9-2.1,0.9-3.4c0-1.6-0.5-2.8-1.6-3.8c-1-0.9-2.6-1.4-4.6-1.4
			c-1.8,0-3.3,0.3-4.4,1c-1.2,0.7-2,1.7-2.6,3c-0.6,1.3-0.9,3.1-0.9,5.1h-2.6c0-2.4,0.4-4.4,1.2-6.1c0.8-1.7,2-3,3.5-3.8
			s3.5-1.3,5.8-1.3c2,0,3.7,0.3,5,1c1.3,0.7,2.3,1.5,2.9,2.6c0.6,1.1,0.9,2.3,0.9,3.6c0,1.6-0.4,3.1-1.3,4.5c-0.9,1.4-2.4,3-4.5,4.9
			l-10,8.6h16.4v2.1h-19.9V925.3z"/>
		<path d="M742,926.4c-1.7-1.2-3-2.8-3.9-4.9c-0.9-2.1-1.3-4.6-1.3-7.4c0-2.7,0.4-5.2,1.3-7.3c0.9-2.1,2.2-3.7,3.9-4.9
			s3.9-1.8,6.4-1.8c2.6,0,4.7,0.6,6.5,1.8s3,2.8,3.9,4.9c0.9,2.1,1.3,4.5,1.3,7.3c0,2.8-0.4,5.3-1.3,7.4c-0.9,2.1-2.1,3.7-3.9,4.9
			s-3.9,1.8-6.5,1.8C745.9,928.1,743.8,927.5,742,926.4z M740.5,920.7c0.7,1.8,1.7,3.1,3,4c1.3,0.9,3,1.3,5,1.3s3.7-0.4,5-1.3
			c1.3-0.9,2.3-2.2,3-4c0.7-1.8,1-4,1-6.7c0-2.6-0.3-4.8-1-6.6c-0.7-1.8-1.7-3.1-3-4c-1.3-0.9-3-1.3-5-1.3s-3.7,0.4-5,1.3
			c-1.3,0.9-2.3,2.2-3,4c-0.7,1.8-1,4-1,6.6C739.5,916.7,739.8,919,740.5,920.7z"/>
		<path d="M764.5,925.3l12.8-11.1c1.5-1.3,2.5-2.5,3.1-3.4s0.9-2.1,0.9-3.4c0-1.6-0.5-2.8-1.6-3.8c-1-0.9-2.6-1.4-4.6-1.4
			c-1.8,0-3.3,0.3-4.4,1c-1.2,0.7-2,1.7-2.6,3c-0.6,1.3-0.9,3.1-0.9,5.1h-2.6c0-2.4,0.4-4.4,1.2-6.1c0.8-1.7,2-3,3.5-3.8
			c1.5-0.9,3.5-1.3,5.8-1.3c2,0,3.7,0.3,5,1c1.3,0.7,2.3,1.5,2.9,2.6c0.6,1.1,0.9,2.3,0.9,3.6c0,1.6-0.4,3.1-1.3,4.5
			c-0.9,1.4-2.4,3-4.5,4.9l-10,8.6h16.4v2.1h-19.9V925.3z"/>
		<path d="M789,925.3l12.8-11.1c1.5-1.3,2.5-2.5,3.1-3.4c0.6-1,0.9-2.1,0.9-3.4c0-1.6-0.5-2.8-1.6-3.8c-1-0.9-2.6-1.4-4.6-1.4
			c-1.8,0-3.3,0.3-4.4,1c-1.2,0.7-2,1.7-2.6,3c-0.6,1.3-0.9,3.1-0.9,5.1H789c0-2.4,0.4-4.4,1.2-6.1c0.8-1.7,2-3,3.5-3.8
			s3.5-1.3,5.8-1.3c2,0,3.7,0.3,5,1c1.3,0.7,2.3,1.5,2.9,2.6c0.6,1.1,0.9,2.3,0.9,3.6c0,1.6-0.4,3.1-1.3,4.5c-0.9,1.4-2.4,3-4.5,4.9
			l-10,8.6h16.4v2.1H789V925.3z"/>
	</g>
</g>
<g>
	<g>
		<path d="M1051.7,925.3l12.8-11.1c1.5-1.3,2.5-2.5,3.1-3.4c0.6-1,0.9-2.1,0.9-3.4c0-1.6-0.5-2.8-1.6-3.8c-1-0.9-2.6-1.4-4.6-1.4
			c-1.8,0-3.3,0.3-4.4,1c-1.2,0.7-2,1.7-2.6,3c-0.6,1.3-0.9,3.1-0.9,5.1h-2.6c0-2.4,0.4-4.4,1.2-6.1c0.8-1.7,2-3,3.5-3.8
			s3.5-1.3,5.8-1.3c2,0,3.7,0.3,5,1c1.3,0.7,2.3,1.5,2.9,2.6c0.6,1.1,0.9,2.3,0.9,3.6c0,1.6-0.4,3.1-1.3,4.5c-0.9,1.4-2.4,3-4.5,4.9
			l-10,8.6h16.4v2.1h-19.9V925.3z"/>
		<path d="M1080.4,926.4c-1.7-1.2-3-2.8-3.9-4.9c-0.9-2.1-1.3-4.6-1.3-7.4c0-2.7,0.4-5.2,1.3-7.3c0.9-2.1,2.2-3.7,3.9-4.9
			c1.7-1.2,3.9-1.8,6.4-1.8c2.6,0,4.7,0.6,6.5,1.8c1.7,1.2,3,2.8,3.9,4.9c0.9,2.1,1.3,4.5,1.3,7.3c0,2.8-0.4,5.3-1.3,7.4
			c-0.9,2.1-2.1,3.7-3.9,4.9c-1.7,1.2-3.9,1.8-6.5,1.8C1084.3,928.1,1082.2,927.5,1080.4,926.4z M1078.9,920.7c0.7,1.8,1.7,3.1,3,4
			s3,1.3,5,1.3s3.7-0.4,5-1.3s2.3-2.2,3-4c0.7-1.8,1-4,1-6.7c0-2.6-0.3-4.8-1-6.6s-1.7-3.1-3-4s-3-1.3-5-1.3s-3.7,0.4-5,1.3
			s-2.3,2.2-3,4s-1,4-1,6.6C1077.9,916.7,1078.2,919,1078.9,920.7z"/>
		<path d="M1102.9,925.3l12.8-11.1c1.5-1.3,2.5-2.5,3.1-3.4c0.6-1,0.9-2.1,0.9-3.4c0-1.6-0.5-2.8-1.6-3.8c-1-0.9-2.6-1.4-4.6-1.4
			c-1.8,0-3.3,0.3-4.4,1c-1.2,0.7-2,1.7-2.6,3s-0.9,3.1-0.9,5.1h-2.6c0-2.4,0.4-4.4,1.2-6.1s2-3,3.5-3.8s3.5-1.3,5.8-1.3
			c2,0,3.7,0.3,5,1s2.3,1.5,2.9,2.6c0.6,1.1,0.9,2.3,0.9,3.6c0,1.6-0.4,3.1-1.3,4.5c-0.9,1.4-2.4,3-4.5,4.9l-10,8.6h16.4v2.1h-19.9
			V925.3z"/>
		<path d="M1130,922.3c0.6,1.1,1.4,2,2.6,2.7c1.1,0.7,2.6,1.1,4.3,1.1c2.6,0,4.5-0.6,5.8-1.8c1.3-1.2,2-2.9,2-5.1
			c0-1.9-0.5-3.5-1.6-4.6c-1-1.1-2.5-1.7-4.5-1.7c-1,0-1.8,0.1-2.6,0.3c-0.7,0.2-1.5,0.6-2.4,1l-1.2-1.6l10.8-9.6h-15.8v-2.1h18.8
			v2.1l-9.7,8.8c0.9-0.2,1.9-0.4,2.9-0.4c1.5,0,2.8,0.3,4,0.9c1.2,0.6,2.1,1.5,2.8,2.7c0.7,1.2,1,2.6,1,4.2c0,1.6-0.4,3.1-1.1,4.5
			c-0.7,1.4-1.9,2.5-3.5,3.3c-1.6,0.8-3.6,1.2-6,1.2c-2.2,0-4.1-0.4-5.6-1.3c-1.5-0.8-2.7-2-3.5-3.4c-0.8-1.4-1.2-3-1.3-4.7h2.6
			C1129.1,920,1129.4,921.2,1130,922.3z"/>
	</g>
</g>
<g>
	<g>
		<path d="M23,387.6h5v-17.9h-5V368h4.5c0.9,0,1.5,0.2,1.9,0.5c0.4,0.4,0.6,0.9,0.6,1.7v17.3h4.6v1.7H23V387.6z"/>
		<path d="M48.4,383.6H36.5v-1.7l10.7-14h2.2l-10.8,14h9.8v-14h2v14H54v1.7h-3.6v5.7h-2V383.6z"/>
		<path d="M60.3,388.4c-1.4-0.9-2.4-2.2-3.1-3.9c-0.7-1.7-1-3.6-1-5.9c0-2.2,0.3-4.1,1-5.8c0.7-1.7,1.7-3,3.1-3.9
			c1.4-0.9,3.1-1.4,5.2-1.4c2.1,0,3.8,0.5,5.2,1.4c1.4,0.9,2.4,2.3,3.1,3.9c0.7,1.7,1,3.6,1,5.8c0,2.2-0.3,4.2-1,5.9
			c-0.7,1.7-1.7,3-3.1,3.9c-1.4,0.9-3.1,1.4-5.2,1.4C63.5,389.8,61.7,389.3,60.3,388.4z M59.1,383.9c0.5,1.4,1.3,2.5,2.4,3.2
			c1.1,0.7,2.4,1.1,4,1.1c1.6,0,2.9-0.4,4-1.1c1.1-0.7,1.9-1.8,2.4-3.2c0.5-1.4,0.8-3.2,0.8-5.3c0-2.1-0.3-3.9-0.8-5.3
			c-0.5-1.4-1.3-2.5-2.4-3.2c-1.1-0.7-2.4-1.1-4-1.1c-1.6,0-2.9,0.4-4,1.1c-1.1,0.7-1.9,1.8-2.4,3.2c-0.5,1.4-0.8,3.2-0.8,5.3
			C58.3,380.7,58.6,382.5,59.1,383.9z"/>
	</g>
</g>
<g>
	<g>
		<path d="M23.2,351.9h5V334h-5v-1.7h4.5c0.9,0,1.5,0.2,1.9,0.5c0.4,0.4,0.6,0.9,0.6,1.7v17.3h4.6v1.7H23.2V351.9z"/>
		<path d="M40.9,353c-1.2-0.7-2.2-1.9-2.8-3.5c-0.7-1.6-1-3.6-1-6.2c0-2.4,0.3-4.5,1-6.2c0.7-1.7,1.7-3.1,3-4c1.3-0.9,3-1.4,4.9-1.4
			c1.5,0,2.8,0.3,3.9,0.8c1,0.5,1.8,1.2,2.4,2.1c0.6,0.9,0.9,2,1.1,3.2h-2c-0.1-0.9-0.4-1.7-0.8-2.4c-0.5-0.7-1.1-1.1-1.8-1.5
			c-0.8-0.3-1.6-0.5-2.7-0.5c-2.3,0-4,0.9-5.2,2.6c-1.2,1.7-1.8,4.5-1.8,8.4v1.6l-0.4-0.2c0.4-1.6,1.2-2.9,2.5-4s3-1.5,5-1.5
			c1.4,0,2.6,0.3,3.7,0.8c1.1,0.5,2,1.3,2.6,2.3c0.7,1,1,2.3,1,3.7c0,1.3-0.3,2.5-0.9,3.6c-0.6,1.1-1.5,1.9-2.7,2.5
			s-2.6,0.9-4.3,0.9C43.7,354.1,42.2,353.7,40.9,353z M49.8,351c1-1,1.4-2.3,1.4-3.9c0-1.6-0.5-2.9-1.4-3.9c-0.9-1-2.3-1.5-4.2-1.5
			c-1.1,0-2.2,0.2-3.1,0.7c-0.9,0.4-1.7,1.1-2.2,1.9c-0.5,0.8-0.8,1.7-0.8,2.8c0,1.6,0.5,3,1.6,3.9c1.1,1,2.5,1.5,4.4,1.5
			C47.3,352.4,48.8,352,49.8,351z"/>
		<path d="M60.3,352.7c-1.4-0.9-2.4-2.2-3.1-3.9c-0.7-1.7-1-3.6-1-5.9c0-2.2,0.3-4.1,1-5.8c0.7-1.7,1.7-3,3.1-3.9
			c1.4-0.9,3.1-1.4,5.2-1.4c2.1,0,3.8,0.5,5.2,1.4c1.4,0.9,2.4,2.3,3.1,3.9c0.7,1.7,1,3.6,1,5.8c0,2.2-0.3,4.2-1,5.9
			c-0.7,1.7-1.7,3-3.1,3.9c-1.4,0.9-3.1,1.4-5.2,1.4C63.5,354.1,61.7,353.6,60.3,352.7z M59.1,348.2c0.5,1.4,1.3,2.5,2.4,3.2
			c1.1,0.7,2.4,1.1,4,1.1c1.6,0,2.9-0.4,4-1.1c1.1-0.7,1.9-1.8,2.4-3.2c0.5-1.4,0.8-3.2,0.8-5.3c0-2.1-0.3-3.9-0.8-5.3
			c-0.5-1.4-1.3-2.5-2.4-3.2c-1.1-0.7-2.4-1.1-4-1.1c-1.6,0-2.9,0.4-4,1.1c-1.1,0.7-1.9,1.8-2.4,3.2c-0.5,1.4-0.8,3.2-0.8,5.3
			C58.3,345,58.6,346.8,59.1,348.2z"/>
	</g>
</g>
<g>
	<g>
		<path d="M23,312.1h5v-17.9h-5v-1.7h4.5c0.9,0,1.5,0.2,1.9,0.5c0.4,0.4,0.6,0.9,0.6,1.7v17.3h4.6v1.7H23V312.1z"/>
		<path d="M40.5,313.4c-1.2-0.5-2.1-1.3-2.7-2.2c-0.6-0.9-0.9-2-0.9-3.1c0-1.5,0.4-2.7,1.3-3.6c0.8-0.9,2-1.5,3.5-2
			c-1.4-0.4-2.4-1-3.1-1.9s-1.1-1.9-1.1-3.1c0-1,0.3-2,0.8-2.8c0.6-0.8,1.4-1.5,2.5-2c1.1-0.5,2.5-0.8,4.2-0.8s3,0.3,4.2,0.8
			c1.1,0.5,2,1.2,2.5,2c0.6,0.8,0.8,1.8,0.8,2.8c0,1.2-0.4,2.2-1.1,3.1c-0.7,0.9-1.8,1.5-3.1,1.9c1,0.3,1.8,0.7,2.5,1.2
			c0.7,0.5,1.3,1.1,1.7,1.8s0.6,1.6,0.6,2.6c0,1.1-0.3,2.2-0.9,3.1c-0.6,0.9-1.5,1.7-2.7,2.2c-1.2,0.6-2.7,0.8-4.6,0.8
			S41.7,314,40.5,313.4z M48.5,312c0.9-0.4,1.6-0.9,2-1.6c0.4-0.7,0.6-1.5,0.6-2.3c0-1.5-0.5-2.6-1.5-3.4c-1-0.8-2.5-1.2-4.5-1.2
			c-1.3,0-2.5,0.2-3.4,0.6c-0.9,0.4-1.6,0.9-2,1.6c-0.4,0.7-0.7,1.5-0.7,2.5c0,1.4,0.5,2.5,1.5,3.3c1,0.8,2.5,1.3,4.5,1.3
			C46.4,312.6,47.6,312.4,48.5,312z M48.2,301.3c0.8-0.4,1.4-0.9,1.8-1.6c0.4-0.6,0.6-1.3,0.6-2.1c0-1.2-0.5-2.2-1.4-3
			c-0.9-0.7-2.3-1.1-4.2-1.1c-1.2,0-2.3,0.2-3.1,0.5c-0.8,0.3-1.5,0.8-1.9,1.4c-0.4,0.6-0.6,1.3-0.6,2.1c0,0.7,0.2,1.4,0.6,2.1
			c0.4,0.6,1,1.1,1.8,1.6c0.8,0.4,1.9,0.6,3.2,0.6C46.3,301.9,47.4,301.7,48.2,301.3z"/>
		<path d="M60.3,312.9c-1.4-0.9-2.4-2.2-3.1-3.9c-0.7-1.7-1-3.6-1-5.9c0-2.2,0.3-4.1,1-5.8c0.7-1.7,1.7-3,3.1-3.9
			c1.4-0.9,3.1-1.4,5.2-1.4c2.1,0,3.8,0.5,5.2,1.4c1.4,0.9,2.4,2.3,3.1,3.9c0.7,1.7,1,3.6,1,5.8c0,2.2-0.3,4.2-1,5.9
			c-0.7,1.7-1.7,3-3.1,3.9c-1.4,0.9-3.1,1.4-5.2,1.4C63.5,314.3,61.7,313.8,60.3,312.9z M59.1,308.4c0.5,1.4,1.3,2.5,2.4,3.2
			c1.1,0.7,2.4,1.1,4,1.1c1.6,0,2.9-0.4,4-1.1c1.1-0.7,1.9-1.8,2.4-3.2c0.5-1.4,0.8-3.2,0.8-5.3c0-2.1-0.3-3.9-0.8-5.3
			c-0.5-1.4-1.3-2.5-2.4-3.2c-1.1-0.7-2.4-1.1-4-1.1c-1.6,0-2.9,0.4-4,1.1c-1.1,0.7-1.9,1.8-2.4,3.2c-0.5,1.4-0.8,3.2-0.8,5.3
			C58.3,305.2,58.6,307,59.1,308.4z"/>
	</g>
</g>
<g>
	<g>
		<path d="M15.9,275l10.2-8.9c1.2-1.1,2-2,2.4-2.8c0.5-0.8,0.7-1.7,0.7-2.7c0-1.3-0.4-2.3-1.2-3c-0.8-0.8-2.1-1.1-3.7-1.1
			c-1.4,0-2.6,0.3-3.5,0.8c-0.9,0.5-1.6,1.3-2.1,2.4c-0.5,1.1-0.7,2.4-0.7,4.1h-2c0-1.9,0.3-3.5,1-4.9c0.6-1.3,1.6-2.4,2.8-3.1
			c1.2-0.7,2.8-1.1,4.6-1.1c1.6,0,2.9,0.3,4,0.8c1.1,0.5,1.9,1.2,2.4,2.1c0.5,0.9,0.8,1.8,0.8,2.9c0,1.3-0.4,2.5-1.1,3.6
			s-1.9,2.4-3.6,3.9l-8,6.9h13.1v1.7H15.9V275z"/>
		<path d="M38.9,275.9c-1.4-0.9-2.4-2.2-3.1-3.9c-0.7-1.7-1-3.6-1-5.9c0-2.2,0.3-4.1,1-5.8c0.7-1.7,1.7-3,3.1-3.9
			c1.4-0.9,3.1-1.4,5.2-1.4c2.1,0,3.8,0.5,5.2,1.4c1.4,0.9,2.4,2.3,3.1,3.9c0.7,1.7,1,3.6,1,5.8c0,2.2-0.3,4.2-1,5.9
			c-0.7,1.7-1.7,3-3.1,3.9c-1.4,0.9-3.1,1.4-5.2,1.4C42,277.3,40.3,276.8,38.9,275.9z M37.7,271.4c0.5,1.4,1.3,2.5,2.4,3.2
			c1.1,0.7,2.4,1.1,4,1.1s2.9-0.4,4-1.1c1.1-0.7,1.9-1.8,2.4-3.2c0.5-1.4,0.8-3.2,0.8-5.3c0-2.1-0.3-3.9-0.8-5.3
			c-0.5-1.4-1.3-2.5-2.4-3.2c-1.1-0.7-2.4-1.1-4-1.1s-2.9,0.4-4,1.1c-1.1,0.7-1.9,1.8-2.4,3.2c-0.5,1.4-0.8,3.2-0.8,5.3
			C36.9,268.2,37.2,270,37.7,271.4z"/>
		<path d="M60.3,275.9c-1.4-0.9-2.4-2.2-3.1-3.9c-0.7-1.7-1-3.6-1-5.9c0-2.2,0.3-4.1,1-5.8c0.7-1.7,1.7-3,3.1-3.9
			c1.4-0.9,3.1-1.4,5.2-1.4c2.1,0,3.8,0.5,5.2,1.4c1.4,0.9,2.4,2.3,3.1,3.9c0.7,1.7,1,3.6,1,5.8c0,2.2-0.3,4.2-1,5.9
			c-0.7,1.7-1.7,3-3.1,3.9c-1.4,0.9-3.1,1.4-5.2,1.4C63.5,277.3,61.7,276.8,60.3,275.9z M59.1,271.4c0.5,1.4,1.3,2.5,2.4,3.2
			c1.1,0.7,2.4,1.1,4,1.1c1.6,0,2.9-0.4,4-1.1c1.1-0.7,1.9-1.8,2.4-3.2c0.5-1.4,0.8-3.2,0.8-5.3c0-2.1-0.3-3.9-0.8-5.3
			c-0.5-1.4-1.3-2.5-2.4-3.2c-1.1-0.7-2.4-1.1-4-1.1c-1.6,0-2.9,0.4-4,1.1c-1.1,0.7-1.9,1.8-2.4,3.2c-0.5,1.4-0.8,3.2-0.8,5.3
			C58.3,268.2,58.6,270,59.1,271.4z"/>
	</g>
</g>
<g>
	<g>
		<path d="M17.8,238l10.2-8.9c1.2-1.1,2-2,2.4-2.8c0.5-0.8,0.7-1.7,0.7-2.7c0-1.3-0.4-2.3-1.2-3c-0.8-0.8-2.1-1.1-3.7-1.1
			c-1.4,0-2.6,0.3-3.5,0.8c-0.9,0.5-1.6,1.3-2.1,2.4c-0.5,1.1-0.7,2.4-0.7,4.1h-2c0-1.9,0.3-3.5,1-4.9c0.6-1.3,1.6-2.4,2.8-3.1
			c1.2-0.7,2.8-1.1,4.6-1.1c1.6,0,2.9,0.3,4,0.8c1.1,0.5,1.9,1.2,2.4,2.1c0.5,0.9,0.8,1.8,0.8,2.9c0,1.3-0.4,2.5-1.1,3.6
			s-1.9,2.4-3.6,3.9l-8,6.9h13.1v1.7H17.8V238z"/>
		<path d="M37.3,238l10.2-8.9c1.2-1.1,2-2,2.4-2.8c0.5-0.8,0.7-1.7,0.7-2.7c0-1.3-0.4-2.3-1.2-3c-0.8-0.8-2.1-1.1-3.7-1.1
			c-1.4,0-2.6,0.3-3.5,0.8c-0.9,0.5-1.6,1.3-2.1,2.4c-0.5,1.1-0.7,2.4-0.7,4.1h-2c0-1.9,0.3-3.5,1-4.9c0.6-1.3,1.6-2.4,2.8-3.1
			c1.2-0.7,2.8-1.1,4.6-1.1c1.6,0,2.9,0.3,4,0.8c1.1,0.5,1.9,1.2,2.4,2.1c0.5,0.9,0.8,1.8,0.8,2.9c0,1.3-0.4,2.5-1.1,3.6
			s-1.9,2.4-3.6,3.9l-8,6.9h13.1v1.7H37.3V238z"/>
		<path d="M60.3,238.9c-1.4-0.9-2.4-2.2-3.1-3.9c-0.7-1.7-1-3.6-1-5.9c0-2.2,0.3-4.1,1-5.8c0.7-1.7,1.7-3,3.1-3.9
			c1.4-0.9,3.1-1.4,5.2-1.4c2.1,0,3.8,0.5,5.2,1.4c1.4,0.9,2.4,2.3,3.1,3.9c0.7,1.7,1,3.6,1,5.8c0,2.2-0.3,4.2-1,5.9
			c-0.7,1.7-1.7,3-3.1,3.9c-1.4,0.9-3.1,1.4-5.2,1.4C63.5,240.3,61.7,239.8,60.3,238.9z M59.1,234.4c0.5,1.4,1.3,2.5,2.4,3.2
			c1.1,0.7,2.4,1.1,4,1.1c1.6,0,2.9-0.4,4-1.1c1.1-0.7,1.9-1.8,2.4-3.2c0.5-1.4,0.8-3.2,0.8-5.3c0-2.1-0.3-3.9-0.8-5.3
			c-0.5-1.4-1.3-2.5-2.4-3.2c-1.1-0.7-2.4-1.1-4-1.1c-1.6,0-2.9,0.4-4,1.1c-1.1,0.7-1.9,1.8-2.4,3.2c-0.5,1.4-0.8,3.2-0.8,5.3
			C58.3,231.2,58.6,232.9,59.1,234.4z"/>
	</g>
</g>
<g>
	<g>
		<path d="M22.9,426.2h5v-17.9h-5v-1.7h4.5c0.9,0,1.5,0.2,1.9,0.5c0.4,0.4,0.6,0.9,0.6,1.7v17.3h4.6v1.7H22.9V426.2z"/>
		<path d="M37.3,426.2l10.2-8.9c1.2-1.1,2-2,2.4-2.8c0.5-0.8,0.7-1.7,0.7-2.7c0-1.3-0.4-2.3-1.2-3c-0.8-0.8-2.1-1.1-3.7-1.1
			c-1.4,0-2.6,0.3-3.5,0.8c-0.9,0.5-1.6,1.3-2.1,2.4c-0.5,1.1-0.7,2.4-0.7,4.1h-2c0-1.9,0.3-3.5,1-4.9c0.6-1.3,1.6-2.4,2.8-3.1
			c1.2-0.7,2.8-1.1,4.6-1.1c1.6,0,2.9,0.3,4,0.8c1.1,0.5,1.9,1.2,2.4,2.1c0.5,0.9,0.8,1.8,0.8,2.9c0,1.3-0.4,2.5-1.1,3.6
			s-1.9,2.4-3.6,3.9l-8,6.9h13.1v1.7H37.3V426.2z"/>
		<path d="M60.3,427.1c-1.4-0.9-2.4-2.2-3.1-3.9c-0.7-1.7-1-3.6-1-5.9c0-2.2,0.3-4.1,1-5.8c0.7-1.7,1.7-3,3.1-3.9
			c1.4-0.9,3.1-1.4,5.2-1.4c2.1,0,3.8,0.5,5.2,1.4c1.4,0.9,2.4,2.3,3.1,3.9c0.7,1.7,1,3.6,1,5.8c0,2.2-0.3,4.2-1,5.9
			c-0.7,1.7-1.7,3-3.1,3.9c-1.4,0.9-3.1,1.4-5.2,1.4C63.5,428.5,61.7,428,60.3,427.1z M59.1,422.6c0.5,1.4,1.3,2.5,2.4,3.2
			c1.1,0.7,2.4,1.1,4,1.1c1.6,0,2.9-0.4,4-1.1c1.1-0.7,1.9-1.8,2.4-3.2c0.5-1.4,0.8-3.2,0.8-5.3c0-2.1-0.3-3.9-0.8-5.3
			c-0.5-1.4-1.3-2.5-2.4-3.2c-1.1-0.7-2.4-1.1-4-1.1c-1.6,0-2.9,0.4-4,1.1c-1.1,0.7-1.9,1.8-2.4,3.2c-0.5,1.4-0.8,3.2-0.8,5.3
			C58.3,419.4,58.6,421.2,59.1,422.6z"/>
	</g>
</g>
<g>
	<g>
		<path d="M21.1,463.5h5v-17.9h-5V444h4.5c0.9,0,1.5,0.2,1.9,0.5c0.4,0.4,0.6,0.9,0.6,1.7v17.3h4.6v1.7H21.1V463.5z"/>
		<path d="M38.9,464.4c-1.4-0.9-2.4-2.2-3.1-3.9c-0.7-1.7-1-3.6-1-5.9c0-2.2,0.3-4.1,1-5.8c0.7-1.7,1.7-3,3.1-3.9
			c1.4-0.9,3.1-1.4,5.2-1.4c2.1,0,3.8,0.5,5.2,1.4c1.4,0.9,2.4,2.3,3.1,3.9c0.7,1.7,1,3.6,1,5.8c0,2.2-0.3,4.2-1,5.9
			c-0.7,1.7-1.7,3-3.1,3.9c-1.4,0.9-3.1,1.4-5.2,1.4C42,465.8,40.3,465.3,38.9,464.4z M37.7,459.9c0.5,1.4,1.3,2.5,2.4,3.2
			c1.1,0.7,2.4,1.1,4,1.1s2.9-0.4,4-1.1c1.1-0.7,1.9-1.8,2.4-3.2c0.5-1.4,0.8-3.2,0.8-5.3c0-2.1-0.3-3.9-0.8-5.3
			c-0.5-1.4-1.3-2.5-2.4-3.2c-1.1-0.7-2.4-1.1-4-1.1s-2.9,0.4-4,1.1c-1.1,0.7-1.9,1.8-2.4,3.2c-0.5,1.4-0.8,3.2-0.8,5.3
			C36.9,456.7,37.2,458.5,37.7,459.9z"/>
		<path d="M60.3,464.4c-1.4-0.9-2.4-2.2-3.1-3.9c-0.7-1.7-1-3.6-1-5.9c0-2.2,0.3-4.1,1-5.8c0.7-1.7,1.7-3,3.1-3.9
			c1.4-0.9,3.1-1.4,5.2-1.4c2.1,0,3.8,0.5,5.2,1.4c1.4,0.9,2.4,2.3,3.1,3.9c0.7,1.7,1,3.6,1,5.8c0,2.2-0.3,4.2-1,5.9
			c-0.7,1.7-1.7,3-3.1,3.9c-1.4,0.9-3.1,1.4-5.2,1.4C63.5,465.8,61.7,465.3,60.3,464.4z M59.1,459.9c0.5,1.4,1.3,2.5,2.4,3.2
			c1.1,0.7,2.4,1.1,4,1.1c1.6,0,2.9-0.4,4-1.1c1.1-0.7,1.9-1.8,2.4-3.2c0.5-1.4,0.8-3.2,0.8-5.3c0-2.1-0.3-3.9-0.8-5.3
			c-0.5-1.4-1.3-2.5-2.4-3.2c-1.1-0.7-2.4-1.1-4-1.1c-1.6,0-2.9,0.4-4,1.1c-1.1,0.7-1.9,1.8-2.4,3.2c-0.5,1.4-0.8,3.2-0.8,5.3
			C58.3,456.7,58.6,458.5,59.1,459.9z"/>
	</g>
</g>
<g>
	<g>
		<path d="M40.5,502.2c-1.2-0.5-2.1-1.3-2.7-2.2c-0.6-0.9-0.9-2-0.9-3.1c0-1.5,0.4-2.7,1.3-3.6c0.8-0.9,2-1.5,3.5-2
			c-1.4-0.4-2.4-1-3.1-1.9s-1.1-1.9-1.1-3.1c0-1,0.3-2,0.8-2.8c0.6-0.8,1.4-1.5,2.5-2c1.1-0.5,2.5-0.8,4.2-0.8s3,0.3,4.2,0.8
			c1.1,0.5,2,1.2,2.5,2c0.6,0.8,0.8,1.8,0.8,2.8c0,1.2-0.4,2.2-1.1,3.1c-0.7,0.9-1.8,1.5-3.1,1.9c1,0.3,1.8,0.7,2.5,1.2
			c0.7,0.5,1.3,1.1,1.7,1.8s0.6,1.6,0.6,2.6c0,1.1-0.3,2.2-0.9,3.1c-0.6,0.9-1.5,1.7-2.7,2.2c-1.2,0.6-2.7,0.8-4.6,0.8
			S41.7,502.8,40.5,502.2z M48.5,500.8c0.9-0.4,1.6-0.9,2-1.6c0.4-0.7,0.6-1.5,0.6-2.3c0-1.5-0.5-2.6-1.5-3.4
			c-1-0.8-2.5-1.2-4.5-1.2c-1.3,0-2.5,0.2-3.4,0.6c-0.9,0.4-1.6,0.9-2,1.6c-0.4,0.7-0.7,1.5-0.7,2.5c0,1.4,0.5,2.5,1.5,3.3
			c1,0.8,2.5,1.3,4.5,1.3C46.4,501.4,47.6,501.2,48.5,500.8z M48.2,490.1c0.8-0.4,1.4-0.9,1.8-1.6c0.4-0.6,0.6-1.3,0.6-2.1
			c0-1.2-0.5-2.2-1.4-3c-0.9-0.7-2.3-1.1-4.2-1.1c-1.2,0-2.3,0.2-3.1,0.5c-0.8,0.3-1.5,0.8-1.9,1.4c-0.4,0.6-0.6,1.3-0.6,2.1
			c0,0.7,0.2,1.4,0.6,2.1c0.4,0.6,1,1.1,1.8,1.6c0.8,0.4,1.9,0.6,3.2,0.6C46.3,490.7,47.4,490.5,48.2,490.1z"/>
		<path d="M60.3,501.7c-1.4-0.9-2.4-2.2-3.1-3.9c-0.7-1.7-1-3.6-1-5.9c0-2.2,0.3-4.1,1-5.8c0.7-1.7,1.7-3,3.1-3.9
			c1.4-0.9,3.1-1.4,5.2-1.4c2.1,0,3.8,0.5,5.2,1.4c1.4,0.9,2.4,2.3,3.1,3.9c0.7,1.7,1,3.6,1,5.8c0,2.2-0.3,4.2-1,5.9
			c-0.7,1.7-1.7,3-3.1,3.9c-1.4,0.9-3.1,1.4-5.2,1.4C63.5,503.1,61.7,502.6,60.3,501.7z M59.1,497.2c0.5,1.4,1.3,2.5,2.4,3.2
			c1.1,0.7,2.4,1.1,4,1.1c1.6,0,2.9-0.4,4-1.1c1.1-0.7,1.9-1.8,2.4-3.2c0.5-1.4,0.8-3.2,0.8-5.3c0-2.1-0.3-3.9-0.8-5.3
			c-0.5-1.4-1.3-2.5-2.4-3.2c-1.1-0.7-2.4-1.1-4-1.1c-1.6,0-2.9,0.4-4,1.1c-1.1,0.7-1.9,1.8-2.4,3.2c-0.5,1.4-0.8,3.2-0.8,5.3
			C58.3,494,58.6,495.8,59.1,497.2z"/>
	</g>
</g>
<g>
	<g>
		<path d="M40.9,539.3c-1.2-0.7-2.2-1.9-2.8-3.5c-0.7-1.6-1-3.6-1-6.2c0-2.4,0.3-4.5,1-6.2c0.7-1.8,1.7-3.1,3-4
			c1.3-0.9,3-1.4,4.9-1.4c1.5,0,2.8,0.3,3.9,0.8c1,0.5,1.8,1.2,2.4,2.1s0.9,2,1.1,3.2h-2c-0.1-0.9-0.4-1.7-0.8-2.4
			c-0.5-0.7-1.1-1.1-1.8-1.5c-0.8-0.3-1.6-0.5-2.7-0.5c-2.3,0-4,0.9-5.2,2.6s-1.8,4.5-1.8,8.4v1.6l-0.4-0.2c0.4-1.6,1.2-2.9,2.5-4
			c1.3-1,3-1.5,5-1.5c1.4,0,2.6,0.3,3.7,0.8c1.1,0.5,2,1.3,2.6,2.3c0.7,1,1,2.3,1,3.7c0,1.3-0.3,2.5-0.9,3.6
			c-0.6,1.1-1.5,1.9-2.7,2.5s-2.6,0.9-4.3,0.9C43.7,540.4,42.2,540,40.9,539.3z M49.8,537.3c1-1,1.4-2.2,1.4-3.9
			c0-1.6-0.5-2.9-1.4-3.9c-0.9-1-2.3-1.5-4.2-1.5c-1.1,0-2.2,0.2-3.1,0.7c-0.9,0.4-1.7,1.1-2.2,1.9c-0.5,0.8-0.8,1.7-0.8,2.8
			c0,1.6,0.5,3,1.6,3.9c1.1,1,2.5,1.5,4.4,1.5C47.3,538.7,48.8,538.3,49.8,537.3z"/>
		<path d="M60.3,539c-1.4-0.9-2.4-2.2-3.1-3.9c-0.7-1.7-1-3.6-1-5.9c0-2.2,0.3-4.1,1-5.8c0.7-1.7,1.7-3,3.1-3.9
			c1.4-0.9,3.1-1.4,5.2-1.4c2.1,0,3.8,0.5,5.2,1.4c1.4,1,2.4,2.3,3.1,3.9c0.7,1.7,1,3.6,1,5.8c0,2.2-0.3,4.2-1,5.9
			c-0.7,1.7-1.7,3-3.1,3.9c-1.4,0.9-3.1,1.4-5.2,1.4C63.5,540.4,61.7,539.9,60.3,539z M59.1,534.5c0.5,1.4,1.3,2.5,2.4,3.2
			c1.1,0.7,2.4,1.1,4,1.1c1.6,0,2.9-0.4,4-1.1c1.1-0.7,1.9-1.8,2.4-3.2s0.8-3.2,0.8-5.3c0-2.1-0.3-3.9-0.8-5.3s-1.3-2.5-2.4-3.2
			c-1.1-0.7-2.4-1.1-4-1.1c-1.6,0-2.9,0.4-4,1.1c-1.1,0.7-1.9,1.8-2.4,3.2c-0.5,1.4-0.8,3.2-0.8,5.3
			C58.3,531.3,58.6,533.1,59.1,534.5z"/>
	</g>
</g>
<g>
	<g>
		<path d="M48.4,572.2H36.5v-1.7l10.7-14h2.2l-10.8,14h9.8v-14h2v14H54v1.7h-3.6v5.7h-2V572.2z"/>
		<path d="M60.3,577c-1.4-0.9-2.4-2.2-3.1-3.9c-0.7-1.7-1-3.6-1-5.9c0-2.2,0.3-4.1,1-5.8c0.7-1.7,1.7-3,3.1-3.9
			c1.4-0.9,3.1-1.4,5.2-1.4c2.1,0,3.8,0.5,5.2,1.4c1.4,1,2.4,2.3,3.1,3.9c0.7,1.7,1,3.6,1,5.8c0,2.2-0.3,4.2-1,5.9
			c-0.7,1.7-1.7,3-3.1,3.9c-1.4,0.9-3.1,1.4-5.2,1.4C63.5,578.4,61.7,577.9,60.3,577z M59.1,572.5c0.5,1.4,1.3,2.5,2.4,3.2
			c1.1,0.7,2.4,1.1,4,1.1c1.6,0,2.9-0.4,4-1.1c1.1-0.7,1.9-1.8,2.4-3.2c0.5-1.4,0.8-3.2,0.8-5.3c0-2.1-0.3-3.9-0.8-5.3
			c-0.5-1.4-1.3-2.5-2.4-3.2c-1.1-0.7-2.4-1.1-4-1.1c-1.6,0-2.9,0.4-4,1.1c-1.1,0.7-1.9,1.8-2.4,3.2c-0.5,1.4-0.8,3.2-0.8,5.3
			C58.3,569.3,58.6,571.1,59.1,572.5z"/>
	</g>
</g>
<g>
	<g>
		<path d="M37.3,614.2l10.2-8.9c1.2-1.1,2-2,2.4-2.8c0.5-0.8,0.7-1.7,0.7-2.7c0-1.3-0.4-2.3-1.2-3c-0.8-0.8-2.1-1.1-3.7-1.1
			c-1.4,0-2.6,0.3-3.5,0.8c-0.9,0.5-1.6,1.3-2.1,2.4c-0.5,1.1-0.7,2.4-0.7,4.1h-2c0-1.9,0.3-3.5,1-4.9c0.6-1.3,1.6-2.4,2.8-3.1
			c1.2-0.7,2.8-1.1,4.6-1.1c1.6,0,2.9,0.3,4,0.8c1.1,0.5,1.9,1.2,2.4,2.1c0.5,0.9,0.8,1.8,0.8,2.9c0,1.3-0.4,2.5-1.1,3.6
			s-1.9,2.4-3.6,3.9l-8,6.9h13.1v1.7H37.3V614.2z"/>
		<path d="M60.3,615c-1.4-0.9-2.4-2.2-3.1-3.9c-0.7-1.7-1-3.6-1-5.9c0-2.2,0.3-4.1,1-5.8c0.7-1.7,1.7-3,3.1-3.9
			c1.4-0.9,3.1-1.4,5.2-1.4c2.1,0,3.8,0.5,5.2,1.4c1.4,0.9,2.4,2.3,3.1,3.9c0.7,1.7,1,3.6,1,5.8c0,2.2-0.3,4.2-1,5.9
			c-0.7,1.7-1.7,3-3.1,3.9c-1.4,0.9-3.1,1.4-5.2,1.4C63.5,616.4,61.7,615.9,60.3,615z M59.1,610.5c0.5,1.4,1.3,2.5,2.4,3.2
			c1.1,0.7,2.4,1.1,4,1.1c1.6,0,2.9-0.4,4-1.1c1.1-0.7,1.9-1.8,2.4-3.2s0.8-3.2,0.8-5.3c0-2.1-0.3-3.9-0.8-5.3s-1.3-2.5-2.4-3.2
			c-1.1-0.7-2.4-1.1-4-1.1c-1.6,0-2.9,0.4-4,1.1c-1.1,0.7-1.9,1.8-2.4,3.2c-0.5,1.4-0.8,3.2-0.8,5.3
			C58.3,607.3,58.6,609.1,59.1,610.5z"/>
	</g>
</g>
<g>
	<g>
		<path d="M60.3,652.7c-1.4-0.9-2.4-2.2-3.1-3.9c-0.7-1.7-1-3.6-1-5.9c0-2.2,0.3-4.1,1-5.8c0.7-1.7,1.7-3,3.1-3.9
			c1.4-0.9,3.1-1.4,5.2-1.4c2.1,0,3.8,0.5,5.2,1.4c1.4,1,2.4,2.3,3.1,3.9c0.7,1.7,1,3.6,1,5.8c0,2.2-0.3,4.2-1,5.9
			c-0.7,1.7-1.7,3-3.1,3.9c-1.4,0.9-3.1,1.4-5.2,1.4C63.5,654.1,61.7,653.7,60.3,652.7z M59.1,648.2c0.5,1.4,1.3,2.5,2.4,3.2
			c1.1,0.7,2.4,1.1,4,1.1c1.6,0,2.9-0.4,4-1.1c1.1-0.7,1.9-1.8,2.4-3.2c0.5-1.4,0.8-3.2,0.8-5.3c0-2.1-0.3-3.9-0.8-5.3
			c-0.5-1.4-1.3-2.5-2.4-3.2c-1.1-0.7-2.4-1.1-4-1.1c-1.6,0-2.9,0.4-4,1.1c-1.1,0.7-1.9,1.8-2.4,3.2c-0.5,1.4-0.8,3.2-0.8,5.3
			C58.3,645,58.6,646.8,59.1,648.2z"/>
	</g>
</g>
<g>
	<g>
		<path d="M27.6,720.4v1.5H14.8v-1.5H27.6z"/>
		<path d="M48.4,723.4H36.5v-1.7l10.7-14h2.2l-10.8,14h9.8v-14h2v14H54v1.7h-3.6v5.7h-2V723.4z"/>
		<path d="M60.3,728.2c-1.4-0.9-2.4-2.2-3.1-3.9c-0.7-1.7-1-3.6-1-5.9c0-2.2,0.3-4.1,1-5.8c0.7-1.7,1.7-3,3.1-3.9
			c1.4-0.9,3.1-1.4,5.2-1.4c2.1,0,3.8,0.5,5.2,1.4c1.4,1,2.4,2.3,3.1,3.9c0.7,1.7,1,3.6,1,5.8c0,2.2-0.3,4.2-1,5.9
			c-0.7,1.7-1.7,3-3.1,3.9c-1.4,0.9-3.1,1.4-5.2,1.4C63.5,729.6,61.7,729.2,60.3,728.2z M59.1,723.7c0.5,1.4,1.3,2.5,2.4,3.2
			c1.1,0.7,2.4,1.1,4,1.1c1.6,0,2.9-0.4,4-1.1c1.1-0.7,1.9-1.8,2.4-3.2c0.5-1.4,0.8-3.2,0.8-5.3c0-2.1-0.3-3.9-0.8-5.3
			c-0.5-1.4-1.3-2.5-2.4-3.2c-1.1-0.7-2.4-1.1-4-1.1c-1.6,0-2.9,0.4-4,1.1c-1.1,0.7-1.9,1.8-2.4,3.2c-0.5,1.4-0.8,3.2-0.8,5.3
			C58.3,720.5,58.6,722.3,59.1,723.7z"/>
	</g>
</g>
<g>
	<g>
		<path d="M27.8,758.1v1.5H15v-1.5H27.8z"/>
		<path d="M40.9,766.3c-1.2-0.7-2.2-1.9-2.8-3.5c-0.7-1.6-1-3.6-1-6.2c0-2.4,0.3-4.5,1-6.2c0.7-1.7,1.7-3.1,3-4
			c1.3-0.9,3-1.4,4.9-1.4c1.5,0,2.8,0.3,3.9,0.8c1,0.5,1.8,1.2,2.4,2.1c0.6,0.9,0.9,2,1.1,3.2h-2c-0.1-0.9-0.4-1.7-0.8-2.4
			c-0.5-0.7-1.1-1.1-1.8-1.5c-0.8-0.3-1.6-0.5-2.7-0.5c-2.3,0-4,0.9-5.2,2.6s-1.8,4.5-1.8,8.4v1.6l-0.4-0.2c0.4-1.6,1.2-2.9,2.5-4
			c1.3-1,3-1.5,5-1.5c1.4,0,2.6,0.3,3.7,0.8c1.1,0.5,2,1.3,2.6,2.3c0.7,1,1,2.3,1,3.7c0,1.3-0.3,2.5-0.9,3.6
			c-0.6,1.1-1.5,1.9-2.7,2.5s-2.6,0.9-4.3,0.9C43.7,767.4,42.2,767,40.9,766.3z M49.8,764.3c1-1,1.4-2.2,1.4-3.9
			c0-1.6-0.5-2.9-1.4-3.9c-0.9-1-2.3-1.5-4.2-1.5c-1.1,0-2.2,0.2-3.1,0.7c-0.9,0.4-1.7,1.1-2.2,1.9c-0.5,0.8-0.8,1.7-0.8,2.8
			c0,1.6,0.5,3,1.6,3.9c1.1,1,2.5,1.5,4.4,1.5C47.3,765.7,48.8,765.2,49.8,764.3z"/>
		<path d="M60.3,766c-1.4-0.9-2.4-2.2-3.1-3.9c-0.7-1.7-1-3.6-1-5.9c0-2.2,0.3-4.1,1-5.8c0.7-1.7,1.7-3,3.1-3.9
			c1.4-0.9,3.1-1.4,5.2-1.4c2.1,0,3.8,0.5,5.2,1.4c1.4,1,2.4,2.3,3.1,3.9c0.7,1.7,1,3.6,1,5.8c0,2.2-0.3,4.2-1,5.9
			c-0.7,1.7-1.7,3-3.1,3.9c-1.4,0.9-3.1,1.4-5.2,1.4C63.5,767.4,61.7,766.9,60.3,766z M59.1,761.5c0.5,1.4,1.3,2.5,2.4,3.2
			c1.1,0.7,2.4,1.1,4,1.1c1.6,0,2.9-0.4,4-1.1c1.1-0.7,1.9-1.8,2.4-3.2c0.5-1.4,0.8-3.2,0.8-5.3c0-2.1-0.3-3.9-0.8-5.3
			c-0.5-1.4-1.3-2.5-2.4-3.2c-1.1-0.7-2.4-1.1-4-1.1c-1.6,0-2.9,0.4-4,1.1c-1.1,0.7-1.9,1.8-2.4,3.2c-0.5,1.4-0.8,3.2-0.8,5.3
			C58.3,758.3,58.6,760.1,59.1,761.5z"/>
	</g>
</g>
<g>
	<g>
		<path d="M27.6,795.9v1.5H14.8v-1.5H27.6z"/>
		<path d="M40.5,804.3c-1.2-0.5-2.1-1.3-2.7-2.2c-0.6-0.9-0.9-2-0.9-3.1c0-1.5,0.4-2.7,1.3-3.6c0.8-0.9,2-1.5,3.5-2
			c-1.4-0.4-2.4-1-3.1-1.9c-0.7-0.9-1.1-1.9-1.1-3.1c0-1,0.3-2,0.8-2.8c0.6-0.8,1.4-1.5,2.5-2c1.1-0.5,2.5-0.8,4.2-0.8
			s3,0.3,4.2,0.8c1.1,0.5,2,1.2,2.5,2c0.6,0.8,0.8,1.8,0.8,2.8c0,1.2-0.4,2.2-1.1,3.1c-0.7,0.9-1.8,1.5-3.1,1.9
			c1,0.3,1.8,0.7,2.5,1.2c0.7,0.5,1.3,1.1,1.7,1.8c0.4,0.7,0.6,1.6,0.6,2.6c0,1.1-0.3,2.2-0.9,3.1c-0.6,0.9-1.5,1.7-2.7,2.2
			c-1.2,0.6-2.7,0.8-4.6,0.8S41.7,804.8,40.5,804.3z M48.5,802.9c0.9-0.4,1.6-0.9,2-1.6c0.4-0.7,0.6-1.5,0.6-2.3
			c0-1.5-0.5-2.6-1.5-3.4c-1-0.8-2.5-1.2-4.5-1.2c-1.3,0-2.5,0.2-3.4,0.6c-0.9,0.4-1.6,0.9-2,1.6c-0.4,0.7-0.7,1.5-0.7,2.5
			c0,1.4,0.5,2.5,1.5,3.3c1,0.8,2.5,1.3,4.5,1.3C46.4,803.5,47.6,803.3,48.5,802.9z M48.2,792.1c0.8-0.4,1.4-0.9,1.8-1.6
			c0.4-0.6,0.6-1.3,0.6-2.1c0-1.2-0.5-2.2-1.4-3c-0.9-0.7-2.3-1.1-4.2-1.1c-1.2,0-2.3,0.2-3.1,0.5c-0.8,0.3-1.5,0.8-1.9,1.4
			c-0.4,0.6-0.6,1.3-0.6,2.1c0,0.7,0.2,1.4,0.6,2.1c0.4,0.6,1,1.1,1.8,1.6c0.8,0.4,1.9,0.6,3.2,0.6
			C46.3,792.7,47.4,792.5,48.2,792.1z"/>
		<path d="M60.3,803.7c-1.4-0.9-2.4-2.2-3.1-3.9c-0.7-1.7-1-3.6-1-5.9c0-2.2,0.3-4.1,1-5.8c0.7-1.7,1.7-3,3.1-3.9
			c1.4-0.9,3.1-1.4,5.2-1.4c2.1,0,3.8,0.5,5.2,1.4c1.4,1,2.4,2.3,3.1,3.9c0.7,1.7,1,3.6,1,5.8c0,2.2-0.3,4.2-1,5.9
			c-0.7,1.7-1.7,3-3.1,3.9c-1.4,0.9-3.1,1.4-5.2,1.4C63.5,805.1,61.7,804.7,60.3,803.7z M59.1,799.2c0.5,1.4,1.3,2.5,2.4,3.2
			c1.1,0.7,2.4,1.1,4,1.1c1.6,0,2.9-0.4,4-1.1c1.1-0.7,1.9-1.8,2.4-3.2c0.5-1.4,0.8-3.2,0.8-5.3c0-2.1-0.3-3.9-0.8-5.3
			c-0.5-1.4-1.3-2.5-2.4-3.2c-1.1-0.7-2.4-1.1-4-1.1c-1.6,0-2.9,0.4-4,1.1c-1.1,0.7-1.9,1.8-2.4,3.2c-0.5,1.4-0.8,3.2-0.8,5.3
			C58.3,796,58.6,797.8,59.1,799.2z"/>
	</g>
</g>
<g>
	<g>
		<path d="M27.5,682.6v1.5H14.7v-1.5H27.5z"/>
		<path d="M37.3,689.6l10.2-8.9c1.2-1.1,2-2,2.4-2.8c0.5-0.8,0.7-1.7,0.7-2.7c0-1.3-0.4-2.3-1.2-3c-0.8-0.8-2.1-1.1-3.7-1.1
			c-1.4,0-2.6,0.3-3.5,0.8c-0.9,0.5-1.6,1.3-2.1,2.4c-0.5,1.1-0.7,2.4-0.7,4.1h-2c0-1.9,0.3-3.5,1-4.9c0.6-1.3,1.6-2.4,2.8-3.1
			c1.2-0.7,2.8-1.1,4.6-1.1c1.6,0,2.9,0.3,4,0.8c1.1,0.5,1.9,1.2,2.4,2.1c0.5,0.9,0.8,1.8,0.8,2.9c0,1.3-0.4,2.5-1.1,3.6
			c-0.7,1.1-1.9,2.4-3.6,3.9l-8,6.9h13.1v1.7H37.3V689.6z"/>
		<path d="M60.3,690.5c-1.4-0.9-2.4-2.2-3.1-3.9c-0.7-1.7-1-3.6-1-5.9c0-2.2,0.3-4.1,1-5.8c0.7-1.7,1.7-3,3.1-3.9
			c1.4-0.9,3.1-1.4,5.2-1.4c2.1,0,3.8,0.5,5.2,1.4c1.4,1,2.4,2.3,3.1,3.9c0.7,1.7,1,3.6,1,5.8c0,2.2-0.3,4.2-1,5.9
			c-0.7,1.7-1.7,3-3.1,3.9c-1.4,0.9-3.1,1.4-5.2,1.4C63.5,691.9,61.7,691.4,60.3,690.5z M59.1,686c0.5,1.4,1.3,2.5,2.4,3.2
			c1.1,0.7,2.4,1.1,4,1.1c1.6,0,2.9-0.4,4-1.1c1.1-0.7,1.9-1.8,2.4-3.2s0.8-3.2,0.8-5.3c0-2.1-0.3-3.9-0.8-5.3s-1.3-2.5-2.4-3.2
			c-1.1-0.7-2.4-1.1-4-1.1c-1.6,0-2.9,0.4-4,1.1c-1.1,0.7-1.9,1.8-2.4,3.2c-0.5,1.4-0.8,3.2-0.8,5.3C58.3,682.8,58.6,684.6,59.1,686
			z"/>
	</g>
</g>
<g>
	<g>
		<path d="M75.6,93.5l-2.9-7.6H57.9l-2.9,7.6h-3.8l11.4-29.9h5.5l11.3,29.9H75.6z M59,82.8h12.6l-6.3-16.6L59,82.8z"/>
		<path d="M83.2,62h3.6v31.5h-3.6V62z"/>
		<path d="M96.7,92.9c-0.8-0.4-1.3-0.9-1.6-1.7c-0.3-0.7-0.5-1.8-0.5-3V73.8h-4.3v-2l4.6-1.1l1.4-4.7h1.9v5h7.4v2.8h-7.4v16.7h7.1
			v2.9H100C98.6,93.5,97.5,93.3,96.7,92.9z"/>
		<path d="M113.5,92.7c-1.7-1-2.9-2.5-3.7-4.3s-1.2-3.9-1.2-6.2c0-2.3,0.4-4.3,1.3-6.1c0.8-1.8,2.1-3.2,3.8-4.3
			c1.7-1,3.7-1.6,6.1-1.6c2.2,0,4.1,0.5,5.7,1.4c1.6,0.9,2.8,2.3,3.6,4s1.2,3.6,1.2,5.8v0.6c0,0.2,0,0.6-0.1,0.9h-18.9v-2.7h17
			l-1.6,1.6c0.1-2.1-0.1-3.8-0.6-5.1c-0.5-1.3-1.3-2.3-2.4-2.9c-1.1-0.6-2.4-0.9-4-0.9c-1.6,0-3,0.3-4.2,0.9c-1.1,0.6-2,1.6-2.6,3
			c-0.6,1.4-0.9,3.1-0.9,5.3c0,2.2,0.3,4,0.9,5.4c0.6,1.4,1.5,2.4,2.7,3c1.1,0.6,2.5,0.9,4.1,0.9c1.4,0,2.6-0.2,3.6-0.6
			c1-0.4,1.7-1,2.3-1.7c0.6-0.7,1-1.6,1.2-2.6h3.3c-0.2,1.3-0.6,2.5-1.4,3.7c-0.8,1.2-1.9,2.1-3.4,2.9c-1.5,0.7-3.4,1.1-5.8,1.1
			C117.2,94.2,115.2,93.7,113.5,92.7z"/>
		<path d="M133.8,71h19.6v2.7h-19.6V71z M133.8,90.7l16.1-18l3.4,0.9l-16.5,18.5L133.8,90.7z M133.8,90.7h19.8v2.7h-19.8V90.7z"/>
		<path d="M157.7,71h19.6v2.7h-19.6V71z M157.7,90.7l16.1-18l3.4,0.9l-16.5,18.5L157.7,90.7z M157.7,90.7h19.8v2.7h-19.8V90.7z"/>
		<path d="M184.8,93.3c-1.1-0.5-2-1.2-2.6-2.2c-0.6-1-0.9-2.2-0.9-3.6c0-1.2,0.2-2.3,0.7-3.2c0.5-0.9,1.2-1.7,2.2-2.2
			c1-0.6,2.3-1,3.9-1.3l5.7-0.9c1.2-0.2,2.1-0.5,2.6-0.9c0.5-0.4,0.8-1,0.8-1.8c0-0.8-0.2-1.6-0.5-2.1c-0.3-0.6-0.9-1-1.7-1.4
			c-0.8-0.3-1.9-0.5-3.3-0.5c-2.1,0-3.6,0.4-4.6,1.3c-1,0.9-1.5,2.1-1.6,3.7h-3.6c0.1-1.6,0.5-3,1.2-4.1c0.8-1.2,1.9-2.1,3.3-2.7
			c1.5-0.6,3.2-1,5.2-1c2,0,3.6,0.3,5,0.9c1.3,0.6,2.3,1.4,3,2.4c0.6,1,0.9,2.2,0.9,3.6v10.8c0,0.8,0,1.7,0.1,2.6s0.1,1.9,0.2,2.9
			h-3.2c-0.1-0.9-0.2-1.8-0.2-2.7c0-0.9-0.1-1.7-0.1-2.5c-0.3,1-0.8,2-1.5,2.8c-0.7,0.9-1.6,1.6-2.8,2.2c-1.2,0.6-2.5,0.9-4.2,0.9
			C187.2,94.1,185.9,93.8,184.8,93.3z M193.6,90.1c1.2-0.8,2-1.8,2.6-3.1c0.6-1.3,0.9-2.7,0.9-4.1v-1.9c-0.5,0.3-1,0.6-1.5,0.8
			c-0.5,0.2-1.2,0.4-1.9,0.6l-0.6,0.1l-3.7,0.8c-1.6,0.3-2.7,0.8-3.4,1.5c-0.7,0.7-1.1,1.6-1.1,2.7c0,1.2,0.4,2.2,1.2,2.8
			c0.8,0.7,1.9,1,3.2,1C191,91.2,192.5,90.8,193.6,90.1z"/>
		<path d="M215.5,63.6h16.4v3h-16.4V63.6z M215.5,90.5h16.4v3h-16.4V90.5z M221.8,65h3.7v27h-3.7V65z"/>
		<path d="M253.6,73.4c1.7,2.1,2.5,5,2.5,8.8c0,2.5-0.4,4.6-1.1,6.4c-0.7,1.8-1.8,3.2-3.3,4.1c-1.5,1-3.3,1.5-5.4,1.5
			c-2.3,0-4.2-0.5-5.8-1.5c-1.5-1-2.7-2.4-3.4-4.2c-0.8-1.8-1.1-3.9-1.1-6.2c0-2.4,0.4-4.5,1.1-6.3c0.7-1.8,1.9-3.2,3.4-4.2
			c1.5-1,3.4-1.5,5.8-1.5C249.5,70.3,252,71.3,253.6,73.4z M242.8,74.2c-1.1,0.7-1.9,1.7-2.4,3c-0.5,1.3-0.8,3-0.8,5.1
			c0,2,0.3,3.7,0.8,5c0.5,1.3,1.3,2.3,2.4,3c1.1,0.7,2.5,1,4.2,1c1.6,0,3-0.3,4.2-1c1.2-0.6,2-1.6,2.7-3c0.6-1.3,0.9-3,0.9-5.1
			s-0.3-3.8-0.9-5.1c-0.6-1.4-1.5-2.3-2.7-3c-1.2-0.6-2.5-0.9-4.2-0.9C245.3,73.2,243.9,73.5,242.8,74.2z M258.4,93.5h-3.6v-5.4
			v-0.6V62h3.6V93.5z"/>
		<path d="M264.9,71h3.6V78l0,0.7v14.7h-3.6V71z M268.2,77.7c0.6-2.2,1.7-3.9,3.1-5.2c1.4-1.3,3.2-1.9,5.5-1.9h0.8v3.6h-1
			c-2.1-0.1-3.8,0.4-5,1.3c-1.2,0.9-2,2.2-2.4,3.8c-0.4,1.6-0.7,3.6-0.7,5.9h-1.3C267.2,82.4,267.5,79.9,268.2,77.7z"/>
		<path d="M285.1,92.7c-1.7-1-3-2.5-3.8-4.3c-0.9-1.8-1.3-3.9-1.3-6.2c0-2.3,0.4-4.3,1.3-6.1s2.1-3.2,3.8-4.3c1.7-1,3.8-1.6,6.2-1.6
			c2.4,0,4.5,0.5,6.2,1.6s3,2.5,3.8,4.3c0.8,1.8,1.3,3.8,1.3,6.1c0,2.3-0.4,4.4-1.3,6.2c-0.8,1.8-2.1,3.2-3.8,4.3s-3.8,1.6-6.2,1.6
			C288.9,94.2,286.8,93.7,285.1,92.7z M284.5,87.4c0.6,1.4,1.4,2.3,2.5,3s2.6,0.9,4.3,0.9c1.7,0,3.1-0.3,4.3-0.9s2-1.6,2.5-3
			c0.6-1.4,0.9-3.1,0.9-5.1c0-2.1-0.3-3.8-0.9-5.2c-0.6-1.3-1.4-2.3-2.5-2.9s-2.5-0.9-4.3-0.9c-1.7,0-3.2,0.3-4.3,0.9
			s-2,1.6-2.5,2.9c-0.6,1.3-0.9,3.1-0.9,5.2C283.6,84.3,283.9,86,284.5,87.4z"/>
		<path d="M307.4,71h3.6v22.5h-3.6V71z M322.6,75.8c-0.4-0.9-1-1.6-1.7-2c-0.8-0.4-1.7-0.6-2.9-0.6c-1.6,0-2.9,0.4-4,1.3
			c-1.1,0.9-1.8,2.1-2.3,3.8s-0.7,3.9-0.7,6.5h-1.2V84c0.1-2.8,0.4-5.3,1.1-7.3c0.6-2,1.6-3.6,3-4.7c1.3-1.1,3.1-1.7,5.3-1.7
			c1.7,0,3.1,0.3,4.3,1c1.1,0.7,2,1.6,2.5,2.9c0.6,1.3,0.8,2.9,0.8,4.8v14.5h-3.6V79.4C323.2,77.9,323,76.7,322.6,75.8z M338.4,75.8
			c-0.4-0.9-1-1.6-1.7-2c-0.8-0.4-1.7-0.6-2.8-0.6c-1.6,0-3,0.4-4,1.3c-1.1,0.9-1.8,2.1-2.3,3.8s-0.7,3.9-0.7,6.5h-1.3
			c0-3,0.3-5.6,0.9-7.8c0.6-2.2,1.6-3.8,3-5c1.4-1.2,3.2-1.8,5.6-1.8c1.7,0,3.1,0.3,4.3,1c1.1,0.7,2,1.6,2.5,2.9
			c0.6,1.3,0.8,2.9,0.8,4.8v14.5H339V79.4C339,77.9,338.8,76.7,338.4,75.8z"/>
		<path d="M351.9,92.7c-1.7-1-2.9-2.5-3.7-4.3s-1.2-3.9-1.2-6.2c0-2.3,0.4-4.3,1.3-6.1c0.8-1.8,2.1-3.2,3.8-4.3
			c1.7-1,3.7-1.6,6.1-1.6c2.2,0,4.1,0.5,5.7,1.4c1.6,0.9,2.8,2.3,3.6,4s1.2,3.6,1.2,5.8v0.6c0,0.2,0,0.6-0.1,0.9h-18.9v-2.7h17
			l-1.6,1.6c0.1-2.1-0.1-3.8-0.6-5.1c-0.5-1.3-1.3-2.3-2.4-2.9c-1.1-0.6-2.4-0.9-4-0.9c-1.6,0-3,0.3-4.2,0.9c-1.1,0.6-2,1.6-2.6,3
			c-0.6,1.4-0.9,3.1-0.9,5.3c0,2.2,0.3,4,0.9,5.4c0.6,1.4,1.5,2.4,2.7,3c1.1,0.6,2.5,0.9,4.1,0.9c1.4,0,2.6-0.2,3.6-0.6
			c1-0.4,1.7-1,2.3-1.7c0.6-0.7,1-1.6,1.2-2.6h3.3c-0.2,1.3-0.6,2.5-1.4,3.7c-0.8,1.2-1.9,2.1-3.4,2.9c-1.5,0.7-3.4,1.1-5.8,1.1
			C355.6,94.2,353.5,93.7,351.9,92.7z"/>
		<path d="M376.6,92.9c-0.8-0.4-1.3-0.9-1.6-1.7c-0.3-0.7-0.5-1.8-0.5-3V73.8h-4.3v-2l4.6-1.1l1.4-4.7h1.9v5h7.4v2.8h-7.4v16.7h7.1
			v2.9h-5.3C378.5,93.5,377.4,93.3,376.6,92.9z"/>
		<path d="M390.1,71h3.6V78l0,0.7v14.7h-3.6V71z M393.4,77.7c0.6-2.2,1.7-3.9,3.1-5.2c1.4-1.3,3.2-1.9,5.5-1.9h0.8v3.6h-1
			c-2.1-0.1-3.8,0.4-5,1.3c-1.2,0.9-2,2.2-2.4,3.8c-0.4,1.6-0.7,3.6-0.7,5.9h-1.3C392.5,82.4,392.8,79.9,393.4,77.7z"/>
		<path d="M406.1,63.6h4.6v3.7h-4.6V63.6z M406.6,71h3.6v22.5h-3.6V71z"/>
		<path d="M416,76c0.9-1.8,2.2-3.2,3.8-4.2c1.7-1,3.7-1.5,6.1-1.5c2.2,0,4,0.4,5.6,1.1c1.5,0.8,2.7,1.8,3.5,3.2
			c0.8,1.3,1.3,2.9,1.4,4.7h-3.4c-0.2-1.3-0.6-2.3-1.1-3.2c-0.6-0.9-1.3-1.6-2.3-2.1c-1-0.5-2.2-0.7-3.5-0.7c-1.7,0-3,0.3-4.2,0.9
			c-1.1,0.6-2,1.6-2.6,2.9c-0.6,1.3-0.9,3.1-0.9,5.2c0,2.1,0.3,3.9,0.9,5.2c0.6,1.3,1.5,2.3,2.6,2.9c1.1,0.6,2.5,0.9,4.1,0.9
			c2.2,0,3.9-0.6,5.2-1.7c1.2-1.1,1.9-2.7,2.2-4.7h3.4c-0.1,1.8-0.6,3.4-1.4,4.7s-2.1,2.5-3.7,3.3c-1.6,0.8-3.5,1.2-5.7,1.2
			c-2.4,0-4.4-0.5-6.1-1.5c-1.7-1-3-2.4-3.8-4.2s-1.3-3.9-1.3-6.2S415.1,77.8,416,76z"/>
		<path d="M443.3,93.3c-1.1-0.5-2-1.2-2.6-2.2c-0.6-1-0.9-2.2-0.9-3.6c0-1.2,0.2-2.3,0.7-3.2c0.5-0.9,1.2-1.7,2.2-2.2
			c1-0.6,2.3-1,3.9-1.3l5.7-0.9c1.2-0.2,2.1-0.5,2.6-0.9c0.5-0.4,0.8-1,0.8-1.8c0-0.8-0.2-1.6-0.5-2.1c-0.3-0.6-0.9-1-1.7-1.4
			c-0.8-0.3-1.9-0.5-3.3-0.5c-2.1,0-3.6,0.4-4.6,1.3c-1,0.9-1.5,2.1-1.6,3.7h-3.6c0.1-1.6,0.5-3,1.2-4.1c0.8-1.2,1.9-2.1,3.3-2.7
			c1.5-0.6,3.2-1,5.2-1c2,0,3.6,0.3,5,0.9c1.3,0.6,2.3,1.4,3,2.4c0.6,1,0.9,2.2,0.9,3.6v10.8c0,0.8,0,1.7,0.1,2.6s0.1,1.9,0.2,2.9
			h-3.2c-0.1-0.9-0.2-1.8-0.2-2.7c0-0.9-0.1-1.7-0.1-2.5c-0.3,1-0.8,2-1.5,2.8c-0.7,0.9-1.6,1.6-2.8,2.2c-1.2,0.6-2.5,0.9-4.2,0.9
			C445.7,94.1,444.4,93.8,443.3,93.3z M452.1,90.1c1.2-0.8,2-1.8,2.6-3.1c0.6-1.3,0.9-2.7,0.9-4.1v-1.9c-0.5,0.3-1,0.6-1.5,0.8
			c-0.5,0.2-1.2,0.4-1.9,0.6l-0.6,0.1l-3.7,0.8c-1.6,0.3-2.7,0.8-3.4,1.5c-0.7,0.7-1.1,1.6-1.1,2.7c0,1.2,0.4,2.2,1.2,2.8
			c0.8,0.7,1.9,1,3.2,1C449.5,91.2,451,90.8,452.1,90.1z"/>
		<path d="M53.4,130c0.9-1.8,2.2-3.2,3.8-4.2c1.7-1,3.7-1.5,6.1-1.5c2.2,0,4,0.4,5.6,1.1c1.5,0.8,2.7,1.8,3.5,3.2
			c0.8,1.3,1.3,2.9,1.4,4.7h-3.4c-0.2-1.3-0.6-2.3-1.1-3.2c-0.6-0.9-1.3-1.6-2.3-2.1c-1-0.5-2.2-0.7-3.5-0.7c-1.7,0-3,0.3-4.2,0.9
			c-1.1,0.6-2,1.6-2.6,2.9c-0.6,1.3-0.9,3.1-0.9,5.2c0,2.1,0.3,3.9,0.9,5.2c0.6,1.3,1.5,2.3,2.6,2.9c1.1,0.6,2.5,0.9,4.1,0.9
			c2.2,0,3.9-0.6,5.2-1.7c1.2-1.1,1.9-2.7,2.2-4.7h3.4c-0.1,1.8-0.6,3.4-1.4,4.7s-2.1,2.5-3.7,3.3c-1.6,0.8-3.5,1.2-5.7,1.2
			c-2.4,0-4.4-0.5-6.1-1.5c-1.7-1-3-2.4-3.8-4.2s-1.3-3.9-1.3-6.2S52.6,131.8,53.4,130z"/>
		<path d="M78.6,125h3.6v22.5h-3.6V125z M93.8,129.8c-0.4-0.9-1-1.6-1.7-2c-0.8-0.4-1.7-0.6-2.9-0.6c-1.6,0-2.9,0.4-4,1.3
			c-1.1,0.9-1.8,2.1-2.3,3.8s-0.7,3.9-0.7,6.5H81V138c0.1-2.8,0.4-5.3,1.1-7.3c0.6-2,1.6-3.6,3-4.7c1.3-1.1,3.1-1.7,5.3-1.7
			c1.7,0,3.1,0.3,4.3,1c1.1,0.7,2,1.6,2.5,2.9c0.6,1.3,0.8,2.9,0.8,4.8v14.5h-3.6v-14.1C94.4,131.9,94.2,130.7,93.8,129.8z
			 M109.6,129.8c-0.4-0.9-1-1.6-1.7-2c-0.8-0.4-1.7-0.6-2.8-0.6c-1.6,0-3,0.4-4,1.3c-1.1,0.9-1.8,2.1-2.3,3.8s-0.7,3.9-0.7,6.5h-1.3
			c0-3,0.3-5.6,0.9-7.8c0.6-2.2,1.6-3.8,3-5c1.4-1.2,3.2-1.8,5.6-1.8c1.7,0,3.1,0.3,4.3,1c1.1,0.7,2,1.6,2.5,2.9
			c0.6,1.3,0.8,2.9,0.8,4.8v14.5h-3.6v-14.1C110.1,131.9,110,130.7,109.6,129.8z"/>
	</g>
</g>
</svg>
