<?xml version="1.0" encoding="utf-8"?>
<!-- Generator: Adobe Illustrator 25.2.0, SVG Export Plug-In . SVG Version: 6.00 Build 0)  -->
<svg version="1.1" id="Livello_1" xmlns="http://www.w3.org/2000/svg" xmlns:xlink="http://www.w3.org/1999/xlink" x="0px" y="0px"
	 viewBox="0 0 1200 716.6" style="enable-background:new 0 0 1200 716.6;" xml:space="preserve">
<style type="text/css">
	.st0{enable-background:new    ;}
	.st1{fill:none;stroke:#000000;stroke-width:0.5;stroke-linecap:square;stroke-linejoin:round;}
	.st2{fill:none;stroke:#000000;stroke-width:0.25;stroke-linecap:square;stroke-linejoin:round;}
	.st3{fill:none;stroke:#000000;stroke-width:0.75;}
	.st4{fill:none;stroke:#6691E0;stroke-width:4;stroke-linejoin:round;}
	.st5{fill:none;stroke:#003599;stroke-width:5;stroke-linejoin:round;stroke-dasharray:1,5;}
	.st6{fill:none;stroke:#99B5EB;stroke-width:5;stroke-linejoin:round;stroke-dasharray:1,5;}
</style>
<g transform="translate(-400,258)">
	<g>
		<g class="st0">
			<path d="M449.4,438.4l5.3-4.4c0.5-0.4,0.9-0.8,1.1-1.2s0.3-0.8,0.3-1.2c0-0.6-0.2-1-0.6-1.4s-0.9-0.5-1.7-0.5
				c-0.7,0-1.3,0.1-1.7,0.4c-0.4,0.3-0.8,0.6-1,1.2c-0.2,0.5-0.3,1.1-0.3,1.9h-1.4c0-0.9,0.2-1.6,0.5-2.3c0.3-0.7,0.8-1.2,1.4-1.6
				s1.5-0.6,2.5-0.6c0.9,0,1.6,0.1,2.1,0.4s0.9,0.6,1.2,1.1c0.2,0.4,0.4,1,0.4,1.5c0,0.7-0.2,1.3-0.6,1.9s-1,1.2-2,2l-3.6,3h6.4v1.1
				h-8.3L449.4,438.4L449.4,438.4z"/>
			<path d="M461.3,439c-0.7-0.5-1.2-1.1-1.6-2c-0.3-0.8-0.5-1.8-0.5-2.9s0.2-2.1,0.5-2.9s0.9-1.5,1.6-2s1.6-0.7,2.7-0.7
				s2,0.2,2.7,0.7s1.2,1.1,1.6,2s0.5,1.8,0.5,2.9s-0.2,2.1-0.5,2.9s-0.9,1.5-1.6,2s-1.6,0.7-2.7,0.7
				C463,439.7,462.1,439.5,461.3,439z M461,436.6c0.2,0.7,0.6,1.2,1.1,1.5s1.1,0.5,1.9,0.5s1.4-0.2,1.9-0.5s0.9-0.8,1.1-1.5
				s0.4-1.5,0.4-2.5s-0.1-1.9-0.4-2.5s-0.6-1.2-1.1-1.5s-1.1-0.5-1.9-0.5s-1.4,0.2-1.9,0.5s-0.9,0.8-1.1,1.5s-0.4,1.5-0.4,2.5
				S460.8,436,461,436.6z"/>
			<path d="M470.6,438.4l5.3-4.4c0.5-0.4,0.9-0.8,1.1-1.2c0.2-0.3,0.3-0.8,0.3-1.2c0-0.6-0.2-1-0.6-1.4s-0.9-0.5-1.7-0.5
				c-0.7,0-1.3,0.1-1.7,0.4c-0.4,0.3-0.8,0.6-1,1.2c-0.2,0.5-0.3,1.1-0.3,1.9h-1.4c0-0.9,0.2-1.6,0.5-2.3c0.3-0.7,0.8-1.2,1.4-1.6
				s1.5-0.6,2.5-0.6c0.9,0,1.6,0.1,2.1,0.4s0.9,0.6,1.2,1.1c0.3,0.4,0.4,1,0.4,1.5c0,0.7-0.2,1.3-0.6,1.9s-1,1.2-2,2l-3.6,3h6.4v1.1
				h-8.3L470.6,438.4L470.6,438.4z"/>
			<path d="M480.7,438.4h2.5v-8.5h-2.5v-1.1h2.3c0.5,0,0.9,0.1,1.2,0.3c0.2,0.2,0.3,0.6,0.3,1v8.2h2.3v1.1h-6.1L480.7,438.4
				L480.7,438.4z"/>
		</g>
	</g>
</g>
<g transform="translate(-400,258)">
	<g>
		<g class="st0">
			<path d="M895.5,438.4l5.3-4.4c0.5-0.4,0.9-0.8,1.1-1.2s0.3-0.8,0.3-1.2c0-0.6-0.2-1-0.6-1.4c-0.4-0.3-0.9-0.5-1.7-0.5
				c-0.7,0-1.3,0.1-1.7,0.4s-0.8,0.6-1,1.2c-0.2,0.5-0.3,1.1-0.3,1.9h-1.4c0-0.9,0.2-1.6,0.5-2.3s0.8-1.2,1.4-1.6
				c0.6-0.4,1.5-0.6,2.5-0.6c0.9,0,1.6,0.1,2.1,0.4s0.9,0.6,1.2,1.1c0.2,0.4,0.4,1,0.4,1.5c0,0.7-0.2,1.3-0.6,1.9
				c-0.4,0.6-1,1.2-2,2l-3.6,3h6.4v1.1h-8.3L895.5,438.4L895.5,438.4z"/>
			<path d="M907.5,439c-0.7-0.5-1.2-1.1-1.6-2c-0.3-0.8-0.5-1.8-0.5-2.9s0.2-2.1,0.5-2.9s0.9-1.5,1.6-2s1.6-0.7,2.7-0.7
				c1.1,0,2,0.2,2.7,0.7s1.2,1.1,1.6,2c0.3,0.8,0.5,1.8,0.5,2.9s-0.2,2.1-0.5,2.9s-0.9,1.5-1.6,2c-0.7,0.5-1.6,0.7-2.7,0.7
				S908.1,439.5,907.5,439z M907,436.6c0.2,0.7,0.6,1.2,1.1,1.5s1.1,0.5,1.9,0.5c0.8,0,1.4-0.2,1.9-0.5s0.9-0.8,1.1-1.5
				c0.2-0.7,0.4-1.5,0.4-2.5s-0.1-1.9-0.4-2.5c-0.2-0.7-0.6-1.2-1.1-1.5s-1.1-0.5-1.9-0.5c-0.8,0-1.4,0.2-1.9,0.5s-0.9,0.8-1.1,1.5
				s-0.4,1.5-0.4,2.5S906.8,436,907,436.6z"/>
			<path d="M916.6,438.4l5.3-4.4c0.5-0.4,0.9-0.8,1.1-1.2s0.3-0.8,0.3-1.2c0-0.6-0.2-1-0.6-1.4s-0.9-0.5-1.7-0.5
				c-0.7,0-1.3,0.1-1.7,0.4s-0.8,0.6-1,1.2c-0.2,0.5-0.3,1.1-0.3,1.9h-1.4c0-0.9,0.2-1.6,0.5-2.3c0.3-0.7,0.8-1.2,1.4-1.6
				c0.6-0.4,1.5-0.6,2.5-0.6c0.9,0,1.6,0.1,2.1,0.4s0.9,0.6,1.2,1.1c0.2,0.4,0.4,1,0.4,1.5c0,0.7-0.2,1.3-0.6,1.9s-1,1.2-2,2l-3.6,3
				h6.4v1.1h-8.3L916.6,438.4L916.6,438.4z"/>
			<path d="M926.8,438.4l5.3-4.4c0.5-0.4,0.9-0.8,1.1-1.2c0.2-0.3,0.3-0.8,0.3-1.2c0-0.6-0.2-1-0.6-1.4c-0.4-0.3-0.9-0.5-1.7-0.5
				c-0.7,0-1.3,0.1-1.7,0.4s-0.8,0.6-1,1.2c-0.2,0.5-0.3,1.1-0.3,1.9h-1.4c0-0.9,0.2-1.6,0.5-2.3c0.3-0.7,0.8-1.2,1.4-1.6
				c0.6-0.4,1.5-0.6,2.5-0.6c0.9,0,1.6,0.1,2.1,0.4s0.9,0.6,1.2,1.1c0.3,0.4,0.4,1,0.4,1.5c0,0.7-0.2,1.3-0.6,1.9
				c-0.4,0.6-1,1.2-2,2l-3.6,3h6.4v1.1h-8.3L926.8,438.4L926.8,438.4z"/>
		</g>
	</g>
</g>
<g>
	<g class="st0">
		<path d="M1142.4,164.9h-1.3v-9.6l-3.6,9.6h-1.8l-3.6-9.6v9.6h-1.3v-10.6h2.3l3.5,9.4l3.5-9.4h2.3V164.9z"/>
		<path d="M1152.4,164.9l-1-2.7h-5.3l-1,2.7h-1.3l4-10.6h2l4,10.6H1152.4z M1146.5,161.1h4.5l-2.2-5.9L1146.5,161.1z"/>
		<path d="M1156,164.9h-1.6l4.3-5.9l0.8,1L1156,164.9z M1154.5,154.2h1.6l8,10.6h-1.7L1154.5,154.2z M1162.3,154.2h1.6l-4.2,5.8
			l-0.8-1L1162.3,154.2z"/>
	</g>
</g>
<g>
	<g class="st0">
		<path d="M1142.4,462.8h-1.3v-9.6l-3.6,9.6h-1.8l-3.6-9.6v9.6h-1.3v-10.6h2.3l3.5,9.4l3.5-9.4h2.3V462.8z"/>
		<path d="M1144.3,452.2h5.8v1.1h-5.8V452.2z M1144.3,461.7h5.8v1.1h-5.8V461.7z M1146.6,452.7h1.3v9.6h-1.3V452.7z"/>
		<path d="M1159.8,452.2h1.3v10.6h-2.2l-4.8-8.4c-0.3-0.6-0.5-1-0.7-1.4v9.7h-1.3v-10.6h2.2l4.8,8.4c0.2,0.3,0.4,0.8,0.7,1.4V452.2z
			"/>
	</g>
</g>
<g transform="translate(-400,258)">
	<g>
		<g class="st0">
			<path d="M1343.6,438.4l5.3-4.4c0.5-0.4,0.9-0.8,1.1-1.2s0.3-0.8,0.3-1.2c0-0.6-0.2-1-0.6-1.4c-0.4-0.3-0.9-0.5-1.7-0.5
				c-0.7,0-1.3,0.1-1.7,0.4c-0.4,0.3-0.8,0.6-1,1.2c-0.2,0.5-0.3,1.1-0.3,1.9h-1.4c0-0.9,0.2-1.6,0.5-2.3s0.8-1.2,1.4-1.6
				s1.5-0.6,2.5-0.6c0.9,0,1.6,0.1,2.1,0.4s0.9,0.6,1.2,1.1c0.2,0.4,0.4,1,0.4,1.5c0,0.7-0.2,1.3-0.6,1.9s-1,1.2-2,2l-3.6,3h6.4v1.1
				h-8.3L1343.6,438.4L1343.6,438.4z"/>
			<path d="M1355.5,439c-0.7-0.5-1.2-1.1-1.6-2c-0.3-0.8-0.5-1.8-0.5-2.9s0.2-2.1,0.5-2.9s0.9-1.5,1.6-2s1.6-0.7,2.7-0.7
				s2,0.2,2.7,0.7s1.2,1.1,1.6,2c0.3,0.8,0.5,1.8,0.5,2.9s-0.2,2.1-0.5,2.9s-0.9,1.5-1.6,2s-1.6,0.7-2.7,0.7
				C1357.2,439.7,1356.3,439.5,1355.5,439z M1355.2,436.6c0.2,0.7,0.6,1.2,1.1,1.5s1.1,0.5,1.9,0.5s1.4-0.2,1.9-0.5s0.9-0.8,1.1-1.5
				s0.4-1.5,0.4-2.5s-0.1-1.9-0.4-2.5c-0.2-0.7-0.6-1.2-1.1-1.5s-1.1-0.5-1.9-0.5s-1.4,0.2-1.9,0.5s-0.9,0.8-1.1,1.5
				s-0.4,1.5-0.4,2.5C1354.8,435.1,1355,436,1355.2,436.6z"/>
			<path d="M1364.8,438.4l5.3-4.4c0.5-0.4,0.9-0.8,1.1-1.2s0.3-0.8,0.3-1.2c0-0.6-0.2-1-0.6-1.4s-0.9-0.5-1.7-0.5
				c-0.7,0-1.3,0.1-1.7,0.4c-0.4,0.3-0.8,0.6-1,1.2c-0.2,0.5-0.3,1.1-0.3,1.9h-1.4c0-0.9,0.2-1.6,0.5-2.3c0.3-0.7,0.8-1.2,1.4-1.6
				s1.5-0.6,2.5-0.6c0.9,0,1.6,0.1,2.1,0.4s0.9,0.6,1.2,1.1c0.2,0.4,0.4,1,0.4,1.5c0,0.7-0.2,1.3-0.6,1.9s-1,1.2-2,2l-3.6,3h6.4v1.1
				h-8.3L1364.8,438.4L1364.8,438.4z"/>
			<path d="M1376.4,437.3c0.2,0.4,0.6,0.7,1,0.9c0.4,0.2,0.9,0.4,1.5,0.4c0.9,0,1.7-0.2,2.1-0.6c0.5-0.4,0.7-1.1,0.7-1.9
				c0-0.7-0.2-1.2-0.6-1.7c-0.4-0.4-1-0.6-1.7-0.6c-0.4,0-0.7,0-1,0.1s-0.6,0.2-0.9,0.5l-0.6-0.8l4.2-3.6h-6v-1.1h7.6v1.1l-3.7,3.3
				c0.3-0.1,0.7-0.1,1.1-0.1c0.5,0,1,0.1,1.5,0.3c0.5,0.2,0.8,0.6,1.1,1c0.3,0.5,0.4,1,0.4,1.7c0,0.6-0.1,1.2-0.4,1.8
				s-0.8,1-1.4,1.3s-1.5,0.5-2.5,0.5c-0.9,0-1.7-0.2-2.3-0.5s-1.1-0.8-1.4-1.3c-0.3-0.6-0.5-1.2-0.5-1.9h1.4
				C1376,436.5,1376.1,436.9,1376.4,437.3z"/>
		</g>
	</g>
</g>
<line class="st1" x1="67.4" y1="650.8" x2="67.4" y2="84.7"/>
<line class="st2" x1="1186" y1="650.8" x2="1186" y2="84.7"/>
<line class="st2" x1="178" y1="650.8" x2="178" y2="84.7"/>
<line class="st2" x1="104.2" y1="650.8" x2="104.2" y2="644.5"/>
<line class="st2" x1="141" y1="650.8" x2="141" y2="644.5"/>
<line class="st2" x1="289.6" y1="650.8" x2="289.6" y2="84.7"/>
<line class="st2" x1="215.8" y1="650.8" x2="215.8" y2="644.5"/>
<line class="st2" x1="252.6" y1="650.8" x2="252.6" y2="644.5"/>
<line class="st2" x1="363.4" y1="650.8" x2="363.4" y2="644.5"/>
<line class="st2" x1="326.4" y1="650.8" x2="326.4" y2="644.5"/>
<line class="st2" x1="402.4" y1="650.8" x2="402.4" y2="84.7"/>
<line class="st2" x1="439.4" y1="650.8" x2="439.4" y2="644.5"/>
<line class="st2" x1="478.4" y1="650.8" x2="478.4" y2="644.5"/>
<line class="st1" x1="515.3" y1="650.8" x2="515.3" y2="84.7"/>
<line class="st2" x1="554.4" y1="650.8" x2="554.4" y2="644.5"/>
<line class="st2" x1="591.3" y1="650.8" x2="591.3" y2="644.5"/>
<line class="st2" x1="625.7" y1="650.8" x2="625.7" y2="84.7"/>
<line class="st2" x1="666" y1="650.8" x2="666" y2="644.5"/>
<line class="st2" x1="702.9" y1="650.8" x2="702.9" y2="644.5"/>
<line class="st2" x1="737.3" y1="650.8" x2="737.3" y2="84.7"/>
<line class="st2" x1="774.2" y1="650.8" x2="774.2" y2="644.5"/>
<line class="st2" x1="808.6" y1="650.8" x2="808.6" y2="644.5"/>
<line class="st2" x1="850.1" y1="650.8" x2="850.1" y2="84.7"/>
<line class="st2" x1="884.5" y1="650.8" x2="884.5" y2="644.5"/>
<line class="st2" x1="926.1" y1="650.8" x2="926.1" y2="644.5"/>
<line class="st1" x1="963" y1="650.8" x2="963" y2="84.7"/>
<line class="st2" x1="1004.6" y1="650.8" x2="1004.6" y2="644.5"/>
<line class="st2" x1="1041.5" y1="650.8" x2="1041.5" y2="644.5"/>
<line class="st2" x1="1073.4" y1="650.8" x2="1073.4" y2="84.7"/>
<line class="st2" x1="1110.3" y1="650.8" x2="1110.3" y2="644.5"/>
<line class="st2" x1="1142.1" y1="650.8" x2="1142.1" y2="644.5"/>
<line class="st1" x1="67.4" y1="564.5" x2="61.4" y2="564.5"/>
<line class="st1" x1="67.4" y1="613.5" x2="61.4" y2="613.5"/>
<line class="st1" x1="67.4" y1="515.5" x2="61.4" y2="515.5"/>
<line class="st3" x1="67.4" y1="466.4" x2="61.4" y2="466.4"/>
<line class="st1" x1="67.4" y1="417.4" x2="61.4" y2="417.4"/>
<line class="st1" x1="67.4" y1="368.4" x2="61.4" y2="368.4"/>
<line class="st1" x1="67.4" y1="319.4" x2="61.4" y2="319.4"/>
<line class="st1" x1="67.4" y1="270.3" x2="61.4" y2="270.3"/>
<line class="st1" x1="67.4" y1="221.3" x2="61.4" y2="221.3"/>
<line class="st1" x1="67.4" y1="123.3" x2="61.4" y2="123.3"/>
<line class="st1" x1="67.4" y1="172.3" x2="61.4" y2="172.3"/>
<g>
	<g>
		<g class="st0">
			<path d="M31.9,609.4v1h-6.4v-1H31.9z"/>
			<path d="M35.2,613.6c-0.6-0.4-1.1-0.9-1.5-1.8c-0.4-0.8-0.5-1.9-0.5-3.1c0-1.2,0.2-2.2,0.5-3.1c0.3-0.9,0.9-1.5,1.5-2
				s1.5-0.7,2.5-0.7c0.8,0,1.5,0.1,2,0.4c0.5,0.2,0.9,0.6,1.2,1s0.5,1,0.6,1.6h-1.3c-0.1-0.4-0.2-0.7-0.4-1s-0.5-0.5-0.8-0.7
				c-0.4-0.2-0.8-0.2-1.3-0.2c-1.1,0-1.9,0.4-2.5,1.2c-0.5,0.8-0.8,2-0.8,3.8v1l-0.3-0.2c0.2-0.8,0.6-1.4,1.3-1.9s1.5-0.7,2.4-0.7
				c0.7,0,1.3,0.1,1.9,0.4c0.6,0.3,1,0.6,1.3,1.1s0.5,1.1,0.5,1.8s-0.2,1.3-0.5,1.8s-0.8,1-1.4,1.3s-1.3,0.5-2.2,0.5
				C36.6,614.2,35.8,614,35.2,613.6z M39.4,612.4c0.4-0.4,0.7-1,0.7-1.8s-0.2-1.4-0.7-1.8s-1.1-0.7-1.9-0.7c-0.6,0-1,0.1-1.5,0.3
				c-0.4,0.2-0.8,0.5-1,0.8c-0.2,0.4-0.4,0.8-0.4,1.3c0,0.7,0.2,1.3,0.7,1.8c0.5,0.4,1.1,0.7,2,0.7C38.3,613.1,39,612.9,39.4,612.4z
				"/>
			<path d="M45.2,613.5c-0.7-0.5-1.2-1.1-1.6-2c-0.3-0.8-0.5-1.8-0.5-2.9s0.2-2.1,0.5-2.9c0.3-0.8,0.9-1.5,1.6-2
				c0.7-0.5,1.6-0.7,2.7-0.7c1.1,0,2,0.2,2.7,0.7s1.2,1.1,1.6,2s0.5,1.8,0.5,2.9s-0.2,2.1-0.5,2.9s-0.9,1.5-1.6,2
				c-0.7,0.5-1.6,0.7-2.7,0.7S45.9,613.9,45.2,613.5z M44.8,611.1c0.2,0.7,0.6,1.2,1.1,1.5s1.1,0.5,1.9,0.5s1.4-0.2,1.9-0.5
				s0.9-0.8,1.1-1.5c0.2-0.7,0.4-1.5,0.4-2.5s-0.1-1.9-0.4-2.5s-0.6-1.2-1.1-1.5s-1.1-0.5-1.9-0.5s-1.4,0.2-1.9,0.5
				s-0.9,0.8-1.1,1.5c-0.2,0.7-0.4,1.5-0.4,2.5C44.5,609.6,44.6,610.4,44.8,611.1z"/>
		</g>
	</g>
</g>
<g>
	<g>
		<g class="st0">
			<path d="M31.8,560.3v1h-6.4v-1H31.8z"/>
			<path d="M38.7,562.1h-5.8V561l5.1-6.9h1.4l-5.1,6.9h4.5v-6.9H40v6.9h1.8v1.1H40v2.7h-1.3V562.1z"/>
			<path d="M45.2,564.4c-0.7-0.5-1.2-1.1-1.6-2c-0.3-0.8-0.5-1.8-0.5-2.9s0.2-2.1,0.5-2.9c0.3-0.8,0.9-1.5,1.6-2s1.6-0.7,2.7-0.7
				c1.1,0,2,0.2,2.7,0.7s1.2,1.1,1.6,2s0.5,1.8,0.5,2.9s-0.2,2.1-0.5,2.9s-0.9,1.5-1.6,2c-0.7,0.5-1.6,0.7-2.7,0.7
				C46.8,565.1,45.9,564.8,45.2,564.4z M44.8,562c0.2,0.7,0.6,1.2,1.1,1.5s1.1,0.5,1.9,0.5s1.4-0.2,1.9-0.5s0.9-0.8,1.1-1.5
				c0.2-0.7,0.4-1.5,0.4-2.5s-0.1-1.9-0.4-2.5s-0.6-1.2-1.1-1.5s-1.1-0.5-1.9-0.5s-1.4,0.2-1.9,0.5s-0.9,0.8-1.1,1.5
				s-0.4,1.5-0.4,2.5C44.5,560.5,44.6,561.3,44.8,562z"/>
		</g>
	</g>
</g>
<g>
	<g>
		<g class="st0">
			<path d="M31.8,511.3v1h-6.4v-1H31.8z"/>
			<path d="M33.4,514.7l5.3-4.4c0.5-0.4,0.9-0.8,1.1-1.2c0.2-0.3,0.3-0.8,0.3-1.2c0-0.6-0.2-1-0.6-1.4s-0.9-0.5-1.7-0.5
				c-0.7,0-1.3,0.1-1.7,0.4s-0.8,0.6-1,1.2c-0.2,0.5-0.3,1.1-0.3,1.9h-1.4c0-0.9,0.2-1.6,0.5-2.3c0.3-0.7,0.8-1.2,1.4-1.6
				c0.6-0.4,1.5-0.6,2.5-0.6c0.9,0,1.6,0.1,2.1,0.4s0.9,0.6,1.2,1.1c0.3,0.4,0.4,1,0.4,1.5c0,0.7-0.2,1.3-0.6,1.9
				c-0.4,0.6-1,1.2-2,2l-3.6,3h6.4v1.1h-8.3C33.4,516,33.4,514.7,33.4,514.7z"/>
			<path d="M45.3,515.4c-0.7-0.5-1.2-1.1-1.6-2c-0.3-0.8-0.5-1.8-0.5-2.9s0.2-2.1,0.5-2.9s0.9-1.5,1.6-2c0.7-0.5,1.6-0.7,2.7-0.7
				c1.1,0,2,0.2,2.7,0.7s1.2,1.1,1.6,2c0.3,0.8,0.5,1.8,0.5,2.9s-0.2,2.1-0.5,2.9s-0.9,1.5-1.6,2c-0.7,0.5-1.6,0.7-2.7,0.7
				C46.9,516.1,46,515.8,45.3,515.4z M44.9,513c0.2,0.7,0.6,1.2,1.1,1.5s1.1,0.5,1.9,0.5c0.8,0,1.4-0.2,1.9-0.5s0.9-0.8,1.1-1.5
				c0.2-0.7,0.4-1.5,0.4-2.5s-0.1-1.9-0.4-2.5s-0.6-1.2-1.1-1.5s-1.1-0.5-1.9-0.5c-0.8,0-1.4,0.2-1.9,0.5s-0.9,0.8-1.1,1.5
				c-0.2,0.7-0.4,1.5-0.4,2.5C44.6,511.5,44.7,512.3,44.9,513z"/>
		</g>
	</g>
</g>
<g>
	<g>
		<g class="st0">
			<path d="M45.1,466.3c-0.7-0.5-1.2-1.1-1.6-2c-0.3-0.8-0.5-1.8-0.5-2.9s0.2-2.1,0.5-2.9s0.9-1.5,1.6-2s1.6-0.7,2.7-0.7
				c1.1,0,2,0.2,2.7,0.7s1.2,1.1,1.6,2c0.3,0.8,0.5,1.8,0.5,2.9s-0.2,2.1-0.5,2.9s-0.9,1.5-1.6,2c-0.7,0.5-1.6,0.7-2.7,0.7
				C46.7,467,45.8,466.7,45.1,466.3z M44.7,463.9c0.2,0.7,0.6,1.2,1.1,1.5s1.1,0.5,1.9,0.5c0.8,0,1.4-0.2,1.9-0.5s0.9-0.8,1.1-1.5
				c0.2-0.7,0.4-1.5,0.4-2.5s-0.1-1.9-0.4-2.5c-0.2-0.7-0.6-1.2-1.1-1.5s-1.1-0.5-1.9-0.5c-0.8,0-1.4,0.2-1.9,0.5s-0.9,0.8-1.1,1.5
				s-0.4,1.5-0.4,2.5C44.4,462.4,44.5,463.2,44.7,463.9z"/>
		</g>
	</g>
</g>
<g>
	<g>
		<g class="st0">
			<path d="M33.4,416.3l5.3-4.4c0.5-0.4,0.9-0.8,1.1-1.2s0.3-0.8,0.3-1.2c0-0.6-0.2-1-0.6-1.4s-0.9-0.5-1.7-0.5
				c-0.7,0-1.3,0.1-1.7,0.4s-0.8,0.6-1,1.2c-0.2,0.5-0.3,1.1-0.3,1.9h-1.4c0-0.9,0.2-1.6,0.5-2.3c0.3-0.7,0.8-1.2,1.4-1.6
				c0.6-0.4,1.5-0.6,2.5-0.6c0.9,0,1.6,0.1,2.1,0.4s0.9,0.6,1.2,1.1c0.2,0.4,0.4,1,0.4,1.5c0,0.7-0.2,1.3-0.6,1.9s-1,1.2-2,2l-3.6,3
				h6.4v1.1h-8.3C33.4,417.6,33.4,416.3,33.4,416.3z"/>
			<path d="M45.3,416.9c-0.7-0.5-1.2-1.1-1.6-2c-0.3-0.8-0.5-1.8-0.5-2.9s0.2-2.1,0.5-2.9s0.9-1.5,1.6-2s1.6-0.7,2.7-0.7
				c1.1,0,2,0.2,2.7,0.7s1.2,1.1,1.6,2c0.3,0.8,0.5,1.8,0.5,2.9s-0.2,2.1-0.5,2.9s-0.9,1.5-1.6,2c-0.7,0.5-1.6,0.7-2.7,0.7
				C46.9,417.6,46,417.4,45.3,416.9z M44.9,414.5c0.2,0.7,0.6,1.2,1.1,1.5s1.1,0.5,1.9,0.5c0.8,0,1.4-0.2,1.9-0.5s0.9-0.8,1.1-1.5
				c0.2-0.7,0.4-1.5,0.4-2.5s-0.1-1.9-0.4-2.5c-0.2-0.7-0.6-1.2-1.1-1.5s-1.1-0.5-1.9-0.5c-0.8,0-1.4,0.2-1.9,0.5s-0.9,0.8-1.1,1.5
				s-0.4,1.5-0.4,2.5C44.6,413,44.7,413.8,44.9,414.5z"/>
		</g>
	</g>
</g>
<g>
	<g>
		<g class="st0">
			<path d="M38.9,365.1H33V364l5.1-6.9h1.4l-5.1,6.9h4.5v-6.9h1.3v6.9H42v1.1h-1.8v2.7h-1.3V365.1z"/>
			<path d="M45.3,367.3c-0.7-0.5-1.2-1.1-1.6-2c-0.3-0.8-0.5-1.8-0.5-2.9s0.2-2.1,0.5-2.9s0.9-1.5,1.6-2c0.7-0.5,1.6-0.7,2.7-0.7
				c1.1,0,2,0.2,2.7,0.7s1.2,1.1,1.6,2s0.5,1.8,0.5,2.9s-0.2,2.1-0.5,2.9s-0.9,1.5-1.6,2c-0.7,0.5-1.6,0.7-2.7,0.7
				C46.9,368,46,367.8,45.3,367.3z M45,365c0.2,0.7,0.6,1.2,1.1,1.5s1.1,0.5,1.9,0.5s1.4-0.2,1.9-0.5s0.9-0.8,1.1-1.5
				c0.2-0.7,0.4-1.5,0.4-2.5s-0.1-1.9-0.4-2.5s-0.6-1.2-1.1-1.5S48.8,358,48,358s-1.4,0.2-1.9,0.5s-0.9,0.8-1.1,1.5
				c-0.2,0.7-0.4,1.5-0.4,2.5C44.6,363.4,44.7,364.3,45,365z"/>
		</g>
	</g>
</g>
<g>
	<g>
		<g class="st0">
			<path d="M35.2,319.3c-0.6-0.4-1.1-0.9-1.5-1.8c-0.4-0.8-0.5-1.9-0.5-3.1s0.2-2.2,0.5-3.1s0.9-1.5,1.5-2s1.5-0.7,2.5-0.7
				c0.8,0,1.5,0.1,2,0.4c0.5,0.2,0.9,0.6,1.2,1s0.5,1,0.6,1.6h-1.3c-0.1-0.4-0.2-0.7-0.4-1s-0.5-0.5-0.8-0.7
				c-0.4-0.2-0.8-0.2-1.3-0.2c-1.1,0-1.9,0.4-2.5,1.2c-0.5,0.8-0.8,2-0.8,3.8v1l-0.3-0.2c0.2-0.8,0.6-1.4,1.3-1.9s1.5-0.7,2.4-0.7
				c0.7,0,1.3,0.1,1.9,0.4s1,0.6,1.3,1.1s0.5,1.1,0.5,1.8c0,0.7-0.2,1.3-0.5,1.8s-0.8,1-1.4,1.3s-1.3,0.5-2.2,0.5
				C36.6,319.8,35.8,319.7,35.2,319.3z M39.4,318.1c0.4-0.4,0.7-1,0.7-1.8s-0.2-1.4-0.7-1.8s-1.1-0.7-1.9-0.7c-0.6,0-1,0.1-1.5,0.3
				c-0.4,0.2-0.8,0.5-1,0.8c-0.2,0.4-0.4,0.8-0.4,1.3c0,0.7,0.2,1.3,0.7,1.8c0.5,0.4,1.1,0.7,2,0.7C38.3,318.7,39,318.5,39.4,318.1z
				"/>
			<path d="M45.2,319.1c-0.7-0.5-1.2-1.1-1.6-2c-0.3-0.8-0.5-1.8-0.5-2.9s0.2-2.1,0.5-2.9s0.9-1.5,1.6-2s1.6-0.7,2.7-0.7
				c1.1,0,2,0.2,2.7,0.7s1.2,1.1,1.6,2s0.5,1.8,0.5,2.9s-0.2,2.1-0.5,2.9s-0.9,1.5-1.6,2c-0.7,0.5-1.6,0.7-2.7,0.7
				C46.8,319.8,45.9,319.6,45.2,319.1z M44.8,316.7c0.2,0.7,0.6,1.2,1.1,1.5s1.1,0.5,1.9,0.5s1.4-0.2,1.9-0.5s0.9-0.8,1.1-1.5
				c0.2-0.7,0.4-1.5,0.4-2.5s-0.1-1.9-0.4-2.5s-0.6-1.2-1.1-1.5s-1.1-0.5-1.9-0.5s-1.4,0.2-1.9,0.5s-0.9,0.8-1.1,1.5
				s-0.4,1.5-0.4,2.5C44.5,315.2,44.6,316.1,44.8,316.7z"/>
		</g>
	</g>
</g>
<g>
	<g>
		<g class="st0">
			<path d="M34.9,270.2c-0.6-0.3-1.1-0.7-1.4-1.1c-0.3-0.5-0.4-1-0.4-1.5c0-0.7,0.2-1.2,0.6-1.7c0.4-0.5,0.9-0.8,1.6-1
				c-0.6-0.2-1-0.5-1.4-1c-0.3-0.4-0.5-0.9-0.5-1.5c0-0.5,0.1-1,0.4-1.4c0.3-0.4,0.7-0.8,1.3-1c0.6-0.3,1.3-0.4,2.2-0.4
				s1.6,0.1,2.2,0.4c0.6,0.3,1,0.6,1.3,1s0.4,0.9,0.4,1.4c0,0.6-0.2,1.1-0.5,1.5s-0.8,0.8-1.4,1c0.5,0.1,0.8,0.4,1.2,0.6
				c0.3,0.3,0.6,0.6,0.7,0.9c0.2,0.4,0.2,0.8,0.2,1.2c0,0.6-0.1,1.1-0.4,1.5c-0.3,0.5-0.7,0.8-1.4,1.1s-1.4,0.4-2.4,0.4
				S35.5,270.5,34.9,270.2z M38.9,269.3c0.4-0.2,0.7-0.4,0.9-0.7s0.3-0.7,0.3-1.1c0-0.7-0.2-1.2-0.7-1.6s-1.2-0.6-2.1-0.6
				c-0.6,0-1.1,0.1-1.6,0.3c-0.4,0.2-0.7,0.4-0.9,0.7c-0.2,0.3-0.3,0.7-0.3,1.1c0,0.6,0.2,1.1,0.7,1.5s1.2,0.6,2.1,0.6
				C37.9,269.5,38.4,269.4,38.9,269.3z M38.8,264.1c0.4-0.2,0.7-0.4,0.8-0.7c0.2-0.3,0.3-0.6,0.3-1c0-0.6-0.2-1-0.6-1.4
				c-0.4-0.3-1.1-0.5-2-0.5c-0.6,0-1.1,0.1-1.5,0.2c-0.4,0.2-0.7,0.4-0.9,0.7c-0.2,0.3-0.3,0.6-0.3,1s0.1,0.7,0.3,1s0.5,0.5,0.8,0.7
				c0.4,0.2,0.9,0.3,1.5,0.3C37.9,264.3,38.4,264.2,38.8,264.1z"/>
			<path d="M45.1,269.9c-0.7-0.5-1.2-1.1-1.6-2c-0.3-0.8-0.5-1.8-0.5-2.9s0.2-2.1,0.5-2.9s0.9-1.5,1.6-2s1.6-0.7,2.7-0.7
				c1.1,0,2,0.2,2.7,0.7s1.2,1.1,1.6,2c0.3,0.8,0.5,1.8,0.5,2.9s-0.2,2.1-0.5,2.9s-0.9,1.5-1.6,2c-0.7,0.5-1.6,0.7-2.7,0.7
				C46.7,270.6,45.8,270.4,45.1,269.9z M44.7,267.5c0.2,0.7,0.6,1.2,1.1,1.5s1.1,0.5,1.9,0.5c0.8,0,1.4-0.2,1.9-0.5s0.9-0.8,1.1-1.5
				c0.2-0.7,0.4-1.5,0.4-2.5s-0.1-1.9-0.4-2.5c-0.2-0.7-0.6-1.2-1.1-1.5s-1.1-0.5-1.9-0.5c-0.8,0-1.4,0.2-1.9,0.5s-0.9,0.8-1.1,1.5
				s-0.4,1.5-0.4,2.5C44.4,266,44.5,266.9,44.7,267.5z"/>
		</g>
	</g>
</g>
<g>
	<g>
		<g class="st0">
			<path d="M26,171.2h2.5v-8.5H26v-1.1h2.3c0.5,0,0.9,0.1,1.2,0.3c0.2,0.2,0.3,0.6,0.3,1v8.2h2.3v1.1H26V171.2z"/>
			<path d="M33.6,171.2l5.3-4.4c0.5-0.4,0.9-0.8,1.1-1.2c0.2-0.3,0.3-0.8,0.3-1.2c0-0.6-0.2-1-0.6-1.4s-0.9-0.5-1.7-0.5
				c-0.7,0-1.3,0.1-1.7,0.4c-0.4,0.3-0.8,0.6-1,1.2c-0.2,0.5-0.3,1.1-0.3,1.9h-1.4c0-0.9,0.2-1.6,0.5-2.3s0.8-1.2,1.4-1.6
				c0.6-0.4,1.5-0.6,2.5-0.6c0.9,0,1.6,0.1,2.1,0.4c0.5,0.3,0.9,0.6,1.2,1.1c0.3,0.4,0.4,1,0.4,1.5c0,0.7-0.2,1.3-0.6,1.9
				s-1,1.2-2,2l-3.6,3h6.4v1.1h-8.3C33.6,172.5,33.6,171.2,33.6,171.2z"/>
			<path d="M45.5,171.9c-0.7-0.5-1.2-1.1-1.6-2c-0.3-0.8-0.5-1.8-0.5-2.9s0.2-2.1,0.5-2.9c0.3-0.8,0.9-1.5,1.6-2s1.6-0.7,2.7-0.7
				c1.1,0,2,0.2,2.7,0.7s1.2,1.1,1.6,2s0.5,1.8,0.5,2.9s-0.2,2.1-0.5,2.9s-0.9,1.5-1.6,2c-0.7,0.5-1.6,0.7-2.7,0.7
				C47.1,172.6,46.2,172.3,45.5,171.9z M45.2,169.5c0.2,0.7,0.6,1.2,1.1,1.5s1.1,0.5,1.9,0.5c0.8,0,1.4-0.2,1.9-0.5s0.9-0.8,1.1-1.5
				c0.2-0.7,0.4-1.5,0.4-2.5s-0.1-1.9-0.4-2.5c-0.2-0.7-0.6-1.2-1.1-1.5s-1.1-0.5-1.9-0.5c-0.8,0-1.4,0.2-1.9,0.5s-0.9,0.8-1.1,1.5
				s-0.4,1.5-0.4,2.5S44.9,168.8,45.2,169.5z"/>
		</g>
	</g>
</g>
<g>
	<g>
		<g class="st0">
			<path d="M25.2,220.2h2.5v-8.5h-2.5v-1.1h2.3c0.5,0,0.9,0.1,1.2,0.3c0.2,0.2,0.3,0.6,0.3,1v8.2h2.3v1.1h-6.1
				C25.2,221.2,25.2,220.2,25.2,220.2z"/>
			<path d="M34.6,220.9c-0.7-0.5-1.2-1.1-1.6-2c-0.3-0.8-0.5-1.8-0.5-2.9s0.2-2.1,0.5-2.9c0.3-0.8,0.9-1.5,1.6-2s1.6-0.7,2.7-0.7
				c1.1,0,2,0.2,2.7,0.7s1.2,1.1,1.6,2s0.5,1.8,0.5,2.9s-0.2,2.1-0.5,2.9s-0.9,1.5-1.6,2c-0.7,0.5-1.6,0.7-2.7,0.7
				C36.2,221.6,35.3,221.4,34.6,220.9z M34.2,218.5c0.2,0.7,0.6,1.2,1.1,1.5s1.1,0.5,1.9,0.5s1.4-0.2,1.9-0.5s0.9-0.8,1.1-1.5
				c0.2-0.7,0.4-1.5,0.4-2.5s-0.1-1.9-0.4-2.5s-0.6-1.2-1.1-1.5s-1.1-0.5-1.9-0.5s-1.4,0.2-1.9,0.5s-0.9,0.8-1.1,1.5
				s-0.4,1.5-0.4,2.5C33.9,217,34,217.8,34.2,218.5z"/>
			<path d="M45.6,220.9c-0.7-0.5-1.2-1.1-1.6-2c-0.3-0.8-0.5-1.8-0.5-2.9s0.2-2.1,0.5-2.9c0.3-0.8,0.9-1.5,1.6-2
				c0.7-0.5,1.6-0.7,2.7-0.7c1.1,0,2,0.2,2.7,0.7s1.2,1.1,1.6,2s0.5,1.8,0.5,2.9s-0.2,2.1-0.5,2.9s-0.9,1.5-1.6,2
				c-0.7,0.5-1.6,0.7-2.7,0.7C47.2,221.6,46.4,221.4,45.6,220.9z M45.3,218.5c0.2,0.7,0.6,1.2,1.1,1.5s1.1,0.5,1.9,0.5
				c0.8,0,1.4-0.2,1.9-0.5s0.9-0.8,1.1-1.5c0.2-0.7,0.4-1.5,0.4-2.5s-0.1-1.9-0.4-2.5c-0.2-0.7-0.6-1.2-1.1-1.5s-1.1-0.5-1.9-0.5
				c-0.8,0-1.4,0.2-1.9,0.5s-0.9,0.8-1.1,1.5c-0.2,0.7-0.4,1.5-0.4,2.5C44.9,217,45.1,217.8,45.3,218.5z"/>
		</g>
	</g>
</g>
<g>
	<g>
		<g class="st0">
			<path d="M26.9,122.2h2.5v-8.5H27v-1.1h2.3c0.5,0,0.9,0.1,1.2,0.3c0.2,0.2,0.3,0.6,0.3,1v8.2H33v1.1h-6.1V122.2z"/>
			<path d="M39.8,120.6H34v-1.1l5.1-6.9h1.4l-5.1,6.9h4.5v-6.9h1.3v6.9H43v1.1h-1.8v2.7h-1.3v-2.7H39.8z"/>
			<path d="M46.3,122.8c-0.7-0.5-1.2-1.1-1.6-2c-0.3-0.8-0.5-1.8-0.5-2.9s0.2-2.1,0.5-2.9s0.9-1.5,1.6-2c0.7-0.5,1.6-0.7,2.7-0.7
				c1.1,0,2,0.2,2.7,0.7s1.2,1.1,1.6,2s0.5,1.8,0.5,2.9s-0.2,2.1-0.5,2.9s-0.9,1.5-1.6,2c-0.7,0.5-1.6,0.7-2.7,0.7
				C47.9,123.6,47,123.3,46.3,122.8z M45.9,120.5c0.2,0.7,0.6,1.2,1.1,1.5s1.1,0.5,1.9,0.5c0.8,0,1.4-0.2,1.9-0.5s0.9-0.8,1.1-1.5
				c0.2-0.7,0.4-1.5,0.4-2.5s-0.1-1.9-0.4-2.5c-0.2-0.7-0.6-1.2-1.1-1.5s-1.1-0.5-1.9-0.5c-0.8,0-1.4,0.2-1.9,0.5s-0.9,0.8-1.1,1.5
				c-0.2,0.7-0.4,1.5-0.4,2.5C45.6,119,45.7,119.8,45.9,120.5z"/>
		</g>
	</g>
</g>
<g transform="translate(-408,-220)">
	<g>
		<g>
			<g class="st0">
				<path d="M442.8,242.1l-1-2.7h-5.3l-1,2.7h-1.3l4-10.6h2l4,10.6H442.8z M436.9,238.4h4.5l-2.2-5.9L436.9,238.4z"/>
				<path d="M445.6,230.9h1.3v11.2h-1.3V230.9z"/>
				<path d="M450.4,241.9c-0.3-0.1-0.5-0.3-0.6-0.6s-0.2-0.6-0.2-1.1v-5.1h-1.5v-0.7l1.6-0.4l0.5-1.7h0.7v1.8h2.6v1h-2.6v6h2.5v1
					h-1.9C451,242.1,450.6,242.1,450.4,241.9z"/>
				<path d="M456.3,241.8c-0.6-0.4-1-0.9-1.3-1.5s-0.4-1.4-0.4-2.2s0.1-1.5,0.4-2.2c0.3-0.6,0.7-1.1,1.3-1.5s1.3-0.6,2.2-0.6
					c0.8,0,1.5,0.2,2,0.5s1,0.8,1.3,1.4s0.4,1.3,0.4,2.1v0.2c0,0.1,0,0.2,0,0.3h-6.7v-1h6L461,238c0-0.7,0-1.3-0.2-1.8
					s-0.5-0.8-0.8-1c-0.4-0.2-0.9-0.3-1.4-0.3c-0.6,0-1.1,0.1-1.5,0.3s-0.7,0.6-0.9,1.1c-0.2,0.5-0.3,1.1-0.3,1.9s0.1,1.4,0.3,1.9
					c0.2,0.5,0.5,0.8,0.9,1.1c0.4,0.2,0.9,0.3,1.5,0.3c0.5,0,0.9-0.1,1.3-0.2c0.3-0.1,0.6-0.3,0.8-0.6s0.3-0.6,0.4-0.9h1.2
					c-0.1,0.5-0.2,0.9-0.5,1.3c-0.3,0.4-0.7,0.8-1.2,1c-0.5,0.3-1.2,0.4-2.1,0.4C457.7,242.4,456.9,242.2,456.3,241.8z"/>
				<path d="M463.5,234.1h7v1h-7V234.1z M463.5,241.2l5.7-6.4l1.2,0.3l-5.9,6.6L463.5,241.2z M463.5,241.2h7v1h-7V241.2z"/>
				<path d="M472,234.1h7v1h-7V234.1z M472,241.2l5.7-6.4l1.2,0.3l-5.9,6.6L472,241.2z M472,241.2h7v1h-7V241.2z"/>
				<path d="M481.7,242.1c-0.4-0.2-0.7-0.4-0.9-0.8s-0.3-0.8-0.3-1.3c0-0.4,0.1-0.8,0.2-1.1s0.4-0.6,0.8-0.8s0.8-0.4,1.4-0.5l2-0.3
					c0.4-0.1,0.7-0.2,0.9-0.3s0.3-0.4,0.3-0.7s-0.1-0.6-0.2-0.8s-0.3-0.4-0.6-0.5c-0.3-0.1-0.7-0.2-1.2-0.2c-0.7,0-1.3,0.2-1.6,0.5
					c-0.3,0.3-0.5,0.7-0.6,1.3h-1.3c0-0.6,0.2-1.1,0.4-1.5c0.3-0.4,0.7-0.7,1.2-1s1.1-0.3,1.9-0.3c0.7,0,1.3,0.1,1.8,0.3
					s0.8,0.5,1.1,0.9c0.2,0.4,0.3,0.8,0.3,1.3v3.8c0,0.3,0,0.6,0,0.9s0,0.7,0.1,1h-1.2c0-0.3-0.1-0.7-0.1-1s0-0.6,0-0.9
					c-0.1,0.4-0.3,0.7-0.5,1s-0.6,0.6-1,0.8s-0.9,0.3-1.5,0.3C482.5,242.4,482.1,242.3,481.7,242.1z M484.8,240.9
					c0.4-0.3,0.7-0.6,0.9-1.1c0.2-0.5,0.3-0.9,0.3-1.5v-0.7c-0.2,0.1-0.3,0.2-0.5,0.3s-0.4,0.1-0.7,0.2h-0.2l-1.3,0.3
					c-0.6,0.1-1,0.3-1.2,0.5s-0.4,0.6-0.4,1s0.1,0.8,0.4,1s0.7,0.4,1.2,0.4C483.9,241.3,484.4,241.2,484.8,240.9z"/>
				<path d="M492.6,231.5h5.8v1.1h-5.8V231.5z M492.6,241.1h5.8v1.1h-5.8V241.1z M494.8,232h1.3v9.6h-1.3V232z"/>
				<path d="M506.1,235c0.6,0.8,0.9,1.8,0.9,3.1c0,0.9-0.1,1.6-0.4,2.3c-0.3,0.6-0.7,1.1-1.2,1.5c-0.5,0.3-1.2,0.5-1.9,0.5
					c-0.8,0-1.5-0.2-2-0.5c-0.5-0.4-0.9-0.9-1.2-1.5c-0.3-0.6-0.4-1.4-0.4-2.2s0.1-1.6,0.4-2.2c0.3-0.6,0.7-1.1,1.2-1.5
					s1.2-0.5,2-0.5C504.7,233.9,505.6,234.3,506.1,235z M502.3,235.3c-0.4,0.2-0.7,0.6-0.9,1.1c-0.2,0.5-0.3,1.1-0.3,1.8
					s0.1,1.3,0.3,1.8c0.2,0.5,0.5,0.8,0.9,1.1c0.4,0.2,0.9,0.4,1.5,0.4s1.1-0.1,1.5-0.3s0.7-0.6,1-1.1c0.2-0.5,0.3-1.1,0.3-1.8
					s-0.1-1.3-0.3-1.8c-0.2-0.5-0.5-0.8-1-1.1c-0.4-0.2-0.9-0.3-1.5-0.3C503.2,234.9,502.7,235,502.3,235.3z M507.8,242.1h-1.3v-1.9
					V240v-9.1h1.3V242.1z"/>
				<path d="M510.1,234.1h1.3v2.5v0.3v5.2h-1.3V234.1z M511.3,236.5c0.2-0.8,0.6-1.4,1.1-1.8c0.5-0.5,1.1-0.7,1.9-0.7h0.3v1.3h-0.4
					c-0.8,0-1.3,0.1-1.8,0.5s-0.7,0.8-0.9,1.3s-0.2,1.3-0.2,2.1H511C511,238.2,511.1,237.3,511.3,236.5z"/>
				<path d="M517.3,241.8c-0.6-0.4-1.1-0.9-1.4-1.5c-0.3-0.6-0.5-1.4-0.5-2.2s0.2-1.5,0.5-2.2c0.3-0.6,0.8-1.1,1.4-1.5
					c0.6-0.4,1.3-0.6,2.2-0.6s1.6,0.2,2.2,0.6c0.6,0.4,1.1,0.9,1.4,1.5c0.3,0.6,0.4,1.4,0.4,2.2s-0.1,1.6-0.4,2.2
					c-0.3,0.6-0.8,1.1-1.4,1.5c-0.6,0.4-1.3,0.6-2.2,0.6C518.7,242.4,517.9,242.2,517.3,241.8z M517.1,240c0.2,0.5,0.5,0.8,0.9,1.1
					s0.9,0.3,1.5,0.3s1.1-0.1,1.5-0.3s0.7-0.6,0.9-1.1s0.3-1.1,0.3-1.8s-0.1-1.4-0.3-1.8c-0.2-0.5-0.5-0.8-0.9-1s-0.9-0.3-1.5-0.3
					s-1.1,0.1-1.5,0.3s-0.7,0.6-0.9,1c-0.2,0.5-0.3,1.1-0.3,1.8S516.9,239.5,517.1,240z"/>
				<path d="M525.3,234.1h1.3v8h-1.3V234.1z M530.7,235.9c-0.1-0.3-0.3-0.6-0.6-0.7c-0.3-0.1-0.6-0.2-1-0.2c-0.6,0-1,0.2-1.4,0.5
					s-0.6,0.8-0.8,1.4c-0.2,0.6-0.3,1.4-0.3,2.3h-0.4v-0.3c0-1,0.1-1.9,0.4-2.6s0.6-1.3,1.1-1.7s1.1-0.6,1.9-0.6
					c0.6,0,1.1,0.1,1.5,0.4c0.4,0.2,0.7,0.6,0.9,1s0.3,1,0.3,1.7v5.2H531v-5C530.9,236.6,530.8,236.2,530.7,235.9z M536.3,235.9
					c-0.1-0.3-0.3-0.6-0.6-0.7c-0.3-0.1-0.6-0.2-1-0.2c-0.6,0-1.1,0.2-1.4,0.5c-0.4,0.3-0.6,0.8-0.8,1.4c-0.2,0.6-0.3,1.4-0.3,2.3
					h-0.5c0-1.1,0.1-2,0.3-2.8s0.6-1.4,1.1-1.8c0.5-0.4,1.2-0.6,2-0.6c0.6,0,1.1,0.1,1.5,0.4c0.4,0.2,0.7,0.6,0.9,1
					c0.2,0.5,0.3,1,0.3,1.7v5.2h-1.3v-5C536.5,236.6,536.4,236.2,536.3,235.9z"/>
				<path d="M541.1,241.8c-0.6-0.4-1-0.9-1.3-1.5s-0.4-1.4-0.4-2.2s0.1-1.5,0.4-2.2c0.3-0.6,0.7-1.1,1.3-1.5s1.3-0.6,2.2-0.6
					c0.8,0,1.5,0.2,2,0.5s1,0.8,1.3,1.4c0.3,0.6,0.4,1.3,0.4,2.1v0.2c0,0.1,0,0.2,0,0.3h-6.7v-1h6l-0.6,0.6c0-0.7,0-1.3-0.2-1.8
					s-0.5-0.8-0.8-1c-0.4-0.2-0.9-0.3-1.4-0.3c-0.6,0-1.1,0.1-1.5,0.3s-0.7,0.6-0.9,1.1s-0.3,1.1-0.3,1.9s0.1,1.4,0.3,1.9
					s0.5,0.8,0.9,1.1c0.4,0.2,0.9,0.3,1.5,0.3c0.5,0,0.9-0.1,1.3-0.2c0.3-0.1,0.6-0.3,0.8-0.6s0.3-0.6,0.4-0.9h1.2
					c-0.1,0.5-0.2,0.9-0.5,1.3c-0.3,0.4-0.7,0.8-1.2,1c-0.5,0.3-1.2,0.4-2.1,0.4C542.4,242.4,541.7,242.2,541.1,241.8z"/>
				<path d="M549.9,241.9c-0.3-0.1-0.5-0.3-0.6-0.6s-0.2-0.6-0.2-1.1v-5.1h-1.5v-0.7l1.6-0.4l0.5-1.7h0.7v1.8h2.6v1h-2.6v6h2.5v1
					H551C550.5,242.1,550.2,242.1,549.9,241.9z"/>
				<path d="M554.7,234.1h1.3v2.5v0.3v5.2h-1.3V234.1z M555.9,236.5c0.2-0.8,0.6-1.4,1.1-1.8s1.1-0.7,1.9-0.7h0.3v1.3h-0.4
					c-0.8,0-1.3,0.1-1.8,0.5s-0.7,0.8-0.9,1.3s-0.2,1.3-0.2,2.1h-0.4C555.5,238.2,555.6,237.3,555.9,236.5z"/>
				<path d="M560.3,231.5h1.6v1.3h-1.6V231.5z M560.5,234.1h1.3v8h-1.3V234.1z"/>
				<path d="M563.9,235.9c0.3-0.6,0.8-1.1,1.4-1.5c0.6-0.4,1.3-0.5,2.2-0.5c0.8,0,1.4,0.1,2,0.4c0.5,0.3,1,0.6,1.2,1.1
					c0.3,0.5,0.5,1,0.5,1.7H570c-0.1-0.4-0.2-0.8-0.4-1.2c-0.2-0.3-0.5-0.6-0.8-0.7s-0.8-0.3-1.3-0.3c-0.6,0-1.1,0.1-1.5,0.3
					s-0.7,0.6-0.9,1c-0.2,0.5-0.3,1.1-0.3,1.8c0,0.8,0.1,1.4,0.3,1.8c0.2,0.5,0.5,0.8,0.9,1s0.9,0.3,1.5,0.3c0.8,0,1.4-0.2,1.8-0.6
					c0.4-0.4,0.7-1,0.8-1.7h1.2c0,0.6-0.2,1.2-0.5,1.7s-0.7,0.9-1.3,1.2s-1.2,0.4-2,0.4c-0.9,0-1.6-0.2-2.2-0.5s-1.1-0.9-1.4-1.5
					s-0.5-1.4-0.5-2.2S563.6,236.6,563.9,235.9z"/>
				<path d="M573.6,242.1c-0.4-0.2-0.7-0.4-0.9-0.8s-0.3-0.8-0.3-1.3c0-0.4,0.1-0.8,0.2-1.1s0.4-0.6,0.8-0.8s0.8-0.4,1.4-0.5l2-0.3
					c0.4-0.1,0.7-0.2,0.9-0.3s0.3-0.4,0.3-0.7s-0.1-0.6-0.2-0.8s-0.3-0.4-0.6-0.5s-0.7-0.2-1.2-0.2c-0.7,0-1.3,0.2-1.6,0.5
					s-0.5,0.7-0.6,1.3h-1.3c0-0.6,0.2-1.1,0.4-1.5c0.3-0.4,0.7-0.7,1.2-1s1.1-0.3,1.9-0.3c0.7,0,1.3,0.1,1.8,0.3s0.8,0.5,1.1,0.9
					c0.2,0.4,0.3,0.8,0.3,1.3v3.8c0,0.3,0,0.6,0,0.9s0,0.7,0.1,1h-1.2c0-0.3-0.1-0.7-0.1-1s0-0.6,0-0.9c-0.1,0.4-0.3,0.7-0.5,1
					s-0.6,0.6-1,0.8s-0.9,0.3-1.5,0.3C574.4,242.4,574,242.3,573.6,242.1z M576.7,240.9c0.4-0.3,0.7-0.6,0.9-1.1s0.3-0.9,0.3-1.5
					v-0.7c-0.2,0.1-0.3,0.2-0.5,0.3s-0.4,0.1-0.7,0.2h-0.2l-1.3,0.3c-0.6,0.1-1,0.3-1.2,0.5s-0.4,0.6-0.4,1s0.1,0.8,0.4,1
					c0.3,0.2,0.7,0.4,1.2,0.4C575.8,241.3,576.3,241.2,576.7,240.9z"/>
				<path d="M435,255.1c0.3-0.6,0.8-1.1,1.4-1.5s1.3-0.5,2.2-0.5c0.8,0,1.4,0.1,2,0.4c0.5,0.3,1,0.6,1.2,1.1c0.3,0.5,0.5,1,0.5,1.7
					H441c-0.1-0.4-0.2-0.8-0.4-1.2c-0.2-0.3-0.5-0.6-0.8-0.7s-0.8-0.3-1.3-0.3c-0.6,0-1.1,0.1-1.5,0.3s-0.7,0.6-0.9,1
					c-0.2,0.5-0.3,1.1-0.3,1.8c0,0.8,0.1,1.4,0.3,1.8c0.2,0.5,0.5,0.8,0.9,1s0.9,0.3,1.5,0.3c0.8,0,1.4-0.2,1.8-0.6s0.7-1,0.8-1.7
					h1.2c0,0.6-0.2,1.2-0.5,1.7s-0.7,0.9-1.3,1.2c-0.6,0.3-1.2,0.4-2,0.4c-0.9,0-1.6-0.2-2.2-0.5s-1.1-0.9-1.4-1.5s-0.5-1.4-0.5-2.2
					S434.7,255.8,435,255.1z"/>
				<path d="M443.9,253.3h1.3v8h-1.3V253.3z M449.3,255.1c-0.1-0.3-0.3-0.6-0.6-0.7c-0.3-0.1-0.6-0.2-1-0.2c-0.6,0-1,0.2-1.4,0.5
					s-0.6,0.8-0.8,1.4c-0.2,0.6-0.3,1.4-0.3,2.3h-0.4V258c0-1,0.1-1.9,0.4-2.6c0.2-0.7,0.6-1.3,1.1-1.7s1.1-0.6,1.9-0.6
					c0.6,0,1.1,0.1,1.5,0.4c0.4,0.2,0.7,0.6,0.9,1s0.3,1,0.3,1.7v5.2h-1.3v-5C449.5,255.8,449.5,255.4,449.3,255.1z M454.9,255.1
					c-0.1-0.3-0.3-0.6-0.6-0.7c-0.3-0.1-0.6-0.2-1-0.2c-0.6,0-1.1,0.2-1.4,0.5c-0.4,0.3-0.6,0.8-0.8,1.4c-0.2,0.6-0.3,1.4-0.3,2.3
					h-0.5c0-1.1,0.1-2,0.3-2.8c0.2-0.8,0.6-1.4,1.1-1.8c0.5-0.4,1.2-0.6,2-0.6c0.6,0,1.1,0.1,1.5,0.4c0.4,0.2,0.7,0.6,0.9,1
					c0.2,0.5,0.3,1,0.3,1.7v5.2h-1.3v-5C455.1,255.8,455.1,255.4,454.9,255.1z"/>
			</g>
		</g>
	</g>
</g>
<line class="st3" x1="67.4" y1="466.4" x2="1186" y2="466.4"/>
<path class="st4" d="M68.1,295.1c19,0,19,29.8,38,29.8c17.2,0,17.2,103.7,34.3,103.7c19,0,19-13.2,37.9-13.2
	c18.4,0,18.4-178.4,36.8-178.4c19,0,19-22.8,38-22.8c18.4,0,18.4,139.4,36.8,139.4c19,0,19-44.7,38-44.7s19,106.8,38,106.8
	c18.4,0,18.4-87.4,36.8-87.4c19,0,19-61.2,38-61.2c18.4,0,18.4,42,36.8,42c19,0,19,107,38,107c19,0,19,81,38,81
	c17.2,0,17.2,20,34.3,20c19,0,19-34.5,37.9-34.5c18.4,0,18.4-148.7,36.8-148.7c19,0,19,57.5,38,57.5c18.4,0,18.4,121.4,36.8,121.4
	c19,0,19,13.2,38,13.2s19-30.8,38-30.8c18.4,0,18.4,1.9,36.8,1.9c19,0,19-92.6,38-92.6c18.4,0,18.4,41.1,36.8,41.1
	c19,0,19,29.5,38,29.5s19,10.5,38,10.5c17.2,0,17.2-6.3,34.3-6.3c19,0,19-58.6,37.9-58.6c18.4,0,18.4-189.3,36.8-189.3
	c19,0,19-28.9,38-28.9"/>
<path class="st5" d="M68.1,205.2c19,0,19,15.5,38,15.5c17.2,0,17.2,28,34.3,28c19,0,19-32.6,37.9-32.6c18.4,0,18.4-23.2,36.8-23.2
	c19,0,19-14.8,38-14.8c18.4,0,18.4,13.6,36.8,13.6c19,0,19,24.6,38,24.6s19-34.3,38-34.3c18.4,0,18.4,3.4,36.8,3.4
	c19,0,19-17.3,38-17.3c18.4,0,18.4,27.9,36.8,27.9c19,0,19,9.1,38,9.1c19,0,19,15.5,38,15.5c17.2,0,17.2,28,34.3,28
	c19,0,19-32.6,37.9-32.6c18.4,0,18.4-23.2,36.8-23.2c19,0,19-14.8,38-14.8c18.4,0,18.4,13.6,36.8,13.6c19,0,19,24.6,38,24.6
	s19-34.3,38-34.3c18.4,0,18.4,3.4,36.8,3.4c19,0,19-17.3,38-17.3c18.4,0,18.4,27.9,36.8,27.9c19,0,19,9.1,38,9.1s19,15.5,38,15.5
	c17.2,0,17.2,28,34.3,28c19,0,19-32.6,37.9-32.6c18.4,0,18.4-23.2,36.8-23.2c19,0,19-14.8,38-14.8"/>
<path class="st6" d="M68.1,537.9c19,0,19,28.7,38,28.7c17.2,0,17.2,18.3,34.3,18.3c19,0,19-9.5,37.9-9.5c18.4,0,18.4-55.1,36.8-55.1
	c19,0,19-44.9,38-44.9c18.4,0,18.4,80.4,36.8,80.4c19,0,19,20.9,38,20.9s19-5.4,38-5.4c18.4,0,18.4-23.4,36.8-23.4
	c19,0,19-12.7,38-12.7c18.4,0,18.4,2.2,36.8,2.2c19,0,19,0.5,38,0.5c19,0,19,28.7,38,28.7c17.2,0,17.2,18.3,34.3,18.3
	c19,0,19-9.5,37.9-9.5c18.4,0,18.4-55.1,36.8-55.1c19,0,19-44.9,38-44.9c18.4,0,18.4,80.4,36.8,80.4c19,0,19,20.9,38,20.9
	s19-5.4,38-5.4c18.4,0,18.4-23.4,36.8-23.4c19,0,19-12.7,38-12.7c18.4,0,18.4,2.2,36.8,2.2c19,0,19,0.5,38,0.5s19,28.7,38,28.7
	c17.2,0,17.2,18.3,34.3,18.3c19,0,19-9.5,37.9-9.5c18.4,0,18.4-55.1,36.8-55.1c19,0,19-44.9,38-44.9"/>
<g>
	<g>
		<path d="M55,676.4c-0.6-0.3-1-0.8-1.3-1.5c-0.3-0.6-0.4-1.4-0.4-2.3c0-1.3,0.3-2.4,1-3.1c0.7-0.8,1.6-1.1,2.9-1.1
			c1.2,0,2.1,0.4,2.8,1.1s0.9,1.8,0.9,3.2c0,1-0.1,1.7-0.4,2.4c-0.3,0.6-0.7,1.1-1.2,1.4c-0.5,0.3-1.2,0.5-2.1,0.5
			C56.3,676.9,55.6,676.8,55,676.4z M55.4,680.4c-0.6-0.2-1-0.6-1.4-1c-0.3-0.5-0.5-1-0.6-1.6h1.3c0,0.4,0.1,0.7,0.3,1
			c0.2,0.3,0.5,0.5,0.9,0.7s0.9,0.2,1.5,0.2c0.7,0,1.2-0.1,1.6-0.3c0.4-0.2,0.7-0.4,0.9-0.8c0.2-0.4,0.3-0.9,0.3-1.5v-8.5h1.4v8.5
			c0,0.8-0.1,1.4-0.4,2c-0.3,0.5-0.7,0.9-1.3,1.2c-0.6,0.3-1.4,0.4-2.4,0.4C56.7,680.7,56,680.6,55.4,680.4z M59.1,675.5
			c0.4-0.2,0.7-0.6,1-1c0.2-0.5,0.3-1.1,0.3-1.8c0-0.7-0.1-1.4-0.3-1.8c-0.2-0.5-0.5-0.8-1-1c-0.4-0.2-0.9-0.3-1.6-0.3
			c-0.7,0-1.2,0.1-1.6,0.3c-0.4,0.2-0.7,0.6-0.9,1c-0.2,0.5-0.3,1.1-0.3,1.8c0,0.8,0.1,1.4,0.3,1.9c0.2,0.5,0.5,0.8,0.9,1
			c0.4,0.2,0.9,0.3,1.6,0.3C58.1,675.9,58.7,675.8,59.1,675.5z"/>
		<path d="M65.4,676.8c-0.6-0.4-1.1-0.9-1.4-1.6c-0.3-0.7-0.5-1.5-0.5-2.3c0-0.9,0.2-1.6,0.5-2.3s0.8-1.2,1.4-1.6
			c0.6-0.4,1.4-0.6,2.3-0.6c0.8,0,1.6,0.2,2.2,0.5c0.6,0.4,1.1,0.9,1.4,1.5s0.5,1.4,0.5,2.2v0.2c0,0.1,0,0.2,0,0.4h-7.1v-1H71
			l-0.6,0.6c0-0.8,0-1.4-0.2-1.9c-0.2-0.5-0.5-0.9-0.9-1.1c-0.4-0.2-0.9-0.3-1.5-0.3c-0.6,0-1.1,0.1-1.6,0.3c-0.4,0.2-0.8,0.6-1,1.1
			s-0.3,1.2-0.3,2s0.1,1.5,0.4,2c0.2,0.5,0.6,0.9,1,1.1c0.4,0.2,1,0.3,1.6,0.3c0.5,0,1-0.1,1.4-0.2c0.4-0.2,0.7-0.4,0.9-0.6
			c0.2-0.3,0.4-0.6,0.5-1h1.2c-0.1,0.5-0.2,0.9-0.5,1.4s-0.7,0.8-1.3,1.1c-0.6,0.3-1.3,0.4-2.2,0.4C66.8,677.4,66,677.2,65.4,676.8z
			"/>
		<path d="M73.5,668.6h1.4v8.5h-1.4V668.6z M74.8,671c0.3-0.8,0.7-1.5,1.2-1.9c0.5-0.5,1.2-0.7,2.1-0.7c0.7,0,1.3,0.1,1.7,0.4
			c0.4,0.3,0.8,0.6,1,1.1c0.2,0.5,0.3,1.1,0.3,1.8v5.4h-1.4v-5.3c0-0.6-0.1-1.1-0.2-1.4s-0.4-0.6-0.7-0.7c-0.3-0.1-0.7-0.2-1.1-0.2
			c-0.6,0-1.2,0.2-1.6,0.5s-0.8,0.8-1,1.5c-0.2,0.7-0.3,1.5-0.3,2.4h-0.4C74.4,672.8,74.5,671.8,74.8,671z"/>
	</g>
</g>
<g>
	<g>
		<path d="M167.2,677.1c-0.4-0.2-0.7-0.5-1-0.8c-0.2-0.4-0.4-0.8-0.4-1.4c0-0.5,0.1-0.9,0.3-1.2c0.2-0.3,0.5-0.6,0.8-0.8
			s0.9-0.4,1.5-0.5l2.2-0.4c0.5-0.1,0.8-0.2,1-0.3c0.2-0.1,0.3-0.4,0.3-0.7c0-0.3-0.1-0.6-0.2-0.8c-0.1-0.2-0.3-0.4-0.6-0.5
			c-0.3-0.1-0.7-0.2-1.3-0.2c-0.8,0-1.4,0.2-1.7,0.5c-0.4,0.3-0.6,0.8-0.6,1.4h-1.4c0-0.6,0.2-1.1,0.5-1.6c0.3-0.4,0.7-0.8,1.2-1
			c0.5-0.2,1.2-0.4,2-0.4c0.7,0,1.4,0.1,1.9,0.3c0.5,0.2,0.9,0.5,1.1,0.9c0.2,0.4,0.4,0.8,0.4,1.4v4.1c0,0.3,0,0.6,0,1
			c0,0.3,0,0.7,0.1,1.1H172c0-0.4-0.1-0.7-0.1-1s0-0.7,0-1c-0.1,0.4-0.3,0.7-0.6,1.1c-0.3,0.3-0.6,0.6-1,0.8c-0.4,0.2-1,0.3-1.6,0.3
			C168.2,677.3,167.7,677.3,167.2,677.1z M170.6,675.8c0.4-0.3,0.8-0.7,1-1.2s0.3-1,0.3-1.6v-0.7c-0.2,0.1-0.4,0.2-0.6,0.3
			s-0.4,0.2-0.7,0.2l-0.2,0.1l-1.4,0.3c-0.6,0.1-1,0.3-1.3,0.6c-0.3,0.2-0.4,0.6-0.4,1c0,0.5,0.2,0.8,0.5,1.1
			c0.3,0.2,0.7,0.4,1.2,0.4C169.6,676.3,170.2,676.1,170.6,675.8z"/>
		<path d="M175.4,668.6h1.4v1.9v0.3v9.7h-1.4V668.6z M177.1,676.2c-0.6-0.8-0.9-1.9-0.9-3.3s0.3-2.5,0.9-3.3s1.6-1.2,2.8-1.2
			c0.9,0,1.6,0.2,2.2,0.6c0.6,0.4,1,0.9,1.3,1.6c0.3,0.7,0.4,1.5,0.4,2.3c0,0.9-0.1,1.7-0.4,2.4c-0.3,0.7-0.7,1.2-1.3,1.6
			c-0.6,0.4-1.3,0.6-2.2,0.6C178.7,677.4,177.8,677,177.1,676.2z M181.2,675.9c0.4-0.2,0.7-0.6,0.9-1.1c0.2-0.5,0.3-1.1,0.3-1.9
			c0-0.8-0.1-1.4-0.3-1.9c-0.2-0.5-0.5-0.9-0.9-1.1c-0.4-0.3-0.9-0.4-1.6-0.4c-0.6,0-1.1,0.1-1.6,0.4c-0.4,0.2-0.8,0.6-1,1.1
			c-0.2,0.5-0.3,1.1-0.3,1.9s0.1,1.4,0.3,1.9c0.2,0.5,0.6,0.9,1,1.1c0.4,0.2,1,0.4,1.6,0.4C180.3,676.3,180.8,676.2,181.2,675.9z"/>
		<path d="M185.7,668.6h1.3v2.7l0,0.3v5.6h-1.4V668.6z M186.9,671.2c0.2-0.8,0.6-1.5,1.2-1.9c0.5-0.5,1.2-0.7,2.1-0.7h0.3v1.3h-0.4
			c-0.8,0-1.4,0.1-1.9,0.5s-0.8,0.8-0.9,1.4c-0.2,0.6-0.2,1.4-0.2,2.2h-0.5C186.5,672.9,186.7,672,186.9,671.2z"/>
	</g>
</g>
<g>
	<g>
		<path d="M278.8,665.2h1.4v11.9h-1.4V665.2z"/>
		<path d="M283.8,677c-0.5-0.2-0.8-0.6-1-1.1s-0.3-1.1-0.3-1.9v-5.4h1.4v5.3c0,0.6,0.1,1.1,0.2,1.4c0.2,0.3,0.4,0.6,0.7,0.7
			c0.3,0.1,0.7,0.2,1.2,0.2c0.6,0,1.1-0.2,1.5-0.5c0.4-0.3,0.7-0.8,0.9-1.5s0.3-1.5,0.3-2.4h0.4c0,1.1-0.1,2.1-0.4,2.9
			c-0.2,0.8-0.6,1.5-1.2,1.9c-0.5,0.5-1.2,0.7-2.1,0.7C284.8,677.4,284.3,677.3,283.8,677z M288.7,674.5v-0.2v-5.7h1.4v8.5h-1.4
			V674.5z"/>
		<path d="M293.7,676.4c-0.6-0.3-1-0.8-1.3-1.5c-0.3-0.6-0.4-1.4-0.4-2.3c0-1.3,0.3-2.4,1-3.1c0.7-0.8,1.6-1.1,2.9-1.1
			c1.2,0,2.1,0.4,2.8,1.1s0.9,1.8,0.9,3.2c0,1-0.1,1.7-0.4,2.4c-0.3,0.6-0.7,1.1-1.2,1.4c-0.5,0.3-1.2,0.5-2.1,0.5
			C295,676.9,294.3,676.8,293.7,676.4z M294.1,680.4c-0.6-0.2-1-0.6-1.4-1c-0.3-0.5-0.5-1-0.6-1.6h1.3c0,0.4,0.1,0.7,0.3,1
			c0.2,0.3,0.5,0.5,0.9,0.7s0.9,0.2,1.5,0.2c0.7,0,1.2-0.1,1.6-0.3c0.4-0.2,0.7-0.4,0.9-0.8c0.2-0.4,0.3-0.9,0.3-1.5v-8.5h1.4v8.5
			c0,0.8-0.1,1.4-0.4,2c-0.3,0.5-0.7,0.9-1.3,1.2c-0.6,0.3-1.4,0.4-2.4,0.4C295.3,680.7,294.6,680.6,294.1,680.4z M297.7,675.5
			c0.4-0.2,0.7-0.6,1-1c0.2-0.5,0.3-1.1,0.3-1.8c0-0.7-0.1-1.4-0.3-1.8c-0.2-0.5-0.5-0.8-1-1c-0.4-0.2-0.9-0.3-1.6-0.3
			c-0.7,0-1.2,0.1-1.6,0.3c-0.4,0.2-0.7,0.6-0.9,1c-0.2,0.5-0.3,1.1-0.3,1.8c0,0.8,0.1,1.4,0.3,1.9c0.2,0.5,0.5,0.8,0.9,1
			c0.4,0.2,0.9,0.3,1.6,0.3C296.8,675.9,297.3,675.8,297.7,675.5z"/>
	</g>
</g>
<g>
	<g>
		<path d="M394.1,676.8c-0.6-0.4-1.1-0.9-1.4-1.6c-0.3-0.7-0.5-1.5-0.5-2.3c0-0.9,0.2-1.6,0.5-2.3c0.3-0.7,0.8-1.2,1.4-1.6
			s1.4-0.6,2.4-0.6c0.9,0,1.7,0.2,2.3,0.6s1.1,0.9,1.4,1.6s0.5,1.5,0.5,2.3c0,0.9-0.2,1.6-0.5,2.3c-0.3,0.7-0.8,1.2-1.4,1.6
			s-1.4,0.6-2.3,0.6C395.5,677.4,394.7,677.2,394.1,676.8z M393.9,674.8c0.2,0.5,0.5,0.9,1,1.1c0.4,0.2,1,0.4,1.6,0.4
			c0.6,0,1.2-0.1,1.6-0.4c0.4-0.2,0.7-0.6,1-1.1c0.2-0.5,0.3-1.2,0.3-1.9c0-0.8-0.1-1.4-0.3-1.9s-0.5-0.9-1-1.1
			c-0.4-0.2-1-0.4-1.6-0.4c-0.7,0-1.2,0.1-1.6,0.4c-0.4,0.2-0.7,0.6-1,1.1s-0.3,1.2-0.3,1.9C393.5,673.7,393.6,674.3,393.9,674.8z"
			/>
		<path d="M403.8,676.9c-0.3-0.1-0.5-0.4-0.6-0.6s-0.2-0.7-0.2-1.1v-5.4h-1.6v-0.8l1.8-0.4l0.5-1.8h0.7v1.9h4.7v1.1h-4.7v6.3h2.7
			v1.1h-2C404.5,677.1,404.1,677.1,403.8,676.9z M409.4,676.9c-0.3-0.1-0.5-0.4-0.6-0.6s-0.2-0.7-0.2-1.1v-5.4h-1.6v-0.8l1.6-0.2
			l0.6-2h0.7v1.9h2.8v1.1h-2.8v6.3h2.7v1.1h-2C410.1,677.1,409.7,677.1,409.4,676.9z"/>
	</g>
</g>
<g>
	<g>
		<path d="M502.9,676.4c-0.6-0.3-1-0.8-1.3-1.5c-0.3-0.6-0.4-1.4-0.4-2.3c0-1.3,0.3-2.4,1-3.1c0.7-0.8,1.6-1.1,2.9-1.1
			c1.2,0,2.1,0.4,2.8,1.1s0.9,1.8,0.9,3.2c0,1-0.1,1.7-0.4,2.4c-0.3,0.6-0.7,1.1-1.2,1.4c-0.5,0.3-1.2,0.5-2.1,0.5
			C504.2,676.9,503.5,676.8,502.9,676.4z M503.3,680.4c-0.6-0.2-1-0.6-1.4-1c-0.3-0.5-0.5-1-0.6-1.6h1.3c0,0.4,0.1,0.7,0.3,1
			c0.2,0.3,0.5,0.5,0.9,0.7s0.9,0.2,1.5,0.2c0.7,0,1.2-0.1,1.6-0.3c0.4-0.2,0.7-0.4,0.9-0.8c0.2-0.4,0.3-0.9,0.3-1.5v-8.5h1.4v8.5
			c0,0.8-0.1,1.4-0.4,2c-0.3,0.5-0.7,0.9-1.3,1.2c-0.6,0.3-1.4,0.4-2.4,0.4C504.6,680.7,503.9,680.6,503.3,680.4z M507,675.5
			c0.4-0.2,0.7-0.6,1-1c0.2-0.5,0.3-1.1,0.3-1.8c0-0.7-0.1-1.4-0.3-1.8c-0.2-0.5-0.5-0.8-1-1c-0.4-0.2-0.9-0.3-1.6-0.3
			c-0.7,0-1.2,0.1-1.6,0.3c-0.4,0.2-0.7,0.6-0.9,1c-0.2,0.5-0.3,1.1-0.3,1.8c0,0.8,0.1,1.4,0.3,1.9c0.2,0.5,0.5,0.8,0.9,1
			c0.4,0.2,0.9,0.3,1.6,0.3C506,675.9,506.6,675.8,507,675.5z"/>
		<path d="M513.3,676.8c-0.6-0.4-1.1-0.9-1.4-1.6c-0.3-0.7-0.5-1.5-0.5-2.3c0-0.9,0.2-1.6,0.5-2.3s0.8-1.2,1.4-1.6
			c0.6-0.4,1.4-0.6,2.3-0.6c0.8,0,1.6,0.2,2.2,0.5c0.6,0.4,1.1,0.9,1.4,1.5s0.5,1.4,0.5,2.2v0.2c0,0.1,0,0.2,0,0.4h-7.1v-1h6.4
			l-0.6,0.6c0-0.8,0-1.4-0.2-1.9c-0.2-0.5-0.5-0.9-0.9-1.1c-0.4-0.2-0.9-0.3-1.5-0.3c-0.6,0-1.1,0.1-1.6,0.3c-0.4,0.2-0.8,0.6-1,1.1
			s-0.3,1.2-0.3,2s0.1,1.5,0.4,2c0.2,0.5,0.6,0.9,1,1.1c0.4,0.2,1,0.3,1.6,0.3c0.5,0,1-0.1,1.4-0.2c0.4-0.2,0.7-0.4,0.9-0.6
			c0.2-0.3,0.4-0.6,0.5-1h1.2c-0.1,0.5-0.2,0.9-0.5,1.4s-0.7,0.8-1.3,1.1c-0.6,0.3-1.3,0.4-2.2,0.4
			C514.7,677.4,513.9,677.2,513.3,676.8z"/>
		<path d="M521.4,668.6h1.4v8.5h-1.4V668.6z M522.7,671c0.3-0.8,0.7-1.5,1.2-1.9c0.5-0.5,1.2-0.7,2.1-0.7c0.7,0,1.3,0.1,1.7,0.4
			c0.4,0.3,0.8,0.6,1,1.1c0.2,0.5,0.3,1.1,0.3,1.8v5.4h-1.4v-5.3c0-0.6-0.1-1.1-0.2-1.4s-0.4-0.6-0.7-0.7c-0.3-0.1-0.7-0.2-1.1-0.2
			c-0.6,0-1.2,0.2-1.6,0.5s-0.8,0.8-1,1.5c-0.2,0.7-0.3,1.5-0.3,2.4h-0.4C522.3,672.8,522.4,671.8,522.7,671z"/>
	</g>
</g>
<g>
	<g>
		<path d="M614.9,677.1c-0.4-0.2-0.7-0.5-1-0.8c-0.2-0.4-0.4-0.8-0.4-1.4c0-0.5,0.1-0.9,0.3-1.2c0.2-0.3,0.5-0.6,0.8-0.8
			s0.9-0.4,1.5-0.5l2.2-0.4c0.5-0.1,0.8-0.2,1-0.3c0.2-0.1,0.3-0.4,0.3-0.7c0-0.3-0.1-0.6-0.2-0.8c-0.1-0.2-0.3-0.4-0.6-0.5
			c-0.3-0.1-0.7-0.2-1.3-0.2c-0.8,0-1.4,0.2-1.7,0.5c-0.4,0.3-0.6,0.8-0.6,1.4h-1.4c0-0.6,0.2-1.1,0.5-1.6c0.3-0.4,0.7-0.8,1.2-1
			c0.5-0.2,1.2-0.4,2-0.4c0.7,0,1.4,0.1,1.9,0.3c0.5,0.2,0.9,0.5,1.1,0.9c0.2,0.4,0.4,0.8,0.4,1.4v4.1c0,0.3,0,0.6,0,1
			s0,0.7,0.1,1.1h-1.2c0-0.4-0.1-0.7-0.1-1c0-0.3,0-0.7,0-1c-0.1,0.4-0.3,0.7-0.6,1.1c-0.3,0.3-0.6,0.6-1,0.8
			c-0.4,0.2-1,0.3-1.6,0.3C615.9,677.3,615.4,677.3,614.9,677.1z M618.3,675.8c0.4-0.3,0.8-0.7,1-1.2c0.2-0.5,0.3-1,0.3-1.6v-0.7
			c-0.2,0.1-0.4,0.2-0.6,0.3s-0.4,0.2-0.7,0.2l-0.2,0.1l-1.4,0.3c-0.6,0.1-1,0.3-1.3,0.6s-0.4,0.6-0.4,1c0,0.5,0.2,0.8,0.5,1.1
			c0.3,0.2,0.7,0.4,1.2,0.4C617.3,676.3,617.9,676.1,618.3,675.8z"/>
		<path d="M623.1,668.6h1.4v1.9v0.3v9.7h-1.4V668.6z M624.8,676.2c-0.6-0.8-0.9-1.9-0.9-3.3s0.3-2.5,0.9-3.3s1.6-1.2,2.8-1.2
			c0.9,0,1.6,0.2,2.2,0.6c0.6,0.4,1,0.9,1.3,1.6c0.3,0.7,0.4,1.5,0.4,2.3c0,0.9-0.1,1.7-0.4,2.4c-0.3,0.7-0.7,1.2-1.3,1.6
			c-0.6,0.4-1.3,0.6-2.2,0.6C626.4,677.4,625.5,677,624.8,676.2z M628.9,675.9c0.4-0.2,0.7-0.6,0.9-1.1c0.2-0.5,0.3-1.1,0.3-1.9
			c0-0.8-0.1-1.4-0.3-1.9c-0.2-0.5-0.5-0.9-0.9-1.1c-0.4-0.3-0.9-0.4-1.6-0.4c-0.6,0-1.1,0.1-1.6,0.4c-0.4,0.2-0.8,0.6-1,1.1
			c-0.2,0.5-0.3,1.1-0.3,1.9s0.1,1.4,0.3,1.9c0.2,0.5,0.6,0.9,1,1.1c0.4,0.2,1,0.4,1.6,0.4C628,676.3,628.5,676.2,628.9,675.9z"/>
		<path d="M633.4,668.6h1.3v2.7l0,0.3v5.6h-1.4V668.6z M634.6,671.2c0.2-0.8,0.6-1.5,1.2-1.9s1.2-0.7,2.1-0.7h0.3v1.3h-0.4
			c-0.8,0-1.4,0.1-1.9,0.5c-0.4,0.3-0.8,0.8-0.9,1.4c-0.2,0.6-0.2,1.4-0.2,2.2h-0.5C634.2,672.9,634.4,672,634.6,671.2z"/>
	</g>
</g>
<g>
	<g>
		<path d="M726.5,665.2h1.4v11.9h-1.4V665.2z"/>
		<path d="M731.5,677c-0.5-0.2-0.8-0.6-1-1.1c-0.2-0.5-0.3-1.1-0.3-1.9v-5.4h1.4v5.3c0,0.6,0.1,1.1,0.2,1.4c0.2,0.3,0.4,0.6,0.7,0.7
			s0.7,0.2,1.2,0.2c0.6,0,1.1-0.2,1.5-0.5c0.4-0.3,0.7-0.8,0.9-1.5c0.2-0.7,0.3-1.5,0.3-2.4h0.4c0,1.1-0.1,2.1-0.4,2.9
			s-0.6,1.5-1.2,1.9c-0.5,0.5-1.2,0.7-2.1,0.7C732.5,677.4,732,677.3,731.5,677z M736.4,674.5v-0.2v-5.7h1.4v8.5h-1.4V674.5z"/>
		<path d="M741.4,676.4c-0.6-0.3-1-0.8-1.3-1.5c-0.3-0.6-0.4-1.4-0.4-2.3c0-1.3,0.3-2.4,1-3.1c0.7-0.8,1.6-1.1,2.9-1.1
			c1.2,0,2.1,0.4,2.8,1.1c0.6,0.7,0.9,1.8,0.9,3.2c0,1-0.1,1.7-0.4,2.4s-0.7,1.1-1.2,1.4c-0.5,0.3-1.2,0.5-2.1,0.5
			C742.7,676.9,742,676.8,741.4,676.4z M741.8,680.4c-0.6-0.2-1-0.6-1.4-1c-0.3-0.5-0.5-1-0.6-1.6h1.3c0,0.4,0.1,0.7,0.3,1
			c0.2,0.3,0.5,0.5,0.9,0.7c0.4,0.2,0.9,0.2,1.5,0.2c0.7,0,1.2-0.1,1.6-0.3c0.4-0.2,0.7-0.4,0.9-0.8s0.3-0.9,0.3-1.5v-8.5h1.4v8.5
			c0,0.8-0.1,1.4-0.4,2s-0.7,0.9-1.3,1.2c-0.6,0.3-1.4,0.4-2.4,0.4C743,680.7,742.3,680.6,741.8,680.4z M745.4,675.5
			c0.4-0.2,0.7-0.6,1-1c0.2-0.5,0.3-1.1,0.3-1.8c0-0.7-0.1-1.4-0.3-1.8c-0.2-0.5-0.5-0.8-1-1c-0.4-0.2-0.9-0.3-1.6-0.3
			c-0.7,0-1.2,0.1-1.6,0.3c-0.4,0.2-0.7,0.6-0.9,1s-0.3,1.1-0.3,1.8c0,0.8,0.1,1.4,0.3,1.9c0.2,0.5,0.5,0.8,0.9,1
			c0.4,0.2,0.9,0.3,1.6,0.3C744.5,675.9,745,675.8,745.4,675.5z"/>
	</g>
</g>
<g>
	<g>
		<path d="M950.6,676.4c-0.6-0.3-1-0.8-1.3-1.5c-0.3-0.6-0.4-1.4-0.4-2.3c0-1.3,0.3-2.4,1-3.1s1.6-1.1,2.9-1.1
			c1.2,0,2.1,0.4,2.8,1.1c0.6,0.7,0.9,1.8,0.9,3.2c0,1-0.1,1.7-0.4,2.4c-0.3,0.6-0.7,1.1-1.2,1.4s-1.2,0.5-2.1,0.5
			C951.9,676.9,951.2,676.8,950.6,676.4z M951,680.4c-0.6-0.2-1-0.6-1.4-1c-0.3-0.5-0.5-1-0.6-1.6h1.3c0,0.4,0.1,0.7,0.3,1
			c0.2,0.3,0.5,0.5,0.9,0.7c0.4,0.2,0.9,0.2,1.5,0.2c0.7,0,1.2-0.1,1.6-0.3s0.7-0.4,0.9-0.8c0.2-0.4,0.3-0.9,0.3-1.5v-8.5h1.4v8.5
			c0,0.8-0.1,1.4-0.4,2c-0.3,0.5-0.7,0.9-1.3,1.2c-0.6,0.3-1.4,0.4-2.4,0.4C952.3,680.7,951.6,680.6,951,680.4z M954.7,675.5
			c0.4-0.2,0.7-0.6,1-1c0.2-0.5,0.3-1.1,0.3-1.8c0-0.7-0.1-1.4-0.3-1.8c-0.2-0.5-0.5-0.8-1-1c-0.4-0.2-0.9-0.3-1.6-0.3
			c-0.7,0-1.2,0.1-1.6,0.3c-0.4,0.2-0.7,0.6-0.9,1c-0.2,0.5-0.3,1.1-0.3,1.8c0,0.8,0.1,1.4,0.3,1.9c0.2,0.5,0.5,0.8,0.9,1
			c0.4,0.2,0.9,0.3,1.6,0.3C953.7,675.9,954.3,675.8,954.7,675.5z"/>
		<path d="M961,676.8c-0.6-0.4-1.1-0.9-1.4-1.6c-0.3-0.7-0.5-1.5-0.5-2.3c0-0.9,0.2-1.6,0.5-2.3s0.8-1.2,1.4-1.6
			c0.6-0.4,1.4-0.6,2.3-0.6c0.8,0,1.6,0.2,2.2,0.5c0.6,0.4,1.1,0.9,1.4,1.5s0.5,1.4,0.5,2.2v0.2c0,0.1,0,0.2,0,0.4h-7.1v-1h6.4
			l-0.6,0.6c0-0.8,0-1.4-0.2-1.9c-0.2-0.5-0.5-0.9-0.9-1.1s-0.9-0.3-1.5-0.3c-0.6,0-1.1,0.1-1.6,0.3s-0.8,0.6-1,1.1s-0.3,1.2-0.3,2
			s0.1,1.5,0.4,2c0.2,0.5,0.6,0.9,1,1.1c0.4,0.2,1,0.3,1.6,0.3c0.5,0,1-0.1,1.4-0.2c0.4-0.2,0.7-0.4,0.9-0.6c0.2-0.3,0.4-0.6,0.5-1
			h1.2c-0.1,0.5-0.2,0.9-0.5,1.4s-0.7,0.8-1.3,1.1c-0.6,0.3-1.3,0.4-2.2,0.4C962.4,677.4,961.6,677.2,961,676.8z"/>
		<path d="M969.1,668.6h1.4v8.5h-1.4V668.6z M970.4,671c0.3-0.8,0.7-1.5,1.2-1.9c0.5-0.5,1.2-0.7,2.1-0.7c0.7,0,1.3,0.1,1.7,0.4
			s0.8,0.6,1,1.1c0.2,0.5,0.3,1.1,0.3,1.8v5.4h-1.4v-5.3c0-0.6-0.1-1.1-0.2-1.4c-0.2-0.4-0.4-0.6-0.7-0.7c-0.3-0.1-0.7-0.2-1.1-0.2
			c-0.6,0-1.2,0.2-1.6,0.5s-0.8,0.8-1,1.5c-0.2,0.7-0.3,1.5-0.3,2.4H970C970,672.8,970.1,671.8,970.4,671z"/>
	</g>
</g>
<g>
	<g>
		<path d="M1062.6,677.1c-0.4-0.2-0.7-0.5-1-0.8c-0.2-0.4-0.4-0.8-0.4-1.4c0-0.5,0.1-0.9,0.3-1.2c0.2-0.3,0.5-0.6,0.8-0.8
			c0.4-0.2,0.9-0.4,1.5-0.5l2.2-0.4c0.5-0.1,0.8-0.2,1-0.3c0.2-0.1,0.3-0.4,0.3-0.7c0-0.3-0.1-0.6-0.2-0.8c-0.1-0.2-0.3-0.4-0.6-0.5
			c-0.3-0.1-0.7-0.2-1.3-0.2c-0.8,0-1.4,0.2-1.7,0.5c-0.4,0.3-0.6,0.8-0.6,1.4h-1.4c0-0.6,0.2-1.1,0.5-1.6c0.3-0.4,0.7-0.8,1.2-1
			c0.5-0.2,1.2-0.4,2-0.4c0.7,0,1.4,0.1,1.9,0.3c0.5,0.2,0.9,0.5,1.1,0.9s0.4,0.8,0.4,1.4v4.1c0,0.3,0,0.6,0,1c0,0.3,0,0.7,0.1,1.1
			h-1.2c0-0.4-0.1-0.7-0.1-1s0-0.7,0-1c-0.1,0.4-0.3,0.7-0.6,1.1c-0.3,0.3-0.6,0.6-1,0.8c-0.4,0.2-1,0.3-1.6,0.3
			C1063.6,677.3,1063.1,677.3,1062.6,677.1z M1066,675.8c0.4-0.3,0.8-0.7,1-1.2s0.3-1,0.3-1.6v-0.7c-0.2,0.1-0.4,0.2-0.6,0.3
			c-0.2,0.1-0.4,0.2-0.7,0.2l-0.2,0.1l-1.4,0.3c-0.6,0.1-1,0.3-1.3,0.6s-0.4,0.6-0.4,1c0,0.5,0.2,0.8,0.5,1.1
			c0.3,0.2,0.7,0.4,1.2,0.4C1065,676.3,1065.6,676.1,1066,675.8z"/>
		<path d="M1070.8,668.6h1.4v1.9v0.3v9.7h-1.4V668.6z M1072.5,676.2c-0.6-0.8-0.9-1.9-0.9-3.3s0.3-2.5,0.9-3.3s1.6-1.2,2.8-1.2
			c0.9,0,1.6,0.2,2.2,0.6c0.6,0.4,1,0.9,1.3,1.6c0.3,0.7,0.4,1.5,0.4,2.3c0,0.9-0.1,1.7-0.4,2.4c-0.3,0.7-0.7,1.2-1.3,1.6
			c-0.6,0.4-1.3,0.6-2.2,0.6C1074.1,677.4,1073.2,677,1072.5,676.2z M1076.6,675.9c0.4-0.2,0.7-0.6,0.9-1.1c0.2-0.5,0.3-1.1,0.3-1.9
			c0-0.8-0.1-1.4-0.3-1.9c-0.2-0.5-0.5-0.9-0.9-1.1s-0.9-0.4-1.6-0.4c-0.6,0-1.1,0.1-1.6,0.4c-0.4,0.2-0.8,0.6-1,1.1
			c-0.2,0.5-0.3,1.1-0.3,1.9s0.1,1.4,0.3,1.9c0.2,0.5,0.6,0.9,1,1.1c0.4,0.2,1,0.4,1.6,0.4C1075.7,676.3,1076.2,676.2,1076.6,675.9z
			"/>
		<path d="M1081.1,668.6h1.3v2.7l0,0.3v5.6h-1.4V668.6z M1082.3,671.2c0.2-0.8,0.6-1.5,1.2-1.9c0.5-0.5,1.2-0.7,2.1-0.7h0.3v1.3
			h-0.4c-0.8,0-1.4,0.1-1.9,0.5c-0.4,0.3-0.8,0.8-0.9,1.4s-0.2,1.4-0.2,2.2h-0.5C1081.9,672.9,1082.1,672,1082.3,671.2z"/>
	</g>
</g>
<g>
	<g>
		<path d="M1175.2,665.2h1.4v11.9h-1.4V665.2z"/>
		<path d="M1180.2,677c-0.5-0.2-0.8-0.6-1-1.1c-0.2-0.5-0.3-1.1-0.3-1.9v-5.4h1.4v5.3c0,0.6,0.1,1.1,0.2,1.4
			c0.2,0.3,0.4,0.6,0.7,0.7c0.3,0.1,0.7,0.2,1.2,0.2c0.6,0,1.1-0.2,1.5-0.5c0.4-0.3,0.7-0.8,0.9-1.5c0.2-0.7,0.3-1.5,0.3-2.4h0.4
			c0,1.1-0.1,2.1-0.4,2.9c-0.2,0.8-0.6,1.5-1.2,1.9s-1.2,0.7-2.1,0.7C1181.2,677.4,1180.7,677.3,1180.2,677z M1185.1,674.5v-0.2
			v-5.7h1.4v8.5h-1.4V674.5z"/>
		<path d="M1190.1,676.4c-0.6-0.3-1-0.8-1.3-1.5c-0.3-0.6-0.4-1.4-0.4-2.3c0-1.3,0.3-2.4,1-3.1s1.6-1.1,2.9-1.1
			c1.2,0,2.1,0.4,2.8,1.1c0.6,0.7,0.9,1.8,0.9,3.2c0,1-0.1,1.7-0.4,2.4c-0.3,0.6-0.7,1.1-1.2,1.4s-1.2,0.5-2.1,0.5
			C1191.4,676.9,1190.7,676.8,1190.1,676.4z M1190.5,680.4c-0.6-0.2-1-0.6-1.4-1c-0.3-0.5-0.5-1-0.6-1.6h1.3c0,0.4,0.1,0.7,0.3,1
			c0.2,0.3,0.5,0.5,0.9,0.7c0.4,0.2,0.9,0.2,1.5,0.2c0.7,0,1.2-0.1,1.6-0.3s0.7-0.4,0.9-0.8c0.2-0.4,0.3-0.9,0.3-1.5v-8.5h1.4v8.5
			c0,0.8-0.1,1.4-0.4,2c-0.3,0.5-0.7,0.9-1.3,1.2c-0.6,0.3-1.4,0.4-2.4,0.4C1191.7,680.7,1191,680.6,1190.5,680.4z M1194.1,675.5
			c0.4-0.2,0.7-0.6,1-1c0.2-0.5,0.3-1.1,0.3-1.8c0-0.7-0.1-1.4-0.3-1.8c-0.2-0.5-0.5-0.8-1-1c-0.4-0.2-0.9-0.3-1.6-0.3
			c-0.7,0-1.2,0.1-1.6,0.3c-0.4,0.2-0.7,0.6-0.9,1c-0.2,0.5-0.3,1.1-0.3,1.8c0,0.8,0.1,1.4,0.3,1.9c0.2,0.5,0.5,0.8,0.9,1
			c0.4,0.2,0.9,0.3,1.6,0.3C1193.2,675.9,1193.7,675.8,1194.1,675.5z"/>
	</g>
</g>
<g>
	<g>
		<path d="M841.8,676.8c-0.6-0.4-1.1-0.9-1.4-1.6s-0.5-1.5-0.5-2.3c0-0.9,0.2-1.6,0.5-2.3s0.8-1.2,1.4-1.6c0.6-0.4,1.4-0.6,2.4-0.6
			c0.9,0,1.7,0.2,2.3,0.6c0.6,0.4,1.1,0.9,1.4,1.6s0.5,1.5,0.5,2.3c0,0.9-0.2,1.6-0.5,2.3c-0.3,0.7-0.8,1.2-1.4,1.6
			c-0.6,0.4-1.4,0.6-2.3,0.6C843.2,677.4,842.4,677.2,841.8,676.8z M841.6,674.8c0.2,0.5,0.5,0.9,1,1.1c0.4,0.2,1,0.4,1.6,0.4
			c0.6,0,1.2-0.1,1.6-0.4c0.4-0.2,0.7-0.6,1-1.1c0.2-0.5,0.3-1.2,0.3-1.9c0-0.8-0.1-1.4-0.3-1.9c-0.2-0.5-0.5-0.9-1-1.1
			c-0.4-0.2-1-0.4-1.6-0.4c-0.7,0-1.2,0.1-1.6,0.4c-0.4,0.2-0.7,0.6-1,1.1c-0.2,0.5-0.3,1.2-0.3,1.9
			C841.2,673.7,841.3,674.3,841.6,674.8z"/>
		<path d="M851.5,676.9c-0.3-0.1-0.5-0.4-0.6-0.6s-0.2-0.7-0.2-1.1v-5.4h-1.6v-0.8l1.8-0.4l0.5-1.8h0.7v1.9h4.7v1.1h-4.7v6.3h2.7
			v1.1h-2C852.2,677.1,851.8,677.1,851.5,676.9z M857.1,676.9c-0.3-0.1-0.5-0.4-0.6-0.6s-0.2-0.7-0.2-1.1v-5.4h-1.6v-0.8l1.6-0.2
			l0.6-2h0.7v1.9h2.8v1.1h-2.8v6.3h2.7v1.1h-2C857.8,677.1,857.4,677.1,857.1,676.9z"/>
	</g>
</g>
</svg>
