<?xml version="1.0" encoding="utf-8"?>
<!-- Generator: Adobe Illustrator 25.2.0, SVG Export Plug-In . SVG Version: 6.00 Build 0)  -->
<svg version="1.1" id="Livello_1" xmlns="http://www.w3.org/2000/svg" xmlns:xlink="http://www.w3.org/1999/xlink" x="0px" y="0px"
	 viewBox="0 0 1193.4 746.5" style="enable-background:new 0 0 1193.4 746.5;" xml:space="preserve">
<style type="text/css">
	.st0{fill:#0047CC;}
	.st1{opacity:0.5;}
	.st2{fill:#FFFFFF;}
	.st3{fill:none;stroke:#000000;stroke-miterlimit:10;}
	.st4{fill:#80A3E6;}
</style>
<g>
	<g>
		<path d="M1013.1,610.9l12.8-11.1c1.5-1.3,2.5-2.5,3.1-3.4s0.9-2.1,0.9-3.4c0-1.6-0.5-2.8-1.6-3.8c-1-0.9-2.6-1.4-4.6-1.4
			c-1.8,0-3.3,0.3-4.4,1c-1.2,0.7-2,1.7-2.6,3c-0.6,1.3-0.9,3.1-0.9,5.1h-2.6c0-2.4,0.4-4.4,1.2-6.1c0.8-1.7,2-3,3.5-3.8
			c1.5-0.9,3.5-1.3,5.8-1.3c2,0,3.7,0.3,5,1c1.3,0.7,2.3,1.5,2.9,2.6c0.6,1.1,0.9,2.3,0.9,3.6c0,1.6-0.4,3.1-1.3,4.5
			c-0.9,1.4-2.4,3-4.5,4.9l-10,8.6h16.4v2.1h-19.9V610.9z"/>
		<path d="M1041.9,611.9c-1.7-1.2-3-2.8-3.9-4.9c-0.9-2.1-1.3-4.6-1.3-7.4c0-2.7,0.4-5.2,1.3-7.3c0.9-2.1,2.2-3.7,3.9-4.9
			c1.7-1.2,3.9-1.8,6.4-1.8c2.6,0,4.7,0.6,6.5,1.8s3,2.8,3.9,4.9c0.9,2.1,1.3,4.5,1.3,7.3c0,2.8-0.4,5.3-1.3,7.4s-2.1,3.7-3.9,4.9
			s-3.9,1.8-6.5,1.8C1045.8,613.7,1043.6,613.1,1041.9,611.9z M1040.3,606.3c0.7,1.8,1.7,3.1,3,4c1.3,0.9,3,1.3,5,1.3s3.7-0.4,5-1.3
			c1.3-0.9,2.3-2.2,3-4c0.7-1.8,1-4,1-6.7c0-2.6-0.3-4.8-1-6.6c-0.7-1.8-1.7-3.1-3-4c-1.3-0.9-3-1.3-5-1.3s-3.7,0.4-5,1.3
			c-1.3,0.9-2.3,2.2-3,4c-0.7,1.8-1,4-1,6.6C1039.3,602.3,1039.7,604.5,1040.3,606.3z"/>
		<path d="M1064.4,610.9l12.8-11.1c1.5-1.3,2.5-2.5,3.1-3.4c0.6-1,0.9-2.1,0.9-3.4c0-1.6-0.5-2.8-1.6-3.8c-1-0.9-2.6-1.4-4.6-1.4
			c-1.8,0-3.3,0.3-4.4,1c-1.2,0.7-2,1.7-2.6,3c-0.6,1.3-0.9,3.1-0.9,5.1h-2.6c0-2.4,0.4-4.4,1.2-6.1c0.8-1.7,2-3,3.5-3.8
			s3.5-1.3,5.8-1.3c2,0,3.7,0.3,5,1c1.3,0.7,2.3,1.5,2.9,2.6c0.6,1.1,0.9,2.3,0.9,3.6c0,1.6-0.4,3.1-1.3,4.5c-0.9,1.4-2.4,3-4.5,4.9
			l-10,8.6h16.4v2.1h-19.9V610.9z"/>
		<path d="M1091.5,607.8c0.6,1.1,1.4,2,2.6,2.7c1.1,0.7,2.6,1.1,4.3,1.1c2.6,0,4.5-0.6,5.8-1.8s2-2.9,2-5.1c0-1.9-0.5-3.5-1.6-4.6
			c-1-1.1-2.5-1.7-4.5-1.7c-1,0-1.8,0.1-2.6,0.3c-0.7,0.2-1.5,0.6-2.4,1l-1.2-1.6l10.8-9.6H1089v-2.1h18.8v2.1l-9.7,8.8
			c0.9-0.2,1.9-0.4,2.9-0.4c1.5,0,2.8,0.3,4,0.9c1.2,0.6,2.1,1.5,2.8,2.7c0.7,1.2,1,2.6,1,4.2c0,1.6-0.4,3.1-1.1,4.5
			c-0.7,1.4-1.9,2.5-3.5,3.3c-1.6,0.8-3.6,1.2-6,1.2c-2.2,0-4.1-0.4-5.6-1.3c-1.5-0.8-2.7-2-3.5-3.4c-0.8-1.4-1.2-3-1.3-4.7h2.6
			C1090.6,605.6,1090.9,606.8,1091.5,607.8z"/>
	</g>
</g>
<g>
	<g>
		<path d="M684.3,611.1l12.8-11.1c1.5-1.3,2.5-2.5,3.1-3.4s0.9-2.1,0.9-3.4c0-1.6-0.5-2.8-1.6-3.8c-1-0.9-2.6-1.4-4.6-1.4
			c-1.8,0-3.3,0.3-4.4,1c-1.2,0.7-2,1.7-2.6,3c-0.6,1.3-0.9,3.1-0.9,5.1h-2.6c0-2.4,0.4-4.4,1.2-6.1c0.8-1.7,2-3,3.5-3.8
			c1.5-0.9,3.5-1.3,5.8-1.3c2,0,3.7,0.3,5,1c1.3,0.7,2.3,1.5,2.9,2.6c0.6,1.1,0.9,2.3,0.9,3.6c0,1.6-0.4,3.1-1.3,4.5
			c-0.9,1.4-2.4,3-4.5,4.9l-10,8.6h16.4v2.1h-19.9V611.1z"/>
		<path d="M713.1,612.1c-1.7-1.2-3-2.8-3.9-4.9c-0.9-2.1-1.3-4.6-1.3-7.4c0-2.7,0.4-5.2,1.3-7.3c0.9-2.1,2.2-3.7,3.9-4.9
			c1.7-1.2,3.9-1.8,6.4-1.8c2.6,0,4.7,0.6,6.5,1.8s3,2.8,3.9,4.9c0.9,2.1,1.3,4.5,1.3,7.3c0,2.8-0.4,5.3-1.3,7.4s-2.1,3.7-3.9,4.9
			s-3.9,1.8-6.5,1.8C717,613.9,714.8,613.3,713.1,612.1z M711.5,606.5c0.7,1.8,1.7,3.1,3,4c1.3,0.9,3,1.3,5,1.3s3.7-0.4,5-1.3
			c1.3-0.9,2.3-2.2,3-4c0.7-1.8,1-4,1-6.7c0-2.6-0.3-4.8-1-6.6c-0.7-1.8-1.7-3.1-3-4c-1.3-0.9-3-1.3-5-1.3s-3.7,0.4-5,1.3
			c-1.3,0.9-2.3,2.2-3,4c-0.7,1.8-1,4-1,6.6C710.5,602.5,710.8,604.7,711.5,606.5z"/>
		<path d="M735.6,611.1l12.8-11.1c1.5-1.3,2.5-2.5,3.1-3.4c0.6-1,0.9-2.1,0.9-3.4c0-1.6-0.5-2.8-1.6-3.8c-1-0.9-2.6-1.4-4.6-1.4
			c-1.8,0-3.3,0.3-4.4,1c-1.2,0.7-2,1.7-2.6,3c-0.6,1.3-0.9,3.1-0.9,5.1h-2.6c0-2.4,0.4-4.4,1.2-6.1c0.8-1.7,2-3,3.5-3.8
			s3.5-1.3,5.8-1.3c2,0,3.7,0.3,5,1c1.3,0.7,2.3,1.5,2.9,2.6c0.6,1.1,0.9,2.3,0.9,3.6c0,1.6-0.4,3.1-1.3,4.5c-0.9,1.4-2.4,3-4.5,4.9
			l-10,8.6h16.4v2.1h-19.9V611.1z"/>
		<path d="M760,611.1l12.8-11.1c1.5-1.3,2.5-2.5,3.1-3.4s0.9-2.1,0.9-3.4c0-1.6-0.5-2.8-1.6-3.8c-1-0.9-2.6-1.4-4.6-1.4
			c-1.8,0-3.3,0.3-4.4,1c-1.2,0.7-2,1.7-2.6,3c-0.6,1.3-0.9,3.1-0.9,5.1H760c0-2.4,0.4-4.4,1.2-6.1c0.8-1.7,2-3,3.5-3.8
			c1.5-0.9,3.5-1.3,5.8-1.3c2,0,3.7,0.3,5,1c1.3,0.7,2.3,1.5,2.9,2.6c0.6,1.1,0.9,2.3,0.9,3.6c0,1.6-0.4,3.1-1.3,4.5
			c-0.9,1.4-2.4,3-4.5,4.9l-10,8.6H780v2.1H760V611.1z"/>
	</g>
</g>
<g id="Livello_2_1_">
	<g id="maggiore">
		<polygon class="st0" points="1156.7,106.5 1137.3,106.5 1136.9,106.5 1136.9,148.6 1098.2,148.6 1098.2,235 1059.4,235 
			1059.4,235.7 1022,235.7 984.5,235.7 984.5,229.3 945.1,229.3 945.1,207.1 906.3,207.1 906.3,186.2 867.5,186.2 867.5,211 
			828.8,211 828.8,216.8 790,216.8 790,222.4 750.6,222.4 750.6,199.7 711.8,199.7 711.8,186.9 673.1,186.9 673.1,186.2 
			634.3,186.2 634.3,222.9 595.6,222.9 595.6,238 558.1,238 558.1,237.5 520.6,237.5 520.6,216.3 481.2,216.3 481.2,185.1 
			442.5,185.1 442.5,158.7 403.7,158.7 403.7,117.1 364.9,117.1 364.9,177.6 326.1,177.6 326.1,61.7 286.7,61.7 286.7,32.2 
			248,32.2 248,117.6 209.2,117.6 209.2,116.4 170.5,116.4 170.5,165.6 131.7,165.6 131.7,184 94.3,184 94.3,179.2 56.8,179.2 
			56.8,176 56.6,176 56.6,175.8 17.8,175.8 17.8,362.5 56.6,362.5 56.6,362.2 56.8,362.2 56.8,359 94.3,359 94.3,354.2 131.7,354.2 
			131.7,372.6 170.5,372.6 170.5,421.8 209.2,421.8 209.2,420.6 248,420.6 248,506 286.7,506 286.7,476.5 326.1,476.5 326.1,360.6 
			364.9,360.6 364.9,421.1 403.7,421.1 403.7,379.5 442.5,379.5 442.5,353.1 481.2,353.1 481.2,322 520.6,322 520.6,300.8 
			558.1,300.8 558.1,300.2 595.6,300.2 595.6,315.3 634.3,315.3 634.3,352 673.1,352 673.1,351.4 711.8,351.4 711.8,338.5 
			750.6,338.5 750.6,315.8 790,315.8 790,321.4 828.8,321.4 828.8,327.2 867.5,327.2 867.5,352 906.3,352 906.3,331.1 945.1,331.1 
			945.1,308.9 984.5,308.9 984.5,302.5 1022,302.5 1059.4,302.5 1059.4,303.2 1098.2,303.2 1098.2,389.6 1136.9,389.6 1136.9,431.7 
			1137.3,431.7 1156.7,431.7 1176,431.7 1176,106.5 		"/>
		<g class="st1">
			<polygon class="st2" points="1156.7,196.8 1137,196.8 1136.9,196.8 1136.9,198.5 1098.2,198.5 1098.2,228.8 1059.4,228.8 
				1059.4,241.4 1022,241.4 1022,242.1 984.5,242.1 984.5,245.5 945.1,245.5 945.1,244.6 906.3,244.6 906.3,243.7 867.5,243.7 
				867.5,242.1 828.8,242.1 828.8,242.1 790,242.1 790,238 750.6,238 750.6,206.5 711.8,206.5 711.8,196.8 673.1,196.8 673.1,198.5 
				634.3,198.5 634.3,228.8 595.6,228.8 595.6,241.4 558.1,241.4 558.1,242.1 520.6,242.1 520.6,245.5 481.2,245.5 481.2,244.6 
				442.5,244.6 442.5,243.7 403.7,243.7 403.7,242.1 364.9,242.1 364.9,242.1 326.1,242.1 326.1,238 286.7,238 286.7,206.5 
				248,206.5 248,196.8 209.2,196.8 209.2,198.5 170.5,198.5 170.5,228.8 131.7,228.8 131.7,241.4 94.3,241.4 94.3,242.1 
				56.8,242.1 56.8,245.5 56.6,245.5 37.1,245.5 17.5,245.5 17.5,292.7 37.1,292.7 56.6,292.7 56.8,292.7 56.8,296.1 94.3,296.1 
				94.3,296.9 131.7,296.9 131.7,309.5 170.5,309.5 170.5,339.8 209.2,339.8 209.2,341.5 248,341.5 248,331.8 286.7,331.8 
				286.7,300.3 326.1,300.3 326.1,296.1 364.9,296.1 364.9,296.1 403.7,296.1 403.7,294.5 442.5,294.5 442.5,293.6 481.2,293.6 
				481.2,292.7 520.6,292.7 520.6,296.1 558.1,296.1 558.1,296.9 595.6,296.9 595.6,309.5 634.3,309.5 634.3,339.8 673.1,339.8 
				673.1,341.5 711.8,341.5 711.8,331.8 750.6,331.8 750.6,300.3 790,300.3 790,296.1 828.8,296.1 828.8,296.1 867.5,296.1 
				867.5,294.5 906.3,294.5 906.3,293.6 945.1,293.6 945.1,292.7 984.5,292.7 984.5,296.1 1022,296.1 1022,296.9 1059.4,296.9 
				1059.4,309.5 1098.2,309.5 1098.2,339.8 1136.9,339.8 1136.9,341.5 1137,341.5 1156.7,341.5 1176,341.5 1176,196.8 			"/>
		</g>
		<rect x="480.7" y="509.7" width="463.5" height="1"/>
		<polygon points="18,519.3 17,519.3 17,509.7 481.1,509.7 481.1,510.7 18,510.7 		"/>
		<polygon points="1176.5,519.3 1175.5,519.3 1175.5,510.7 943.7,510.7 943.7,509.7 1176.5,509.7 		"/>
		<rect x="54.6" y="510.2" width="1" height="9.1"/>
		<rect x="92.2" y="510.2" width="1" height="9.1"/>
		<rect x="129.9" y="510.2" width="1" height="9.1"/>
		<rect x="168.6" y="510.2" width="1" height="9.1"/>
		<rect x="207.5" y="510.2" width="1" height="9.1"/>
		<rect x="246.3" y="510.2" width="1" height="9.1"/>
		<rect x="285.1" y="510.2" width="1" height="9.1"/>
		<rect x="324.8" y="510.2" width="1" height="9.1"/>
		<rect x="363.7" y="510.2" width="1" height="9.1"/>
		<rect x="402.5" y="510.2" width="1" height="9.1"/>
		<rect x="441.4" y="510.2" width="1" height="9.1"/>
		<rect x="480.6" y="510.2" width="1" height="9.1"/>
		<rect x="519.9" y="510.2" width="1" height="9.1"/>
		<rect x="595" y="510.2" width="1" height="9.1"/>
		<rect x="672.7" y="510.2" width="1" height="9.1"/>
		<rect x="750.5" y="510.2" width="1" height="9.1"/>
		<rect x="828.9" y="510.2" width="1" height="9.1"/>
		<rect x="906.6" y="510.2" width="1" height="9.1"/>
		<rect x="985" y="510.2" width="1" height="9.1"/>
		<rect x="1060.2" y="510.2" width="1" height="9.1"/>
		<rect x="1137.9" y="510.2" width="1" height="9.1"/>
		<rect x="557.4" y="510.2" width="1" height="9.1"/>
		<rect x="633.9" y="510.2" width="1" height="9.1"/>
		<rect x="711.5" y="510.2" width="1" height="9.1"/>
		<rect x="790" y="510.2" width="1" height="9.1"/>
		<rect x="867.7" y="510.2" width="1" height="9.1"/>
		<rect x="945.5" y="510.2" width="1" height="9.1"/>
		<rect x="1022.8" y="510.2" width="1" height="9.1"/>
		<rect x="1099.1" y="510.2" width="1" height="9.1"/>
		<path d="M946.3,601.5h-0.8v-0.1L946.3,601.5L946.3,601.5z M946.3,598.3h-0.8v-1h0.8V598.3z M946.3,594.1h-0.8v-1h0.8V594.1z
			 M946.3,589.9h-0.8v-1h0.8V589.9z M946.3,585.7h-0.8v-1h0.8V585.7z M946.3,581.6h-0.8v-1h0.8V581.6z M946.3,577.4h-0.8v-1h0.8
			V577.4z M946.3,573.2h-0.8v-1h0.8V573.2z M946.3,569h-0.8v-1h0.8V569z M946.3,564.9h-0.8v-1h0.8V564.9z M946.3,560.7h-0.8v-1h0.8
			V560.7z M946.3,556.5h-0.8v-1h0.8V556.5z M946.3,552.3h-0.8v-1h0.8V552.3z M946.3,548.2h-0.8v-1h0.8V548.2z M946.3,544h-0.8v-1
			h0.8V544z M946.3,539.8h-0.8v-1h0.8V539.8z M946.3,535.6h-0.8v-1h0.8V535.6z M946.3,531.4h-0.8v-1h0.8V531.4z M946.3,527.3h-0.8
			v-1h0.8V527.3z M946.3,523.1h-0.8v-1h0.8V523.1z M946.3,518.9h-0.8v-1h0.8V518.9z M946.3,514.7h-0.8v-1h0.8V514.7z M946.3,510.6
			h-0.8v-1h0.8V510.6z M946.3,506.4h-0.8v-1h0.8V506.4z M946.3,502.2h-0.8v-1h0.8V502.2z M946.3,498h-0.8v-1h0.8V498z M946.3,493.9
			h-0.8v-1h0.8V493.9z M946.3,489.7h-0.8v-1h0.8V489.7z M946.3,485.5h-0.8v-1h0.8V485.5z M946.3,481.3h-0.8v-1h0.8V481.3z
			 M946.3,477.2h-0.8v-1h0.8V477.2z M946.3,473h-0.8v-1h0.8V473z M946.3,468.8h-0.8v-1h0.8V468.8z M946.3,464.6h-0.8v-1h0.8V464.6z
			 M946.3,460.5h-0.8v-1h0.8V460.5z M946.3,456.3h-0.8v-1h0.8V456.3z M946.3,452.1h-0.8v-1h0.8V452.1z M946.3,447.9h-0.8v-1h0.8
			V447.9z M946.3,443.7h-0.8v-1h0.8V443.7z M946.3,439.6h-0.8v-1h0.8V439.6z M946.3,435.4h-0.8v-1h0.8V435.4z M946.3,431.2h-0.8v-1
			h0.8V431.2z M946.3,427h-0.8v-1h0.8V427z M946.3,422.9h-0.8v-1h0.8V422.9z M946.3,418.7h-0.8v-1h0.8V418.7z M946.3,414.5h-0.8v-1
			h0.8V414.5z M946.3,410.3h-0.8v-1h0.8V410.3z M946.3,406.2h-0.8v-1h0.8V406.2z M946.3,402h-0.8v-1h0.8V402z M946.3,397.8h-0.8v-1
			h0.8V397.8z M946.3,393.6h-0.8v-1h0.8V393.6z M946.3,389.5h-0.8v-1h0.8V389.5z M946.3,385.3h-0.8v-1h0.8V385.3z M946.3,381.1h-0.8
			v-1h0.8V381.1z M946.3,376.9h-0.8v-1h0.8V376.9z M946.3,372.8h-0.8v-1h0.8V372.8z M946.3,368.6h-0.8v-1h0.8V368.6z M946.3,364.4
			h-0.8v-1h0.8V364.4z M946.3,360.2h-0.8v-1h0.8V360.2z M946.3,356h-0.8v-1h0.8V356z M946.3,351.9h-0.8v-1h0.8V351.9z M946.3,347.7
			h-0.8v-1h0.8V347.7z M946.3,343.5h-0.8v-1h0.8V343.5z M946.3,339.3h-0.8v-1h0.8V339.3z M946.3,335.2h-0.8v-1h0.8V335.2z
			 M946.3,331h-0.8v-1h0.8V331z M946.3,326.8h-0.8v-1h0.8V326.8z M946.3,322.6h-0.8v-1h0.8V322.6z M946.3,318.5h-0.8v-1h0.8V318.5z
			 M946.3,314.3h-0.8v-1h0.8V314.3z M946.3,310.1h-0.8v-1h0.8V310.1z M946.3,305.9h-0.8v-1h0.8V305.9z M946.3,301.8h-0.8v-1h0.8
			V301.8z M946.3,297.6h-0.8v-1h0.8V297.6z M946.3,293.4h-0.8v-1h0.8V293.4z M946.3,289.2h-0.8v-1h0.8V289.2z M946.3,285.1h-0.8v-1
			h0.8V285.1z M946.3,280.9h-0.8v-1h0.8V280.9z M946.3,276.7h-0.8v-1h0.8V276.7z M946.3,272.5h-0.8v-1h0.8V272.5z M946.3,268.4h-0.8
			v-1h0.8V268.4z M946.3,264.2h-0.8v-1h0.8V264.2z M946.3,260h-0.8v-1h0.8V260z M946.3,255.8h-0.8v-1h0.8V255.8z M946.3,251.6h-0.8
			v-1h0.8V251.6z M946.3,247.5h-0.8v-1h0.8V247.5z M946.3,243.3h-0.8v-1h0.8V243.3z M946.3,239.1h-0.8v-1h0.8V239.1z M946.3,234.9
			h-0.8v-1h0.8V234.9z M946.3,230.8h-0.8v-1h0.8V230.8z M946.3,226.6h-0.8v-1h0.8V226.6z M946.3,222.4h-0.8v-1h0.8V222.4z
			 M946.3,218.2h-0.8v-1h0.8V218.2z M946.3,214.1h-0.8v-1h0.8V214.1z M946.3,209.9h-0.8v-1h0.8V209.9z M946.3,205.7h-0.8v-1h0.8
			V205.7z M946.3,201.5h-0.8v-1h0.8V201.5z M946.3,197.4h-0.8v-1h0.8V197.4z M946.3,193.2h-0.8v-1h0.8V193.2z M946.3,189h-0.8v-1
			h0.8V189z M946.3,184.8h-0.8v-1h0.8V184.8z M946.3,180.7h-0.8v-1h0.8V180.7z M946.3,176.5h-0.8v-1h0.8V176.5z M946.3,172.3h-0.8
			v-1h0.8V172.3z M946.3,168.1h-0.8v-1h0.8V168.1z M946.3,163.9h-0.8v-1h0.8V163.9z M946.3,159.8h-0.8v-1h0.8V159.8z M946.3,155.6
			h-0.8v-1h0.8V155.6z M946.3,151.4h-0.8v-1h0.8V151.4z M946.3,147.2h-0.8v-1h0.8V147.2z M946.3,143.1h-0.8v-1h0.8V143.1z
			 M946.3,138.9h-0.8v-1h0.8V138.9z M946.3,134.7h-0.8v-1h0.8V134.7z M946.3,130.5h-0.8v-1h0.8V130.5z M946.3,126.4h-0.8v-1h0.8
			V126.4z M946.3,122.2h-0.8v-1h0.8V122.2z M946.3,118h-0.8v-1h0.8V118z M946.3,113.8h-0.8v-1h0.8V113.8z M946.3,109.7h-0.8v-1h0.8
			V109.7z M946.3,105.5h-0.8v-1h0.8V105.5z M946.3,101.3h-0.8v-1h0.8V101.3z M946.3,97.1h-0.8v-1h0.8V97.1z M946.3,93h-0.8v-1h0.8
			V93z M946.3,88.8h-0.8v-1h0.8V88.8z M946.3,84.6h-0.8v-1h0.8V84.6z M946.3,80.4h-0.8v-1h0.8V80.4z M946.3,76.2h-0.8v-1h0.8V76.2z
			 M946.3,72.1h-0.8v-1h0.8V72.1z M946.3,67.9h-0.8v-1h0.8V67.9z M946.3,63.7h-0.8v-1h0.8V63.7z M946.3,59.5h-0.8v-1h0.8V59.5z"/>
		<path d="M1176.4,601.6h-0.8v-0.1L1176.4,601.6L1176.4,601.6z M1176.4,598.4h-0.8v-1h0.8V598.4z M1176.4,594.2h-0.8v-1h0.8V594.2z
			 M1176.4,590h-0.8v-1h0.8V590z M1176.4,585.8h-0.8v-1h0.8V585.8z M1176.4,581.7h-0.8v-1h0.8V581.7z M1176.4,577.5h-0.8v-1h0.8
			V577.5z M1176.4,573.3h-0.8v-1h0.8V573.3z M1176.4,569.1h-0.8v-1h0.8V569.1z M1176.4,565h-0.8v-1h0.8V565z M1176.4,560.8h-0.8v-1
			h0.8V560.8z M1176.4,556.6h-0.8v-1h0.8V556.6z M1176.4,552.4h-0.8v-1h0.8V552.4z M1176.4,548.2h-0.8v-1h0.8V548.2z M1176.4,544.1
			h-0.8v-1h0.8V544.1z M1176.4,539.9h-0.8v-1h0.8V539.9z M1176.4,535.7h-0.8v-1h0.8V535.7z M1176.4,531.5h-0.8v-1h0.8V531.5z
			 M1176.4,527.4h-0.8v-1h0.8V527.4z M1176.4,523.2h-0.8v-1h0.8V523.2z M1176.4,519h-0.8v-1h0.8V519z M1176.4,514.8h-0.8v-1h0.8
			V514.8z M1176.4,510.7h-0.8v-1h0.8V510.7z M1176.4,506.5h-0.8v-1h0.8V506.5z M1176.4,502.3h-0.8v-1h0.8V502.3z M1176.4,498.1h-0.8
			v-1h0.8V498.1z M1176.4,493.9h-0.8v-1h0.8V493.9z M1176.4,489.8h-0.8v-1h0.8V489.8z M1176.4,485.6h-0.8v-1h0.8V485.6z
			 M1176.4,481.4h-0.8v-1h0.8V481.4z M1176.4,477.2h-0.8v-1h0.8V477.2z M1176.4,473.1h-0.8v-1h0.8V473.1z M1176.4,468.9h-0.8v-1h0.8
			V468.9z M1176.4,464.7h-0.8v-1h0.8V464.7z M1176.4,460.5h-0.8v-1h0.8V460.5z M1176.4,456.4h-0.8v-1h0.8V456.4z M1176.4,452.2h-0.8
			v-1h0.8V452.2z M1176.4,448h-0.8v-1h0.8V448z M1176.4,443.8h-0.8v-1h0.8V443.8z M1176.4,439.6h-0.8v-1h0.8V439.6z M1176.4,435.5
			h-0.8v-1h0.8V435.5z M1176.4,431.3h-0.8v-1h0.8V431.3z M1176.4,427.1h-0.8v-1h0.8V427.1z M1176.4,422.9h-0.8v-1h0.8V422.9z
			 M1176.4,418.8h-0.8v-1h0.8V418.8z M1176.4,414.6h-0.8v-1h0.8V414.6z M1176.4,410.4h-0.8v-1h0.8V410.4z M1176.4,406.2h-0.8v-1h0.8
			V406.2z M1176.4,402.1h-0.8v-1h0.8V402.1z M1176.4,397.9h-0.8v-1h0.8V397.9z M1176.4,393.7h-0.8v-1h0.8V393.7z M1176.4,389.5h-0.8
			v-1h0.8V389.5z M1176.4,385.3h-0.8v-1h0.8V385.3z M1176.4,381.2h-0.8v-1h0.8V381.2z M1176.4,377h-0.8v-1h0.8V377z M1176.4,372.8
			h-0.8v-1h0.8V372.8z M1176.4,368.6h-0.8v-1h0.8V368.6z M1176.4,364.5h-0.8v-1h0.8V364.5z M1176.4,360.3h-0.8v-1h0.8V360.3z
			 M1176.4,356.1h-0.8v-1h0.8V356.1z M1176.4,351.9h-0.8v-1h0.8V351.9z M1176.4,347.8h-0.8v-1h0.8V347.8z M1176.4,343.6h-0.8v-1h0.8
			V343.6z M1176.4,339.4h-0.8v-1h0.8V339.4z M1176.4,335.2h-0.8v-1h0.8V335.2z M1176.4,331h-0.8v-1h0.8V331z M1176.4,326.9h-0.8v-1
			h0.8V326.9z M1176.4,322.7h-0.8v-1h0.8V322.7z M1176.4,318.5h-0.8v-1h0.8V318.5z M1176.4,314.3h-0.8v-1h0.8V314.3z M1176.4,310.2
			h-0.8v-1h0.8V310.2z M1176.4,306h-0.8v-1h0.8V306z M1176.4,301.8h-0.8v-1h0.8V301.8z M1176.4,297.6h-0.8v-1h0.8V297.6z
			 M1176.4,293.5h-0.8v-1h0.8V293.5z M1176.4,289.3h-0.8v-1h0.8V289.3z M1176.4,285.1h-0.8v-1h0.8V285.1z M1176.4,280.9h-0.8v-1h0.8
			V280.9z M1176.4,276.7h-0.8v-1h0.8V276.7z M1176.4,272.6h-0.8v-1h0.8V272.6z M1176.4,268.4h-0.8v-1h0.8V268.4z M1176.4,264.2h-0.8
			v-1h0.8V264.2z M1176.4,260h-0.8v-1h0.8V260z M1176.4,255.9h-0.8v-1h0.8V255.9z M1176.4,251.7h-0.8v-1h0.8V251.7z M1176.4,247.5
			h-0.8v-1h0.8V247.5z M1176.4,243.3h-0.8v-1h0.8V243.3z M1176.4,239.2h-0.8v-1h0.8V239.2z M1176.4,235h-0.8v-1h0.8V235z
			 M1176.4,230.8h-0.8v-1h0.8V230.8z M1176.4,226.6h-0.8v-1h0.8V226.6z M1176.4,222.4h-0.8v-1h0.8V222.4z M1176.4,218.3h-0.8v-1h0.8
			V218.3z M1176.4,214.1h-0.8v-1h0.8V214.1z M1176.4,209.9h-0.8v-1h0.8V209.9z M1176.4,205.7h-0.8v-1h0.8V205.7z M1176.4,201.6h-0.8
			v-1h0.8V201.6z M1176.4,197.4h-0.8v-1h0.8V197.4z M1176.4,193.2h-0.8v-1h0.8V193.2z M1176.4,189h-0.8v-1h0.8V189z M1176.4,184.9
			h-0.8v-1h0.8V184.9z M1176.4,180.7h-0.8v-1h0.8V180.7z M1176.4,176.5h-0.8v-1h0.8V176.5z M1176.4,172.3h-0.8v-1h0.8V172.3z
			 M1176.4,168.1h-0.8v-1h0.8V168.1z M1176.4,164h-0.8v-1h0.8V164z M1176.4,159.8h-0.8v-1h0.8V159.8z M1176.4,155.6h-0.8v-1h0.8
			V155.6z M1176.4,151.4h-0.8v-1h0.8V151.4z M1176.4,147.3h-0.8v-1h0.8V147.3z M1176.4,143.1h-0.8v-1h0.8V143.1z M1176.4,138.9h-0.8
			v-1h0.8V138.9z M1176.4,134.7h-0.8v-1h0.8V134.7z M1176.4,130.6h-0.8v-1h0.8V130.6z M1176.4,126.4h-0.8v-1h0.8V126.4z
			 M1176.4,122.2h-0.8v-1h0.8V122.2z M1176.4,118h-0.8v-1h0.8V118z M1176.4,113.8h-0.8v-1h0.8V113.8z M1176.4,109.7h-0.8v-1h0.8
			V109.7z M1176.4,105.5h-0.8v-1h0.8V105.5z M1176.4,101.3h-0.8v-1h0.8V101.3z M1176.4,97.1h-0.8v-1h0.8V97.1z M1176.4,93h-0.8v-1
			h0.8V93z M1176.4,88.8h-0.8v-1h0.8V88.8z M1176.4,84.6h-0.8v-1h0.8V84.6z M1176.4,80.4h-0.8v-1h0.8V80.4z M1176.4,76.3h-0.8v-1
			h0.8V76.3z M1176.4,72.1h-0.8v-1h0.8V72.1z M1176.4,67.9h-0.8v-1h0.8V67.9z M1176.4,63.7h-0.8v-1h0.8V63.7z M1176.4,59.5h-0.8v-1
			h0.8V59.5z"/>
		<path d="M481.5,601.6h-0.8v-0.1L481.5,601.6L481.5,601.6z M481.5,598.4h-0.8v-1h0.8V598.4z M481.5,594.2h-0.8v-1h0.8V594.2z
			 M481.5,590h-0.8v-1h0.8V590z M481.5,585.8h-0.8v-1h0.8V585.8z M481.5,581.7h-0.8v-1h0.8V581.7z M481.5,577.5h-0.8v-1h0.8V577.5z
			 M481.5,573.3h-0.8v-1h0.8V573.3z M481.5,569.1h-0.8v-1h0.8V569.1z M481.5,565h-0.8v-1h0.8V565z M481.5,560.8h-0.8v-1h0.8V560.8z
			 M481.5,556.6h-0.8v-1h0.8V556.6z M481.5,552.4h-0.8v-1h0.8V552.4z M481.5,548.2h-0.8v-1h0.8V548.2z M481.5,544.1h-0.8v-1h0.8
			V544.1z M481.5,539.9h-0.8v-1h0.8V539.9z M481.5,535.7h-0.8v-1h0.8V535.7z M481.5,531.5h-0.8v-1h0.8V531.5z M481.5,527.4h-0.8v-1
			h0.8V527.4z M481.5,523.2h-0.8v-1h0.8V523.2z M481.5,519h-0.8v-1h0.8V519z M481.5,514.8h-0.8v-1h0.8V514.8z M481.5,510.7h-0.8v-1
			h0.8V510.7z M481.5,506.5h-0.8v-1h0.8V506.5z M481.5,502.3h-0.8v-1h0.8V502.3z M481.5,498.1h-0.8v-1h0.8V498.1z M481.5,493.9h-0.8
			v-1h0.8V493.9z M481.5,489.8h-0.8v-1h0.8V489.8z M481.5,485.6h-0.8v-1h0.8V485.6z M481.5,481.4h-0.8v-1h0.8V481.4z M481.5,477.2
			h-0.8v-1h0.8V477.2z M481.5,473.1h-0.8v-1h0.8V473.1z M481.5,468.9h-0.8v-1h0.8V468.9z M481.5,464.7h-0.8v-1h0.8V464.7z
			 M481.5,460.5h-0.8v-1h0.8V460.5z M481.5,456.4h-0.8v-1h0.8V456.4z M481.5,452.2h-0.8v-1h0.8V452.2z M481.5,448h-0.8v-1h0.8V448z
			 M481.5,443.8h-0.8v-1h0.8V443.8z M481.5,439.6h-0.8v-1h0.8V439.6z M481.5,435.5h-0.8v-1h0.8V435.5z M481.5,431.3h-0.8v-1h0.8
			V431.3z M481.5,427.1h-0.8v-1h0.8V427.1z M481.5,422.9h-0.8v-1h0.8V422.9z M481.5,418.8h-0.8v-1h0.8V418.8z M481.5,414.6h-0.8v-1
			h0.8V414.6z M481.5,410.4h-0.8v-1h0.8V410.4z M481.5,406.2h-0.8v-1h0.8V406.2z M481.5,402.1h-0.8v-1h0.8V402.1z M481.5,397.9h-0.8
			v-1h0.8V397.9z M481.5,393.7h-0.8v-1h0.8V393.7z M481.5,389.5h-0.8v-1h0.8V389.5z M481.5,385.3h-0.8v-1h0.8V385.3z M481.5,381.2
			h-0.8v-1h0.8V381.2z M481.5,377h-0.8v-1h0.8V377z M481.5,372.8h-0.8v-1h0.8V372.8z M481.5,368.6h-0.8v-1h0.8V368.6z M481.5,364.5
			h-0.8v-1h0.8V364.5z M481.5,360.3h-0.8v-1h0.8V360.3z M481.5,356.1h-0.8v-1h0.8V356.1z M481.5,351.9h-0.8v-1h0.8V351.9z
			 M481.5,347.8h-0.8v-1h0.8V347.8z M481.5,343.6h-0.8v-1h0.8V343.6z M481.5,339.4h-0.8v-1h0.8V339.4z M481.5,335.2h-0.8v-1h0.8
			V335.2z M481.5,331h-0.8v-1h0.8V331z M481.5,326.9h-0.8v-1h0.8V326.9z M481.5,322.7h-0.8v-1h0.8V322.7z M481.5,318.5h-0.8v-1h0.8
			V318.5z M481.5,314.3h-0.8v-1h0.8V314.3z M481.5,310.2h-0.8v-1h0.8V310.2z M481.5,306h-0.8v-1h0.8V306z M481.5,301.8h-0.8v-1h0.8
			V301.8z M481.5,297.6h-0.8v-1h0.8V297.6z M481.5,293.5h-0.8v-1h0.8V293.5z M481.5,289.3h-0.8v-1h0.8V289.3z M481.5,285.1h-0.8v-1
			h0.8V285.1z M481.5,280.9h-0.8v-1h0.8V280.9z M481.5,276.7h-0.8v-1h0.8V276.7z M481.5,272.6h-0.8v-1h0.8V272.6z M481.5,268.4h-0.8
			v-1h0.8V268.4z M481.5,264.2h-0.8v-1h0.8V264.2z M481.5,260h-0.8v-1h0.8V260z M481.5,255.9h-0.8v-1h0.8V255.9z M481.5,251.7h-0.8
			v-1h0.8V251.7z M481.5,247.5h-0.8v-1h0.8V247.5z M481.5,243.3h-0.8v-1h0.8V243.3z M481.5,239.2h-0.8v-1h0.8V239.2z M481.5,235
			h-0.8v-1h0.8V235z M481.5,230.8h-0.8v-1h0.8V230.8z M481.5,226.6h-0.8v-1h0.8V226.6z M481.5,222.4h-0.8v-1h0.8V222.4z
			 M481.5,218.3h-0.8v-1h0.8V218.3z M481.5,214.1h-0.8v-1h0.8V214.1z M481.5,209.9h-0.8v-1h0.8V209.9z M481.5,205.7h-0.8v-1h0.8
			V205.7z M481.5,201.6h-0.8v-1h0.8V201.6z M481.5,197.4h-0.8v-1h0.8V197.4z M481.5,193.2h-0.8v-1h0.8V193.2z M481.5,189h-0.8v-1
			h0.8V189z M481.5,184.9h-0.8v-1h0.8V184.9z M481.5,180.7h-0.8v-1h0.8V180.7z M481.5,176.5h-0.8v-1h0.8V176.5z M481.5,172.3h-0.8
			v-1h0.8V172.3z M481.5,168.1h-0.8v-1h0.8V168.1z M481.5,164h-0.8v-1h0.8V164z M481.5,159.8h-0.8v-1h0.8V159.8z M481.5,155.6h-0.8
			v-1h0.8V155.6z M481.5,151.4h-0.8v-1h0.8V151.4z M481.5,147.3h-0.8v-1h0.8V147.3z M481.5,143.1h-0.8v-1h0.8V143.1z M481.5,138.9
			h-0.8v-1h0.8V138.9z M481.5,134.7h-0.8v-1h0.8V134.7z M481.5,130.6h-0.8v-1h0.8V130.6z M481.5,126.4h-0.8v-1h0.8V126.4z
			 M481.5,122.2h-0.8v-1h0.8V122.2z M481.5,118h-0.8v-1h0.8V118z M481.5,113.8h-0.8v-1h0.8V113.8z M481.5,109.7h-0.8v-1h0.8V109.7z
			 M481.5,105.5h-0.8v-1h0.8V105.5z M481.5,101.3h-0.8v-1h0.8V101.3z M481.5,97.1h-0.8v-1h0.8V97.1z M481.5,93h-0.8v-1h0.8V93z
			 M481.5,88.8h-0.8v-1h0.8V88.8z M481.5,84.6h-0.8v-1h0.8V84.6z M481.5,80.4h-0.8v-1h0.8V80.4z M481.5,76.3h-0.8v-1h0.8V76.3z
			 M481.5,72.1h-0.8v-1h0.8V72.1z M481.5,67.9h-0.8v-1h0.8V67.9z M481.5,63.7h-0.8v-1h0.8V63.7z M481.5,59.5h-0.8v-1h0.8V59.5z"/>
		<path d="M17.6,601.6h-0.8v-0.1L17.6,601.6L17.6,601.6z M17.6,598.4h-0.8v-1h0.8V598.4z M17.6,594.2h-0.8v-1h0.8V594.2z M17.6,590
			h-0.8v-1h0.8V590z M17.6,585.8h-0.8v-1h0.8V585.8z M17.6,581.7h-0.8v-1h0.8V581.7z M17.6,577.5h-0.8v-1h0.8V577.5z M17.6,573.3
			h-0.8v-1h0.8V573.3z M17.6,569.1h-0.8v-1h0.8V569.1z M17.6,565h-0.8v-1h0.8V565z M17.6,560.8h-0.8v-1h0.8V560.8z M17.6,556.6h-0.8
			v-1h0.8V556.6z M17.6,552.4h-0.8v-1h0.8V552.4z M17.6,548.2h-0.8v-1h0.8V548.2z M17.6,544.1h-0.8v-1h0.8V544.1z M17.6,539.9h-0.8
			v-1h0.8V539.9z M17.6,535.7h-0.8v-1h0.8V535.7z M17.6,531.5h-0.8v-1h0.8V531.5z M17.6,527.4h-0.8v-1h0.8V527.4z M17.6,523.2h-0.8
			v-1h0.8V523.2z M17.6,519h-0.8v-1h0.8V519z M17.6,514.8h-0.8v-1h0.8V514.8z M17.6,510.7h-0.8v-1h0.8V510.7z M17.6,506.5h-0.8v-1
			h0.8V506.5z M17.6,502.3h-0.8v-1h0.8V502.3z M17.6,498.1h-0.8v-1h0.8V498.1z M17.6,493.9h-0.8v-1h0.8V493.9z M17.6,489.8h-0.8v-1
			h0.8V489.8z M17.6,485.6h-0.8v-1h0.8V485.6z M17.6,481.4h-0.8v-1h0.8V481.4z M17.6,477.2h-0.8v-1h0.8V477.2z M17.6,473.1h-0.8v-1
			h0.8V473.1z M17.6,468.9h-0.8v-1h0.8V468.9z M17.6,464.7h-0.8v-1h0.8V464.7z M17.6,460.5h-0.8v-1h0.8V460.5z M17.6,456.4h-0.8v-1
			h0.8V456.4z M17.6,452.2h-0.8v-1h0.8V452.2z M17.6,448h-0.8v-1h0.8V448z M17.6,443.8h-0.8v-1h0.8V443.8z M17.6,439.6h-0.8v-1h0.8
			V439.6z M17.6,435.5h-0.8v-1h0.8V435.5z M17.6,431.3h-0.8v-1h0.8V431.3z M17.6,427.1h-0.8v-1h0.8V427.1z M17.6,422.9h-0.8v-1h0.8
			V422.9z M17.6,418.8h-0.8v-1h0.8V418.8z M17.6,414.6h-0.8v-1h0.8V414.6z M17.6,410.4h-0.8v-1h0.8V410.4z M17.6,406.2h-0.8v-1h0.8
			V406.2z M17.6,402.1h-0.8v-1h0.8V402.1z M17.6,397.9h-0.8v-1h0.8V397.9z M17.6,393.7h-0.8v-1h0.8V393.7z M17.6,389.5h-0.8v-1h0.8
			V389.5z M17.6,385.3h-0.8v-1h0.8V385.3z M17.6,381.2h-0.8v-1h0.8V381.2z M17.6,377h-0.8v-1h0.8V377z M17.6,372.8h-0.8v-1h0.8
			V372.8z M17.6,368.6h-0.8v-1h0.8V368.6z M17.6,364.5h-0.8v-1h0.8V364.5z M17.6,360.3h-0.8v-1h0.8V360.3z M17.6,356.1h-0.8v-1h0.8
			V356.1z M17.6,351.9h-0.8v-1h0.8V351.9z M17.6,347.8h-0.8v-1h0.8V347.8z M17.6,343.6h-0.8v-1h0.8V343.6z M17.6,339.4h-0.8v-1h0.8
			V339.4z M17.6,335.2h-0.8v-1h0.8V335.2z M17.6,331h-0.8v-1h0.8V331z M17.6,326.9h-0.8v-1h0.8V326.9z M17.6,322.7h-0.8v-1h0.8
			V322.7z M17.6,318.5h-0.8v-1h0.8V318.5z M17.6,314.3h-0.8v-1h0.8V314.3z M17.6,310.2h-0.8v-1h0.8V310.2z M17.6,306h-0.8v-1h0.8
			V306z M17.6,301.8h-0.8v-1h0.8V301.8z M17.6,297.6h-0.8v-1h0.8V297.6z M17.6,293.5h-0.8v-1h0.8V293.5z M17.6,289.3h-0.8v-1h0.8
			V289.3z M17.6,285.1h-0.8v-1h0.8V285.1z M17.6,280.9h-0.8v-1h0.8V280.9z M17.6,276.7h-0.8v-1h0.8V276.7z M17.6,272.6h-0.8v-1h0.8
			V272.6z M17.6,268.4h-0.8v-1h0.8V268.4z M17.6,264.2h-0.8v-1h0.8V264.2z M17.6,260h-0.8v-1h0.8V260z M17.6,255.9h-0.8v-1h0.8
			V255.9z M17.6,251.7h-0.8v-1h0.8V251.7z M17.6,247.5h-0.8v-1h0.8V247.5z M17.6,243.3h-0.8v-1h0.8V243.3z M17.6,239.2h-0.8v-1h0.8
			V239.2z M17.6,235h-0.8v-1h0.8V235z M17.6,230.8h-0.8v-1h0.8V230.8z M17.6,226.6h-0.8v-1h0.8V226.6z M17.6,222.4h-0.8v-1h0.8
			V222.4z M17.6,218.3h-0.8v-1h0.8V218.3z M17.6,214.1h-0.8v-1h0.8V214.1z M17.6,209.9h-0.8v-1h0.8V209.9z M17.6,205.7h-0.8v-1h0.8
			V205.7z M17.6,201.6h-0.8v-1h0.8V201.6z M17.6,197.4h-0.8v-1h0.8V197.4z M17.6,193.2h-0.8v-1h0.8V193.2z M17.6,189h-0.8v-1h0.8
			V189z M17.6,184.9h-0.8v-1h0.8V184.9z M17.6,180.7h-0.8v-1h0.8V180.7z M17.6,176.5h-0.8v-1h0.8V176.5z M17.6,172.3h-0.8v-1h0.8
			V172.3z M17.6,168.1h-0.8v-1h0.8V168.1z M17.6,164h-0.8v-1h0.8V164z M17.6,159.8h-0.8v-1h0.8V159.8z M17.6,155.6h-0.8v-1h0.8
			V155.6z M17.6,151.4h-0.8v-1h0.8V151.4z M17.6,147.3h-0.8v-1h0.8V147.3z M17.6,143.1h-0.8v-1h0.8V143.1z M17.6,138.9h-0.8v-1h0.8
			V138.9z M17.6,134.7h-0.8v-1h0.8V134.7z M17.6,130.6h-0.8v-1h0.8V130.6z M17.6,126.4h-0.8v-1h0.8V126.4z M17.6,122.2h-0.8v-1h0.8
			V122.2z M17.6,118h-0.8v-1h0.8V118z M17.6,113.8h-0.8v-1h0.8V113.8z M17.6,109.7h-0.8v-1h0.8V109.7z M17.6,105.5h-0.8v-1h0.8
			V105.5z M17.6,101.3h-0.8v-1h0.8V101.3z M17.6,97.1h-0.8v-1h0.8V97.1z M17.6,93h-0.8v-1h0.8V93z M17.6,88.8h-0.8v-1h0.8V88.8z
			 M17.6,84.6h-0.8v-1h0.8V84.6z M17.6,80.4h-0.8v-1h0.8V80.4z M17.6,76.3h-0.8v-1h0.8V76.3z M17.6,72.1h-0.8v-1h0.8V72.1z
			 M17.6,67.9h-0.8v-1h0.8V67.9z M17.6,63.7h-0.8v-1h0.8V63.7z M17.6,59.5h-0.8v-1h0.8V59.5z"/>
	</g>
</g>
<g>
	<g>
		<path d="M18.7,538.5c-0.8-0.5-1.4-1.2-1.8-2.1c-0.4-0.9-0.6-2-0.6-3.2c0-1.9,0.5-3.4,1.4-4.4c0.9-1.1,2.3-1.6,4.2-1.6
			c1.7,0,3,0.5,3.9,1.6c0.9,1,1.3,2.5,1.3,4.5c0,1.3-0.2,2.5-0.6,3.4c-0.4,0.9-0.9,1.6-1.7,2c-0.8,0.4-1.7,0.7-2.9,0.7
			C20.5,539.3,19.5,539,18.7,538.5z M19.2,544.1c-0.8-0.3-1.5-0.8-1.9-1.5s-0.7-1.4-0.8-2.3h1.9c0,0.5,0.2,1,0.5,1.5s0.7,0.8,1.2,1
			c0.6,0.2,1.3,0.3,2.1,0.3c1,0,1.7-0.1,2.3-0.4c0.6-0.2,1-0.6,1.3-1.1s0.4-1.2,0.4-2.1v-12h1.9v12c0,1.1-0.2,2-0.6,2.8
			c-0.4,0.7-1,1.3-1.9,1.7c-0.9,0.4-2,0.6-3.4,0.6C21,544.6,20,544.4,19.2,544.1z M24.4,537.3c0.6-0.3,1-0.8,1.4-1.5
			s0.5-1.5,0.5-2.6c0-1.1-0.2-1.9-0.5-2.6s-0.8-1.2-1.4-1.5c-0.6-0.3-1.3-0.5-2.2-0.5c-0.9,0-1.7,0.2-2.3,0.5
			c-0.6,0.3-1,0.8-1.3,1.5c-0.3,0.7-0.4,1.5-0.4,2.6c0,1.1,0.1,1.9,0.4,2.6s0.7,1.2,1.3,1.5c0.6,0.3,1.3,0.5,2.3,0.5
			C23.1,537.8,23.8,537.6,24.4,537.3z"/>
		<path d="M33.3,539.1c-0.9-0.6-1.5-1.3-2-2.3c-0.4-1-0.6-2.1-0.6-3.3c0-1.2,0.2-2.3,0.7-3.3c0.4-1,1.1-1.7,2-2.3
			c0.9-0.6,2-0.8,3.3-0.8c1.2,0,2.2,0.3,3,0.8s1.5,1.2,1.9,2.1c0.4,0.9,0.7,1.9,0.7,3.1v0.3c0,0.1,0,0.3,0,0.5H32.2v-1.4h9l-0.8,0.9
			c0-1.1-0.1-2-0.3-2.7c-0.3-0.7-0.7-1.2-1.3-1.6c-0.6-0.3-1.3-0.5-2.1-0.5c-0.9,0-1.6,0.2-2.2,0.5c-0.6,0.3-1.1,0.9-1.4,1.6
			c-0.3,0.7-0.5,1.7-0.5,2.8s0.2,2.1,0.5,2.9c0.3,0.7,0.8,1.3,1.4,1.6c0.6,0.3,1.3,0.5,2.2,0.5c0.8,0,1.4-0.1,1.9-0.3
			s0.9-0.5,1.2-0.9c0.3-0.4,0.5-0.9,0.6-1.4h1.8c-0.1,0.7-0.3,1.3-0.7,2c-0.4,0.6-1,1.1-1.8,1.5c-0.8,0.4-1.8,0.6-3.1,0.6
			C35.3,539.9,34.2,539.7,33.3,539.1z"/>
		<path d="M44.7,527.5h1.9v12h-1.9V527.5z M46.5,530.8c0.4-1.2,0.9-2.1,1.7-2.7c0.8-0.6,1.8-1,3-1c1,0,1.8,0.2,2.4,0.5
			c0.6,0.4,1.1,0.9,1.4,1.6c0.3,0.7,0.4,1.6,0.4,2.6v7.7h-1.9v-7.4c0-0.8-0.1-1.5-0.3-2c-0.2-0.5-0.5-0.8-1-1s-0.9-0.3-1.6-0.3
			c-0.9,0-1.6,0.2-2.2,0.7c-0.6,0.5-1.1,1.1-1.4,2.1c-0.3,0.9-0.5,2.1-0.5,3.4H46C46,533.4,46.2,532,46.5,530.8z"/>
	</g>
</g>
<g>
	<g>
		<path d="M91.5,527.5h1.9v12h-1.9V527.5z M99.6,530.1c-0.2-0.5-0.5-0.8-0.9-1s-0.9-0.3-1.5-0.3c-0.8,0-1.6,0.2-2.1,0.7
			s-1,1.1-1.2,2.1s-0.4,2.1-0.4,3.5h-0.6v-0.5c0-1.5,0.2-2.8,0.6-3.9c0.3-1.1,0.9-1.9,1.6-2.5c0.7-0.6,1.7-0.9,2.8-0.9
			c0.9,0,1.7,0.2,2.3,0.5c0.6,0.4,1,0.9,1.3,1.5c0.3,0.7,0.4,1.5,0.4,2.6v7.7H100V532C100,531.2,99.9,530.6,99.6,530.1z M108,530.1
			c-0.2-0.5-0.5-0.8-0.9-1c-0.4-0.2-0.9-0.3-1.5-0.3c-0.9,0-1.6,0.2-2.1,0.7c-0.6,0.5-1,1.1-1.2,2.1c-0.3,0.9-0.4,2.1-0.4,3.5h-0.7
			c0-1.6,0.2-3,0.5-4.2c0.3-1.2,0.9-2,1.6-2.7c0.7-0.6,1.7-1,3-1c0.9,0,1.7,0.2,2.3,0.5c0.6,0.4,1,0.9,1.3,1.6
			c0.3,0.7,0.4,1.5,0.4,2.6v7.7h-1.9V532C108.4,531.2,108.3,530.6,108,530.1z"/>
		<path d="M114.6,539.5c-0.6-0.3-1.1-0.7-1.4-1.2s-0.5-1.2-0.5-1.9c0-0.7,0.1-1.2,0.4-1.7s0.6-0.9,1.2-1.2c0.5-0.3,1.2-0.5,2.1-0.7
			l3-0.5c0.6-0.1,1.1-0.3,1.4-0.5s0.4-0.5,0.4-1c0-0.4-0.1-0.8-0.3-1.1c-0.2-0.3-0.5-0.6-0.9-0.7c-0.4-0.2-1-0.3-1.8-0.3
			c-1.1,0-1.9,0.2-2.5,0.7c-0.5,0.5-0.8,1.1-0.9,2H113c0-0.8,0.2-1.6,0.6-2.2c0.4-0.6,1-1.1,1.8-1.5c0.8-0.3,1.7-0.5,2.8-0.5
			c1.1,0,1.9,0.2,2.7,0.5c0.7,0.3,1.2,0.7,1.6,1.3s0.5,1.2,0.5,1.9v5.8c0,0.4,0,0.9,0,1.4c0,0.5,0.1,1,0.1,1.6h-1.7
			c-0.1-0.5-0.1-1-0.1-1.5c0-0.5,0-0.9,0-1.4c-0.2,0.5-0.4,1-0.8,1.5c-0.4,0.5-0.9,0.8-1.5,1.2c-0.6,0.3-1.4,0.5-2.2,0.5
			C115.9,539.9,115.2,539.7,114.6,539.5z M119.4,537.7c0.6-0.4,1.1-1,1.4-1.7c0.3-0.7,0.5-1.4,0.5-2.2v-1c-0.3,0.2-0.5,0.3-0.8,0.4
			c-0.3,0.1-0.6,0.2-1,0.3l-0.3,0.1l-2,0.4c-0.8,0.2-1.4,0.4-1.8,0.8c-0.4,0.4-0.6,0.8-0.6,1.5c0,0.7,0.2,1.2,0.6,1.5
			c0.4,0.4,1,0.5,1.7,0.5C118,538.3,118.7,538.1,119.4,537.7z"/>
		<path d="M126.1,527.5h1.9v3.8l0,0.4v7.8h-1.9V527.5z M127.8,531.1c0.3-1.2,0.9-2.1,1.6-2.7c0.7-0.7,1.7-1,2.9-1h0.4v1.9h-0.5
			c-1.1,0-2,0.2-2.7,0.7c-0.6,0.5-1.1,1.2-1.3,2c-0.2,0.9-0.3,1.9-0.3,3.2h-0.7C127.3,533.6,127.5,532.3,127.8,531.1z"/>
	</g>
</g>
<g>
	<g>
		<path d="M165.9,527.5h1.9v12h-1.9V527.5z M174,530.1c-0.2-0.5-0.5-0.8-0.9-1s-0.9-0.3-1.5-0.3c-0.8,0-1.6,0.2-2.1,0.7
			s-1,1.1-1.2,2.1s-0.4,2.1-0.4,3.5h-0.6v-0.5c0-1.5,0.2-2.8,0.6-3.9c0.3-1.1,0.9-1.9,1.6-2.5c0.7-0.6,1.7-0.9,2.8-0.9
			c0.9,0,1.7,0.2,2.3,0.5c0.6,0.4,1,0.9,1.3,1.5c0.3,0.7,0.4,1.5,0.4,2.6v7.7h-1.9V532C174.3,531.2,174.2,530.6,174,530.1z
			 M182.4,530.1c-0.2-0.5-0.5-0.8-0.9-1c-0.4-0.2-0.9-0.3-1.5-0.3c-0.9,0-1.6,0.2-2.1,0.7c-0.6,0.5-1,1.1-1.2,2.1
			c-0.3,0.9-0.4,2.1-0.4,3.5h-0.7c0-1.6,0.2-3,0.5-4.2c0.3-1.2,0.9-2,1.6-2.7c0.7-0.6,1.7-1,3-1c0.9,0,1.7,0.2,2.3,0.5
			c0.6,0.4,1,0.9,1.3,1.6c0.3,0.7,0.4,1.5,0.4,2.6v7.7h-1.9V532C182.7,531.2,182.6,530.6,182.4,530.1z"/>
		<path d="M188.9,539.5c-0.6-0.3-1.1-0.7-1.4-1.2s-0.5-1.2-0.5-1.9c0-0.7,0.1-1.2,0.4-1.7s0.6-0.9,1.2-1.2c0.5-0.3,1.2-0.5,2.1-0.7
			l3-0.5c0.6-0.1,1.1-0.3,1.4-0.5s0.4-0.5,0.4-1c0-0.4-0.1-0.8-0.3-1.1c-0.2-0.3-0.5-0.6-0.9-0.7c-0.4-0.2-1-0.3-1.8-0.3
			c-1.1,0-1.9,0.2-2.5,0.7c-0.5,0.5-0.8,1.1-0.9,2h-1.9c0-0.8,0.2-1.6,0.6-2.2c0.4-0.6,1-1.1,1.8-1.5c0.8-0.3,1.7-0.5,2.8-0.5
			c1.1,0,1.9,0.2,2.7,0.5c0.7,0.3,1.2,0.7,1.6,1.3s0.5,1.2,0.5,1.9v5.8c0,0.4,0,0.9,0,1.4c0,0.5,0.1,1,0.1,1.6h-1.7
			c-0.1-0.5-0.1-1-0.1-1.5c0-0.5,0-0.9,0-1.4c-0.2,0.5-0.4,1-0.8,1.5c-0.4,0.5-0.9,0.8-1.5,1.2c-0.6,0.3-1.4,0.5-2.2,0.5
			C190.2,539.9,189.5,539.7,188.9,539.5z M193.7,537.7c0.6-0.4,1.1-1,1.4-1.7c0.3-0.7,0.5-1.4,0.5-2.2v-1c-0.3,0.2-0.5,0.3-0.8,0.4
			c-0.3,0.1-0.6,0.2-1,0.3l-0.3,0.1l-2,0.4c-0.8,0.2-1.4,0.4-1.8,0.8c-0.4,0.4-0.6,0.8-0.6,1.5c0,0.7,0.2,1.2,0.6,1.5
			c0.4,0.4,1,0.5,1.7,0.5C192.3,538.3,193,538.1,193.7,537.7z"/>
		<path d="M202,538.5c-0.8-0.5-1.4-1.2-1.8-2.1c-0.4-0.9-0.6-2-0.6-3.2c0-1.9,0.5-3.4,1.4-4.4c0.9-1.1,2.3-1.6,4.2-1.6
			c1.7,0,3,0.5,3.9,1.6c0.9,1,1.3,2.5,1.3,4.5c0,1.3-0.2,2.5-0.6,3.4c-0.4,0.9-0.9,1.6-1.7,2c-0.8,0.4-1.7,0.7-2.9,0.7
			C203.9,539.3,202.8,539,202,538.5z M202.5,544.1c-0.8-0.3-1.5-0.8-1.9-1.5s-0.7-1.4-0.8-2.3h1.9c0,0.5,0.2,1,0.5,1.5
			s0.7,0.8,1.2,1c0.6,0.2,1.3,0.3,2.1,0.3c1,0,1.7-0.1,2.3-0.4c0.6-0.2,1-0.6,1.3-1.1s0.4-1.2,0.4-2.1v-12h1.9v12
			c0,1.1-0.2,2-0.6,2.8c-0.4,0.7-1,1.3-1.9,1.7c-0.9,0.4-2,0.6-3.4,0.6C204.4,544.6,203.4,544.4,202.5,544.1z M207.7,537.3
			c0.6-0.3,1-0.8,1.4-1.5s0.5-1.5,0.5-2.6c0-1.1-0.2-1.9-0.5-2.6s-0.8-1.2-1.4-1.5c-0.6-0.3-1.3-0.5-2.2-0.5c-0.9,0-1.7,0.2-2.3,0.5
			c-0.6,0.3-1,0.8-1.3,1.5c-0.3,0.7-0.4,1.5-0.4,2.6c0,1.1,0.1,1.9,0.4,2.6s0.7,1.2,1.3,1.5c0.6,0.3,1.3,0.5,2.3,0.5
			C206.4,537.8,207.1,537.6,207.7,537.3z"/>
	</g>
</g>
<g>
	<g>
		<path d="M251,522.7h1.9v16.8H251V522.7z"/>
		<path d="M258,539.4c-0.6-0.4-1.1-0.9-1.4-1.6c-0.3-0.7-0.5-1.6-0.5-2.6v-7.7h1.9v7.4c0,0.9,0.1,1.5,0.3,2c0.2,0.5,0.6,0.8,1,1
			c0.4,0.2,1,0.3,1.6,0.3c0.8,0,1.5-0.2,2.1-0.7c0.6-0.5,1-1.2,1.3-2.1c0.3-0.9,0.5-2.1,0.5-3.4h0.6c0,1.6-0.2,3-0.5,4.1
			c-0.3,1.2-0.9,2.1-1.6,2.7s-1.7,1-2.9,1C259.5,539.9,258.7,539.8,258,539.4z M265,535.8v-0.3v-8h1.9v12H265V535.8z"/>
		<path d="M272,538.5c-0.8-0.5-1.4-1.2-1.8-2.1c-0.4-0.9-0.6-2-0.6-3.2c0-1.9,0.5-3.4,1.4-4.4c0.9-1.1,2.3-1.6,4.2-1.6
			c1.7,0,3,0.5,3.9,1.6c0.9,1,1.3,2.5,1.3,4.5c0,1.3-0.2,2.5-0.6,3.4c-0.4,0.9-0.9,1.6-1.7,2c-0.8,0.4-1.7,0.7-2.9,0.7
			C273.8,539.3,272.8,539,272,538.5z M272.5,544.1c-0.8-0.3-1.5-0.8-1.9-1.5s-0.7-1.4-0.8-2.3h1.9c0,0.5,0.2,1,0.5,1.5
			s0.7,0.8,1.2,1c0.6,0.2,1.3,0.3,2.1,0.3c1,0,1.7-0.1,2.3-0.4c0.6-0.2,1-0.6,1.3-1.1s0.4-1.2,0.4-2.1v-12h1.9v12
			c0,1.1-0.2,2-0.6,2.8c-0.4,0.7-1,1.3-1.9,1.7c-0.9,0.4-2,0.6-3.4,0.6C274.3,544.6,273.3,544.4,272.5,544.1z M277.7,537.3
			c0.6-0.3,1-0.8,1.4-1.5s0.5-1.5,0.5-2.6c0-1.1-0.2-1.9-0.5-2.6s-0.8-1.2-1.4-1.5c-0.6-0.3-1.3-0.5-2.2-0.5c-0.9,0-1.7,0.2-2.3,0.5
			c-0.6,0.3-1,0.8-1.3,1.5c-0.3,0.7-0.4,1.5-0.4,2.6c0,1.1,0.1,1.9,0.4,2.6s0.7,1.2,1.3,1.5c0.6,0.3,1.3,0.5,2.3,0.5
			C276.4,537.8,277.1,537.6,277.7,537.3z"/>
	</g>
</g>
<g>
	<g>
		<path d="M330.7,537.1c0.3,0.4,0.7,0.8,1.2,1c0.6,0.2,1.3,0.4,2.1,0.4c0.7,0,1.3-0.1,1.7-0.2c0.4-0.2,0.8-0.4,1-0.7
			c0.2-0.3,0.3-0.7,0.3-1.2c0-0.6-0.2-1-0.5-1.3c-0.4-0.3-0.9-0.5-1.7-0.6L332,534c-1.1-0.1-1.9-0.5-2.4-1c-0.6-0.6-0.8-1.3-0.8-2.2
			c0-1.1,0.4-2,1.3-2.6c0.8-0.6,2-1,3.5-1c1,0,1.9,0.2,2.7,0.5s1.3,0.8,1.7,1.4c0.4,0.6,0.6,1.3,0.7,2h-1.9
			c-0.1-0.7-0.4-1.3-0.9-1.7c-0.5-0.4-1.3-0.7-2.3-0.7c-1,0-1.7,0.2-2.2,0.5c-0.5,0.4-0.7,0.8-0.7,1.5c0,0.5,0.1,0.9,0.4,1.2
			c0.3,0.3,0.8,0.5,1.5,0.6l2.6,0.4c1.3,0.2,2.3,0.6,2.9,1.2c0.6,0.6,0.9,1.4,0.9,2.4c0,1.2-0.4,2.1-1.2,2.7c-0.8,0.6-2,0.9-3.6,0.9
			c-1.3,0-2.3-0.2-3.1-0.6c-0.8-0.4-1.4-0.9-1.8-1.5c-0.4-0.7-0.6-1.4-0.6-2.3h1.8C330.3,536.1,330.4,536.6,330.7,537.1z"/>
		<path d="M343.2,539.1c-0.9-0.6-1.5-1.3-2-2.3c-0.4-1-0.6-2.1-0.6-3.3c0-1.2,0.2-2.3,0.7-3.3c0.4-1,1.1-1.7,2-2.3
			c0.9-0.6,2-0.8,3.3-0.8c1.2,0,2.2,0.3,3,0.8s1.5,1.2,1.9,2.1c0.4,0.9,0.7,1.9,0.7,3.1v0.3c0,0.1,0,0.3,0,0.5h-10.1v-1.4h9
			l-0.8,0.9c0-1.1-0.1-2-0.3-2.7c-0.3-0.7-0.7-1.2-1.3-1.6c-0.6-0.3-1.3-0.5-2.1-0.5c-0.9,0-1.6,0.2-2.2,0.5
			c-0.6,0.3-1.1,0.9-1.4,1.6c-0.3,0.7-0.5,1.7-0.5,2.8s0.2,2.1,0.5,2.9c0.3,0.7,0.8,1.3,1.4,1.6c0.6,0.3,1.3,0.5,2.2,0.5
			c0.8,0,1.4-0.1,1.9-0.3s0.9-0.5,1.2-0.9c0.3-0.4,0.5-0.9,0.6-1.4h1.8c-0.1,0.7-0.3,1.3-0.7,2c-0.4,0.6-1,1.1-1.8,1.5
			c-0.8,0.4-1.8,0.6-3.1,0.6C345.2,539.9,344.1,539.7,343.2,539.1z"/>
		<path d="M356.4,539.2c-0.4-0.2-0.7-0.5-0.9-0.9c-0.2-0.4-0.3-0.9-0.3-1.6v-7.7H353V528l2.5-0.6l0.7-2.5h1v2.7h4v1.5h-4v8.9h3.8
			v1.6h-2.8C357.4,539.5,356.9,539.4,356.4,539.2z"/>
	</g>
</g>
<g>
	<g>
		<path d="M404,527.5h1.9v12H404V527.5z M405.9,530.8c0.4-1.2,0.9-2.1,1.7-2.7c0.8-0.6,1.8-1,3-1c1,0,1.8,0.2,2.4,0.5
			c0.6,0.4,1.1,0.9,1.4,1.6c0.3,0.7,0.4,1.6,0.4,2.6v7.7h-1.9v-7.4c0-0.8-0.1-1.5-0.3-2c-0.2-0.5-0.5-0.8-1-1s-0.9-0.3-1.6-0.3
			c-0.9,0-1.6,0.2-2.2,0.7c-0.6,0.5-1.1,1.1-1.4,2.1c-0.3,0.9-0.5,2.1-0.5,3.4h-0.6C405.3,533.4,405.5,532,405.9,530.8z"/>
		<path d="M419.9,539.1c-0.9-0.6-1.6-1.3-2-2.3s-0.7-2.1-0.7-3.3c0-1.2,0.2-2.3,0.7-3.3s1.1-1.7,2-2.3c0.9-0.6,2-0.8,3.3-0.8
			c1.3,0,2.4,0.3,3.3,0.8c0.9,0.6,1.6,1.3,2,2.3c0.4,1,0.7,2,0.7,3.3c0,1.2-0.2,2.3-0.7,3.3c-0.4,1-1.1,1.7-2,2.3
			c-0.9,0.6-2,0.8-3.3,0.8C421.9,539.9,420.8,539.7,419.9,539.1z M419.5,536.3c0.3,0.7,0.8,1.2,1.4,1.6c0.6,0.3,1.4,0.5,2.3,0.5
			c0.9,0,1.7-0.2,2.3-0.5c0.6-0.3,1.1-0.9,1.4-1.6c0.3-0.7,0.5-1.6,0.5-2.7c0-1.1-0.2-2-0.5-2.7c-0.3-0.7-0.8-1.2-1.4-1.6
			c-0.6-0.3-1.4-0.5-2.3-0.5c-0.9,0-1.7,0.2-2.3,0.5c-0.6,0.3-1.1,0.9-1.4,1.6c-0.3,0.7-0.5,1.6-0.5,2.7
			C419.1,534.6,419.2,535.6,419.5,536.3z"/>
		<path d="M432.3,527.5l4.4,11.4H436l4.5-11.4h1.9l-4.7,12h-2.5l-4.7-12H432.3z"/>
	</g>
</g>
<g>
	<g>
		<path d="M483.9,538.5c-0.8-0.5-1.4-1.2-1.8-2.1c-0.4-0.9-0.6-2-0.6-3.2c0-1.9,0.5-3.4,1.4-4.4c0.9-1.1,2.3-1.6,4.2-1.6
			c1.7,0,3,0.5,3.9,1.6c0.9,1,1.3,2.5,1.3,4.5c0,1.3-0.2,2.5-0.6,3.4c-0.4,0.9-0.9,1.6-1.7,2c-0.8,0.4-1.7,0.7-2.9,0.7
			C485.7,539.3,484.7,539,483.9,538.5z M484.4,544.1c-0.8-0.3-1.5-0.8-1.9-1.5s-0.7-1.4-0.8-2.3h1.9c0,0.5,0.2,1,0.5,1.5
			s0.7,0.8,1.2,1c0.6,0.2,1.3,0.3,2.1,0.3c1,0,1.7-0.1,2.3-0.4c0.6-0.2,1-0.6,1.3-1.1s0.4-1.2,0.4-2.1v-12h1.9v12
			c0,1.1-0.2,2-0.6,2.8c-0.4,0.7-1,1.3-1.9,1.7c-0.9,0.4-2,0.6-3.4,0.6C486.2,544.6,485.2,544.4,484.4,544.1z M489.6,537.3
			c0.6-0.3,1-0.8,1.4-1.5s0.5-1.5,0.5-2.6c0-1.1-0.2-1.9-0.5-2.6s-0.8-1.2-1.4-1.5c-0.6-0.3-1.3-0.5-2.2-0.5c-0.9,0-1.7,0.2-2.3,0.5
			c-0.6,0.3-1,0.8-1.3,1.5c-0.3,0.7-0.4,1.5-0.4,2.6c0,1.1,0.1,1.9,0.4,2.6s0.7,1.2,1.3,1.5c0.6,0.3,1.3,0.5,2.3,0.5
			C488.3,537.8,489,537.6,489.6,537.3z"/>
		<path d="M498.5,539.1c-0.9-0.6-1.5-1.3-2-2.3c-0.4-1-0.6-2.1-0.6-3.3c0-1.2,0.2-2.3,0.7-3.3c0.4-1,1.1-1.7,2-2.3
			c0.9-0.6,2-0.8,3.3-0.8c1.2,0,2.2,0.3,3,0.8s1.5,1.2,1.9,2.1c0.4,0.9,0.7,1.9,0.7,3.1v0.3c0,0.1,0,0.3,0,0.5h-10.1v-1.4h9
			l-0.8,0.9c0-1.1-0.1-2-0.3-2.7c-0.3-0.7-0.7-1.2-1.3-1.6c-0.6-0.3-1.3-0.5-2.1-0.5c-0.9,0-1.6,0.2-2.2,0.5
			c-0.6,0.3-1.1,0.9-1.4,1.6c-0.3,0.7-0.5,1.7-0.5,2.8s0.2,2.1,0.5,2.9c0.3,0.7,0.8,1.3,1.4,1.6c0.6,0.3,1.3,0.5,2.2,0.5
			c0.8,0,1.4-0.1,1.9-0.3s0.9-0.5,1.2-0.9c0.3-0.4,0.5-0.9,0.6-1.4h1.8c-0.1,0.7-0.3,1.3-0.7,2c-0.4,0.6-1,1.1-1.8,1.5
			c-0.8,0.4-1.8,0.6-3.1,0.6C500.5,539.9,499.4,539.7,498.5,539.1z"/>
		<path d="M509.9,527.5h1.9v12h-1.9V527.5z M511.7,530.8c0.4-1.2,0.9-2.1,1.7-2.7c0.8-0.6,1.8-1,3-1c1,0,1.8,0.2,2.4,0.5
			c0.6,0.4,1.1,0.9,1.4,1.6c0.3,0.7,0.4,1.6,0.4,2.6v7.7h-1.9v-7.4c0-0.8-0.1-1.5-0.3-2c-0.2-0.5-0.5-0.8-1-1s-0.9-0.3-1.6-0.3
			c-0.9,0-1.6,0.2-2.2,0.7c-0.6,0.5-1.1,1.1-1.4,2.1c-0.3,0.9-0.5,2.1-0.5,3.4h-0.6C511.2,533.4,511.4,532,511.7,530.8z"/>
	</g>
</g>
<g>
	<g>
		<path d="M556.7,527.5h1.9v12h-1.9V527.5z M564.8,530.1c-0.2-0.5-0.5-0.8-0.9-1s-0.9-0.3-1.5-0.3c-0.8,0-1.6,0.2-2.1,0.7
			s-1,1.1-1.2,2.1s-0.4,2.1-0.4,3.5H558v-0.5c0-1.5,0.2-2.8,0.6-3.9c0.3-1.1,0.9-1.9,1.6-2.5c0.7-0.6,1.7-0.9,2.8-0.9
			c0.9,0,1.7,0.2,2.3,0.5c0.6,0.4,1,0.9,1.3,1.5c0.3,0.7,0.4,1.5,0.4,2.6v7.7h-1.9V532C565.2,531.2,565.1,530.6,564.8,530.1z
			 M573.2,530.1c-0.2-0.5-0.5-0.8-0.9-1c-0.4-0.2-0.9-0.3-1.5-0.3c-0.9,0-1.6,0.2-2.1,0.7c-0.6,0.5-1,1.1-1.2,2.1
			c-0.3,0.9-0.4,2.1-0.4,3.5h-0.7c0-1.6,0.2-3,0.5-4.2c0.3-1.2,0.9-2,1.6-2.7c0.7-0.6,1.7-1,3-1c0.9,0,1.7,0.2,2.3,0.5
			c0.6,0.4,1,0.9,1.3,1.6c0.3,0.7,0.4,1.5,0.4,2.6v7.7h-1.9V532C573.6,531.2,573.5,530.6,573.2,530.1z"/>
		<path d="M579.8,539.5c-0.6-0.3-1.1-0.7-1.4-1.2s-0.5-1.2-0.5-1.9c0-0.7,0.1-1.2,0.4-1.7s0.6-0.9,1.2-1.2c0.5-0.3,1.2-0.5,2.1-0.7
			l3-0.5c0.6-0.1,1.1-0.3,1.4-0.5s0.4-0.5,0.4-1c0-0.4-0.1-0.8-0.3-1.1c-0.2-0.3-0.5-0.6-0.9-0.7c-0.4-0.2-1-0.3-1.8-0.3
			c-1.1,0-1.9,0.2-2.5,0.7c-0.5,0.5-0.8,1.1-0.9,2h-1.9c0-0.8,0.2-1.6,0.6-2.2c0.4-0.6,1-1.1,1.8-1.5c0.8-0.3,1.7-0.5,2.8-0.5
			c1.1,0,1.9,0.2,2.7,0.5c0.7,0.3,1.2,0.7,1.6,1.3s0.5,1.2,0.5,1.9v5.8c0,0.4,0,0.9,0,1.4c0,0.5,0.1,1,0.1,1.6h-1.7
			c-0.1-0.5-0.1-1-0.1-1.5c0-0.5,0-0.9,0-1.4c-0.2,0.5-0.4,1-0.8,1.5c-0.4,0.5-0.9,0.8-1.5,1.2c-0.6,0.3-1.4,0.5-2.2,0.5
			C581.1,539.9,580.4,539.7,579.8,539.5z M584.6,537.7c0.6-0.4,1.1-1,1.4-1.7c0.3-0.7,0.5-1.4,0.5-2.2v-1c-0.3,0.2-0.5,0.3-0.8,0.4
			c-0.3,0.1-0.6,0.2-1,0.3l-0.3,0.1l-2,0.4c-0.8,0.2-1.4,0.4-1.8,0.8c-0.4,0.4-0.6,0.8-0.6,1.5c0,0.7,0.2,1.2,0.6,1.5
			c0.4,0.4,1,0.5,1.7,0.5C583.2,538.3,583.9,538.1,584.6,537.7z"/>
		<path d="M591.3,527.5h1.9v3.8l0,0.4v7.8h-1.9V527.5z M593,531.1c0.3-1.2,0.9-2.1,1.6-2.7c0.7-0.7,1.7-1,2.9-1h0.4v1.9h-0.5
			c-1.1,0-2,0.2-2.7,0.7c-0.6,0.5-1.1,1.2-1.3,2c-0.2,0.9-0.3,1.9-0.3,3.2h-0.7C592.5,533.6,592.7,532.3,593,531.1z"/>
	</g>
</g>
<g>
	<g>
		<path d="M631.1,527.5h1.9v12h-1.9V527.5z M639.2,530.1c-0.2-0.5-0.5-0.8-0.9-1s-0.9-0.3-1.5-0.3c-0.8,0-1.6,0.2-2.1,0.7
			c-0.6,0.5-1,1.1-1.2,2.1c-0.3,0.9-0.4,2.1-0.4,3.5h-0.6v-0.5c0-1.5,0.2-2.8,0.6-3.9c0.3-1.1,0.9-1.9,1.6-2.5
			c0.7-0.6,1.7-0.9,2.8-0.9c0.9,0,1.7,0.2,2.3,0.5c0.6,0.4,1,0.9,1.3,1.5c0.3,0.7,0.4,1.5,0.4,2.6v7.7h-1.9V532
			C639.5,531.2,639.4,530.6,639.2,530.1z M647.6,530.1c-0.2-0.5-0.5-0.8-0.9-1c-0.4-0.2-0.9-0.3-1.5-0.3c-0.9,0-1.6,0.2-2.1,0.7
			c-0.6,0.5-1,1.1-1.2,2.1s-0.4,2.1-0.4,3.5h-0.7c0-1.6,0.2-3,0.5-4.2c0.3-1.2,0.9-2,1.6-2.7s1.7-1,3-1c0.9,0,1.7,0.2,2.3,0.5
			c0.6,0.4,1,0.9,1.3,1.6c0.3,0.7,0.4,1.5,0.4,2.6v7.7h-1.9V532C647.9,531.2,647.8,530.6,647.6,530.1z"/>
		<path d="M654.1,539.5c-0.6-0.3-1.1-0.7-1.4-1.2s-0.5-1.2-0.5-1.9c0-0.7,0.1-1.2,0.4-1.7s0.6-0.9,1.2-1.2c0.5-0.3,1.2-0.5,2.1-0.7
			l3-0.5c0.6-0.1,1.1-0.3,1.4-0.5c0.3-0.2,0.4-0.5,0.4-1c0-0.4-0.1-0.8-0.3-1.1c-0.2-0.3-0.5-0.6-0.9-0.7c-0.4-0.2-1-0.3-1.8-0.3
			c-1.1,0-1.9,0.2-2.5,0.7c-0.5,0.5-0.8,1.1-0.9,2h-1.9c0-0.8,0.2-1.6,0.6-2.2s1-1.1,1.8-1.5c0.8-0.3,1.7-0.5,2.8-0.5
			c1.1,0,1.9,0.2,2.7,0.5c0.7,0.3,1.2,0.7,1.6,1.3s0.5,1.2,0.5,1.9v5.8c0,0.4,0,0.9,0,1.4c0,0.5,0.1,1,0.1,1.6h-1.7
			c-0.1-0.5-0.1-1-0.1-1.5c0-0.5,0-0.9,0-1.4c-0.2,0.5-0.4,1-0.8,1.5s-0.9,0.8-1.5,1.2c-0.6,0.3-1.4,0.5-2.2,0.5
			C655.4,539.9,654.7,539.7,654.1,539.5z M658.9,537.7c0.6-0.4,1.1-1,1.4-1.7c0.3-0.7,0.5-1.4,0.5-2.2v-1c-0.3,0.2-0.5,0.3-0.8,0.4
			s-0.6,0.2-1,0.3l-0.3,0.1l-2,0.4c-0.8,0.2-1.4,0.4-1.8,0.8c-0.4,0.4-0.6,0.8-0.6,1.5c0,0.7,0.2,1.2,0.6,1.5c0.4,0.4,1,0.5,1.7,0.5
			C657.5,538.3,658.2,538.1,658.9,537.7z"/>
		<path d="M667.2,538.5c-0.8-0.5-1.4-1.2-1.8-2.1c-0.4-0.9-0.6-2-0.6-3.2c0-1.9,0.5-3.4,1.4-4.4c0.9-1.1,2.3-1.6,4.2-1.6
			c1.7,0,3,0.5,3.9,1.6c0.9,1,1.3,2.5,1.3,4.5c0,1.3-0.2,2.5-0.6,3.4c-0.4,0.9-0.9,1.6-1.7,2c-0.8,0.4-1.7,0.7-2.9,0.7
			C669.1,539.3,668,539,667.2,538.5z M667.7,544.1c-0.8-0.3-1.5-0.8-1.9-1.5s-0.7-1.4-0.8-2.3h1.9c0,0.5,0.2,1,0.5,1.5
			c0.3,0.4,0.7,0.8,1.2,1c0.6,0.2,1.3,0.3,2.1,0.3c1,0,1.7-0.1,2.3-0.4c0.6-0.2,1-0.6,1.3-1.1c0.3-0.5,0.4-1.2,0.4-2.1v-12h1.9v12
			c0,1.1-0.2,2-0.6,2.8c-0.4,0.7-1,1.3-1.9,1.7c-0.9,0.4-2,0.6-3.4,0.6C669.6,544.6,668.6,544.4,667.7,544.1z M672.9,537.3
			c0.6-0.3,1-0.8,1.4-1.5c0.3-0.7,0.5-1.5,0.5-2.6c0-1.1-0.2-1.9-0.5-2.6c-0.3-0.7-0.8-1.2-1.4-1.5c-0.6-0.3-1.3-0.5-2.2-0.5
			c-0.9,0-1.7,0.2-2.3,0.5c-0.6,0.3-1,0.8-1.3,1.5c-0.3,0.7-0.4,1.5-0.4,2.6c0,1.1,0.1,1.9,0.4,2.6s0.7,1.2,1.3,1.5
			c0.6,0.3,1.3,0.5,2.3,0.5C671.6,537.8,672.3,537.6,672.9,537.3z"/>
	</g>
</g>
<g>
	<g>
		<path d="M949,538.5c-0.8-0.5-1.4-1.2-1.8-2.1c-0.4-0.9-0.6-2-0.6-3.2c0-1.9,0.5-3.4,1.4-4.4c0.9-1.1,2.3-1.6,4.2-1.6
			c1.7,0,3,0.5,3.9,1.6s1.3,2.5,1.3,4.5c0,1.3-0.2,2.5-0.6,3.4c-0.4,0.9-0.9,1.6-1.7,2c-0.8,0.4-1.7,0.7-2.9,0.7
			C950.8,539.3,949.8,539,949,538.5z M949.5,544.1c-0.8-0.3-1.5-0.8-1.9-1.5s-0.7-1.4-0.8-2.3h1.9c0,0.5,0.2,1,0.5,1.5
			c0.3,0.4,0.7,0.8,1.2,1c0.6,0.2,1.3,0.3,2.1,0.3c1,0,1.7-0.1,2.3-0.4c0.6-0.2,1-0.6,1.3-1.1c0.3-0.5,0.4-1.2,0.4-2.1v-12h1.9v12
			c0,1.1-0.2,2-0.6,2.8c-0.4,0.7-1,1.3-1.9,1.7c-0.9,0.4-2,0.6-3.4,0.6C951.3,544.6,950.3,544.4,949.5,544.1z M954.7,537.3
			c0.6-0.3,1-0.8,1.4-1.5c0.3-0.7,0.5-1.5,0.5-2.6c0-1.1-0.2-1.9-0.5-2.6c-0.3-0.7-0.8-1.2-1.4-1.5c-0.6-0.3-1.3-0.5-2.2-0.5
			c-0.9,0-1.7,0.2-2.3,0.5c-0.6,0.3-1,0.8-1.3,1.5c-0.3,0.7-0.4,1.5-0.4,2.6c0,1.1,0.1,1.9,0.4,2.6s0.7,1.2,1.3,1.5
			c0.6,0.3,1.3,0.5,2.3,0.5C953.4,537.8,954.1,537.6,954.7,537.3z"/>
		<path d="M963.6,539.1c-0.9-0.6-1.5-1.3-2-2.3c-0.4-1-0.6-2.1-0.6-3.3c0-1.2,0.2-2.3,0.7-3.3s1.1-1.7,2-2.3c0.9-0.6,2-0.8,3.3-0.8
			c1.2,0,2.2,0.3,3,0.8c0.8,0.5,1.5,1.2,1.9,2.1c0.4,0.9,0.7,1.9,0.7,3.1v0.3c0,0.1,0,0.3,0,0.5h-10.1v-1.4h9l-0.8,0.9
			c0-1.1-0.1-2-0.3-2.7c-0.3-0.7-0.7-1.2-1.3-1.6s-1.3-0.5-2.1-0.5c-0.9,0-1.6,0.2-2.2,0.5s-1.1,0.9-1.4,1.6
			c-0.3,0.7-0.5,1.7-0.5,2.8s0.2,2.1,0.5,2.9c0.3,0.7,0.8,1.3,1.4,1.6c0.6,0.3,1.3,0.5,2.2,0.5c0.8,0,1.4-0.1,1.9-0.3
			c0.5-0.2,0.9-0.5,1.2-0.9c0.3-0.4,0.5-0.9,0.6-1.4h1.8c-0.1,0.7-0.3,1.3-0.7,2c-0.4,0.6-1,1.1-1.8,1.5c-0.8,0.4-1.8,0.6-3.1,0.6
			C965.6,539.9,964.5,539.7,963.6,539.1z"/>
		<path d="M975,527.5h1.9v12H975V527.5z M976.8,530.8c0.4-1.2,0.9-2.1,1.7-2.7c0.8-0.6,1.8-1,3-1c1,0,1.8,0.2,2.4,0.5
			c0.6,0.4,1.1,0.9,1.4,1.6c0.3,0.7,0.4,1.6,0.4,2.6v7.7h-1.9v-7.4c0-0.8-0.1-1.5-0.3-2c-0.2-0.5-0.5-0.8-1-1s-0.9-0.3-1.6-0.3
			c-0.9,0-1.6,0.2-2.2,0.7s-1.1,1.1-1.4,2.1c-0.3,0.9-0.5,2.1-0.5,3.4h-0.6C976.3,533.4,976.5,532,976.8,530.8z"/>
	</g>
</g>
<g>
	<g>
		<path d="M1021.8,527.5h1.9v12h-1.9V527.5z M1029.9,530.1c-0.2-0.5-0.5-0.8-0.9-1s-0.9-0.3-1.5-0.3c-0.8,0-1.6,0.2-2.1,0.7
			c-0.6,0.5-1,1.1-1.2,2.1s-0.4,2.1-0.4,3.5h-0.6v-0.5c0-1.5,0.2-2.8,0.6-3.9c0.3-1.1,0.9-1.9,1.6-2.5c0.7-0.6,1.7-0.9,2.8-0.9
			c0.9,0,1.7,0.2,2.3,0.5c0.6,0.4,1,0.9,1.3,1.5c0.3,0.7,0.4,1.5,0.4,2.6v7.7h-1.9V532C1030.3,531.2,1030.2,530.6,1029.9,530.1z
			 M1038.3,530.1c-0.2-0.5-0.5-0.8-0.9-1c-0.4-0.2-0.9-0.3-1.5-0.3c-0.9,0-1.6,0.2-2.1,0.7c-0.6,0.5-1,1.1-1.2,2.1s-0.4,2.1-0.4,3.5
			h-0.7c0-1.6,0.2-3,0.5-4.2c0.3-1.2,0.9-2,1.6-2.7s1.7-1,3-1c0.9,0,1.7,0.2,2.3,0.5c0.6,0.4,1,0.9,1.3,1.6c0.3,0.7,0.4,1.5,0.4,2.6
			v7.7h-1.9V532C1038.7,531.2,1038.6,530.6,1038.3,530.1z"/>
		<path d="M1044.9,539.5c-0.6-0.3-1.1-0.7-1.4-1.2s-0.5-1.2-0.5-1.9c0-0.7,0.1-1.2,0.4-1.7s0.6-0.9,1.2-1.2c0.5-0.3,1.2-0.5,2.1-0.7
			l3-0.5c0.6-0.1,1.1-0.3,1.4-0.5c0.3-0.2,0.4-0.5,0.4-1c0-0.4-0.1-0.8-0.3-1.1c-0.2-0.3-0.5-0.6-0.9-0.7c-0.4-0.2-1-0.3-1.8-0.3
			c-1.1,0-1.9,0.2-2.5,0.7c-0.5,0.5-0.8,1.1-0.9,2h-1.9c0-0.8,0.2-1.6,0.6-2.2c0.4-0.6,1-1.1,1.8-1.5c0.8-0.3,1.7-0.5,2.8-0.5
			c1.1,0,1.9,0.2,2.7,0.5c0.7,0.3,1.2,0.7,1.6,1.3s0.5,1.2,0.5,1.9v5.8c0,0.4,0,0.9,0,1.4c0,0.5,0.1,1,0.1,1.6h-1.7
			c-0.1-0.5-0.1-1-0.1-1.5c0-0.5,0-0.9,0-1.4c-0.2,0.5-0.4,1-0.8,1.5s-0.9,0.8-1.5,1.2c-0.6,0.3-1.4,0.5-2.2,0.5
			C1046.2,539.9,1045.5,539.7,1044.9,539.5z M1049.7,537.7c0.6-0.4,1.1-1,1.4-1.7c0.3-0.7,0.5-1.4,0.5-2.2v-1
			c-0.3,0.2-0.5,0.3-0.8,0.4s-0.6,0.2-1,0.3l-0.3,0.1l-2,0.4c-0.8,0.2-1.4,0.4-1.8,0.8c-0.4,0.4-0.6,0.8-0.6,1.5
			c0,0.7,0.2,1.2,0.6,1.5c0.4,0.4,1,0.5,1.7,0.5C1048.3,538.3,1049,538.1,1049.7,537.7z"/>
		<path d="M1056.4,527.5h1.9v3.8l0,0.4v7.8h-1.9V527.5z M1058.1,531.1c0.3-1.2,0.9-2.1,1.6-2.7c0.7-0.7,1.7-1,2.9-1h0.4v1.9h-0.5
			c-1.1,0-2,0.2-2.7,0.7c-0.6,0.5-1.1,1.2-1.3,2c-0.2,0.9-0.3,1.9-0.3,3.2h-0.7C1057.6,533.6,1057.8,532.3,1058.1,531.1z"/>
	</g>
</g>
<g>
	<g>
		<path d="M1096.2,527.5h1.9v12h-1.9V527.5z M1104.3,530.1c-0.2-0.5-0.5-0.8-0.9-1s-0.9-0.3-1.5-0.3c-0.8,0-1.6,0.2-2.1,0.7
			s-1,1.1-1.2,2.1c-0.3,0.9-0.4,2.1-0.4,3.5h-0.6v-0.5c0-1.5,0.2-2.8,0.6-3.9c0.3-1.1,0.9-1.9,1.6-2.5c0.7-0.6,1.7-0.9,2.8-0.9
			c0.9,0,1.7,0.2,2.3,0.5c0.6,0.4,1,0.9,1.3,1.5c0.3,0.7,0.4,1.5,0.4,2.6v7.7h-1.9V532C1104.6,531.2,1104.5,530.6,1104.3,530.1z
			 M1112.7,530.1c-0.2-0.5-0.5-0.8-0.9-1c-0.4-0.2-0.9-0.3-1.5-0.3c-0.9,0-1.6,0.2-2.1,0.7c-0.6,0.5-1,1.1-1.2,2.1s-0.4,2.1-0.4,3.5
			h-0.7c0-1.6,0.2-3,0.5-4.2c0.3-1.2,0.9-2,1.6-2.7s1.7-1,3-1c0.9,0,1.7,0.2,2.3,0.5c0.6,0.4,1,0.9,1.3,1.6c0.3,0.7,0.4,1.5,0.4,2.6
			v7.7h-1.9V532C1113,531.2,1112.9,530.6,1112.7,530.1z"/>
		<path d="M1119.2,539.5c-0.6-0.3-1.1-0.7-1.4-1.2s-0.5-1.2-0.5-1.9c0-0.7,0.1-1.2,0.4-1.7s0.6-0.9,1.2-1.2c0.5-0.3,1.2-0.5,2.1-0.7
			l3-0.5c0.6-0.1,1.1-0.3,1.4-0.5s0.4-0.5,0.4-1c0-0.4-0.1-0.8-0.3-1.1c-0.2-0.3-0.5-0.6-0.9-0.7c-0.4-0.2-1-0.3-1.8-0.3
			c-1.1,0-1.9,0.2-2.5,0.7c-0.5,0.5-0.8,1.1-0.9,2h-1.9c0-0.8,0.2-1.6,0.6-2.2c0.4-0.6,1-1.1,1.8-1.5c0.8-0.3,1.7-0.5,2.8-0.5
			c1.1,0,1.9,0.2,2.7,0.5c0.7,0.3,1.2,0.7,1.6,1.3s0.5,1.2,0.5,1.9v5.8c0,0.4,0,0.9,0,1.4c0,0.5,0.1,1,0.1,1.6h-1.7
			c-0.1-0.5-0.1-1-0.1-1.5c0-0.5,0-0.9,0-1.4c-0.2,0.5-0.4,1-0.8,1.5c-0.4,0.5-0.9,0.8-1.5,1.2c-0.6,0.3-1.4,0.5-2.2,0.5
			C1120.5,539.9,1119.8,539.7,1119.2,539.5z M1124,537.7c0.6-0.4,1.1-1,1.4-1.7c0.3-0.7,0.5-1.4,0.5-2.2v-1
			c-0.3,0.2-0.5,0.3-0.8,0.4c-0.3,0.1-0.6,0.2-1,0.3l-0.3,0.1l-2,0.4c-0.8,0.2-1.4,0.4-1.8,0.8c-0.4,0.4-0.6,0.8-0.6,1.5
			c0,0.7,0.2,1.2,0.6,1.5c0.4,0.4,1,0.5,1.7,0.5C1122.6,538.3,1123.3,538.1,1124,537.7z"/>
		<path d="M1132.3,538.5c-0.8-0.5-1.4-1.2-1.8-2.1c-0.4-0.9-0.6-2-0.6-3.2c0-1.9,0.5-3.4,1.4-4.4c0.9-1.1,2.3-1.6,4.2-1.6
			c1.7,0,3,0.5,3.9,1.6c0.9,1,1.3,2.5,1.3,4.5c0,1.3-0.2,2.5-0.6,3.4c-0.4,0.9-0.9,1.6-1.7,2c-0.8,0.4-1.7,0.7-2.9,0.7
			C1134.2,539.3,1133.1,539,1132.3,538.5z M1132.8,544.1c-0.8-0.3-1.5-0.8-1.9-1.5s-0.7-1.4-0.8-2.3h1.9c0,0.5,0.2,1,0.5,1.5
			s0.7,0.8,1.2,1c0.6,0.2,1.3,0.3,2.1,0.3c1,0,1.7-0.1,2.3-0.4c0.6-0.2,1-0.6,1.3-1.1c0.3-0.5,0.4-1.2,0.4-2.1v-12h1.9v12
			c0,1.1-0.2,2-0.6,2.8c-0.4,0.7-1,1.3-1.9,1.7c-0.9,0.4-2,0.6-3.4,0.6C1134.7,544.6,1133.7,544.4,1132.8,544.1z M1138,537.3
			c0.6-0.3,1-0.8,1.4-1.5c0.3-0.7,0.5-1.5,0.5-2.6c0-1.1-0.2-1.9-0.5-2.6c-0.3-0.7-0.8-1.2-1.4-1.5c-0.6-0.3-1.3-0.5-2.2-0.5
			c-0.9,0-1.7,0.2-2.3,0.5c-0.6,0.3-1,0.8-1.3,1.5c-0.3,0.7-0.4,1.5-0.4,2.6c0,1.1,0.1,1.9,0.4,2.6c0.3,0.7,0.7,1.2,1.3,1.5
			c0.6,0.3,1.3,0.5,2.3,0.5C1136.7,537.8,1137.4,537.6,1138,537.3z"/>
	</g>
</g>
<g>
	<g>
		<path d="M716.2,522.7h1.9v16.8h-1.9V522.7z"/>
		<path d="M723.2,539.4c-0.6-0.4-1.1-0.9-1.4-1.6s-0.5-1.6-0.5-2.6v-7.7h1.9v7.4c0,0.9,0.1,1.5,0.3,2c0.2,0.5,0.6,0.8,1,1
			s1,0.3,1.6,0.3c0.8,0,1.5-0.2,2.1-0.7c0.6-0.5,1-1.2,1.3-2.1c0.3-0.9,0.5-2.1,0.5-3.4h0.6c0,1.6-0.2,3-0.5,4.1
			c-0.3,1.2-0.9,2.1-1.6,2.7s-1.7,1-2.9,1C724.7,539.9,723.9,539.8,723.2,539.4z M730.2,535.8v-0.3v-8h1.9v12h-1.9V535.8z"/>
		<path d="M737.2,538.5c-0.8-0.5-1.4-1.2-1.8-2.1c-0.4-0.9-0.6-2-0.6-3.2c0-1.9,0.5-3.4,1.4-4.4c0.9-1.1,2.3-1.6,4.2-1.6
			c1.7,0,3,0.5,3.9,1.6c0.9,1,1.3,2.5,1.3,4.5c0,1.3-0.2,2.5-0.6,3.4c-0.4,0.9-0.9,1.6-1.7,2c-0.8,0.4-1.7,0.7-2.9,0.7
			C739,539.3,738,539,737.2,538.5z M737.7,544.1c-0.8-0.3-1.5-0.8-1.9-1.5s-0.7-1.4-0.8-2.3h1.9c0,0.5,0.2,1,0.5,1.5
			c0.3,0.4,0.7,0.8,1.2,1c0.6,0.2,1.3,0.3,2.1,0.3c1,0,1.7-0.1,2.3-0.4c0.6-0.2,1-0.6,1.3-1.1c0.3-0.5,0.4-1.2,0.4-2.1v-12h1.9v12
			c0,1.1-0.2,2-0.6,2.8c-0.4,0.7-1,1.3-1.9,1.7c-0.9,0.4-2,0.6-3.4,0.6C739.5,544.6,738.5,544.4,737.7,544.1z M742.9,537.3
			c0.6-0.3,1-0.8,1.4-1.5c0.3-0.7,0.5-1.5,0.5-2.6c0-1.1-0.2-1.9-0.5-2.6c-0.3-0.7-0.8-1.2-1.4-1.5c-0.6-0.3-1.3-0.5-2.2-0.5
			c-0.9,0-1.7,0.2-2.3,0.5c-0.6,0.3-1,0.8-1.3,1.5c-0.3,0.7-0.4,1.5-0.4,2.6c0,1.1,0.1,1.9,0.4,2.6s0.7,1.2,1.3,1.5
			c0.6,0.3,1.3,0.5,2.3,0.5C741.6,537.8,742.3,537.6,742.9,537.3z"/>
	</g>
</g>
<g>
	<g>
		<path d="M795.9,537.1c0.3,0.4,0.7,0.8,1.2,1s1.3,0.4,2.1,0.4c0.7,0,1.3-0.1,1.7-0.2c0.4-0.2,0.8-0.4,1-0.7s0.3-0.7,0.3-1.2
			c0-0.6-0.2-1-0.5-1.3c-0.4-0.3-0.9-0.5-1.7-0.6l-2.8-0.4c-1.1-0.1-1.9-0.5-2.4-1c-0.6-0.6-0.8-1.3-0.8-2.2c0-1.1,0.4-2,1.3-2.6
			c0.8-0.6,2-1,3.5-1c1,0,1.9,0.2,2.7,0.5s1.3,0.8,1.7,1.4c0.4,0.6,0.6,1.3,0.7,2h-1.9c-0.1-0.7-0.4-1.3-0.9-1.7
			c-0.5-0.4-1.3-0.7-2.3-0.7c-1,0-1.7,0.2-2.2,0.5c-0.5,0.4-0.7,0.8-0.7,1.5c0,0.5,0.1,0.9,0.4,1.2c0.3,0.3,0.8,0.5,1.5,0.6l2.6,0.4
			c1.3,0.2,2.3,0.6,2.9,1.2c0.6,0.6,0.9,1.4,0.9,2.4c0,1.2-0.4,2.1-1.2,2.7c-0.8,0.6-2,0.9-3.6,0.9c-1.3,0-2.3-0.2-3.1-0.6
			c-0.8-0.4-1.4-0.9-1.8-1.5s-0.6-1.4-0.6-2.3h1.8C795.5,536.1,795.6,536.6,795.9,537.1z"/>
		<path d="M808.4,539.1c-0.9-0.6-1.5-1.3-2-2.3c-0.4-1-0.6-2.1-0.6-3.3c0-1.2,0.2-2.3,0.7-3.3s1.1-1.7,2-2.3c0.9-0.6,2-0.8,3.3-0.8
			c1.2,0,2.2,0.3,3,0.8c0.8,0.5,1.5,1.2,1.9,2.1c0.4,0.9,0.7,1.9,0.7,3.1v0.3c0,0.1,0,0.3,0,0.5h-10.1v-1.4h9l-0.8,0.9
			c0-1.1-0.1-2-0.3-2.7c-0.3-0.7-0.7-1.2-1.3-1.6s-1.3-0.5-2.1-0.5c-0.9,0-1.6,0.2-2.2,0.5s-1.1,0.9-1.4,1.6
			c-0.3,0.7-0.5,1.7-0.5,2.8s0.2,2.1,0.5,2.9c0.3,0.7,0.8,1.3,1.4,1.6c0.6,0.3,1.3,0.5,2.2,0.5c0.8,0,1.4-0.1,1.9-0.3
			c0.5-0.2,0.9-0.5,1.2-0.9c0.3-0.4,0.5-0.9,0.6-1.4h1.8c-0.1,0.7-0.3,1.3-0.7,2c-0.4,0.6-1,1.1-1.8,1.5c-0.8,0.4-1.8,0.6-3.1,0.6
			C810.4,539.9,809.3,539.7,808.4,539.1z"/>
		<path d="M821.6,539.2c-0.4-0.2-0.7-0.5-0.9-0.9c-0.2-0.4-0.3-0.9-0.3-1.6v-7.7h-2.3V528l2.5-0.6l0.7-2.5h1v2.7h4v1.5h-4v8.9h3.8
			v1.6h-2.8C822.6,539.5,822.1,539.4,821.6,539.2z"/>
	</g>
</g>
<g>
	<g>
		<path d="M869.2,527.5h1.9v12h-1.9V527.5z M871.1,530.8c0.4-1.2,0.9-2.1,1.7-2.7c0.8-0.6,1.8-1,3-1c1,0,1.8,0.2,2.4,0.5
			c0.6,0.4,1.1,0.9,1.4,1.6c0.3,0.7,0.4,1.6,0.4,2.6v7.7h-1.9v-7.4c0-0.8-0.1-1.5-0.3-2c-0.2-0.5-0.5-0.8-1-1s-0.9-0.3-1.6-0.3
			c-0.9,0-1.6,0.2-2.2,0.7c-0.6,0.5-1.1,1.1-1.4,2.1c-0.3,0.9-0.5,2.1-0.5,3.4h-0.6C870.5,533.4,870.7,532,871.1,530.8z"/>
		<path d="M885.1,539.1c-0.9-0.6-1.6-1.3-2-2.3c-0.5-1-0.7-2.1-0.7-3.3c0-1.2,0.2-2.3,0.7-3.3c0.5-1,1.1-1.7,2-2.3
			c0.9-0.6,2-0.8,3.3-0.8c1.3,0,2.4,0.3,3.3,0.8c0.9,0.6,1.6,1.3,2,2.3c0.4,1,0.7,2,0.7,3.3c0,1.2-0.2,2.3-0.7,3.3
			c-0.4,1-1.1,1.7-2,2.3c-0.9,0.6-2,0.8-3.3,0.8C887.1,539.9,886,539.7,885.1,539.1z M884.7,536.3c0.3,0.7,0.8,1.2,1.4,1.6
			s1.4,0.5,2.3,0.5c0.9,0,1.7-0.2,2.3-0.5s1.1-0.9,1.4-1.6c0.3-0.7,0.5-1.6,0.5-2.7c0-1.1-0.2-2-0.5-2.7c-0.3-0.7-0.8-1.2-1.4-1.6
			s-1.4-0.5-2.3-0.5c-0.9,0-1.7,0.2-2.3,0.5s-1.1,0.9-1.4,1.6c-0.3,0.7-0.5,1.6-0.5,2.7C884.3,534.6,884.4,535.6,884.7,536.3z"/>
		<path d="M897.5,527.5l4.4,11.4h-0.8l4.5-11.4h1.9l-4.7,12h-2.5l-4.7-12H897.5z"/>
	</g>
</g>
<line class="st3" x1="1115.3" y1="601.6" x2="1176.4" y2="601.6"/>
<line class="st3" x1="786.5" y1="601.6" x2="1007" y2="601.6"/>
<line class="st3" x1="303.2" y1="601.6" x2="678.2" y2="601.6"/>
<line class="st3" x1="16.8" y1="601.6" x2="194.9" y2="601.6"/>
<g>
	<g>
		<path d="M204.4,610.6l12.8-11.1c1.5-1.3,2.5-2.5,3.1-3.4c0.6-1,0.9-2.1,0.9-3.4c0-1.6-0.5-2.8-1.6-3.8c-1-0.9-2.6-1.4-4.6-1.4
			c-1.8,0-3.3,0.3-4.4,1c-1.2,0.7-2,1.7-2.6,3c-0.6,1.3-0.9,3.1-0.9,5.1h-2.6c0-2.4,0.4-4.4,1.2-6.1s2-3,3.5-3.8
			c1.5-0.9,3.5-1.3,5.8-1.3c2,0,3.7,0.3,5,1c1.3,0.7,2.3,1.5,2.9,2.6c0.6,1.1,0.9,2.3,0.9,3.6c0,1.6-0.4,3.1-1.3,4.5
			c-0.9,1.4-2.4,3-4.5,4.9l-10,8.6h16.4v2.1h-19.9V610.6z"/>
		<path d="M233.1,611.6c-1.7-1.2-3-2.8-3.9-4.9c-0.9-2.1-1.3-4.6-1.3-7.4c0-2.7,0.4-5.2,1.3-7.3c0.9-2.1,2.2-3.7,3.9-4.9
			c1.7-1.2,3.9-1.8,6.4-1.8c2.6,0,4.7,0.6,6.5,1.8s3,2.8,3.9,4.9c0.9,2.1,1.3,4.5,1.3,7.3c0,2.8-0.4,5.3-1.3,7.4
			c-0.9,2.1-2.1,3.7-3.9,4.9s-3.9,1.8-6.5,1.8C237,613.4,234.9,612.8,233.1,611.6z M231.6,606c0.7,1.8,1.7,3.1,3,4s3,1.3,5,1.3
			s3.7-0.4,5-1.3s2.3-2.2,3-4c0.7-1.8,1-4,1-6.7c0-2.6-0.3-4.8-1-6.6s-1.7-3.1-3-4s-3-1.3-5-1.3s-3.7,0.4-5,1.3s-2.3,2.2-3,4
			s-1,4-1,6.6C230.6,602,230.9,604.2,231.6,606z"/>
		<path d="M255.6,610.6l12.8-11.1c1.5-1.3,2.5-2.5,3.1-3.4c0.6-1,0.9-2.1,0.9-3.4c0-1.6-0.5-2.8-1.6-3.8c-1-0.9-2.6-1.4-4.6-1.4
			c-1.8,0-3.3,0.3-4.4,1c-1.2,0.7-2,1.7-2.6,3c-0.6,1.3-0.9,3.1-0.9,5.1h-2.6c0-2.4,0.4-4.4,1.2-6.1s2-3,3.5-3.8
			c1.5-0.9,3.5-1.3,5.8-1.3c2,0,3.7,0.3,5,1c1.3,0.7,2.3,1.5,2.9,2.6c0.6,1.1,0.9,2.3,0.9,3.6c0,1.6-0.4,3.1-1.3,4.5
			c-0.9,1.4-2.4,3-4.5,4.9l-10,8.6h16.4v2.1h-19.9V610.6z"/>
		<path d="M279.9,610.6h6.2v-22.4h-6.2v-2.1h5.7c1.1,0,1.9,0.2,2.4,0.7c0.5,0.5,0.7,1.2,0.7,2.1v21.7h5.7v2.1h-14.4V610.6z"/>
	</g>
</g>
<g>
	<g>
		<path d="M70.8,689.1c0.8,0.4,1.3,1,1.7,1.7c0.3,0.7,0.5,1.6,0.5,2.5c0,0.9-0.2,1.8-0.5,2.5c-0.4,0.7-0.9,1.3-1.7,1.7
			c-0.8,0.4-1.7,0.6-2.9,0.6h-5.4v6.9h-2.1v-16.6h7.6C69.1,688.4,70,688.6,70.8,689.1z M69.3,696.1c0.5-0.3,0.9-0.6,1.1-1.1
			c0.2-0.5,0.3-1,0.3-1.7c0-0.7-0.1-1.3-0.3-1.7c-0.2-0.5-0.6-0.8-1.1-1.1c-0.5-0.2-1.1-0.4-1.9-0.4h-5.1v6.4h5
			C68.2,696.5,68.8,696.3,69.3,696.1z"/>
		<path d="M77.4,704.6c-0.9-0.6-1.6-1.4-2.1-2.4c-0.5-1-0.7-2.2-0.7-3.4c0-1.3,0.2-2.4,0.7-3.4s1.2-1.8,2.1-2.4
			c0.9-0.6,2.1-0.9,3.5-0.9c1.4,0,2.5,0.3,3.5,0.9c1,0.6,1.7,1.4,2.1,2.4c0.5,1,0.7,2.1,0.7,3.4c0,1.3-0.2,2.4-0.7,3.4
			c-0.5,1-1.2,1.8-2.1,2.4c-1,0.6-2.1,0.9-3.5,0.9C79.5,705.5,78.4,705.2,77.4,704.6z M77.1,701.7c0.3,0.8,0.8,1.3,1.4,1.7
			s1.4,0.5,2.4,0.5c1,0,1.7-0.2,2.4-0.5s1.1-0.9,1.4-1.7c0.3-0.8,0.5-1.7,0.5-2.8c0-1.2-0.2-2.1-0.5-2.9c-0.3-0.7-0.8-1.3-1.4-1.6
			s-1.4-0.5-2.4-0.5c-1,0-1.8,0.2-2.4,0.5s-1.1,0.9-1.4,1.6c-0.3,0.7-0.5,1.7-0.5,2.9C76.6,700,76.8,700.9,77.1,701.7z"/>
		<path d="M89.9,692.6h2v3.9l0,0.4v8.2h-2V692.6z M91.7,696.3c0.4-1.2,0.9-2.2,1.7-2.9s1.8-1.1,3-1.1h0.5v2h-0.6
			c-1.2,0-2.1,0.2-2.8,0.7c-0.7,0.5-1.1,1.2-1.4,2.1c-0.2,0.9-0.4,2-0.4,3.3h-0.7C91.2,698.9,91.3,697.5,91.7,696.3z"/>
		<path d="M101.1,704.7c-0.4-0.2-0.7-0.5-0.9-0.9c-0.2-0.4-0.3-1-0.3-1.7v-8h-2.4V693l2.6-0.6l0.8-2.6h1.1v2.8h4.1v1.6h-4.1v9.3h4
			v1.6h-3C102.1,705.1,101.5,705,101.1,704.7z"/>
		<path d="M109.8,705c-0.6-0.3-1.1-0.7-1.5-1.2c-0.4-0.5-0.5-1.2-0.5-2c0-0.7,0.1-1.3,0.4-1.8c0.3-0.5,0.7-0.9,1.2-1.2
			c0.6-0.3,1.3-0.6,2.2-0.7l3.2-0.5c0.7-0.1,1.1-0.3,1.4-0.5c0.3-0.2,0.4-0.6,0.4-1s-0.1-0.9-0.3-1.2c-0.2-0.3-0.5-0.6-0.9-0.8
			c-0.5-0.2-1.1-0.3-1.9-0.3c-1.2,0-2,0.2-2.6,0.7c-0.5,0.5-0.8,1.2-0.9,2h-2c0-0.9,0.3-1.6,0.7-2.3c0.4-0.7,1-1.2,1.8-1.5
			c0.8-0.4,1.8-0.5,2.9-0.5c1.1,0,2,0.2,2.8,0.5s1.3,0.8,1.6,1.3s0.5,1.2,0.5,2v6c0,0.5,0,1,0,1.5c0,0.5,0.1,1.1,0.1,1.6h-1.8
			c-0.1-0.5-0.1-1-0.1-1.5c0-0.5,0-1,0-1.4c-0.2,0.6-0.5,1.1-0.9,1.6c-0.4,0.5-0.9,0.9-1.5,1.2s-1.4,0.5-2.3,0.5
			C111.1,705.4,110.4,705.2,109.8,705z M114.7,703.2c0.6-0.4,1.1-1,1.5-1.7c0.3-0.7,0.5-1.5,0.5-2.3v-1.1c-0.3,0.2-0.5,0.3-0.8,0.5
			s-0.6,0.2-1.1,0.3l-0.3,0.1l-2.1,0.4c-0.9,0.2-1.5,0.5-1.9,0.8c-0.4,0.4-0.6,0.9-0.6,1.5c0,0.7,0.2,1.2,0.7,1.6
			c0.4,0.4,1,0.5,1.8,0.5C113.2,703.8,114,703.6,114.7,703.2z"/>
		<path d="M123.6,704.7c-0.4-0.2-0.7-0.5-0.9-0.9c-0.2-0.4-0.3-1-0.3-1.7v-8H120V693l2.6-0.6l0.8-2.6h1.1v2.8h4.1v1.6h-4.1v9.3h4
			v1.6h-3C124.6,705.1,124,705,123.6,704.7z"/>
		<path d="M132.3,705c-0.6-0.3-1.1-0.7-1.5-1.2c-0.4-0.5-0.5-1.2-0.5-2c0-0.7,0.1-1.3,0.4-1.8c0.3-0.5,0.7-0.9,1.2-1.2
			c0.6-0.3,1.3-0.6,2.2-0.7l3.2-0.5c0.7-0.1,1.1-0.3,1.4-0.5c0.3-0.2,0.4-0.6,0.4-1s-0.1-0.9-0.3-1.2c-0.2-0.3-0.5-0.6-0.9-0.8
			c-0.5-0.2-1.1-0.3-1.9-0.3c-1.2,0-2,0.2-2.6,0.7c-0.5,0.5-0.8,1.2-0.9,2h-2c0-0.9,0.3-1.6,0.7-2.3c0.4-0.7,1-1.2,1.8-1.5
			c0.8-0.4,1.8-0.5,2.9-0.5c1.1,0,2,0.2,2.8,0.5s1.3,0.8,1.6,1.3s0.5,1.2,0.5,2v6c0,0.5,0,1,0,1.5c0,0.5,0.1,1.1,0.1,1.6h-1.8
			c-0.1-0.5-0.1-1-0.1-1.5c0-0.5,0-1,0-1.4c-0.2,0.6-0.5,1.1-0.9,1.6c-0.4,0.5-0.9,0.9-1.5,1.2s-1.4,0.5-2.3,0.5
			C133.6,705.4,132.9,705.2,132.3,705z M137.2,703.2c0.6-0.4,1.1-1,1.5-1.7c0.3-0.7,0.5-1.5,0.5-2.3v-1.1c-0.3,0.2-0.5,0.3-0.8,0.5
			s-0.6,0.2-1.1,0.3l-0.3,0.1l-2.1,0.4c-0.9,0.2-1.5,0.5-1.9,0.8c-0.4,0.4-0.6,0.9-0.6,1.5c0,0.7,0.2,1.2,0.7,1.6
			c0.4,0.4,1,0.5,1.8,0.5C135.7,703.8,136.5,703.6,137.2,703.2z"/>
		<path d="M151.6,704.6c-0.9-0.6-1.6-1.4-2.1-2.4c-0.4-1-0.7-2.1-0.7-3.5c0-1.3,0.2-2.4,0.7-3.4c0.5-1,1.2-1.8,2.1-2.4
			c0.9-0.6,2.1-0.9,3.4-0.9c1.2,0,2.3,0.3,3.2,0.8c0.9,0.5,1.6,1.3,2,2.2c0.5,0.9,0.7,2,0.7,3.2v0.3c0,0.1,0,0.3-0.1,0.5h-10.5v-1.5
			h9.4l-0.9,0.9c0-1.1-0.1-2.1-0.4-2.8c-0.3-0.7-0.7-1.3-1.3-1.6c-0.6-0.3-1.3-0.5-2.2-0.5c-0.9,0-1.7,0.2-2.3,0.5s-1.1,0.9-1.4,1.6
			c-0.3,0.8-0.5,1.7-0.5,3s0.2,2.2,0.5,3c0.4,0.8,0.8,1.3,1.5,1.7c0.6,0.3,1.4,0.5,2.3,0.5c0.8,0,1.5-0.1,2-0.3
			c0.5-0.2,1-0.5,1.3-0.9c0.3-0.4,0.5-0.9,0.7-1.4h1.8c-0.1,0.7-0.3,1.4-0.8,2s-1,1.2-1.9,1.6c-0.8,0.4-1.9,0.6-3.2,0.6
			C153.7,705.5,152.5,705.2,151.6,704.6z"/>
		<path d="M163.5,692.6h2v3.9l0,0.4v8.2h-2V692.6z M165.3,696.3c0.4-1.2,0.9-2.2,1.7-2.9s1.8-1.1,3-1.1h0.5v2H170
			c-1.2,0-2.1,0.2-2.8,0.7c-0.7,0.5-1.1,1.2-1.4,2.1c-0.2,0.9-0.4,2-0.4,3.3h-0.7C164.8,698.9,165,697.5,165.3,696.3z"/>
		<path d="M174.7,704.6c-0.9-0.6-1.6-1.4-2.1-2.4c-0.5-1-0.7-2.2-0.7-3.4c0-1.3,0.2-2.4,0.7-3.4s1.2-1.8,2.1-2.4
			c0.9-0.6,2.1-0.9,3.5-0.9c1.4,0,2.5,0.3,3.5,0.9c1,0.6,1.7,1.4,2.1,2.4c0.5,1,0.7,2.1,0.7,3.4c0,1.3-0.2,2.4-0.7,3.4
			c-0.5,1-1.2,1.8-2.1,2.4c-1,0.6-2.1,0.9-3.5,0.9C176.8,705.5,175.7,705.2,174.7,704.6z M174.4,701.7c0.3,0.8,0.8,1.3,1.4,1.7
			s1.4,0.5,2.4,0.5c1,0,1.7-0.2,2.4-0.5s1.1-0.9,1.4-1.7c0.3-0.8,0.5-1.7,0.5-2.8c0-1.2-0.2-2.1-0.5-2.9c-0.3-0.7-0.8-1.3-1.4-1.6
			s-1.4-0.5-2.4-0.5c-1,0-1.8,0.2-2.4,0.5s-1.1,0.9-1.4,1.6c-0.3,0.7-0.5,1.7-0.5,2.9C173.9,700,174.1,700.9,174.4,701.7z"/>
		<path d="M188.8,704c-0.9-0.5-1.5-1.2-1.9-2.2c-0.4-0.9-0.6-2.1-0.6-3.4c0-2,0.5-3.5,1.5-4.6c1-1.1,2.4-1.7,4.3-1.7
			c1.8,0,3.1,0.5,4,1.6c0.9,1.1,1.4,2.6,1.4,4.6c0,1.4-0.2,2.6-0.6,3.5c-0.4,0.9-1,1.6-1.8,2.1c-0.8,0.5-1.8,0.7-3,0.7
			C190.7,704.8,189.7,704.5,188.8,704z M189.4,709.8c-0.9-0.3-1.5-0.9-2-1.5c-0.5-0.7-0.7-1.5-0.8-2.4h2c0,0.6,0.2,1.1,0.5,1.5
			s0.7,0.8,1.3,1c0.6,0.2,1.3,0.4,2.2,0.4c1,0,1.8-0.1,2.4-0.4s1.1-0.6,1.3-1.2c0.3-0.5,0.4-1.3,0.4-2.1v-12.5h2v12.5
			c0,1.1-0.2,2.1-0.6,2.9c-0.4,0.8-1.1,1.4-2,1.8c-0.9,0.4-2.1,0.6-3.6,0.6C191.3,710.3,190.2,710.2,189.4,709.8z M194.8,702.7
			c0.6-0.3,1.1-0.8,1.4-1.5c0.3-0.7,0.5-1.6,0.5-2.7c0-1.1-0.2-2-0.5-2.7c-0.3-0.7-0.8-1.2-1.4-1.5c-0.6-0.3-1.4-0.5-2.3-0.5
			c-1,0-1.8,0.2-2.4,0.5c-0.6,0.3-1.1,0.8-1.4,1.5c-0.3,0.7-0.5,1.6-0.5,2.7c0,1.1,0.2,2,0.5,2.7c0.3,0.7,0.8,1.2,1.4,1.5
			c0.6,0.3,1.4,0.5,2.4,0.5C193.4,703.2,194.2,703,194.8,702.7z"/>
		<path d="M203.4,705c-0.6-0.3-1.1-0.7-1.5-1.2c-0.4-0.5-0.5-1.2-0.5-2c0-0.7,0.1-1.3,0.4-1.8c0.3-0.5,0.7-0.9,1.2-1.2
			c0.6-0.3,1.3-0.6,2.2-0.7l3.2-0.5c0.7-0.1,1.1-0.3,1.4-0.5c0.3-0.2,0.4-0.6,0.4-1s-0.1-0.9-0.3-1.2c-0.2-0.3-0.5-0.6-0.9-0.8
			c-0.5-0.2-1.1-0.3-1.9-0.3c-1.2,0-2,0.2-2.6,0.7c-0.5,0.5-0.8,1.2-0.9,2h-2c0-0.9,0.3-1.6,0.7-2.3c0.4-0.7,1-1.2,1.8-1.5
			c0.8-0.4,1.8-0.5,2.9-0.5c1.1,0,2,0.2,2.8,0.5s1.3,0.8,1.6,1.3s0.5,1.2,0.5,2v6c0,0.5,0,1,0,1.5c0,0.5,0.1,1.1,0.1,1.6h-1.8
			c-0.1-0.5-0.1-1-0.1-1.5c0-0.5,0-1,0-1.4c-0.2,0.6-0.5,1.1-0.9,1.6c-0.4,0.5-0.9,0.9-1.5,1.2s-1.4,0.5-2.3,0.5
			C204.8,705.4,204,705.2,203.4,705z M208.4,703.2c0.6-0.4,1.1-1,1.5-1.7c0.3-0.7,0.5-1.5,0.5-2.3v-1.1c-0.3,0.2-0.5,0.3-0.8,0.5
			s-0.6,0.2-1.1,0.3l-0.3,0.1l-2.1,0.4c-0.9,0.2-1.5,0.5-1.9,0.8c-0.4,0.4-0.6,0.9-0.6,1.5c0,0.7,0.2,1.2,0.7,1.6
			c0.4,0.4,1,0.5,1.8,0.5C206.9,703.8,207.7,703.6,208.4,703.2z"/>
		<path d="M217.3,704.7c-0.4-0.2-0.7-0.5-0.9-0.9c-0.2-0.4-0.3-1-0.3-1.7v-8h-2.4V693l2.6-0.6l0.8-2.6h1.1v2.8h4.1v1.6h-4.1v9.3h4
			v1.6h-3C218.3,705.1,217.7,705,217.3,704.7z"/>
		<path d="M225.9,705c-0.6-0.3-1.1-0.7-1.5-1.2c-0.4-0.5-0.5-1.2-0.5-2c0-0.7,0.1-1.3,0.4-1.8c0.3-0.5,0.7-0.9,1.2-1.2
			c0.6-0.3,1.3-0.6,2.2-0.7l3.2-0.5c0.7-0.1,1.1-0.3,1.4-0.5c0.3-0.2,0.4-0.6,0.4-1s-0.1-0.9-0.3-1.2c-0.2-0.3-0.5-0.6-0.9-0.8
			c-0.5-0.2-1.1-0.3-1.9-0.3c-1.2,0-2,0.2-2.6,0.7c-0.5,0.5-0.8,1.2-0.9,2h-2c0-0.9,0.3-1.6,0.7-2.3c0.4-0.7,1-1.2,1.8-1.5
			c0.8-0.4,1.8-0.5,2.9-0.5c1.1,0,2,0.2,2.8,0.5s1.3,0.8,1.6,1.3s0.5,1.2,0.5,2v6c0,0.5,0,1,0,1.5c0,0.5,0.1,1.1,0.1,1.6H233
			c-0.1-0.5-0.1-1-0.1-1.5c0-0.5,0-1,0-1.4c-0.2,0.6-0.5,1.1-0.9,1.6c-0.4,0.5-0.9,0.9-1.5,1.2s-1.4,0.5-2.3,0.5
			C227.3,705.4,226.5,705.2,225.9,705z M230.9,703.2c0.6-0.4,1.1-1,1.5-1.7c0.3-0.7,0.5-1.5,0.5-2.3v-1.1c-0.3,0.2-0.5,0.3-0.8,0.5
			s-0.6,0.2-1.1,0.3l-0.3,0.1l-2.1,0.4c-0.9,0.2-1.5,0.5-1.9,0.8c-0.4,0.4-0.6,0.9-0.6,1.5c0,0.7,0.2,1.2,0.7,1.6
			c0.4,0.4,1,0.5,1.8,0.5C229.4,703.8,230.2,703.6,230.9,703.2z"/>
	</g>
</g>
<g>
	<g>
		<path d="M328.2,688.4h2.1v16.6h-2.1V688.4z M329.7,703.4h9.2v1.7h-9.2V703.4z"/>
		<path d="M340.7,688.4h2.6v2.1h-2.6V688.4z M341,692.6h2v12.5h-2V692.6z"/>
		<path d="M347,692.6l4.6,11.8h-0.9l4.6-11.8h2l-4.9,12.5h-2.6l-4.9-12.5H347z"/>
		<path d="M361.3,704.6c-0.9-0.6-1.6-1.4-2.1-2.4c-0.4-1-0.7-2.1-0.7-3.5c0-1.3,0.2-2.4,0.7-3.4c0.5-1,1.2-1.8,2.1-2.4
			c0.9-0.6,2.1-0.9,3.4-0.9c1.2,0,2.3,0.3,3.2,0.8c0.9,0.5,1.6,1.3,2,2.2c0.5,0.9,0.7,2,0.7,3.2v0.3c0,0.1,0,0.3-0.1,0.5h-10.5v-1.5
			h9.4l-0.9,0.9c0-1.1-0.1-2.1-0.4-2.8c-0.3-0.7-0.7-1.3-1.3-1.6c-0.6-0.3-1.3-0.5-2.2-0.5c-0.9,0-1.7,0.2-2.3,0.5s-1.1,0.9-1.4,1.6
			c-0.3,0.8-0.5,1.7-0.5,3s0.2,2.2,0.5,3c0.4,0.8,0.8,1.3,1.5,1.7c0.6,0.3,1.4,0.5,2.3,0.5c0.8,0,1.5-0.1,2-0.3
			c0.5-0.2,1-0.5,1.3-0.9c0.3-0.4,0.5-0.9,0.7-1.4h1.8c-0.1,0.7-0.3,1.4-0.8,2s-1,1.2-1.9,1.6c-0.8,0.4-1.9,0.6-3.2,0.6
			C363.4,705.5,362.2,705.2,361.3,704.6z"/>
		<path d="M373.1,687.6h2v17.5h-2V687.6z"/>
		<path d="M378.7,687.6h2v17.5h-2V687.6z"/>
		<path d="M383.9,688.4h2.6v2.1h-2.6V688.4z M384.2,692.6h2v12.5h-2V692.6z"/>
		<path d="M395.2,692.6h2v12.5h-2V692.6z M403.7,695.3c-0.2-0.5-0.5-0.9-1-1.1c-0.4-0.2-1-0.3-1.6-0.3c-0.9,0-1.6,0.2-2.2,0.7
			c-0.6,0.5-1,1.2-1.3,2.1s-0.4,2.2-0.4,3.6h-0.6v-0.5c0-1.6,0.2-2.9,0.6-4.1c0.4-1.1,0.9-2,1.7-2.6s1.7-0.9,2.9-0.9
			c0.9,0,1.7,0.2,2.4,0.6c0.6,0.4,1.1,0.9,1.4,1.6c0.3,0.7,0.5,1.6,0.5,2.7v8h-2v-7.8C404,696.4,403.9,695.8,403.7,695.3z
			 M412.4,695.3c-0.2-0.5-0.5-0.9-1-1.1c-0.4-0.2-0.9-0.3-1.6-0.3c-0.9,0-1.6,0.2-2.2,0.7c-0.6,0.5-1,1.2-1.3,2.1s-0.4,2.2-0.4,3.6
			h-0.7c0-1.7,0.2-3.1,0.5-4.3c0.3-1.2,0.9-2.1,1.7-2.8c0.8-0.7,1.8-1,3.1-1c0.9,0,1.7,0.2,2.4,0.6c0.6,0.4,1.1,0.9,1.4,1.6
			s0.5,1.6,0.5,2.7v8h-2v-7.8C412.7,696.4,412.6,695.8,412.4,695.3z"/>
		<path d="M417.6,688.4h2.6v2.1h-2.6V688.4z M417.9,692.6h2v12.5h-2V692.6z"/>
		<path d="M423.3,692.6h2v12.5h-2V692.6z M425.3,696c0.4-1.2,1-2.2,1.8-2.8s1.8-1,3.1-1c1,0,1.9,0.2,2.5,0.6s1.1,0.9,1.5,1.7
			c0.3,0.7,0.5,1.6,0.5,2.7v8h-2v-7.8c0-0.9-0.1-1.6-0.4-2.1s-0.6-0.9-1-1.1c-0.4-0.2-1-0.3-1.6-0.3c-0.9,0-1.7,0.2-2.3,0.7
			c-0.6,0.5-1.1,1.2-1.4,2.2c-0.3,1-0.5,2.2-0.5,3.6h-0.6C424.7,698.6,424.9,697.2,425.3,696z"/>
		<path d="M437.4,688.4h2.6v2.1h-2.6V688.4z M437.7,692.6h2v12.5h-2V692.6z"/>
		<path d="M443.2,692.6h2v12.5h-2V692.6z M451.6,695.3c-0.2-0.5-0.5-0.9-1-1.1c-0.4-0.2-1-0.3-1.6-0.3c-0.9,0-1.6,0.2-2.2,0.7
			c-0.6,0.5-1,1.2-1.3,2.1s-0.4,2.2-0.4,3.6h-0.6v-0.5c0-1.6,0.2-2.9,0.6-4.1c0.4-1.1,0.9-2,1.7-2.6s1.7-0.9,2.9-0.9
			c0.9,0,1.7,0.2,2.4,0.6c0.6,0.4,1.1,0.9,1.4,1.6c0.3,0.7,0.5,1.6,0.5,2.7v8h-2v-7.8C451.9,696.4,451.8,695.8,451.6,695.3z
			 M460.4,695.3c-0.2-0.5-0.5-0.9-1-1.1c-0.4-0.2-0.9-0.3-1.6-0.3c-0.9,0-1.6,0.2-2.2,0.7c-0.6,0.5-1,1.2-1.3,2.1s-0.4,2.2-0.4,3.6
			h-0.7c0-1.7,0.2-3.1,0.5-4.3c0.3-1.2,0.9-2.1,1.7-2.8c0.8-0.7,1.8-1,3.1-1c0.9,0,1.7,0.2,2.4,0.6c0.6,0.4,1.1,0.9,1.4,1.6
			s0.5,1.6,0.5,2.7v8h-2v-7.8C460.7,696.4,460.6,695.8,460.4,695.3z"/>
		<path d="M465.6,688.4h2.6v2.1h-2.6V688.4z M465.9,692.6h2v12.5h-2V692.6z"/>
		<path d="M485.9,693.9c0.9,1.2,1.4,2.8,1.4,4.9c0,1.4-0.2,2.5-0.6,3.5c-0.4,1-1,1.8-1.9,2.3c-0.8,0.5-1.8,0.8-3,0.8
			c-1.3,0-2.4-0.3-3.2-0.9c-0.9-0.6-1.5-1.3-1.9-2.3s-0.6-2.2-0.6-3.5c0-1.3,0.2-2.5,0.6-3.5s1.1-1.8,1.9-2.3
			c0.8-0.6,1.9-0.8,3.2-0.8C483.6,692.2,484.9,692.7,485.9,693.9z M479.8,694.3c-0.6,0.4-1,0.9-1.3,1.7c-0.3,0.7-0.4,1.7-0.4,2.8
			c0,1.1,0.1,2,0.4,2.8c0.3,0.7,0.7,1.3,1.3,1.7s1.4,0.6,2.3,0.6c0.9,0,1.7-0.2,2.3-0.5s1.1-0.9,1.5-1.6c0.4-0.7,0.5-1.7,0.5-2.8
			s-0.2-2.1-0.5-2.8s-0.8-1.3-1.5-1.7s-1.4-0.5-2.3-0.5C481.2,693.8,480.4,694,479.8,694.3z M488.5,705.1h-2v-3v-0.3v-14.2h2V705.1z
			"/>
		<path d="M493.9,704.6c-0.9-0.6-1.6-1.4-2.1-2.4c-0.4-1-0.7-2.1-0.7-3.5c0-1.3,0.2-2.4,0.7-3.4c0.5-1,1.2-1.8,2.1-2.4
			c0.9-0.6,2.1-0.9,3.4-0.9c1.2,0,2.3,0.3,3.2,0.8c0.9,0.5,1.6,1.3,2,2.2c0.5,0.9,0.7,2,0.7,3.2v0.3c0,0.1,0,0.3-0.1,0.5h-10.5v-1.5
			h9.4l-0.9,0.9c0-1.1-0.1-2.1-0.4-2.8c-0.3-0.7-0.7-1.3-1.3-1.6c-0.6-0.3-1.3-0.5-2.2-0.5c-0.9,0-1.7,0.2-2.3,0.5s-1.1,0.9-1.4,1.6
			c-0.3,0.8-0.5,1.7-0.5,3s0.2,2.2,0.5,3c0.4,0.8,0.8,1.3,1.5,1.7c0.6,0.3,1.4,0.5,2.3,0.5c0.8,0,1.5-0.1,2-0.3
			c0.5-0.2,1-0.5,1.3-0.9c0.3-0.4,0.5-0.9,0.7-1.4h1.8c-0.1,0.7-0.3,1.4-0.8,2s-1,1.2-1.9,1.6c-0.8,0.4-1.9,0.6-3.2,0.6
			C496,705.5,494.8,705.2,493.9,704.6z"/>
		<path d="M505.8,687.6h2v17.5h-2V687.6z"/>
		<path d="M511.4,687.6h2v17.5h-2V687.6z"/>
		<path d="M518.1,705c-0.6-0.3-1.1-0.7-1.5-1.2c-0.4-0.5-0.5-1.2-0.5-2c0-0.7,0.1-1.3,0.4-1.8c0.3-0.5,0.7-0.9,1.2-1.2
			c0.6-0.3,1.3-0.6,2.2-0.7l3.2-0.5c0.7-0.1,1.1-0.3,1.4-0.5c0.3-0.2,0.4-0.6,0.4-1s-0.1-0.9-0.3-1.2c-0.2-0.3-0.5-0.6-0.9-0.8
			c-0.5-0.2-1.1-0.3-1.9-0.3c-1.2,0-2,0.2-2.6,0.7c-0.5,0.5-0.8,1.2-0.9,2h-2c0-0.9,0.3-1.6,0.7-2.3c0.4-0.7,1-1.2,1.8-1.5
			c0.8-0.4,1.8-0.5,2.9-0.5c1.1,0,2,0.2,2.8,0.5s1.3,0.8,1.6,1.3s0.5,1.2,0.5,2v6c0,0.5,0,1,0,1.5c0,0.5,0.1,1.1,0.1,1.6h-1.8
			c-0.1-0.5-0.1-1-0.1-1.5c0-0.5,0-1,0-1.4c-0.2,0.6-0.5,1.1-0.9,1.6c-0.4,0.5-0.9,0.9-1.5,1.2s-1.4,0.5-2.3,0.5
			C519.5,705.4,518.8,705.2,518.1,705z M523.1,703.2c0.6-0.4,1.1-1,1.5-1.7c0.3-0.7,0.5-1.5,0.5-2.3v-1.1c-0.3,0.2-0.5,0.3-0.8,0.5
			s-0.6,0.2-1.1,0.3l-0.3,0.1l-2.1,0.4c-0.9,0.2-1.5,0.5-1.9,0.8c-0.4,0.4-0.6,0.9-0.6,1.5c0,0.7,0.2,1.2,0.7,1.6
			c0.4,0.4,1,0.5,1.8,0.5C521.6,703.8,522.4,703.6,523.1,703.2z"/>
		<path d="M535.7,692.6h2v2.8v0.5v14.2h-2V692.6z M538.3,703.7c-0.9-1.2-1.4-2.8-1.4-4.9c0-2.1,0.5-3.7,1.4-4.9
			c0.9-1.2,2.3-1.8,4.1-1.8c1.3,0,2.3,0.3,3.2,0.9c0.8,0.6,1.5,1.3,1.9,2.3c0.4,1,0.6,2.2,0.6,3.5c0,1.3-0.2,2.5-0.6,3.5
			c-0.4,1-1.1,1.8-1.9,2.3c-0.9,0.6-1.9,0.8-3.2,0.8C540.6,705.5,539.2,704.9,538.3,703.7z M544.3,703.3c0.6-0.4,1-0.9,1.3-1.7
			c0.3-0.7,0.4-1.7,0.4-2.8c0-1.1-0.1-2-0.4-2.8c-0.3-0.7-0.7-1.3-1.3-1.7c-0.6-0.4-1.4-0.6-2.3-0.6c-0.9,0-1.7,0.2-2.3,0.5
			c-0.6,0.4-1.1,0.9-1.5,1.6c-0.3,0.7-0.5,1.7-0.5,2.8s0.2,2.1,0.5,2.8c0.3,0.8,0.8,1.3,1.5,1.7c0.7,0.3,1.4,0.5,2.3,0.5
			C543,703.8,543.7,703.6,544.3,703.3z"/>
		<path d="M552.8,704.6c-0.9-0.6-1.6-1.4-2.1-2.4c-0.5-1-0.7-2.2-0.7-3.4c0-1.3,0.2-2.4,0.7-3.4s1.2-1.8,2.1-2.4
			c0.9-0.6,2.1-0.9,3.5-0.9c1.4,0,2.5,0.3,3.5,0.9c1,0.6,1.7,1.4,2.1,2.4c0.5,1,0.7,2.1,0.7,3.4c0,1.3-0.2,2.4-0.7,3.4
			c-0.5,1-1.2,1.8-2.1,2.4c-1,0.6-2.1,0.9-3.5,0.9C554.9,705.5,553.7,705.2,552.8,704.6z M552.4,701.7c0.3,0.8,0.8,1.3,1.4,1.7
			s1.4,0.5,2.4,0.5c1,0,1.7-0.2,2.4-0.5s1.1-0.9,1.4-1.7c0.3-0.8,0.5-1.7,0.5-2.8c0-1.2-0.2-2.1-0.5-2.9c-0.3-0.7-0.8-1.3-1.4-1.6
			s-1.4-0.5-2.4-0.5c-1,0-1.8,0.2-2.4,0.5s-1.1,0.9-1.4,1.6c-0.3,0.7-0.5,1.7-0.5,2.9C551.9,700,552.1,700.9,552.4,701.7z"/>
		<path d="M565.2,692.6h2v3.9l0,0.4v8.2h-2V692.6z M567,696.3c0.4-1.2,0.9-2.2,1.7-2.9s1.8-1.1,3-1.1h0.5v2h-0.6
			c-1.2,0-2.1,0.2-2.8,0.7c-0.7,0.5-1.1,1.2-1.4,2.1c-0.2,0.9-0.4,2-0.4,3.3h-0.7C566.5,698.9,566.7,697.5,567,696.3z"/>
		<path d="M576.4,704.7c-0.4-0.2-0.7-0.5-0.9-0.9c-0.2-0.4-0.3-1-0.3-1.7v-8h-2.4V693l2.6-0.6l0.8-2.6h1.1v2.8h4.1v1.6h-4.1v9.3h4
			v1.6h-3C577.4,705.1,576.8,705,576.4,704.7z"/>
		<path d="M585.1,705c-0.6-0.3-1.1-0.7-1.5-1.2c-0.4-0.5-0.5-1.2-0.5-2c0-0.7,0.1-1.3,0.4-1.8c0.3-0.5,0.7-0.9,1.2-1.2
			c0.6-0.3,1.3-0.6,2.2-0.7l3.2-0.5c0.7-0.1,1.1-0.3,1.4-0.5c0.3-0.2,0.4-0.6,0.4-1s-0.1-0.9-0.3-1.2c-0.2-0.3-0.5-0.6-0.9-0.8
			c-0.5-0.2-1.1-0.3-1.9-0.3c-1.2,0-2,0.2-2.6,0.7c-0.5,0.5-0.8,1.2-0.9,2h-2c0-0.9,0.3-1.6,0.7-2.3c0.4-0.7,1-1.2,1.8-1.5
			c0.8-0.4,1.8-0.5,2.9-0.5c1.1,0,2,0.2,2.8,0.5s1.3,0.8,1.6,1.3s0.5,1.2,0.5,2v6c0,0.5,0,1,0,1.5c0,0.5,0.1,1.1,0.1,1.6h-1.8
			c-0.1-0.5-0.1-1-0.1-1.5c0-0.5,0-1,0-1.4c-0.2,0.6-0.5,1.1-0.9,1.6c-0.4,0.5-0.9,0.9-1.5,1.2s-1.4,0.5-2.3,0.5
			C586.4,705.4,585.7,705.2,585.1,705z M590,703.2c0.6-0.4,1.1-1,1.5-1.7c0.3-0.7,0.5-1.5,0.5-2.3v-1.1c-0.3,0.2-0.5,0.3-0.8,0.5
			s-0.6,0.2-1.1,0.3l-0.3,0.1l-2.1,0.4c-0.9,0.2-1.5,0.5-1.9,0.8c-0.4,0.4-0.6,0.9-0.6,1.5c0,0.7,0.2,1.2,0.7,1.6
			c0.4,0.4,1,0.5,1.8,0.5C588.5,703.8,589.3,703.6,590,703.2z"/>
		<path d="M598.9,704.7c-0.4-0.2-0.7-0.5-0.9-0.9c-0.2-0.4-0.3-1-0.3-1.7v-8h-2.4V693l2.6-0.6l0.8-2.6h1.1v2.8h4.1v1.6h-4.1v9.3h4
			v1.6h-3C599.9,705.1,599.3,705,598.9,704.7z"/>
		<path d="M607.6,705c-0.6-0.3-1.1-0.7-1.5-1.2c-0.4-0.5-0.5-1.2-0.5-2c0-0.7,0.1-1.3,0.4-1.8c0.3-0.5,0.7-0.9,1.2-1.2
			c0.6-0.3,1.3-0.6,2.2-0.7l3.2-0.5c0.7-0.1,1.1-0.3,1.4-0.5c0.3-0.2,0.4-0.6,0.4-1s-0.1-0.9-0.3-1.2c-0.2-0.3-0.5-0.6-0.9-0.8
			c-0.5-0.2-1.1-0.3-1.9-0.3c-1.2,0-2,0.2-2.6,0.7s-0.8,1.2-0.9,2h-2c0-0.9,0.3-1.6,0.7-2.3c0.4-0.7,1-1.2,1.8-1.5
			c0.8-0.4,1.8-0.5,2.9-0.5c1.1,0,2,0.2,2.8,0.5s1.3,0.8,1.6,1.3c0.4,0.6,0.5,1.2,0.5,2v6c0,0.5,0,1,0,1.5c0,0.5,0.1,1.1,0.1,1.6
			h-1.8c-0.1-0.5-0.1-1-0.1-1.5c0-0.5,0-1,0-1.4c-0.2,0.6-0.5,1.1-0.8,1.6c-0.4,0.5-0.9,0.9-1.5,1.2s-1.4,0.5-2.3,0.5
			C608.9,705.4,608.2,705.2,607.6,705z M612.5,703.2c0.6-0.4,1.1-1,1.5-1.7c0.3-0.7,0.5-1.5,0.5-2.3v-1.1c-0.3,0.2-0.5,0.3-0.8,0.5
			c-0.3,0.1-0.6,0.2-1.1,0.3l-0.3,0.1l-2.1,0.4c-0.9,0.2-1.5,0.5-1.9,0.8c-0.4,0.4-0.6,0.9-0.6,1.5c0,0.7,0.2,1.2,0.7,1.6
			s1,0.5,1.8,0.5C611,703.8,611.8,703.6,612.5,703.2z"/>
		<path d="M626.9,704.6c-0.9-0.6-1.6-1.4-2.1-2.4c-0.4-1-0.7-2.1-0.7-3.5c0-1.3,0.2-2.4,0.7-3.4s1.2-1.8,2.1-2.4
			c0.9-0.6,2.1-0.9,3.4-0.9c1.2,0,2.3,0.3,3.2,0.8c0.9,0.5,1.6,1.3,2,2.2c0.5,0.9,0.7,2,0.7,3.2v0.3c0,0.1,0,0.3,0,0.5h-10.5v-1.5
			h9.4l-0.9,0.9c0-1.1-0.1-2.1-0.4-2.8s-0.7-1.3-1.3-1.6c-0.6-0.3-1.3-0.5-2.2-0.5c-0.9,0-1.7,0.2-2.3,0.5s-1.1,0.9-1.4,1.6
			c-0.3,0.8-0.5,1.7-0.5,3s0.2,2.2,0.5,3c0.4,0.8,0.8,1.3,1.5,1.7c0.6,0.3,1.4,0.5,2.3,0.5c0.8,0,1.5-0.1,2-0.3
			c0.5-0.2,1-0.5,1.3-0.9s0.5-0.9,0.7-1.4h1.8c-0.1,0.7-0.3,1.4-0.8,2c-0.4,0.6-1,1.2-1.9,1.6c-0.8,0.4-1.9,0.6-3.2,0.6
			C629,705.5,627.9,705.2,626.9,704.6z"/>
		<path d="M638.8,692.6h2v3.9l0,0.4v8.2h-2V692.6z M640.6,696.3c0.4-1.2,0.9-2.2,1.7-2.9c0.8-0.7,1.8-1.1,3-1.1h0.5v2h-0.5
			c-1.2,0-2.1,0.2-2.8,0.7s-1.1,1.2-1.3,2.1c-0.2,0.9-0.4,2-0.4,3.3h-0.7C640.1,698.9,640.3,697.5,640.6,696.3z"/>
		<path d="M650,704.6c-0.9-0.6-1.6-1.4-2.1-2.4c-0.5-1-0.7-2.2-0.7-3.4c0-1.3,0.2-2.4,0.7-3.4c0.5-1,1.2-1.8,2.1-2.4
			c0.9-0.6,2.1-0.9,3.5-0.9c1.3,0,2.5,0.3,3.5,0.9c1,0.6,1.7,1.4,2.1,2.4c0.5,1,0.7,2.1,0.7,3.4c0,1.3-0.2,2.4-0.7,3.4
			c-0.5,1-1.2,1.8-2.1,2.4c-1,0.6-2.1,0.9-3.5,0.9C652.1,705.5,651,705.2,650,704.6z M649.7,701.7c0.3,0.8,0.8,1.3,1.4,1.7
			s1.4,0.5,2.4,0.5c1,0,1.7-0.2,2.4-0.5s1.1-0.9,1.4-1.7c0.3-0.8,0.5-1.7,0.5-2.8c0-1.2-0.2-2.1-0.5-2.9c-0.3-0.7-0.8-1.3-1.4-1.6
			s-1.4-0.5-2.4-0.5c-1,0-1.8,0.2-2.4,0.5s-1.1,0.9-1.4,1.6c-0.3,0.7-0.5,1.7-0.5,2.9C649.2,700,649.4,700.9,649.7,701.7z"/>
		<path d="M664.1,704c-0.9-0.5-1.5-1.2-1.9-2.2c-0.4-0.9-0.6-2.1-0.6-3.4c0-2,0.5-3.5,1.5-4.6c1-1.1,2.4-1.7,4.3-1.7
			c1.8,0,3.1,0.5,4,1.6c0.9,1.1,1.3,2.6,1.3,4.6c0,1.4-0.2,2.6-0.6,3.5c-0.4,0.9-1,1.6-1.8,2.1s-1.8,0.7-3,0.7
			C666.1,704.8,665,704.5,664.1,704z M664.7,709.8c-0.9-0.3-1.5-0.9-2-1.5c-0.5-0.7-0.7-1.5-0.8-2.4h2c0,0.6,0.2,1.1,0.5,1.5
			c0.3,0.4,0.7,0.8,1.3,1c0.6,0.2,1.3,0.4,2.2,0.4c1,0,1.8-0.1,2.4-0.4s1.1-0.6,1.3-1.2c0.3-0.5,0.4-1.3,0.4-2.1v-12.5h2v12.5
			c0,1.1-0.2,2.1-0.6,2.9c-0.4,0.8-1.1,1.4-2,1.8c-0.9,0.4-2.1,0.6-3.6,0.6C666.6,710.3,665.5,710.2,664.7,709.8z M670.1,702.7
			c0.6-0.3,1.1-0.8,1.4-1.5c0.3-0.7,0.5-1.6,0.5-2.7c0-1.1-0.2-2-0.5-2.7c-0.3-0.7-0.8-1.2-1.4-1.5c-0.6-0.3-1.4-0.5-2.3-0.5
			c-1,0-1.8,0.2-2.4,0.5c-0.6,0.3-1.1,0.8-1.4,1.5c-0.3,0.7-0.5,1.6-0.5,2.7c0,1.1,0.2,2,0.5,2.7c0.3,0.7,0.8,1.2,1.4,1.5
			c0.6,0.3,1.4,0.5,2.4,0.5C668.7,703.2,669.5,703,670.1,702.7z"/>
		<path d="M678.7,705c-0.6-0.3-1.1-0.7-1.4-1.2c-0.4-0.5-0.5-1.2-0.5-2c0-0.7,0.1-1.3,0.4-1.8c0.3-0.5,0.7-0.9,1.2-1.2
			c0.6-0.3,1.3-0.6,2.2-0.7l3.2-0.5c0.7-0.1,1.1-0.3,1.4-0.5c0.3-0.2,0.4-0.6,0.4-1s-0.1-0.9-0.3-1.2c-0.2-0.3-0.5-0.6-1-0.8
			c-0.4-0.2-1.1-0.3-1.8-0.3c-1.2,0-2,0.2-2.6,0.7c-0.5,0.5-0.8,1.2-0.9,2h-2c0-0.9,0.3-1.6,0.7-2.3c0.4-0.7,1-1.2,1.8-1.5
			s1.8-0.5,2.9-0.5c1.1,0,2,0.2,2.8,0.5s1.3,0.8,1.7,1.3s0.5,1.2,0.5,2v6c0,0.5,0,1,0,1.5c0,0.5,0.1,1.1,0.1,1.6h-1.8
			c-0.1-0.5-0.1-1-0.1-1.5c0-0.5,0-1,0-1.4c-0.2,0.6-0.5,1.1-0.9,1.6c-0.4,0.5-0.9,0.9-1.5,1.2s-1.4,0.5-2.3,0.5
			C680.1,705.4,679.4,705.2,678.7,705z M683.7,703.2c0.6-0.4,1.1-1,1.4-1.7s0.5-1.5,0.5-2.3v-1.1c-0.3,0.2-0.5,0.3-0.8,0.5
			s-0.6,0.2-1.1,0.3l-0.3,0.1l-2.1,0.4c-0.9,0.2-1.5,0.5-1.9,0.8c-0.4,0.4-0.6,0.9-0.6,1.5c0,0.7,0.2,1.2,0.7,1.6s1,0.5,1.8,0.5
			C682.2,703.8,683,703.6,683.7,703.2z"/>
		<path d="M692.6,704.7c-0.4-0.2-0.7-0.5-0.9-0.9c-0.2-0.4-0.3-1-0.3-1.7v-8H689V693l2.6-0.6l0.8-2.6h1.1v2.8h4.1v1.6h-4.1v9.3h3.9
			v1.6h-2.9C693.6,705.1,693,705,692.6,704.7z"/>
		<path d="M701.2,705c-0.6-0.3-1.1-0.7-1.4-1.2c-0.4-0.5-0.5-1.2-0.5-2c0-0.7,0.1-1.3,0.4-1.8c0.3-0.5,0.7-0.9,1.2-1.2
			c0.6-0.3,1.3-0.6,2.2-0.7l3.2-0.5c0.7-0.1,1.1-0.3,1.4-0.5c0.3-0.2,0.4-0.6,0.4-1s-0.1-0.9-0.3-1.2c-0.2-0.3-0.5-0.6-1-0.8
			c-0.4-0.2-1.1-0.3-1.8-0.3c-1.2,0-2,0.2-2.6,0.7c-0.5,0.5-0.8,1.2-0.9,2h-2c0-0.9,0.3-1.6,0.7-2.3c0.4-0.7,1-1.2,1.8-1.5
			s1.8-0.5,2.9-0.5c1.1,0,2,0.2,2.8,0.5s1.3,0.8,1.7,1.3s0.5,1.2,0.5,2v6c0,0.5,0,1,0,1.5c0,0.5,0.1,1.1,0.1,1.6h-1.8
			c-0.1-0.5-0.1-1-0.1-1.5c0-0.5,0-1,0-1.4c-0.2,0.6-0.5,1.1-0.9,1.6c-0.4,0.5-0.9,0.9-1.5,1.2s-1.4,0.5-2.3,0.5
			C702.6,705.4,701.9,705.2,701.2,705z M706.2,703.2c0.6-0.4,1.1-1,1.4-1.7s0.5-1.5,0.5-2.3v-1.1c-0.3,0.2-0.5,0.3-0.8,0.5
			s-0.6,0.2-1.1,0.3l-0.3,0.1l-2.1,0.4c-0.9,0.2-1.5,0.5-1.9,0.8c-0.4,0.4-0.6,0.9-0.6,1.5c0,0.7,0.2,1.2,0.7,1.6s1,0.5,1.8,0.5
			C704.7,703.8,705.5,703.6,706.2,703.2z"/>
	</g>
</g>
<rect x="17.2" y="684.3" class="st0" width="24" height="24"/>
<g>
	<rect x="287.5" y="684.3" class="st4" width="24" height="24"/>
</g>
</svg>
