<?xml version="1.0" encoding="utf-8"?>
<!-- Generator: Adobe Illustrator 25.2.0, SVG Export Plug-In . SVG Version: 6.00 Build 0)  -->
<svg version="1.1" id="Livello_1" xmlns="http://www.w3.org/2000/svg" xmlns:xlink="http://www.w3.org/1999/xlink" x="0px" y="0px"
	 viewBox="0 0 1210.9 740.6" style="enable-background:new 0 0 1210.9 740.6;" xml:space="preserve">
<style type="text/css">
	.st0{enable-background:new    ;}
	.st1{fill:none;stroke:#000000;stroke-width:0.5;stroke-linecap:square;stroke-linejoin:round;}
	.st2{fill:none;stroke:#000000;stroke-width:0.25;stroke-linecap:square;stroke-linejoin:round;}
	.st3{fill:none;stroke:#000000;stroke-width:0.75;stroke-linecap:square;stroke-linejoin:round;}
	.st4{fill:none;stroke:#6691E0;stroke-width:4;stroke-linejoin:round;}
	.st5{fill:none;stroke:#003599;stroke-width:5;stroke-linejoin:round;stroke-dasharray:1,5;}
	.st6{fill:none;stroke:#99B5EB;stroke-width:5;stroke-linejoin:round;stroke-dasharray:1,5;}
	.st7{fill:none;stroke:#000000;stroke-width:0.75;}
	.st8{fill:none;stroke:#000000;stroke-width:0.75;stroke-miterlimit:10;stroke-dasharray:0.3456,1.3824;}
	.st9{fill:none;stroke:#000000;stroke-width:0.75;stroke-miterlimit:10;stroke-dasharray:0.3411,1.3643;}
	.st10{fill:none;stroke:#000000;}
</style>
<g id="Livello_1_1_">
	<g>
		<g class="st0">
			<path d="M1144.5,160.9h-1.3v-9.6l-3.6,9.6h-1.8l-3.6-9.6v9.6h-1.3v-10.6h2.3l3.5,9.4l3.5-9.4h2.3V160.9z"/>
			<path d="M1154.5,160.9l-1-2.7h-5.3l-1,2.7h-1.3l4-10.6h2l4,10.6H1154.5z M1148.6,157.1h4.5l-2.2-5.9L1148.6,157.1z"/>
			<path d="M1158.1,160.9h-1.6l4.3-5.9l0.8,1L1158.1,160.9z M1156.6,150.3h1.6l8,10.6h-1.7L1156.6,150.3z M1164.4,150.3h1.6
				l-4.2,5.8l-0.8-1L1164.4,150.3z"/>
		</g>
	</g>
	<g>
		<g class="st0">
			<path d="M1144.5,544.8h-1.3v-9.6l-3.6,9.6h-1.8l-3.6-9.6v9.6h-1.3v-10.6h2.3l3.5,9.4l3.5-9.4h2.3V544.8z"/>
			<path d="M1146.4,534.2h5.8v1.1h-5.8V534.2z M1146.4,543.7h5.8v1.1h-5.8V543.7z M1148.7,534.7h1.3v9.6h-1.3V534.7z"/>
			<path d="M1161.9,534.2h1.3v10.6h-2.2l-4.8-8.4c-0.3-0.6-0.5-1-0.7-1.4v9.7h-1.3v-10.6h2.2l4.8,8.4c0.2,0.3,0.4,0.8,0.7,1.4V534.2
				z"/>
		</g>
	</g>
	<line class="st1" x1="69.9" y1="650.8" x2="69.9" y2="84.7"/>
	<line class="st2" x1="1188.1" y1="650.8" x2="1188.1" y2="84.7"/>
	<line class="st2" x1="180.4" y1="650.8" x2="180.4" y2="84.7"/>
	<line class="st2" x1="106.6" y1="650.8" x2="106.6" y2="644.6"/>
	<line class="st2" x1="143.5" y1="650.8" x2="143.5" y2="644.6"/>
	<line class="st2" x1="292" y1="650.8" x2="292" y2="84.7"/>
	<line class="st2" x1="218.2" y1="650.8" x2="218.2" y2="644.6"/>
	<line class="st2" x1="255" y1="650.8" x2="255" y2="644.6"/>
	<line class="st2" x1="365.7" y1="650.8" x2="365.7" y2="644.6"/>
	<line class="st2" x1="328.8" y1="650.8" x2="328.8" y2="644.6"/>
	<line class="st2" x1="404.8" y1="650.8" x2="404.8" y2="84.7"/>
	<line class="st2" x1="441.7" y1="650.8" x2="441.7" y2="644.6"/>
	<line class="st2" x1="480.8" y1="650.8" x2="480.8" y2="644.6"/>
	<line class="st1" x1="517.6" y1="650.8" x2="517.6" y2="84.7"/>
	<line class="st2" x1="556.7" y1="650.8" x2="556.7" y2="644.6"/>
	<line class="st2" x1="593.6" y1="650.8" x2="593.6" y2="644.6"/>
	<line class="st2" x1="627.9" y1="650.8" x2="627.9" y2="84.7"/>
	<line class="st2" x1="668.3" y1="650.8" x2="668.3" y2="644.6"/>
	<line class="st2" x1="705.1" y1="650.8" x2="705.1" y2="644.6"/>
	<line class="st2" x1="739.5" y1="650.8" x2="739.5" y2="84.7"/>
	<line class="st2" x1="776.4" y1="650.8" x2="776.4" y2="644.6"/>
	<line class="st2" x1="810.8" y1="650.8" x2="810.8" y2="644.6"/>
	<line class="st2" x1="852.3" y1="650.8" x2="852.3" y2="84.7"/>
	<line class="st2" x1="886.7" y1="650.8" x2="886.7" y2="644.6"/>
	<line class="st2" x1="928.2" y1="650.8" x2="928.2" y2="644.6"/>
	<line class="st1" x1="965.2" y1="650.8" x2="965.2" y2="84.7"/>
	<line class="st2" x1="1006.7" y1="650.8" x2="1006.7" y2="644.6"/>
	<line class="st2" x1="1043.7" y1="650.8" x2="1043.7" y2="644.6"/>
	<line class="st2" x1="1075.5" y1="650.8" x2="1075.5" y2="84.7"/>
	<line class="st2" x1="1112.4" y1="650.8" x2="1112.4" y2="644.6"/>
	<line class="st2" x1="1144.2" y1="650.8" x2="1144.2" y2="644.6"/>
	<line class="st1" x1="69.9" y1="650.8" x2="63.9" y2="650.8"/>
	<line class="st1" x1="69.9" y1="613" x2="63.9" y2="613"/>
	<line class="st1" x1="69.9" y1="575.3" x2="63.9" y2="575.3"/>
	<line class="st1" x1="69.9" y1="537.6" x2="63.9" y2="537.6"/>
	<line class="st3" x1="69.9" y1="499.8" x2="63.9" y2="499.8"/>
	<line class="st1" x1="69.9" y1="462.1" x2="63.9" y2="462.1"/>
	<line class="st1" x1="69.9" y1="424.3" x2="63.9" y2="424.3"/>
	<line class="st1" x1="69.9" y1="386.6" x2="63.9" y2="386.6"/>
	<line class="st1" x1="69.9" y1="348.9" x2="63.9" y2="348.9"/>
	<line class="st1" x1="69.9" y1="311.1" x2="63.9" y2="311.1"/>
	<line class="st1" x1="69.9" y1="273.4" x2="63.9" y2="273.4"/>
	<line class="st1" x1="69.9" y1="235.7" x2="63.9" y2="235.7"/>
	<line class="st1" x1="69.9" y1="197.9" x2="63.9" y2="197.9"/>
	<line class="st1" x1="69.9" y1="160.2" x2="63.9" y2="160.2"/>
	<line class="st1" x1="69.9" y1="122.4" x2="63.9" y2="122.4"/>
	<line class="st1" x1="69.9" y1="84.6" x2="63.9" y2="84.6"/>
	<line class="st1" x1="69.9" y1="650.8" x2="63.9" y2="650.8"/>
	<g>
		<g>
			<g class="st0">
				<path d="M33,651v1h-6.4v-1H33z"/>
				<path d="M36.2,655.3c-0.6-0.3-1.1-0.7-1.4-1.1s-0.4-1-0.4-1.5c0-0.7,0.2-1.2,0.6-1.7c0.4-0.5,0.9-0.8,1.6-1
					c-0.6-0.2-1-0.5-1.4-1c-0.3-0.4-0.5-0.9-0.5-1.5c0-0.5,0.1-1,0.4-1.4s0.7-0.8,1.3-1c0.6-0.3,1.3-0.4,2.2-0.4s1.6,0.1,2.2,0.4
					c0.6,0.3,1,0.6,1.3,1s0.4,0.9,0.4,1.4c0,0.6-0.2,1.1-0.5,1.5s-0.8,0.8-1.4,1c0.5,0.1,0.8,0.4,1.2,0.6s0.6,0.6,0.7,0.9
					c0.2,0.4,0.2,0.8,0.2,1.2c0,0.6-0.1,1.1-0.4,1.5s-0.7,0.8-1.4,1.1c-0.6,0.3-1.4,0.4-2.4,0.4S36.8,655.6,36.2,655.3z M40.1,654.4
					c0.4-0.2,0.7-0.4,0.9-0.7c0.2-0.3,0.3-0.7,0.3-1.1c0-0.7-0.2-1.2-0.7-1.6c-0.5-0.4-1.2-0.6-2.1-0.6c-0.6,0-1.1,0.1-1.6,0.3
					c-0.4,0.2-0.7,0.4-0.9,0.7s-0.3,0.7-0.3,1.1c0,0.6,0.2,1.1,0.7,1.5s1.2,0.6,2.1,0.6C39.2,654.7,39.7,654.6,40.1,654.4z
					 M40,649.2c0.4-0.2,0.7-0.4,0.8-0.7c0.2-0.3,0.3-0.6,0.3-1c0-0.6-0.2-1-0.6-1.4c-0.4-0.3-1.1-0.5-2-0.5c-0.6,0-1.1,0.1-1.5,0.2
					c-0.4,0.2-0.7,0.4-0.9,0.7c-0.2,0.3-0.3,0.6-0.3,1s0.1,0.7,0.3,1s0.5,0.5,0.8,0.7s0.9,0.3,1.5,0.3C39,649.5,39.6,649.4,40,649.2
					z"/>
				<path d="M46.3,655.1c-0.7-0.5-1.2-1.1-1.6-2c-0.3-0.8-0.5-1.8-0.5-2.9s0.2-2.1,0.5-2.9c0.3-0.8,0.9-1.5,1.6-2
					c0.7-0.5,1.6-0.7,2.7-0.7c1.1,0,2,0.2,2.7,0.7s1.2,1.1,1.6,2s0.5,1.8,0.5,2.9s-0.2,2.1-0.5,2.9s-0.9,1.5-1.6,2
					c-0.7,0.5-1.6,0.7-2.7,0.7S47,655.5,46.3,655.1z M46,652.7c0.2,0.7,0.6,1.2,1.1,1.5s1.1,0.5,1.9,0.5c0.8,0,1.4-0.2,1.9-0.5
					s0.9-0.8,1.1-1.5c0.2-0.7,0.4-1.5,0.4-2.5s-0.1-1.9-0.4-2.5c-0.2-0.7-0.6-1.2-1.1-1.5s-1.1-0.5-1.9-0.5c-0.8,0-1.4,0.2-1.9,0.5
					s-0.9,0.8-1.1,1.5c-0.2,0.7-0.4,1.5-0.4,2.5C45.6,651.2,45.7,652,46,652.7z"/>
			</g>
		</g>
	</g>
	<g>
		<g>
			<g class="st0">
				<path d="M33,613.3v1h-6.4v-1H33z"/>
				<path d="M36.3,617.5c-0.6-0.4-1.1-0.9-1.5-1.8c-0.4-0.8-0.5-1.9-0.5-3.1c0-1.2,0.2-2.2,0.5-3.1c0.3-0.9,0.9-1.5,1.5-2
					c0.6-0.5,1.5-0.7,2.5-0.7c0.8,0,1.5,0.1,2,0.4c0.5,0.2,0.9,0.6,1.2,1c0.3,0.4,0.5,1,0.6,1.6h-1.3c-0.1-0.4-0.2-0.7-0.4-1
					c-0.2-0.3-0.5-0.5-0.8-0.7c-0.4-0.2-0.8-0.2-1.3-0.2c-1.1,0-1.9,0.4-2.5,1.2c-0.5,0.8-0.8,2-0.8,3.8v1l-0.3-0.2
					c0.2-0.8,0.6-1.4,1.3-1.9s1.5-0.7,2.4-0.7c0.7,0,1.3,0.1,1.9,0.4c0.6,0.3,1,0.6,1.3,1.1s0.5,1.1,0.5,1.8s-0.2,1.3-0.5,1.8
					s-0.8,1-1.4,1.3c-0.6,0.3-1.3,0.5-2.2,0.5C37.7,618,37,617.9,36.3,617.5z M40.6,616.3c0.4-0.4,0.7-1,0.7-1.8s-0.2-1.4-0.7-1.8
					c-0.4-0.4-1.1-0.7-1.9-0.7c-0.6,0-1,0.1-1.5,0.3c-0.4,0.2-0.8,0.5-1,0.8c-0.2,0.4-0.4,0.8-0.4,1.3c0,0.7,0.2,1.3,0.7,1.8
					c0.5,0.4,1.1,0.7,2,0.7C39.5,616.9,40.1,616.7,40.6,616.3z"/>
				<path d="M46.3,617.3c-0.7-0.5-1.2-1.1-1.6-2c-0.3-0.8-0.5-1.8-0.5-2.9s0.2-2.1,0.5-2.9c0.3-0.8,0.9-1.5,1.6-2
					c0.7-0.5,1.6-0.7,2.7-0.7c1.1,0,2,0.2,2.7,0.7s1.2,1.1,1.6,2s0.5,1.8,0.5,2.9s-0.2,2.1-0.5,2.9s-0.9,1.5-1.6,2
					c-0.7,0.5-1.6,0.7-2.7,0.7S47,617.8,46.3,617.3z M46,614.9c0.2,0.7,0.6,1.2,1.1,1.5s1.1,0.5,1.9,0.5c0.8,0,1.4-0.2,1.9-0.5
					s0.9-0.8,1.1-1.5c0.2-0.7,0.4-1.5,0.4-2.5s-0.1-1.9-0.4-2.5c-0.2-0.7-0.6-1.2-1.1-1.5s-1.1-0.5-1.9-0.5c-0.8,0-1.4,0.2-1.9,0.5
					s-0.9,0.8-1.1,1.5c-0.2,0.7-0.4,1.5-0.4,2.5C45.6,613.4,45.7,614.3,46,614.9z"/>
			</g>
		</g>
	</g>
	<g>
		<g>
			<g class="st0">
				<path d="M33,575.6v1h-6.4v-1H33z"/>
				<path d="M39.9,577.3h-5.8v-1.1l5.1-6.9h1.4l-5.1,6.9h4.4v-6.9h1.3v6.9H43v1.1h-1.8v2.7h-1.3V577.3z"/>
				<path d="M46.4,579.6c-0.7-0.5-1.2-1.1-1.6-2c-0.3-0.8-0.5-1.8-0.5-2.9s0.2-2.1,0.5-2.9c0.3-0.8,0.9-1.5,1.6-2
					c0.7-0.5,1.6-0.7,2.7-0.7c1.1,0,2,0.2,2.7,0.7s1.2,1.1,1.6,2s0.5,1.8,0.5,2.9s-0.2,2.1-0.5,2.9s-0.9,1.5-1.6,2
					c-0.7,0.5-1.6,0.7-2.7,0.7S47.1,580.1,46.4,579.6z M46,577.2c0.2,0.7,0.6,1.2,1.1,1.5s1.1,0.5,1.9,0.5c0.8,0,1.4-0.2,1.9-0.5
					s0.9-0.8,1.1-1.5c0.2-0.7,0.4-1.5,0.4-2.5s-0.1-1.9-0.4-2.5c-0.2-0.7-0.6-1.2-1.1-1.5s-1.1-0.5-1.9-0.5c-0.8,0-1.4,0.2-1.9,0.5
					s-0.9,0.8-1.1,1.5c-0.2,0.7-0.4,1.5-0.4,2.5C45.7,575.7,45.8,576.5,46,577.2z"/>
			</g>
		</g>
	</g>
	<g>
		<g>
			<g class="st0">
				<path d="M33,537.8v1h-6.4v-1H33z"/>
				<path d="M34.6,541.2l5.3-4.4c0.5-0.4,0.9-0.8,1.1-1.2c0.2-0.3,0.3-0.8,0.3-1.2c0-0.6-0.2-1-0.6-1.4c-0.4-0.4-0.9-0.5-1.7-0.5
					c-0.7,0-1.3,0.1-1.7,0.4c-0.4,0.3-0.8,0.6-1,1.2c-0.2,0.5-0.3,1.1-0.3,1.9h-1.4c0-0.9,0.2-1.6,0.5-2.3s0.8-1.2,1.4-1.6
					c0.6-0.4,1.5-0.6,2.5-0.6c0.9,0,1.6,0.1,2.1,0.4c0.5,0.3,0.9,0.6,1.2,1.1c0.3,0.4,0.4,1,0.4,1.5c0,0.7-0.2,1.3-0.6,1.9
					c-0.4,0.6-1,1.2-2,2l-3.6,3h6.4v1.1h-8.3V541.2z"/>
				<path d="M46.5,541.8c-0.7-0.5-1.2-1.1-1.6-2c-0.3-0.8-0.5-1.8-0.5-2.9s0.2-2.1,0.5-2.9c0.3-0.8,0.9-1.5,1.6-2
					c0.7-0.5,1.6-0.7,2.7-0.7c1.1,0,2,0.2,2.7,0.7s1.2,1.1,1.6,2c0.3,0.8,0.5,1.8,0.5,2.9s-0.2,2.1-0.5,2.9c-0.3,0.8-0.9,1.5-1.6,2
					c-0.7,0.5-1.6,0.7-2.7,0.7C48.2,542.6,47.3,542.3,46.5,541.8z M46.2,539.5c0.2,0.7,0.6,1.2,1.1,1.5s1.1,0.5,1.9,0.5
					c0.8,0,1.4-0.2,1.9-0.5s0.9-0.8,1.1-1.5c0.2-0.7,0.4-1.5,0.4-2.5s-0.1-1.9-0.4-2.5s-0.6-1.2-1.1-1.5s-1.1-0.5-1.9-0.5
					c-0.8,0-1.4,0.2-1.9,0.5s-0.9,0.8-1.1,1.5c-0.2,0.7-0.4,1.5-0.4,2.5C45.8,538,46,538.8,46.2,539.5z"/>
			</g>
		</g>
	</g>
	<g>
		<g>
			<g class="st0">
				<path d="M28.9,504.1c-0.7-0.5-1.2-1.1-1.6-2c-0.3-0.8-0.5-1.8-0.5-2.9s0.2-2.1,0.5-2.9s0.9-1.5,1.6-2s1.6-0.7,2.7-0.7
					c1.1,0,2,0.2,2.7,0.7s1.2,1.1,1.6,2c0.4,0.9,0.5,1.8,0.5,2.9s-0.2,2.1-0.5,2.9s-0.9,1.5-1.6,2s-1.6,0.7-2.7,0.7
					C30.5,504.8,29.6,504.6,28.9,504.1z M28.6,501.7c0.2,0.7,0.6,1.2,1.1,1.5s1.1,0.5,1.9,0.5s1.4-0.2,1.9-0.5s0.9-0.8,1.1-1.5
					s0.4-1.5,0.4-2.5s-0.1-1.9-0.4-2.5s-0.6-1.2-1.1-1.5s-1.1-0.5-1.9-0.5s-1.4,0.2-1.9,0.5s-0.9,0.8-1.1,1.5s-0.4,1.5-0.4,2.5
					C28.2,500.2,28.3,501.1,28.6,501.7z"/>
			</g>
		</g>
	</g>
	<g>
		<g>
			<g class="st0">
				<path d="M27.1,465.7l5.3-4.4c0.5-0.4,0.9-0.8,1.1-1.2s0.3-0.8,0.3-1.2c0-0.6-0.2-1-0.6-1.4c-0.4-0.3-0.9-0.5-1.7-0.5
					c-0.7,0-1.3,0.1-1.7,0.4c-0.4,0.3-0.8,0.6-1,1.2c-0.2,0.5-0.3,1.1-0.3,1.9h-1.4c0-0.9,0.2-1.6,0.5-2.3s0.8-1.2,1.4-1.6
					c0.6-0.4,1.5-0.6,2.5-0.6c0.9,0,1.6,0.1,2.1,0.4s0.9,0.6,1.2,1.1c0.2,0.4,0.4,1,0.4,1.5c0,0.7-0.2,1.3-0.6,1.9
					c-0.4,0.6-1,1.2-2,2l-3.6,3h6.4v1.1h-8.3C27.1,467,27.1,465.7,27.1,465.7z"/>
				<path d="M39.1,466.4c-0.7-0.5-1.2-1.1-1.6-2c-0.3-0.8-0.5-1.8-0.5-2.9s0.2-2.1,0.5-2.9s0.9-1.5,1.6-2s1.6-0.7,2.7-0.7
					s2,0.2,2.7,0.7s1.2,1.1,1.6,2s0.5,1.8,0.5,2.9s-0.2,2.1-0.5,2.9s-0.9,1.5-1.6,2c-0.7,0.5-1.6,0.7-2.7,0.7S39.8,466.9,39.1,466.4
					z M38.7,464c0.2,0.7,0.6,1.2,1.1,1.5s1.1,0.5,1.9,0.5s1.4-0.2,1.9-0.5s0.9-0.8,1.1-1.5c0.2-0.7,0.4-1.5,0.4-2.5
					s-0.1-1.9-0.4-2.5c-0.2-0.7-0.6-1.2-1.1-1.5s-1.1-0.5-1.9-0.5s-1.4,0.2-1.9,0.5s-0.9,0.8-1.1,1.5s-0.4,1.5-0.4,2.5
					C38.4,462.5,38.5,463.3,38.7,464z"/>
			</g>
		</g>
	</g>
	<g>
		<g>
			<g class="st0">
				<path d="M32.5,426.4h-5.8v-1.1l5.1-6.9h1.4l-5.1,6.9h4.5v-6.9h1.3v6.9h1.8v1.1h-1.8v2.7h-1.3L32.5,426.4L32.5,426.4z"/>
				<path d="M38.9,428.6c-0.7-0.5-1.2-1.1-1.6-2c-0.3-0.8-0.5-1.8-0.5-2.9s0.2-2.1,0.5-2.9s0.9-1.5,1.6-2s1.6-0.7,2.7-0.7
					c1.1,0,2,0.2,2.7,0.7s1.2,1.1,1.6,2c0.3,0.8,0.5,1.8,0.5,2.9s-0.2,2.1-0.5,2.9s-0.9,1.5-1.6,2c-0.7,0.5-1.6,0.7-2.7,0.7
					C40.5,429.4,39.6,429.1,38.9,428.6z M38.6,426.3c0.2,0.7,0.6,1.2,1.1,1.5s1.1,0.5,1.9,0.5s1.4-0.2,1.9-0.5s0.9-0.8,1.1-1.5
					c0.2-0.7,0.4-1.5,0.4-2.5s-0.1-1.9-0.4-2.5c-0.2-0.7-0.6-1.2-1.1-1.5s-1.1-0.5-1.9-0.5s-1.4,0.2-1.9,0.5s-0.9,0.8-1.1,1.5
					s-0.4,1.5-0.4,2.5C38.2,424.8,38.3,425.6,38.6,426.3z"/>
			</g>
		</g>
	</g>
	<g>
		<g>
			<g class="st0">
				<path d="M28.9,391.1c-0.6-0.4-1.1-0.9-1.5-1.8c-0.4-0.8-0.5-1.9-0.5-3.1s0.2-2.2,0.5-3.1s0.9-1.5,1.5-2c0.6-0.5,1.5-0.7,2.5-0.7
					c0.8,0,1.5,0.1,2,0.4c0.5,0.2,0.9,0.6,1.2,1s0.5,1,0.6,1.6h-1.3c-0.1-0.4-0.2-0.7-0.4-1c-0.2-0.3-0.5-0.5-0.8-0.7
					c-0.4-0.2-0.8-0.2-1.3-0.2c-1.1,0-1.9,0.4-2.5,1.2c-0.5,0.8-0.8,2-0.8,3.8v1l-0.3-0.2c0.2-0.8,0.6-1.4,1.3-1.9s1.5-0.7,2.4-0.7
					c0.7,0,1.3,0.1,1.9,0.4c0.6,0.3,1,0.6,1.3,1.1s0.5,1.1,0.5,1.8c0,0.7-0.2,1.3-0.5,1.8s-0.8,1-1.4,1.3c-0.6,0.3-1.3,0.5-2.2,0.5
					C30.2,391.6,29.5,391.4,28.9,391.1z M33.1,389.9c0.4-0.4,0.7-1,0.7-1.8s-0.2-1.4-0.7-1.8s-1.1-0.7-1.9-0.7c-0.6,0-1,0.1-1.5,0.3
					c-0.4,0.2-0.8,0.5-1,0.8c-0.2,0.4-0.4,0.8-0.4,1.3c0,0.7,0.2,1.3,0.7,1.8c0.5,0.4,1.1,0.7,2,0.7C32,390.5,32.7,390.3,33.1,389.9
					z"/>
				<path d="M38.8,390.9c-0.7-0.5-1.2-1.1-1.6-2c-0.3-0.8-0.5-1.8-0.5-2.9s0.2-2.1,0.5-2.9s0.9-1.5,1.6-2s1.6-0.7,2.7-0.7
					c1.1,0,2,0.2,2.7,0.7s1.2,1.1,1.6,2s0.5,1.8,0.5,2.9s-0.2,2.1-0.5,2.9s-0.9,1.5-1.6,2c-0.7,0.5-1.6,0.7-2.7,0.7
					C40.5,391.6,39.6,391.4,38.8,390.9z M38.5,388.5c0.2,0.7,0.6,1.2,1.1,1.5s1.1,0.5,1.9,0.5s1.4-0.2,1.9-0.5s0.9-0.8,1.1-1.5
					c0.2-0.7,0.4-1.5,0.4-2.5s-0.1-1.9-0.4-2.5s-0.6-1.2-1.1-1.5s-1.1-0.5-1.9-0.5s-1.4,0.2-1.9,0.5s-0.9,0.8-1.1,1.5
					s-0.4,1.5-0.4,2.5S38.3,387.9,38.5,388.5z"/>
			</g>
		</g>
	</g>
	<g>
		<g>
			<g class="st0">
				<path d="M28.7,353.4c-0.6-0.3-1.1-0.7-1.4-1.1c-0.3-0.5-0.4-1-0.4-1.5c0-0.7,0.2-1.2,0.6-1.7c0.4-0.5,0.9-0.8,1.6-1
					c-0.6-0.2-1-0.5-1.4-1c-0.3-0.4-0.5-0.9-0.5-1.5c0-0.5,0.1-1,0.4-1.4s0.7-0.8,1.3-1c0.6-0.3,1.3-0.4,2.2-0.4s1.6,0.1,2.2,0.4
					c0.6,0.3,1,0.6,1.3,1s0.4,0.9,0.4,1.4c0,0.6-0.2,1.1-0.5,1.5s-0.8,0.8-1.4,1c0.5,0.1,0.8,0.4,1.2,0.6c0.3,0.3,0.6,0.6,0.7,0.9
					c0.2,0.4,0.2,0.8,0.2,1.2c0,0.6-0.1,1.1-0.4,1.5c-0.3,0.5-0.7,0.8-1.4,1.1c-0.7,0.3-1.4,0.4-2.4,0.4S29.3,353.7,28.7,353.4z
					 M32.6,352.5c0.4-0.2,0.7-0.4,0.9-0.7c0.2-0.3,0.3-0.7,0.3-1.1c0-0.7-0.2-1.2-0.7-1.6s-1.2-0.6-2.1-0.6c-0.6,0-1.1,0.1-1.6,0.3
					c-0.4,0.2-0.7,0.4-0.9,0.7c-0.2,0.3-0.3,0.7-0.3,1.1c0,0.6,0.2,1.1,0.7,1.5s1.2,0.6,2.1,0.6C31.7,352.8,32.2,352.7,32.6,352.5z
					 M32.5,347.3c0.4-0.2,0.7-0.4,0.8-0.7c0.2-0.3,0.3-0.6,0.3-1c0-0.6-0.2-1-0.6-1.4c-0.4-0.3-1.1-0.5-2-0.5
					c-0.6,0-1.1,0.1-1.5,0.2c-0.4,0.2-0.7,0.4-0.9,0.7c-0.2,0.3-0.3,0.6-0.3,1s0.1,0.7,0.3,1s0.5,0.5,0.8,0.7
					c0.4,0.2,0.9,0.3,1.5,0.3C31.6,347.6,32.1,347.5,32.5,347.3z"/>
				<path d="M38.8,353.2c-0.7-0.5-1.2-1.1-1.6-2c-0.3-0.8-0.5-1.8-0.5-2.9s0.2-2.1,0.5-2.9s0.9-1.5,1.6-2s1.6-0.7,2.7-0.7
					c1.1,0,2,0.2,2.7,0.7s1.2,1.1,1.6,2c0.3,0.8,0.5,1.8,0.5,2.9s-0.2,2.1-0.5,2.9s-0.9,1.5-1.6,2c-0.7,0.5-1.6,0.7-2.7,0.7
					C40.5,353.9,39.6,353.6,38.8,353.2z M38.5,350.8c0.2,0.7,0.6,1.2,1.1,1.5s1.1,0.5,1.9,0.5s1.4-0.2,1.9-0.5s0.9-0.8,1.1-1.5
					c0.2-0.7,0.4-1.5,0.4-2.5s-0.1-1.9-0.4-2.5c-0.2-0.7-0.6-1.2-1.1-1.5s-1.1-0.5-1.9-0.5s-1.4,0.2-1.9,0.5s-0.9,0.8-1.1,1.5
					s-0.4,1.5-0.4,2.5S38.3,350.1,38.5,350.8z"/>
			</g>
		</g>
	</g>
	<g>
		<g>
			<g class="st0">
				<path d="M27.1,314.8h2.5v-8.5h-2.5v-1.1h2.3c0.5,0,0.9,0.1,1.2,0.3c0.2,0.2,0.3,0.6,0.3,1v8.2h2.3v1.1h-6.1
					C27.1,315.8,27.1,314.8,27.1,314.8z"/>
				<path d="M36.4,315.4c-0.7-0.5-1.2-1.1-1.6-2c-0.3-0.8-0.5-1.8-0.5-2.9s0.2-2.1,0.5-2.9s0.9-1.5,1.6-2s1.6-0.7,2.7-0.7
					c1.1,0,2,0.2,2.7,0.7s1.2,1.1,1.6,2c0.3,0.8,0.5,1.8,0.5,2.9s-0.2,2.1-0.5,2.9s-0.9,1.5-1.6,2s-1.6,0.7-2.7,0.7
					S37.1,315.9,36.4,315.4z M36.1,313c0.2,0.7,0.6,1.2,1.1,1.5s1.1,0.5,1.9,0.5s1.4-0.2,1.9-0.5s0.9-0.8,1.1-1.5s0.4-1.5,0.4-2.5
					s-0.1-1.9-0.4-2.5c-0.2-0.7-0.6-1.2-1.1-1.5s-1.1-0.5-1.9-0.5s-1.4,0.2-1.9,0.5s-0.9,0.8-1.1,1.5s-0.4,1.5-0.4,2.5
					C35.7,311.5,35.8,312.4,36.1,313z"/>
				<path d="M47.5,315.4c-0.7-0.5-1.2-1.1-1.6-2c-0.3-0.8-0.5-1.8-0.5-2.9s0.2-2.1,0.5-2.9s0.9-1.5,1.6-2c0.7-0.5,1.6-0.7,2.7-0.7
					c1.1,0,2,0.2,2.7,0.7s1.2,1.1,1.6,2c0.3,0.8,0.5,1.8,0.5,2.9s-0.2,2.1-0.5,2.9s-0.9,1.5-1.6,2c-0.7,0.5-1.6,0.7-2.7,0.7
					C49.1,316.1,48.2,315.9,47.5,315.4z M47.1,313c0.2,0.7,0.6,1.2,1.1,1.5s1.1,0.5,1.9,0.5c0.8,0,1.4-0.2,1.9-0.5s0.9-0.8,1.1-1.5
					c0.2-0.7,0.4-1.5,0.4-2.5s-0.1-1.9-0.4-2.5s-0.6-1.2-1.1-1.5s-1.1-0.5-1.9-0.5c-0.8,0-1.4,0.2-1.9,0.5s-0.9,0.8-1.1,1.5
					c-0.2,0.7-0.4,1.5-0.4,2.5C46.8,311.5,46.9,312.4,47.1,313z"/>
			</g>
		</g>
	</g>
	<g>
		<g>
			<g class="st0">
				<path d="M27.1,277h2.5v-8.5h-2.5v-1h2.3c0.5,0,0.9,0.1,1.2,0.3c0.2,0.2,0.3,0.6,0.3,1v8.2h2.3v1.1h-6.1
					C27.1,278.1,27.1,277,27.1,277z"/>
				<path d="M34.6,277l5.3-4.4c0.5-0.4,0.9-0.8,1.1-1.2s0.3-0.8,0.3-1.2c0-0.6-0.2-1-0.6-1.4c-0.4-0.3-0.9-0.5-1.7-0.5
					c-0.7,0-1.3,0.1-1.7,0.4c-0.4,0.3-0.8,0.6-1,1.2c-0.2,0.5-0.3,1.1-0.3,1.9h-1.4c0-0.9,0.2-1.6,0.5-2.3s0.8-1.2,1.4-1.6
					c0.6-0.4,1.5-0.6,2.5-0.6c0.9,0,1.6,0.1,2.1,0.4s0.9,0.6,1.2,1.1c0.2,0.4,0.4,1,0.4,1.5c0,0.7-0.2,1.3-0.6,1.9
					c-0.4,0.6-1,1.2-2,2l-3.6,3h6.4v1.1h-8.3V277z"/>
				<path d="M46.6,277.7c-0.7-0.5-1.2-1.1-1.6-2c-0.3-0.8-0.5-1.8-0.5-2.9s0.2-2.1,0.5-2.9s0.9-1.5,1.6-2c0.7-0.5,1.6-0.7,2.7-0.7
					c1.1,0,2,0.2,2.7,0.7s1.2,1.1,1.6,2s0.5,1.8,0.5,2.9s-0.2,2.1-0.5,2.9s-0.9,1.5-1.6,2c-0.7,0.5-1.6,0.7-2.7,0.7
					C48.2,278.4,47.3,278.2,46.6,277.7z M46.2,275.3c0.2,0.7,0.6,1.2,1.1,1.5s1.1,0.5,1.9,0.5c0.8,0,1.4-0.2,1.9-0.5
					s0.9-0.8,1.1-1.5c0.2-0.7,0.4-1.5,0.4-2.5s-0.1-1.9-0.4-2.5c-0.2-0.7-0.6-1.2-1.1-1.5s-1.1-0.5-1.9-0.5c-0.8,0-1.4,0.2-1.9,0.5
					s-0.9,0.8-1.1,1.5c-0.2,0.7-0.4,1.5-0.4,2.5C45.9,273.8,46,274.6,46.2,275.3z"/>
			</g>
		</g>
	</g>
	<g>
		<g>
			<g class="st0">
				<path d="M27.1,239.3h2.5v-8.5h-2.5v-1.1h2.3c0.5,0,0.9,0.1,1.2,0.3c0.2,0.2,0.3,0.6,0.3,1v8.2h2.3v1.1h-6.1
					C27.1,240.3,27.1,239.3,27.1,239.3z"/>
				<path d="M40,237.7h-5.8v-1.1l5.1-6.9h1.4l-5.1,6.9h4.5v-6.9h1.3v6.9h1.8v1.1h-1.8v2.7h-1.3L40,237.7L40,237.7z"/>
				<path d="M46.4,239.9c-0.7-0.5-1.2-1.1-1.6-2c-0.3-0.8-0.5-1.8-0.5-2.9s0.2-2.1,0.5-2.9c0.3-0.8,0.9-1.5,1.6-2s1.6-0.7,2.7-0.7
					c1.1,0,2,0.2,2.7,0.7s1.2,1.1,1.6,2c0.3,0.8,0.5,1.8,0.5,2.9s-0.2,2.1-0.5,2.9c-0.3,0.8-0.9,1.5-1.6,2c-0.7,0.5-1.6,0.7-2.7,0.7
					C48,240.7,47.1,240.4,46.4,239.9z M46.1,237.6c0.2,0.7,0.6,1.2,1.1,1.5s1.1,0.5,1.9,0.5c0.8,0,1.4-0.2,1.9-0.5s0.9-0.8,1.1-1.5
					c0.2-0.7,0.4-1.5,0.4-2.5s-0.1-1.9-0.4-2.5c-0.2-0.7-0.6-1.2-1.1-1.5s-1.1-0.5-1.9-0.5c-0.8,0-1.4,0.2-1.9,0.5s-0.9,0.8-1.1,1.5
					s-0.4,1.5-0.4,2.5S45.8,236.9,46.1,237.6z"/>
			</g>
		</g>
	</g>
	<g>
		<g>
			<g class="st0">
				<path d="M27.1,201.6h2.5v-8.5h-2.5V192h2.3c0.5,0,0.9,0.1,1.2,0.3c0.2,0.2,0.3,0.6,0.3,1v8.2h2.3v1.1h-6.1
					C27.1,202.6,27.1,201.6,27.1,201.6z"/>
				<path d="M36.4,202.4c-0.6-0.4-1.1-0.9-1.5-1.8c-0.4-0.8-0.5-1.9-0.5-3.1c0-1.2,0.2-2.2,0.5-3.1c0.3-0.9,0.9-1.5,1.5-2
					c0.6-0.5,1.5-0.7,2.5-0.7c0.8,0,1.5,0.1,2,0.4c0.5,0.2,0.9,0.6,1.2,1s0.5,1,0.6,1.6h-1.3c-0.1-0.4-0.2-0.7-0.4-1
					c-0.2-0.3-0.5-0.5-0.8-0.7c-0.4-0.2-0.8-0.2-1.3-0.2c-1.1,0-1.9,0.4-2.5,1.2c-0.5,0.8-0.8,2-0.8,3.8v1l-0.3-0.2
					c0.2-0.8,0.6-1.4,1.3-1.9c0.7-0.5,1.5-0.7,2.4-0.7c0.7,0,1.3,0.1,1.9,0.4c0.6,0.3,1,0.6,1.3,1.1s0.5,1.1,0.5,1.8
					s-0.2,1.3-0.5,1.8s-0.8,1-1.4,1.3c-0.6,0.3-1.3,0.5-2.2,0.5C37.7,202.9,37,202.7,36.4,202.4z M40.6,201.2c0.4-0.4,0.7-1,0.7-1.8
					s-0.2-1.4-0.7-1.8s-1.1-0.7-1.9-0.7c-0.6,0-1,0.1-1.5,0.3c-0.4,0.2-0.8,0.5-1,0.8c-0.2,0.4-0.4,0.8-0.4,1.3
					c0,0.7,0.2,1.3,0.7,1.8c0.5,0.4,1.1,0.7,2,0.7C39.5,201.8,40.2,201.6,40.6,201.2z"/>
				<path d="M46.4,202.2c-0.7-0.5-1.2-1.1-1.6-2c-0.3-0.8-0.5-1.8-0.5-2.9s0.2-2.1,0.5-2.9c0.3-0.8,0.9-1.5,1.6-2s1.6-0.7,2.7-0.7
					c1.1,0,2,0.2,2.7,0.7s1.2,1.1,1.6,2s0.5,1.8,0.5,2.9s-0.2,2.1-0.5,2.9s-0.9,1.5-1.6,2c-0.7,0.5-1.6,0.7-2.7,0.7
					S47.1,202.7,46.4,202.2z M46,199.8c0.2,0.7,0.6,1.2,1.1,1.5s1.1,0.5,1.9,0.5s1.4-0.2,1.9-0.5s0.9-0.8,1.1-1.5
					c0.2-0.7,0.4-1.5,0.4-2.5s-0.1-1.9-0.4-2.5s-0.6-1.2-1.1-1.5s-1.1-0.5-1.9-0.5s-1.4,0.2-1.9,0.5s-0.9,0.8-1.1,1.5
					s-0.4,1.5-0.4,2.5C45.6,198.3,45.8,199.2,46,199.8z"/>
			</g>
		</g>
	</g>
	<g>
		<g>
			<g class="st0">
				<path d="M27.1,163.8h2.5v-8.5h-2.5v-1.1h2.3c0.5,0,0.9,0.1,1.2,0.3c0.2,0.2,0.3,0.6,0.3,1v8.2h2.3v1.1h-6.1
					C27.1,164.8,27.1,163.8,27.1,163.8z"/>
				<path d="M36.2,164.7c-0.6-0.3-1.1-0.7-1.4-1.1s-0.4-1-0.4-1.5c0-0.7,0.2-1.2,0.6-1.7c0.4-0.5,0.9-0.8,1.6-1
					c-0.6-0.2-1-0.5-1.4-1c-0.3-0.4-0.5-0.9-0.5-1.5c0-0.5,0.1-1,0.4-1.4s0.7-0.8,1.3-1c0.6-0.3,1.3-0.4,2.2-0.4s1.6,0.1,2.2,0.4
					c0.6,0.3,1,0.6,1.3,1s0.4,0.9,0.4,1.4c0,0.6-0.2,1.1-0.5,1.5s-0.8,0.8-1.4,1c0.5,0.1,0.8,0.4,1.2,0.6c0.3,0.3,0.6,0.6,0.7,0.9
					c0.2,0.4,0.2,0.8,0.2,1.2c0,0.6-0.1,1.1-0.4,1.5s-0.7,0.8-1.4,1.1c-0.6,0.3-1.4,0.4-2.4,0.4S36.8,165,36.2,164.7z M40.1,163.8
					c0.4-0.2,0.7-0.4,0.9-0.7c0.2-0.3,0.3-0.7,0.3-1.1c0-0.7-0.2-1.2-0.7-1.6c-0.5-0.4-1.2-0.6-2.1-0.6c-0.6,0-1.1,0.1-1.6,0.3
					c-0.4,0.2-0.7,0.4-0.9,0.7s-0.3,0.7-0.3,1.1c0,0.6,0.2,1.1,0.7,1.5s1.2,0.6,2.1,0.6C39.2,164.1,39.7,164,40.1,163.8z M40,158.6
					c0.4-0.2,0.7-0.4,0.8-0.7c0.2-0.3,0.3-0.6,0.3-1c0-0.6-0.2-1-0.6-1.4c-0.4-0.3-1.1-0.5-2-0.5c-0.6,0-1.1,0.1-1.5,0.2
					c-0.4,0.2-0.7,0.4-0.9,0.7c-0.2,0.3-0.3,0.6-0.3,1s0.1,0.7,0.3,1s0.5,0.5,0.8,0.7s0.9,0.3,1.5,0.3C39,158.9,39.6,158.8,40,158.6
					z"/>
				<path d="M46.4,164.5c-0.7-0.5-1.2-1.1-1.6-2c-0.3-0.8-0.5-1.8-0.5-2.9s0.2-2.1,0.5-2.9c0.3-0.8,0.9-1.5,1.6-2s1.6-0.7,2.7-0.7
					c1.1,0,2,0.2,2.7,0.7s1.2,1.1,1.6,2s0.5,1.8,0.5,2.9s-0.2,2.1-0.5,2.9s-0.9,1.5-1.6,2c-0.7,0.5-1.6,0.7-2.7,0.7
					S47.1,164.9,46.4,164.5z M46,162.1c0.2,0.7,0.6,1.2,1.1,1.5s1.1,0.5,1.9,0.5s1.4-0.2,1.9-0.5s0.9-0.8,1.1-1.5
					c0.2-0.7,0.4-1.5,0.4-2.5s-0.1-1.9-0.4-2.5s-0.6-1.2-1.1-1.5s-1.1-0.5-1.9-0.5s-1.4,0.2-1.9,0.5s-0.9,0.8-1.1,1.5
					s-0.4,1.5-0.4,2.5C45.6,160.6,45.8,161.4,46,162.1z"/>
			</g>
		</g>
	</g>
	<g>
		<g>
			<g class="st0">
				<path d="M27.1,126.1l5.3-4.4c0.5-0.4,0.9-0.8,1.1-1.2s0.3-0.8,0.3-1.2c0-0.6-0.2-1-0.6-1.4c-0.4-0.3-0.9-0.5-1.7-0.5
					c-0.7,0-1.3,0.1-1.7,0.4c-0.4,0.3-0.8,0.6-1,1.2c-0.2,0.5-0.3,1.1-0.3,1.9h-1.4c0-0.9,0.2-1.6,0.5-2.3s0.8-1.2,1.4-1.6
					c0.6-0.4,1.5-0.6,2.5-0.6c0.9,0,1.6,0.1,2.1,0.4s0.9,0.6,1.2,1.1c0.2,0.4,0.4,1,0.4,1.5c0,0.7-0.2,1.3-0.6,1.9
					c-0.4,0.6-1,1.2-2,2l-3.6,3h6.4v1.1h-8.3C27.1,127.4,27.1,126.1,27.1,126.1z"/>
				<path d="M39.1,126.7c-0.7-0.5-1.2-1.1-1.6-2c-0.3-0.8-0.5-1.8-0.5-2.9s0.2-2.1,0.5-2.9s0.9-1.5,1.6-2s1.6-0.7,2.7-0.7
					s2,0.2,2.7,0.7s1.2,1.1,1.6,2s0.5,1.8,0.5,2.9s-0.2,2.1-0.5,2.9s-0.9,1.5-1.6,2c-0.7,0.5-1.6,0.7-2.7,0.7
					C40.7,127.4,39.8,127.2,39.1,126.7z M38.7,124.3c0.2,0.7,0.6,1.2,1.1,1.5s1.1,0.5,1.9,0.5s1.4-0.2,1.9-0.5s0.9-0.8,1.1-1.5
					c0.2-0.7,0.4-1.5,0.4-2.5s-0.1-1.9-0.4-2.5c-0.2-0.7-0.6-1.2-1.1-1.5s-1.1-0.5-1.9-0.5s-1.4,0.2-1.9,0.5s-0.9,0.8-1.1,1.5
					s-0.4,1.5-0.4,2.5C38.4,122.8,38.5,123.7,38.7,124.3z"/>
				<path d="M50.1,126.7c-0.7-0.5-1.2-1.1-1.6-2c-0.3-0.8-0.5-1.8-0.5-2.9s0.2-2.1,0.5-2.9s0.9-1.5,1.6-2c0.7-0.5,1.6-0.7,2.7-0.7
					c1.1,0,2,0.2,2.7,0.7s1.2,1.1,1.6,2c0.3,0.8,0.5,1.8,0.5,2.9s-0.2,2.1-0.5,2.9s-0.9,1.5-1.6,2c-0.7,0.5-1.6,0.7-2.7,0.7
					C51.7,127.4,50.8,127.2,50.1,126.7z M49.8,124.3c0.2,0.7,0.6,1.2,1.1,1.5s1.1,0.5,1.9,0.5c0.8,0,1.4-0.2,1.9-0.5
					s0.9-0.8,1.1-1.5c0.2-0.7,0.4-1.5,0.4-2.5s-0.1-1.9-0.4-2.5s-0.6-1.2-1.1-1.5s-1.1-0.5-1.9-0.5c-0.8,0-1.4,0.2-1.9,0.5
					s-0.9,0.8-1.1,1.5c-0.2,0.7-0.4,1.5-0.4,2.5S49.5,123.7,49.8,124.3z"/>
			</g>
		</g>
	</g>
	<g>
		<g>
			<g class="st0">
				<path d="M27.1,88.3l5.3-4.4c0.5-0.4,0.9-0.8,1.1-1.2c0.2-0.3,0.3-0.8,0.3-1.2c0-0.6-0.2-1-0.6-1.4c-0.4-0.3-0.9-0.5-1.7-0.5
					c-0.7,0-1.3,0.1-1.7,0.4c-0.4,0.3-0.8,0.6-1,1.2c-0.2,0.5-0.3,1.1-0.3,1.9h-1.4c0-0.9,0.2-1.6,0.5-2.3c0.3-0.7,0.8-1.2,1.4-1.6
					c0.6-0.4,1.5-0.6,2.5-0.6c0.9,0,1.6,0.1,2.1,0.4s0.9,0.6,1.2,1.1c0.3,0.4,0.4,1,0.4,1.5c0,0.7-0.2,1.3-0.6,1.9
					c-0.4,0.6-1,1.2-2,2l-3.6,3h6.4v1.1h-8.3C27.1,89.6,27.1,88.3,27.1,88.3z"/>
				<path d="M37.3,88.3l5.3-4.4c0.5-0.4,0.9-0.8,1.1-1.2s0.2-0.7,0.2-1.2c0-0.6-0.2-1-0.6-1.4s-0.9-0.5-1.7-0.5
					c-0.7,0-1.3,0.1-1.7,0.4c-0.4,0.3-0.8,0.6-1,1.2c-0.2,0.5-0.3,1.1-0.3,1.9h-1.4c0-0.9,0.2-1.6,0.5-2.3c0.3-0.7,0.8-1.2,1.4-1.6
					c0.6-0.4,1.5-0.6,2.5-0.6c0.9,0,1.6,0.1,2.1,0.4s0.9,0.6,1.2,1.1c0.2,0.4,0.4,1,0.4,1.5c0,0.7-0.2,1.3-0.6,1.9s-1,1.2-2,2
					l-3.6,3h6.4v1.1h-8.3L37.3,88.3L37.3,88.3z"/>
				<path d="M49.2,89c-0.7-0.5-1.2-1.1-1.6-2c-0.3-0.8-0.5-1.8-0.5-2.9s0.2-2.1,0.5-2.9s0.9-1.5,1.6-2s1.6-0.7,2.7-0.7
					s2,0.2,2.7,0.7s1.2,1.1,1.6,2s0.5,1.8,0.5,2.9s-0.2,2.1-0.5,2.9s-0.9,1.5-1.6,2c-0.7,0.5-1.6,0.7-2.7,0.7S49.9,89.5,49.2,89z
					 M48.9,86.6c0.2,0.7,0.6,1.2,1.1,1.5s1.1,0.5,1.9,0.5s1.4-0.2,1.9-0.5s0.9-0.8,1.1-1.5c0.2-0.7,0.4-1.5,0.4-2.5
					s-0.1-1.9-0.4-2.5s-0.6-1.2-1.1-1.5s-1.1-0.5-1.9-0.5s-1.4,0.2-1.9,0.5s-0.9,0.8-1.1,1.5s-0.4,1.5-0.4,2.5S48.6,85.9,48.9,86.6z
					"/>
			</g>
		</g>
	</g>
	<g transform="translate(-408,-220)">
		<g>
			<g>
				<g class="st0">
					<path d="M443.2,242.2l-1-2.7h-5.3l-1,2.7h-1.3l4-10.6h2l4,10.6H443.2z M437.3,238.4h4.5l-2.2-5.9L437.3,238.4z"/>
					<path d="M445.9,231h1.3v11.2h-1.3V231z"/>
					<path d="M450.7,242c-0.3-0.1-0.5-0.3-0.6-0.6s-0.2-0.6-0.2-1.1v-5.1h-1.5v-0.7l1.6-0.4l0.5-1.7h0.7v1.8h2.6v1h-2.6v6h2.5v1
						h-1.9C451.3,242.2,451,242.1,450.7,242z"/>
					<path d="M456.6,241.9c-0.6-0.4-1-0.9-1.3-1.5s-0.4-1.4-0.4-2.2s0.2-1.5,0.4-2.2c0.3-0.6,0.7-1.1,1.3-1.5
						c0.6-0.4,1.3-0.6,2.2-0.6c0.8,0,1.5,0.2,2,0.5c0.6,0.3,1,0.8,1.3,1.4c0.3,0.6,0.4,1.3,0.4,2.1v0.2c0,0.1,0,0.2,0,0.3h-6.6v-1h6
						l-0.6,0.6c0-0.7,0-1.3-0.2-1.8s-0.5-0.8-0.8-1c-0.4-0.2-0.9-0.3-1.4-0.3c-0.6,0-1.1,0.1-1.5,0.3s-0.7,0.6-0.9,1.1
						c-0.2,0.5-0.3,1.1-0.3,1.9s0.1,1.4,0.3,1.9c0.2,0.5,0.5,0.8,0.9,1.1c0.4,0.2,0.9,0.3,1.5,0.3c0.5,0,0.9-0.1,1.3-0.2
						c0.3-0.1,0.6-0.3,0.8-0.6c0.2-0.3,0.3-0.6,0.4-0.9h1.2c-0.1,0.5-0.2,0.9-0.5,1.3c-0.3,0.4-0.7,0.8-1.2,1
						c-0.5,0.3-1.2,0.4-2.1,0.4C458,242.4,457.2,242.3,456.6,241.9z"/>
					<path d="M463.8,234.2h7v1h-7V234.2z M463.9,241.2l5.7-6.4l1.2,0.3l-5.9,6.6L463.9,241.2z M463.9,241.2h7v1h-7V241.2z"/>
					<path d="M472.3,234.2h7v1h-7V234.2z M472.4,241.2l5.7-6.4l1.2,0.3l-5.9,6.6L472.4,241.2z M472.4,241.2h7v1h-7V241.2z"/>
					<path d="M482,242.1c-0.4-0.2-0.7-0.4-0.9-0.8c-0.2-0.3-0.3-0.8-0.3-1.3c0-0.4,0.1-0.8,0.2-1.1c0.2-0.3,0.4-0.6,0.8-0.8
						s0.8-0.4,1.4-0.5l2-0.3c0.4-0.1,0.7-0.2,0.9-0.3c0.2-0.1,0.3-0.4,0.3-0.7s-0.1-0.6-0.2-0.8s-0.3-0.4-0.6-0.5
						c-0.3-0.1-0.7-0.2-1.2-0.2c-0.7,0-1.3,0.2-1.6,0.5c-0.3,0.3-0.5,0.7-0.6,1.3h-1.3c0-0.6,0.2-1.1,0.4-1.5s0.7-0.7,1.2-1
						c0.5-0.2,1.1-0.3,1.9-0.3c0.7,0,1.3,0.1,1.8,0.3s0.8,0.5,1.1,0.9c0.2,0.4,0.3,0.8,0.3,1.3v3.8c0,0.3,0,0.6,0,0.9
						c0,0.3,0,0.7,0.1,1h-1.2c0-0.3-0.1-0.7-0.1-1s0-0.6,0-0.9c-0.1,0.4-0.3,0.7-0.5,1s-0.6,0.6-1,0.8s-0.9,0.3-1.5,0.3
						C482.8,242.4,482.4,242.3,482,242.1z M485.1,241c0.4-0.3,0.7-0.6,0.9-1.1c0.2-0.5,0.3-0.9,0.3-1.5v-0.7
						c-0.2,0.1-0.3,0.2-0.5,0.3s-0.4,0.1-0.7,0.2h-0.2l-1.3,0.3c-0.6,0.1-1,0.3-1.2,0.5s-0.4,0.6-0.4,1s0.1,0.8,0.4,1
						s0.7,0.4,1.2,0.4C484.2,241.4,484.7,241.2,485.1,241z"/>
					<path d="M492.9,231.5h5.8v1.1h-5.8V231.5z M492.9,241.1h5.8v1.1h-5.8V241.1z M495.2,232.1h1.3v9.6h-1.3V232.1z"/>
					<path d="M506.5,235.1c0.6,0.8,0.9,1.8,0.9,3.1c0,0.9-0.1,1.6-0.4,2.3c-0.3,0.6-0.7,1.1-1.2,1.5c-0.5,0.3-1.2,0.5-1.9,0.5
						c-0.8,0-1.5-0.2-2-0.5s-0.9-0.9-1.2-1.5s-0.4-1.4-0.4-2.2s0.1-1.6,0.4-2.2c0.3-0.6,0.7-1.1,1.2-1.5s1.2-0.5,2-0.5
						C505,233.9,505.9,234.3,506.5,235.1z M502.6,235.3c-0.4,0.2-0.7,0.6-0.9,1.1s-0.3,1.1-0.3,1.8s0.1,1.3,0.3,1.8s0.5,0.8,0.9,1.1
						c0.4,0.2,0.9,0.4,1.5,0.4s1.1-0.1,1.5-0.3s0.7-0.6,1-1.1c0.2-0.5,0.3-1.1,0.3-1.8s-0.1-1.3-0.3-1.8c-0.2-0.5-0.5-0.8-1-1.1
						c-0.4-0.2-0.9-0.3-1.5-0.3C503.5,235,503,235.1,502.6,235.3z M508.1,242.2h-1.2v-1.9v-0.2V231h1.3L508.1,242.2L508.1,242.2z"/>
					<path d="M510.5,234.2h1.3v2.5v0.3v5.2h-1.3V234.2z M511.6,236.6c0.2-0.8,0.6-1.4,1.1-1.8s1.1-0.7,1.9-0.7h0.3v1.3h-0.4
						c-0.8,0-1.3,0.1-1.8,0.5c-0.4,0.3-0.7,0.8-0.9,1.3s-0.2,1.3-0.2,2.1h-0.4C511.3,238.2,511.4,237.3,511.6,236.6z"/>
					<path d="M517.6,241.9c-0.6-0.4-1.1-0.9-1.4-1.5s-0.5-1.4-0.5-2.2s0.2-1.5,0.5-2.2c0.3-0.6,0.8-1.1,1.4-1.5
						c0.6-0.4,1.3-0.6,2.2-0.6c0.9,0,1.6,0.2,2.2,0.6c0.6,0.4,1.1,0.9,1.4,1.5c0.3,0.6,0.4,1.4,0.4,2.2s-0.2,1.6-0.4,2.2
						c-0.3,0.6-0.8,1.1-1.4,1.5c-0.6,0.4-1.3,0.6-2.2,0.6C519,242.4,518.2,242.3,517.6,241.9z M517.4,240c0.2,0.5,0.5,0.8,0.9,1.1
						c0.4,0.2,0.9,0.3,1.5,0.3c0.6,0,1.1-0.1,1.5-0.3c0.4-0.2,0.7-0.6,0.9-1.1s0.3-1.1,0.3-1.8s-0.1-1.4-0.3-1.8
						c-0.2-0.4-0.5-0.8-0.9-1c-0.4-0.2-0.9-0.3-1.5-0.3c-0.6,0-1.1,0.1-1.5,0.3c-0.4,0.2-0.7,0.6-0.9,1c-0.2,0.5-0.3,1.1-0.3,1.8
						S517.2,239.5,517.4,240z"/>
					<path d="M525.6,234.2h1.3v8h-1.3V234.2z M531,235.9c-0.1-0.3-0.3-0.6-0.6-0.7c-0.3-0.1-0.6-0.2-1-0.2c-0.6,0-1,0.2-1.4,0.5
						s-0.6,0.8-0.8,1.4c-0.2,0.6-0.3,1.4-0.3,2.3h-0.4v-0.3c0-1,0.1-1.9,0.4-2.6c0.2-0.7,0.6-1.3,1.1-1.7s1.1-0.6,1.9-0.6
						c0.6,0,1.1,0.1,1.5,0.4c0.4,0.2,0.7,0.6,0.9,1s0.3,1,0.3,1.7v5.2h-1.3v-5C531.2,236.6,531.1,236.2,531,235.9z M536.6,235.9
						c-0.1-0.3-0.3-0.6-0.6-0.7c-0.3-0.1-0.6-0.2-1-0.2c-0.6,0-1.1,0.2-1.4,0.5c-0.4,0.3-0.6,0.8-0.8,1.4c-0.2,0.6-0.3,1.4-0.3,2.3
						H532c0-1.1,0.1-2,0.3-2.8s0.6-1.4,1.1-1.8s1.2-0.6,2-0.6c0.6,0,1.1,0.1,1.5,0.4c0.4,0.2,0.7,0.6,0.9,1c0.2,0.5,0.3,1,0.3,1.7
						v5.2h-1.3v-5C536.8,236.6,536.7,236.2,536.6,235.9z"/>
					<path d="M541.4,241.9c-0.6-0.4-1-0.9-1.3-1.5s-0.4-1.4-0.4-2.2s0.1-1.5,0.4-2.2c0.3-0.6,0.7-1.1,1.3-1.5s1.3-0.6,2.2-0.6
						c0.8,0,1.5,0.2,2,0.5c0.6,0.3,1,0.8,1.3,1.4s0.4,1.3,0.4,2.1v0.2c0,0.1,0,0.2,0,0.3h-6.7v-1h6L546,238c0-0.7,0-1.3-0.2-1.8
						s-0.5-0.8-0.8-1s-0.9-0.3-1.4-0.3c-0.6,0-1.1,0.1-1.5,0.3s-0.7,0.6-0.9,1.1s-0.3,1.1-0.3,1.9s0.1,1.4,0.3,1.9s0.5,0.8,0.9,1.1
						c0.4,0.2,0.9,0.3,1.5,0.3c0.5,0,0.9-0.1,1.3-0.2c0.3-0.1,0.6-0.3,0.8-0.6s0.3-0.6,0.4-0.9h1.2c-0.1,0.5-0.2,0.9-0.5,1.3
						c-0.3,0.4-0.7,0.8-1.2,1c-0.5,0.3-1.2,0.4-2.1,0.4C542.7,242.4,542,242.3,541.4,241.9z"/>
					<path d="M550.2,242c-0.3-0.1-0.5-0.3-0.6-0.6s-0.2-0.6-0.2-1.1v-5.1h-1.5v-0.7l1.6-0.4l0.5-1.7h0.7v1.8h2.6v1h-2.6v6h2.5v1
						h-1.9C550.9,242.2,550.5,242.1,550.2,242z"/>
					<path d="M555,234.2h1.3v2.5v0.3v5.2H555V234.2z M556.2,236.6c0.2-0.8,0.6-1.4,1.1-1.8s1.1-0.7,1.9-0.7h0.3v1.3h-0.4
						c-0.8,0-1.3,0.1-1.8,0.5c-0.4,0.3-0.7,0.8-0.9,1.3s-0.2,1.3-0.2,2.1h-0.4C555.8,238.2,555.9,237.3,556.2,236.6z"/>
					<path d="M560.7,231.5h1.6v1.3h-1.6V231.5z M560.8,234.2h1.3v8h-1.3V234.2z"/>
					<path d="M564.2,236c0.3-0.6,0.8-1.1,1.4-1.5c0.6-0.4,1.3-0.5,2.2-0.5c0.8,0,1.4,0.1,2,0.4c0.5,0.3,1,0.6,1.2,1.1
						c0.3,0.5,0.5,1,0.5,1.7h-1.2c-0.1-0.4-0.2-0.8-0.4-1.2c-0.2-0.3-0.5-0.6-0.8-0.7c-0.3-0.2-0.8-0.3-1.3-0.3
						c-0.6,0-1.1,0.1-1.5,0.3s-0.7,0.6-0.9,1s-0.3,1.1-0.3,1.8c0,0.8,0.1,1.4,0.3,1.8s0.5,0.8,0.9,1s0.9,0.3,1.5,0.3
						c0.8,0,1.4-0.2,1.8-0.6c0.4-0.4,0.7-1,0.8-1.7h1.2c0,0.6-0.2,1.2-0.5,1.7s-0.7,0.9-1.3,1.2s-1.2,0.4-2,0.4
						c-0.9,0-1.6-0.2-2.2-0.5c-0.6-0.4-1.1-0.9-1.4-1.5c-0.3-0.6-0.5-1.4-0.5-2.2S563.9,236.6,564.2,236z"/>
					<path d="M573.9,242.1c-0.4-0.2-0.7-0.4-0.9-0.8c-0.2-0.3-0.3-0.8-0.3-1.3c0-0.4,0.1-0.8,0.2-1.1c0.2-0.3,0.4-0.6,0.8-0.8
						s0.8-0.4,1.4-0.5l2-0.3c0.4-0.1,0.7-0.2,0.9-0.3s0.3-0.4,0.3-0.7s-0.1-0.6-0.2-0.8s-0.3-0.4-0.6-0.5s-0.7-0.2-1.2-0.2
						c-0.7,0-1.3,0.2-1.6,0.5s-0.5,0.7-0.6,1.3h-1.3c0-0.6,0.2-1.1,0.4-1.5s0.7-0.7,1.2-1c0.5-0.2,1.1-0.3,1.9-0.3
						c0.7,0,1.3,0.1,1.8,0.3s0.8,0.5,1.1,0.9c0.2,0.4,0.3,0.8,0.3,1.3v3.8c0,0.3,0,0.6,0,0.9c0,0.3,0,0.7,0.1,1h-1.2
						c0-0.3-0.1-0.7-0.1-1s0-0.6,0-0.9c-0.1,0.4-0.3,0.7-0.5,1s-0.6,0.6-1,0.8s-0.9,0.3-1.5,0.3
						C574.7,242.4,574.3,242.3,573.9,242.1z M577,241c0.4-0.3,0.7-0.6,0.9-1.1s0.3-0.9,0.3-1.5v-0.7c-0.2,0.1-0.3,0.2-0.5,0.3
						s-0.4,0.1-0.7,0.2h-0.2l-1.3,0.3c-0.6,0.1-1,0.3-1.2,0.5s-0.4,0.6-0.4,1s0.1,0.8,0.4,1c0.3,0.2,0.7,0.4,1.2,0.4
						C576.1,241.4,576.6,241.2,577,241z"/>
					<path d="M435.3,255.2c0.3-0.6,0.8-1.1,1.4-1.5s1.3-0.5,2.2-0.5c0.8,0,1.4,0.1,2,0.4c0.5,0.3,1,0.6,1.2,1.1
						c0.3,0.5,0.5,1,0.5,1.7h-1.2c-0.1-0.4-0.2-0.8-0.4-1.2c-0.2-0.3-0.5-0.6-0.8-0.7c-0.3-0.2-0.8-0.3-1.3-0.3
						c-0.6,0-1.1,0.1-1.5,0.3s-0.7,0.6-0.9,1s-0.3,1.1-0.3,1.8c0,0.8,0.1,1.4,0.3,1.8s0.5,0.8,0.9,1s0.9,0.3,1.5,0.3
						c0.8,0,1.4-0.2,1.8-0.6s0.7-1,0.8-1.7h1.2c0,0.6-0.2,1.2-0.5,1.7s-0.7,0.9-1.3,1.2c-0.6,0.3-1.2,0.4-2,0.4
						c-0.9,0-1.6-0.2-2.2-0.5c-0.6-0.4-1.1-0.9-1.4-1.5s-0.5-1.4-0.5-2.2C434.8,256.4,435,255.8,435.3,255.2z"/>
					<path d="M444.2,253.4h1.3v8h-1.3V253.4z M449.6,255.1c-0.1-0.3-0.3-0.6-0.6-0.7c-0.3-0.1-0.6-0.2-1-0.2c-0.6,0-1,0.2-1.4,0.5
						s-0.6,0.8-0.8,1.4c-0.2,0.6-0.3,1.4-0.3,2.3h-0.4v-0.3c0-1,0.1-1.9,0.4-2.6c0.3-0.7,0.6-1.3,1.1-1.7s1.1-0.6,1.9-0.6
						c0.6,0,1.1,0.1,1.5,0.4c0.4,0.2,0.7,0.6,0.9,1s0.3,1,0.3,1.7v5.2h-1.3v-5C449.8,255.8,449.8,255.4,449.6,255.1z M455.2,255.1
						c-0.1-0.3-0.3-0.6-0.6-0.7c-0.3-0.1-0.6-0.2-1-0.2c-0.6,0-1.1,0.2-1.4,0.5c-0.4,0.3-0.6,0.8-0.8,1.4c-0.2,0.6-0.3,1.4-0.3,2.3
						h-0.5c0-1.1,0.1-2,0.3-2.8c0.2-0.8,0.6-1.4,1.1-1.8c0.5-0.4,1.2-0.6,2-0.6c0.6,0,1.1,0.1,1.5,0.4c0.4,0.2,0.7,0.6,0.9,1
						c0.2,0.5,0.3,1,0.3,1.7v5.2h-1.3v-5C455.4,255.8,455.4,255.4,455.2,255.1z"/>
				</g>
			</g>
		</g>
	</g>
	<g>
		<g>
			<path d="M57.3,677.2c-0.6-0.3-1-0.8-1.3-1.5c-0.3-0.6-0.4-1.4-0.4-2.3c0-1.3,0.3-2.4,1-3.1c0.7-0.8,1.6-1.1,2.9-1.1
				c1.2,0,2.1,0.4,2.8,1.1s0.9,1.8,0.9,3.2c0,1-0.1,1.7-0.4,2.4c-0.3,0.6-0.7,1.1-1.2,1.4c-0.5,0.3-1.2,0.5-2.1,0.5
				C58.6,677.7,57.8,677.5,57.3,677.2z M57.6,681.1c-0.6-0.2-1-0.6-1.4-1c-0.3-0.5-0.5-1-0.6-1.6h1.3c0,0.4,0.1,0.7,0.3,1
				s0.5,0.5,0.9,0.7s0.9,0.2,1.5,0.2c0.7,0,1.2-0.1,1.6-0.3c0.4-0.2,0.7-0.4,0.9-0.8c0.2-0.4,0.3-0.9,0.3-1.5v-8.5h1.4v8.5
				c0,0.8-0.1,1.4-0.4,2c-0.3,0.5-0.7,0.9-1.3,1.2s-1.4,0.4-2.4,0.4C58.9,681.4,58.2,681.3,57.6,681.1z M61.3,676.3
				c0.4-0.2,0.7-0.6,1-1c0.2-0.5,0.3-1.1,0.3-1.8s-0.1-1.4-0.3-1.8c-0.2-0.5-0.5-0.8-1-1c-0.4-0.2-0.9-0.3-1.6-0.3
				c-0.7,0-1.2,0.1-1.6,0.3c-0.4,0.2-0.7,0.6-0.9,1c-0.2,0.5-0.3,1.1-0.3,1.8c0,0.8,0.1,1.4,0.3,1.9s0.5,0.8,0.9,1s0.9,0.3,1.6,0.3
				C60.4,676.6,60.9,676.5,61.3,676.3z"/>
			<path d="M67.6,677.5c-0.6-0.4-1.1-0.9-1.4-1.6c-0.3-0.7-0.5-1.5-0.5-2.3c0-0.9,0.2-1.6,0.5-2.3c0.3-0.7,0.8-1.2,1.4-1.6
				c0.6-0.4,1.4-0.6,2.3-0.6c0.8,0,1.6,0.2,2.2,0.5c0.6,0.4,1.1,0.9,1.4,1.5s0.5,1.4,0.5,2.2v0.2c0,0.1,0,0.2,0,0.4h-7.1v-1h6.4
				l-0.6,0.6c0-0.8,0-1.4-0.2-1.9c-0.2-0.5-0.5-0.9-0.9-1.1c-0.4-0.2-0.9-0.3-1.5-0.3s-1.1,0.1-1.6,0.3c-0.4,0.2-0.8,0.6-1,1.1
				c-0.2,0.5-0.3,1.2-0.3,2s0.1,1.5,0.4,2c0.2,0.5,0.6,0.9,1,1.1c0.4,0.2,1,0.3,1.6,0.3c0.5,0,1-0.1,1.4-0.2
				c0.4-0.2,0.7-0.4,0.9-0.6c0.2-0.3,0.4-0.6,0.5-1h1.2c-0.1,0.5-0.2,0.9-0.5,1.4c-0.3,0.5-0.7,0.8-1.3,1.1s-1.3,0.4-2.2,0.4
				C69,678.1,68.3,677.9,67.6,677.5z"/>
			<path d="M75.7,669.4h1.4v8.5h-1.4V669.4z M77,671.7c0.3-0.8,0.7-1.5,1.2-1.9c0.5-0.5,1.2-0.7,2.1-0.7c0.7,0,1.3,0.1,1.7,0.4
				c0.4,0.3,0.8,0.6,1,1.1s0.3,1.1,0.3,1.8v5.4h-1.4v-5.3c0-0.6-0.1-1.1-0.2-1.4s-0.4-0.6-0.7-0.7c-0.3-0.1-0.7-0.2-1.1-0.2
				c-0.6,0-1.2,0.2-1.6,0.5s-0.8,0.8-1,1.5s-0.3,1.5-0.3,2.4h-0.4C76.6,673.5,76.7,672.5,77,671.7z"/>
		</g>
	</g>
	<g>
		<g>
			<path d="M169.5,677.8c-0.4-0.2-0.7-0.5-1-0.8c-0.2-0.4-0.4-0.8-0.4-1.4c0-0.5,0.1-0.9,0.3-1.2s0.5-0.6,0.8-0.8s0.9-0.4,1.5-0.5
				l2.2-0.4c0.5-0.1,0.8-0.2,1-0.3s0.3-0.4,0.3-0.7s-0.1-0.6-0.2-0.8c-0.1-0.2-0.3-0.4-0.6-0.5s-0.7-0.2-1.3-0.2
				c-0.8,0-1.4,0.2-1.7,0.5c-0.4,0.3-0.6,0.8-0.6,1.4h-1.4c0-0.6,0.2-1.1,0.5-1.6c0.3-0.4,0.7-0.8,1.2-1s1.2-0.4,2-0.4
				c0.7,0,1.4,0.1,1.9,0.3s0.9,0.5,1.1,0.9c0.2,0.4,0.4,0.8,0.4,1.4v4.1c0,0.3,0,0.6,0,1c0,0.3,0,0.7,0.1,1.1h-1.2
				c0-0.4-0.1-0.7-0.1-1s0-0.7,0-1c-0.1,0.4-0.3,0.7-0.6,1.1c-0.3,0.3-0.6,0.6-1,0.8s-1,0.3-1.6,0.3
				C170.4,678.1,169.9,678,169.5,677.8z M172.8,676.6c0.4-0.3,0.8-0.7,1-1.2s0.3-1,0.3-1.6v-0.7c-0.2,0.1-0.4,0.2-0.6,0.3
				s-0.4,0.2-0.7,0.2l-0.2,0.1l-1.4,0.3c-0.6,0.1-1,0.3-1.3,0.6c-0.3,0.2-0.4,0.6-0.4,1c0,0.5,0.2,0.8,0.5,1.1
				c0.3,0.2,0.7,0.4,1.2,0.4C171.9,677,172.4,676.9,172.8,676.6z"/>
			<path d="M177.6,669.4h1.4v1.9v0.3v9.7h-1.4V669.4z M179.4,676.9c-0.6-0.8-0.9-1.9-0.9-3.3s0.3-2.5,0.9-3.3s1.6-1.2,2.8-1.2
				c0.9,0,1.6,0.2,2.2,0.6c0.6,0.4,1,0.9,1.3,1.6c0.3,0.7,0.4,1.5,0.4,2.3c0,0.9-0.1,1.7-0.4,2.4c-0.3,0.7-0.7,1.2-1.3,1.6
				c-0.6,0.4-1.3,0.6-2.2,0.6C180.9,678.1,180,677.7,179.4,676.9z M183.5,676.7c0.4-0.2,0.7-0.6,0.9-1.1s0.3-1.1,0.3-1.9
				c0-0.8-0.1-1.4-0.3-1.9s-0.5-0.9-0.9-1.1c-0.4-0.3-0.9-0.4-1.6-0.4c-0.6,0-1.1,0.1-1.6,0.4c-0.4,0.2-0.8,0.6-1,1.1
				s-0.3,1.1-0.3,1.9s0.1,1.4,0.3,1.9s0.6,0.9,1,1.1c0.4,0.2,1,0.4,1.6,0.4C182.5,677,183.1,676.9,183.5,676.7z"/>
			<path d="M187.9,669.4h1.3v2.7v0.3v5.6h-1.3V669.4z M189.1,671.9c0.2-0.8,0.6-1.5,1.2-1.9c0.5-0.5,1.2-0.7,2.1-0.7h0.3v1.3h-0.4
				c-0.8,0-1.4,0.1-1.9,0.5s-0.8,0.8-0.9,1.4c-0.2,0.6-0.2,1.4-0.2,2.2h-0.5C188.8,673.7,188.9,672.7,189.1,671.9z"/>
		</g>
	</g>
	<g>
		<g>
			<path d="M281.1,666h1.4v11.9h-1.4V666z"/>
			<path d="M286,677.8c-0.5-0.2-0.8-0.6-1-1.1s-0.3-1.1-0.3-1.9v-5.4h1.4v5.3c0,0.6,0.1,1.1,0.2,1.4c0.2,0.3,0.4,0.6,0.7,0.7
				c0.3,0.1,0.7,0.2,1.2,0.2c0.6,0,1.1-0.2,1.5-0.5s0.7-0.8,0.9-1.5s0.3-1.5,0.3-2.4h0.4c0,1.1-0.1,2.1-0.4,2.9
				c-0.2,0.8-0.6,1.5-1.2,1.9c-0.5,0.5-1.2,0.7-2.1,0.7C287.1,678.1,286.5,678,286,677.8z M291,675.2V675v-5.7h1.4v8.5H291V675.2z"
				/>
			<path d="M295.9,677.2c-0.6-0.3-1-0.8-1.3-1.5c-0.3-0.6-0.4-1.4-0.4-2.3c0-1.3,0.3-2.4,1-3.1c0.7-0.8,1.6-1.1,2.9-1.1
				c1.2,0,2.1,0.4,2.8,1.1s0.9,1.8,0.9,3.2c0,1-0.1,1.7-0.4,2.4c-0.3,0.6-0.7,1.1-1.2,1.4c-0.5,0.3-1.2,0.5-2.1,0.5
				C297.2,677.7,296.5,677.5,295.9,677.2z M296.3,681.1c-0.6-0.2-1-0.6-1.4-1c-0.3-0.5-0.5-1-0.6-1.6h1.3c0,0.4,0.1,0.7,0.3,1
				c0.2,0.3,0.5,0.5,0.9,0.7s0.9,0.2,1.5,0.2c0.7,0,1.2-0.1,1.6-0.3s0.7-0.4,0.9-0.8c0.2-0.4,0.3-0.9,0.3-1.5v-8.5h1.4v8.5
				c0,0.8-0.1,1.4-0.4,2c-0.3,0.5-0.7,0.9-1.3,1.2c-0.6,0.3-1.4,0.4-2.4,0.4C297.6,681.4,296.9,681.3,296.3,681.1z M300,676.3
				c0.4-0.2,0.7-0.6,1-1c0.2-0.5,0.3-1.1,0.3-1.8s-0.1-1.4-0.3-1.8c-0.2-0.5-0.5-0.8-1-1c-0.4-0.2-0.9-0.3-1.6-0.3s-1.2,0.1-1.6,0.3
				s-0.7,0.6-0.9,1c-0.2,0.5-0.3,1.1-0.3,1.8c0,0.8,0.1,1.4,0.3,1.9c0.2,0.5,0.5,0.8,0.9,1s0.9,0.3,1.6,0.3
				C299,676.6,299.6,676.5,300,676.3z"/>
		</g>
	</g>
	<g>
		<g>
			<path d="M396.3,677.5c-0.6-0.4-1.1-0.9-1.4-1.6c-0.3-0.7-0.5-1.5-0.5-2.3c0-0.9,0.2-1.6,0.5-2.3s0.8-1.2,1.4-1.6s1.4-0.6,2.4-0.6
				c0.9,0,1.7,0.2,2.3,0.6s1.1,0.9,1.4,1.6s0.5,1.5,0.5,2.3c0,0.9-0.2,1.6-0.5,2.3s-0.8,1.2-1.4,1.6s-1.4,0.6-2.3,0.6
				S397,677.9,396.3,677.5z M396.1,675.5c0.2,0.5,0.5,0.9,1,1.1c0.4,0.2,1,0.4,1.6,0.4s1.2-0.1,1.6-0.4c0.4-0.2,0.7-0.6,1-1.1
				c0.2-0.5,0.3-1.2,0.3-1.9c0-0.8-0.1-1.4-0.3-1.9s-0.5-0.9-1-1.1c-0.4-0.2-1-0.4-1.6-0.4c-0.7,0-1.2,0.1-1.6,0.4
				c-0.4,0.2-0.7,0.6-1,1.1s-0.3,1.2-0.3,1.9C395.8,674.4,395.9,675,396.1,675.5z"/>
			<path d="M406.1,677.6c-0.3-0.1-0.5-0.4-0.6-0.6s-0.2-0.7-0.2-1.1v-5.4h-1.6v-0.8l1.8-0.4l0.5-1.8h0.7v1.9h4.7v1.1h-4.7v6.3h2.7
				v1.1h-2C406.8,677.9,406.4,677.8,406.1,677.6z M411.6,677.6c-0.3-0.1-0.5-0.4-0.6-0.6s-0.2-0.7-0.2-1.1v-5.4h-1.6v-0.8l1.6-0.2
				l0.6-2h0.7v1.9h2.8v1.1h-2.8v6.3h2.7v1.1h-2C412.3,677.9,411.9,677.8,411.6,677.6z"/>
		</g>
	</g>
	<g>
		<g>
			<path d="M505.2,677.2c-0.6-0.3-1-0.8-1.3-1.5c-0.3-0.6-0.4-1.4-0.4-2.3c0-1.3,0.3-2.4,1-3.1c0.7-0.8,1.6-1.1,2.9-1.1
				c1.2,0,2.1,0.4,2.8,1.1s0.9,1.8,0.9,3.2c0,1-0.1,1.7-0.4,2.4c-0.3,0.6-0.7,1.1-1.2,1.4c-0.5,0.3-1.2,0.5-2.1,0.5
				C506.5,677.7,505.7,677.5,505.2,677.2z M505.5,681.1c-0.6-0.2-1-0.6-1.4-1c-0.3-0.5-0.5-1-0.6-1.6h1.3c0,0.4,0.1,0.7,0.3,1
				c0.2,0.3,0.5,0.5,0.9,0.7s0.9,0.2,1.5,0.2c0.7,0,1.2-0.1,1.6-0.3s0.7-0.4,0.9-0.8c0.2-0.4,0.3-0.9,0.3-1.5v-8.5h1.4v8.5
				c0,0.8-0.1,1.4-0.4,2c-0.3,0.5-0.7,0.9-1.3,1.2c-0.6,0.3-1.4,0.4-2.4,0.4C506.8,681.4,506.1,681.3,505.5,681.1z M509.2,676.3
				c0.4-0.2,0.7-0.6,1-1c0.2-0.5,0.3-1.1,0.3-1.8s-0.1-1.4-0.3-1.8c-0.2-0.5-0.5-0.8-1-1c-0.4-0.2-0.9-0.3-1.6-0.3s-1.2,0.1-1.6,0.3
				s-0.7,0.6-0.9,1c-0.2,0.5-0.3,1.1-0.3,1.8c0,0.8,0.1,1.4,0.3,1.9c0.2,0.5,0.5,0.8,0.9,1s0.9,0.3,1.6,0.3
				C508.3,676.6,508.8,676.5,509.2,676.3z"/>
			<path d="M515.5,677.5c-0.6-0.4-1.1-0.9-1.4-1.6c-0.3-0.7-0.5-1.5-0.5-2.3c0-0.9,0.2-1.6,0.5-2.3s0.8-1.2,1.4-1.6
				c0.6-0.4,1.4-0.6,2.3-0.6c0.8,0,1.6,0.2,2.2,0.5c0.6,0.4,1.1,0.9,1.4,1.5s0.5,1.4,0.5,2.2v0.2c0,0.1,0,0.2,0,0.4h-7.1v-1h6.4
				l-0.6,0.6c0-0.8,0-1.4-0.2-1.9s-0.5-0.9-0.9-1.1c-0.4-0.2-0.9-0.3-1.5-0.3c-0.6,0-1.1,0.1-1.6,0.3c-0.4,0.2-0.8,0.6-1,1.1
				s-0.3,1.2-0.3,2s0.1,1.5,0.4,2c0.2,0.5,0.6,0.9,1,1.1c0.4,0.2,1,0.3,1.6,0.3c0.5,0,1-0.1,1.4-0.2c0.4-0.2,0.7-0.4,0.9-0.6
				c0.2-0.3,0.4-0.6,0.5-1h1.2c-0.1,0.5-0.2,0.9-0.5,1.4s-0.7,0.8-1.3,1.1s-1.3,0.4-2.2,0.4C516.9,678.1,516.2,677.9,515.5,677.5z"
				/>
			<path d="M523.6,669.4h1.4v8.5h-1.4V669.4z M524.9,671.7c0.3-0.8,0.7-1.5,1.2-1.9c0.5-0.5,1.2-0.7,2.1-0.7c0.7,0,1.3,0.1,1.7,0.4
				c0.4,0.3,0.8,0.6,1,1.1s0.3,1.1,0.3,1.8v5.4h-1.3v-5.3c0-0.6-0.1-1.1-0.2-1.4s-0.4-0.6-0.7-0.7c-0.3-0.1-0.7-0.2-1.1-0.2
				c-0.6,0-1.2,0.2-1.6,0.5s-0.8,0.8-1,1.5s-0.3,1.5-0.3,2.4h-0.4C524.5,673.5,524.6,672.5,524.9,671.7z"/>
		</g>
	</g>
	<g>
		<g>
			<path d="M617.2,677.8c-0.4-0.2-0.7-0.5-1-0.8c-0.2-0.4-0.4-0.8-0.4-1.4c0-0.5,0.1-0.9,0.3-1.2s0.5-0.6,0.8-0.8s0.9-0.4,1.5-0.5
				l2.2-0.4c0.5-0.1,0.8-0.2,1-0.3s0.3-0.4,0.3-0.7s-0.1-0.6-0.2-0.8c-0.1-0.2-0.3-0.4-0.6-0.5s-0.7-0.2-1.3-0.2
				c-0.8,0-1.4,0.2-1.7,0.5c-0.4,0.3-0.6,0.8-0.6,1.4h-1.4c0-0.6,0.2-1.1,0.5-1.6c0.3-0.4,0.7-0.8,1.2-1s1.2-0.4,2-0.4
				c0.7,0,1.4,0.1,1.9,0.3s0.9,0.5,1.1,0.9c0.2,0.4,0.4,0.8,0.4,1.4v4.1c0,0.3,0,0.6,0,1s0,0.7,0.1,1.1h-1.2c0-0.4-0.1-0.7-0.1-1
				s0-0.7,0-1c-0.1,0.4-0.3,0.7-0.6,1.1c-0.3,0.3-0.6,0.6-1,0.8s-1,0.3-1.6,0.3C618.1,678.1,617.6,678,617.2,677.8z M620.5,676.6
				c0.4-0.3,0.8-0.7,1-1.2s0.3-1,0.3-1.6v-0.7c-0.2,0.1-0.4,0.2-0.6,0.3s-0.4,0.2-0.7,0.2l-0.2,0.1l-1.4,0.3c-0.6,0.1-1,0.3-1.3,0.6
				s-0.4,0.6-0.4,1c0,0.5,0.2,0.8,0.5,1.1c0.3,0.2,0.7,0.4,1.2,0.4C619.6,677,620.1,676.9,620.5,676.6z"/>
			<path d="M625.3,669.4h1.4v1.9v0.3v9.7h-1.4V669.4z M627.1,676.9c-0.6-0.8-0.9-1.9-0.9-3.3s0.3-2.5,0.9-3.3s1.6-1.2,2.8-1.2
				c0.9,0,1.6,0.2,2.2,0.6c0.6,0.4,1,0.9,1.3,1.6c0.3,0.7,0.4,1.5,0.4,2.3c0,0.9-0.1,1.7-0.4,2.4c-0.3,0.7-0.7,1.2-1.3,1.6
				c-0.6,0.4-1.3,0.6-2.2,0.6C628.6,678.1,627.7,677.7,627.1,676.9z M631.2,676.7c0.4-0.2,0.7-0.6,0.9-1.1s0.3-1.1,0.3-1.9
				c0-0.8-0.1-1.4-0.3-1.9s-0.5-0.9-0.9-1.1c-0.4-0.3-0.9-0.4-1.6-0.4c-0.6,0-1.1,0.1-1.6,0.4c-0.4,0.2-0.8,0.6-1,1.1
				s-0.3,1.1-0.3,1.9s0.1,1.4,0.3,1.9s0.6,0.9,1,1.1c0.4,0.2,1,0.4,1.6,0.4C630.2,677,630.8,676.9,631.2,676.7z"/>
			<path d="M635.6,669.4h1.3v2.7v0.3v5.6h-1.4v-8.6H635.6z M636.8,671.9c0.2-0.8,0.6-1.5,1.2-1.9s1.2-0.7,2.1-0.7h0.3v1.3H640
				c-0.8,0-1.4,0.1-1.9,0.5c-0.4,0.3-0.8,0.8-0.9,1.4c-0.2,0.6-0.2,1.4-0.2,2.2h-0.5C636.5,673.7,636.6,672.7,636.8,671.9z"/>
		</g>
	</g>
	<g>
		<g>
			<path d="M728.8,666h1.4v11.9h-1.4V666z"/>
			<path d="M733.7,677.8c-0.5-0.2-0.8-0.6-1-1.1s-0.3-1.1-0.3-1.9v-5.4h1.4v5.3c0,0.6,0.1,1.1,0.2,1.4c0.2,0.3,0.4,0.6,0.7,0.7
				s0.7,0.2,1.2,0.2c0.6,0,1.1-0.2,1.5-0.5s0.7-0.8,0.9-1.5s0.3-1.5,0.3-2.4h0.4c0,1.1-0.1,2.1-0.4,2.9s-0.6,1.5-1.2,1.9
				c-0.5,0.5-1.2,0.7-2.1,0.7C734.8,678.1,734.2,678,733.7,677.8z M738.7,675.2V675v-5.7h1.4v8.5h-1.4V675.2z"/>
			<path d="M743.6,677.2c-0.6-0.3-1-0.8-1.3-1.5c-0.3-0.6-0.4-1.4-0.4-2.3c0-1.3,0.3-2.4,1-3.1c0.7-0.8,1.6-1.1,2.9-1.1
				c1.2,0,2.1,0.4,2.8,1.1c0.6,0.7,0.9,1.8,0.9,3.2c0,1-0.1,1.7-0.4,2.4s-0.7,1.1-1.2,1.4c-0.5,0.3-1.2,0.5-2.1,0.5
				C744.9,677.7,744.2,677.5,743.6,677.2z M744,681.1c-0.6-0.2-1-0.6-1.4-1c-0.3-0.5-0.5-1-0.6-1.6h1.3c0,0.4,0.1,0.7,0.3,1
				s0.5,0.5,0.9,0.7s0.9,0.2,1.5,0.2c0.7,0,1.2-0.1,1.6-0.3c0.4-0.2,0.7-0.4,0.9-0.8s0.3-0.9,0.3-1.5v-8.5h1.4v8.5
				c0,0.8-0.1,1.4-0.4,2s-0.7,0.9-1.3,1.2s-1.4,0.4-2.4,0.4C745.3,681.4,744.6,681.3,744,681.1z M747.7,676.3c0.4-0.2,0.7-0.6,1-1
				c0.2-0.5,0.3-1.1,0.3-1.8s-0.1-1.4-0.3-1.8c-0.2-0.5-0.5-0.8-1-1c-0.4-0.2-0.9-0.3-1.6-0.3c-0.7,0-1.2,0.1-1.6,0.3
				c-0.4,0.2-0.7,0.6-0.9,1s-0.3,1.1-0.3,1.8c0,0.8,0.1,1.4,0.3,1.9s0.5,0.8,0.9,1s0.9,0.3,1.6,0.3
				C746.7,676.6,747.3,676.5,747.7,676.3z"/>
		</g>
	</g>
	<g>
		<g>
			<path d="M952.9,677.2c-0.6-0.3-1-0.8-1.3-1.5c-0.3-0.6-0.4-1.4-0.4-2.3c0-1.3,0.3-2.4,1-3.1s1.6-1.1,2.9-1.1
				c1.2,0,2.1,0.4,2.8,1.1c0.6,0.7,0.9,1.8,0.9,3.2c0,1-0.1,1.7-0.4,2.4c-0.3,0.6-0.7,1.1-1.2,1.4s-1.2,0.5-2.1,0.5
				C954.2,677.7,953.4,677.5,952.9,677.2z M953.2,681.1c-0.6-0.2-1-0.6-1.4-1c-0.3-0.5-0.5-1-0.6-1.6h1.3c0,0.4,0.1,0.7,0.3,1
				s0.5,0.5,0.9,0.7s0.9,0.2,1.5,0.2c0.7,0,1.2-0.1,1.6-0.3s0.7-0.4,0.9-0.8c0.2-0.4,0.3-0.9,0.3-1.5v-8.5h1.4v8.5
				c0,0.8-0.1,1.4-0.4,2c-0.3,0.5-0.7,0.9-1.3,1.2s-1.4,0.4-2.4,0.4C954.5,681.4,953.8,681.3,953.2,681.1z M956.9,676.3
				c0.4-0.2,0.7-0.6,1-1c0.2-0.5,0.3-1.1,0.3-1.8s-0.1-1.4-0.3-1.8c-0.2-0.5-0.5-0.8-1-1c-0.4-0.2-0.9-0.3-1.6-0.3
				c-0.7,0-1.2,0.1-1.6,0.3c-0.4,0.2-0.7,0.6-0.9,1c-0.2,0.5-0.3,1.1-0.3,1.8c0,0.8,0.1,1.4,0.3,1.9s0.5,0.8,0.9,1s0.9,0.3,1.6,0.3
				C956,676.6,956.5,676.5,956.9,676.3z"/>
			<path d="M963.2,677.5c-0.6-0.4-1.1-0.9-1.4-1.6c-0.3-0.7-0.5-1.5-0.5-2.3c0-0.9,0.2-1.6,0.5-2.3s0.8-1.2,1.4-1.6
				c0.6-0.4,1.4-0.6,2.3-0.6c0.8,0,1.6,0.2,2.2,0.5c0.6,0.4,1.1,0.9,1.4,1.5s0.5,1.4,0.5,2.2v0.2c0,0.1,0,0.2,0,0.4h-7.1v-1h6.4
				l-0.6,0.6c0-0.8,0-1.4-0.2-1.9s-0.5-0.9-0.9-1.1s-0.9-0.3-1.5-0.3s-1.1,0.1-1.6,0.3s-0.8,0.6-1,1.1s-0.3,1.2-0.3,2s0.1,1.5,0.4,2
				c0.2,0.5,0.6,0.9,1,1.1c0.4,0.2,1,0.3,1.6,0.3c0.5,0,1-0.1,1.4-0.2c0.4-0.2,0.7-0.4,0.9-0.6c0.2-0.3,0.4-0.6,0.5-1h1.2
				c-0.1,0.5-0.2,0.9-0.5,1.4s-0.7,0.8-1.3,1.1s-1.3,0.4-2.2,0.4C964.6,678.1,963.9,677.9,963.2,677.5z"/>
			<path d="M971.3,669.4h1.4v8.5h-1.4V669.4z M972.6,671.7c0.3-0.8,0.7-1.5,1.2-1.9c0.5-0.5,1.2-0.7,2.1-0.7c0.7,0,1.3,0.1,1.7,0.4
				s0.8,0.6,1,1.1s0.3,1.1,0.3,1.8v5.4h-1.4v-5.3c0-0.6-0.1-1.1-0.2-1.4c-0.2-0.4-0.4-0.6-0.7-0.7c-0.3-0.1-0.7-0.2-1.1-0.2
				c-0.6,0-1.2,0.2-1.6,0.5s-0.8,0.8-1,1.5s-0.3,1.5-0.3,2.4h-0.4C972.2,673.5,972.3,672.5,972.6,671.7z"/>
		</g>
	</g>
	<g>
		<g>
			<path d="M1064.9,677.8c-0.4-0.2-0.7-0.5-1-0.8c-0.2-0.4-0.4-0.8-0.4-1.4c0-0.5,0.1-0.9,0.3-1.2c0.2-0.3,0.5-0.6,0.8-0.8
				c0.4-0.2,0.9-0.4,1.5-0.5l2.2-0.4c0.5-0.1,0.8-0.2,1-0.3s0.3-0.4,0.3-0.7s-0.1-0.6-0.2-0.8s-0.3-0.4-0.6-0.5
				c-0.3-0.1-0.7-0.2-1.3-0.2c-0.8,0-1.4,0.2-1.7,0.5c-0.4,0.3-0.6,0.8-0.6,1.4h-1.4c0-0.6,0.2-1.1,0.5-1.6c0.3-0.4,0.7-0.8,1.2-1
				s1.2-0.4,2-0.4c0.7,0,1.4,0.1,1.9,0.3s0.9,0.5,1.1,0.9s0.4,0.8,0.4,1.4v4.1c0,0.3,0,0.6,0,1c0,0.3,0,0.7,0.1,1.1h-1.2
				c0-0.4-0.1-0.7-0.1-1s0-0.7,0-1c-0.1,0.4-0.3,0.7-0.6,1.1c-0.3,0.3-0.6,0.6-1,0.8s-1,0.3-1.6,0.3
				C1065.8,678.1,1065.3,678,1064.9,677.8z M1068.2,676.6c0.4-0.3,0.8-0.7,1-1.2s0.3-1,0.3-1.6v-0.7c-0.2,0.1-0.4,0.2-0.6,0.3
				s-0.4,0.2-0.7,0.2l-0.2,0.1l-1.4,0.3c-0.6,0.1-1,0.3-1.3,0.6s-0.4,0.6-0.4,1c0,0.5,0.2,0.8,0.5,1.1c0.3,0.2,0.7,0.4,1.2,0.4
				C1067.3,677,1067.8,676.9,1068.2,676.6z"/>
			<path d="M1073,669.4h1.4v1.9v0.3v9.7h-1.4V669.4z M1074.8,676.9c-0.6-0.8-0.9-1.9-0.9-3.3s0.3-2.5,0.9-3.3s1.6-1.2,2.8-1.2
				c0.9,0,1.6,0.2,2.2,0.6c0.6,0.4,1,0.9,1.3,1.6c0.3,0.7,0.4,1.5,0.4,2.3c0,0.9-0.1,1.7-0.4,2.4s-0.7,1.2-1.3,1.6
				c-0.6,0.4-1.3,0.6-2.2,0.6C1076.3,678.1,1075.4,677.7,1074.8,676.9z M1078.9,676.7c0.4-0.2,0.7-0.6,0.9-1.1
				c0.2-0.5,0.3-1.1,0.3-1.9c0-0.8-0.1-1.4-0.3-1.9c-0.2-0.5-0.5-0.9-0.9-1.1s-0.9-0.4-1.6-0.4c-0.6,0-1.1,0.1-1.6,0.4
				c-0.4,0.2-0.8,0.6-1,1.1s-0.3,1.1-0.3,1.9s0.1,1.4,0.3,1.9c0.2,0.5,0.6,0.9,1,1.1c0.4,0.2,1,0.4,1.6,0.4
				C1077.9,677,1078.5,676.9,1078.9,676.7z"/>
			<path d="M1083.3,669.4h1.3v2.7v0.3v5.6h-1.4L1083.3,669.4L1083.3,669.4z M1084.5,671.9c0.2-0.8,0.6-1.5,1.2-1.9
				c0.5-0.5,1.2-0.7,2.1-0.7h0.3v1.3h-0.4c-0.8,0-1.4,0.1-1.9,0.5c-0.4,0.3-0.8,0.8-0.9,1.4s-0.2,1.4-0.2,2.2h-0.5
				C1084.2,673.7,1084.3,672.7,1084.5,671.9z"/>
		</g>
	</g>
	<g>
		<g>
			<path d="M1177.5,666h1.4v11.9h-1.4V666z"/>
			<path d="M1182.4,677.8c-0.5-0.2-0.8-0.6-1-1.1s-0.3-1.1-0.3-1.9v-5.4h1.4v5.3c0,0.6,0.1,1.1,0.2,1.4c0.2,0.3,0.4,0.6,0.7,0.7
				c0.3,0.1,0.7,0.2,1.2,0.2c0.6,0,1.1-0.2,1.5-0.5s0.7-0.8,0.9-1.5c0.2-0.7,0.3-1.5,0.3-2.4h0.4c0,1.1-0.1,2.1-0.4,2.9
				c-0.2,0.8-0.6,1.5-1.2,1.9s-1.2,0.7-2.1,0.7C1183.5,678.1,1182.9,678,1182.4,677.8z M1187.4,675.2V675v-5.7h1.4v8.5h-1.4V675.2z"
				/>
			<path d="M1192.3,677.2c-0.6-0.3-1-0.8-1.3-1.5c-0.3-0.6-0.4-1.4-0.4-2.3c0-1.3,0.3-2.4,1-3.1s1.6-1.1,2.9-1.1
				c1.2,0,2.1,0.4,2.8,1.1c0.6,0.7,0.9,1.8,0.9,3.2c0,1-0.1,1.7-0.4,2.4c-0.3,0.6-0.7,1.1-1.2,1.4s-1.2,0.5-2.1,0.5
				C1193.6,677.7,1192.9,677.5,1192.3,677.2z M1192.7,681.1c-0.6-0.2-1-0.6-1.4-1c-0.3-0.5-0.5-1-0.6-1.6h1.3c0,0.4,0.1,0.7,0.3,1
				c0.2,0.3,0.5,0.5,0.9,0.7s0.9,0.2,1.5,0.2c0.7,0,1.2-0.1,1.6-0.3s0.7-0.4,0.9-0.8c0.2-0.4,0.3-0.9,0.3-1.5v-8.5h1.4v8.5
				c0,0.8-0.1,1.4-0.4,2c-0.3,0.5-0.7,0.9-1.3,1.2c-0.6,0.3-1.4,0.4-2.4,0.4C1194,681.4,1193.3,681.3,1192.7,681.1z M1196.4,676.3
				c0.4-0.2,0.7-0.6,1-1c0.2-0.5,0.3-1.1,0.3-1.8s-0.1-1.4-0.3-1.8c-0.2-0.5-0.5-0.8-1-1c-0.4-0.2-0.9-0.3-1.6-0.3s-1.2,0.1-1.6,0.3
				s-0.7,0.6-0.9,1c-0.2,0.5-0.3,1.1-0.3,1.8c0,0.8,0.1,1.4,0.3,1.9c0.2,0.5,0.5,0.8,0.9,1s0.9,0.3,1.6,0.3
				C1195.4,676.6,1196,676.5,1196.4,676.3z"/>
		</g>
	</g>
	<g>
		<g>
			<path d="M844,677.5c-0.6-0.4-1.1-0.9-1.4-1.6s-0.5-1.5-0.5-2.3c0-0.9,0.2-1.6,0.5-2.3s0.8-1.2,1.4-1.6c0.6-0.4,1.4-0.6,2.4-0.6
				c0.9,0,1.7,0.2,2.3,0.6c0.6,0.4,1.1,0.9,1.4,1.6s0.5,1.5,0.5,2.3c0,0.9-0.2,1.6-0.5,2.3s-0.8,1.2-1.4,1.6
				c-0.6,0.4-1.4,0.6-2.3,0.6C845.5,678.1,844.7,677.9,844,677.5z M843.8,675.5c0.2,0.5,0.5,0.9,1,1.1c0.4,0.2,1,0.4,1.6,0.4
				s1.2-0.1,1.6-0.4c0.4-0.2,0.7-0.6,1-1.1c0.2-0.5,0.3-1.2,0.3-1.9c0-0.8-0.1-1.4-0.3-1.9s-0.5-0.9-1-1.1c-0.4-0.2-1-0.4-1.6-0.4
				c-0.7,0-1.2,0.1-1.6,0.4c-0.4,0.2-0.7,0.6-1,1.1c-0.2,0.5-0.3,1.2-0.3,1.9C843.5,674.4,843.6,675,843.8,675.5z"/>
			<path d="M853.8,677.6c-0.3-0.1-0.5-0.4-0.6-0.6s-0.2-0.7-0.2-1.1v-5.4h-1.6v-0.8l1.8-0.4l0.5-1.8h0.7v1.9h4.7v1.1h-4.7v6.3h2.7
				v1.1h-2C854.5,677.9,854.1,677.8,853.8,677.6z M859.3,677.6c-0.3-0.1-0.5-0.4-0.6-0.6s-0.2-0.7-0.2-1.1v-5.4h-1.6v-0.8l1.6-0.2
				l0.6-2h0.7v1.9h2.8v1.1h-2.7v6.3h2.7v1.1h-2C860,677.9,859.6,677.8,859.3,677.6z"/>
		</g>
	</g>
</g>
<g id="rawgraph">
	<g id="Anno_00000105417608227171071620000014775418991258327439_">
		<path class="st4" d="M70,442.3c19,0,19,16.8,38,16.8c17.2,0,17.2,45.4,34.3,45.4c19,0,19,0.6,38,0.6c18.4,0,18.4-111.8,36.8-111.8
			c19,0,19-58.9,38-58.9c18.4,0,18.4,55.5,36.8,55.5c19,0,19-49.4,38-49.4s19,133.5,38,133.5c18.4,0,18.4-53.2,36.8-53.2
			c19,0,19,48.4,38.1,48.4c18.4,0,18.4,44.5,36.8,44.5c19,0,19,18.3,38,18.3s19-7,38-7c17.2,0,17.2,22.8,34.3,22.8
			c19,0,19-4.4,38-4.4c18.4,0,18.4-117.3,36.8-117.3c19,0,19,39.5,38,39.5c18.4,0,18.4,98,36.8,98c19,0,19,2,38,2s19-38.9,38-38.9
			c18.4,0,18.4-34.2,36.8-34.2c19,0,19-73.2,38.1-73.2c18.4,0,18.4,46.9,36.8,46.9c19,0,19,30.9,38,30.9s19,10.5,38,10.5
			c17.2,0,17.2-2,34.3-2c19,0,19-27.7,38-27.7c18.4,0,18.4-129.9,36.8-129.9c19,0,19-27.9,38-27.9"/>
	</g>
	<path class="st5" d="M70,292.5c19,0,19,36.6,38,36.6c17.2,0,17.2,19.9,34.3,19.9c19,0,19-84.3,38-84.3c18.4,0,18.4-59.7,36.8-59.7
		c19,0,19-31.4,38-31.4c18.4,0,18.4-41.1,36.8-41.1c19,0,19,72.7,38,72.7s19-67.5,38-67.5c18.4,0,18.4-55.8,36.8-55.8
		c19,0,19,33.9,38.1,33.9c18.4,0,18.4,85.8,36.8,85.8c19,0,19,90.8,38,90.8s19,36.6,38,36.6c17.2,0,17.2,19.9,34.3,19.9
		c19,0,19-84.3,38-84.3c18.4,0,18.4-59.7,36.8-59.7c19,0,19-31.4,38-31.4c18.4,0,18.4-41.1,36.8-41.1c19,0,19,72.7,38,72.7
		s19-67.5,38-67.5c18.4,0,18.4-55.8,36.8-55.8c19,0,19,33.9,38.1,33.9c18.4,0,18.4,85.8,36.8,85.8c19,0,19,90.8,38,90.8
		s19,36.6,38,36.6c17.2,0,17.2,19.9,34.3,19.9c19,0,19-84.3,38-84.3c18.4,0,18.4-59.7,36.8-59.7c19,0,19-31.4,38-31.4"/>
	<path class="st6" d="M70,608.3c19,0,19,12.4,38,12.4c17.2,0,17.2-33.9,34.3-33.9c19,0,19-27.3,38-27.3c18.4,0,18.4,17.4,36.8,17.4
		c19,0,19-20.9,38-20.9c18.4,0,18.4-41.7,36.8-41.7c19,0,19,17.6,38,17.6s19,35.2,38,35.2c18.4,0,18.4,10.5,36.8,10.5
		c19,0,19,0.7,38.1,0.7c18.4,0,18.4,24.4,36.8,24.4c19,0,19,5.5,38,5.5s19,12.4,38,12.4c17.2,0,17.2-33.9,34.3-33.9
		c19,0,19-27.3,38-27.3c18.4,0,18.4,17.4,36.8,17.4c19,0,19-20.9,38-20.9c18.4,0,18.4-41.7,36.8-41.7c19,0,19,17.6,38,17.6
		s19,35.2,38,35.2c18.4,0,18.4,10.5,36.8,10.5c19,0,19,0.7,38.1,0.7c18.4,0,18.4,24.4,36.8,24.4c19,0,19,5.5,38,5.5s19,12.4,38,12.4
		c17.2,0,17.2-33.9,34.3-33.9c19,0,19-27.3,38-27.3c18.4,0,18.4,17.4,36.8,17.4c19,0,19-20.9,38-20.9"/>
	<line class="st7" x1="69.9" y1="499.8" x2="1188.1" y2="499.8"/>
</g>
<g transform="translate(-400,258)">
	<g>
		<g class="st0">
			<path d="M672.9,456l5.3-4.4c0.5-0.4,0.9-0.8,1.1-1.2s0.3-0.8,0.3-1.2c0-0.6-0.2-1-0.6-1.4c-0.4-0.4-0.9-0.5-1.7-0.5
				c-0.7,0-1.3,0.1-1.7,0.4s-0.8,0.6-1,1.2c-0.2,0.5-0.3,1.1-0.3,1.9h-1.4c0-0.9,0.2-1.6,0.5-2.3c0.3-0.7,0.8-1.2,1.4-1.6
				c0.6-0.4,1.5-0.6,2.5-0.6c0.9,0,1.6,0.1,2.1,0.4s0.9,0.6,1.2,1.1c0.2,0.4,0.4,1,0.4,1.5c0,0.7-0.2,1.3-0.6,1.9
				c-0.4,0.6-1,1.2-2,2l-3.6,3h6.4v1.1h-8.3L672.9,456L672.9,456z"/>
			<path d="M684.8,456.6c-0.7-0.5-1.2-1.1-1.6-2c-0.3-0.8-0.5-1.8-0.5-2.9s0.2-2.1,0.5-2.9s0.9-1.5,1.6-2s1.6-0.7,2.7-0.7
				c1.1,0,2,0.2,2.7,0.7s1.2,1.1,1.6,2c0.4,0.9,0.5,1.8,0.5,2.9s-0.2,2.1-0.5,2.9s-0.9,1.5-1.6,2s-1.6,0.7-2.7,0.7
				C686.5,457.3,685.6,457.1,684.8,456.6z M684.5,454.2c0.2,0.7,0.6,1.2,1.1,1.5s1.1,0.5,1.9,0.5s1.4-0.2,1.9-0.5s0.9-0.8,1.1-1.5
				s0.4-1.5,0.4-2.5s-0.1-1.9-0.4-2.5s-0.6-1.2-1.1-1.5s-1.1-0.5-1.9-0.5s-1.4,0.2-1.9,0.5s-0.9,0.8-1.1,1.5s-0.4,1.5-0.4,2.5
				S684.3,453.6,684.5,454.2z"/>
			<path d="M694.1,456l5.3-4.4c0.5-0.4,0.9-0.8,1.1-1.2c0.2-0.3,0.3-0.8,0.3-1.2c0-0.6-0.2-1-0.6-1.4c-0.4-0.4-0.9-0.5-1.7-0.5
				c-0.7,0-1.3,0.1-1.7,0.4s-0.8,0.6-1,1.2c-0.2,0.5-0.3,1.1-0.3,1.9h-1.4c0-0.9,0.2-1.6,0.5-2.3c0.3-0.7,0.8-1.2,1.4-1.6
				c0.6-0.4,1.5-0.6,2.5-0.6c0.9,0,1.6,0.1,2.1,0.4s0.9,0.6,1.2,1.1c0.3,0.4,0.4,1,0.4,1.5c0,0.7-0.2,1.3-0.6,1.9
				c-0.4,0.6-1,1.2-2,2l-3.6,3h6.4v1.1h-8.3L694.1,456L694.1,456z"/>
			<path d="M704.2,456h2.5v-8.5h-2.5v-1.1h2.3c0.5,0,0.9,0.1,1.2,0.3c0.2,0.2,0.3,0.6,0.3,1v8.2h2.3v1.1h-6.1V456L704.2,456z"/>
		</g>
	</g>
</g>
<g transform="translate(-400,258)">
	<g>
		<g class="st0">
			<path d="M1119.8,456l5.3-4.4c0.5-0.4,0.9-0.8,1.1-1.2s0.3-0.8,0.3-1.2c0-0.6-0.2-1-0.6-1.4c-0.4-0.3-0.9-0.5-1.7-0.5
				c-0.7,0-1.3,0.1-1.7,0.4s-0.8,0.6-1,1.2c-0.2,0.5-0.3,1.1-0.3,1.9h-1.4c0-0.9,0.2-1.6,0.5-2.3c0.3-0.7,0.8-1.2,1.4-1.6
				c0.6-0.4,1.5-0.6,2.5-0.6c0.9,0,1.6,0.1,2.1,0.4s0.9,0.6,1.2,1.1c0.2,0.4,0.4,1,0.4,1.5c0,0.7-0.2,1.3-0.6,1.9s-1,1.2-2,2l-3.6,3
				h6.4v1.1h-8.3L1119.8,456L1119.8,456z"/>
			<path d="M1131.8,456.6c-0.7-0.5-1.2-1.1-1.6-2c-0.3-0.8-0.5-1.8-0.5-2.9s0.2-2.1,0.5-2.9c0.3-0.8,0.9-1.5,1.6-2s1.6-0.7,2.7-0.7
				c1.1,0,2,0.2,2.7,0.7c0.7,0.5,1.2,1.1,1.6,2c0.3,0.8,0.5,1.8,0.5,2.9s-0.2,2.1-0.5,2.9c-0.3,0.8-0.9,1.5-1.6,2s-1.6,0.7-2.7,0.7
				C1133.4,457.3,1132.4,457.1,1131.8,456.6z M1131.3,454.2c0.2,0.7,0.6,1.2,1.1,1.5s1.1,0.5,1.9,0.5s1.4-0.2,1.9-0.5
				s0.9-0.8,1.1-1.5c0.2-0.7,0.4-1.5,0.4-2.5s-0.1-1.9-0.4-2.5c-0.2-0.7-0.6-1.2-1.1-1.5s-1.1-0.5-1.9-0.5c-0.8,0-1.4,0.2-1.9,0.5
				s-0.9,0.8-1.1,1.5s-0.4,1.5-0.4,2.5S1131.1,453.6,1131.3,454.2z"/>
			<path d="M1140.9,456l5.3-4.4c0.5-0.4,0.9-0.8,1.1-1.2s0.3-0.8,0.3-1.2c0-0.6-0.2-1-0.6-1.4c-0.4-0.4-0.9-0.5-1.7-0.5
				c-0.7,0-1.3,0.1-1.7,0.4s-0.8,0.6-1,1.2c-0.2,0.5-0.3,1.1-0.3,1.9h-1.4c0-0.9,0.2-1.6,0.5-2.3c0.3-0.7,0.8-1.2,1.4-1.6
				c0.6-0.4,1.5-0.6,2.5-0.6c0.9,0,1.6,0.1,2.1,0.4s0.9,0.6,1.2,1.1c0.2,0.4,0.4,1,0.4,1.5c0,0.7-0.2,1.3-0.6,1.9
				c-0.4,0.6-1,1.2-2,2l-3.6,3h6.4v1.1h-8.3L1140.9,456L1140.9,456z"/>
			<path d="M1151.1,456l5.3-4.4c0.5-0.4,0.9-0.8,1.1-1.2c0.2-0.3,0.3-0.8,0.3-1.2c0-0.6-0.2-1-0.6-1.4c-0.4-0.3-0.9-0.5-1.7-0.5
				c-0.7,0-1.3,0.1-1.7,0.4s-0.8,0.6-1,1.2c-0.2,0.5-0.3,1.1-0.3,1.9h-1.4c0-0.9,0.2-1.6,0.5-2.3c0.3-0.7,0.8-1.2,1.4-1.6
				s1.5-0.6,2.5-0.6c0.9,0,1.6,0.1,2.1,0.4s0.9,0.6,1.2,1.1c0.3,0.4,0.4,1,0.4,1.5c0,0.7-0.2,1.3-0.6,1.9c-0.4,0.6-1,1.2-2,2l-3.6,3
				h6.4v1.1h-8.3V456L1151.1,456z"/>
		</g>
	</g>
</g>
<g transform="translate(-400,258)">
	<g>
		<g class="st0">
			<path d="M1457.1,455.7l5.3-4.4c0.5-0.4,0.9-0.8,1.1-1.2s0.3-0.8,0.3-1.2c0-0.6-0.2-1-0.6-1.4c-0.4-0.3-0.9-0.5-1.7-0.5
				c-0.7,0-1.3,0.1-1.7,0.4c-0.4,0.3-0.8,0.6-1,1.2c-0.2,0.5-0.3,1.1-0.3,1.9h-1.4c0-0.9,0.2-1.6,0.5-2.3s0.8-1.2,1.4-1.6
				s1.5-0.6,2.5-0.6c0.9,0,1.6,0.1,2.1,0.4s0.9,0.6,1.2,1.1c0.2,0.4,0.4,1,0.4,1.5c0,0.7-0.2,1.3-0.6,1.9s-1,1.2-2,2l-3.6,3h6.4v1.1
				h-8.3L1457.1,455.7L1457.1,455.7z"/>
			<path d="M1469,456.3c-0.7-0.5-1.2-1.1-1.6-2c-0.3-0.8-0.5-1.8-0.5-2.9s0.2-2.1,0.5-2.9s0.9-1.5,1.6-2s1.6-0.7,2.7-0.7
				s2,0.2,2.7,0.7s1.2,1.1,1.6,2c0.3,0.8,0.5,1.8,0.5,2.9s-0.2,2.1-0.5,2.9s-0.9,1.5-1.6,2s-1.6,0.7-2.7,0.7
				C1470.7,457,1469.8,456.8,1469,456.3z M1468.7,453.9c0.2,0.7,0.6,1.2,1.1,1.5s1.1,0.5,1.9,0.5s1.4-0.2,1.9-0.5s0.9-0.8,1.1-1.5
				s0.4-1.5,0.4-2.5s-0.1-1.9-0.4-2.5c-0.2-0.7-0.6-1.2-1.1-1.5s-1.1-0.5-1.9-0.5s-1.4,0.2-1.9,0.5s-0.9,0.8-1.1,1.5
				s-0.4,1.5-0.4,2.5C1468.3,452.4,1468.5,453.3,1468.7,453.9z"/>
			<path d="M1478.3,455.7l5.3-4.4c0.5-0.4,0.9-0.8,1.1-1.2s0.3-0.8,0.3-1.2c0-0.6-0.2-1-0.6-1.4s-0.9-0.5-1.7-0.5
				c-0.7,0-1.3,0.1-1.7,0.4c-0.4,0.3-0.8,0.6-1,1.2c-0.2,0.5-0.3,1.1-0.3,1.9h-1.4c0-0.9,0.2-1.6,0.5-2.3c0.3-0.7,0.8-1.2,1.4-1.6
				s1.5-0.6,2.5-0.6c0.9,0,1.6,0.1,2.1,0.4s0.9,0.6,1.2,1.1c0.2,0.4,0.4,1,0.4,1.5c0,0.7-0.2,1.3-0.6,1.9s-1,1.2-2,2l-3.6,3h6.4v1.1
				h-8.3L1478.3,455.7L1478.3,455.7z"/>
			<path d="M1489.9,454.6c0.2,0.4,0.6,0.7,1,0.9c0.4,0.2,0.9,0.4,1.5,0.4c0.9,0,1.7-0.2,2.1-0.6c0.5-0.4,0.7-1.1,0.7-1.9
				c0-0.7-0.2-1.2-0.6-1.7c-0.4-0.4-1-0.6-1.7-0.6c-0.4,0-0.7,0-1,0.1s-0.6,0.2-0.9,0.5l-0.6-0.8l4.2-3.6h-6v-1.1h7.6v1.1l-3.7,3.3
				c0.3-0.1,0.7-0.1,1.1-0.1c0.5,0,1,0.1,1.5,0.3c0.5,0.2,0.8,0.6,1.1,1c0.3,0.5,0.4,1,0.4,1.7c0,0.6-0.1,1.2-0.4,1.8
				s-0.8,1-1.4,1.3s-1.5,0.5-2.5,0.5c-0.9,0-1.7-0.2-2.3-0.5s-1.1-0.8-1.4-1.3c-0.3-0.6-0.5-1.2-0.5-1.9h1.4
				C1489.5,453.8,1489.6,454.2,1489.9,454.6z"/>
		</g>
	</g>
</g>
<line class="st8" x1="69.9" y1="650.8" x2="69.9" y2="709.8"/>
<line class="st8" x1="517.7" y1="650.8" x2="517.7" y2="709.8"/>
<line class="st8" x1="965.4" y1="650.8" x2="965.4" y2="709.8"/>
<line class="st9" x1="1188.3" y1="650.8" x2="1188.3" y2="709.8"/>
<line class="st10" x1="316.9" y1="709.8" x2="517.8" y2="709.8"/>
<line class="st10" x1="69.9" y1="709.8" x2="266.3" y2="709.8"/>
<line class="st10" x1="765.3" y1="709.8" x2="965.8" y2="709.8"/>
<line class="st10" x1="517.8" y1="709.8" x2="714.7" y2="709.8"/>
<line class="st10" x1="1102.8" y1="709.8" x2="1188.3" y2="709.8"/>
<line class="st10" x1="965.5" y1="709.8" x2="1052.2" y2="709.8"/>
</svg>
