<?xml version="1.0" encoding="utf-8"?>
<!-- Generator: Adobe Illustrator 25.2.0, SVG Export Plug-In . SVG Version: 6.00 Build 0)  -->
<svg version="1.1" id="Livello_1" xmlns="http://www.w3.org/2000/svg" xmlns:xlink="http://www.w3.org/1999/xlink" x="0px" y="0px"
	 viewBox="0 0 1200 720" style="enable-background:new 0 0 1200 720;" xml:space="preserve">
<style type="text/css">
	.st0{enable-background:new    ;}
	.st1{fill:none;stroke:#000000;stroke-width:0.5;stroke-linecap:square;stroke-linejoin:round;}
	.st2{fill:none;stroke:#000000;stroke-width:0.25;stroke-linecap:square;stroke-linejoin:round;}
	.st3{fill:none;stroke:#000000;stroke-width:0.75;stroke-linecap:square;stroke-linejoin:round;}
	.st4{fill:none;stroke:#6691E0;stroke-width:4;stroke-linejoin:round;}
	.st5{fill:none;stroke:#003599;stroke-width:5;stroke-linejoin:round;stroke-dasharray:1,5;}
	.st6{fill:none;stroke:#99B5EB;stroke-width:5;stroke-linejoin:round;stroke-dasharray:1,5;}
	.st7{fill:none;stroke:#000000;stroke-width:0.75;}
</style>
<g id="Livello_1_1_">
	<g transform="translate(-400,258)">
		<g>
			<g class="st0">
				<path d="M441,437.9l5.3-4.4c0.5-0.4,0.9-0.8,1.1-1.2s0.3-0.8,0.3-1.2c0-0.6-0.2-1-0.6-1.4c-0.4-0.3-0.9-0.5-1.7-0.5
					c-0.7,0-1.3,0.1-1.7,0.4c-0.4,0.3-0.8,0.6-1,1.2c-0.2,0.5-0.3,1.1-0.3,1.9H441c0-0.9,0.2-1.6,0.5-2.3s0.8-1.2,1.4-1.6
					s1.5-0.6,2.5-0.6c0.9,0,1.6,0.1,2.1,0.4s0.9,0.6,1.2,1.1c0.2,0.4,0.4,1,0.4,1.5c0,0.7-0.2,1.3-0.6,1.9s-1,1.2-2,2l-3.6,3h6.4
					v1.1H441V437.9z"/>
				<path d="M452.9,438.5c-0.7-0.5-1.2-1.1-1.6-2c-0.3-0.8-0.5-1.8-0.5-2.9s0.2-2.1,0.5-2.9s0.9-1.5,1.6-2s1.6-0.7,2.7-0.7
					s2,0.2,2.7,0.7s1.2,1.1,1.6,2c0.3,0.8,0.5,1.8,0.5,2.9s-0.2,2.1-0.5,2.9s-0.9,1.5-1.6,2s-1.6,0.7-2.7,0.7
					C454.5,439.3,453.6,439,452.9,438.5z M452.6,436.2c0.2,0.7,0.6,1.2,1.1,1.5s1.1,0.5,1.9,0.5s1.4-0.2,1.9-0.5s0.9-0.8,1.1-1.5
					s0.4-1.5,0.4-2.5s-0.1-1.9-0.4-2.5c-0.2-0.7-0.6-1.2-1.1-1.5s-1.1-0.5-1.9-0.5s-1.4,0.2-1.9,0.5s-0.9,0.8-1.1,1.5
					s-0.4,1.5-0.4,2.5S452.3,435.5,452.6,436.2z"/>
				<path d="M462.2,437.9l5.3-4.4c0.5-0.4,0.9-0.8,1.1-1.2s0.3-0.8,0.3-1.2c0-0.6-0.2-1-0.6-1.4s-0.9-0.5-1.7-0.5
					c-0.7,0-1.3,0.1-1.7,0.4c-0.4,0.3-0.8,0.6-1,1.2c-0.2,0.5-0.3,1.1-0.3,1.9h-1.4c0-0.9,0.2-1.6,0.5-2.3c0.3-0.7,0.8-1.2,1.4-1.6
					s1.5-0.6,2.5-0.6c0.9,0,1.6,0.1,2.1,0.4s0.9,0.6,1.2,1.1c0.2,0.4,0.4,1,0.4,1.5c0,0.7-0.2,1.3-0.6,1.9s-1,1.2-2,2l-3.6,3h6.4
					v1.1h-8.3L462.2,437.9L462.2,437.9z"/>
				<path d="M472.3,437.9h2.5v-8.5h-2.5v-1.1h2.3c0.5,0,0.9,0.1,1.2,0.3c0.2,0.2,0.3,0.6,0.3,1v8.2h2.3v1.1h-6.1L472.3,437.9
					L472.3,437.9z"/>
			</g>
		</g>
	</g>
	<g transform="translate(-400,258)">
		<g>
			<g class="st0">
				<path d="M887.2,437.9l5.3-4.4c0.5-0.4,0.9-0.8,1.1-1.2s0.3-0.8,0.3-1.2c0-0.6-0.2-1-0.6-1.4c-0.4-0.3-0.9-0.5-1.7-0.5
					c-0.7,0-1.3,0.1-1.7,0.4s-0.8,0.6-1,1.2c-0.2,0.5-0.3,1.1-0.3,1.9h-1.4c0-0.9,0.2-1.6,0.5-2.3s0.8-1.2,1.4-1.6
					c0.6-0.4,1.5-0.6,2.5-0.6c0.9,0,1.6,0.1,2.1,0.4s0.9,0.6,1.2,1.1c0.2,0.4,0.4,1,0.4,1.5c0,0.7-0.2,1.3-0.6,1.9
					c-0.4,0.6-1,1.2-2,2l-3.6,3h6.4v1.1h-8.3L887.2,437.9L887.2,437.9z"/>
				<path d="M899.1,438.5c-0.7-0.5-1.2-1.1-1.6-2c-0.3-0.8-0.5-1.8-0.5-2.9s0.2-2.1,0.5-2.9s0.9-1.5,1.6-2s1.6-0.7,2.7-0.7
					c1.1,0,2,0.2,2.7,0.7s1.2,1.1,1.6,2c0.3,0.8,0.5,1.8,0.5,2.9s-0.2,2.1-0.5,2.9s-0.9,1.5-1.6,2c-0.7,0.5-1.6,0.7-2.7,0.7
					C900.8,439.3,899.9,439,899.1,438.5z M898.8,436.2c0.2,0.7,0.6,1.2,1.1,1.5s1.1,0.5,1.9,0.5c0.8,0,1.4-0.2,1.9-0.5
					s0.9-0.8,1.1-1.5c0.2-0.7,0.4-1.5,0.4-2.5s-0.1-1.9-0.4-2.5c-0.2-0.7-0.6-1.2-1.1-1.5s-1.1-0.5-1.9-0.5c-0.8,0-1.4,0.2-1.9,0.5
					s-0.9,0.8-1.1,1.5s-0.4,1.5-0.4,2.5C898.4,434.7,898.6,435.5,898.8,436.2z"/>
				<path d="M908.4,437.9l5.3-4.4c0.5-0.4,0.9-0.8,1.1-1.2s0.3-0.8,0.3-1.2c0-0.6-0.2-1-0.6-1.4s-0.9-0.5-1.7-0.5
					c-0.7,0-1.3,0.1-1.7,0.4s-0.8,0.6-1,1.2c-0.2,0.5-0.3,1.1-0.3,1.9h-1.4c0-0.9,0.2-1.6,0.5-2.3c0.3-0.7,0.8-1.2,1.4-1.6
					c0.6-0.4,1.5-0.6,2.5-0.6c0.9,0,1.6,0.1,2.1,0.4s0.9,0.6,1.2,1.1c0.2,0.4,0.4,1,0.4,1.5c0,0.7-0.2,1.3-0.6,1.9s-1,1.2-2,2
					l-3.6,3h6.4v1.1h-8.3L908.4,437.9L908.4,437.9z"/>
				<path d="M918.5,437.9l5.3-4.4c0.5-0.4,0.9-0.8,1.1-1.2c0.2-0.3,0.3-0.8,0.3-1.2c0-0.6-0.2-1-0.6-1.4c-0.4-0.3-0.9-0.5-1.7-0.5
					c-0.7,0-1.3,0.1-1.7,0.4s-0.8,0.6-1,1.2c-0.2,0.5-0.3,1.1-0.3,1.9h-1.4c0-0.9,0.2-1.6,0.5-2.3c0.3-0.7,0.8-1.2,1.4-1.6
					c0.6-0.4,1.5-0.6,2.5-0.6c0.9,0,1.6,0.1,2.1,0.4s0.9,0.6,1.2,1.1c0.3,0.4,0.4,1,0.4,1.5c0,0.7-0.2,1.3-0.6,1.9
					c-0.4,0.6-1,1.2-2,2l-3.6,3h6.4v1.1h-8.3L918.5,437.9L918.5,437.9z"/>
			</g>
		</g>
	</g>
	<g>
		<g class="st0">
			<path d="M1133.6,160.4h-1.3v-9.6l-3.6,9.6h-1.8l-3.6-9.6v9.6h-1.3v-10.6h2.3l3.5,9.4l3.5-9.4h2.3V160.4z"/>
			<path d="M1143.6,160.4l-1-2.7h-5.3l-1,2.7h-1.3l4-10.6h2l4,10.6H1143.6z M1137.7,156.6h4.5l-2.2-5.9L1137.7,156.6z"/>
			<path d="M1147.2,160.4h-1.6l4.3-5.9l0.8,1L1147.2,160.4z M1145.7,149.8h1.6l8,10.6h-1.7L1145.7,149.8z M1153.5,149.8h1.6
				l-4.2,5.8l-0.8-1L1153.5,149.8z"/>
		</g>
	</g>
	<g>
		<g class="st0">
			<path d="M1133.6,544.3h-1.3v-9.6l-3.6,9.6h-1.8l-3.6-9.6v9.6h-1.3v-10.6h2.3l3.5,9.4l3.5-9.4h2.3V544.3z"/>
			<path d="M1135.5,533.7h5.8v1.1h-5.8V533.7z M1135.5,543.2h5.8v1.1h-5.8V543.2z M1137.8,534.2h1.3v9.6h-1.3V534.2z"/>
			<path d="M1151,533.7h1.3v10.6h-2.2l-4.8-8.4c-0.3-0.6-0.5-1-0.7-1.4v9.7h-1.3v-10.6h2.2l4.8,8.4c0.2,0.3,0.4,0.8,0.7,1.4V533.7z"
				/>
		</g>
	</g>
	<g transform="translate(-400,258)">
		<g>
			<g class="st0">
				<path d="M1334.9,437.9l5.3-4.4c0.5-0.4,0.9-0.8,1.1-1.2s0.3-0.8,0.3-1.2c0-0.6-0.2-1-0.6-1.4c-0.4-0.3-0.9-0.5-1.7-0.5
					c-0.7,0-1.3,0.1-1.7,0.4c-0.4,0.3-0.8,0.6-1,1.2c-0.2,0.5-0.3,1.1-0.3,1.9h-1.4c0-0.9,0.2-1.6,0.5-2.3s0.8-1.2,1.4-1.6
					s1.5-0.6,2.5-0.6c0.9,0,1.6,0.1,2.1,0.4s0.9,0.6,1.2,1.1c0.2,0.4,0.4,1,0.4,1.5c0,0.7-0.2,1.3-0.6,1.9s-1,1.2-2,2l-3.6,3h6.4
					v1.1h-8.3L1334.9,437.9L1334.9,437.9z"/>
				<path d="M1346.8,438.5c-0.7-0.5-1.2-1.1-1.6-2c-0.3-0.8-0.5-1.8-0.5-2.9s0.2-2.1,0.5-2.9s0.9-1.5,1.6-2s1.6-0.7,2.7-0.7
					s2,0.2,2.7,0.7s1.2,1.1,1.6,2c0.3,0.8,0.5,1.8,0.5,2.9s-0.2,2.1-0.5,2.9s-0.9,1.5-1.6,2s-1.6,0.7-2.7,0.7
					C1348.4,439.3,1347.5,439,1346.8,438.5z M1346.5,436.2c0.2,0.7,0.6,1.2,1.1,1.5s1.1,0.5,1.9,0.5s1.4-0.2,1.9-0.5
					s0.9-0.8,1.1-1.5s0.4-1.5,0.4-2.5s-0.1-1.9-0.4-2.5c-0.2-0.7-0.6-1.2-1.1-1.5s-1.1-0.5-1.9-0.5s-1.4,0.2-1.9,0.5
					s-0.9,0.8-1.1,1.5s-0.4,1.5-0.4,2.5S1346.2,435.5,1346.5,436.2z"/>
				<path d="M1356.1,437.9l5.3-4.4c0.5-0.4,0.9-0.8,1.1-1.2s0.3-0.8,0.3-1.2c0-0.6-0.2-1-0.6-1.4s-0.9-0.5-1.7-0.5
					c-0.7,0-1.3,0.1-1.7,0.4c-0.4,0.3-0.8,0.6-1,1.2c-0.2,0.5-0.3,1.1-0.3,1.9h-1.4c0-0.9,0.2-1.6,0.5-2.3c0.3-0.7,0.8-1.2,1.4-1.6
					s1.5-0.6,2.5-0.6c0.9,0,1.6,0.1,2.1,0.4s0.9,0.6,1.2,1.1c0.2,0.4,0.4,1,0.4,1.5c0,0.7-0.2,1.3-0.6,1.9s-1,1.2-2,2l-3.6,3h6.4
					v1.1h-8.3L1356.1,437.9L1356.1,437.9z"/>
				<path d="M1367.6,436.9c0.2,0.4,0.6,0.7,1,0.9c0.4,0.2,0.9,0.4,1.5,0.4c0.9,0,1.7-0.2,2.1-0.6c0.5-0.4,0.7-1.1,0.7-1.9
					c0-0.7-0.2-1.2-0.6-1.7c-0.4-0.4-1-0.6-1.7-0.6c-0.4,0-0.7,0-1,0.1s-0.6,0.2-0.9,0.5l-0.6-0.8l4.2-3.6h-6v-1.1h7.6v1.1l-3.7,3.3
					c0.3-0.1,0.7-0.1,1.1-0.1c0.5,0,1,0.1,1.5,0.3c0.5,0.2,0.8,0.6,1.1,1c0.3,0.5,0.4,1,0.4,1.7c0,0.6-0.1,1.2-0.4,1.8
					s-0.8,1-1.4,1.3s-1.5,0.5-2.5,0.5c-0.9,0-1.7-0.2-2.3-0.5s-1.1-0.8-1.4-1.3c-0.3-0.6-0.5-1.2-0.5-1.9h1.4
					C1367.3,436,1367.4,436.5,1367.6,436.9z"/>
			</g>
		</g>
	</g>
	<line class="st1" x1="59" y1="650.3" x2="59" y2="84.2"/>
	<line class="st2" x1="1177.2" y1="650.3" x2="1177.2" y2="84.2"/>
	<line class="st2" x1="169.5" y1="650.3" x2="169.5" y2="84.2"/>
	<line class="st2" x1="95.7" y1="650.3" x2="95.7" y2="644.1"/>
	<line class="st2" x1="132.6" y1="650.3" x2="132.6" y2="644.1"/>
	<line class="st2" x1="281.1" y1="650.3" x2="281.1" y2="84.2"/>
	<line class="st2" x1="207.3" y1="650.3" x2="207.3" y2="644.1"/>
	<line class="st2" x1="244.1" y1="650.3" x2="244.1" y2="644.1"/>
	<line class="st2" x1="354.8" y1="650.3" x2="354.8" y2="644.1"/>
	<line class="st2" x1="317.9" y1="650.3" x2="317.9" y2="644.1"/>
	<line class="st2" x1="393.9" y1="650.3" x2="393.9" y2="84.2"/>
	<line class="st2" x1="430.8" y1="650.3" x2="430.8" y2="644.1"/>
	<line class="st2" x1="469.9" y1="650.3" x2="469.9" y2="644.1"/>
	<line class="st1" x1="506.7" y1="650.3" x2="506.7" y2="84.2"/>
	<line class="st2" x1="545.8" y1="650.3" x2="545.8" y2="644.1"/>
	<line class="st2" x1="582.7" y1="650.3" x2="582.7" y2="644.1"/>
	<line class="st2" x1="617" y1="650.3" x2="617" y2="84.2"/>
	<line class="st2" x1="657.4" y1="650.3" x2="657.4" y2="644.1"/>
	<line class="st2" x1="694.2" y1="650.3" x2="694.2" y2="644.1"/>
	<line class="st2" x1="728.6" y1="650.3" x2="728.6" y2="84.2"/>
	<line class="st2" x1="765.5" y1="650.3" x2="765.5" y2="644.1"/>
	<line class="st2" x1="799.9" y1="650.3" x2="799.9" y2="644.1"/>
	<line class="st2" x1="841.4" y1="650.3" x2="841.4" y2="84.2"/>
	<line class="st2" x1="875.8" y1="650.3" x2="875.8" y2="644.1"/>
	<line class="st2" x1="917.3" y1="650.3" x2="917.3" y2="644.1"/>
	<line class="st1" x1="954.3" y1="650.3" x2="954.3" y2="84.2"/>
	<line class="st2" x1="995.8" y1="650.3" x2="995.8" y2="644.1"/>
	<line class="st2" x1="1032.8" y1="650.3" x2="1032.8" y2="644.1"/>
	<line class="st2" x1="1064.6" y1="650.3" x2="1064.6" y2="84.2"/>
	<line class="st2" x1="1101.5" y1="650.3" x2="1101.5" y2="644.1"/>
	<line class="st2" x1="1133.3" y1="650.3" x2="1133.3" y2="644.1"/>
	<line class="st1" x1="59" y1="650.3" x2="53" y2="650.3"/>
	<line class="st1" x1="59" y1="612.5" x2="53" y2="612.5"/>
	<line class="st1" x1="59" y1="574.8" x2="53" y2="574.8"/>
	<line class="st1" x1="59" y1="537.1" x2="53" y2="537.1"/>
	<line class="st3" x1="59" y1="499.3" x2="53" y2="499.3"/>
	<line class="st1" x1="59" y1="461.6" x2="53" y2="461.6"/>
	<line class="st1" x1="59" y1="423.8" x2="53" y2="423.8"/>
	<line class="st1" x1="59" y1="386.1" x2="53" y2="386.1"/>
	<line class="st1" x1="59" y1="348.4" x2="53" y2="348.4"/>
	<line class="st1" x1="59" y1="310.6" x2="53" y2="310.6"/>
	<line class="st1" x1="59" y1="272.9" x2="53" y2="272.9"/>
	<line class="st1" x1="59" y1="235.2" x2="53" y2="235.2"/>
	<line class="st1" x1="59" y1="197.4" x2="53" y2="197.4"/>
	<line class="st1" x1="59" y1="159.7" x2="53" y2="159.7"/>
	<line class="st1" x1="59" y1="121.9" x2="53" y2="121.9"/>
	<line class="st1" x1="59" y1="84.1" x2="53" y2="84.1"/>
	<line class="st1" x1="59" y1="650.3" x2="53" y2="650.3"/>
	<g>
		<g>
			<g class="st0">
				<path d="M22.1,650.5v1h-6.4v-1H22.1z"/>
				<path d="M25.3,654.8c-0.6-0.3-1.1-0.7-1.4-1.1s-0.4-1-0.4-1.5c0-0.7,0.2-1.2,0.6-1.7s0.9-0.8,1.6-1c-0.6-0.2-1-0.5-1.4-1
					c-0.3-0.4-0.5-0.9-0.5-1.5c0-0.5,0.1-1,0.4-1.4s0.7-0.8,1.3-1c0.6-0.3,1.3-0.4,2.2-0.4c0.9,0,1.6,0.1,2.2,0.4
					c0.6,0.3,1,0.6,1.3,1s0.4,0.9,0.4,1.4c0,0.6-0.2,1.1-0.5,1.5s-0.8,0.8-1.4,1c0.5,0.1,0.8,0.4,1.2,0.6s0.6,0.6,0.7,0.9
					c0.2,0.4,0.2,0.8,0.2,1.2c0,0.6-0.1,1.1-0.4,1.5s-0.7,0.8-1.4,1.1c-0.6,0.3-1.4,0.4-2.4,0.4S25.9,655.1,25.3,654.8z M29.2,653.9
					c0.4-0.2,0.7-0.4,0.9-0.7s0.3-0.7,0.3-1.1c0-0.7-0.2-1.2-0.7-1.6c-0.5-0.4-1.2-0.6-2.1-0.6c-0.6,0-1.1,0.1-1.6,0.3
					c-0.4,0.2-0.7,0.4-0.9,0.7c-0.2,0.3-0.3,0.7-0.3,1.1c0,0.6,0.2,1.1,0.7,1.5s1.2,0.6,2.1,0.6C28.3,654.2,28.8,654.1,29.2,653.9z
					 M29.1,648.7c0.4-0.2,0.7-0.4,0.8-0.7c0.2-0.3,0.3-0.6,0.3-1c0-0.6-0.2-1-0.6-1.4c-0.4-0.3-1.1-0.5-2-0.5
					c-0.6,0-1.1,0.1-1.5,0.2c-0.4,0.2-0.7,0.4-0.9,0.7c-0.2,0.3-0.3,0.6-0.3,1s0.1,0.7,0.3,1c0.2,0.3,0.5,0.5,0.8,0.7
					s0.9,0.3,1.5,0.3S28.7,648.9,29.1,648.7z"/>
				<path d="M35.4,654.6c-0.7-0.5-1.2-1.1-1.6-2c-0.3-0.8-0.5-1.8-0.5-2.9s0.2-2.1,0.5-2.9c0.3-0.8,0.9-1.5,1.6-2
					c0.7-0.5,1.6-0.7,2.7-0.7c1.1,0,2,0.2,2.7,0.7s1.2,1.1,1.6,2s0.5,1.8,0.5,2.9s-0.2,2.1-0.5,2.9s-0.9,1.5-1.6,2
					c-0.7,0.5-1.6,0.7-2.7,0.7S36.1,655,35.4,654.6z M35.1,652.2c0.2,0.7,0.6,1.2,1.1,1.5s1.1,0.5,1.9,0.5c0.8,0,1.4-0.2,1.9-0.5
					s0.9-0.8,1.1-1.5c0.2-0.7,0.4-1.5,0.4-2.5s-0.1-1.9-0.4-2.5c-0.2-0.7-0.6-1.2-1.1-1.5s-1.1-0.5-1.9-0.5c-0.8,0-1.4,0.2-1.9,0.5
					s-0.9,0.8-1.1,1.5c-0.2,0.7-0.4,1.5-0.4,2.5C34.7,650.7,34.8,651.5,35.1,652.2z"/>
			</g>
		</g>
	</g>
	<g>
		<g>
			<g class="st0">
				<path d="M22.1,612.8v1h-6.4v-1H22.1z"/>
				<path d="M25.4,617c-0.6-0.4-1.1-0.9-1.5-1.8c-0.4-0.8-0.5-1.9-0.5-3.1c0-1.2,0.2-2.2,0.5-3.1c0.3-0.9,0.9-1.5,1.5-2
					s1.5-0.7,2.5-0.7c0.8,0,1.5,0.1,2,0.4c0.5,0.2,0.9,0.6,1.2,1c0.3,0.4,0.5,1,0.6,1.6h-1.3c-0.1-0.4-0.2-0.7-0.4-1
					s-0.5-0.5-0.8-0.7c-0.4-0.2-0.8-0.2-1.3-0.2c-1.1,0-1.9,0.4-2.5,1.2c-0.5,0.8-0.8,2-0.8,3.8v1l-0.3-0.2c0.2-0.8,0.6-1.4,1.3-1.9
					c0.7-0.5,1.5-0.7,2.4-0.7c0.7,0,1.3,0.1,1.9,0.4c0.6,0.3,1,0.6,1.3,1.1s0.5,1.1,0.5,1.8s-0.2,1.3-0.5,1.8s-0.8,1-1.4,1.3
					s-1.3,0.5-2.2,0.5C26.8,617.5,26.1,617.4,25.4,617z M29.7,615.8c0.4-0.4,0.7-1,0.7-1.8s-0.2-1.4-0.7-1.8
					c-0.4-0.4-1.1-0.7-1.9-0.7c-0.6,0-1,0.1-1.5,0.3c-0.4,0.2-0.8,0.5-1,0.8c-0.2,0.4-0.4,0.8-0.4,1.3c0,0.7,0.2,1.3,0.7,1.8
					c0.5,0.4,1.1,0.7,2,0.7C28.6,616.4,29.2,616.2,29.7,615.8z"/>
				<path d="M35.4,616.8c-0.7-0.5-1.2-1.1-1.6-2c-0.3-0.8-0.5-1.8-0.5-2.9s0.2-2.1,0.5-2.9c0.3-0.8,0.9-1.5,1.6-2
					c0.7-0.5,1.6-0.7,2.7-0.7c1.1,0,2,0.2,2.7,0.7s1.2,1.1,1.6,2s0.5,1.8,0.5,2.9s-0.2,2.1-0.5,2.9s-0.9,1.5-1.6,2
					c-0.7,0.5-1.6,0.7-2.7,0.7S36.1,617.3,35.4,616.8z M35.1,614.4c0.2,0.7,0.6,1.2,1.1,1.5s1.1,0.5,1.9,0.5c0.8,0,1.4-0.2,1.9-0.5
					s0.9-0.8,1.1-1.5c0.2-0.7,0.4-1.5,0.4-2.5s-0.1-1.9-0.4-2.5c-0.2-0.7-0.6-1.2-1.1-1.5s-1.1-0.5-1.9-0.5c-0.8,0-1.4,0.2-1.9,0.5
					s-0.9,0.8-1.1,1.5c-0.2,0.7-0.4,1.5-0.4,2.5C34.7,612.9,34.8,613.8,35.1,614.4z"/>
			</g>
		</g>
	</g>
	<g>
		<g>
			<g class="st0">
				<path d="M22.1,575.1v1h-6.4v-1H22.1z"/>
				<path d="M29,576.8h-5.8v-1.1l5.1-6.9h1.4l-5.1,6.9H29v-6.9h1.3v6.9h1.8v1.1h-1.8v2.7H29V576.8z"/>
				<path d="M35.5,579.1c-0.7-0.5-1.2-1.1-1.6-2c-0.3-0.8-0.5-1.8-0.5-2.9s0.2-2.1,0.5-2.9c0.3-0.8,0.9-1.5,1.6-2
					c0.7-0.5,1.6-0.7,2.7-0.7c1.1,0,2,0.2,2.7,0.7s1.2,1.1,1.6,2s0.5,1.8,0.5,2.9s-0.2,2.1-0.5,2.9s-0.9,1.5-1.6,2
					c-0.7,0.5-1.6,0.7-2.7,0.7S36.2,579.6,35.5,579.1z M35.1,576.7c0.2,0.7,0.6,1.2,1.1,1.5s1.1,0.5,1.9,0.5c0.8,0,1.4-0.2,1.9-0.5
					s0.9-0.8,1.1-1.5c0.2-0.7,0.4-1.5,0.4-2.5s-0.1-1.9-0.4-2.5c-0.2-0.7-0.6-1.2-1.1-1.5s-1.1-0.5-1.9-0.5c-0.8,0-1.4,0.2-1.9,0.5
					s-0.9,0.8-1.1,1.5c-0.2,0.7-0.4,1.5-0.4,2.5C34.8,575.2,34.9,576,35.1,576.7z"/>
			</g>
		</g>
	</g>
	<g>
		<g>
			<g class="st0">
				<path d="M22.1,537.3v1h-6.4v-1H22.1z"/>
				<path d="M23.7,540.7l5.3-4.4c0.5-0.4,0.9-0.8,1.1-1.2c0.2-0.3,0.3-0.8,0.3-1.2c0-0.6-0.2-1-0.6-1.4s-0.9-0.5-1.7-0.5
					c-0.7,0-1.3,0.1-1.7,0.4c-0.4,0.3-0.8,0.6-1,1.2c-0.2,0.5-0.3,1.1-0.3,1.9h-1.4c0-0.9,0.2-1.6,0.5-2.3s0.8-1.2,1.4-1.6
					c0.6-0.4,1.5-0.6,2.5-0.6c0.9,0,1.6,0.1,2.1,0.4c0.5,0.3,0.9,0.6,1.2,1.1c0.3,0.4,0.4,1,0.4,1.5c0,0.7-0.2,1.3-0.6,1.9
					c-0.4,0.6-1,1.2-2,2l-3.6,3H32v1.1h-8.3V540.7z"/>
				<path d="M35.6,541.3c-0.7-0.5-1.2-1.1-1.6-2c-0.3-0.8-0.5-1.8-0.5-2.9s0.2-2.1,0.5-2.9c0.3-0.8,0.9-1.5,1.6-2
					c0.7-0.5,1.6-0.7,2.7-0.7c1.1,0,2,0.2,2.7,0.7s1.2,1.1,1.6,2c0.3,0.8,0.5,1.8,0.5,2.9s-0.2,2.1-0.5,2.9c-0.3,0.8-0.9,1.5-1.6,2
					c-0.7,0.5-1.6,0.7-2.7,0.7C37.3,542.1,36.4,541.8,35.6,541.3z M35.3,539c0.2,0.7,0.6,1.2,1.1,1.5s1.1,0.5,1.9,0.5
					c0.8,0,1.4-0.2,1.9-0.5s0.9-0.8,1.1-1.5c0.2-0.7,0.4-1.5,0.4-2.5s-0.1-1.9-0.4-2.5s-0.6-1.2-1.1-1.5s-1.1-0.5-1.9-0.5
					c-0.8,0-1.4,0.2-1.9,0.5s-0.9,0.8-1.1,1.5c-0.2,0.7-0.4,1.5-0.4,2.5C34.9,537.5,35.1,538.3,35.3,539z"/>
			</g>
		</g>
	</g>
	<g>
		<g>
			<g class="st0">
				<path d="M18,503.6c-0.7-0.5-1.2-1.1-1.6-2c-0.3-0.8-0.5-1.8-0.5-2.9s0.2-2.1,0.5-2.9s0.9-1.5,1.6-2s1.6-0.7,2.7-0.7
					s2,0.2,2.7,0.7s1.2,1.1,1.6,2s0.5,1.8,0.5,2.9s-0.2,2.1-0.5,2.9s-0.9,1.5-1.6,2s-1.6,0.7-2.7,0.7
					C19.6,504.3,18.7,504.1,18,503.6z M17.7,501.2c0.2,0.7,0.6,1.2,1.1,1.5s1.1,0.5,1.9,0.5s1.4-0.2,1.9-0.5s0.9-0.8,1.1-1.5
					s0.4-1.5,0.4-2.5s-0.1-1.9-0.4-2.5s-0.6-1.2-1.1-1.5s-1.1-0.5-1.9-0.5s-1.4,0.2-1.9,0.5s-0.9,0.8-1.1,1.5s-0.4,1.5-0.4,2.5
					C17.3,499.7,17.4,500.6,17.7,501.2z"/>
			</g>
		</g>
	</g>
	<g>
		<g>
			<g class="st0">
				<path d="M16.2,465.2l5.3-4.4c0.5-0.4,0.9-0.8,1.1-1.2s0.3-0.8,0.3-1.2c0-0.6-0.2-1-0.6-1.4c-0.4-0.3-0.9-0.5-1.7-0.5
					c-0.7,0-1.3,0.1-1.7,0.4c-0.4,0.3-0.8,0.6-1,1.2c-0.2,0.5-0.3,1.1-0.3,1.9h-1.4c0-0.9,0.2-1.6,0.5-2.3s0.8-1.2,1.4-1.6
					s1.5-0.6,2.5-0.6c0.9,0,1.6,0.1,2.1,0.4s0.9,0.6,1.2,1.1c0.2,0.4,0.4,1,0.4,1.5c0,0.7-0.2,1.3-0.6,1.9s-1,1.2-2,2l-3.6,3h6.4
					v1.1h-8.3C16.2,466.5,16.2,465.2,16.2,465.2z"/>
				<path d="M28.2,465.9c-0.7-0.5-1.2-1.1-1.6-2c-0.3-0.8-0.5-1.8-0.5-2.9s0.2-2.1,0.5-2.9s0.9-1.5,1.6-2s1.6-0.7,2.7-0.7
					c1.1,0,2,0.2,2.7,0.7s1.2,1.1,1.6,2s0.5,1.8,0.5,2.9s-0.2,2.1-0.5,2.9s-0.9,1.5-1.6,2c-0.7,0.5-1.6,0.7-2.7,0.7
					S28.9,466.4,28.2,465.9z M27.8,463.5c0.2,0.7,0.6,1.2,1.1,1.5s1.1,0.5,1.9,0.5s1.4-0.2,1.9-0.5s0.9-0.8,1.1-1.5
					c0.2-0.7,0.4-1.5,0.4-2.5s-0.1-1.9-0.4-2.5c-0.2-0.7-0.6-1.2-1.1-1.5s-1.1-0.5-1.9-0.5s-1.4,0.2-1.9,0.5s-0.9,0.8-1.1,1.5
					s-0.4,1.5-0.4,2.5C27.5,462,27.6,462.8,27.8,463.5z"/>
			</g>
		</g>
	</g>
	<g>
		<g>
			<g class="st0">
				<path d="M21.6,425.9h-5.8v-1.1l5.1-6.9h1.4l-5.1,6.9h4.5v-6.9H23v6.9h1.8v1.1H23v2.7h-1.3L21.6,425.9L21.6,425.9z"/>
				<path d="M28,428.1c-0.7-0.5-1.2-1.1-1.6-2c-0.3-0.8-0.5-1.8-0.5-2.9s0.2-2.1,0.5-2.9s0.9-1.5,1.6-2s1.6-0.7,2.7-0.7
					s2,0.2,2.7,0.7s1.2,1.1,1.6,2c0.3,0.8,0.5,1.8,0.5,2.9s-0.2,2.1-0.5,2.9s-0.9,1.5-1.6,2c-0.7,0.5-1.6,0.7-2.7,0.7
					C29.6,428.9,28.7,428.6,28,428.1z M27.7,425.8c0.2,0.7,0.6,1.2,1.1,1.5s1.1,0.5,1.9,0.5s1.4-0.2,1.9-0.5s0.9-0.8,1.1-1.5
					c0.2-0.7,0.4-1.5,0.4-2.5s-0.1-1.9-0.4-2.5c-0.2-0.7-0.6-1.2-1.1-1.5s-1.1-0.5-1.9-0.5s-1.4,0.2-1.9,0.5s-0.9,0.8-1.1,1.5
					s-0.4,1.5-0.4,2.5C27.3,424.3,27.4,425.1,27.7,425.8z"/>
			</g>
		</g>
	</g>
	<g>
		<g>
			<g class="st0">
				<path d="M18,390.6c-0.6-0.4-1.1-0.9-1.5-1.8c-0.4-0.8-0.5-1.9-0.5-3.1s0.2-2.2,0.5-3.1s0.9-1.5,1.5-2s1.5-0.7,2.5-0.7
					c0.8,0,1.5,0.1,2,0.4c0.5,0.2,0.9,0.6,1.2,1c0.3,0.4,0.5,1,0.6,1.6H23c-0.1-0.4-0.2-0.7-0.4-1s-0.5-0.5-0.8-0.7
					c-0.4-0.2-0.8-0.2-1.3-0.2c-1.1,0-1.9,0.4-2.5,1.2c-0.5,0.8-0.8,2-0.8,3.8v1l-0.3-0.2c0.2-0.8,0.6-1.4,1.3-1.9
					c0.7-0.5,1.5-0.7,2.4-0.7c0.7,0,1.3,0.1,1.9,0.4s1,0.6,1.3,1.1s0.5,1.1,0.5,1.8c0,0.7-0.2,1.3-0.5,1.8s-0.8,1-1.4,1.3
					s-1.3,0.5-2.2,0.5C19.3,391.1,18.6,390.9,18,390.6z M22.2,389.4c0.4-0.4,0.7-1,0.7-1.8s-0.2-1.4-0.7-1.8s-1.1-0.7-1.9-0.7
					c-0.6,0-1,0.1-1.5,0.3c-0.4,0.2-0.8,0.5-1,0.8c-0.2,0.4-0.4,0.8-0.4,1.3c0,0.7,0.2,1.3,0.7,1.8c0.5,0.4,1.1,0.7,2,0.7
					C21.1,390,21.8,389.8,22.2,389.4z"/>
				<path d="M27.9,390.4c-0.7-0.5-1.2-1.1-1.6-2c-0.3-0.8-0.5-1.8-0.5-2.9s0.2-2.1,0.5-2.9s0.9-1.5,1.6-2s1.6-0.7,2.7-0.7
					s2,0.2,2.7,0.7s1.2,1.1,1.6,2s0.5,1.8,0.5,2.9s-0.2,2.1-0.5,2.9s-0.9,1.5-1.6,2c-0.7,0.5-1.6,0.7-2.7,0.7
					C29.6,391.1,28.7,390.9,27.9,390.4z M27.6,388c0.2,0.7,0.6,1.2,1.1,1.5s1.1,0.5,1.9,0.5s1.4-0.2,1.9-0.5s0.9-0.8,1.1-1.5
					c0.2-0.7,0.4-1.5,0.4-2.5s-0.1-1.9-0.4-2.5s-0.6-1.2-1.1-1.5s-1.1-0.5-1.9-0.5s-1.4,0.2-1.9,0.5s-0.9,0.8-1.1,1.5
					s-0.4,1.5-0.4,2.5S27.4,387.4,27.6,388z"/>
			</g>
		</g>
	</g>
	<g>
		<g>
			<g class="st0">
				<path d="M17.8,352.9c-0.6-0.3-1.1-0.7-1.4-1.1c-0.3-0.5-0.4-1-0.4-1.5c0-0.7,0.2-1.2,0.6-1.7s0.9-0.8,1.6-1
					c-0.6-0.2-1-0.5-1.4-1c-0.3-0.4-0.5-0.9-0.5-1.5c0-0.5,0.1-1,0.4-1.4s0.7-0.8,1.3-1c0.6-0.3,1.3-0.4,2.2-0.4
					c0.9,0,1.6,0.1,2.2,0.4s1,0.6,1.3,1s0.4,0.9,0.4,1.4c0,0.6-0.2,1.1-0.5,1.5s-0.8,0.8-1.4,1c0.5,0.1,0.8,0.4,1.2,0.6
					c0.3,0.3,0.6,0.6,0.7,0.9c0.2,0.4,0.2,0.8,0.2,1.2c0,0.6-0.1,1.1-0.4,1.5c-0.3,0.5-0.7,0.8-1.4,1.1s-1.4,0.4-2.4,0.4
					S18.4,353.2,17.8,352.9z M21.7,352c0.4-0.2,0.7-0.4,0.9-0.7s0.3-0.7,0.3-1.1c0-0.7-0.2-1.2-0.7-1.6S21,348,20.1,348
					c-0.6,0-1.1,0.1-1.6,0.3c-0.4,0.2-0.7,0.4-0.9,0.7c-0.2,0.3-0.3,0.7-0.3,1.1c0,0.6,0.2,1.1,0.7,1.5s1.2,0.6,2.1,0.6
					C20.8,352.3,21.3,352.2,21.7,352z M21.6,346.8c0.4-0.2,0.7-0.4,0.8-0.7c0.2-0.3,0.3-0.6,0.3-1c0-0.6-0.2-1-0.6-1.4
					c-0.4-0.3-1.1-0.5-2-0.5c-0.6,0-1.1,0.1-1.5,0.2c-0.4,0.2-0.7,0.4-0.9,0.7c-0.2,0.3-0.3,0.6-0.3,1s0.1,0.7,0.3,1
					c0.2,0.3,0.5,0.5,0.8,0.7c0.4,0.2,0.9,0.3,1.5,0.3C20.7,347.1,21.2,347,21.6,346.8z"/>
				<path d="M27.9,352.7c-0.7-0.5-1.2-1.1-1.6-2c-0.3-0.8-0.5-1.8-0.5-2.9s0.2-2.1,0.5-2.9s0.9-1.5,1.6-2s1.6-0.7,2.7-0.7
					s2,0.2,2.7,0.7s1.2,1.1,1.6,2c0.3,0.8,0.5,1.8,0.5,2.9s-0.2,2.1-0.5,2.9s-0.9,1.5-1.6,2c-0.7,0.5-1.6,0.7-2.7,0.7
					C29.6,353.4,28.7,353.1,27.9,352.7z M27.6,350.3c0.2,0.7,0.6,1.2,1.1,1.5s1.1,0.5,1.9,0.5s1.4-0.2,1.9-0.5s0.9-0.8,1.1-1.5
					c0.2-0.7,0.4-1.5,0.4-2.5s-0.1-1.9-0.4-2.5c-0.2-0.7-0.6-1.2-1.1-1.5s-1.1-0.5-1.9-0.5s-1.4,0.2-1.9,0.5s-0.9,0.8-1.1,1.5
					s-0.4,1.5-0.4,2.5S27.4,349.6,27.6,350.3z"/>
			</g>
		</g>
	</g>
	<g>
		<g>
			<g class="st0">
				<path d="M16.2,314.3h2.5v-8.5h-2.5v-1.1h2.3c0.5,0,0.9,0.1,1.2,0.3c0.2,0.2,0.3,0.6,0.3,1v8.2h2.3v1.1h-6.1
					C16.2,315.3,16.2,314.3,16.2,314.3z"/>
				<path d="M25.5,314.9c-0.7-0.5-1.2-1.1-1.6-2c-0.3-0.8-0.5-1.8-0.5-2.9s0.2-2.1,0.5-2.9s0.9-1.5,1.6-2s1.6-0.7,2.7-0.7
					s2,0.2,2.7,0.7s1.2,1.1,1.6,2c0.3,0.8,0.5,1.8,0.5,2.9s-0.2,2.1-0.5,2.9s-0.9,1.5-1.6,2s-1.6,0.7-2.7,0.7
					C27.1,315.6,26.2,315.4,25.5,314.9z M25.2,312.5c0.2,0.7,0.6,1.2,1.1,1.5s1.1,0.5,1.9,0.5s1.4-0.2,1.9-0.5s0.9-0.8,1.1-1.5
					s0.4-1.5,0.4-2.5s-0.1-1.9-0.4-2.5c-0.2-0.7-0.6-1.2-1.1-1.5s-1.1-0.5-1.9-0.5s-1.4,0.2-1.9,0.5s-0.9,0.8-1.1,1.5
					s-0.4,1.5-0.4,2.5C24.8,311,24.9,311.9,25.2,312.5z"/>
				<path d="M36.6,314.9c-0.7-0.5-1.2-1.1-1.6-2c-0.3-0.8-0.5-1.8-0.5-2.9s0.2-2.1,0.5-2.9s0.9-1.5,1.6-2c0.7-0.5,1.6-0.7,2.7-0.7
					c1.1,0,2,0.2,2.7,0.7s1.2,1.1,1.6,2c0.3,0.8,0.5,1.8,0.5,2.9s-0.2,2.1-0.5,2.9s-0.9,1.5-1.6,2c-0.7,0.5-1.6,0.7-2.7,0.7
					C38.2,315.6,37.3,315.4,36.6,314.9z M36.2,312.5c0.2,0.7,0.6,1.2,1.1,1.5s1.1,0.5,1.9,0.5c0.8,0,1.4-0.2,1.9-0.5
					s0.9-0.8,1.1-1.5c0.2-0.7,0.4-1.5,0.4-2.5s-0.1-1.9-0.4-2.5s-0.6-1.2-1.1-1.5s-1.1-0.5-1.9-0.5c-0.8,0-1.4,0.2-1.9,0.5
					s-0.9,0.8-1.1,1.5c-0.2,0.7-0.4,1.5-0.4,2.5C35.9,311,36,311.9,36.2,312.5z"/>
			</g>
		</g>
	</g>
	<g>
		<g>
			<g class="st0">
				<path d="M16.2,276.5h2.5V268h-2.5v-1h2.3c0.5,0,0.9,0.1,1.2,0.3c0.2,0.2,0.3,0.6,0.3,1v8.2h2.3v1.1h-6.1
					C16.2,277.6,16.2,276.5,16.2,276.5z"/>
				<path d="M23.7,276.5l5.3-4.4c0.5-0.4,0.9-0.8,1.1-1.2s0.3-0.8,0.3-1.2c0-0.6-0.2-1-0.6-1.4c-0.4-0.3-0.9-0.5-1.7-0.5
					c-0.7,0-1.3,0.1-1.7,0.4c-0.4,0.3-0.8,0.6-1,1.2c-0.2,0.5-0.3,1.1-0.3,1.9h-1.4c0-0.9,0.2-1.6,0.5-2.3s0.8-1.2,1.4-1.6
					s1.5-0.6,2.5-0.6c0.9,0,1.6,0.1,2.1,0.4s0.9,0.6,1.2,1.1c0.2,0.4,0.4,1,0.4,1.5c0,0.7-0.2,1.3-0.6,1.9s-1,1.2-2,2l-3.6,3H32v1.1
					h-8.3V276.5z"/>
				<path d="M35.7,277.2c-0.7-0.5-1.2-1.1-1.6-2c-0.3-0.8-0.5-1.8-0.5-2.9s0.2-2.1,0.5-2.9s0.9-1.5,1.6-2c0.7-0.5,1.6-0.7,2.7-0.7
					c1.1,0,2,0.2,2.7,0.7s1.2,1.1,1.6,2s0.5,1.8,0.5,2.9s-0.2,2.1-0.5,2.9s-0.9,1.5-1.6,2c-0.7,0.5-1.6,0.7-2.7,0.7
					C37.3,277.9,36.4,277.7,35.7,277.2z M35.3,274.8c0.2,0.7,0.6,1.2,1.1,1.5s1.1,0.5,1.9,0.5c0.8,0,1.4-0.2,1.9-0.5
					s0.9-0.8,1.1-1.5c0.2-0.7,0.4-1.5,0.4-2.5s-0.1-1.9-0.4-2.5c-0.2-0.7-0.6-1.2-1.1-1.5s-1.1-0.5-1.9-0.5c-0.8,0-1.4,0.2-1.9,0.5
					s-0.9,0.8-1.1,1.5c-0.2,0.7-0.4,1.5-0.4,2.5C35,273.3,35.1,274.1,35.3,274.8z"/>
			</g>
		</g>
	</g>
	<g>
		<g>
			<g class="st0">
				<path d="M16.2,238.8h2.5v-8.5h-2.5v-1.1h2.3c0.5,0,0.9,0.1,1.2,0.3c0.2,0.2,0.3,0.6,0.3,1v8.2h2.3v1.1h-6.1
					C16.2,239.8,16.2,238.8,16.2,238.8z"/>
				<path d="M29.1,237.2h-5.8v-1.1l5.1-6.9h1.4l-5.1,6.9h4.5v-6.9h1.3v6.9h1.8v1.1h-1.8v2.7h-1.3v-2.7H29.1z"/>
				<path d="M35.5,239.4c-0.7-0.5-1.2-1.1-1.6-2c-0.3-0.8-0.5-1.8-0.5-2.9s0.2-2.1,0.5-2.9c0.3-0.8,0.9-1.5,1.6-2s1.6-0.7,2.7-0.7
					c1.1,0,2,0.2,2.7,0.7s1.2,1.1,1.6,2c0.3,0.8,0.5,1.8,0.5,2.9s-0.2,2.1-0.5,2.9c-0.3,0.8-0.9,1.5-1.6,2c-0.7,0.5-1.6,0.7-2.7,0.7
					C37.1,240.2,36.2,239.9,35.5,239.4z M35.2,237.1c0.2,0.7,0.6,1.2,1.1,1.5s1.1,0.5,1.9,0.5c0.8,0,1.4-0.2,1.9-0.5
					s0.9-0.8,1.1-1.5c0.2-0.7,0.4-1.5,0.4-2.5s-0.1-1.9-0.4-2.5c-0.2-0.7-0.6-1.2-1.1-1.5s-1.1-0.5-1.9-0.5c-0.8,0-1.4,0.2-1.9,0.5
					s-0.9,0.8-1.1,1.5s-0.4,1.5-0.4,2.5S34.9,236.4,35.2,237.1z"/>
			</g>
		</g>
	</g>
	<g>
		<g>
			<g class="st0">
				<path d="M16.2,201.1h2.5v-8.5h-2.5v-1.1h2.3c0.5,0,0.9,0.1,1.2,0.3c0.2,0.2,0.3,0.6,0.3,1v8.2h2.3v1.1h-6.1
					C16.2,202.1,16.2,201.1,16.2,201.1z"/>
				<path d="M25.5,201.9c-0.6-0.4-1.1-0.9-1.5-1.8c-0.4-0.8-0.5-1.9-0.5-3.1c0-1.2,0.2-2.2,0.5-3.1c0.3-0.9,0.9-1.5,1.5-2
					s1.5-0.7,2.5-0.7c0.8,0,1.5,0.1,2,0.4c0.5,0.2,0.9,0.6,1.2,1c0.3,0.4,0.5,1,0.6,1.6h-1.3c-0.1-0.4-0.2-0.7-0.4-1
					s-0.5-0.5-0.8-0.7c-0.4-0.2-0.8-0.2-1.3-0.2c-1.1,0-1.9,0.4-2.5,1.2c-0.5,0.8-0.8,2-0.8,3.8v1l-0.3-0.2c0.2-0.8,0.6-1.4,1.3-1.9
					c0.7-0.5,1.5-0.7,2.4-0.7c0.7,0,1.3,0.1,1.9,0.4s1,0.6,1.3,1.1s0.5,1.1,0.5,1.8s-0.2,1.3-0.5,1.8s-0.8,1-1.4,1.3
					s-1.3,0.5-2.2,0.5C26.8,202.4,26.1,202.2,25.5,201.9z M29.7,200.7c0.4-0.4,0.7-1,0.7-1.8s-0.2-1.4-0.7-1.8s-1.1-0.7-1.9-0.7
					c-0.6,0-1,0.1-1.5,0.3c-0.4,0.2-0.8,0.5-1,0.8c-0.2,0.4-0.4,0.8-0.4,1.3c0,0.7,0.2,1.3,0.7,1.8c0.5,0.4,1.1,0.7,2,0.7
					C28.6,201.3,29.3,201.1,29.7,200.7z"/>
				<path d="M35.5,201.7c-0.7-0.5-1.2-1.1-1.6-2c-0.3-0.8-0.5-1.8-0.5-2.9s0.2-2.1,0.5-2.9c0.3-0.8,0.9-1.5,1.6-2s1.6-0.7,2.7-0.7
					c1.1,0,2,0.2,2.7,0.7s1.2,1.1,1.6,2s0.5,1.8,0.5,2.9s-0.2,2.1-0.5,2.9s-0.9,1.5-1.6,2c-0.7,0.5-1.6,0.7-2.7,0.7
					S36.2,202.2,35.5,201.7z M35.1,199.3c0.2,0.7,0.6,1.2,1.1,1.5s1.1,0.5,1.9,0.5s1.4-0.2,1.9-0.5s0.9-0.8,1.1-1.5
					c0.2-0.7,0.4-1.5,0.4-2.5s-0.1-1.9-0.4-2.5s-0.6-1.2-1.1-1.5s-1.1-0.5-1.9-0.5s-1.4,0.2-1.9,0.5s-0.9,0.8-1.1,1.5
					s-0.4,1.5-0.4,2.5C34.7,197.8,34.9,198.7,35.1,199.3z"/>
			</g>
		</g>
	</g>
	<g>
		<g>
			<g class="st0">
				<path d="M16.2,163.3h2.5v-8.5h-2.5v-1.1h2.3c0.5,0,0.9,0.1,1.2,0.3c0.2,0.2,0.3,0.6,0.3,1v8.2h2.3v1.1h-6.1
					C16.2,164.3,16.2,163.3,16.2,163.3z"/>
				<path d="M25.3,164.2c-0.6-0.3-1.1-0.7-1.4-1.1s-0.4-1-0.4-1.5c0-0.7,0.2-1.2,0.6-1.7s0.9-0.8,1.6-1c-0.6-0.2-1-0.5-1.4-1
					c-0.3-0.4-0.5-0.9-0.5-1.5c0-0.5,0.1-1,0.4-1.4s0.7-0.8,1.3-1c0.6-0.3,1.3-0.4,2.2-0.4s1.6,0.1,2.2,0.4c0.6,0.3,1,0.6,1.3,1
					s0.4,0.9,0.4,1.4c0,0.6-0.2,1.1-0.5,1.5s-0.8,0.8-1.4,1c0.5,0.1,0.8,0.4,1.2,0.6c0.3,0.3,0.6,0.6,0.7,0.9
					c0.2,0.4,0.2,0.8,0.2,1.2c0,0.6-0.1,1.1-0.4,1.5s-0.7,0.8-1.4,1.1c-0.6,0.3-1.4,0.4-2.4,0.4S25.9,164.5,25.3,164.2z M29.2,163.3
					c0.4-0.2,0.7-0.4,0.9-0.7s0.3-0.7,0.3-1.1c0-0.7-0.2-1.2-0.7-1.6c-0.5-0.4-1.2-0.6-2.1-0.6c-0.6,0-1.1,0.1-1.6,0.3
					c-0.4,0.2-0.7,0.4-0.9,0.7c-0.2,0.3-0.3,0.7-0.3,1.1c0,0.6,0.2,1.1,0.7,1.5s1.2,0.6,2.1,0.6C28.3,163.6,28.8,163.5,29.2,163.3z
					 M29.1,158.1c0.4-0.2,0.7-0.4,0.8-0.7c0.2-0.3,0.3-0.6,0.3-1c0-0.6-0.2-1-0.6-1.4c-0.4-0.3-1.1-0.5-2-0.5
					c-0.6,0-1.1,0.1-1.5,0.2c-0.4,0.2-0.7,0.4-0.9,0.7c-0.2,0.3-0.3,0.6-0.3,1s0.1,0.7,0.3,1c0.2,0.3,0.5,0.5,0.8,0.7
					s0.9,0.3,1.5,0.3S28.7,158.3,29.1,158.1z"/>
				<path d="M35.5,164c-0.7-0.5-1.2-1.1-1.6-2c-0.3-0.8-0.5-1.8-0.5-2.9s0.2-2.1,0.5-2.9c0.3-0.8,0.9-1.5,1.6-2s1.6-0.7,2.7-0.7
					c1.1,0,2,0.2,2.7,0.7s1.2,1.1,1.6,2s0.5,1.8,0.5,2.9s-0.2,2.1-0.5,2.9s-0.9,1.5-1.6,2c-0.7,0.5-1.6,0.7-2.7,0.7
					S36.2,164.4,35.5,164z M35.1,161.6c0.2,0.7,0.6,1.2,1.1,1.5s1.1,0.5,1.9,0.5s1.4-0.2,1.9-0.5s0.9-0.8,1.1-1.5
					c0.2-0.7,0.4-1.5,0.4-2.5s-0.1-1.9-0.4-2.5s-0.6-1.2-1.1-1.5s-1.1-0.5-1.9-0.5s-1.4,0.2-1.9,0.5s-0.9,0.8-1.1,1.5
					s-0.4,1.5-0.4,2.5C34.7,160.1,34.9,160.9,35.1,161.6z"/>
			</g>
		</g>
	</g>
	<g>
		<g>
			<g class="st0">
				<path d="M16.2,125.6l5.3-4.4c0.5-0.4,0.9-0.8,1.1-1.2s0.3-0.8,0.3-1.2c0-0.6-0.2-1-0.6-1.4c-0.4-0.3-0.9-0.5-1.7-0.5
					c-0.7,0-1.3,0.1-1.7,0.4c-0.4,0.3-0.8,0.6-1,1.2c-0.2,0.5-0.3,1.1-0.3,1.9h-1.4c0-0.9,0.2-1.6,0.5-2.3s0.8-1.2,1.4-1.6
					s1.5-0.6,2.5-0.6c0.9,0,1.6,0.1,2.1,0.4s0.9,0.6,1.2,1.1c0.2,0.4,0.4,1,0.4,1.5c0,0.7-0.2,1.3-0.6,1.9s-1,1.2-2,2l-3.6,3h6.4
					v1.1h-8.3C16.2,126.9,16.2,125.6,16.2,125.6z"/>
				<path d="M28.2,126.2c-0.7-0.5-1.2-1.1-1.6-2c-0.3-0.8-0.5-1.8-0.5-2.9s0.2-2.1,0.5-2.9s0.9-1.5,1.6-2s1.6-0.7,2.7-0.7
					c1.1,0,2,0.2,2.7,0.7s1.2,1.1,1.6,2s0.5,1.8,0.5,2.9s-0.2,2.1-0.5,2.9s-0.9,1.5-1.6,2c-0.7,0.5-1.6,0.7-2.7,0.7
					C29.8,126.9,28.9,126.7,28.2,126.2z M27.8,123.8c0.2,0.7,0.6,1.2,1.1,1.5s1.1,0.5,1.9,0.5s1.4-0.2,1.9-0.5s0.9-0.8,1.1-1.5
					c0.2-0.7,0.4-1.5,0.4-2.5s-0.1-1.9-0.4-2.5c-0.2-0.7-0.6-1.2-1.1-1.5s-1.1-0.5-1.9-0.5s-1.4,0.2-1.9,0.5s-0.9,0.8-1.1,1.5
					s-0.4,1.5-0.4,2.5C27.5,122.3,27.6,123.2,27.8,123.8z"/>
				<path d="M39.2,126.2c-0.7-0.5-1.2-1.1-1.6-2c-0.3-0.8-0.5-1.8-0.5-2.9s0.2-2.1,0.5-2.9s0.9-1.5,1.6-2c0.7-0.5,1.6-0.7,2.7-0.7
					c1.1,0,2,0.2,2.7,0.7s1.2,1.1,1.6,2c0.3,0.8,0.5,1.8,0.5,2.9s-0.2,2.1-0.5,2.9s-0.9,1.5-1.6,2c-0.7,0.5-1.6,0.7-2.7,0.7
					C40.8,126.9,39.9,126.7,39.2,126.2z M38.9,123.8c0.2,0.7,0.6,1.2,1.1,1.5s1.1,0.5,1.9,0.5c0.8,0,1.4-0.2,1.9-0.5
					s0.9-0.8,1.1-1.5c0.2-0.7,0.4-1.5,0.4-2.5s-0.1-1.9-0.4-2.5s-0.6-1.2-1.1-1.5s-1.1-0.5-1.9-0.5c-0.8,0-1.4,0.2-1.9,0.5
					s-0.9,0.8-1.1,1.5c-0.2,0.7-0.4,1.5-0.4,2.5S38.6,123.2,38.9,123.8z"/>
			</g>
		</g>
	</g>
	<g>
		<g>
			<g class="st0">
				<path d="M16.2,87.8l5.3-4.4c0.5-0.4,0.9-0.8,1.1-1.2c0.2-0.3,0.3-0.8,0.3-1.2c0-0.6-0.2-1-0.6-1.4c-0.4-0.3-0.9-0.5-1.7-0.5
					c-0.7,0-1.3,0.1-1.7,0.4c-0.4,0.3-0.8,0.6-1,1.2c-0.2,0.5-0.3,1.1-0.3,1.9h-1.4c0-0.9,0.2-1.6,0.5-2.3c0.3-0.7,0.8-1.2,1.4-1.6
					s1.5-0.6,2.5-0.6c0.9,0,1.6,0.1,2.1,0.4s0.9,0.6,1.2,1.1c0.3,0.4,0.4,1,0.4,1.5c0,0.7-0.2,1.3-0.6,1.9s-1,1.2-2,2l-3.6,3h6.4
					v1.1h-8.3C16.2,89.1,16.2,87.8,16.2,87.8z"/>
				<path d="M26.4,87.8l5.3-4.4c0.5-0.4,0.9-0.8,1.1-1.2S33,81.5,33,81c0-0.6-0.2-1-0.6-1.4s-0.9-0.5-1.7-0.5
					c-0.7,0-1.3,0.1-1.7,0.4c-0.4,0.3-0.8,0.6-1,1.2c-0.2,0.5-0.3,1.1-0.3,1.9h-1.4c0-0.9,0.2-1.6,0.5-2.3c0.3-0.7,0.8-1.2,1.4-1.6
					s1.5-0.6,2.5-0.6c0.9,0,1.6,0.1,2.1,0.4s0.9,0.6,1.2,1.1c0.2,0.4,0.4,1,0.4,1.5c0,0.7-0.2,1.3-0.6,1.9s-1,1.2-2,2l-3.6,3h6.4
					v1.1h-8.3L26.4,87.8L26.4,87.8z"/>
				<path d="M38.3,88.5c-0.7-0.5-1.2-1.1-1.6-2c-0.3-0.8-0.5-1.8-0.5-2.9s0.2-2.1,0.5-2.9s0.9-1.5,1.6-2S39.9,78,41,78
					s2,0.2,2.7,0.7s1.2,1.1,1.6,2s0.5,1.8,0.5,2.9s-0.2,2.1-0.5,2.9s-0.9,1.5-1.6,2C43,89,42.1,89.2,41,89.2S39,89,38.3,88.5z
					 M38,86.1c0.2,0.7,0.6,1.2,1.1,1.5s1.1,0.5,1.9,0.5s1.4-0.2,1.9-0.5s0.9-0.8,1.1-1.5c0.2-0.7,0.4-1.5,0.4-2.5s-0.1-1.9-0.4-2.5
					s-0.6-1.2-1.1-1.5s-1.1-0.5-1.9-0.5s-1.4,0.2-1.9,0.5s-0.9,0.8-1.1,1.5s-0.4,1.5-0.4,2.5S37.7,85.4,38,86.1z"/>
			</g>
		</g>
	</g>
	<g transform="translate(-408,-220)">
		<g>
			<g>
				<g class="st0">
					<path d="M432.3,241.7l-1-2.7H426l-1,2.7h-1.3l4-10.6h2l4,10.6H432.3z M426.4,237.9h4.5l-2.2-5.9L426.4,237.9z"/>
					<path d="M435,230.5h1.3v11.2H435V230.5z"/>
					<path d="M439.8,241.5c-0.3-0.1-0.5-0.3-0.6-0.6s-0.2-0.6-0.2-1.1v-5.1h-1.5V234l1.6-0.4l0.5-1.7h0.7v1.8h2.6v1h-2.6v6h2.5v1
						h-1.9C440.4,241.7,440.1,241.6,439.8,241.5z"/>
					<path d="M445.7,241.4c-0.6-0.4-1-0.9-1.3-1.5s-0.4-1.4-0.4-2.2s0.2-1.5,0.4-2.2c0.3-0.6,0.7-1.1,1.3-1.5
						c0.6-0.4,1.3-0.6,2.2-0.6c0.8,0,1.5,0.2,2,0.5c0.6,0.3,1,0.8,1.3,1.4c0.3,0.6,0.4,1.3,0.4,2.1v0.2c0,0.1,0,0.2,0,0.3H445v-1h6
						l-0.6,0.6c0-0.7,0-1.3-0.2-1.8s-0.5-0.8-0.8-1c-0.4-0.2-0.9-0.3-1.4-0.3c-0.6,0-1.1,0.1-1.5,0.3s-0.7,0.6-0.9,1.1
						c-0.2,0.5-0.3,1.1-0.3,1.9s0.1,1.4,0.3,1.9c0.2,0.5,0.5,0.8,0.9,1.1c0.4,0.2,0.9,0.3,1.5,0.3c0.5,0,0.9-0.1,1.3-0.2
						c0.3-0.1,0.6-0.3,0.8-0.6c0.2-0.3,0.3-0.6,0.4-0.9h1.2c-0.1,0.5-0.2,0.9-0.5,1.3c-0.3,0.4-0.7,0.8-1.2,1
						c-0.5,0.3-1.2,0.4-2.1,0.4C447.1,241.9,446.3,241.8,445.7,241.4z"/>
					<path d="M452.9,233.7h7v1h-7V233.7z M453,240.7l5.7-6.4l1.2,0.3l-5.9,6.6L453,240.7z M453,240.7h7v1h-7V240.7z"/>
					<path d="M461.4,233.7h7v1h-7V233.7z M461.5,240.7l5.7-6.4l1.2,0.3l-5.9,6.6L461.5,240.7z M461.5,240.7h7v1h-7V240.7z"/>
					<path d="M471.1,241.6c-0.4-0.2-0.7-0.4-0.9-0.8c-0.2-0.3-0.3-0.8-0.3-1.3c0-0.4,0.1-0.8,0.2-1.1c0.2-0.3,0.4-0.6,0.8-0.8
						s0.8-0.4,1.4-0.5l2-0.3c0.4-0.1,0.7-0.2,0.9-0.3c0.2-0.1,0.3-0.4,0.3-0.7s-0.1-0.6-0.2-0.8s-0.3-0.4-0.6-0.5
						c-0.3-0.1-0.7-0.2-1.2-0.2c-0.7,0-1.3,0.2-1.6,0.5c-0.3,0.3-0.5,0.7-0.6,1.3H470c0-0.6,0.2-1.1,0.4-1.5s0.7-0.7,1.2-1
						c0.5-0.2,1.1-0.3,1.9-0.3c0.7,0,1.3,0.1,1.8,0.3s0.8,0.5,1.1,0.9c0.2,0.4,0.3,0.8,0.3,1.3v3.8c0,0.3,0,0.6,0,0.9
						c0,0.3,0,0.7,0.1,1h-1.2c0-0.3-0.1-0.7-0.1-1s0-0.6,0-0.9c-0.1,0.4-0.3,0.7-0.5,1s-0.6,0.6-1,0.8s-0.9,0.3-1.5,0.3
						C471.9,241.9,471.5,241.8,471.1,241.6z M474.2,240.5c0.4-0.3,0.7-0.6,0.9-1.1c0.2-0.5,0.3-0.9,0.3-1.5v-0.7
						c-0.2,0.1-0.3,0.2-0.5,0.3s-0.4,0.1-0.7,0.2H474l-1.3,0.3c-0.6,0.1-1,0.3-1.2,0.5s-0.4,0.6-0.4,1s0.1,0.8,0.4,1
						s0.7,0.4,1.2,0.4C473.3,240.9,473.8,240.7,474.2,240.5z"/>
					<path d="M482,231h5.8v1.1H482V231z M482,240.6h5.8v1.1H482V240.6z M484.3,231.6h1.3v9.6h-1.3V231.6z"/>
					<path d="M495.6,234.6c0.6,0.8,0.9,1.8,0.9,3.1c0,0.9-0.1,1.6-0.4,2.3c-0.3,0.6-0.7,1.1-1.2,1.5c-0.5,0.3-1.2,0.5-1.9,0.5
						c-0.8,0-1.5-0.2-2-0.5s-0.9-0.9-1.2-1.5s-0.4-1.4-0.4-2.2s0.1-1.6,0.4-2.2c0.3-0.6,0.7-1.1,1.2-1.5s1.2-0.5,2-0.5
						C494.1,233.4,495,233.8,495.6,234.6z M491.7,234.8c-0.4,0.2-0.7,0.6-0.9,1.1s-0.3,1.1-0.3,1.8s0.1,1.3,0.3,1.8s0.5,0.8,0.9,1.1
						c0.4,0.2,0.9,0.4,1.5,0.4s1.1-0.1,1.5-0.3s0.7-0.6,1-1.1c0.2-0.5,0.3-1.1,0.3-1.8s-0.1-1.3-0.3-1.8c-0.2-0.5-0.5-0.8-1-1.1
						c-0.4-0.2-0.9-0.3-1.5-0.3C492.6,234.5,492.1,234.6,491.7,234.8z M497.2,241.7H496v-1.9v-0.2v-9.1h1.3L497.2,241.7L497.2,241.7
						z"/>
					<path d="M499.6,233.7h1.3v2.5v0.3v5.2h-1.3V233.7z M500.7,236.1c0.2-0.8,0.6-1.4,1.1-1.8s1.1-0.7,1.9-0.7h0.3v1.3h-0.4
						c-0.8,0-1.3,0.1-1.8,0.5c-0.4,0.3-0.7,0.8-0.9,1.3s-0.2,1.3-0.2,2.1h-0.4C500.4,237.7,500.5,236.8,500.7,236.1z"/>
					<path d="M506.7,241.4c-0.6-0.4-1.1-0.9-1.4-1.5s-0.5-1.4-0.5-2.2s0.2-1.5,0.5-2.2c0.3-0.6,0.8-1.1,1.4-1.5s1.3-0.6,2.2-0.6
						c0.9,0,1.6,0.2,2.2,0.6c0.6,0.4,1.1,0.9,1.4,1.5c0.3,0.6,0.4,1.4,0.4,2.2s-0.2,1.6-0.4,2.2c-0.3,0.6-0.8,1.1-1.4,1.5
						s-1.3,0.6-2.2,0.6C508.1,241.9,507.3,241.8,506.7,241.4z M506.5,239.5c0.2,0.5,0.5,0.8,0.9,1.1c0.4,0.2,0.9,0.3,1.5,0.3
						s1.1-0.1,1.5-0.3s0.7-0.6,0.9-1.1c0.2-0.5,0.3-1.1,0.3-1.8s-0.1-1.4-0.3-1.8s-0.5-0.8-0.9-1s-0.9-0.3-1.5-0.3s-1.1,0.1-1.5,0.3
						s-0.7,0.6-0.9,1c-0.2,0.5-0.3,1.1-0.3,1.8S506.3,239,506.5,239.5z"/>
					<path d="M514.7,233.7h1.3v8h-1.3V233.7z M520.1,235.4c-0.1-0.3-0.3-0.6-0.6-0.7c-0.3-0.1-0.6-0.2-1-0.2c-0.6,0-1,0.2-1.4,0.5
						s-0.6,0.8-0.8,1.4c-0.2,0.6-0.3,1.4-0.3,2.3h-0.4v-0.3c0-1,0.1-1.9,0.4-2.6c0.2-0.7,0.6-1.3,1.1-1.7s1.1-0.6,1.9-0.6
						c0.6,0,1.1,0.1,1.5,0.4c0.4,0.2,0.7,0.6,0.9,1s0.3,1,0.3,1.7v5.2h-1.3v-5C520.3,236.1,520.2,235.7,520.1,235.4z M525.7,235.4
						c-0.1-0.3-0.3-0.6-0.6-0.7c-0.3-0.1-0.6-0.2-1-0.2c-0.6,0-1.1,0.2-1.4,0.5c-0.4,0.3-0.6,0.8-0.8,1.4c-0.2,0.6-0.3,1.4-0.3,2.3
						h-0.5c0-1.1,0.1-2,0.3-2.8s0.6-1.4,1.1-1.8s1.2-0.6,2-0.6c0.6,0,1.1,0.1,1.5,0.4c0.4,0.2,0.7,0.6,0.9,1c0.2,0.5,0.3,1,0.3,1.7
						v5.2h-1.3v-5C525.9,236.1,525.8,235.7,525.7,235.4z"/>
					<path d="M530.5,241.4c-0.6-0.4-1-0.9-1.3-1.5s-0.4-1.4-0.4-2.2s0.1-1.5,0.4-2.2c0.3-0.6,0.7-1.1,1.3-1.5s1.3-0.6,2.2-0.6
						c0.8,0,1.5,0.2,2,0.5c0.6,0.3,1,0.8,1.3,1.4s0.4,1.3,0.4,2.1v0.2c0,0.1,0,0.2,0,0.3h-6.7v-1h6l-0.6,0.6c0-0.7,0-1.3-0.2-1.8
						s-0.5-0.8-0.8-1s-0.9-0.3-1.4-0.3c-0.6,0-1.1,0.1-1.5,0.3s-0.7,0.6-0.9,1.1s-0.3,1.1-0.3,1.9s0.1,1.4,0.3,1.9s0.5,0.8,0.9,1.1
						c0.4,0.2,0.9,0.3,1.5,0.3c0.5,0,0.9-0.1,1.3-0.2c0.3-0.1,0.6-0.3,0.8-0.6s0.3-0.6,0.4-0.9h1.2c-0.1,0.5-0.2,0.9-0.5,1.3
						c-0.3,0.4-0.7,0.8-1.2,1c-0.5,0.3-1.2,0.4-2.1,0.4C531.8,241.9,531.1,241.8,530.5,241.4z"/>
					<path d="M539.3,241.5c-0.3-0.1-0.5-0.3-0.6-0.6s-0.2-0.6-0.2-1.1v-5.1H537V234l1.6-0.4l0.5-1.7h0.7v1.8h2.6v1h-2.6v6h2.5v1
						h-1.9C540,241.7,539.6,241.6,539.3,241.5z"/>
					<path d="M544.1,233.7h1.3v2.5v0.3v5.2h-1.3V233.7z M545.3,236.1c0.2-0.8,0.6-1.4,1.1-1.8s1.1-0.7,1.9-0.7h0.3v1.3h-0.4
						c-0.8,0-1.3,0.1-1.8,0.5c-0.4,0.3-0.7,0.8-0.9,1.3s-0.2,1.3-0.2,2.1h-0.4C544.9,237.7,545,236.8,545.3,236.1z"/>
					<path d="M549.8,231h1.6v1.3h-1.6V231z M549.9,233.7h1.3v8h-1.3V233.7z"/>
					<path d="M553.3,235.5c0.3-0.6,0.8-1.1,1.4-1.5c0.6-0.4,1.3-0.5,2.2-0.5c0.8,0,1.4,0.1,2,0.4c0.5,0.3,1,0.6,1.2,1.1
						c0.3,0.5,0.5,1,0.5,1.7h-1.2c-0.1-0.4-0.2-0.8-0.4-1.2c-0.2-0.3-0.5-0.6-0.8-0.7c-0.3-0.2-0.8-0.3-1.3-0.3
						c-0.6,0-1.1,0.1-1.5,0.3s-0.7,0.6-0.9,1s-0.3,1.1-0.3,1.8c0,0.8,0.1,1.4,0.3,1.8s0.5,0.8,0.9,1s0.9,0.3,1.5,0.3
						c0.8,0,1.4-0.2,1.8-0.6c0.4-0.4,0.7-1,0.8-1.7h1.2c0,0.6-0.2,1.2-0.5,1.7s-0.7,0.9-1.3,1.2s-1.2,0.4-2,0.4
						c-0.9,0-1.6-0.2-2.2-0.5c-0.6-0.4-1.1-0.9-1.4-1.5c-0.3-0.6-0.5-1.4-0.5-2.2S553,236.1,553.3,235.5z"/>
					<path d="M563,241.6c-0.4-0.2-0.7-0.4-0.9-0.8c-0.2-0.3-0.3-0.8-0.3-1.3c0-0.4,0.1-0.8,0.2-1.1c0.2-0.3,0.4-0.6,0.8-0.8
						s0.8-0.4,1.4-0.5l2-0.3c0.4-0.1,0.7-0.2,0.9-0.3s0.3-0.4,0.3-0.7s-0.1-0.6-0.2-0.8s-0.3-0.4-0.6-0.5s-0.7-0.2-1.2-0.2
						c-0.7,0-1.3,0.2-1.6,0.5s-0.5,0.7-0.6,1.3h-1.3c0-0.6,0.2-1.1,0.4-1.5s0.7-0.7,1.2-1c0.5-0.2,1.1-0.3,1.9-0.3
						c0.7,0,1.3,0.1,1.8,0.3s0.8,0.5,1.1,0.9c0.2,0.4,0.3,0.8,0.3,1.3v3.8c0,0.3,0,0.6,0,0.9c0,0.3,0,0.7,0.1,1h-1.2
						c0-0.3-0.1-0.7-0.1-1s0-0.6,0-0.9c-0.1,0.4-0.3,0.7-0.5,1s-0.6,0.6-1,0.8s-0.9,0.3-1.5,0.3C563.8,241.9,563.4,241.8,563,241.6z
						 M566.1,240.5c0.4-0.3,0.7-0.6,0.9-1.1s0.3-0.9,0.3-1.5v-0.7c-0.2,0.1-0.3,0.2-0.5,0.3s-0.4,0.1-0.7,0.2h-0.2l-1.3,0.3
						c-0.6,0.1-1,0.3-1.2,0.5s-0.4,0.6-0.4,1s0.1,0.8,0.4,1c0.3,0.2,0.7,0.4,1.2,0.4C565.2,240.9,565.7,240.7,566.1,240.5z"/>
					<path d="M424.4,254.7c0.3-0.6,0.8-1.1,1.4-1.5s1.3-0.5,2.2-0.5c0.8,0,1.4,0.1,2,0.4c0.5,0.3,1,0.6,1.2,1.1
						c0.3,0.5,0.5,1,0.5,1.7h-1.2c-0.1-0.4-0.2-0.8-0.4-1.2c-0.2-0.3-0.5-0.6-0.8-0.7c-0.3-0.2-0.8-0.3-1.3-0.3
						c-0.6,0-1.1,0.1-1.5,0.3s-0.7,0.6-0.9,1s-0.3,1.1-0.3,1.8c0,0.8,0.1,1.4,0.3,1.8s0.5,0.8,0.9,1s0.9,0.3,1.5,0.3
						c0.8,0,1.4-0.2,1.8-0.6s0.7-1,0.8-1.7h1.2c0,0.6-0.2,1.2-0.5,1.7s-0.7,0.9-1.3,1.2c-0.6,0.3-1.2,0.4-2,0.4
						c-0.9,0-1.6-0.2-2.2-0.5c-0.6-0.4-1.1-0.9-1.4-1.5s-0.5-1.4-0.5-2.2C423.9,255.9,424.1,255.3,424.4,254.7z"/>
					<path d="M433.3,252.9h1.3v8h-1.3V252.9z M438.7,254.6c-0.1-0.3-0.3-0.6-0.6-0.7c-0.3-0.1-0.6-0.2-1-0.2c-0.6,0-1,0.2-1.4,0.5
						s-0.6,0.8-0.8,1.4c-0.2,0.6-0.3,1.4-0.3,2.3h-0.4v-0.3c0-1,0.1-1.9,0.4-2.6s0.6-1.3,1.1-1.7s1.1-0.6,1.9-0.6
						c0.6,0,1.1,0.1,1.5,0.4c0.4,0.2,0.7,0.6,0.9,1s0.3,1,0.3,1.7v5.2H439v-5C438.9,255.3,438.9,254.9,438.7,254.6z M444.3,254.6
						c-0.1-0.3-0.3-0.6-0.6-0.7c-0.3-0.1-0.6-0.2-1-0.2c-0.6,0-1.1,0.2-1.4,0.5c-0.4,0.3-0.6,0.8-0.8,1.4c-0.2,0.6-0.3,1.4-0.3,2.3
						h-0.5c0-1.1,0.1-2,0.3-2.8c0.2-0.8,0.6-1.4,1.1-1.8c0.5-0.4,1.2-0.6,2-0.6c0.6,0,1.1,0.1,1.5,0.4c0.4,0.2,0.7,0.6,0.9,1
						c0.2,0.5,0.3,1,0.3,1.7v5.2h-1.3v-5C444.5,255.3,444.5,254.9,444.3,254.6z"/>
				</g>
			</g>
		</g>
	</g>
	<g>
		<g>
			<path d="M46.4,676.7c-0.6-0.3-1-0.8-1.3-1.5c-0.3-0.6-0.4-1.4-0.4-2.3c0-1.3,0.3-2.4,1-3.1c0.7-0.8,1.6-1.1,2.9-1.1
				c1.2,0,2.1,0.4,2.8,1.1s0.9,1.8,0.9,3.2c0,1-0.1,1.7-0.4,2.4c-0.3,0.6-0.7,1.1-1.2,1.4c-0.5,0.3-1.2,0.5-2.1,0.5
				C47.7,677.2,46.9,677,46.4,676.7z M46.7,680.6c-0.6-0.2-1-0.6-1.4-1c-0.3-0.5-0.5-1-0.6-1.6h1.3c0,0.4,0.1,0.7,0.3,1
				c0.2,0.3,0.5,0.5,0.9,0.7s0.9,0.2,1.5,0.2c0.7,0,1.2-0.1,1.6-0.3c0.4-0.2,0.7-0.4,0.9-0.8c0.2-0.4,0.3-0.9,0.3-1.5v-8.5h1.4v8.5
				c0,0.8-0.1,1.4-0.4,2c-0.3,0.5-0.7,0.9-1.3,1.2c-0.6,0.3-1.4,0.4-2.4,0.4C48,680.9,47.3,680.8,46.7,680.6z M50.4,675.8
				c0.4-0.2,0.7-0.6,1-1c0.2-0.5,0.3-1.1,0.3-1.8c0-0.7-0.1-1.4-0.3-1.8c-0.2-0.5-0.5-0.8-1-1c-0.4-0.2-0.9-0.3-1.6-0.3
				c-0.7,0-1.2,0.1-1.6,0.3c-0.4,0.2-0.7,0.6-0.9,1c-0.2,0.5-0.3,1.1-0.3,1.8c0,0.8,0.1,1.4,0.3,1.9c0.2,0.5,0.5,0.8,0.9,1
				c0.4,0.2,0.9,0.3,1.6,0.3C49.5,676.1,50,676,50.4,675.8z"/>
			<path d="M56.7,677c-0.6-0.4-1.1-0.9-1.4-1.6c-0.3-0.7-0.5-1.5-0.5-2.3c0-0.9,0.2-1.6,0.5-2.3s0.8-1.2,1.4-1.6
				c0.6-0.4,1.4-0.6,2.3-0.6c0.8,0,1.6,0.2,2.2,0.5c0.6,0.4,1.1,0.9,1.4,1.5s0.5,1.4,0.5,2.2v0.2c0,0.1,0,0.2,0,0.4h-7.1v-1h6.4
				l-0.6,0.6c0-0.8,0-1.4-0.2-1.9c-0.2-0.5-0.5-0.9-0.9-1.1c-0.4-0.2-0.9-0.3-1.5-0.3c-0.6,0-1.1,0.1-1.6,0.3
				c-0.4,0.2-0.8,0.6-1,1.1s-0.3,1.2-0.3,2s0.1,1.5,0.4,2c0.2,0.5,0.6,0.9,1,1.1c0.4,0.2,1,0.3,1.6,0.3c0.5,0,1-0.1,1.4-0.2
				c0.4-0.2,0.7-0.4,0.9-0.6c0.2-0.3,0.4-0.6,0.5-1h1.2c-0.1,0.5-0.2,0.9-0.5,1.4s-0.7,0.8-1.3,1.1c-0.6,0.3-1.3,0.4-2.2,0.4
				C58.1,677.6,57.4,677.4,56.7,677z"/>
			<path d="M64.8,668.9h1.4v8.5h-1.4V668.9z M66.1,671.2c0.3-0.8,0.7-1.5,1.2-1.9c0.5-0.5,1.2-0.7,2.1-0.7c0.7,0,1.3,0.1,1.7,0.4
				c0.4,0.3,0.8,0.6,1,1.1c0.2,0.5,0.3,1.1,0.3,1.8v5.4h-1.4v-5.3c0-0.6-0.1-1.1-0.2-1.4s-0.4-0.6-0.7-0.7c-0.3-0.1-0.7-0.2-1.1-0.2
				c-0.6,0-1.2,0.2-1.6,0.5s-0.8,0.8-1,1.5c-0.2,0.7-0.3,1.5-0.3,2.4h-0.4C65.7,673,65.8,672,66.1,671.2z"/>
		</g>
	</g>
	<g>
		<g>
			<path d="M158.6,677.3c-0.4-0.2-0.7-0.5-1-0.8c-0.2-0.4-0.4-0.8-0.4-1.4c0-0.5,0.1-0.9,0.3-1.2c0.2-0.3,0.5-0.6,0.8-0.8
				s0.9-0.4,1.5-0.5l2.2-0.4c0.5-0.1,0.8-0.2,1-0.3c0.2-0.1,0.3-0.4,0.3-0.7c0-0.3-0.1-0.6-0.2-0.8c-0.1-0.2-0.3-0.4-0.6-0.5
				c-0.3-0.1-0.7-0.2-1.3-0.2c-0.8,0-1.4,0.2-1.7,0.5c-0.4,0.3-0.6,0.8-0.6,1.4h-1.4c0-0.6,0.2-1.1,0.5-1.6c0.3-0.4,0.7-0.8,1.2-1
				c0.5-0.2,1.2-0.4,2-0.4c0.7,0,1.4,0.1,1.9,0.3c0.5,0.2,0.9,0.5,1.1,0.9c0.2,0.4,0.4,0.8,0.4,1.4v4.1c0,0.3,0,0.6,0,1
				c0,0.3,0,0.7,0.1,1.1h-1.2c0-0.4-0.1-0.7-0.1-1s0-0.7,0-1c-0.1,0.4-0.3,0.7-0.6,1.1c-0.3,0.3-0.6,0.6-1,0.8
				c-0.4,0.2-1,0.3-1.6,0.3C159.5,677.6,159,677.5,158.6,677.3z M161.9,676.1c0.4-0.3,0.8-0.7,1-1.2s0.3-1,0.3-1.6v-0.7
				c-0.2,0.1-0.4,0.2-0.6,0.3s-0.4,0.2-0.7,0.2l-0.2,0.1l-1.4,0.3c-0.6,0.1-1,0.3-1.3,0.6c-0.3,0.2-0.4,0.6-0.4,1
				c0,0.5,0.2,0.8,0.5,1.1c0.3,0.2,0.7,0.4,1.2,0.4C161,676.5,161.5,676.4,161.9,676.1z"/>
			<path d="M166.7,668.9h1.4v1.9v0.3v9.7h-1.4V668.9z M168.5,676.4c-0.6-0.8-0.9-1.9-0.9-3.3s0.3-2.5,0.9-3.3s1.6-1.2,2.8-1.2
				c0.9,0,1.6,0.2,2.2,0.6c0.6,0.4,1,0.9,1.3,1.6c0.3,0.7,0.4,1.5,0.4,2.3c0,0.9-0.1,1.7-0.4,2.4c-0.3,0.7-0.7,1.2-1.3,1.6
				c-0.6,0.4-1.3,0.6-2.2,0.6C170,677.6,169.1,677.2,168.5,676.4z M172.6,676.2c0.4-0.2,0.7-0.6,0.9-1.1c0.2-0.5,0.3-1.1,0.3-1.9
				c0-0.8-0.1-1.4-0.3-1.9c-0.2-0.5-0.5-0.9-0.9-1.1c-0.4-0.3-0.9-0.4-1.6-0.4c-0.6,0-1.1,0.1-1.6,0.4c-0.4,0.2-0.8,0.6-1,1.1
				c-0.2,0.5-0.3,1.1-0.3,1.9s0.1,1.4,0.3,1.9c0.2,0.5,0.6,0.9,1,1.1c0.4,0.2,1,0.4,1.6,0.4C171.6,676.5,172.2,676.4,172.6,676.2z"
				/>
			<path d="M177,668.9h1.3v2.7l0,0.3v5.6H177V668.9z M178.2,671.4c0.2-0.8,0.6-1.5,1.2-1.9c0.5-0.5,1.2-0.7,2.1-0.7h0.3v1.3h-0.4
				c-0.8,0-1.4,0.1-1.9,0.5s-0.8,0.8-0.9,1.4c-0.2,0.6-0.2,1.4-0.2,2.2h-0.5C177.9,673.2,178,672.2,178.2,671.4z"/>
		</g>
	</g>
	<g>
		<g>
			<path d="M270.2,665.5h1.4v11.9h-1.4V665.5z"/>
			<path d="M275.1,677.3c-0.5-0.2-0.8-0.6-1-1.1s-0.3-1.1-0.3-1.9v-5.4h1.4v5.3c0,0.6,0.1,1.1,0.2,1.4c0.2,0.3,0.4,0.6,0.7,0.7
				c0.3,0.1,0.7,0.2,1.2,0.2c0.6,0,1.1-0.2,1.5-0.5c0.4-0.3,0.7-0.8,0.9-1.5s0.3-1.5,0.3-2.4h0.4c0,1.1-0.1,2.1-0.4,2.9
				c-0.2,0.8-0.6,1.5-1.2,1.9c-0.5,0.5-1.2,0.7-2.1,0.7C276.2,677.6,275.6,677.5,275.1,677.3z M280.1,674.7v-0.2v-5.7h1.4v8.5h-1.4
				V674.7z"/>
			<path d="M285,676.7c-0.6-0.3-1-0.8-1.3-1.5c-0.3-0.6-0.4-1.4-0.4-2.3c0-1.3,0.3-2.4,1-3.1c0.7-0.8,1.6-1.1,2.9-1.1
				c1.2,0,2.1,0.4,2.8,1.1s0.9,1.8,0.9,3.2c0,1-0.1,1.7-0.4,2.4c-0.3,0.6-0.7,1.1-1.2,1.4c-0.5,0.3-1.2,0.5-2.1,0.5
				C286.3,677.2,285.6,677,285,676.7z M285.4,680.6c-0.6-0.2-1-0.6-1.4-1c-0.3-0.5-0.5-1-0.6-1.6h1.3c0,0.4,0.1,0.7,0.3,1
				c0.2,0.3,0.5,0.5,0.9,0.7s0.9,0.2,1.5,0.2c0.7,0,1.2-0.1,1.6-0.3c0.4-0.2,0.7-0.4,0.9-0.8c0.2-0.4,0.3-0.9,0.3-1.5v-8.5h1.4v8.5
				c0,0.8-0.1,1.4-0.4,2c-0.3,0.5-0.7,0.9-1.3,1.2c-0.6,0.3-1.4,0.4-2.4,0.4C286.7,680.9,286,680.8,285.4,680.6z M289.1,675.8
				c0.4-0.2,0.7-0.6,1-1c0.2-0.5,0.3-1.1,0.3-1.8c0-0.7-0.1-1.4-0.3-1.8c-0.2-0.5-0.5-0.8-1-1c-0.4-0.2-0.9-0.3-1.6-0.3
				c-0.7,0-1.2,0.1-1.6,0.3c-0.4,0.2-0.7,0.6-0.9,1c-0.2,0.5-0.3,1.1-0.3,1.8c0,0.8,0.1,1.4,0.3,1.9c0.2,0.5,0.5,0.8,0.9,1
				c0.4,0.2,0.9,0.3,1.6,0.3C288.1,676.1,288.7,676,289.1,675.8z"/>
		</g>
	</g>
	<g>
		<g>
			<path d="M385.4,677c-0.6-0.4-1.1-0.9-1.4-1.6c-0.3-0.7-0.5-1.5-0.5-2.3c0-0.9,0.2-1.6,0.5-2.3c0.3-0.7,0.8-1.2,1.4-1.6
				s1.4-0.6,2.4-0.6c0.9,0,1.7,0.2,2.3,0.6s1.1,0.9,1.4,1.6s0.5,1.5,0.5,2.3c0,0.9-0.2,1.6-0.5,2.3c-0.3,0.7-0.8,1.2-1.4,1.6
				s-1.4,0.6-2.3,0.6C386.9,677.6,386.1,677.4,385.4,677z M385.2,675c0.2,0.5,0.5,0.9,1,1.1c0.4,0.2,1,0.4,1.6,0.4
				c0.6,0,1.2-0.1,1.6-0.4c0.4-0.2,0.7-0.6,1-1.1c0.2-0.5,0.3-1.2,0.3-1.9c0-0.8-0.1-1.4-0.3-1.9s-0.5-0.9-1-1.1
				c-0.4-0.2-1-0.4-1.6-0.4c-0.7,0-1.2,0.1-1.6,0.4c-0.4,0.2-0.7,0.6-1,1.1s-0.3,1.2-0.3,1.9C384.9,673.9,385,674.5,385.2,675z"/>
			<path d="M395.2,677.1c-0.3-0.1-0.5-0.4-0.6-0.6s-0.2-0.7-0.2-1.1v-5.4h-1.6v-0.8l1.8-0.4l0.5-1.8h0.7v1.9h4.7v1.1h-4.7v6.3h2.7
				v1.1h-2C395.9,677.4,395.5,677.3,395.2,677.1z M400.7,677.1c-0.3-0.1-0.5-0.4-0.6-0.6s-0.2-0.7-0.2-1.1v-5.4h-1.6v-0.8l1.6-0.2
				l0.6-2h0.7v1.9h2.8v1.1h-2.8v6.3h2.7v1.1h-2C401.4,677.4,401,677.3,400.7,677.1z"/>
		</g>
	</g>
	<g>
		<g>
			<path d="M494.3,676.7c-0.6-0.3-1-0.8-1.3-1.5c-0.3-0.6-0.4-1.4-0.4-2.3c0-1.3,0.3-2.4,1-3.1c0.7-0.8,1.6-1.1,2.9-1.1
				c1.2,0,2.1,0.4,2.8,1.1s0.9,1.8,0.9,3.2c0,1-0.1,1.7-0.4,2.4c-0.3,0.6-0.7,1.1-1.2,1.4c-0.5,0.3-1.2,0.5-2.1,0.5
				C495.6,677.2,494.8,677,494.3,676.7z M494.6,680.6c-0.6-0.2-1-0.6-1.4-1c-0.3-0.5-0.5-1-0.6-1.6h1.3c0,0.4,0.1,0.7,0.3,1
				c0.2,0.3,0.5,0.5,0.9,0.7s0.9,0.2,1.5,0.2c0.7,0,1.2-0.1,1.6-0.3c0.4-0.2,0.7-0.4,0.9-0.8c0.2-0.4,0.3-0.9,0.3-1.5v-8.5h1.4v8.5
				c0,0.8-0.1,1.4-0.4,2c-0.3,0.5-0.7,0.9-1.3,1.2c-0.6,0.3-1.4,0.4-2.4,0.4C495.9,680.9,495.2,680.8,494.6,680.6z M498.3,675.8
				c0.4-0.2,0.7-0.6,1-1c0.2-0.5,0.3-1.1,0.3-1.8c0-0.7-0.1-1.4-0.3-1.8c-0.2-0.5-0.5-0.8-1-1c-0.4-0.2-0.9-0.3-1.6-0.3
				c-0.7,0-1.2,0.1-1.6,0.3c-0.4,0.2-0.7,0.6-0.9,1c-0.2,0.5-0.3,1.1-0.3,1.8c0,0.8,0.1,1.4,0.3,1.9c0.2,0.5,0.5,0.8,0.9,1
				c0.4,0.2,0.9,0.3,1.6,0.3C497.4,676.1,497.9,676,498.3,675.8z"/>
			<path d="M504.6,677c-0.6-0.4-1.1-0.9-1.4-1.6c-0.3-0.7-0.5-1.5-0.5-2.3c0-0.9,0.2-1.6,0.5-2.3s0.8-1.2,1.4-1.6
				c0.6-0.4,1.4-0.6,2.3-0.6c0.8,0,1.6,0.2,2.2,0.5c0.6,0.4,1.1,0.9,1.4,1.5s0.5,1.4,0.5,2.2v0.2c0,0.1,0,0.2,0,0.4h-7.1v-1h6.4
				l-0.6,0.6c0-0.8,0-1.4-0.2-1.9c-0.2-0.5-0.5-0.9-0.9-1.1c-0.4-0.2-0.9-0.3-1.5-0.3c-0.6,0-1.1,0.1-1.6,0.3
				c-0.4,0.2-0.8,0.6-1,1.1s-0.3,1.2-0.3,2s0.1,1.5,0.4,2c0.2,0.5,0.6,0.9,1,1.1c0.4,0.2,1,0.3,1.6,0.3c0.5,0,1-0.1,1.4-0.2
				c0.4-0.2,0.7-0.4,0.9-0.6c0.2-0.3,0.4-0.6,0.5-1h1.2c-0.1,0.5-0.2,0.9-0.5,1.4s-0.7,0.8-1.3,1.1c-0.6,0.3-1.3,0.4-2.2,0.4
				C506,677.6,505.3,677.4,504.6,677z"/>
			<path d="M512.7,668.9h1.4v8.5h-1.4V668.9z M514,671.2c0.3-0.8,0.7-1.5,1.2-1.9c0.5-0.5,1.2-0.7,2.1-0.7c0.7,0,1.3,0.1,1.7,0.4
				c0.4,0.3,0.8,0.6,1,1.1c0.2,0.5,0.3,1.1,0.3,1.8v5.4H519v-5.3c0-0.6-0.1-1.1-0.2-1.4s-0.4-0.6-0.7-0.7c-0.3-0.1-0.7-0.2-1.1-0.2
				c-0.6,0-1.2,0.2-1.6,0.5s-0.8,0.8-1,1.5c-0.2,0.7-0.3,1.5-0.3,2.4h-0.4C513.6,673,513.7,672,514,671.2z"/>
		</g>
	</g>
	<g>
		<g>
			<path d="M606.3,677.3c-0.4-0.2-0.7-0.5-1-0.8c-0.2-0.4-0.4-0.8-0.4-1.4c0-0.5,0.1-0.9,0.3-1.2c0.2-0.3,0.5-0.6,0.8-0.8
				s0.9-0.4,1.5-0.5l2.2-0.4c0.5-0.1,0.8-0.2,1-0.3c0.2-0.1,0.3-0.4,0.3-0.7c0-0.3-0.1-0.6-0.2-0.8c-0.1-0.2-0.3-0.4-0.6-0.5
				c-0.3-0.1-0.7-0.2-1.3-0.2c-0.8,0-1.4,0.2-1.7,0.5c-0.4,0.3-0.6,0.8-0.6,1.4h-1.4c0-0.6,0.2-1.1,0.5-1.6c0.3-0.4,0.7-0.8,1.2-1
				c0.5-0.2,1.2-0.4,2-0.4c0.7,0,1.4,0.1,1.9,0.3c0.5,0.2,0.9,0.5,1.1,0.9c0.2,0.4,0.4,0.8,0.4,1.4v4.1c0,0.3,0,0.6,0,1
				s0,0.7,0.1,1.1h-1.2c0-0.4-0.1-0.7-0.1-1c0-0.3,0-0.7,0-1c-0.1,0.4-0.3,0.7-0.6,1.1c-0.3,0.3-0.6,0.6-1,0.8
				c-0.4,0.2-1,0.3-1.6,0.3C607.2,677.6,606.7,677.5,606.3,677.3z M609.6,676.1c0.4-0.3,0.8-0.7,1-1.2c0.2-0.5,0.3-1,0.3-1.6v-0.7
				c-0.2,0.1-0.4,0.2-0.6,0.3s-0.4,0.2-0.7,0.2l-0.2,0.1l-1.4,0.3c-0.6,0.1-1,0.3-1.3,0.6s-0.4,0.6-0.4,1c0,0.5,0.2,0.8,0.5,1.1
				c0.3,0.2,0.7,0.4,1.2,0.4C608.7,676.5,609.2,676.4,609.6,676.1z"/>
			<path d="M614.4,668.9h1.4v1.9v0.3v9.7h-1.4V668.9z M616.2,676.4c-0.6-0.8-0.9-1.9-0.9-3.3s0.3-2.5,0.9-3.3s1.6-1.2,2.8-1.2
				c0.9,0,1.6,0.2,2.2,0.6c0.6,0.4,1,0.9,1.3,1.6c0.3,0.7,0.4,1.5,0.4,2.3c0,0.9-0.1,1.7-0.4,2.4c-0.3,0.7-0.7,1.2-1.3,1.6
				c-0.6,0.4-1.3,0.6-2.2,0.6C617.7,677.6,616.8,677.2,616.2,676.4z M620.3,676.2c0.4-0.2,0.7-0.6,0.9-1.1c0.2-0.5,0.3-1.1,0.3-1.9
				c0-0.8-0.1-1.4-0.3-1.9c-0.2-0.5-0.5-0.9-0.9-1.1c-0.4-0.3-0.9-0.4-1.6-0.4c-0.6,0-1.1,0.1-1.6,0.4c-0.4,0.2-0.8,0.6-1,1.1
				c-0.2,0.5-0.3,1.1-0.3,1.9s0.1,1.4,0.3,1.9c0.2,0.5,0.6,0.9,1,1.1c0.4,0.2,1,0.4,1.6,0.4C619.3,676.5,619.9,676.4,620.3,676.2z"
				/>
			<path d="M624.7,668.9h1.3v2.7l0,0.3v5.6h-1.4V668.9z M625.9,671.4c0.2-0.8,0.6-1.5,1.2-1.9s1.2-0.7,2.1-0.7h0.3v1.3h-0.4
				c-0.8,0-1.4,0.1-1.9,0.5c-0.4,0.3-0.8,0.8-0.9,1.4c-0.2,0.6-0.2,1.4-0.2,2.2h-0.5C625.6,673.2,625.7,672.2,625.9,671.4z"/>
		</g>
	</g>
	<g>
		<g>
			<path d="M717.9,665.5h1.4v11.9h-1.4V665.5z"/>
			<path d="M722.8,677.3c-0.5-0.2-0.8-0.6-1-1.1c-0.2-0.5-0.3-1.1-0.3-1.9v-5.4h1.4v5.3c0,0.6,0.1,1.1,0.2,1.4
				c0.2,0.3,0.4,0.6,0.7,0.7s0.7,0.2,1.2,0.2c0.6,0,1.1-0.2,1.5-0.5c0.4-0.3,0.7-0.8,0.9-1.5c0.2-0.7,0.3-1.5,0.3-2.4h0.4
				c0,1.1-0.1,2.1-0.4,2.9s-0.6,1.5-1.2,1.9c-0.5,0.5-1.2,0.7-2.1,0.7C723.9,677.6,723.3,677.5,722.8,677.3z M727.8,674.7v-0.2v-5.7
				h1.4v8.5h-1.4V674.7z"/>
			<path d="M732.7,676.7c-0.6-0.3-1-0.8-1.3-1.5c-0.3-0.6-0.4-1.4-0.4-2.3c0-1.3,0.3-2.4,1-3.1c0.7-0.8,1.6-1.1,2.9-1.1
				c1.2,0,2.1,0.4,2.8,1.1c0.6,0.7,0.9,1.8,0.9,3.2c0,1-0.1,1.7-0.4,2.4s-0.7,1.1-1.2,1.4c-0.5,0.3-1.2,0.5-2.1,0.5
				C734,677.2,733.3,677,732.7,676.7z M733.1,680.6c-0.6-0.2-1-0.6-1.4-1c-0.3-0.5-0.5-1-0.6-1.6h1.3c0,0.4,0.1,0.7,0.3,1
				c0.2,0.3,0.5,0.5,0.9,0.7c0.4,0.2,0.9,0.2,1.5,0.2c0.7,0,1.2-0.1,1.6-0.3c0.4-0.2,0.7-0.4,0.9-0.8s0.3-0.9,0.3-1.5v-8.5h1.4v8.5
				c0,0.8-0.1,1.4-0.4,2s-0.7,0.9-1.3,1.2c-0.6,0.3-1.4,0.4-2.4,0.4C734.4,680.9,733.7,680.8,733.1,680.6z M736.8,675.8
				c0.4-0.2,0.7-0.6,1-1c0.2-0.5,0.3-1.1,0.3-1.8c0-0.7-0.1-1.4-0.3-1.8c-0.2-0.5-0.5-0.8-1-1c-0.4-0.2-0.9-0.3-1.6-0.3
				c-0.7,0-1.2,0.1-1.6,0.3c-0.4,0.2-0.7,0.6-0.9,1s-0.3,1.1-0.3,1.8c0,0.8,0.1,1.4,0.3,1.9c0.2,0.5,0.5,0.8,0.9,1
				c0.4,0.2,0.9,0.3,1.6,0.3C735.8,676.1,736.4,676,736.8,675.8z"/>
		</g>
	</g>
	<g>
		<g>
			<path d="M942,676.7c-0.6-0.3-1-0.8-1.3-1.5c-0.3-0.6-0.4-1.4-0.4-2.3c0-1.3,0.3-2.4,1-3.1s1.6-1.1,2.9-1.1c1.2,0,2.1,0.4,2.8,1.1
				c0.6,0.7,0.9,1.8,0.9,3.2c0,1-0.1,1.7-0.4,2.4c-0.3,0.6-0.7,1.1-1.2,1.4s-1.2,0.5-2.1,0.5C943.3,677.2,942.5,677,942,676.7z
				 M942.3,680.6c-0.6-0.2-1-0.6-1.4-1c-0.3-0.5-0.5-1-0.6-1.6h1.3c0,0.4,0.1,0.7,0.3,1c0.2,0.3,0.5,0.5,0.9,0.7
				c0.4,0.2,0.9,0.2,1.5,0.2c0.7,0,1.2-0.1,1.6-0.3s0.7-0.4,0.9-0.8c0.2-0.4,0.3-0.9,0.3-1.5v-8.5h1.4v8.5c0,0.8-0.1,1.4-0.4,2
				c-0.3,0.5-0.7,0.9-1.3,1.2c-0.6,0.3-1.4,0.4-2.4,0.4C943.6,680.9,942.9,680.8,942.3,680.6z M946,675.8c0.4-0.2,0.7-0.6,1-1
				c0.2-0.5,0.3-1.1,0.3-1.8c0-0.7-0.1-1.4-0.3-1.8c-0.2-0.5-0.5-0.8-1-1c-0.4-0.2-0.9-0.3-1.6-0.3c-0.7,0-1.2,0.1-1.6,0.3
				c-0.4,0.2-0.7,0.6-0.9,1c-0.2,0.5-0.3,1.1-0.3,1.8c0,0.8,0.1,1.4,0.3,1.9c0.2,0.5,0.5,0.8,0.9,1c0.4,0.2,0.9,0.3,1.6,0.3
				C945.1,676.1,945.6,676,946,675.8z"/>
			<path d="M952.3,677c-0.6-0.4-1.1-0.9-1.4-1.6c-0.3-0.7-0.5-1.5-0.5-2.3c0-0.9,0.2-1.6,0.5-2.3s0.8-1.2,1.4-1.6
				c0.6-0.4,1.4-0.6,2.3-0.6c0.8,0,1.6,0.2,2.2,0.5c0.6,0.4,1.1,0.9,1.4,1.5s0.5,1.4,0.5,2.2v0.2c0,0.1,0,0.2,0,0.4h-7.1v-1h6.4
				l-0.6,0.6c0-0.8,0-1.4-0.2-1.9c-0.2-0.5-0.5-0.9-0.9-1.1s-0.9-0.3-1.5-0.3c-0.6,0-1.1,0.1-1.6,0.3s-0.8,0.6-1,1.1s-0.3,1.2-0.3,2
				s0.1,1.5,0.4,2c0.2,0.5,0.6,0.9,1,1.1c0.4,0.2,1,0.3,1.6,0.3c0.5,0,1-0.1,1.4-0.2c0.4-0.2,0.7-0.4,0.9-0.6c0.2-0.3,0.4-0.6,0.5-1
				h1.2c-0.1,0.5-0.2,0.9-0.5,1.4s-0.7,0.8-1.3,1.1c-0.6,0.3-1.3,0.4-2.2,0.4C953.7,677.6,953,677.4,952.3,677z"/>
			<path d="M960.4,668.9h1.4v8.5h-1.4V668.9z M961.7,671.2c0.3-0.8,0.7-1.5,1.2-1.9c0.5-0.5,1.2-0.7,2.1-0.7c0.7,0,1.3,0.1,1.7,0.4
				s0.8,0.6,1,1.1c0.2,0.5,0.3,1.1,0.3,1.8v5.4h-1.4v-5.3c0-0.6-0.1-1.1-0.2-1.4c-0.2-0.4-0.4-0.6-0.7-0.7c-0.3-0.1-0.7-0.2-1.1-0.2
				c-0.6,0-1.2,0.2-1.6,0.5s-0.8,0.8-1,1.5c-0.2,0.7-0.3,1.5-0.3,2.4h-0.4C961.3,673,961.4,672,961.7,671.2z"/>
		</g>
	</g>
	<g>
		<g>
			<path d="M1054,677.3c-0.4-0.2-0.7-0.5-1-0.8c-0.2-0.4-0.4-0.8-0.4-1.4c0-0.5,0.1-0.9,0.3-1.2c0.2-0.3,0.5-0.6,0.8-0.8
				c0.4-0.2,0.9-0.4,1.5-0.5l2.2-0.4c0.5-0.1,0.8-0.2,1-0.3c0.2-0.1,0.3-0.4,0.3-0.7c0-0.3-0.1-0.6-0.2-0.8
				c-0.1-0.2-0.3-0.4-0.6-0.5c-0.3-0.1-0.7-0.2-1.3-0.2c-0.8,0-1.4,0.2-1.7,0.5c-0.4,0.3-0.6,0.8-0.6,1.4h-1.4
				c0-0.6,0.2-1.1,0.5-1.6c0.3-0.4,0.7-0.8,1.2-1c0.5-0.2,1.2-0.4,2-0.4c0.7,0,1.4,0.1,1.9,0.3c0.5,0.2,0.9,0.5,1.1,0.9
				s0.4,0.8,0.4,1.4v4.1c0,0.3,0,0.6,0,1c0,0.3,0,0.7,0.1,1.1h-1.2c0-0.4-0.1-0.7-0.1-1s0-0.7,0-1c-0.1,0.4-0.3,0.7-0.6,1.1
				c-0.3,0.3-0.6,0.6-1,0.8c-0.4,0.2-1,0.3-1.6,0.3C1054.9,677.6,1054.4,677.5,1054,677.3z M1057.3,676.1c0.4-0.3,0.8-0.7,1-1.2
				s0.3-1,0.3-1.6v-0.7c-0.2,0.1-0.4,0.2-0.6,0.3c-0.2,0.1-0.4,0.2-0.7,0.2l-0.2,0.1l-1.4,0.3c-0.6,0.1-1,0.3-1.3,0.6
				s-0.4,0.6-0.4,1c0,0.5,0.2,0.8,0.5,1.1c0.3,0.2,0.7,0.4,1.2,0.4C1056.4,676.5,1056.9,676.4,1057.3,676.1z"/>
			<path d="M1062.1,668.9h1.4v1.9v0.3v9.7h-1.4V668.9z M1063.9,676.4c-0.6-0.8-0.9-1.9-0.9-3.3s0.3-2.5,0.9-3.3s1.6-1.2,2.8-1.2
				c0.9,0,1.6,0.2,2.2,0.6c0.6,0.4,1,0.9,1.3,1.6c0.3,0.7,0.4,1.5,0.4,2.3c0,0.9-0.1,1.7-0.4,2.4c-0.3,0.7-0.7,1.2-1.3,1.6
				c-0.6,0.4-1.3,0.6-2.2,0.6C1065.4,677.6,1064.5,677.2,1063.9,676.4z M1068,676.2c0.4-0.2,0.7-0.6,0.9-1.1
				c0.2-0.5,0.3-1.1,0.3-1.9c0-0.8-0.1-1.4-0.3-1.9c-0.2-0.5-0.5-0.9-0.9-1.1s-0.9-0.4-1.6-0.4c-0.6,0-1.1,0.1-1.6,0.4
				c-0.4,0.2-0.8,0.6-1,1.1c-0.2,0.5-0.3,1.1-0.3,1.9s0.1,1.4,0.3,1.9c0.2,0.5,0.6,0.9,1,1.1c0.4,0.2,1,0.4,1.6,0.4
				C1067,676.5,1067.6,676.4,1068,676.2z"/>
			<path d="M1072.4,668.9h1.3v2.7l0,0.3v5.6h-1.4V668.9z M1073.6,671.4c0.2-0.8,0.6-1.5,1.2-1.9c0.5-0.5,1.2-0.7,2.1-0.7h0.3v1.3
				h-0.4c-0.8,0-1.4,0.1-1.9,0.5c-0.4,0.3-0.8,0.8-0.9,1.4s-0.2,1.4-0.2,2.2h-0.5C1073.3,673.2,1073.4,672.2,1073.6,671.4z"/>
		</g>
	</g>
	<g>
		<g>
			<path d="M1166.6,665.5h1.4v11.9h-1.4V665.5z"/>
			<path d="M1171.5,677.3c-0.5-0.2-0.8-0.6-1-1.1c-0.2-0.5-0.3-1.1-0.3-1.9v-5.4h1.4v5.3c0,0.6,0.1,1.1,0.2,1.4
				c0.2,0.3,0.4,0.6,0.7,0.7c0.3,0.1,0.7,0.2,1.2,0.2c0.6,0,1.1-0.2,1.5-0.5c0.4-0.3,0.7-0.8,0.9-1.5c0.2-0.7,0.3-1.5,0.3-2.4h0.4
				c0,1.1-0.1,2.1-0.4,2.9c-0.2,0.8-0.6,1.5-1.2,1.9s-1.2,0.7-2.1,0.7C1172.6,677.6,1172,677.5,1171.5,677.3z M1176.5,674.7v-0.2
				v-5.7h1.4v8.5h-1.4V674.7z"/>
			<path d="M1181.4,676.7c-0.6-0.3-1-0.8-1.3-1.5c-0.3-0.6-0.4-1.4-0.4-2.3c0-1.3,0.3-2.4,1-3.1s1.6-1.1,2.9-1.1
				c1.2,0,2.1,0.4,2.8,1.1c0.6,0.7,0.9,1.8,0.9,3.2c0,1-0.1,1.7-0.4,2.4c-0.3,0.6-0.7,1.1-1.2,1.4s-1.2,0.5-2.1,0.5
				C1182.7,677.2,1182,677,1181.4,676.7z M1181.8,680.6c-0.6-0.2-1-0.6-1.4-1c-0.3-0.5-0.5-1-0.6-1.6h1.3c0,0.4,0.1,0.7,0.3,1
				c0.2,0.3,0.5,0.5,0.9,0.7c0.4,0.2,0.9,0.2,1.5,0.2c0.7,0,1.2-0.1,1.6-0.3s0.7-0.4,0.9-0.8c0.2-0.4,0.3-0.9,0.3-1.5v-8.5h1.4v8.5
				c0,0.8-0.1,1.4-0.4,2c-0.3,0.5-0.7,0.9-1.3,1.2c-0.6,0.3-1.4,0.4-2.4,0.4C1183.1,680.9,1182.4,680.8,1181.8,680.6z M1185.5,675.8
				c0.4-0.2,0.7-0.6,1-1c0.2-0.5,0.3-1.1,0.3-1.8c0-0.7-0.1-1.4-0.3-1.8c-0.2-0.5-0.5-0.8-1-1c-0.4-0.2-0.9-0.3-1.6-0.3
				c-0.7,0-1.2,0.1-1.6,0.3c-0.4,0.2-0.7,0.6-0.9,1c-0.2,0.5-0.3,1.1-0.3,1.8c0,0.8,0.1,1.4,0.3,1.9c0.2,0.5,0.5,0.8,0.9,1
				c0.4,0.2,0.9,0.3,1.6,0.3C1184.5,676.1,1185.1,676,1185.5,675.8z"/>
		</g>
	</g>
	<g>
		<g>
			<path d="M833.1,677c-0.6-0.4-1.1-0.9-1.4-1.6s-0.5-1.5-0.5-2.3c0-0.9,0.2-1.6,0.5-2.3s0.8-1.2,1.4-1.6c0.6-0.4,1.4-0.6,2.4-0.6
				c0.9,0,1.7,0.2,2.3,0.6c0.6,0.4,1.1,0.9,1.4,1.6s0.5,1.5,0.5,2.3c0,0.9-0.2,1.6-0.5,2.3c-0.3,0.7-0.8,1.2-1.4,1.6
				c-0.6,0.4-1.4,0.6-2.3,0.6C834.6,677.6,833.8,677.4,833.1,677z M832.9,675c0.2,0.5,0.5,0.9,1,1.1c0.4,0.2,1,0.4,1.6,0.4
				c0.6,0,1.2-0.1,1.6-0.4c0.4-0.2,0.7-0.6,1-1.1c0.2-0.5,0.3-1.2,0.3-1.9c0-0.8-0.1-1.4-0.3-1.9c-0.2-0.5-0.5-0.9-1-1.1
				c-0.4-0.2-1-0.4-1.6-0.4c-0.7,0-1.2,0.1-1.6,0.4c-0.4,0.2-0.7,0.6-1,1.1c-0.2,0.5-0.3,1.2-0.3,1.9
				C832.6,673.9,832.7,674.5,832.9,675z"/>
			<path d="M842.9,677.1c-0.3-0.1-0.5-0.4-0.6-0.6s-0.2-0.7-0.2-1.1v-5.4h-1.6v-0.8l1.8-0.4l0.5-1.8h0.7v1.9h4.7v1.1h-4.7v6.3h2.7
				v1.1h-2C843.6,677.4,843.2,677.3,842.9,677.1z M848.4,677.1c-0.3-0.1-0.5-0.4-0.6-0.6s-0.2-0.7-0.2-1.1v-5.4H846v-0.8l1.6-0.2
				l0.6-2h0.7v1.9h2.8v1.1H849v6.3h2.7v1.1h-2C849.1,677.4,848.7,677.3,848.4,677.1z"/>
		</g>
	</g>
</g>
<g id="rawgraph">
	<g id="Anno_00000105417608227171071620000014775418991258327439_">
		<path class="st4" d="M59.1,441.8c19,0,19,16.8,38,16.8c17.2,0,17.2,45.4,34.3,45.4c19,0,19,0.6,38,0.6
			c18.4,0,18.4-111.8,36.8-111.8c19,0,19-58.9,38-58.9c18.4,0,18.4,55.5,36.8,55.5c19,0,19-49.4,38-49.4s19,133.5,38,133.5
			c18.4,0,18.4-53.2,36.8-53.2c19,0,19,48.4,38.1,48.4c18.4,0,18.4,44.5,36.8,44.5c19,0,19,18.3,38,18.3c19,0,19-7,38-7
			c17.2,0,17.2,22.8,34.3,22.8c19,0,19-4.4,38-4.4c18.4,0,18.4-117.3,36.8-117.3c19,0,19,39.5,38,39.5c18.4,0,18.4,98,36.8,98
			c19,0,19,2,38,2s19-38.9,38-38.9c18.4,0,18.4-34.2,36.8-34.2c19,0,19-73.2,38.1-73.2c18.4,0,18.4,46.9,36.8,46.9
			c19,0,19,30.9,38,30.9s19,10.5,38,10.5c17.2,0,17.2-2,34.3-2c19,0,19-27.7,38-27.7c18.4,0,18.4-129.9,36.8-129.9
			c19,0,19-27.9,38-27.9"/>
	</g>
	<path class="st5" d="M59.1,292c19,0,19,36.6,38,36.6c17.2,0,17.2,19.9,34.3,19.9c19,0,19-84.3,38-84.3c18.4,0,18.4-59.7,36.8-59.7
		c19,0,19-31.4,38-31.4c18.4,0,18.4-41.1,36.8-41.1c19,0,19,72.7,38,72.7s19-67.5,38-67.5c18.4,0,18.4-55.8,36.8-55.8
		c19,0,19,33.9,38.1,33.9c18.4,0,18.4,85.8,36.8,85.8c19,0,19,90.8,38,90.8c19,0,19,36.6,38,36.6c17.2,0,17.2,19.9,34.3,19.9
		c19,0,19-84.3,38-84.3c18.4,0,18.4-59.7,36.8-59.7c19,0,19-31.4,38-31.4c18.4,0,18.4-41.1,36.8-41.1c19,0,19,72.7,38,72.7
		s19-67.5,38-67.5c18.4,0,18.4-55.8,36.8-55.8c19,0,19,33.9,38.1,33.9c18.4,0,18.4,85.8,36.8,85.8c19,0,19,90.8,38,90.8
		s19,36.6,38,36.6c17.2,0,17.2,19.9,34.3,19.9c19,0,19-84.3,38-84.3c18.4,0,18.4-59.7,36.8-59.7c19,0,19-31.4,38-31.4"/>
	<path class="st6" d="M59.1,607.8c19,0,19,12.4,38,12.4c17.2,0,17.2-33.9,34.3-33.9c19,0,19-27.3,38-27.3
		c18.4,0,18.4,17.4,36.8,17.4c19,0,19-20.9,38-20.9c18.4,0,18.4-41.7,36.8-41.7c19,0,19,17.6,38,17.6s19,35.2,38,35.2
		c18.4,0,18.4,10.5,36.8,10.5c19,0,19,0.7,38.1,0.7c18.4,0,18.4,24.4,36.8,24.4c19,0,19,5.5,38,5.5c19,0,19,12.4,38,12.4
		c17.2,0,17.2-33.9,34.3-33.9c19,0,19-27.3,38-27.3c18.4,0,18.4,17.4,36.8,17.4c19,0,19-20.9,38-20.9c18.4,0,18.4-41.7,36.8-41.7
		c19,0,19,17.6,38,17.6s19,35.2,38,35.2c18.4,0,18.4,10.5,36.8,10.5c19,0,19,0.7,38.1,0.7c18.4,0,18.4,24.4,36.8,24.4
		c19,0,19,5.5,38,5.5s19,12.4,38,12.4c17.2,0,17.2-33.9,34.3-33.9c19,0,19-27.3,38-27.3c18.4,0,18.4,17.4,36.8,17.4
		c19,0,19-20.9,38-20.9"/>
	<line class="st7" x1="59" y1="499.3" x2="1177.2" y2="499.3"/>
</g>
</svg>
