<?xml version="1.0" encoding="utf-8"?>
<!-- Generator: Adobe Illustrator 25.2.0, SVG Export Plug-In . SVG Version: 6.00 Build 0)  -->
<svg version="1.1" id="Livello_1" xmlns="http://www.w3.org/2000/svg" xmlns:xlink="http://www.w3.org/1999/xlink" x="0px" y="0px"
	 viewBox="0 0 1263.3 992.3" style="enable-background:new 0 0 1263.3 992.3;" xml:space="preserve">
<style type="text/css">
	.st0{fill:none;stroke:#000000;stroke-width:0.5152;stroke-linecap:square;stroke-linejoin:round;}
	.st1{fill:none;stroke:#000000;stroke-width:0.2576;stroke-linecap:square;stroke-linejoin:round;}
	.st2{fill:none;stroke:#000000;stroke-width:0.2503;stroke-linecap:square;stroke-linejoin:round;}
	.st3{fill:none;stroke:#000000;stroke-width:0.5006;stroke-linecap:square;stroke-linejoin:round;}
	.st4{fill:none;stroke:#000000;stroke-width:0.751;stroke-linecap:square;stroke-linejoin:round;}
	.st5{fill:none;stroke:#6691E0;stroke-width:4.0051;stroke-linejoin:round;}
	.st6{fill:none;stroke:#003599;stroke-width:5;stroke-linejoin:round;stroke-dasharray:3,8;}
	.st7{fill:none;stroke:#99B5EB;stroke-width:5;stroke-linejoin:round;stroke-dasharray:3,8;}
	.st8{fill:none;stroke:#000000;stroke-width:0.751;}
	.st9{fill:none;stroke:#000000;stroke-miterlimit:10;stroke-dasharray:0.6855,2.7418;}
	.st10{fill:none;stroke:#000000;}
</style>
<line class="st0" x1="107" y1="845" x2="107" y2="244.8"/>
<line class="st1" x1="1224.8" y1="845" x2="1224.8" y2="244.8"/>
<line class="st1" x1="217.5" y1="845" x2="217.5" y2="244.8"/>
<line class="st2" x1="143.7" y1="845" x2="143.7" y2="838.8"/>
<line class="st2" x1="180.6" y1="845" x2="180.6" y2="838.8"/>
<line class="st1" x1="329.1" y1="845" x2="329.1" y2="244.8"/>
<line class="st2" x1="255.3" y1="845" x2="255.3" y2="838.8"/>
<line class="st2" x1="292.1" y1="845" x2="292.1" y2="838.8"/>
<line class="st2" x1="402.7" y1="845" x2="402.7" y2="838.8"/>
<line class="st2" x1="365.8" y1="845" x2="365.8" y2="838.8"/>
<line class="st1" x1="441.8" y1="845" x2="441.8" y2="244.8"/>
<line class="st2" x1="478.7" y1="845" x2="478.7" y2="838.8"/>
<line class="st2" x1="517.7" y1="845" x2="517.7" y2="838.8"/>
<line class="st0" x1="554.6" y1="845" x2="554.6" y2="244.8"/>
<line class="st2" x1="593.7" y1="845" x2="593.7" y2="838.8"/>
<line class="st2" x1="630.5" y1="845" x2="630.5" y2="838.8"/>
<line class="st1" x1="664.9" y1="845" x2="664.9" y2="244.8"/>
<line class="st2" x1="705.2" y1="845" x2="705.2" y2="838.8"/>
<line class="st2" x1="742.1" y1="845" x2="742.1" y2="838.8"/>
<line class="st1" x1="776.4" y1="845" x2="776.4" y2="244.8"/>
<line class="st2" x1="813.3" y1="845" x2="813.3" y2="838.8"/>
<line class="st2" x1="847.6" y1="845" x2="847.6" y2="838.8"/>
<line class="st1" x1="889.2" y1="845" x2="889.2" y2="244.8"/>
<line class="st2" x1="923.5" y1="845" x2="923.5" y2="838.8"/>
<line class="st2" x1="965.1" y1="845" x2="965.1" y2="838.8"/>
<line class="st0" x1="1002" y1="845" x2="1002" y2="244.8"/>
<line class="st2" x1="1043.6" y1="845" x2="1043.6" y2="838.8"/>
<line class="st2" x1="1080.5" y1="845" x2="1080.5" y2="838.8"/>
<line class="st1" x1="1112.3" y1="845" x2="1112.3" y2="244.8"/>
<line class="st2" x1="1149.2" y1="845" x2="1149.2" y2="838.8"/>
<line class="st2" x1="1181" y1="845" x2="1181" y2="838.8"/>
<line class="st3" x1="107" y1="778.9" x2="101" y2="778.9"/>
<line class="st3" x1="107" y1="719.7" x2="101" y2="719.7"/>
<line class="st4" x1="107" y1="660.5" x2="101" y2="660.5"/>
<line class="st3" x1="107" y1="601" x2="101" y2="601"/>
<line class="st3" x1="107" y1="541.7" x2="101" y2="541.7"/>
<line class="st3" x1="107" y1="482.4" x2="101" y2="482.4"/>
<line class="st3" x1="107" y1="363.8" x2="101" y2="363.8"/>
<line class="st3" x1="107" y1="423.1" x2="101" y2="423.1"/>
<line class="st3" x1="107" y1="304.4" x2="101" y2="304.4"/>
<line class="st3" x1="107" y1="244.7" x2="101" y2="244.7"/>
<g id="Anno">
	<path class="st5" d="M107.3,554.7c19,0,19-9.1,37.9-9.1c17.1,0,17.1,13.1,34.3,13.1c18.9,0,18.9,54.1,37.9,54.1
		c18.4,0,18.4-61.4,36.7-61.4c19,0,19-40.3,37.9-40.3c18.4,0,18.4-4.6,36.7-4.6c19,0,19,40.8,37.9,40.8s19,74,37.9,74
		c18.4,0,18.4-45,36.7-45c19,0,19,29,38,29c18.4,0,18.4,19.3,36.7,19.3c19,0,19,31.1,37.9,31.1c19,0,19,3,37.9,3
		c17.1,0,17.1-7.8,34.3-7.8c18.9,0,18.9,3.7,37.9,3.7c18.4,0,18.4-18.4,36.7-18.4c19,0,19,24.1,37.9,24.1c18.4,0,18.4,9.2,36.7,9.2
		c19,0,19,17.4,37.9,17.4c18.9,0,19-10.2,37.9-10.2c18.4,0,18.4-5.3,36.7-5.3c19,0,19-32.3,38-32.3c18.4,0,18.4,23.7,36.7,23.7
		c19,0,19,3.7,37.9,3.7c19,0,19-35,37.9-35c17.1,0,17.1-8.1,34.3-8.1c18.9,0,18.9-10.1,37.9-10.1c18.4,0,18.4-87.7,36.7-87.7
		c19,0,19-8.9,37.9-8.9"/>
</g>
<g id="Massimo_altezza_idrometrica">
	<path class="st6" d="M107.3,479.6c19,0,19,6.5,37.9,6.5c17.1,0,17.1,9.9,34.3,9.9c18.9,0,18.9-55.2,37.9-55.2
		c18.4,0,18.4-110.9,36.7-110.9c19,0,19,64.3,37.9,64.3c18.4,0,18.4,25.2,36.7,25.2c19,0,19,14.8,37.9,14.8s19-100.5,37.9-100.5
		c18.4,0,18.4-68.1,36.7-68.1c19,0,19,11.7,38,11.7c18.4,0,18.4,159.1,36.7,159.1c19,0,19,43.2,37.9,43.2c19,0,19,6.5,37.9,6.5
		c17.1,0,17.1,9.9,34.3,9.9c18.9,0,18.9-55.2,37.9-55.2C683,440.9,683,330,701.3,330c19,0,19,64.3,37.9,64.3
		c18.4,0,18.4,25.2,36.7,25.2c19,0,19,14.8,37.9,14.8c18.9,0,19-100.5,37.9-100.5c18.4,0,18.4-68.1,36.7-68.1c19,0,19,11.7,38,11.7
		c18.4,0,18.4,159.1,36.7,159.1c19,0,19,43.2,37.9,43.2c19,0,19,6.5,37.9,6.5c17.1,0,17.1,9.9,34.3,9.9c18.9,0,18.9-55.2,37.9-55.2
		c18.4,0,18.4-110.9,36.7-110.9c19,0,19,64.3,37.9,64.3"/>
</g>
<g id="Minimo_altezza_idrometrica">
	<path class="st7" d="M107.3,727.4c19,0,19,2.9,37.9,2.9c17.1,0,17.1-8.4,34.3-8.4c18.9,0,18.9-3.6,37.9-3.6c18.4,0,18.4-34,36.7-34
		c19,0,19-21,37.9-21c18.4,0,18.4,32.4,36.7,32.4c19,0,19,25.9,37.9,25.9s19-2.1,37.9-2.1c18.4,0,18.4,0.2,36.7,0.2
		c19,0,19-7.2,38-7.2c18.4,0,18.4,0,36.7,0c19,0,19,15,37.9,15c19,0,19,2.9,37.9,2.9c17.1,0,17.1-8.4,34.3-8.4
		c18.9,0,18.9-3.6,37.9-3.6c18.4,0,18.4-34,36.7-34c19,0,19-21,37.9-21c18.4,0,18.4,32.4,36.7,32.4c19,0,19,25.9,37.9,25.9
		c18.9,0,19-2.1,37.9-2.1c18.4,0,18.4,0.2,36.7,0.2c19,0,19-7.2,38-7.2c18.4,0,18.4,0,36.7,0c19,0,19,15,37.9,15
		c19,0,19,2.9,37.9,2.9c17.1,0,17.1-8.4,34.3-8.4c18.9,0,18.9-3.6,37.9-3.6c18.4,0,18.4-34,36.7-34c19,0,19-21,37.9-21"/>
</g>
<line class="st8" x1="107" y1="660.5" x2="1224.8" y2="660.5"/>
<g>
	<g>
		<path d="M52,597.6c0.5,0.8,1.2,1.4,2.2,1.8c1,0.4,2.2,0.7,3.7,0.7c1.6,0,2.8-0.3,3.8-0.8c1-0.5,1.7-1.3,2.2-2.2
			c0.5-1,0.7-2.1,0.7-3.4s-0.2-2.4-0.7-3.3c-0.5-0.9-1.1-1.6-2-2.1s-2-0.8-3.3-0.8c-1.4,0-2.6,0.3-3.7,0.8c-1.1,0.5-2.1,1.4-3.1,2.5
			h-2l0.7-12.8h2.1L52,589c0.8-1,1.8-1.7,2.9-2.2c1.2-0.5,2.5-0.8,4.1-0.8c1.6,0,3.1,0.3,4.3,1c1.2,0.6,2.1,1.6,2.7,2.7
			c0.6,1.2,0.9,2.5,0.9,4.1c0,2.5-0.7,4.4-2.2,5.9c-1.4,1.5-3.7,2.3-6.9,2.3c-2,0-3.6-0.3-4.9-0.9c-1.3-0.6-2.3-1.4-3-2.5
			c-0.7-1.1-1-2.3-1.1-3.8h2.3C51.2,595.9,51.5,596.9,52,597.6z M65.9,578.1v1.9H51.5v-1.9H65.9z"/>
		<path d="M74.7,600.4c-1.5-1-2.7-2.5-3.4-4.3c-0.7-1.8-1.1-4-1.1-6.5c0-2.4,0.4-4.5,1.1-6.4c0.8-1.8,1.9-3.3,3.4-4.3
			c1.5-1,3.4-1.6,5.6-1.6c2.3,0,4.2,0.5,5.7,1.6c1.5,1,2.6,2.5,3.4,4.3c0.7,1.8,1.1,4,1.1,6.4c0,2.5-0.4,4.6-1.1,6.4
			c-0.7,1.8-1.9,3.3-3.4,4.3c-1.5,1-3.4,1.5-5.7,1.5C78.1,602,76.3,601.4,74.7,600.4z M73.4,595.5c0.6,1.6,1.5,2.7,2.6,3.5
			c1.2,0.8,2.6,1.2,4.4,1.2s3.2-0.4,4.4-1.2c1.2-0.8,2-1.9,2.6-3.5c0.6-1.6,0.9-3.5,0.9-5.8c0-2.3-0.3-4.2-0.9-5.8
			c-0.6-1.5-1.5-2.7-2.6-3.5c-1.2-0.8-2.6-1.2-4.4-1.2s-3.2,0.4-4.4,1.2c-1.2,0.8-2,1.9-2.6,3.5c-0.6,1.5-0.9,3.5-0.9,5.8
			C72.5,592,72.8,593.9,73.4,595.5z"/>
	</g>
</g>
<g>
	<g>
		<path d="M31.8,540h5.4v-19.6h-5.5v-1.9h5c1,0,1.6,0.2,2.1,0.6c0.4,0.4,0.6,1,0.6,1.9v19h5v1.9H31.8V540z"/>
		<path d="M51.3,541c-1.5-1-2.7-2.5-3.4-4.3c-0.7-1.8-1.1-4-1.1-6.5c0-2.4,0.4-4.5,1.1-6.4c0.8-1.8,1.9-3.3,3.4-4.3
			c1.5-1,3.4-1.6,5.6-1.6c2.3,0,4.2,0.5,5.7,1.6c1.5,1,2.6,2.5,3.4,4.3c0.7,1.8,1.1,3.9,1.1,6.4c0,2.4-0.4,4.6-1.1,6.4
			c-0.7,1.8-1.9,3.3-3.4,4.3c-1.5,1-3.4,1.5-5.7,1.5C54.7,542.5,52.8,542,51.3,541z M50,536c0.6,1.6,1.5,2.7,2.6,3.5
			c1.2,0.8,2.6,1.2,4.4,1.2s3.2-0.4,4.4-1.2c1.2-0.8,2-1.9,2.6-3.5c0.6-1.6,0.9-3.5,0.9-5.8c0-2.3-0.3-4.2-0.9-5.8
			c-0.6-1.5-1.5-2.7-2.6-3.5c-1.2-0.8-2.6-1.2-4.4-1.2s-3.2,0.4-4.4,1.2c-1.2,0.8-2,1.9-2.6,3.5c-0.6,1.5-0.9,3.5-0.9,5.8
			C49.1,532.5,49.4,534.5,50,536z"/>
		<path d="M74.7,541c-1.5-1-2.7-2.5-3.4-4.3c-0.7-1.8-1.1-4-1.1-6.5c0-2.4,0.4-4.5,1.1-6.4c0.8-1.8,1.9-3.3,3.4-4.3
			c1.5-1,3.4-1.6,5.6-1.6c2.3,0,4.2,0.5,5.7,1.6c1.5,1,2.6,2.5,3.4,4.3c0.7,1.8,1.1,3.9,1.1,6.4c0,2.4-0.4,4.6-1.1,6.4
			c-0.7,1.8-1.9,3.3-3.4,4.3c-1.5,1-3.4,1.5-5.7,1.5C78.1,542.5,76.3,542,74.7,541z M73.4,536c0.6,1.6,1.5,2.7,2.6,3.5
			c1.2,0.8,2.6,1.2,4.4,1.2s3.2-0.4,4.4-1.2c1.2-0.8,2-1.9,2.6-3.5c0.6-1.6,0.9-3.5,0.9-5.8c0-2.3-0.3-4.2-0.9-5.8
			c-0.6-1.5-1.5-2.7-2.6-3.5c-1.2-0.8-2.6-1.2-4.4-1.2s-3.2,0.4-4.4,1.2c-1.2,0.8-2,1.9-2.6,3.5c-0.6,1.5-0.9,3.5-0.9,5.8
			C72.5,532.5,72.8,534.5,73.4,536z"/>
	</g>
</g>
<g>
	<g>
		<path d="M33.6,480.6H39V461h-5.5v-1.9h5c1,0,1.6,0.2,2.1,0.6c0.4,0.4,0.6,1,0.6,1.9v19h5v1.9H33.6V480.6z"/>
		<path d="M52,478.7c0.5,0.8,1.2,1.4,2.2,1.8c1,0.4,2.2,0.7,3.7,0.7c1.6,0,2.8-0.3,3.8-0.8c1-0.5,1.7-1.3,2.2-2.2
			c0.5-1,0.7-2.1,0.7-3.4s-0.2-2.4-0.7-3.3c-0.5-0.9-1.1-1.6-2-2.1s-2-0.8-3.3-0.8c-1.4,0-2.6,0.3-3.7,0.8c-1.1,0.5-2.1,1.4-3.1,2.5
			h-2l0.7-12.8h2.1L52,470c0.8-1,1.8-1.7,2.9-2.2c1.2-0.5,2.5-0.8,4.1-0.8c1.6,0,3.1,0.3,4.3,1c1.2,0.6,2.1,1.6,2.7,2.7
			c0.6,1.2,0.9,2.5,0.9,4.1c0,2.5-0.7,4.4-2.2,5.9c-1.4,1.5-3.7,2.3-6.9,2.3c-2,0-3.6-0.3-4.9-0.9c-1.3-0.6-2.3-1.4-3-2.4
			c-0.7-1.1-1-2.3-1.1-3.8h2.3C51.2,477,51.5,478,52,478.7z M65.9,459.2v1.9H51.5v-1.9H65.9z"/>
		<path d="M74.7,481.5c-1.5-1-2.7-2.5-3.4-4.3c-0.7-1.8-1.1-4-1.1-6.5c0-2.4,0.4-4.5,1.1-6.4c0.8-1.8,1.9-3.3,3.4-4.3
			c1.5-1,3.4-1.6,5.6-1.6c2.3,0,4.2,0.5,5.7,1.6c1.5,1,2.6,2.5,3.4,4.3c0.7,1.8,1.1,3.9,1.1,6.4c0,2.4-0.4,4.6-1.1,6.4
			c-0.7,1.8-1.9,3.3-3.4,4.3c-1.5,1-3.4,1.5-5.7,1.5C78.1,483,76.3,482.5,74.7,481.5z M73.4,476.6c0.6,1.6,1.5,2.7,2.6,3.5
			c1.2,0.8,2.6,1.2,4.4,1.2s3.2-0.4,4.4-1.2c1.2-0.8,2-1.9,2.6-3.5c0.6-1.6,0.9-3.5,0.9-5.8c0-2.3-0.3-4.2-0.9-5.8
			c-0.6-1.5-1.5-2.7-2.6-3.5c-1.2-0.8-2.6-1.2-4.4-1.2s-3.2,0.4-4.4,1.2c-1.2,0.8-2,1.9-2.6,3.5c-0.6,1.5-0.9,3.5-0.9,5.8
			C72.5,473.1,72.8,475,73.4,476.6z"/>
	</g>
</g>
<g>
	<g>
		<path d="M26.2,421.1l11.2-9.7c1.3-1.2,2.2-2.2,2.7-3c0.5-0.8,0.8-1.8,0.8-2.9c0-1.4-0.5-2.5-1.4-3.3c-0.9-0.8-2.3-1.2-4.1-1.2
			c-1.6,0-2.9,0.3-3.9,0.9c-1,0.6-1.8,1.5-2.3,2.6c-0.5,1.2-0.8,2.7-0.8,4.5h-2.2c0-2.1,0.4-3.9,1.1-5.3c0.7-1.5,1.7-2.6,3.1-3.4
			c1.4-0.8,3-1.2,5-1.2c1.8,0,3.2,0.3,4.4,0.9c1.2,0.6,2,1.3,2.6,2.3c0.5,1,0.8,2,0.8,3.2c0,1.4-0.4,2.7-1.2,3.9
			c-0.8,1.2-2.1,2.6-4,4.3l-8.7,7.5h14.4v1.9H26.2V421.1z"/>
		<path d="M51.3,422c-1.5-1-2.7-2.5-3.4-4.3c-0.7-1.8-1.1-4-1.1-6.5c0-2.4,0.4-4.5,1.1-6.4c0.8-1.8,1.9-3.3,3.4-4.3
			c1.5-1,3.4-1.6,5.6-1.6c2.3,0,4.2,0.5,5.7,1.6c1.5,1,2.6,2.5,3.4,4.3c0.7,1.8,1.1,3.9,1.1,6.4c0,2.4-0.4,4.6-1.1,6.4
			c-0.7,1.8-1.9,3.3-3.4,4.3c-1.5,1-3.4,1.5-5.7,1.5C54.7,423.6,52.8,423.1,51.3,422z M50,417.1c0.6,1.6,1.5,2.7,2.6,3.5
			c1.2,0.8,2.6,1.2,4.4,1.2s3.2-0.4,4.4-1.2c1.2-0.8,2-1.9,2.6-3.5c0.6-1.6,0.9-3.5,0.9-5.8c0-2.3-0.3-4.2-0.9-5.8
			c-0.6-1.5-1.5-2.7-2.6-3.5c-1.2-0.8-2.6-1.2-4.4-1.2s-3.2,0.4-4.4,1.2c-1.2,0.8-2,1.9-2.6,3.5c-0.6,1.5-0.9,3.5-0.9,5.8
			C49.1,413.6,49.4,415.6,50,417.1z"/>
		<path d="M74.7,422c-1.5-1-2.7-2.5-3.4-4.3c-0.7-1.8-1.1-4-1.1-6.5c0-2.4,0.4-4.5,1.1-6.4c0.8-1.8,1.9-3.3,3.4-4.3
			c1.5-1,3.4-1.6,5.6-1.6c2.3,0,4.2,0.5,5.7,1.6c1.5,1,2.6,2.5,3.4,4.3c0.7,1.8,1.1,3.9,1.1,6.4c0,2.4-0.4,4.6-1.1,6.4
			c-0.7,1.8-1.9,3.3-3.4,4.3c-1.5,1-3.4,1.5-5.7,1.5C78.1,423.6,76.3,423.1,74.7,422z M73.4,417.1c0.6,1.6,1.5,2.7,2.6,3.5
			c1.2,0.8,2.6,1.2,4.4,1.2s3.2-0.4,4.4-1.2c1.2-0.8,2-1.9,2.6-3.5c0.6-1.6,0.9-3.5,0.9-5.8c0-2.3-0.3-4.2-0.9-5.8
			c-0.6-1.5-1.5-2.7-2.6-3.5c-1.2-0.8-2.6-1.2-4.4-1.2s-3.2,0.4-4.4,1.2c-1.2,0.8-2,1.9-2.6,3.5c-0.6,1.5-0.9,3.5-0.9,5.8
			C72.5,413.6,72.8,415.6,73.4,417.1z"/>
	</g>
</g>
<g>
	<g>
		<path d="M28,361.7l11.2-9.7c1.3-1.2,2.2-2.2,2.7-3c0.5-0.8,0.8-1.8,0.8-2.9c0-1.4-0.5-2.5-1.4-3.3c-0.9-0.8-2.3-1.2-4.1-1.2
			c-1.6,0-2.9,0.3-3.9,0.9c-1,0.6-1.8,1.5-2.3,2.6c-0.5,1.2-0.8,2.7-0.8,4.5H28c0-2.1,0.4-3.9,1.1-5.3c0.7-1.5,1.7-2.6,3.1-3.4
			c1.4-0.8,3-1.2,5-1.2c1.8,0,3.2,0.3,4.4,0.9c1.2,0.6,2,1.3,2.6,2.3c0.5,1,0.8,2,0.8,3.2c0,1.4-0.4,2.7-1.2,3.9
			c-0.8,1.2-2.1,2.6-4,4.3l-8.7,7.5h14.4v1.9H28V361.7z"/>
		<path d="M52,359.8c0.5,0.8,1.2,1.4,2.2,1.8c1,0.4,2.2,0.7,3.7,0.7c1.6,0,2.8-0.3,3.8-0.8c1-0.5,1.7-1.3,2.2-2.2
			c0.5-1,0.7-2.1,0.7-3.4s-0.2-2.4-0.7-3.3c-0.5-0.9-1.1-1.6-2-2.1s-2-0.8-3.3-0.8c-1.4,0-2.6,0.3-3.7,0.8c-1.1,0.5-2.1,1.4-3.1,2.5
			h-2l0.7-12.8h2.1L52,351.1c0.8-1,1.8-1.7,2.9-2.2c1.2-0.5,2.5-0.8,4.1-0.8c1.6,0,3.1,0.3,4.3,1c1.2,0.6,2.1,1.6,2.7,2.7
			c0.6,1.2,0.9,2.5,0.9,4.1c0,2.5-0.7,4.4-2.2,5.9c-1.4,1.5-3.7,2.3-6.9,2.3c-2,0-3.6-0.3-4.9-0.9c-1.3-0.6-2.3-1.4-3-2.4
			c-0.7-1.1-1-2.3-1.1-3.8h2.3C51.2,358.1,51.5,359,52,359.8z M65.9,340.2v1.9H51.5v-1.9H65.9z"/>
		<path d="M74.7,362.6c-1.5-1-2.7-2.5-3.4-4.3c-0.7-1.8-1.1-4-1.1-6.5c0-2.4,0.4-4.5,1.1-6.4c0.8-1.8,1.9-3.3,3.4-4.3
			c1.5-1,3.4-1.6,5.6-1.6c2.3,0,4.2,0.5,5.7,1.6c1.5,1,2.6,2.5,3.4,4.3c0.7,1.8,1.1,3.9,1.1,6.4c0,2.4-0.4,4.6-1.1,6.4
			c-0.7,1.8-1.9,3.3-3.4,4.3c-1.5,1-3.4,1.5-5.7,1.5C78.1,364.1,76.3,363.6,74.7,362.6z M73.4,357.7c0.6,1.6,1.5,2.7,2.6,3.5
			c1.2,0.8,2.6,1.2,4.4,1.2s3.2-0.4,4.4-1.2c1.2-0.8,2-1.9,2.6-3.5c0.6-1.6,0.9-3.5,0.9-5.8c0-2.3-0.3-4.2-0.9-5.8
			c-0.6-1.5-1.5-2.7-2.6-3.5c-1.2-0.8-2.6-1.2-4.4-1.2s-3.2,0.4-4.4,1.2c-1.2,0.8-2,1.9-2.6,3.5c-0.6,1.5-0.9,3.5-0.9,5.8
			C72.5,354.2,72.8,356.1,73.4,357.7z"/>
	</g>
</g>
<g>
	<g>
		<path d="M28.3,299.5c0.5,1,1.2,1.7,2.2,2.4c1,0.6,2.3,0.9,3.8,0.9c2.2,0,3.9-0.5,5.1-1.6c1.2-1.1,1.8-2.5,1.8-4.5
			c0-1.7-0.5-3.1-1.4-4c-0.9-1-2.2-1.5-3.9-1.5c-0.9,0-1.6,0.1-2.3,0.3c-0.6,0.2-1.3,0.5-2.1,0.9l-1-1.4l9.5-8.4H26.2v-1.9h16.4v1.9
			l-8.5,7.7c0.8-0.2,1.6-0.3,2.6-0.3c1.3,0,2.5,0.3,3.5,0.8c1,0.5,1.9,1.3,2.5,2.3c0.6,1,0.9,2.2,0.9,3.6c0,1.4-0.3,2.7-1,3.9
			c-0.7,1.2-1.7,2.1-3,2.9c-1.4,0.7-3.1,1.1-5.2,1.1c-1.9,0-3.5-0.4-4.9-1.1c-1.4-0.7-2.4-1.7-3.1-3c-0.7-1.2-1.1-2.6-1.1-4.1h2.3
			C27.6,297.6,27.9,298.6,28.3,299.5z"/>
		<path d="M51.3,303.1c-1.5-1-2.7-2.5-3.4-4.3c-0.7-1.8-1.1-4-1.1-6.5c0-2.4,0.4-4.5,1.1-6.4c0.8-1.8,1.9-3.3,3.4-4.3
			c1.5-1,3.4-1.6,5.6-1.6c2.3,0,4.2,0.5,5.7,1.6c1.5,1,2.6,2.5,3.4,4.3c0.7,1.8,1.1,3.9,1.1,6.4c0,2.4-0.4,4.6-1.1,6.4
			c-0.7,1.8-1.9,3.3-3.4,4.3c-1.5,1-3.4,1.5-5.7,1.5C54.7,304.7,52.8,304.1,51.3,303.1z M50,298.2c0.6,1.6,1.5,2.7,2.6,3.5
			c1.2,0.8,2.6,1.2,4.4,1.2s3.2-0.4,4.4-1.2c1.2-0.8,2-1.9,2.6-3.5c0.6-1.6,0.9-3.5,0.9-5.8c0-2.3-0.3-4.2-0.9-5.8
			c-0.6-1.5-1.5-2.7-2.6-3.5c-1.2-0.8-2.6-1.2-4.4-1.2s-3.2,0.4-4.4,1.2c-1.2,0.8-2,1.9-2.6,3.5c-0.6,1.5-0.9,3.5-0.9,5.8
			C49.1,294.7,49.4,296.7,50,298.2z"/>
		<path d="M74.7,303.1c-1.5-1-2.7-2.5-3.4-4.3c-0.7-1.8-1.1-4-1.1-6.5c0-2.4,0.4-4.5,1.1-6.4c0.8-1.8,1.9-3.3,3.4-4.3
			c1.5-1,3.4-1.6,5.6-1.6c2.3,0,4.2,0.5,5.7,1.6c1.5,1,2.6,2.5,3.4,4.3c0.7,1.8,1.1,3.9,1.1,6.4c0,2.4-0.4,4.6-1.1,6.4
			c-0.7,1.8-1.9,3.3-3.4,4.3c-1.5,1-3.4,1.5-5.7,1.5C78.1,304.7,76.3,304.1,74.7,303.1z M73.4,298.2c0.6,1.6,1.5,2.7,2.6,3.5
			c1.2,0.8,2.6,1.2,4.4,1.2s3.2-0.4,4.4-1.2c1.2-0.8,2-1.9,2.6-3.5c0.6-1.6,0.9-3.5,0.9-5.8c0-2.3-0.3-4.2-0.9-5.8
			c-0.6-1.5-1.5-2.7-2.6-3.5c-1.2-0.8-2.6-1.2-4.4-1.2s-3.2,0.4-4.4,1.2c-1.2,0.8-2,1.9-2.6,3.5c-0.6,1.5-0.9,3.5-0.9,5.8
			C72.5,294.7,72.8,296.7,73.4,298.2z"/>
	</g>
</g>
<g>
	<g>
		<path d="M30.1,240.1c0.5,1,1.2,1.7,2.2,2.4c1,0.6,2.3,0.9,3.8,0.9c2.2,0,3.9-0.5,5.1-1.6c1.2-1.1,1.8-2.5,1.8-4.5
			c0-1.7-0.5-3.1-1.4-4c-0.9-1-2.2-1.5-3.9-1.5c-0.9,0-1.6,0.1-2.3,0.3c-0.6,0.2-1.3,0.5-2.1,0.9l-1-1.4l9.5-8.4H28v-1.9h16.4v1.9
			l-8.5,7.7c0.8-0.2,1.6-0.3,2.6-0.3c1.3,0,2.5,0.3,3.5,0.8c1,0.5,1.9,1.3,2.5,2.3c0.6,1,0.9,2.2,0.9,3.6c0,1.4-0.3,2.7-1,3.9
			c-0.7,1.2-1.7,2.1-3,2.9c-1.4,0.7-3.1,1.1-5.2,1.1c-1.9,0-3.5-0.4-4.9-1.1c-1.4-0.7-2.4-1.7-3.1-3c-0.7-1.2-1.1-2.6-1.1-4.1h2.3
			C29.4,238.1,29.6,239.1,30.1,240.1z"/>
		<path d="M52,240.9c0.5,0.8,1.2,1.4,2.2,1.8c1,0.4,2.2,0.7,3.7,0.7c1.6,0,2.8-0.3,3.8-0.8c1-0.5,1.7-1.3,2.2-2.2
			c0.5-1,0.7-2.1,0.7-3.4s-0.2-2.4-0.7-3.3c-0.5-0.9-1.1-1.6-2-2.1s-2-0.8-3.3-0.8c-1.4,0-2.6,0.3-3.7,0.8c-1.1,0.5-2.1,1.4-3.1,2.5
			h-2l0.7-12.8h2.1L52,232.2c0.8-1,1.8-1.7,2.9-2.2c1.2-0.5,2.5-0.8,4.1-0.8c1.6,0,3.1,0.3,4.3,1c1.2,0.6,2.1,1.6,2.7,2.7
			c0.6,1.2,0.9,2.5,0.9,4.1c0,2.5-0.7,4.4-2.2,5.9c-1.4,1.5-3.7,2.3-6.9,2.3c-2,0-3.6-0.3-4.9-0.9c-1.3-0.6-2.3-1.4-3-2.4
			c-0.7-1.1-1-2.3-1.1-3.8h2.3C51.2,239.2,51.5,240.1,52,240.9z M65.9,221.3v1.9H51.5v-1.9H65.9z"/>
		<path d="M74.7,243.7c-1.5-1-2.7-2.5-3.4-4.3c-0.7-1.8-1.1-4-1.1-6.5c0-2.4,0.4-4.5,1.1-6.4c0.8-1.8,1.9-3.3,3.4-4.3
			c1.5-1,3.4-1.6,5.6-1.6c2.3,0,4.2,0.5,5.7,1.6c1.5,1,2.6,2.5,3.4,4.3c0.7,1.8,1.1,3.9,1.1,6.4c0,2.4-0.4,4.6-1.1,6.4
			c-0.7,1.8-1.9,3.3-3.4,4.3c-1.5,1-3.4,1.5-5.7,1.5C78.1,245.2,76.3,244.7,74.7,243.7z M73.4,238.7c0.6,1.6,1.5,2.7,2.6,3.5
			c1.2,0.8,2.6,1.2,4.4,1.2s3.2-0.4,4.4-1.2c1.2-0.8,2-1.9,2.6-3.5c0.6-1.6,0.9-3.5,0.9-5.8c0-2.3-0.3-4.2-0.9-5.8
			c-0.6-1.5-1.5-2.7-2.6-3.5c-1.2-0.8-2.6-1.2-4.4-1.2s-3.2,0.4-4.4,1.2c-1.2,0.8-2,1.9-2.6,3.5c-0.6,1.5-0.9,3.5-0.9,5.8
			C72.5,235.2,72.8,237.2,73.4,238.7z"/>
	</g>
</g>
<g>
	<g>
		<path d="M74.7,659.9c-1.5-1-2.7-2.5-3.4-4.3c-0.7-1.8-1.1-4-1.1-6.5c0-2.4,0.4-4.5,1.1-6.4c0.8-1.8,1.9-3.3,3.4-4.3
			c1.5-1,3.4-1.6,5.6-1.6c2.3,0,4.2,0.5,5.7,1.6c1.5,1,2.6,2.5,3.4,4.3c0.7,1.8,1.1,3.9,1.1,6.4c0,2.4-0.4,4.6-1.1,6.4
			c-0.7,1.8-1.9,3.3-3.4,4.3c-1.5,1-3.4,1.5-5.7,1.5C78.1,661.4,76.3,660.9,74.7,659.9z M73.4,655c0.6,1.6,1.5,2.7,2.6,3.5
			c1.2,0.8,2.6,1.2,4.4,1.2s3.2-0.4,4.4-1.2c1.2-0.8,2-1.9,2.6-3.5c0.6-1.6,0.9-3.5,0.9-5.8c0-2.3-0.3-4.2-0.9-5.8
			c-0.6-1.5-1.5-2.7-2.6-3.5c-1.2-0.8-2.6-1.2-4.4-1.2s-3.2,0.4-4.4,1.2c-1.2,0.8-2,1.9-2.6,3.5c-0.6,1.5-0.9,3.5-0.9,5.8
			C72.5,651.5,72.8,653.4,73.4,655z"/>
	</g>
</g>
<g>
	<g>
		<path d="M38.6,710.6v1.7h-14v-1.7H38.6z"/>
		<path d="M52,716.4c0.5,0.8,1.2,1.4,2.2,1.8c1,0.4,2.2,0.7,3.7,0.7c1.6,0,2.8-0.3,3.8-0.8c1-0.5,1.7-1.3,2.2-2.2
			c0.5-1,0.7-2.1,0.7-3.4s-0.2-2.4-0.7-3.3c-0.5-0.9-1.1-1.6-2-2.1s-2-0.8-3.3-0.8c-1.4,0-2.6,0.3-3.7,0.8c-1.1,0.5-2.1,1.4-3.1,2.5
			h-2l0.7-12.8h2.1L52,707.8c0.8-1,1.8-1.7,2.9-2.2c1.2-0.5,2.5-0.8,4.1-0.8c1.6,0,3.1,0.3,4.3,1c1.2,0.6,2.1,1.6,2.7,2.7
			c0.6,1.2,0.9,2.5,0.9,4.1c0,2.5-0.7,4.4-2.2,5.9c-1.4,1.5-3.7,2.3-6.9,2.3c-2,0-3.6-0.3-4.9-0.9c-1.3-0.6-2.3-1.4-3-2.5
			c-0.7-1.1-1-2.3-1.1-3.8h2.3C51.2,714.7,51.5,715.7,52,716.4z M65.9,696.9v1.9H51.5v-1.9H65.9z"/>
		<path d="M74.7,719.2c-1.5-1-2.7-2.5-3.4-4.3c-0.7-1.8-1.1-4-1.1-6.5c0-2.4,0.4-4.5,1.1-6.4c0.8-1.8,1.9-3.3,3.4-4.3
			c1.5-1,3.4-1.6,5.6-1.6c2.3,0,4.2,0.5,5.7,1.6c1.5,1,2.6,2.5,3.4,4.3c0.7,1.8,1.1,4,1.1,6.4c0,2.5-0.4,4.6-1.1,6.4
			c-0.7,1.8-1.9,3.3-3.4,4.3c-1.5,1-3.4,1.5-5.7,1.5C78.1,720.8,76.3,720.2,74.7,719.2z M73.4,714.3c0.6,1.6,1.5,2.7,2.6,3.5
			c1.2,0.8,2.6,1.2,4.4,1.2s3.2-0.4,4.4-1.2c1.2-0.8,2-1.9,2.6-3.5c0.6-1.6,0.9-3.5,0.9-5.8c0-2.3-0.3-4.2-0.9-5.8
			c-0.6-1.5-1.5-2.7-2.6-3.5c-1.2-0.8-2.6-1.2-4.4-1.2s-3.2,0.4-4.4,1.2c-1.2,0.8-2,1.9-2.6,3.5c-0.6,1.5-0.9,3.5-0.9,5.8
			C72.5,710.8,72.8,712.7,73.4,714.3z"/>
	</g>
</g>
<g>
	<g>
		<path d="M21.3,769.2v1.7h-14v-1.7H21.3z"/>
		<path d="M31.8,776.9h5.4v-19.6h-5.5v-1.9h5c1,0,1.6,0.2,2.1,0.6c0.4,0.4,0.6,1,0.6,1.9v19h5v1.9H31.8V776.9z"/>
		<path d="M51.3,777.8c-1.5-1-2.7-2.5-3.4-4.3c-0.7-1.8-1.1-4-1.1-6.5c0-2.4,0.4-4.5,1.1-6.4c0.8-1.8,1.9-3.3,3.4-4.3
			c1.5-1,3.4-1.6,5.6-1.6c2.3,0,4.2,0.5,5.7,1.6c1.5,1,2.6,2.5,3.4,4.3c0.7,1.8,1.1,4,1.1,6.4c0,2.5-0.4,4.6-1.1,6.4
			c-0.7,1.8-1.9,3.3-3.4,4.3c-1.5,1-3.4,1.5-5.7,1.5C54.7,779.4,52.8,778.8,51.3,777.8z M50,772.9c0.6,1.6,1.5,2.7,2.6,3.5
			c1.2,0.8,2.6,1.2,4.4,1.2s3.2-0.4,4.4-1.2c1.2-0.8,2-1.9,2.6-3.5c0.6-1.6,0.9-3.5,0.9-5.8c0-2.3-0.3-4.2-0.9-5.8
			c-0.6-1.5-1.5-2.7-2.6-3.5c-1.2-0.8-2.6-1.2-4.4-1.2s-3.2,0.4-4.4,1.2c-1.2,0.8-2,1.9-2.6,3.5c-0.6,1.5-0.9,3.5-0.9,5.8
			C49.1,769.4,49.4,771.3,50,772.9z"/>
		<path d="M74.7,777.8c-1.5-1-2.7-2.5-3.4-4.3c-0.7-1.8-1.1-4-1.1-6.5c0-2.4,0.4-4.5,1.1-6.4c0.8-1.8,1.9-3.3,3.4-4.3
			c1.5-1,3.4-1.6,5.6-1.6c2.3,0,4.2,0.5,5.7,1.6c1.5,1,2.6,2.5,3.4,4.3c0.7,1.8,1.1,4,1.1,6.4c0,2.5-0.4,4.6-1.1,6.4
			c-0.7,1.8-1.9,3.3-3.4,4.3c-1.5,1-3.4,1.5-5.7,1.5C78.1,779.4,76.3,778.8,74.7,777.8z M73.4,772.9c0.6,1.6,1.5,2.7,2.6,3.5
			c1.2,0.8,2.6,1.2,4.4,1.2s3.2-0.4,4.4-1.2c1.2-0.8,2-1.9,2.6-3.5c0.6-1.6,0.9-3.5,0.9-5.8c0-2.3-0.3-4.2-0.9-5.8
			c-0.6-1.5-1.5-2.7-2.6-3.5c-1.2-0.8-2.6-1.2-4.4-1.2s-3.2,0.4-4.4,1.2c-1.2,0.8-2,1.9-2.6,3.5c-0.6,1.5-0.9,3.5-0.9,5.8
			C72.5,769.4,72.8,771.3,73.4,772.9z"/>
	</g>
</g>
<g>
	<g>
		<path d="M1190.5,434.4h-2.2v-21.7l-8.6,21.7h-3.1l-8.6-21.7v21.7h-2.2v-23.3h3.9l8.4,21.4l8.5-21.4h3.8V434.4z"/>
		<path d="M1212.6,434.4l-2.5-6.4h-11.8l-2.5,6.4h-2.2l9-23.3h3.2l9,23.3H1212.6z M1199,426.2h10.4l-5.2-13.4L1199,426.2z"/>
		<path d="M1219.2,434.4h-2.6l9.3-12.6l1.3,1.7L1219.2,434.4z M1216.7,411.1h2.6l17.4,23.3h-2.7L1216.7,411.1z M1233.9,411.1h2.5
			l-9.1,12.4l-1.3-1.7L1233.9,411.1z"/>
	</g>
</g>
<g>
	<g>
		<path d="M1190.5,651.2h-2.2v-21.7l-8.6,21.7h-3.1l-8.6-21.7v21.7h-2.2v-23.3h3.9l8.4,21.4l8.5-21.4h3.8V651.2z"/>
		<path d="M1194.9,627.9h12.4v1.8h-12.4V627.9z M1194.9,649.3h12.4v1.8h-12.4V649.3z M1200,628.8h2.2v21.5h-2.2V628.8z"/>
		<path d="M1228.5,627.9h2.2v23.3h-3.5l-12.2-19.2c-0.5-0.9-0.9-1.7-1.2-2.3v21.6h-2.2v-23.3h3.5l12.2,19.2c0.3,0.6,0.8,1.4,1.3,2.4
			V627.9z"/>
	</g>
</g>
<g>
	<g>
		<path d="M78.4,893.1c-1.3-0.8-2.3-1.9-3-3.4c-0.7-1.5-1-3.3-1-5.5c0-3.3,0.8-5.7,2.3-7.5c1.5-1.7,3.8-2.6,6.7-2.6
			c2.9,0,5.1,0.9,6.6,2.6s2.2,4.2,2.2,7.5c0,2.2-0.3,4.1-1,5.6c-0.7,1.5-1.6,2.6-2.9,3.4s-2.9,1.1-4.9,1.1
			C81.4,894.3,79.7,893.9,78.4,893.1z M79.2,902.3c-1.3-0.5-2.3-1.3-3-2.4c-0.7-1-1.1-2.3-1.3-3.8h2.4c0.1,1,0.3,1.8,0.8,2.6
			c0.5,0.7,1.2,1.3,2.1,1.8c1,0.5,2.2,0.7,3.7,0.7c1.7,0,3.1-0.2,4.1-0.6c1-0.4,1.8-1.1,2.3-2c0.5-0.9,0.7-2.1,0.7-3.6v-20.2h2.4
			v20.2c0,1.8-0.3,3.3-0.9,4.5c-0.6,1.2-1.6,2.1-3,2.8c-1.4,0.6-3.2,1-5.6,1C82.1,903.1,80.5,902.8,79.2,902.3z M87.8,891.5
			c1.1-0.5,1.9-1.4,2.5-2.6c0.6-1.2,0.9-2.8,0.9-4.7c0-1.9-0.3-3.5-0.9-4.7c-0.6-1.2-1.4-2.1-2.5-2.6c-1.1-0.5-2.3-0.8-3.8-0.8
			c-1.6,0-2.9,0.3-4,0.8c-1,0.6-1.8,1.4-2.3,2.6s-0.8,2.7-0.8,4.6c0,1.9,0.3,3.4,0.8,4.6c0.5,1.2,1.3,2.1,2.3,2.7
			c1,0.6,2.4,0.9,4,0.9C85.4,892.3,86.7,892.1,87.8,891.5z"/>
		<path d="M102.3,893.9c-1.5-0.9-2.5-2.2-3.3-3.8c-0.7-1.6-1.1-3.5-1.1-5.6c0-2.1,0.4-3.9,1.1-5.5c0.7-1.6,1.8-2.8,3.3-3.7
			c1.5-0.9,3.3-1.4,5.4-1.4c1.8,0,3.4,0.4,4.8,1.2c1.4,0.8,2.4,1.9,3.2,3.4c0.7,1.5,1.1,3.2,1.1,5.2v0.5c0,0.2,0,0.5,0,0.7h-17v-1.9
			h15.7l-1,1.2c0.1-1.9-0.1-3.5-0.7-4.8s-1.3-2.1-2.3-2.7c-1-0.6-2.3-0.8-3.7-0.8c-1.6,0-2.9,0.3-4,0.9c-1.1,0.6-1.9,1.5-2.5,2.8
			c-0.6,1.3-0.9,2.9-0.9,4.9c0,2,0.3,3.7,0.9,5c0.6,1.3,1.4,2.2,2.5,2.9s2.4,0.9,4,0.9c1.4,0,2.5-0.2,3.5-0.6c0.9-0.4,1.7-1,2.2-1.7
			c0.5-0.7,0.9-1.6,1.1-2.7h2.2c-0.2,1.2-0.6,2.3-1.3,3.4c-0.7,1-1.7,1.9-3,2.6c-1.3,0.7-2.9,1-4.9,1
			C105.5,895.3,103.7,894.8,102.3,893.9z"/>
		<path d="M120.9,874.7h2.4v20h-2.4V874.7z M123.5,880.1c0.7-2,1.7-3.6,3-4.6s3-1.5,4.9-1.5c1.6,0,2.9,0.3,3.9,0.8
			c1,0.6,1.8,1.4,2.3,2.5c0.5,1.1,0.8,2.6,0.8,4.3v13H136V882c0-1.4-0.2-2.6-0.6-3.5s-1-1.5-1.7-1.9c-0.8-0.4-1.7-0.6-2.8-0.6
			c-1.7,0-3,0.5-4.1,1.4c-1.1,0.9-1.9,2.3-2.5,4c-0.6,1.8-0.9,3.9-0.9,6.4h-0.8C122.5,884.7,122.8,882.1,123.5,880.1z"/>
	</g>
</g>
<g>
	<g>
		<path d="M193,894.5c-1-0.4-1.8-1.1-2.4-1.9c-0.6-0.9-0.9-1.9-0.9-3.2c0-1.1,0.2-2,0.6-2.8c0.4-0.8,1.1-1.5,2-2
			c0.9-0.5,2.1-0.9,3.4-1.1l5.2-0.9c1.2-0.2,2-0.5,2.5-0.8c0.5-0.4,0.7-0.9,0.7-1.7c0-0.8-0.2-1.5-0.5-2.1c-0.3-0.6-0.9-1.1-1.7-1.5
			c-0.8-0.4-1.9-0.5-3.3-0.5c-2.1,0-3.6,0.5-4.6,1.4c-0.9,0.9-1.5,2.1-1.6,3.6h-2.3c0.1-1.4,0.4-2.6,1.1-3.7c0.7-1,1.6-1.8,2.8-2.4
			c1.2-0.6,2.7-0.9,4.5-0.9c1.8,0,3.2,0.3,4.4,0.8c1.1,0.5,2,1.2,2.5,2.1c0.5,0.9,0.8,2,0.8,3.2v9.3c0,0.7,0,1.6,0.1,2.5
			c0,0.9,0.1,1.9,0.2,2.8h-2.2c-0.1-0.9-0.1-1.8-0.2-2.6c-0.1-0.8-0.1-1.6-0.1-2.3c-0.3,0.9-0.7,1.8-1.3,2.6s-1.4,1.5-2.5,2
			c-1.1,0.5-2.4,0.8-3.9,0.8C195.1,895.2,194,895,193,894.5z M200.9,892.1c1.1-0.8,1.9-1.8,2.5-2.9c0.5-1.2,0.8-2.4,0.8-3.7v-2.2
			c-0.5,0.3-0.9,0.5-1.3,0.7c-0.4,0.2-1,0.3-1.7,0.5l-0.6,0.1l-3.9,0.7c-1.5,0.3-2.6,0.8-3.4,1.4c-0.7,0.7-1.1,1.6-1.1,2.8
			c0,1.3,0.4,2.2,1.2,2.8c0.8,0.6,1.9,1,3.3,1C198.4,893.2,199.8,892.8,200.9,892.1z"/>
		<path d="M211.7,874.7h2.4v4.8v0.6v22.6h-2.4V874.7z M215.3,892.5c-1.5-1.9-2.3-4.5-2.3-7.9c0-3.3,0.8-5.9,2.3-7.8s3.7-2.8,6.5-2.8
			c2,0,3.7,0.4,5,1.3c1.3,0.9,2.3,2.1,3,3.7c0.7,1.6,1,3.5,1,5.6s-0.3,4-1,5.6c-0.7,1.6-1.7,2.8-3,3.7c-1.3,0.9-3,1.3-5,1.3
			C219,895.3,216.8,894.4,215.3,892.5z M225.3,892.4c1-0.6,1.8-1.6,2.3-2.9s0.8-2.9,0.8-4.8c0-1.9-0.3-3.6-0.8-4.8
			c-0.5-1.3-1.3-2.2-2.3-2.9c-1-0.6-2.3-0.9-3.9-0.9c-1.5,0-2.7,0.3-3.8,0.9c-1.1,0.6-1.9,1.5-2.5,2.8c-0.6,1.3-0.9,2.9-0.9,4.9
			s0.3,3.6,0.9,4.9c0.6,1.3,1.5,2.2,2.5,2.9c1.1,0.6,2.4,0.9,3.8,0.9C222.9,893.3,224.2,893,225.3,892.4z"/>
		<path d="M235.3,874.7h2.4v7.1v0.5v12.4h-2.4V874.7z M237.7,880.5c0.6-1.9,1.5-3.4,2.8-4.5c1.3-1,2.9-1.6,4.8-1.6h0.8v2.4l-0.7,0
			c-2.1-0.1-3.7,0.3-4.8,1.3s-1.9,2.2-2.3,3.8c-0.4,1.6-0.6,3.5-0.6,5.7h-0.9C236.8,884.8,237.1,882.4,237.7,880.5z"/>
	</g>
</g>
<g>
	<g>
		<path d="M304.7,866.7h2.4v28h-2.4V866.7z"/>
		<path d="M315.8,894.5c-1.1-0.5-1.8-1.4-2.4-2.5c-0.5-1.1-0.8-2.6-0.8-4.3v-13h2.4v12.6c0,1.5,0.2,2.8,0.6,3.6
			c0.4,0.9,1,1.5,1.8,1.8c0.8,0.3,1.8,0.5,3,0.5c1.6,0,2.9-0.5,4-1.4c1.1-0.9,1.9-2.3,2.4-4.1c0.5-1.8,0.8-3.9,0.8-6.3h0.8
			c0,3.1-0.3,5.7-1,7.7s-1.6,3.6-2.9,4.6s-2.9,1.5-4.8,1.5C318.2,895.3,316.8,895,315.8,894.5z M327.6,887.7v-0.4v-12.6h2.4v20h-2.4
			V887.7z"/>
		<path d="M338.4,893.1c-1.3-0.8-2.3-1.9-3-3.4c-0.7-1.5-1-3.3-1-5.5c0-3.3,0.8-5.7,2.3-7.5c1.5-1.7,3.8-2.6,6.7-2.6
			c2.9,0,5.1,0.9,6.6,2.6c1.5,1.7,2.2,4.2,2.2,7.5c0,2.2-0.3,4.1-1,5.6s-1.6,2.6-2.9,3.4s-2.9,1.1-4.9,1.1
			C341.4,894.3,339.8,893.9,338.4,893.1z M339.2,902.3c-1.3-0.5-2.3-1.3-3-2.4s-1.1-2.3-1.3-3.8h2.4c0.1,1,0.3,1.8,0.8,2.6
			c0.5,0.7,1.2,1.3,2.1,1.8c1,0.5,2.2,0.7,3.7,0.7c1.7,0,3.1-0.2,4.1-0.6s1.8-1.1,2.3-2s0.7-2.1,0.7-3.6v-20.2h2.4v20.2
			c0,1.8-0.3,3.3-0.9,4.5c-0.6,1.2-1.6,2.1-3,2.8c-1.4,0.6-3.2,1-5.6,1C342.1,903.1,340.5,902.8,339.2,902.3z M347.8,891.5
			c1.1-0.5,1.9-1.4,2.5-2.6c0.6-1.2,0.9-2.8,0.9-4.7c0-1.9-0.3-3.5-0.9-4.7c-0.6-1.2-1.4-2.1-2.5-2.6c-1.1-0.5-2.3-0.8-3.8-0.8
			c-1.6,0-2.9,0.3-4,0.8s-1.8,1.4-2.3,2.6c-0.5,1.2-0.8,2.7-0.8,4.6s0.3,3.4,0.8,4.6s1.3,2.1,2.3,2.7s2.4,0.9,4,0.9
			C345.5,892.3,346.7,892.1,347.8,891.5z"/>
	</g>
</g>
<g>
	<g>
		<path d="M422.9,893.9c-1.5-0.9-2.6-2.2-3.3-3.8c-0.7-1.6-1.1-3.5-1.1-5.6c0-2.1,0.4-3.9,1.1-5.5c0.7-1.6,1.8-2.8,3.3-3.7
			s3.3-1.4,5.4-1.4c2.1,0,3.9,0.5,5.4,1.4c1.5,0.9,2.6,2.2,3.3,3.8c0.7,1.6,1.1,3.4,1.1,5.5c0,2.1-0.4,3.9-1.1,5.5
			c-0.7,1.6-1.9,2.9-3.3,3.8c-1.5,0.9-3.3,1.4-5.4,1.4C426.2,895.3,424.4,894.8,422.9,893.9z M421.8,889.5c0.6,1.3,1.4,2.2,2.5,2.9
			c1.1,0.6,2.4,0.9,4,0.9c1.6,0,2.9-0.3,4-0.9c1.1-0.6,1.9-1.6,2.5-2.9c0.6-1.3,0.8-2.9,0.8-4.9c0-1.9-0.3-3.6-0.8-4.8
			c-0.6-1.3-1.4-2.2-2.5-2.8c-1.1-0.6-2.4-0.9-4-0.9c-1.6,0-2.9,0.3-4,0.9c-1.1,0.6-1.9,1.6-2.5,2.8c-0.6,1.3-0.8,2.9-0.8,4.8
			C421,886.6,421.3,888.2,421.8,889.5z"/>
		<path d="M445.1,894.3c-0.5-0.2-0.9-0.6-1.1-1.1c-0.2-0.5-0.3-1.2-0.3-2v-14.6h-3.8v-1.4l4-0.6l0.8-4.2h1.4v4.3h11.3v1.9H446v16.1
			h6.7v2h-5.4C446.3,894.7,445.6,894.5,445.1,894.3z M457.8,894.3c-0.5-0.2-0.9-0.6-1.1-1.1c-0.2-0.5-0.3-1.2-0.3-2v-14.6h-3.8v-1.4
			l3.9-0.3l0.9-4.5h1.4v4.3h6.8v1.9h-6.8v16.1h6.7v2H460C459.1,894.7,458.3,894.5,457.8,894.3z"/>
	</g>
</g>
<g>
	<g>
		<path d="M526.3,893.1c-1.3-0.8-2.3-1.9-3-3.4c-0.7-1.5-1-3.3-1-5.5c0-3.3,0.8-5.7,2.3-7.5c1.5-1.7,3.8-2.6,6.7-2.6
			c2.9,0,5.1,0.9,6.6,2.6s2.2,4.2,2.2,7.5c0,2.2-0.3,4.1-1,5.6c-0.7,1.5-1.6,2.6-2.9,3.4s-2.9,1.1-4.9,1.1
			C529.3,894.3,527.6,893.9,526.3,893.1z M527.1,902.3c-1.3-0.5-2.3-1.3-3-2.4c-0.7-1-1.1-2.3-1.3-3.8h2.4c0.1,1,0.3,1.8,0.8,2.6
			c0.5,0.7,1.2,1.3,2.1,1.8c1,0.5,2.2,0.7,3.7,0.7c1.7,0,3.1-0.2,4.1-0.6c1-0.4,1.8-1.1,2.3-2c0.5-0.9,0.7-2.1,0.7-3.6v-20.2h2.4
			v20.2c0,1.8-0.3,3.3-0.9,4.5c-0.6,1.2-1.6,2.1-3,2.8c-1.4,0.6-3.2,1-5.6,1C530,903.1,528.4,902.8,527.1,902.3z M535.7,891.5
			c1.1-0.5,1.9-1.4,2.5-2.6c0.6-1.2,0.9-2.8,0.9-4.7c0-1.9-0.3-3.5-0.9-4.7c-0.6-1.2-1.4-2.1-2.5-2.6c-1.1-0.5-2.3-0.8-3.8-0.8
			c-1.6,0-2.9,0.3-4,0.8c-1,0.6-1.8,1.4-2.3,2.6s-0.8,2.7-0.8,4.6c0,1.9,0.3,3.4,0.8,4.6c0.5,1.2,1.3,2.1,2.3,2.7
			c1,0.6,2.4,0.9,4,0.9C533.3,892.3,534.6,892.1,535.7,891.5z"/>
		<path d="M550.2,893.9c-1.5-0.9-2.5-2.2-3.3-3.8c-0.7-1.6-1.1-3.5-1.1-5.6c0-2.1,0.4-3.9,1.1-5.5c0.7-1.6,1.8-2.8,3.3-3.7
			c1.5-0.9,3.3-1.4,5.4-1.4c1.8,0,3.4,0.4,4.8,1.2c1.4,0.8,2.4,1.9,3.2,3.4c0.7,1.5,1.1,3.2,1.1,5.2v0.5c0,0.2,0,0.5,0,0.7h-17v-1.9
			h15.7l-1,1.2c0.1-1.9-0.1-3.5-0.7-4.8s-1.3-2.1-2.3-2.7c-1-0.6-2.3-0.8-3.7-0.8c-1.6,0-2.9,0.3-4,0.9c-1.1,0.6-1.9,1.5-2.5,2.8
			c-0.6,1.3-0.9,2.9-0.9,4.9c0,2,0.3,3.7,0.9,5c0.6,1.3,1.4,2.2,2.5,2.9s2.4,0.9,4,0.9c1.4,0,2.5-0.2,3.5-0.6c0.9-0.4,1.7-1,2.2-1.7
			c0.5-0.7,0.9-1.6,1.1-2.7h2.2c-0.2,1.2-0.6,2.3-1.3,3.4c-0.7,1-1.7,1.9-3,2.6c-1.3,0.7-2.9,1-4.9,1
			C553.4,895.3,551.6,894.8,550.2,893.9z"/>
		<path d="M568.8,874.7h2.4v20h-2.4V874.7z M571.4,880.1c0.7-2,1.7-3.6,3-4.6s3-1.5,4.9-1.5c1.6,0,2.9,0.3,3.9,0.8
			c1,0.6,1.8,1.4,2.3,2.5c0.5,1.1,0.8,2.6,0.8,4.3v13h-2.4V882c0-1.4-0.2-2.6-0.6-3.5s-1-1.5-1.7-1.9c-0.8-0.4-1.7-0.6-2.8-0.6
			c-1.7,0-3,0.5-4.1,1.4c-1.1,0.9-1.9,2.3-2.5,4c-0.6,1.8-0.9,3.9-0.9,6.4h-0.8C570.4,884.7,570.7,882.1,571.4,880.1z"/>
	</g>
</g>
<g>
	<g>
		<path d="M641.1,894.5c-1-0.4-1.8-1.1-2.4-1.9c-0.6-0.9-0.9-1.9-0.9-3.2c0-1.1,0.2-2,0.6-2.8c0.4-0.8,1.1-1.5,2-2
			c0.9-0.5,2.1-0.9,3.4-1.1l5.2-0.9c1.2-0.2,2-0.5,2.5-0.8s0.7-0.9,0.7-1.7c0-0.8-0.2-1.5-0.5-2.1c-0.3-0.6-0.9-1.1-1.7-1.5
			c-0.8-0.4-1.9-0.5-3.3-0.5c-2.1,0-3.6,0.5-4.6,1.4c-0.9,0.9-1.5,2.1-1.6,3.6h-2.3c0.1-1.4,0.4-2.6,1.1-3.7c0.7-1,1.6-1.8,2.8-2.4
			c1.2-0.6,2.7-0.9,4.5-0.9c1.8,0,3.2,0.3,4.4,0.8c1.1,0.5,2,1.2,2.5,2.1c0.5,0.9,0.8,2,0.8,3.2v9.3c0,0.7,0,1.6,0.1,2.5
			s0.1,1.9,0.2,2.8h-2.2c-0.1-0.9-0.1-1.8-0.2-2.6c-0.1-0.8-0.1-1.6-0.1-2.3c-0.3,0.9-0.7,1.8-1.3,2.6c-0.6,0.8-1.4,1.5-2.5,2
			c-1.1,0.5-2.4,0.8-3.9,0.8C643.2,895.2,642.1,895,641.1,894.5z M649,892.1c1.1-0.8,1.9-1.8,2.5-2.9c0.5-1.2,0.8-2.4,0.8-3.7v-2.2
			c-0.5,0.3-0.9,0.5-1.3,0.7c-0.4,0.2-1,0.3-1.7,0.5l-0.6,0.1l-3.9,0.7c-1.5,0.3-2.6,0.8-3.4,1.4c-0.7,0.7-1.1,1.6-1.1,2.8
			c0,1.3,0.4,2.2,1.2,2.8c0.8,0.6,1.9,1,3.3,1C646.5,893.2,647.9,892.8,649,892.1z"/>
		<path d="M659.8,874.7h2.4v4.8v0.6v22.6h-2.4V874.7z M663.4,892.5c-1.5-1.9-2.3-4.5-2.3-7.9c0-3.3,0.8-5.9,2.3-7.8s3.7-2.8,6.5-2.8
			c2,0,3.7,0.4,5,1.3s2.3,2.1,3,3.7c0.7,1.6,1,3.5,1,5.6s-0.3,4-1,5.6s-1.7,2.8-3,3.7c-1.3,0.9-3,1.3-5,1.3
			C667.1,895.3,664.9,894.4,663.4,892.5z M673.3,892.4c1-0.6,1.8-1.6,2.3-2.9s0.8-2.9,0.8-4.8c0-1.9-0.3-3.6-0.8-4.8
			c-0.5-1.3-1.3-2.2-2.3-2.9c-1-0.6-2.3-0.9-3.9-0.9c-1.5,0-2.7,0.3-3.8,0.9c-1.1,0.6-1.9,1.5-2.5,2.8c-0.6,1.3-0.9,2.9-0.9,4.9
			s0.3,3.6,0.9,4.9c0.6,1.3,1.5,2.2,2.5,2.9s2.4,0.9,3.8,0.9C671,893.3,672.3,893,673.3,892.4z"/>
		<path d="M683.4,874.7h2.4v7.1v0.5v12.4h-2.4V874.7z M685.8,880.5c0.6-1.9,1.5-3.4,2.8-4.5s2.9-1.6,4.8-1.6h0.8v2.4l-0.7,0
			c-2.1-0.1-3.7,0.3-4.8,1.3s-1.9,2.2-2.3,3.8c-0.4,1.6-0.6,3.5-0.6,5.7h-0.9C684.9,884.8,685.2,882.4,685.8,880.5z"/>
	</g>
</g>
<g>
	<g>
		<path d="M753,866.7h2.4v28H753V866.7z"/>
		<path d="M764.1,894.5c-1.1-0.5-1.8-1.4-2.4-2.5s-0.8-2.6-0.8-4.3v-13h2.4v12.6c0,1.5,0.2,2.8,0.6,3.6c0.4,0.9,1,1.5,1.8,1.8
			c0.8,0.3,1.8,0.5,3,0.5c1.6,0,2.9-0.5,4-1.4s1.9-2.3,2.4-4.1c0.5-1.8,0.8-3.9,0.8-6.3h0.8c0,3.1-0.3,5.7-1,7.7
			c-0.6,2-1.6,3.6-2.9,4.6c-1.3,1-2.9,1.5-4.8,1.5C766.5,895.3,765.1,895,764.1,894.5z M775.9,887.7v-0.4v-12.6h2.4v20h-2.4V887.7z"
			/>
		<path d="M786.7,893.1c-1.3-0.8-2.3-1.9-3-3.4c-0.7-1.5-1-3.3-1-5.5c0-3.3,0.8-5.7,2.3-7.5c1.5-1.7,3.8-2.6,6.7-2.6
			c2.9,0,5.1,0.9,6.6,2.6c1.5,1.7,2.2,4.2,2.2,7.5c0,2.2-0.3,4.1-1,5.6c-0.7,1.5-1.6,2.6-2.9,3.4c-1.3,0.8-2.9,1.1-4.9,1.1
			C789.8,894.3,788.1,893.9,786.7,893.1z M787.6,902.3c-1.3-0.5-2.3-1.3-3-2.4c-0.7-1-1.1-2.3-1.3-3.8h2.4c0.1,1,0.3,1.8,0.8,2.6
			c0.5,0.7,1.2,1.3,2.1,1.8s2.2,0.7,3.7,0.7c1.7,0,3.1-0.2,4.1-0.6s1.8-1.1,2.3-2c0.5-0.9,0.7-2.1,0.7-3.6v-20.2h2.4v20.2
			c0,1.8-0.3,3.3-0.9,4.5c-0.6,1.2-1.6,2.1-3,2.8c-1.4,0.6-3.2,1-5.6,1C790.5,903.1,788.9,902.8,787.6,902.3z M796.1,891.5
			c1.1-0.5,1.9-1.4,2.5-2.6c0.6-1.2,0.9-2.8,0.9-4.7c0-1.9-0.3-3.5-0.9-4.7c-0.6-1.2-1.4-2.1-2.5-2.6c-1.1-0.5-2.3-0.8-3.8-0.8
			c-1.6,0-2.9,0.3-4,0.8s-1.8,1.4-2.3,2.6c-0.5,1.2-0.8,2.7-0.8,4.6s0.3,3.4,0.8,4.6c0.5,1.2,1.3,2.1,2.3,2.7s2.4,0.9,4,0.9
			C793.8,892.3,795,892.1,796.1,891.5z"/>
	</g>
</g>
<g>
	<g>
		<path d="M975.9,893.1c-1.3-0.8-2.3-1.9-3-3.4c-0.7-1.5-1-3.3-1-5.5c0-3.3,0.8-5.7,2.3-7.5s3.8-2.6,6.7-2.6c2.9,0,5.1,0.9,6.6,2.6
			c1.5,1.7,2.2,4.2,2.2,7.5c0,2.2-0.3,4.1-1,5.6c-0.7,1.5-1.6,2.6-2.9,3.4c-1.3,0.8-2.9,1.1-4.9,1.1
			C979,894.3,977.3,893.9,975.9,893.1z M976.8,902.3c-1.3-0.5-2.3-1.3-3-2.4c-0.7-1-1.1-2.3-1.3-3.8h2.4c0.1,1,0.3,1.8,0.8,2.6
			c0.5,0.7,1.2,1.3,2.1,1.8c1,0.5,2.2,0.7,3.7,0.7c1.7,0,3.1-0.2,4.1-0.6c1-0.4,1.8-1.1,2.3-2c0.5-0.9,0.7-2.1,0.7-3.6v-20.2h2.4
			v20.2c0,1.8-0.3,3.3-0.9,4.5c-0.6,1.2-1.6,2.1-3,2.8c-1.4,0.6-3.2,1-5.6,1C979.7,903.1,978.1,902.8,976.8,902.3z M985.3,891.5
			c1.1-0.5,1.9-1.4,2.5-2.6c0.6-1.2,0.9-2.8,0.9-4.7c0-1.9-0.3-3.5-0.9-4.7c-0.6-1.2-1.4-2.1-2.5-2.6c-1.1-0.5-2.3-0.8-3.8-0.8
			c-1.6,0-2.9,0.3-4,0.8c-1,0.6-1.8,1.4-2.3,2.6c-0.5,1.2-0.8,2.7-0.8,4.6c0,1.9,0.3,3.4,0.8,4.6c0.5,1.2,1.3,2.1,2.3,2.7
			c1,0.6,2.4,0.9,4,0.9C983,892.3,984.3,892.1,985.3,891.5z"/>
		<path d="M999.8,893.9c-1.5-0.9-2.5-2.2-3.3-3.8c-0.7-1.6-1.1-3.5-1.1-5.6c0-2.1,0.4-3.9,1.1-5.5s1.8-2.8,3.3-3.7
			c1.5-0.9,3.3-1.4,5.4-1.4c1.8,0,3.4,0.4,4.8,1.2c1.4,0.8,2.4,1.9,3.2,3.4c0.7,1.5,1.1,3.2,1.1,5.2v0.5c0,0.2,0,0.5,0,0.7h-17v-1.9
			h15.7l-1,1.2c0.1-1.9-0.1-3.5-0.7-4.8c-0.5-1.2-1.3-2.1-2.3-2.7c-1-0.6-2.3-0.8-3.7-0.8c-1.6,0-2.9,0.3-4,0.9
			c-1.1,0.6-1.9,1.5-2.5,2.8c-0.6,1.3-0.9,2.9-0.9,4.9c0,2,0.3,3.7,0.9,5c0.6,1.3,1.4,2.2,2.5,2.9s2.4,0.9,4,0.9
			c1.4,0,2.5-0.2,3.5-0.6c0.9-0.4,1.7-1,2.2-1.7c0.5-0.7,0.9-1.6,1.1-2.7h2.2c-0.2,1.2-0.6,2.3-1.3,3.4c-0.7,1-1.7,1.9-3,2.6
			s-2.9,1-4.9,1C1003.1,895.3,1001.3,894.8,999.8,893.9z"/>
		<path d="M1018.5,874.7h2.4v20h-2.4V874.7z M1021.1,880.1c0.7-2,1.7-3.6,3-4.6c1.3-1,3-1.5,4.9-1.5c1.6,0,2.9,0.3,3.9,0.8
			c1,0.6,1.8,1.4,2.3,2.5c0.5,1.1,0.8,2.6,0.8,4.3v13h-2.4V882c0-1.4-0.2-2.6-0.6-3.5c-0.4-0.9-1-1.5-1.7-1.9
			c-0.8-0.4-1.7-0.6-2.8-0.6c-1.7,0-3,0.5-4.1,1.4c-1.1,0.9-1.9,2.3-2.5,4c-0.6,1.8-0.9,3.9-0.9,6.4h-0.8
			C1020,884.7,1020.4,882.1,1021.1,880.1z"/>
	</g>
</g>
<g>
	<g>
		<path d="M1090.8,894.5c-1-0.4-1.8-1.1-2.4-1.9c-0.6-0.9-0.9-1.9-0.9-3.2c0-1.1,0.2-2,0.6-2.8c0.4-0.8,1.1-1.5,2-2
			c0.9-0.5,2.1-0.9,3.4-1.1l5.2-0.9c1.2-0.2,2-0.5,2.5-0.8c0.5-0.4,0.7-0.9,0.7-1.7c0-0.8-0.2-1.5-0.5-2.1c-0.3-0.6-0.9-1.1-1.7-1.5
			c-0.8-0.4-1.9-0.5-3.3-0.5c-2.1,0-3.6,0.5-4.6,1.4c-0.9,0.9-1.5,2.1-1.6,3.6h-2.3c0.1-1.4,0.4-2.6,1.1-3.7s1.6-1.8,2.8-2.4
			c1.2-0.6,2.7-0.9,4.5-0.9c1.8,0,3.2,0.3,4.4,0.8s2,1.2,2.5,2.1c0.5,0.9,0.8,2,0.8,3.2v9.3c0,0.7,0,1.6,0.1,2.5s0.1,1.9,0.2,2.8
			h-2.2c-0.1-0.9-0.1-1.8-0.2-2.6c-0.1-0.8-0.1-1.6-0.1-2.3c-0.3,0.9-0.7,1.8-1.3,2.6c-0.6,0.8-1.4,1.5-2.5,2
			c-1.1,0.5-2.4,0.8-3.9,0.8C1092.9,895.2,1091.8,895,1090.8,894.5z M1098.6,892.1c1.1-0.8,1.9-1.8,2.5-2.9c0.5-1.2,0.8-2.4,0.8-3.7
			v-2.2c-0.5,0.3-0.9,0.5-1.3,0.7c-0.4,0.2-1,0.3-1.7,0.5l-0.6,0.1l-3.9,0.7c-1.5,0.3-2.6,0.8-3.4,1.4c-0.7,0.7-1.1,1.6-1.1,2.8
			c0,1.3,0.4,2.2,1.2,2.8c0.8,0.6,1.9,1,3.3,1C1096.2,893.2,1097.5,892.8,1098.6,892.1z"/>
		<path d="M1109.5,874.7h2.4v4.8v0.6v22.6h-2.4V874.7z M1113.1,892.5c-1.5-1.9-2.3-4.5-2.3-7.9c0-3.3,0.8-5.9,2.3-7.8
			c1.5-1.9,3.7-2.8,6.5-2.8c2,0,3.7,0.4,5,1.3c1.3,0.9,2.3,2.1,3,3.7c0.7,1.6,1,3.5,1,5.6s-0.3,4-1,5.6c-0.7,1.6-1.7,2.8-3,3.7
			c-1.3,0.9-3,1.3-5,1.3C1116.8,895.3,1114.6,894.4,1113.1,892.5z M1123,892.4c1-0.6,1.8-1.6,2.3-2.9c0.5-1.3,0.8-2.9,0.8-4.8
			c0-1.9-0.3-3.6-0.8-4.8c-0.5-1.3-1.3-2.2-2.3-2.9c-1-0.6-2.3-0.9-3.9-0.9c-1.5,0-2.7,0.3-3.8,0.9c-1.1,0.6-1.9,1.5-2.5,2.8
			c-0.6,1.3-0.9,2.9-0.9,4.9s0.3,3.6,0.9,4.9c0.6,1.3,1.5,2.2,2.5,2.9c1.1,0.6,2.4,0.9,3.8,0.9C1120.7,893.3,1122,893,1123,892.4z"
			/>
		<path d="M1133.1,874.7h2.4v7.1v0.5v12.4h-2.4V874.7z M1135.5,880.5c0.6-1.9,1.5-3.4,2.8-4.5s2.9-1.6,4.8-1.6h0.8v2.4l-0.7,0
			c-2.1-0.1-3.7,0.3-4.8,1.3s-1.9,2.2-2.3,3.8c-0.4,1.6-0.6,3.5-0.6,5.7h-0.9C1134.6,884.8,1134.9,882.4,1135.5,880.5z"/>
	</g>
</g>
<g>
	<g>
		<path d="M1202.7,866.7h2.4v28h-2.4V866.7z"/>
		<path d="M1213.8,894.5c-1.1-0.5-1.8-1.4-2.4-2.5c-0.5-1.1-0.8-2.6-0.8-4.3v-13h2.4v12.6c0,1.5,0.2,2.8,0.6,3.6
			c0.4,0.9,1,1.5,1.8,1.8c0.8,0.3,1.8,0.5,3,0.5c1.6,0,2.9-0.5,4-1.4c1.1-0.9,1.9-2.3,2.4-4.1c0.5-1.8,0.8-3.9,0.8-6.3h0.8
			c0,3.1-0.3,5.7-1,7.7c-0.6,2-1.6,3.6-2.9,4.6c-1.3,1-2.9,1.5-4.8,1.5C1216.1,895.3,1214.8,895,1213.8,894.5z M1225.5,887.7v-0.4
			v-12.6h2.4v20h-2.4V887.7z"/>
		<path d="M1236.4,893.1c-1.3-0.8-2.3-1.9-3-3.4c-0.7-1.5-1-3.3-1-5.5c0-3.3,0.8-5.7,2.3-7.5c1.5-1.7,3.8-2.6,6.7-2.6
			c2.9,0,5.1,0.9,6.6,2.6c1.5,1.7,2.2,4.2,2.2,7.5c0,2.2-0.3,4.1-1,5.6c-0.7,1.5-1.6,2.6-2.9,3.4c-1.3,0.8-2.9,1.1-4.9,1.1
			C1239.4,894.3,1237.8,893.9,1236.4,893.1z M1237.2,902.3c-1.3-0.5-2.3-1.3-3-2.4c-0.7-1-1.1-2.3-1.3-3.8h2.4
			c0.1,1,0.3,1.8,0.8,2.6c0.5,0.7,1.2,1.3,2.1,1.8c1,0.5,2.2,0.7,3.7,0.7c1.7,0,3.1-0.2,4.1-0.6s1.8-1.1,2.3-2
			c0.5-0.9,0.7-2.1,0.7-3.6v-20.2h2.4v20.2c0,1.8-0.3,3.3-0.9,4.5c-0.6,1.2-1.6,2.1-3,2.8c-1.4,0.6-3.2,1-5.6,1
			C1240.1,903.1,1238.5,902.8,1237.2,902.3z M1245.8,891.5c1.1-0.5,1.9-1.4,2.5-2.6c0.6-1.2,0.9-2.8,0.9-4.7c0-1.9-0.3-3.5-0.9-4.7
			c-0.6-1.2-1.4-2.1-2.5-2.6c-1.1-0.5-2.3-0.8-3.8-0.8c-1.6,0-2.9,0.3-4,0.8s-1.8,1.4-2.3,2.6c-0.5,1.2-0.8,2.7-0.8,4.6
			s0.3,3.4,0.8,4.6c0.5,1.2,1.3,2.1,2.3,2.7s2.4,0.9,4,0.9C1243.5,892.3,1244.7,892.1,1245.8,891.5z"/>
	</g>
</g>
<g>
	<g>
		<path d="M870.3,893.9c-1.5-0.9-2.6-2.2-3.3-3.8c-0.7-1.6-1.1-3.5-1.1-5.6c0-2.1,0.4-3.9,1.1-5.5c0.7-1.6,1.8-2.8,3.3-3.7
			c1.5-0.9,3.3-1.4,5.4-1.4c2.1,0,3.9,0.5,5.4,1.4c1.5,0.9,2.6,2.2,3.3,3.8c0.7,1.6,1.1,3.4,1.1,5.5c0,2.1-0.4,3.9-1.1,5.5
			c-0.7,1.6-1.9,2.9-3.3,3.8c-1.5,0.9-3.3,1.4-5.4,1.4C873.5,895.3,871.8,894.8,870.3,893.9z M869.2,889.5c0.6,1.3,1.4,2.2,2.5,2.9
			c1.1,0.6,2.4,0.9,4,0.9c1.6,0,2.9-0.3,4-0.9c1.1-0.6,1.9-1.6,2.5-2.9c0.6-1.3,0.8-2.9,0.8-4.9c0-1.9-0.3-3.6-0.8-4.8
			c-0.6-1.3-1.4-2.2-2.5-2.8c-1.1-0.6-2.4-0.9-4-0.9c-1.6,0-2.9,0.3-4,0.9c-1.1,0.6-1.9,1.6-2.5,2.8c-0.6,1.3-0.8,2.9-0.8,4.8
			C868.3,886.6,868.6,888.2,869.2,889.5z"/>
		<path d="M892.4,894.3c-0.5-0.2-0.9-0.6-1.1-1.1c-0.2-0.5-0.3-1.2-0.3-2v-14.6h-3.8v-1.4l4-0.6l0.8-4.2h1.4v4.3h11.3v1.9h-11.3
			v16.1h6.7v2h-5.4C893.7,894.7,892.9,894.5,892.4,894.3z M905.2,894.3c-0.5-0.2-0.9-0.6-1.1-1.1c-0.2-0.5-0.3-1.2-0.3-2v-14.6h-3.8
			v-1.4l3.9-0.3l0.9-4.5h1.4v4.3h6.8v1.9h-6.8v16.1h6.7v2h-5.4C906.4,894.7,905.7,894.5,905.2,894.3z"/>
	</g>
</g>
<g>
	<g>
		<path d="M91.6,93.5l-2.9-7.6H73.9L71,93.5h-3.8l11.4-29.9h5.5l11.3,29.9H91.6z M75,82.8h12.6l-6.3-16.6L75,82.8z"/>
		<path d="M99.3,62h3.6v31.5h-3.6V62z"/>
		<path d="M112.8,92.9c-0.8-0.4-1.3-0.9-1.6-1.7c-0.3-0.7-0.5-1.8-0.5-3V73.8h-4.3v-2l4.6-1.1l1.4-4.7h1.9v5h7.4v2.8h-7.4v16.7h7.1
			v2.9H116C114.6,93.5,113.5,93.3,112.8,92.9z"/>
		<path d="M129.5,92.7c-1.7-1-2.9-2.5-3.7-4.3s-1.2-3.9-1.2-6.2c0-2.3,0.4-4.3,1.3-6.1c0.8-1.8,2.1-3.2,3.8-4.3
			c1.7-1,3.7-1.6,6.1-1.6c2.2,0,4.1,0.5,5.7,1.4c1.6,0.9,2.8,2.3,3.6,4s1.2,3.6,1.2,5.8v0.6c0,0.2,0,0.6-0.1,0.9h-18.9v-2.7h17
			l-1.6,1.6c0.1-2.1-0.1-3.8-0.6-5.1c-0.5-1.3-1.3-2.3-2.4-2.9c-1.1-0.6-2.4-0.9-4-0.9c-1.6,0-3,0.3-4.2,0.9c-1.1,0.6-2,1.6-2.6,3
			c-0.6,1.4-0.9,3.1-0.9,5.3c0,2.2,0.3,4,0.9,5.4c0.6,1.4,1.5,2.4,2.7,3c1.1,0.6,2.5,0.9,4.1,0.9c1.4,0,2.6-0.2,3.6-0.6
			c1-0.4,1.7-1,2.3-1.7c0.6-0.7,1-1.6,1.2-2.6h3.3c-0.2,1.3-0.6,2.5-1.4,3.7c-0.8,1.2-1.9,2.1-3.4,2.9c-1.5,0.7-3.4,1.1-5.8,1.1
			C133.3,94.2,131.2,93.7,129.5,92.7z"/>
		<path d="M149.8,71h19.6v2.7h-19.6V71z M149.8,90.7l16.1-18l3.4,0.9l-16.5,18.5L149.8,90.7z M149.8,90.7h19.8v2.7h-19.8V90.7z"/>
		<path d="M173.7,71h19.6v2.7h-19.6V71z M173.7,90.7l16.1-18l3.4,0.9l-16.5,18.5L173.7,90.7z M173.7,90.7h19.8v2.7h-19.8V90.7z"/>
		<path d="M200.8,93.3c-1.1-0.5-2-1.2-2.6-2.2c-0.6-1-0.9-2.2-0.9-3.6c0-1.2,0.2-2.3,0.7-3.2c0.5-0.9,1.2-1.7,2.2-2.2
			c1-0.6,2.3-1,3.9-1.3l5.7-0.9c1.2-0.2,2.1-0.5,2.6-0.9c0.5-0.4,0.8-1,0.8-1.8c0-0.8-0.2-1.6-0.5-2.1c-0.3-0.6-0.9-1-1.7-1.4
			c-0.8-0.3-1.9-0.5-3.3-0.5c-2.1,0-3.6,0.4-4.6,1.3c-1,0.9-1.5,2.1-1.6,3.7h-3.6c0.1-1.6,0.5-3,1.2-4.1c0.8-1.2,1.9-2.1,3.3-2.7
			c1.5-0.6,3.2-1,5.2-1c2,0,3.6,0.3,5,0.9c1.3,0.6,2.3,1.4,3,2.4c0.6,1,0.9,2.2,0.9,3.6v10.8c0,0.8,0,1.7,0.1,2.6s0.1,1.9,0.2,2.9
			h-3.2c-0.1-0.9-0.2-1.8-0.2-2.7c0-0.9-0.1-1.7-0.1-2.5c-0.3,1-0.8,2-1.5,2.8c-0.7,0.9-1.6,1.6-2.8,2.2c-1.2,0.6-2.5,0.9-4.2,0.9
			C203.2,94.1,201.9,93.8,200.8,93.3z M209.6,90.1c1.2-0.8,2-1.8,2.6-3.1c0.6-1.3,0.9-2.7,0.9-4.1v-1.9c-0.5,0.3-1,0.6-1.5,0.8
			c-0.5,0.2-1.2,0.4-1.9,0.6l-0.6,0.1l-3.7,0.8c-1.6,0.3-2.7,0.8-3.4,1.5c-0.7,0.7-1.1,1.6-1.1,2.7c0,1.2,0.4,2.2,1.2,2.8
			c0.8,0.7,1.9,1,3.2,1C207,91.2,208.5,90.8,209.6,90.1z"/>
		<path d="M231.5,63.6h16.4v3h-16.4V63.6z M231.5,90.5h16.4v3h-16.4V90.5z M237.9,65h3.7v27h-3.7V65z"/>
		<path d="M269.7,73.4c1.7,2.1,2.5,5,2.5,8.8c0,2.5-0.4,4.6-1.1,6.4c-0.7,1.8-1.8,3.2-3.3,4.1c-1.5,1-3.3,1.5-5.4,1.5
			c-2.3,0-4.2-0.5-5.8-1.5c-1.5-1-2.7-2.4-3.4-4.2c-0.8-1.8-1.1-3.9-1.1-6.2c0-2.4,0.4-4.5,1.1-6.3c0.7-1.8,1.9-3.2,3.4-4.2
			c1.5-1,3.4-1.5,5.8-1.5C265.5,70.3,268,71.3,269.7,73.4z M258.8,74.2c-1.1,0.7-1.9,1.7-2.4,3c-0.5,1.3-0.8,3-0.8,5.1
			c0,2,0.3,3.7,0.8,5c0.5,1.3,1.3,2.3,2.4,3c1.1,0.7,2.5,1,4.2,1c1.6,0,3-0.3,4.2-1c1.2-0.6,2-1.6,2.7-3c0.6-1.3,0.9-3,0.9-5.1
			s-0.3-3.8-0.9-5.1c-0.6-1.4-1.5-2.3-2.7-3c-1.2-0.6-2.5-0.9-4.2-0.9C261.3,73.2,259.9,73.5,258.8,74.2z M274.4,93.5h-3.6v-5.4
			v-0.6V62h3.6V93.5z"/>
		<path d="M280.9,71h3.6V78l0,0.7v14.7h-3.6V71z M284.2,77.7c0.6-2.2,1.7-3.9,3.1-5.2c1.4-1.3,3.2-1.9,5.5-1.9h0.8v3.6h-1
			c-2.1-0.1-3.8,0.4-5,1.3c-1.2,0.9-2,2.2-2.4,3.8c-0.4,1.6-0.7,3.6-0.7,5.9h-1.3C283.2,82.4,283.5,79.9,284.2,77.7z"/>
		<path d="M301.1,92.7c-1.7-1-3-2.5-3.8-4.3c-0.9-1.8-1.3-3.9-1.3-6.2c0-2.3,0.4-4.3,1.3-6.1s2.1-3.2,3.8-4.3c1.7-1,3.8-1.6,6.2-1.6
			c2.4,0,4.5,0.5,6.2,1.6s3,2.5,3.8,4.3c0.8,1.8,1.3,3.8,1.3,6.1c0,2.3-0.4,4.4-1.3,6.2c-0.8,1.8-2.1,3.2-3.8,4.3s-3.8,1.6-6.2,1.6
			C304.9,94.2,302.8,93.7,301.1,92.7z M300.5,87.4c0.6,1.4,1.4,2.3,2.5,3s2.6,0.9,4.3,0.9c1.7,0,3.1-0.3,4.3-0.9s2-1.6,2.5-3
			c0.6-1.4,0.9-3.1,0.9-5.1c0-2.1-0.3-3.8-0.9-5.2c-0.6-1.3-1.4-2.3-2.5-2.9s-2.5-0.9-4.3-0.9c-1.7,0-3.2,0.3-4.3,0.9
			s-2,1.6-2.5,2.9c-0.6,1.3-0.9,3.1-0.9,5.2C299.6,84.3,299.9,86,300.5,87.4z"/>
		<path d="M323.4,71h3.6v22.5h-3.6V71z M338.7,75.8c-0.4-0.9-1-1.6-1.7-2c-0.8-0.4-1.7-0.6-2.9-0.6c-1.6,0-2.9,0.4-4,1.3
			c-1.1,0.9-1.8,2.1-2.3,3.8s-0.7,3.9-0.7,6.5h-1.2V84c0.1-2.8,0.4-5.3,1.1-7.3c0.6-2,1.6-3.6,3-4.7c1.3-1.1,3.1-1.7,5.3-1.7
			c1.7,0,3.1,0.3,4.3,1c1.1,0.7,2,1.6,2.5,2.9c0.6,1.3,0.8,2.9,0.8,4.8v14.5h-3.6V79.4C339.2,77.9,339,76.7,338.7,75.8z M354.4,75.8
			c-0.4-0.9-1-1.6-1.7-2c-0.8-0.4-1.7-0.6-2.8-0.6c-1.6,0-3,0.4-4,1.3c-1.1,0.9-1.8,2.1-2.3,3.8s-0.7,3.9-0.7,6.5h-1.3
			c0-3,0.3-5.6,0.9-7.8c0.6-2.2,1.6-3.8,3-5c1.4-1.2,3.2-1.8,5.6-1.8c1.7,0,3.1,0.3,4.3,1c1.1,0.7,2,1.6,2.5,2.9
			c0.6,1.3,0.8,2.9,0.8,4.8v14.5H355V79.4C355,77.9,354.8,76.7,354.4,75.8z"/>
		<path d="M367.9,92.7c-1.7-1-2.9-2.5-3.7-4.3s-1.2-3.9-1.2-6.2c0-2.3,0.4-4.3,1.3-6.1c0.8-1.8,2.1-3.2,3.8-4.3
			c1.7-1,3.7-1.6,6.1-1.6c2.2,0,4.1,0.5,5.7,1.4c1.6,0.9,2.8,2.3,3.6,4s1.2,3.6,1.2,5.8v0.6c0,0.2,0,0.6-0.1,0.9h-18.9v-2.7h17
			l-1.6,1.6c0.1-2.1-0.1-3.8-0.6-5.1c-0.5-1.3-1.3-2.3-2.4-2.9c-1.1-0.6-2.4-0.9-4-0.9c-1.6,0-3,0.3-4.2,0.9c-1.1,0.6-2,1.6-2.6,3
			c-0.6,1.4-0.9,3.1-0.9,5.3c0,2.2,0.3,4,0.9,5.4c0.6,1.4,1.5,2.4,2.7,3c1.1,0.6,2.5,0.9,4.1,0.9c1.4,0,2.6-0.2,3.6-0.6
			c1-0.4,1.7-1,2.3-1.7c0.6-0.7,1-1.6,1.2-2.6h3.3c-0.2,1.3-0.6,2.5-1.4,3.7c-0.8,1.2-1.9,2.1-3.4,2.9c-1.5,0.7-3.4,1.1-5.8,1.1
			C371.6,94.2,369.5,93.7,367.9,92.7z"/>
		<path d="M392.7,92.9c-0.8-0.4-1.3-0.9-1.6-1.7c-0.3-0.7-0.5-1.8-0.5-3V73.8h-4.3v-2l4.6-1.1l1.4-4.7h1.9v5h7.4v2.8h-7.4v16.7h7.1
			v2.9h-5.3C394.5,93.5,393.4,93.3,392.7,92.9z"/>
		<path d="M406.2,71h3.6V78l0,0.7v14.7h-3.6V71z M409.5,77.7c0.6-2.2,1.7-3.9,3.1-5.2c1.4-1.3,3.2-1.9,5.5-1.9h0.8v3.6h-1
			c-2.1-0.1-3.8,0.4-5,1.3c-1.2,0.9-2,2.2-2.4,3.8c-0.4,1.6-0.7,3.6-0.7,5.9h-1.3C408.5,82.4,408.8,79.9,409.5,77.7z"/>
		<path d="M422.1,63.6h4.6v3.7h-4.6V63.6z M422.6,71h3.6v22.5h-3.6V71z"/>
		<path d="M432,76c0.9-1.8,2.2-3.2,3.8-4.2c1.7-1,3.7-1.5,6.1-1.5c2.2,0,4,0.4,5.6,1.1c1.5,0.8,2.7,1.8,3.5,3.2
			c0.8,1.3,1.3,2.9,1.4,4.7h-3.4c-0.2-1.3-0.6-2.3-1.1-3.2c-0.6-0.9-1.3-1.6-2.3-2.1c-1-0.5-2.2-0.7-3.5-0.7c-1.7,0-3,0.3-4.2,0.9
			c-1.1,0.6-2,1.6-2.6,2.9c-0.6,1.3-0.9,3.1-0.9,5.2c0,2.1,0.3,3.9,0.9,5.2c0.6,1.3,1.5,2.3,2.6,2.9c1.1,0.6,2.5,0.9,4.1,0.9
			c2.2,0,3.9-0.6,5.2-1.7c1.2-1.1,1.9-2.7,2.2-4.7h3.4c-0.1,1.8-0.6,3.4-1.4,4.7s-2.1,2.5-3.7,3.3c-1.6,0.8-3.5,1.2-5.7,1.2
			c-2.4,0-4.4-0.5-6.1-1.5c-1.7-1-3-2.4-3.8-4.2s-1.3-3.9-1.3-6.2S431.2,77.8,432,76z"/>
		<path d="M459.3,93.3c-1.1-0.5-2-1.2-2.6-2.2c-0.6-1-0.9-2.2-0.9-3.6c0-1.2,0.2-2.3,0.7-3.2c0.5-0.9,1.2-1.7,2.2-2.2
			c1-0.6,2.3-1,3.9-1.3l5.7-0.9c1.2-0.2,2.1-0.5,2.6-0.9c0.5-0.4,0.8-1,0.8-1.8c0-0.8-0.2-1.6-0.5-2.1c-0.3-0.6-0.9-1-1.7-1.4
			c-0.8-0.3-1.9-0.5-3.3-0.5c-2.1,0-3.6,0.4-4.6,1.3c-1,0.9-1.5,2.1-1.6,3.7h-3.6c0.1-1.6,0.5-3,1.2-4.1c0.8-1.2,1.9-2.1,3.3-2.7
			c1.5-0.6,3.2-1,5.2-1c2,0,3.6,0.3,5,0.9c1.3,0.6,2.3,1.4,3,2.4c0.6,1,0.9,2.2,0.9,3.6v10.8c0,0.8,0,1.7,0.1,2.6s0.1,1.9,0.2,2.9
			h-3.2c-0.1-0.9-0.2-1.8-0.2-2.7c0-0.9-0.1-1.7-0.1-2.5c-0.3,1-0.8,2-1.5,2.8c-0.7,0.9-1.6,1.6-2.8,2.2c-1.2,0.6-2.5,0.9-4.2,0.9
			C461.7,94.1,460.4,93.8,459.3,93.3z M468.2,90.1c1.2-0.8,2-1.8,2.6-3.1c0.6-1.3,0.9-2.7,0.9-4.1v-1.9c-0.5,0.3-1,0.6-1.5,0.8
			c-0.5,0.2-1.2,0.4-1.9,0.6l-0.6,0.1l-3.7,0.8c-1.6,0.3-2.7,0.8-3.4,1.5c-0.7,0.7-1.1,1.6-1.1,2.7c0,1.2,0.4,2.2,1.2,2.8
			c0.8,0.7,1.9,1,3.2,1C465.6,91.2,467,90.8,468.2,90.1z"/>
		<path d="M69.5,130c0.9-1.8,2.2-3.2,3.8-4.2c1.7-1,3.7-1.5,6.1-1.5c2.2,0,4,0.4,5.6,1.1c1.5,0.8,2.7,1.8,3.5,3.2
			c0.8,1.3,1.3,2.9,1.4,4.7h-3.4c-0.2-1.3-0.6-2.3-1.1-3.2c-0.6-0.9-1.3-1.6-2.3-2.1c-1-0.5-2.2-0.7-3.5-0.7c-1.7,0-3,0.3-4.2,0.9
			c-1.1,0.6-2,1.6-2.6,2.9c-0.6,1.3-0.9,3.1-0.9,5.2c0,2.1,0.3,3.9,0.9,5.2c0.6,1.3,1.5,2.3,2.6,2.9c1.1,0.6,2.5,0.9,4.1,0.9
			c2.2,0,3.9-0.6,5.2-1.7c1.2-1.1,1.9-2.7,2.2-4.7h3.4c-0.1,1.8-0.6,3.4-1.4,4.7s-2.1,2.5-3.7,3.3c-1.6,0.8-3.5,1.2-5.7,1.2
			c-2.4,0-4.4-0.5-6.1-1.5c-1.7-1-3-2.4-3.8-4.2s-1.3-3.9-1.3-6.2S68.6,131.8,69.5,130z"/>
		<path d="M94.6,125h3.6v22.5h-3.6V125z M109.8,129.8c-0.4-0.9-1-1.6-1.7-2c-0.8-0.4-1.7-0.6-2.9-0.6c-1.6,0-2.9,0.4-4,1.3
			c-1.1,0.9-1.8,2.1-2.3,3.8s-0.7,3.9-0.7,6.5h-1.2V138c0.1-2.8,0.4-5.3,1.1-7.3c0.6-2,1.6-3.6,3-4.7c1.3-1.1,3.1-1.7,5.3-1.7
			c1.7,0,3.1,0.3,4.3,1c1.1,0.7,2,1.6,2.5,2.9c0.6,1.3,0.8,2.9,0.8,4.8v14.5h-3.6v-14.1C110.4,131.9,110.2,130.7,109.8,129.8z
			 M125.6,129.8c-0.4-0.9-1-1.6-1.7-2c-0.8-0.4-1.7-0.6-2.8-0.6c-1.6,0-3,0.4-4,1.3c-1.1,0.9-1.8,2.1-2.3,3.8s-0.7,3.9-0.7,6.5h-1.3
			c0-3,0.3-5.6,0.9-7.8c0.6-2.2,1.6-3.8,3-5c1.4-1.2,3.2-1.8,5.6-1.8c1.7,0,3.1,0.3,4.3,1c1.1,0.7,2,1.6,2.5,2.9
			c0.6,1.3,0.8,2.9,0.8,4.8v14.5h-3.6v-14.1C126.2,131.9,126,130.7,125.6,129.8z"/>
	</g>
</g>
<line class="st9" x1="107" y1="845" x2="107" y2="955.9"/>
<line class="st9" x1="554.6" y1="845" x2="554.6" y2="955.9"/>
<line class="st9" x1="1002.8" y1="845" x2="1002.8" y2="955.9"/>
<line class="st9" x1="1224.8" y1="845" x2="1224.8" y2="955.9"/>
<line class="st10" x1="1170.3" y1="955.9" x2="1224.8" y2="955.9"/>
<line class="st10" x1="831.7" y1="955.9" x2="1062" y2="955.9"/>
<line class="st10" x1="384" y1="955.9" x2="723.4" y2="955.9"/>
<line class="st10" x1="107" y1="955.9" x2="275.7" y2="955.9"/>
<g>
	<g>
		<path d="M285.1,965.7l12.8-11.1c1.5-1.3,2.5-2.5,3.1-3.4c0.6-1,0.9-2.1,0.9-3.4c0-1.6-0.5-2.8-1.6-3.8c-1-0.9-2.6-1.4-4.6-1.4
			c-1.8,0-3.3,0.3-4.4,1c-1.2,0.7-2,1.7-2.6,3c-0.6,1.3-0.9,3.1-0.9,5.1h-2.6c0-2.4,0.4-4.4,1.2-6.1s2-3,3.5-3.8
			c1.5-0.9,3.5-1.3,5.8-1.3c2,0,3.7,0.3,5,1c1.3,0.7,2.3,1.5,2.9,2.6c0.6,1.1,0.9,2.3,0.9,3.6c0,1.6-0.4,3.1-1.3,4.5
			c-0.9,1.4-2.4,3-4.5,4.9l-10,8.6H305v2.1h-19.9V965.7z"/>
		<path d="M313.9,966.7c-1.7-1.2-3-2.8-3.9-4.9c-0.9-2.1-1.3-4.6-1.3-7.4c0-2.7,0.4-5.2,1.3-7.3c0.9-2.1,2.2-3.7,3.9-4.9
			c1.7-1.2,3.9-1.8,6.4-1.8c2.6,0,4.7,0.6,6.5,1.8s3,2.8,3.9,4.9c0.9,2.1,1.3,4.5,1.3,7.3c0,2.8-0.4,5.3-1.3,7.4
			c-0.9,2.1-2.1,3.7-3.9,4.9s-3.9,1.8-6.5,1.8C317.8,968.5,315.6,967.9,313.9,966.7z M312.3,961.1c0.7,1.8,1.7,3.1,3,4s3,1.3,5,1.3
			s3.7-0.4,5-1.3s2.3-2.2,3-4c0.7-1.8,1-4,1-6.7c0-2.6-0.3-4.8-1-6.6s-1.7-3.1-3-4s-3-1.3-5-1.3s-3.7,0.4-5,1.3s-2.3,2.2-3,4
			s-1,4-1,6.6C311.3,957.1,311.7,959.3,312.3,961.1z"/>
		<path d="M336.4,965.7l12.8-11.1c1.5-1.3,2.5-2.5,3.1-3.4c0.6-1,0.9-2.1,0.9-3.4c0-1.6-0.5-2.8-1.6-3.8c-1-0.9-2.6-1.4-4.6-1.4
			c-1.8,0-3.3,0.3-4.4,1c-1.2,0.7-2,1.7-2.6,3c-0.6,1.3-0.9,3.1-0.9,5.1h-2.6c0-2.4,0.4-4.4,1.2-6.1s2-3,3.5-3.8
			c1.5-0.9,3.5-1.3,5.8-1.3c2,0,3.7,0.3,5,1c1.3,0.7,2.3,1.5,2.9,2.6c0.6,1.1,0.9,2.3,0.9,3.6c0,1.6-0.4,3.1-1.3,4.5
			c-0.9,1.4-2.4,3-4.5,4.9l-10,8.6h16.4v2.1h-19.9V965.7z"/>
		<path d="M360.6,965.7h6.2v-22.4h-6.2v-2.1h5.7c1.1,0,1.9,0.2,2.4,0.7c0.5,0.5,0.7,1.2,0.7,2.1v21.7h5.7v2.1h-14.4V965.7z"/>
	</g>
</g>
<g>
	<g>
		<path d="M729.5,965.7l12.8-11.1c1.5-1.3,2.5-2.5,3.1-3.4s0.9-2.1,0.9-3.4c0-1.6-0.5-2.8-1.6-3.8c-1-0.9-2.6-1.4-4.6-1.4
			c-1.8,0-3.3,0.3-4.4,1c-1.2,0.7-2,1.7-2.6,3c-0.6,1.3-0.9,3.1-0.9,5.1h-2.6c0-2.4,0.4-4.4,1.2-6.1c0.8-1.7,2-3,3.5-3.8
			c1.5-0.9,3.5-1.3,5.8-1.3c2,0,3.7,0.3,5,1c1.3,0.7,2.3,1.5,2.9,2.6c0.6,1.1,0.9,2.3,0.9,3.6c0,1.6-0.4,3.1-1.3,4.5
			c-0.9,1.4-2.4,3-4.5,4.9l-10,8.6h16.4v2.1h-19.9V965.7z"/>
		<path d="M758.2,966.7c-1.7-1.2-3-2.8-3.9-4.9c-0.9-2.1-1.3-4.6-1.3-7.4c0-2.7,0.4-5.2,1.3-7.3c0.9-2.1,2.2-3.7,3.9-4.9
			c1.7-1.2,3.9-1.8,6.4-1.8c2.6,0,4.7,0.6,6.5,1.8s3,2.8,3.9,4.9c0.9,2.1,1.3,4.5,1.3,7.3c0,2.8-0.4,5.3-1.3,7.4s-2.1,3.7-3.9,4.9
			s-3.9,1.8-6.5,1.8C762.1,968.5,760,967.9,758.2,966.7z M756.7,961.1c0.7,1.8,1.7,3.1,3,4c1.3,0.9,3,1.3,5,1.3s3.7-0.4,5-1.3
			c1.3-0.9,2.3-2.2,3-4c0.7-1.8,1-4,1-6.7c0-2.6-0.3-4.8-1-6.6c-0.7-1.8-1.7-3.1-3-4c-1.3-0.9-3-1.3-5-1.3s-3.7,0.4-5,1.3
			c-1.3,0.9-2.3,2.2-3,4c-0.7,1.8-1,4-1,6.6C755.7,957.1,756,959.3,756.7,961.1z"/>
		<path d="M780.7,965.7l12.8-11.1c1.5-1.3,2.5-2.5,3.1-3.4c0.6-1,0.9-2.1,0.9-3.4c0-1.6-0.5-2.8-1.6-3.8c-1-0.9-2.6-1.4-4.6-1.4
			c-1.8,0-3.3,0.3-4.4,1c-1.2,0.7-2,1.7-2.6,3c-0.6,1.3-0.9,3.1-0.9,5.1h-2.6c0-2.4,0.4-4.4,1.2-6.1c0.8-1.7,2-3,3.5-3.8
			s3.5-1.3,5.8-1.3c2,0,3.7,0.3,5,1c1.3,0.7,2.3,1.5,2.9,2.6c0.6,1.1,0.9,2.3,0.9,3.6c0,1.6-0.4,3.1-1.3,4.5c-0.9,1.4-2.4,3-4.5,4.9
			l-10,8.6h16.4v2.1h-19.9V965.7z"/>
		<path d="M805.2,965.7l12.8-11.1c1.5-1.3,2.5-2.5,3.1-3.4s0.9-2.1,0.9-3.4c0-1.6-0.5-2.8-1.6-3.8c-1-0.9-2.6-1.4-4.6-1.4
			c-1.8,0-3.3,0.3-4.4,1c-1.2,0.7-2,1.7-2.6,3c-0.6,1.3-0.9,3.1-0.9,5.1h-2.6c0-2.4,0.4-4.4,1.2-6.1c0.8-1.7,2-3,3.5-3.8
			c1.5-0.9,3.5-1.3,5.8-1.3c2,0,3.7,0.3,5,1c1.3,0.7,2.3,1.5,2.9,2.6c0.6,1.1,0.9,2.3,0.9,3.6c0,1.6-0.4,3.1-1.3,4.5
			c-0.9,1.4-2.4,3-4.5,4.9l-10,8.6h16.4v2.1h-19.9V965.7z"/>
	</g>
</g>
<g>
	<g>
		<path d="M1067.9,965.7l12.8-11.1c1.5-1.3,2.5-2.5,3.1-3.4s0.9-2.1,0.9-3.4c0-1.6-0.5-2.8-1.6-3.8c-1-0.9-2.6-1.4-4.6-1.4
			c-1.8,0-3.3,0.3-4.4,1c-1.2,0.7-2,1.7-2.6,3c-0.6,1.3-0.9,3.1-0.9,5.1h-2.6c0-2.4,0.4-4.4,1.2-6.1c0.8-1.7,2-3,3.5-3.8
			c1.5-0.9,3.5-1.3,5.8-1.3c2,0,3.7,0.3,5,1c1.3,0.7,2.3,1.5,2.9,2.6c0.6,1.1,0.9,2.3,0.9,3.6c0,1.6-0.4,3.1-1.3,4.5
			c-0.9,1.4-2.4,3-4.5,4.9l-10,8.6h16.4v2.1h-19.9V965.7z"/>
		<path d="M1096.6,966.7c-1.7-1.2-3-2.8-3.9-4.9c-0.9-2.1-1.3-4.6-1.3-7.4c0-2.7,0.4-5.2,1.3-7.3c0.9-2.1,2.2-3.7,3.9-4.9
			c1.7-1.2,3.9-1.8,6.4-1.8c2.6,0,4.7,0.6,6.5,1.8s3,2.8,3.9,4.9c0.9,2.1,1.3,4.5,1.3,7.3c0,2.8-0.4,5.3-1.3,7.4s-2.1,3.7-3.9,4.9
			s-3.9,1.8-6.5,1.8C1100.5,968.5,1098.4,967.9,1096.6,966.7z M1095.1,961.1c0.7,1.8,1.7,3.1,3,4c1.3,0.9,3,1.3,5,1.3s3.7-0.4,5-1.3
			c1.3-0.9,2.3-2.2,3-4c0.7-1.8,1-4,1-6.7c0-2.6-0.3-4.8-1-6.6c-0.7-1.8-1.7-3.1-3-4c-1.3-0.9-3-1.3-5-1.3s-3.7,0.4-5,1.3
			c-1.3,0.9-2.3,2.2-3,4c-0.7,1.8-1,4-1,6.6C1094.1,957.1,1094.4,959.3,1095.1,961.1z"/>
		<path d="M1119.1,965.7l12.8-11.1c1.5-1.3,2.5-2.5,3.1-3.4c0.6-1,0.9-2.1,0.9-3.4c0-1.6-0.5-2.8-1.6-3.8c-1-0.9-2.6-1.4-4.6-1.4
			c-1.8,0-3.3,0.3-4.4,1c-1.2,0.7-2,1.7-2.6,3c-0.6,1.3-0.9,3.1-0.9,5.1h-2.6c0-2.4,0.4-4.4,1.2-6.1c0.8-1.7,2-3,3.5-3.8
			s3.5-1.3,5.8-1.3c2,0,3.7,0.3,5,1c1.3,0.7,2.3,1.5,2.9,2.6c0.6,1.1,0.9,2.3,0.9,3.6c0,1.6-0.4,3.1-1.3,4.5c-0.9,1.4-2.4,3-4.5,4.9
			l-10,8.6h16.4v2.1h-19.9V965.7z"/>
		<path d="M1146.2,962.7c0.6,1.1,1.4,2,2.6,2.7c1.1,0.7,2.6,1.1,4.3,1.1c2.6,0,4.5-0.6,5.8-1.8s2-2.9,2-5.1c0-1.9-0.5-3.5-1.6-4.6
			c-1-1.1-2.5-1.7-4.5-1.7c-1,0-1.8,0.1-2.6,0.3c-0.7,0.2-1.5,0.6-2.4,1l-1.2-1.6l10.8-9.6h-15.8v-2.1h18.8v2.1l-9.7,8.8
			c0.9-0.2,1.9-0.4,2.9-0.4c1.5,0,2.8,0.3,4,0.9c1.2,0.6,2.1,1.5,2.8,2.7c0.7,1.2,1,2.6,1,4.2c0,1.6-0.4,3.1-1.1,4.5
			c-0.7,1.4-1.9,2.5-3.5,3.3c-1.6,0.8-3.6,1.2-6,1.2c-2.2,0-4.1-0.4-5.6-1.3c-1.5-0.8-2.7-2-3.5-3.4c-0.8-1.4-1.2-3-1.3-4.7h2.6
			C1145.3,960.4,1145.6,961.6,1146.2,962.7z"/>
	</g>
</g>
</svg>
