<?xml version="1.0" encoding="utf-8"?>
<!-- Generator: Adobe Illustrator 25.2.0, SVG Export Plug-In . SVG Version: 6.00 Build 0)  -->
<svg version="1.1" id="Livello_1" xmlns="http://www.w3.org/2000/svg" xmlns:xlink="http://www.w3.org/1999/xlink" x="0px" y="0px"
	 viewBox="0 0 1193.4 668" style="enable-background:new 0 0 1193.4 668;" xml:space="preserve">
<style type="text/css">
	.st0{fill:#0047CC;}
	.st1{opacity:0.5;}
	.st2{fill:#FFFFFF;}
	.st3{enable-background:new    ;}
	.st4{fill:none;stroke:#000000;stroke-miterlimit:10;}
</style>
<g id="Livello_2_1_">
	<g id="garda">
		<polygon class="st0" points="1157.9,210.2 1138.2,210.2 1138.2,230.2 1099.3,230.2 1099.3,228.7 1060.5,228.7 1060.5,249 
			1022.9,249 1022.9,240.7 985.3,240.7 985.3,233.9 945.8,233.9 907,233.9 868,233.9 868,233.7 829.2,233.7 829.2,204.6 
			790.3,204.6 790.3,182.8 750.8,182.8 750.8,108.2 711.9,108.2 711.9,113.3 673.1,113.3 673.1,157.7 634.2,157.7 634.2,177.3 
			595.4,177.3 595.4,233.2 557.8,233.2 557.8,232.4 520.2,232.4 520.2,229.7 480.7,229.7 480.7,225.3 441.9,225.3 441.9,219.9 
			403,219.9 403,218.4 364.1,218.4 364.1,122.6 325.2,122.6 325.2,71.6 285.7,71.6 285.7,62.9 246.8,62.9 246.8,67.4 208,67.4 
			208,72.1 169.1,72.1 169.1,135.9 130.3,135.9 130.3,193.6 92.7,193.6 92.7,126.2 55.1,126.2 55.1,156.3 35.4,156.3 17.5,156.3 
			17.5,381.9 35.4,381.9 55.1,381.9 55.1,412 92.7,412 92.7,344.6 130.3,344.6 130.3,402.3 169.1,402.3 169.1,466.2 208,466.2 
			208,470.8 246.8,470.8 246.8,475.3 285.7,475.3 285.7,466.7 325.2,466.7 325.2,415.6 364.1,415.6 364.1,319.8 403,319.8 
			403,318.4 441.9,318.4 441.9,312.9 480.7,312.9 480.7,308.6 520.2,308.6 520.2,305.8 557.8,305.8 557.8,305 595.4,305 
			595.4,360.9 634.2,360.9 634.2,380.5 673.1,380.5 673.1,424.9 711.9,424.9 711.9,430 750.8,430 750.8,355.4 790.3,355.4 
			790.3,333.6 829.2,333.6 829.2,304.5 868,304.5 868,304.3 907,304.3 945.8,304.3 985.3,304.3 985.3,297.5 1022.9,297.5 
			1022.9,289.2 1060.5,289.2 1060.5,309.5 1099.3,309.5 1099.3,308.1 1138.2,308.1 1138.2,328.1 1157.9,328.1 1176,328.1 
			1176,210.2 		"/>
		<g class="st1">
			<polygon class="st2" points="1157.9,214.5 1138.2,214.5 1138.2,214.8 1099.3,214.8 1099.3,244.6 1060.5,244.6 1060.5,246.2 
				1022.9,246.2 1022.9,243.3 985.3,243.3 985.3,242.2 945.8,242.2 945.8,241.4 907,241.4 868,241.4 868,241 829.2,241 829.2,230.4 
				790.3,230.4 790.3,194.4 750.8,194.4 750.8,168.3 711.9,168.3 711.9,214.5 673.1,214.5 673.1,214.8 634.2,214.8 634.2,244.6 
				595.4,244.6 595.4,246.2 557.8,246.2 557.8,243.3 520.2,243.3 520.2,242.2 480.7,242.2 480.7,241.4 441.9,241.4 403,241.4 
				403,241 364.1,241 364.1,230.4 325.2,230.4 325.2,194.4 285.7,194.4 285.7,168.3 246.8,168.3 246.8,214.5 208,214.5 208,214.8 
				169.1,214.8 169.1,244.6 130.3,244.6 130.3,246.2 92.7,246.2 92.7,243.3 55.1,243.3 55.1,242.2 35.4,242.2 17.5,242.2 17.5,296 
				35.4,296 55.1,296 55.1,294.9 92.7,294.9 92.7,292 130.3,292 130.3,293.6 169.1,293.6 169.1,323.4 208,323.4 208,323.7 
				246.8,323.7 246.8,369.9 285.7,369.9 285.7,343.8 325.2,343.8 325.2,307.9 364.1,307.9 364.1,297.3 403,297.3 403,296.8 
				441.9,296.8 480.7,296.8 480.7,296 520.2,296 520.2,294.9 557.8,294.9 557.8,292 595.4,292 595.4,293.6 634.2,293.6 634.2,323.4 
				673.1,323.4 673.1,323.7 711.9,323.7 711.9,369.9 750.8,369.9 750.8,343.8 790.3,343.8 790.3,307.9 829.2,307.9 829.2,297.3 
				868,297.3 868,296.8 907,296.8 945.8,296.8 945.8,296 985.3,296 985.3,294.9 1022.9,294.9 1022.9,292 1060.5,292 1060.5,293.6 
				1099.3,293.6 1099.3,323.4 1138.2,323.4 1138.2,323.7 1157.9,323.7 1176,323.7 1176,214.5 			"/>
		</g>
		<rect x="480.7" y="509.7" width="463.5" height="1"/>
		<polygon points="18,519.3 17,519.3 17,509.7 481.1,509.7 481.1,510.7 18,510.7 		"/>
		<polygon points="1176.5,519.3 1175.5,519.3 1175.5,510.7 943.7,510.7 943.7,509.7 1176.5,509.7 		"/>
		<rect x="54.6" y="510.2" width="1" height="9.1"/>
		<rect x="92.2" y="510.2" width="1" height="9.1"/>
		<rect x="129.9" y="510.2" width="1" height="9.1"/>
		<rect x="168.6" y="510.2" width="1" height="9.1"/>
		<rect x="207.5" y="510.2" width="1" height="9.1"/>
		<rect x="246.3" y="510.2" width="1" height="9.1"/>
		<rect x="285.1" y="510.2" width="1" height="9.1"/>
		<rect x="324.8" y="510.2" width="1" height="9.1"/>
		<rect x="363.7" y="510.2" width="1" height="9.1"/>
		<rect x="402.5" y="510.2" width="1" height="9.1"/>
		<rect x="441.4" y="510.2" width="1" height="9.1"/>
		<rect x="480.6" y="510.2" width="1" height="9.1"/>
		<rect x="519.9" y="510.2" width="1" height="9.1"/>
		<rect x="595" y="510.2" width="1" height="9.1"/>
		<rect x="672.7" y="510.2" width="1" height="9.1"/>
		<rect x="750.5" y="510.2" width="1" height="9.1"/>
		<rect x="828.9" y="510.2" width="1" height="9.1"/>
		<rect x="906.6" y="510.2" width="1" height="9.1"/>
		<rect x="985" y="510.2" width="1" height="9.1"/>
		<rect x="1060.2" y="510.2" width="1" height="9.1"/>
		<rect x="1137.9" y="510.2" width="1" height="9.1"/>
		<rect x="557.4" y="510.2" width="1" height="9.1"/>
		<rect x="633.9" y="510.2" width="1" height="9.1"/>
		<rect x="711.5" y="510.2" width="1" height="9.1"/>
		<rect x="790" y="510.2" width="1" height="9.1"/>
		<rect x="867.7" y="510.2" width="1" height="9.1"/>
		<rect x="945.5" y="510.2" width="1" height="9.1"/>
		<rect x="1022.8" y="510.2" width="1" height="9.1"/>
		<rect x="1099.1" y="510.2" width="1" height="9.1"/>
		<path d="M946.3,578.6h-0.8v-0.1L946.3,578.6L946.3,578.6z M946.3,575.5h-0.8v-1h0.8V575.5z M946.3,571.5h-0.8v-1h0.8V571.5z
			 M946.3,567.5h-0.8v-1h0.8V567.5z M946.3,563.5h-0.8v-1h0.8V563.5z M946.3,559.5h-0.8v-1h0.8V559.5z M946.3,555.5h-0.8v-1h0.8
			V555.5z M946.3,551.5h-0.8v-1h0.8V551.5z M946.3,547.5h-0.8v-1h0.8V547.5z M946.3,543.5h-0.8v-1h0.8V543.5z M946.3,539.5h-0.8v-1
			h0.8V539.5z M946.3,535.5h-0.8v-1h0.8V535.5z M946.3,531.5h-0.8v-1h0.8V531.5z M946.3,527.5h-0.8v-1h0.8V527.5z M946.3,523.5h-0.8
			v-1h0.8V523.5z M946.3,519.5h-0.8v-1h0.8V519.5z M946.3,515.5h-0.8v-1h0.8V515.5z M946.3,511.5h-0.8v-1h0.8V511.5z M946.3,507.5
			h-0.8v-1h0.8V507.5z M946.3,503.5h-0.8v-1h0.8V503.5z M946.3,499.5h-0.8v-1h0.8V499.5z M946.3,495.5h-0.8v-1h0.8V495.5z
			 M946.3,491.5h-0.8v-1h0.8V491.5z M946.3,487.5h-0.8v-1h0.8V487.5z M946.3,483.5h-0.8v-1h0.8V483.5z M946.3,479.5h-0.8v-1h0.8
			V479.5z M946.3,475.5h-0.8v-1h0.8V475.5z M946.3,471.5h-0.8v-1h0.8V471.5z M946.3,467.5h-0.8v-1h0.8V467.5z M946.3,463.5h-0.8v-1
			h0.8V463.5z M946.3,459.5h-0.8v-1h0.8V459.5z M946.3,455.5h-0.8v-1h0.8V455.5z M946.3,451.5h-0.8v-1h0.8V451.5z M946.3,447.5h-0.8
			v-1h0.8V447.5z M946.3,443.5h-0.8v-1h0.8V443.5z M946.3,439.5h-0.8v-1h0.8V439.5z M946.3,435.5h-0.8v-1h0.8V435.5z M946.3,431.5
			h-0.8v-1h0.8V431.5z M946.3,427.5h-0.8v-1h0.8V427.5z M946.3,423.5h-0.8v-1h0.8V423.5z M946.3,419.5h-0.8v-1h0.8V419.5z
			 M946.3,415.5h-0.8v-1h0.8V415.5z M946.3,411.5h-0.8v-1h0.8V411.5z M946.3,407.5h-0.8v-1h0.8V407.5z M946.3,403.5h-0.8v-1h0.8
			V403.5z M946.3,399.5h-0.8v-1h0.8V399.5z M946.3,395.5h-0.8v-1h0.8V395.5z M946.3,391.5h-0.8v-1h0.8V391.5z M946.3,387.5h-0.8v-1
			h0.8V387.5z M946.3,383.5h-0.8v-1h0.8V383.5z M946.3,379.5h-0.8v-1h0.8V379.5z M946.3,375.5h-0.8v-1h0.8V375.5z M946.3,371.5h-0.8
			v-1h0.8V371.5z M946.3,367.5h-0.8v-1h0.8V367.5z M946.3,363.5h-0.8v-1h0.8V363.5z M946.3,359.5h-0.8v-1h0.8V359.5z M946.3,355.5
			h-0.8v-1h0.8V355.5z M946.3,351.5h-0.8v-1h0.8V351.5z M946.3,347.5h-0.8v-1h0.8V347.5z M946.3,343.5h-0.8v-1h0.8V343.5z
			 M946.3,339.5h-0.8v-1h0.8V339.5z M946.3,335.5h-0.8v-1h0.8V335.5z M946.3,331.5h-0.8v-1h0.8V331.5z M946.3,327.5h-0.8v-1h0.8
			V327.5z M946.3,323.5h-0.8v-1h0.8V323.5z M946.3,319.5h-0.8v-1h0.8V319.5z M946.3,315.5h-0.8v-1h0.8V315.5z M946.3,311.5h-0.8v-1
			h0.8V311.5z M946.3,307.5h-0.8v-1h0.8V307.5z M946.3,303.5h-0.8v-1h0.8V303.5z M946.3,299.5h-0.8v-1h0.8V299.5z M946.3,295.5h-0.8
			v-1h0.8V295.5z M946.3,291.5h-0.8v-1h0.8V291.5z M946.3,287.5h-0.8v-1h0.8V287.5z M946.3,283.5h-0.8v-1h0.8V283.5z M946.3,279.5
			h-0.8v-1h0.8V279.5z M946.3,275.5h-0.8v-1h0.8V275.5z M946.3,271.5h-0.8v-1h0.8V271.5z M946.3,267.5h-0.8v-1h0.8V267.5z
			 M946.3,263.5h-0.8v-1h0.8V263.5z M946.3,259.5h-0.8v-1h0.8V259.5z M946.3,255.5h-0.8v-1h0.8V255.5z M946.3,251.5h-0.8v-1h0.8
			V251.5z M946.3,247.5h-0.8v-1h0.8V247.5z M946.3,243.5h-0.8v-1h0.8V243.5z M946.3,239.5h-0.8v-1h0.8V239.5z M946.3,235.5h-0.8v-1
			h0.8V235.5z M946.3,231.5h-0.8v-1h0.8V231.5z M946.3,227.5h-0.8v-1h0.8V227.5z M946.3,223.5h-0.8v-1h0.8V223.5z M946.3,219.5h-0.8
			v-1h0.8V219.5z M946.3,215.5h-0.8v-1h0.8V215.5z M946.3,211.5h-0.8v-1h0.8V211.5z M946.3,207.5h-0.8v-1h0.8V207.5z M946.3,203.5
			h-0.8v-1h0.8V203.5z M946.3,199.5h-0.8v-1h0.8V199.5z M946.3,195.5h-0.8v-1h0.8V195.5z M946.3,191.5h-0.8v-1h0.8V191.5z
			 M946.3,187.5h-0.8v-1h0.8V187.5z M946.3,183.5h-0.8v-1h0.8V183.5z M946.3,179.5h-0.8v-1h0.8V179.5z M946.3,175.5h-0.8v-1h0.8
			V175.5z M946.3,171.5h-0.8v-1h0.8V171.5z M946.3,167.5h-0.8v-1h0.8V167.5z M946.3,163.5h-0.8v-1h0.8V163.5z M946.3,159.5h-0.8v-1
			h0.8V159.5z M946.3,155.5h-0.8v-1h0.8V155.5z M946.3,151.5h-0.8v-1h0.8V151.5z M946.3,147.5h-0.8v-1h0.8V147.5z M946.3,143.5h-0.8
			v-1h0.8V143.5z M946.3,139.5h-0.8v-1h0.8V139.5z M946.3,135.5h-0.8v-1h0.8V135.5z M946.3,131.5h-0.8v-1h0.8V131.5z M946.3,127.5
			h-0.8v-1h0.8V127.5z M946.3,123.5h-0.8v-1h0.8V123.5z M946.3,119.5h-0.8v-1h0.8V119.5z M946.3,115.5h-0.8v-1h0.8V115.5z
			 M946.3,111.5h-0.8v-1h0.8V111.5z M946.3,107.5h-0.8v-1h0.8V107.5z M946.3,103.5h-0.8v-1h0.8V103.5z M946.3,99.5h-0.8v-1h0.8V99.5
			z M946.3,95.5h-0.8v-1h0.8V95.5z M946.3,91.5h-0.8v-1h0.8V91.5z M946.3,87.5h-0.8v-1h0.8V87.5z M946.3,83.5h-0.8v-1h0.8V83.5z
			 M946.3,79.5h-0.8v-1h0.8V79.5z M946.3,75.5h-0.8v-1h0.8V75.5z M946.3,71.5h-0.8v-1h0.8V71.5z M946.3,67.5h-0.8v-1h0.8V67.5z
			 M946.3,63.5h-0.8v-1h0.8V63.5z M946.3,59.5h-0.8v-1h0.8V59.5z"/>
		<path d="M1176.4,578.6h-0.8v-0.1L1176.4,578.6L1176.4,578.6z M1176.4,575.5h-0.8v-1h0.8V575.5z M1176.4,571.5h-0.8v-1h0.8V571.5z
			 M1176.4,567.5h-0.8v-1h0.8V567.5z M1176.4,563.5h-0.8v-1h0.8V563.5z M1176.4,559.5h-0.8v-1h0.8V559.5z M1176.4,555.5h-0.8v-1h0.8
			V555.5z M1176.4,551.5h-0.8v-1h0.8V551.5z M1176.4,547.5h-0.8v-1h0.8V547.5z M1176.4,543.5h-0.8v-1h0.8V543.5z M1176.4,539.5h-0.8
			v-1h0.8V539.5z M1176.4,535.5h-0.8v-1h0.8V535.5z M1176.4,531.5h-0.8v-1h0.8V531.5z M1176.4,527.5h-0.8v-1h0.8V527.5z
			 M1176.4,523.5h-0.8v-1h0.8V523.5z M1176.4,519.5h-0.8v-1h0.8V519.5z M1176.4,515.5h-0.8v-1h0.8V515.5z M1176.4,511.5h-0.8v-1h0.8
			V511.5z M1176.4,507.5h-0.8v-1h0.8V507.5z M1176.4,503.5h-0.8v-1h0.8V503.5z M1176.4,499.5h-0.8v-1h0.8V499.5z M1176.4,495.5h-0.8
			v-1h0.8V495.5z M1176.4,491.5h-0.8v-1h0.8V491.5z M1176.4,487.5h-0.8v-1h0.8V487.5z M1176.4,483.5h-0.8v-1h0.8V483.5z
			 M1176.4,479.5h-0.8v-1h0.8V479.5z M1176.4,475.5h-0.8v-1h0.8V475.5z M1176.4,471.5h-0.8v-1h0.8V471.5z M1176.4,467.5h-0.8v-1h0.8
			V467.5z M1176.4,463.5h-0.8v-1h0.8V463.5z M1176.4,459.5h-0.8v-1h0.8V459.5z M1176.4,455.5h-0.8v-1h0.8V455.5z M1176.4,451.5h-0.8
			v-1h0.8V451.5z M1176.4,447.5h-0.8v-1h0.8V447.5z M1176.4,443.5h-0.8v-1h0.8V443.5z M1176.4,439.5h-0.8v-1h0.8V439.5z
			 M1176.4,435.5h-0.8v-1h0.8V435.5z M1176.4,431.5h-0.8v-1h0.8V431.5z M1176.4,427.5h-0.8v-1h0.8V427.5z M1176.4,423.5h-0.8v-1h0.8
			V423.5z M1176.4,419.5h-0.8v-1h0.8V419.5z M1176.4,415.5h-0.8v-1h0.8V415.5z M1176.4,411.5h-0.8v-1h0.8V411.5z M1176.4,407.5h-0.8
			v-1h0.8V407.5z M1176.4,403.5h-0.8v-1h0.8V403.5z M1176.4,399.5h-0.8v-1h0.8V399.5z M1176.4,395.5h-0.8v-1h0.8V395.5z
			 M1176.4,391.5h-0.8v-1h0.8V391.5z M1176.4,387.5h-0.8v-1h0.8V387.5z M1176.4,383.5h-0.8v-1h0.8V383.5z M1176.4,379.5h-0.8v-1h0.8
			V379.5z M1176.4,375.5h-0.8v-1h0.8V375.5z M1176.4,371.5h-0.8v-1h0.8V371.5z M1176.4,367.5h-0.8v-1h0.8V367.5z M1176.4,363.5h-0.8
			v-1h0.8V363.5z M1176.4,359.5h-0.8v-1h0.8V359.5z M1176.4,355.5h-0.8v-1h0.8V355.5z M1176.4,351.5h-0.8v-1h0.8V351.5z
			 M1176.4,347.5h-0.8v-1h0.8V347.5z M1176.4,343.5h-0.8v-1h0.8V343.5z M1176.4,339.5h-0.8v-1h0.8V339.5z M1176.4,335.5h-0.8v-1h0.8
			V335.5z M1176.4,331.5h-0.8v-1h0.8V331.5z M1176.4,327.5h-0.8v-1h0.8V327.5z M1176.4,323.5h-0.8v-1h0.8V323.5z M1176.4,319.5h-0.8
			v-1h0.8V319.5z M1176.4,315.5h-0.8v-1h0.8V315.5z M1176.4,311.5h-0.8v-1h0.8V311.5z M1176.4,307.5h-0.8v-1h0.8V307.5z
			 M1176.4,303.5h-0.8v-1h0.8V303.5z M1176.4,299.5h-0.8v-1h0.8V299.5z M1176.4,295.5h-0.8v-1h0.8V295.5z M1176.4,291.5h-0.8v-1h0.8
			V291.5z M1176.4,287.5h-0.8v-1h0.8V287.5z M1176.4,283.5h-0.8v-1h0.8V283.5z M1176.4,279.5h-0.8v-1h0.8V279.5z M1176.4,275.5h-0.8
			v-1h0.8V275.5z M1176.4,271.5h-0.8v-1h0.8V271.5z M1176.4,267.5h-0.8v-1h0.8V267.5z M1176.4,263.5h-0.8v-1h0.8V263.5z
			 M1176.4,259.5h-0.8v-1h0.8V259.5z M1176.4,255.5h-0.8v-1h0.8V255.5z M1176.4,251.5h-0.8v-1h0.8V251.5z M1176.4,247.5h-0.8v-1h0.8
			V247.5z M1176.4,243.5h-0.8v-1h0.8V243.5z M1176.4,239.5h-0.8v-1h0.8V239.5z M1176.4,235.5h-0.8v-1h0.8V235.5z M1176.4,231.5h-0.8
			v-1h0.8V231.5z M1176.4,227.5h-0.8v-1h0.8V227.5z M1176.4,223.5h-0.8v-1h0.8V223.5z M1176.4,219.5h-0.8v-1h0.8V219.5z
			 M1176.4,215.5h-0.8v-1h0.8V215.5z M1176.4,211.5h-0.8v-1h0.8V211.5z M1176.4,207.5h-0.8v-1h0.8V207.5z M1176.4,203.5h-0.8v-1h0.8
			V203.5z M1176.4,199.5h-0.8v-1h0.8V199.5z M1176.4,195.5h-0.8v-1h0.8V195.5z M1176.4,191.5h-0.8v-1h0.8V191.5z M1176.4,187.5h-0.8
			v-1h0.8V187.5z M1176.4,183.5h-0.8v-1h0.8V183.5z M1176.4,179.5h-0.8v-1h0.8V179.5z M1176.4,175.5h-0.8v-1h0.8V175.5z
			 M1176.4,171.5h-0.8v-1h0.8V171.5z M1176.4,167.5h-0.8v-1h0.8V167.5z M1176.4,163.5h-0.8v-1h0.8V163.5z M1176.4,159.5h-0.8v-1h0.8
			V159.5z M1176.4,155.5h-0.8v-1h0.8V155.5z M1176.4,151.5h-0.8v-1h0.8V151.5z M1176.4,147.5h-0.8v-1h0.8V147.5z M1176.4,143.5h-0.8
			v-1h0.8V143.5z M1176.4,139.5h-0.8v-1h0.8V139.5z M1176.4,135.5h-0.8v-1h0.8V135.5z M1176.4,131.5h-0.8v-1h0.8V131.5z
			 M1176.4,127.5h-0.8v-1h0.8V127.5z M1176.4,123.5h-0.8v-1h0.8V123.5z M1176.4,119.5h-0.8v-1h0.8V119.5z M1176.4,115.5h-0.8v-1h0.8
			V115.5z M1176.4,111.5h-0.8v-1h0.8V111.5z M1176.4,107.5h-0.8v-1h0.8V107.5z M1176.4,103.5h-0.8v-1h0.8V103.5z M1176.4,99.5h-0.8
			v-1h0.8V99.5z M1176.4,95.5h-0.8v-1h0.8V95.5z M1176.4,91.5h-0.8v-1h0.8V91.5z M1176.4,87.5h-0.8v-1h0.8V87.5z M1176.4,83.5h-0.8
			v-1h0.8V83.5z M1176.4,79.5h-0.8v-1h0.8V79.5z M1176.4,75.5h-0.8v-1h0.8V75.5z M1176.4,71.5h-0.8v-1h0.8V71.5z M1176.4,67.5h-0.8
			v-1h0.8V67.5z M1176.4,63.5h-0.8v-1h0.8V63.5z M1176.4,59.5h-0.8v-1h0.8V59.5z"/>
		<path d="M481.5,578.6h-0.8v-0.1L481.5,578.6L481.5,578.6z M481.5,575.5h-0.8v-1h0.8V575.5z M481.5,571.5h-0.8v-1h0.8V571.5z
			 M481.5,567.5h-0.8v-1h0.8V567.5z M481.5,563.5h-0.8v-1h0.8V563.5z M481.5,559.5h-0.8v-1h0.8V559.5z M481.5,555.5h-0.8v-1h0.8
			V555.5z M481.5,551.5h-0.8v-1h0.8V551.5z M481.5,547.5h-0.8v-1h0.8V547.5z M481.5,543.5h-0.8v-1h0.8V543.5z M481.5,539.5h-0.8v-1
			h0.8V539.5z M481.5,535.5h-0.8v-1h0.8V535.5z M481.5,531.5h-0.8v-1h0.8V531.5z M481.5,527.5h-0.8v-1h0.8V527.5z M481.5,523.5h-0.8
			v-1h0.8V523.5z M481.5,519.5h-0.8v-1h0.8V519.5z M481.5,515.5h-0.8v-1h0.8V515.5z M481.5,511.5h-0.8v-1h0.8V511.5z M481.5,507.5
			h-0.8v-1h0.8V507.5z M481.5,503.5h-0.8v-1h0.8V503.5z M481.5,499.5h-0.8v-1h0.8V499.5z M481.5,495.5h-0.8v-1h0.8V495.5z
			 M481.5,491.5h-0.8v-1h0.8V491.5z M481.5,487.5h-0.8v-1h0.8V487.5z M481.5,483.5h-0.8v-1h0.8V483.5z M481.5,479.5h-0.8v-1h0.8
			V479.5z M481.5,475.5h-0.8v-1h0.8V475.5z M481.5,471.5h-0.8v-1h0.8V471.5z M481.5,467.5h-0.8v-1h0.8V467.5z M481.5,463.5h-0.8v-1
			h0.8V463.5z M481.5,459.5h-0.8v-1h0.8V459.5z M481.5,455.5h-0.8v-1h0.8V455.5z M481.5,451.5h-0.8v-1h0.8V451.5z M481.5,447.5h-0.8
			v-1h0.8V447.5z M481.5,443.5h-0.8v-1h0.8V443.5z M481.5,439.5h-0.8v-1h0.8V439.5z M481.5,435.5h-0.8v-1h0.8V435.5z M481.5,431.5
			h-0.8v-1h0.8V431.5z M481.5,427.5h-0.8v-1h0.8V427.5z M481.5,423.5h-0.8v-1h0.8V423.5z M481.5,419.5h-0.8v-1h0.8V419.5z
			 M481.5,415.5h-0.8v-1h0.8V415.5z M481.5,411.5h-0.8v-1h0.8V411.5z M481.5,407.5h-0.8v-1h0.8V407.5z M481.5,403.5h-0.8v-1h0.8
			V403.5z M481.5,399.5h-0.8v-1h0.8V399.5z M481.5,395.5h-0.8v-1h0.8V395.5z M481.5,391.5h-0.8v-1h0.8V391.5z M481.5,387.5h-0.8v-1
			h0.8V387.5z M481.5,383.5h-0.8v-1h0.8V383.5z M481.5,379.5h-0.8v-1h0.8V379.5z M481.5,375.5h-0.8v-1h0.8V375.5z M481.5,371.5h-0.8
			v-1h0.8V371.5z M481.5,367.5h-0.8v-1h0.8V367.5z M481.5,363.5h-0.8v-1h0.8V363.5z M481.5,359.5h-0.8v-1h0.8V359.5z M481.5,355.5
			h-0.8v-1h0.8V355.5z M481.5,351.5h-0.8v-1h0.8V351.5z M481.5,347.5h-0.8v-1h0.8V347.5z M481.5,343.5h-0.8v-1h0.8V343.5z
			 M481.5,339.5h-0.8v-1h0.8V339.5z M481.5,335.5h-0.8v-1h0.8V335.5z M481.5,331.5h-0.8v-1h0.8V331.5z M481.5,327.5h-0.8v-1h0.8
			V327.5z M481.5,323.5h-0.8v-1h0.8V323.5z M481.5,319.5h-0.8v-1h0.8V319.5z M481.5,315.5h-0.8v-1h0.8V315.5z M481.5,311.5h-0.8v-1
			h0.8V311.5z M481.5,307.5h-0.8v-1h0.8V307.5z M481.5,303.5h-0.8v-1h0.8V303.5z M481.5,299.5h-0.8v-1h0.8V299.5z M481.5,295.5h-0.8
			v-1h0.8V295.5z M481.5,291.5h-0.8v-1h0.8V291.5z M481.5,287.5h-0.8v-1h0.8V287.5z M481.5,283.5h-0.8v-1h0.8V283.5z M481.5,279.5
			h-0.8v-1h0.8V279.5z M481.5,275.5h-0.8v-1h0.8V275.5z M481.5,271.5h-0.8v-1h0.8V271.5z M481.5,267.5h-0.8v-1h0.8V267.5z
			 M481.5,263.5h-0.8v-1h0.8V263.5z M481.5,259.5h-0.8v-1h0.8V259.5z M481.5,255.5h-0.8v-1h0.8V255.5z M481.5,251.5h-0.8v-1h0.8
			V251.5z M481.5,247.5h-0.8v-1h0.8V247.5z M481.5,243.5h-0.8v-1h0.8V243.5z M481.5,239.5h-0.8v-1h0.8V239.5z M481.5,235.5h-0.8v-1
			h0.8V235.5z M481.5,231.5h-0.8v-1h0.8V231.5z M481.5,227.5h-0.8v-1h0.8V227.5z M481.5,223.5h-0.8v-1h0.8V223.5z M481.5,219.5h-0.8
			v-1h0.8V219.5z M481.5,215.5h-0.8v-1h0.8V215.5z M481.5,211.5h-0.8v-1h0.8V211.5z M481.5,207.5h-0.8v-1h0.8V207.5z M481.5,203.5
			h-0.8v-1h0.8V203.5z M481.5,199.5h-0.8v-1h0.8V199.5z M481.5,195.5h-0.8v-1h0.8V195.5z M481.5,191.5h-0.8v-1h0.8V191.5z
			 M481.5,187.5h-0.8v-1h0.8V187.5z M481.5,183.5h-0.8v-1h0.8V183.5z M481.5,179.5h-0.8v-1h0.8V179.5z M481.5,175.5h-0.8v-1h0.8
			V175.5z M481.5,171.5h-0.8v-1h0.8V171.5z M481.5,167.5h-0.8v-1h0.8V167.5z M481.5,163.5h-0.8v-1h0.8V163.5z M481.5,159.5h-0.8v-1
			h0.8V159.5z M481.5,155.5h-0.8v-1h0.8V155.5z M481.5,151.5h-0.8v-1h0.8V151.5z M481.5,147.5h-0.8v-1h0.8V147.5z M481.5,143.5h-0.8
			v-1h0.8V143.5z M481.5,139.5h-0.8v-1h0.8V139.5z M481.5,135.5h-0.8v-1h0.8V135.5z M481.5,131.5h-0.8v-1h0.8V131.5z M481.5,127.5
			h-0.8v-1h0.8V127.5z M481.5,123.5h-0.8v-1h0.8V123.5z M481.5,119.5h-0.8v-1h0.8V119.5z M481.5,115.5h-0.8v-1h0.8V115.5z
			 M481.5,111.5h-0.8v-1h0.8V111.5z M481.5,107.5h-0.8v-1h0.8V107.5z M481.5,103.5h-0.8v-1h0.8V103.5z M481.5,99.5h-0.8v-1h0.8V99.5
			z M481.5,95.5h-0.8v-1h0.8V95.5z M481.5,91.5h-0.8v-1h0.8V91.5z M481.5,87.5h-0.8v-1h0.8V87.5z M481.5,83.5h-0.8v-1h0.8V83.5z
			 M481.5,79.5h-0.8v-1h0.8V79.5z M481.5,75.5h-0.8v-1h0.8V75.5z M481.5,71.5h-0.8v-1h0.8V71.5z M481.5,67.5h-0.8v-1h0.8V67.5z
			 M481.5,63.5h-0.8v-1h0.8V63.5z M481.5,59.5h-0.8v-1h0.8V59.5z"/>
		<path d="M17.6,578.6h-0.8v-0.1L17.6,578.6L17.6,578.6z M17.6,575.5h-0.8v-1h0.8V575.5z M17.6,571.5h-0.8v-1h0.8V571.5z
			 M17.6,567.5h-0.8v-1h0.8V567.5z M17.6,563.5h-0.8v-1h0.8V563.5z M17.6,559.5h-0.8v-1h0.8V559.5z M17.6,555.5h-0.8v-1h0.8V555.5z
			 M17.6,551.5h-0.8v-1h0.8V551.5z M17.6,547.5h-0.8v-1h0.8V547.5z M17.6,543.5h-0.8v-1h0.8V543.5z M17.6,539.5h-0.8v-1h0.8V539.5z
			 M17.6,535.5h-0.8v-1h0.8V535.5z M17.6,531.5h-0.8v-1h0.8V531.5z M17.6,527.5h-0.8v-1h0.8V527.5z M17.6,523.5h-0.8v-1h0.8V523.5z
			 M17.6,519.5h-0.8v-1h0.8V519.5z M17.6,515.5h-0.8v-1h0.8V515.5z M17.6,511.5h-0.8v-1h0.8V511.5z M17.6,507.5h-0.8v-1h0.8V507.5z
			 M17.6,503.5h-0.8v-1h0.8V503.5z M17.6,499.5h-0.8v-1h0.8V499.5z M17.6,495.5h-0.8v-1h0.8V495.5z M17.6,491.5h-0.8v-1h0.8V491.5z
			 M17.6,487.5h-0.8v-1h0.8V487.5z M17.6,483.5h-0.8v-1h0.8V483.5z M17.6,479.5h-0.8v-1h0.8V479.5z M17.6,475.5h-0.8v-1h0.8V475.5z
			 M17.6,471.5h-0.8v-1h0.8V471.5z M17.6,467.5h-0.8v-1h0.8V467.5z M17.6,463.5h-0.8v-1h0.8V463.5z M17.6,459.5h-0.8v-1h0.8V459.5z
			 M17.6,455.5h-0.8v-1h0.8V455.5z M17.6,451.5h-0.8v-1h0.8V451.5z M17.6,447.5h-0.8v-1h0.8V447.5z M17.6,443.5h-0.8v-1h0.8V443.5z
			 M17.6,439.5h-0.8v-1h0.8V439.5z M17.6,435.5h-0.8v-1h0.8V435.5z M17.6,431.5h-0.8v-1h0.8V431.5z M17.6,427.5h-0.8v-1h0.8V427.5z
			 M17.6,423.5h-0.8v-1h0.8V423.5z M17.6,419.5h-0.8v-1h0.8V419.5z M17.6,415.5h-0.8v-1h0.8V415.5z M17.6,411.5h-0.8v-1h0.8V411.5z
			 M17.6,407.5h-0.8v-1h0.8V407.5z M17.6,403.5h-0.8v-1h0.8V403.5z M17.6,399.5h-0.8v-1h0.8V399.5z M17.6,395.5h-0.8v-1h0.8V395.5z
			 M17.6,391.5h-0.8v-1h0.8V391.5z M17.6,387.5h-0.8v-1h0.8V387.5z M17.6,383.5h-0.8v-1h0.8V383.5z M17.6,379.5h-0.8v-1h0.8V379.5z
			 M17.6,375.5h-0.8v-1h0.8V375.5z M17.6,371.5h-0.8v-1h0.8V371.5z M17.6,367.5h-0.8v-1h0.8V367.5z M17.6,363.5h-0.8v-1h0.8V363.5z
			 M17.6,359.5h-0.8v-1h0.8V359.5z M17.6,355.5h-0.8v-1h0.8V355.5z M17.6,351.5h-0.8v-1h0.8V351.5z M17.6,347.5h-0.8v-1h0.8V347.5z
			 M17.6,343.5h-0.8v-1h0.8V343.5z M17.6,339.5h-0.8v-1h0.8V339.5z M17.6,335.5h-0.8v-1h0.8V335.5z M17.6,331.5h-0.8v-1h0.8V331.5z
			 M17.6,327.5h-0.8v-1h0.8V327.5z M17.6,323.5h-0.8v-1h0.8V323.5z M17.6,319.5h-0.8v-1h0.8V319.5z M17.6,315.5h-0.8v-1h0.8V315.5z
			 M17.6,311.5h-0.8v-1h0.8V311.5z M17.6,307.5h-0.8v-1h0.8V307.5z M17.6,303.5h-0.8v-1h0.8V303.5z M17.6,299.5h-0.8v-1h0.8V299.5z
			 M17.6,295.5h-0.8v-1h0.8V295.5z M17.6,291.5h-0.8v-1h0.8V291.5z M17.6,287.5h-0.8v-1h0.8V287.5z M17.6,283.5h-0.8v-1h0.8V283.5z
			 M17.6,279.5h-0.8v-1h0.8V279.5z M17.6,275.5h-0.8v-1h0.8V275.5z M17.6,271.5h-0.8v-1h0.8V271.5z M17.6,267.5h-0.8v-1h0.8V267.5z
			 M17.6,263.5h-0.8v-1h0.8V263.5z M17.6,259.5h-0.8v-1h0.8V259.5z M17.6,255.5h-0.8v-1h0.8V255.5z M17.6,251.5h-0.8v-1h0.8V251.5z
			 M17.6,247.5h-0.8v-1h0.8V247.5z M17.6,243.5h-0.8v-1h0.8V243.5z M17.6,239.5h-0.8v-1h0.8V239.5z M17.6,235.5h-0.8v-1h0.8V235.5z
			 M17.6,231.5h-0.8v-1h0.8V231.5z M17.6,227.5h-0.8v-1h0.8V227.5z M17.6,223.5h-0.8v-1h0.8V223.5z M17.6,219.5h-0.8v-1h0.8V219.5z
			 M17.6,215.5h-0.8v-1h0.8V215.5z M17.6,211.5h-0.8v-1h0.8V211.5z M17.6,207.5h-0.8v-1h0.8V207.5z M17.6,203.5h-0.8v-1h0.8V203.5z
			 M17.6,199.5h-0.8v-1h0.8V199.5z M17.6,195.5h-0.8v-1h0.8V195.5z M17.6,191.5h-0.8v-1h0.8V191.5z M17.6,187.5h-0.8v-1h0.8V187.5z
			 M17.6,183.5h-0.8v-1h0.8V183.5z M17.6,179.5h-0.8v-1h0.8V179.5z M17.6,175.5h-0.8v-1h0.8V175.5z M17.6,171.5h-0.8v-1h0.8V171.5z
			 M17.6,167.5h-0.8v-1h0.8V167.5z M17.6,163.5h-0.8v-1h0.8V163.5z M17.6,159.5h-0.8v-1h0.8V159.5z M17.6,155.5h-0.8v-1h0.8V155.5z
			 M17.6,151.5h-0.8v-1h0.8V151.5z M17.6,147.5h-0.8v-1h0.8V147.5z M17.6,143.5h-0.8v-1h0.8V143.5z M17.6,139.5h-0.8v-1h0.8V139.5z
			 M17.6,135.5h-0.8v-1h0.8V135.5z M17.6,131.5h-0.8v-1h0.8V131.5z M17.6,127.5h-0.8v-1h0.8V127.5z M17.6,123.5h-0.8v-1h0.8V123.5z
			 M17.6,119.5h-0.8v-1h0.8V119.5z M17.6,115.5h-0.8v-1h0.8V115.5z M17.6,111.5h-0.8v-1h0.8V111.5z M17.6,107.5h-0.8v-1h0.8V107.5z
			 M17.6,103.5h-0.8v-1h0.8V103.5z M17.6,99.5h-0.8v-1h0.8V99.5z M17.6,95.5h-0.8v-1h0.8V95.5z M17.6,91.5h-0.8v-1h0.8V91.5z
			 M17.6,87.5h-0.8v-1h0.8V87.5z M17.6,83.5h-0.8v-1h0.8V83.5z M17.6,79.5h-0.8v-1h0.8V79.5z M17.6,75.5h-0.8v-1h0.8V75.5z
			 M17.6,71.5h-0.8v-1h0.8V71.5z M17.6,67.5h-0.8v-1h0.8V67.5z M17.6,63.5h-0.8v-1h0.8V63.5z M17.6,59.5h-0.8v-1h0.8V59.5z"/>
		<rect x="17.2" y="629.8" class="st0" width="24" height="24"/>
		<path d="M68.6,637.1c0.5,0.2,0.8,0.6,1.1,1.1c0.2,0.5,0.4,1,0.3,1.6c0,0.5-0.1,1.1-0.3,1.6c-0.2,0.5-0.6,0.9-1.1,1.1
			c-0.6,0.3-1.2,0.4-1.9,0.4h-3.5v4.4h-1.3v-10.6h4.9C67.4,636.7,68,636.8,68.6,637.1z M67.7,641.6c0.3-0.2,0.5-0.4,0.7-0.7
			s0.2-0.7,0.2-1.1c0-0.4-0.1-0.8-0.2-1.1s-0.4-0.5-0.7-0.7c-0.4-0.2-0.8-0.3-1.2-0.2h-3.2v4.1h3.2
			C66.8,641.9,67.3,641.8,67.7,641.6z"/>
		<path d="M72.8,647.1c-0.6-0.4-1.1-0.9-1.4-1.5c-0.3-0.7-0.5-1.4-0.5-2.2c0-0.7,0.1-1.5,0.5-2.2c0.3-0.6,0.8-1.2,1.4-1.5
			c1.4-0.7,3-0.7,4.4,0c0.6,0.4,1.1,0.9,1.4,1.5c0.3,0.7,0.5,1.4,0.4,2.2c0,0.8-0.1,1.5-0.4,2.2c-0.3,0.6-0.8,1.2-1.4,1.5
			c-0.7,0.4-1.4,0.6-2.2,0.6C74.3,647.6,73.5,647.5,72.8,647.1z M72.6,645.2c0.2,0.4,0.5,0.8,0.9,1c1,0.4,2,0.4,3,0
			c0.4-0.2,0.7-0.6,0.9-1c0.2-0.6,0.3-1.2,0.3-1.8s-0.1-1.2-0.3-1.8c-0.2-0.4-0.5-0.8-0.9-1c-1-0.4-2-0.4-3,0
			c-0.4,0.2-0.7,0.6-0.9,1c-0.2,0.6-0.3,1.2-0.3,1.8C72.3,644,72.4,644.6,72.6,645.2z"/>
		<path d="M80.8,639.4h1.3v8h-1.3V639.4z M82,641.8c0.2-0.7,0.6-1.3,1.1-1.8s1.2-0.7,1.9-0.7h0.3v1.3H85c-0.6-0.1-1.3,0.1-1.8,0.5
			c-0.4,0.3-0.7,0.8-0.9,1.3c-0.2,0.7-0.2,1.4-0.2,2.1h-0.4C81.6,643.5,81.7,642.6,82,641.8L82,641.8z"/>
		<path d="M88,647.2c-0.3-0.1-0.5-0.3-0.6-0.6s-0.2-0.7-0.2-1.1v-5.1h-1.6v-0.7l1.7-0.4l0.5-1.7h0.7v1.8h2.6v1h-2.6v6H91v1h-1.9
			C88.8,647.4,88.4,647.3,88,647.2z"/>
		<path d="M93.3,647.3c-0.4-0.2-0.7-0.4-0.9-0.8c-0.2-0.4-0.4-0.8-0.3-1.3c0-0.4,0.1-0.8,0.2-1.1c0.2-0.3,0.4-0.6,0.8-0.8
			s0.9-0.4,1.4-0.5l2-0.3c0.3,0,0.6-0.1,0.9-0.3c0.2-0.2,0.3-0.4,0.3-0.7s-0.1-0.5-0.2-0.8c-0.1-0.2-0.4-0.4-0.6-0.5
			c-0.4-0.1-0.8-0.2-1.2-0.2c-0.6-0.1-1.2,0.1-1.6,0.5c-0.4,0.3-0.6,0.8-0.6,1.3h-1.2c0-0.5,0.2-1,0.4-1.5c0.3-0.4,0.7-0.8,1.2-1
			c0.6-0.2,1.2-0.4,1.9-0.3c0.6,0,1.2,0.1,1.8,0.3c0.4,0.2,0.8,0.5,1.1,0.9c0.2,0.4,0.3,0.8,0.3,1.3v3.8c0,0.3,0,0.6,0,0.9
			c0,0.3,0,0.7,0.1,1H98c0-0.3-0.1-0.7-0.1-1s0-0.6,0-0.9c-0.1,0.4-0.3,0.7-0.6,1c-0.3,0.3-0.6,0.6-1,0.8c-0.5,0.2-1,0.3-1.5,0.3
			C94.3,647.5,93.8,647.5,93.3,647.3z M96.5,646.2c0.4-0.3,0.7-0.7,0.9-1.1c0.2-0.5,0.3-1,0.3-1.5v-0.7c-0.2,0.1-0.3,0.2-0.5,0.3
			s-0.4,0.2-0.7,0.2h-0.2l-1.3,0.3c-0.4,0.1-0.9,0.2-1.2,0.5c-0.3,0.3-0.4,0.6-0.4,1s0.1,0.8,0.4,1s0.7,0.4,1.2,0.3
			C95.5,646.6,96.1,646.4,96.5,646.2z"/>
		<path d="M102.2,647.2c-0.3-0.1-0.5-0.3-0.6-0.6s-0.2-0.7-0.2-1.1v-5.1h-1.5v-0.7l1.7-0.4l0.5-1.7h0.7v1.8h2.6v1h-2.6v6h2.5v1h-1.9
			C103,647.4,102.6,647.3,102.2,647.2z"/>
		<path d="M107.6,647.3c-0.4-0.2-0.7-0.4-0.9-0.8c-0.2-0.4-0.4-0.8-0.3-1.3c0-0.4,0.1-0.8,0.2-1.1c0.2-0.3,0.4-0.6,0.8-0.8
			s0.9-0.4,1.4-0.5l2-0.3c0.3,0,0.6-0.1,0.9-0.3c0.2-0.2,0.3-0.4,0.3-0.7s-0.1-0.5-0.2-0.8c-0.1-0.2-0.3-0.4-0.6-0.5
			c-0.4-0.1-0.8-0.2-1.2-0.2c-0.6,0-1.2,0.1-1.6,0.5c-0.4,0.3-0.6,0.8-0.6,1.3h-1.3c0-0.5,0.2-1,0.4-1.5c0.3-0.4,0.7-0.8,1.2-1
			c1.2-0.4,2.5-0.4,3.6,0c0.4,0.2,0.8,0.5,1.1,0.9c0.2,0.4,0.4,0.8,0.3,1.3v3.8c0,0.3,0,0.6,0,0.9s0,0.7,0.1,1H112
			c0-0.3-0.1-0.7-0.1-1s0-0.6,0-0.9c-0.1,0.4-0.3,0.7-0.5,1c-0.3,0.3-0.6,0.6-1,0.8c-0.5,0.2-1,0.3-1.5,0.3
			C108.4,647.5,108,647.5,107.6,647.3z M110.7,646.2c0.4-0.3,0.7-0.7,0.9-1.1c0.2-0.5,0.3-1,0.3-1.5v-0.7c-0.2,0.1-0.3,0.2-0.5,0.3
			s-0.4,0.2-0.7,0.2h-0.2l-1.3,0.3c-0.4,0.1-0.9,0.2-1.2,0.5c-0.3,0.3-0.4,0.6-0.4,1s0.1,0.8,0.4,1s0.7,0.4,1.2,0.3
			C109.7,646.6,110.3,646.4,110.7,646.2z"/>
		<path d="M120,647.1c-0.6-0.4-1-0.9-1.3-1.5c-0.3-0.7-0.4-1.5-0.4-2.2s0.1-1.5,0.4-2.2c0.3-0.6,0.8-1.1,1.3-1.5
			c0.7-0.4,1.4-0.6,2.2-0.5c0.7,0,1.4,0.2,2,0.5s1,0.8,1.3,1.4c0.3,0.6,0.5,1.4,0.4,2.1v0.2c0,0.1,0,0.2,0,0.3h-6.7v-1h6l-0.6,0.6
			c0-0.6,0-1.2-0.2-1.8c-0.2-0.4-0.5-0.8-0.8-1c-0.4-0.2-0.9-0.3-1.4-0.3s-1,0.1-1.5,0.3c-0.4,0.2-0.7,0.6-0.9,1.1
			c-0.2,0.6-0.3,1.2-0.3,1.9s0.1,1.3,0.3,1.9c0.2,0.5,0.5,0.8,0.9,1.1c0.5,0.2,1,0.3,1.5,0.3c0.4,0,0.9-0.1,1.3-0.2
			c0.3-0.1,0.6-0.3,0.8-0.6c0.2-0.3,0.3-0.6,0.4-0.9h1.2c-0.1,0.5-0.2,0.9-0.5,1.3c-0.3,0.4-0.7,0.8-1.2,1c-0.6,0.3-1.4,0.4-2.1,0.4
			C121.4,647.6,120.7,647.4,120,647.1z"/>
		<path d="M127.6,639.4h1.3v2.5v0.3v5.2h-1.3L127.6,639.4z M128.7,641.8c0.2-0.7,0.6-1.3,1.1-1.8c0.6-0.5,1.3-0.7,2-0.7h0.3v1.3
			h-0.4c-0.6-0.1-1.3,0.1-1.8,0.5c-0.4,0.3-0.7,0.8-0.9,1.3c-0.2,0.7-0.2,1.4-0.2,2.1h-0.4C128.4,643.5,128.5,642.6,128.7,641.8
			L128.7,641.8z"/>
		<path d="M134.6,647.1c-0.6-0.4-1.1-0.9-1.4-1.5c-0.3-0.7-0.5-1.4-0.5-2.2c0-0.7,0.1-1.5,0.5-2.2c0.3-0.6,0.8-1.2,1.4-1.5
			c1.4-0.7,3-0.7,4.4,0c0.6,0.4,1.1,0.9,1.4,1.5c0.3,0.7,0.5,1.4,0.4,2.2c0,0.8-0.1,1.5-0.4,2.2c-0.3,0.6-0.8,1.2-1.4,1.5
			c-0.7,0.4-1.4,0.6-2.2,0.6C136,647.6,135.3,647.5,134.6,647.1z M134.4,645.2c0.2,0.4,0.5,0.8,0.9,1c0.5,0.2,1,0.4,1.5,0.3
			c0.5,0,1-0.1,1.5-0.3c0.4-0.2,0.7-0.6,0.9-1c0.2-0.6,0.3-1.2,0.3-1.8s-0.1-1.2-0.3-1.8c-0.2-0.4-0.5-0.8-0.9-1
			c-0.5-0.2-1-0.3-1.5-0.3s-1.1,0.1-1.5,0.3s-0.7,0.6-0.9,1c-0.2,0.6-0.3,1.2-0.3,1.8C134,644,134.2,644.6,134.4,645.2L134.4,645.2z
			"/>
		<path d="M143.7,646.7c-0.5-0.3-1-0.8-1.2-1.4c-0.3-0.7-0.4-1.4-0.4-2.2c-0.1-1.1,0.3-2.1,0.9-3c0.7-0.7,1.7-1.1,2.8-1.1
			c1-0.1,1.9,0.3,2.6,1c0.6,0.9,0.9,1.9,0.9,3c0,0.8-0.1,1.5-0.4,2.2c-0.2,0.6-0.6,1-1.1,1.3c-0.6,0.3-1.3,0.5-1.9,0.5
			C145.1,647.2,144.4,647.1,143.7,646.7z M144.1,650.4c-0.5-0.2-1-0.5-1.3-1s-0.5-1-0.5-1.5h1.3c0,0.4,0.1,0.7,0.3,1
			s0.5,0.5,0.8,0.7c0.5,0.2,0.9,0.2,1.4,0.2s1-0.1,1.5-0.2c0.4-0.1,0.7-0.4,0.9-0.8c0.2-0.4,0.3-0.9,0.3-1.4v-8h1.2v8
			c0,0.6-0.1,1.3-0.4,1.8c-0.3,0.5-0.7,0.9-1.3,1.1c-0.7,0.3-1.5,0.4-2.3,0.4C145.4,650.7,144.7,650.6,144.1,650.4z M147.5,645.9
			c0.4-0.2,0.7-0.6,0.9-1c0.4-1.1,0.4-2.3,0-3.5c-0.2-0.4-0.5-0.8-0.9-1c-0.5-0.2-1-0.3-1.5-0.3s-1,0.1-1.5,0.3
			c-0.4,0.2-0.7,0.6-0.9,1c-0.2,0.5-0.3,1.1-0.3,1.7c0,0.6,0.1,1.2,0.3,1.8c0.2,0.4,0.5,0.8,0.9,1c0.5,0.2,1,0.3,1.5,0.3
			C146.6,646.2,147.1,646.1,147.5,645.9L147.5,645.9z"/>
		<path d="M152.9,647.3c-0.4-0.2-0.7-0.4-0.9-0.8c-0.2-0.4-0.3-0.8-0.3-1.3c0-0.4,0.1-0.8,0.2-1.1c0.2-0.3,0.5-0.6,0.8-0.8
			c0.4-0.2,0.9-0.4,1.4-0.5l2-0.3c0.3,0,0.6-0.1,0.9-0.3c0.2-0.2,0.3-0.4,0.3-0.7s-0.1-0.5-0.2-0.8c-0.1-0.2-0.4-0.4-0.6-0.5
			c-0.4-0.1-0.8-0.2-1.2-0.2c-0.6-0.1-1.2,0.1-1.6,0.5c-0.4,0.3-0.6,0.8-0.6,1.3h-1.3c0-0.5,0.2-1,0.4-1.5c0.3-0.4,0.7-0.8,1.2-1
			c0.6-0.2,1.2-0.4,1.9-0.3c0.6,0,1.2,0.1,1.8,0.3c0.4,0.2,0.8,0.5,1.1,0.9c0.2,0.4,0.3,0.8,0.3,1.3v3.8c0,0.3,0,0.6,0,0.9
			c0,0.3,0,0.7,0.1,1h-1.1c-0.1-0.3-0.1-0.7-0.1-1s0-0.6,0-0.9c-0.1,0.4-0.3,0.7-0.5,1c-0.3,0.3-0.6,0.6-1,0.8
			c-0.5,0.2-1,0.3-1.5,0.3C153.8,647.5,153.3,647.5,152.9,647.3z M156.1,646.2c0.4-0.3,0.7-0.7,0.9-1.2s0.3-1,0.3-1.5v-0.7
			c-0.2,0.1-0.3,0.2-0.5,0.3s-0.4,0.2-0.7,0.2h-0.2l-1.3,0.3c-0.4,0.1-0.9,0.2-1.2,0.5c-0.6,0.5-0.6,1.4,0,2l0,0
			c0.3,0.2,0.7,0.4,1.1,0.3C155,646.5,155.6,646.4,156.1,646.2L156.1,646.2z"/>
		<path d="M161.8,647.2c-0.3-0.1-0.5-0.3-0.6-0.6s-0.2-0.7-0.2-1.1v-5.1h-1.5v-0.7l1.6-0.4l0.5-1.7h0.7v1.8h2.6v1h-2.6v6h2.5v1h-1.9
			C162.5,647.4,162.1,647.3,161.8,647.2z"/>
		<path d="M167.1,647.3c-0.4-0.2-0.7-0.4-0.9-0.8c-0.2-0.4-0.3-0.8-0.3-1.3c0-0.4,0.1-0.8,0.2-1.1c0.2-0.3,0.4-0.6,0.8-0.8
			c0.4-0.2,0.9-0.4,1.4-0.5l2-0.3c0.3,0,0.6-0.1,0.9-0.3c0.2-0.2,0.3-0.4,0.3-0.7s-0.1-0.5-0.2-0.8c-0.1-0.2-0.4-0.4-0.6-0.5
			c-0.4-0.1-0.8-0.2-1.2-0.2c-0.6-0.1-1.2,0.1-1.6,0.5c-0.4,0.3-0.6,0.8-0.6,1.3H166c0-0.5,0.2-1,0.4-1.5c0.3-0.4,0.7-0.8,1.2-1
			c0.6-0.2,1.2-0.4,1.9-0.3c0.6,0,1.2,0.1,1.8,0.3c0.4,0.2,0.8,0.5,1.1,0.9c0.2,0.4,0.3,0.8,0.3,1.3v3.8c0,0.3,0,0.6,0,0.9
			c0,0.3,0,0.7,0.1,1h-1.1c0-0.3-0.1-0.7-0.1-1s0-0.6,0-0.9c-0.1,0.4-0.3,0.7-0.6,1s-0.6,0.6-1,0.8c-0.5,0.2-1,0.3-1.5,0.3
			C168,647.5,167.6,647.5,167.1,647.3z M170.3,646.2c0.4-0.3,0.7-0.7,0.9-1.1c0.2-0.5,0.3-1,0.3-1.5v-0.7c-0.2,0.1-0.3,0.2-0.5,0.3
			s-0.4,0.2-0.7,0.2h-0.2l-1.3,0.3c-0.4,0.1-0.9,0.2-1.2,0.5s-0.4,0.6-0.4,1s0.1,0.8,0.4,1c0.3,0.2,0.7,0.4,1.1,0.3
			C169.3,646.6,169.8,646.4,170.3,646.2z"/>
		<rect x="287.5" y="629.8" class="st0" width="24" height="24"/>
		<g class="st1">
			<rect x="287.5" y="629.8" class="st2" width="24" height="24"/>
		</g>
		<path d="M332.1,636.7h1.3v10.6h-1.3V636.7z M333.1,646.3h5.9v1.1h-5.9V646.3z"/>
		<path d="M340.1,636.7h1.6v1.3h-1.6V636.7z M340.3,639.4h1.3v8h-1.3V639.4z"/>
		<path d="M344.2,639.4l3,7.6h-0.5l3-7.6h1.3l-3.1,8H346l-3.1-8H344.2z"/>
		<path d="M353,647.1c-0.6-0.4-1-0.9-1.3-1.5c-0.3-0.7-0.4-1.5-0.4-2.2s0.1-1.5,0.5-2.2c0.3-0.6,0.7-1.1,1.3-1.5
			c0.7-0.4,1.4-0.6,2.2-0.5c0.7,0,1.4,0.2,2,0.5s1,0.8,1.3,1.4c0.3,0.6,0.5,1.4,0.4,2.1v0.2c0,0.1,0,0.2,0,0.3h-6.7v-1h6l-0.6,0.6
			c0-0.6,0-1.2-0.2-1.8c-0.2-0.4-0.5-0.8-0.9-1s-0.9-0.3-1.4-0.3s-1,0.1-1.5,0.3c-0.4,0.2-0.7,0.6-0.9,1.1c-0.2,0.6-0.3,1.2-0.3,1.9
			s0.1,1.3,0.3,1.9c0.2,0.5,0.5,0.8,0.9,1.1c0.9,0.4,1.9,0.4,2.8,0.1c0.3-0.1,0.6-0.3,0.8-0.6c0.2-0.3,0.3-0.6,0.4-0.9h1.2
			c-0.1,0.5-0.2,0.9-0.5,1.3c-0.3,0.4-0.7,0.8-1.2,1c-0.6,0.3-1.3,0.4-2,0.4C354.5,647.6,353.7,647.5,353,647.1z"/>
		<path d="M360.6,636.2h1.3v11.2h-1.3V636.2z"/>
		<path d="M364.2,636.2h1.3v11.2h-1.3V636.2z"/>
		<path d="M367.5,636.7h1.6v1.3h-1.6V636.7z M367.6,639.4h1.3v8h-1.3V639.4z"/>
		<path d="M374.7,639.4h1.3v8h-1.3V639.4z M380.1,641.1c-0.1-0.3-0.3-0.5-0.6-0.7c-0.3-0.1-0.7-0.2-1-0.2c-0.5,0-1,0.1-1.4,0.5
			s-0.7,0.8-0.8,1.4c-0.2,0.8-0.3,1.5-0.3,2.3h-0.4V644c0-0.9,0.1-1.8,0.4-2.6c0.2-0.7,0.6-1.2,1.1-1.7c0.5-0.4,1.2-0.6,1.9-0.6
			c0.5,0,1,0.1,1.5,0.3c0.4,0.2,0.7,0.6,0.9,1c0.2,0.5,0.3,1.1,0.3,1.7v5.2h-1.3v-5C380.4,641.9,380.3,641.5,380.1,641.1
			L380.1,641.1z M385.7,641.1c-0.1-0.3-0.3-0.5-0.6-0.7c-0.3-0.1-0.7-0.2-1-0.2c-0.5,0-1,0.1-1.4,0.5s-0.7,0.8-0.8,1.4
			c-0.2,0.8-0.3,1.5-0.3,2.3h-0.5c0-0.9,0.1-1.9,0.3-2.8c0.2-0.7,0.5-1.3,1.1-1.8s1.3-0.7,2-0.6c0.5,0,1.1,0.1,1.5,0.3
			s0.7,0.6,0.9,1c0.2,0.5,0.3,1.1,0.3,1.7v5.2H386v-5C386,641.9,385.9,641.5,385.7,641.1L385.7,641.1z"/>
		<path d="M389,636.7h1.6v1.3H389V636.7z M389.2,639.4h1.3v8h-1.3V639.4z"/>
		<path d="M392.7,639.4h1.3v8h-1.3V639.4z M393.9,641.6c0.2-0.7,0.6-1.3,1.1-1.8c0.6-0.4,1.3-0.7,2-0.6c0.6,0,1.1,0.1,1.6,0.4
			c0.4,0.2,0.7,0.6,0.9,1c0.2,0.6,0.3,1.1,0.3,1.7v5.1h-1.3v-5c0-0.5-0.1-0.9-0.2-1.3c-0.1-0.3-0.4-0.5-0.6-0.7
			c-0.3-0.1-0.7-0.2-1-0.2c-0.5,0-1,0.1-1.5,0.5c-0.4,0.4-0.8,0.8-0.9,1.4c-0.2,0.7-0.3,1.5-0.3,2.3h-0.4
			C393.6,643.3,393.7,642.4,393.9,641.6z"/>
		<path d="M401.7,636.7h1.6v1.3h-1.6V636.7z M401.9,639.4h1.3v8h-1.3V639.4z"/>
		<path d="M405.4,639.4h1.3v8h-1.3V639.4z M410.8,641.1c-0.1-0.3-0.3-0.5-0.6-0.7c-0.3-0.1-0.7-0.2-1-0.2c-0.5,0-1,0.1-1.4,0.5
			s-0.7,0.8-0.8,1.4c-0.2,0.8-0.3,1.5-0.3,2.3h-0.4V644c0-0.9,0.1-1.8,0.4-2.6c0.2-0.7,0.6-1.2,1.1-1.7c0.5-0.4,1.2-0.6,1.9-0.6
			c0.5,0,1.1,0.1,1.5,0.3s0.7,0.6,0.9,1c0.2,0.5,0.3,1.1,0.3,1.7v5.2H411v-5C411,641.9,410.9,641.5,410.8,641.1L410.8,641.1z
			 M416.4,641.1c-0.1-0.3-0.3-0.5-0.6-0.7c-0.8-0.3-1.7-0.3-2.4,0.2c-0.4,0.4-0.7,0.8-0.8,1.4c-0.2,0.8-0.3,1.5-0.3,2.3h-0.5
			c0-0.9,0.1-1.9,0.3-2.8c0.2-0.7,0.5-1.3,1.1-1.8s1.3-0.7,2-0.6c0.5,0,1,0.1,1.5,0.3c0.4,0.2,0.7,0.6,0.9,1
			c0.2,0.5,0.3,1.1,0.3,1.7v5.2h-1.3v-5C416.6,641.9,416.6,641.5,416.4,641.1L416.4,641.1z"/>
		<path d="M419.7,636.7h1.6v1.3h-1.6V636.7z M419.9,639.4h1.3v8h-1.3V639.4z"/>
		<path d="M432.7,640.2c0.6,0.9,1,2,0.9,3.1c0,0.8-0.1,1.5-0.4,2.3c-0.2,0.6-0.7,1.1-1.2,1.5c-0.6,0.4-1.2,0.5-1.9,0.5
			c-0.7,0-1.4-0.2-2-0.5c-0.5-0.4-1-0.9-1.2-1.5c-0.5-1.4-0.5-3,0-4.4c0.2-0.6,0.7-1.1,1.2-1.5c0.6-0.4,1.3-0.6,2-0.5
			C431.1,639,432.1,639.5,432.7,640.2z M428.9,640.5c-0.4,0.2-0.7,0.6-0.9,1.1c-0.2,0.6-0.3,1.2-0.3,1.8s0.1,1.2,0.3,1.8
			c0.2,0.4,0.5,0.8,0.9,1.1c0.5,0.3,1,0.4,1.5,0.4s1-0.1,1.5-0.3c0.4-0.2,0.8-0.6,1-1c0.5-1.2,0.5-2.5,0-3.6c-0.2-0.5-0.6-0.8-1-1.1
			c-0.5-0.2-1-0.3-1.5-0.3C429.8,640.1,429.3,640.2,428.9,640.5z M434.4,647.4h-1.3v-11.2h1.3V647.4z"/>
		<path d="M437.9,647.1c-0.6-0.4-1-0.9-1.3-1.5c-0.3-0.7-0.4-1.5-0.4-2.2s0.1-1.5,0.5-2.2c0.3-0.6,0.7-1.2,1.3-1.5
			c0.7-0.4,1.4-0.6,2.2-0.5c0.7,0,1.4,0.2,2,0.5s1,0.8,1.3,1.4c0.3,0.6,0.5,1.4,0.4,2.1v0.2c0,0.1,0,0.2,0,0.3h-6.7v-1h6l-0.6,0.6
			c0-0.6,0-1.2-0.2-1.8c-0.2-0.4-0.5-0.8-0.9-1s-0.9-0.3-1.4-0.3s-1,0.1-1.5,0.3c-0.4,0.2-0.7,0.6-0.9,1.1c-0.2,0.6-0.3,1.2-0.3,1.9
			s0.1,1.3,0.3,1.9c0.2,0.5,0.5,0.8,0.9,1.1c0.5,0.2,1,0.3,1.5,0.3c0.4,0,0.9-0.1,1.3-0.2c0.3-0.1,0.6-0.3,0.8-0.6
			c0.2-0.3,0.3-0.6,0.4-0.9h1.2c-0.1,0.5-0.2,0.9-0.5,1.3c-0.3,0.4-0.7,0.8-1.2,1c-0.6,0.3-1.3,0.4-2,0.4
			C439.3,647.6,438.5,647.4,437.9,647.1z"/>
		<path d="M445.5,636.2h1.3v11.2h-1.3V636.2z"/>
		<path d="M449,636.2h1.3v11.2H449V636.2z"/>
		<path d="M453.4,647.3c-0.4-0.2-0.7-0.4-0.9-0.8c-0.2-0.4-0.3-0.8-0.3-1.3c0-0.4,0.1-0.8,0.2-1.1c0.2-0.3,0.4-0.6,0.8-0.8
			s0.9-0.4,1.4-0.5l2-0.3c0.3,0,0.6-0.1,0.9-0.3c0.2-0.2,0.3-0.4,0.3-0.7s-0.1-0.5-0.2-0.8c-0.1-0.2-0.4-0.4-0.6-0.5
			c-0.4-0.1-0.8-0.2-1.2-0.2c-0.6-0.1-1.2,0.1-1.6,0.5c-0.4,0.3-0.6,0.8-0.6,1.3h-1.3c0-0.5,0.2-1,0.4-1.5c0.3-0.4,0.7-0.8,1.2-1
			c0.6-0.2,1.2-0.4,1.9-0.3c0.6,0,1.2,0.1,1.8,0.3c0.4,0.2,0.8,0.5,1.1,0.9c0.2,0.4,0.3,0.8,0.3,1.3v3.8c0,0.3,0,0.6,0,0.9
			c0,0.3,0,0.7,0.1,1H458c0-0.3-0.1-0.7-0.1-1s0-0.6,0-0.9c-0.1,0.4-0.3,0.7-0.5,1c-0.3,0.3-0.6,0.6-1,0.8c-0.5,0.2-1,0.3-1.5,0.3
			C454.3,647.5,453.8,647.5,453.4,647.3z M456.5,646.2c0.4-0.3,0.7-0.7,0.9-1.1c0.2-0.5,0.3-1,0.3-1.5v-0.7
			c-0.2,0.1-0.3,0.2-0.5,0.3s-0.4,0.2-0.7,0.2h-0.2l-1.3,0.3c-0.4,0.1-0.9,0.2-1.2,0.5c-0.3,0.3-0.4,0.6-0.4,1s0.1,0.8,0.4,1
			s0.7,0.4,1.1,0.3C455.5,646.6,456.1,646.4,456.5,646.2z"/>
		<path d="M464.6,639.4h1.3v11.2h-1.3V639.4z M466.3,646.5c-1.2-1.9-1.2-4.3,0-6.3c0.6-0.8,1.6-1.2,2.6-1.1c0.7,0,1.4,0.2,2,0.5
			c0.5,0.4,1,0.9,1.2,1.5c0.5,1.4,0.5,3,0,4.4c-0.2,0.6-0.7,1.1-1.2,1.5c-0.6,0.4-1.3,0.6-2,0.5
			C467.9,647.7,466.9,647.3,466.3,646.5L466.3,646.5z M470.1,646.2c0.4-0.3,0.7-0.6,0.9-1.1c0.4-1.2,0.4-2.4,0-3.6
			c-0.2-0.4-0.5-0.8-0.9-1.1s-1-0.4-1.5-0.3c-0.5,0-1,0.1-1.5,0.3c-0.4,0.2-0.8,0.6-1,1.1c-0.2,0.6-0.4,1.2-0.3,1.8
			c0,0.6,0.1,1.3,0.3,1.8c0.2,0.4,0.5,0.8,1,1s1,0.4,1.5,0.3C469.2,646.6,469.7,646.5,470.1,646.2L470.1,646.2z"/>
		<path d="M475.6,647.1c-0.6-0.4-1.1-0.9-1.4-1.5c-0.3-0.7-0.5-1.4-0.5-2.2c0-0.7,0.1-1.5,0.5-2.2c0.3-0.6,0.8-1.1,1.4-1.5
			c1.4-0.7,3-0.7,4.4,0c0.6,0.4,1.1,0.9,1.4,1.5c0.3,0.7,0.5,1.4,0.5,2.2s-0.1,1.5-0.5,2.2c-0.3,0.6-0.8,1.2-1.4,1.5
			c-0.7,0.4-1.4,0.6-2.2,0.6C477.1,647.6,476.3,647.5,475.6,647.1z M475.4,645.2c0.2,0.4,0.5,0.8,0.9,1c0.5,0.2,1,0.4,1.5,0.3
			c0.5,0,1-0.1,1.5-0.3c0.4-0.2,0.7-0.6,0.9-1c0.2-0.6,0.3-1.2,0.3-1.8s-0.1-1.2-0.3-1.8c-0.2-0.4-0.5-0.8-0.9-1
			c-0.5-0.2-1-0.3-1.5-0.3s-1.1,0.1-1.5,0.3s-0.7,0.6-0.9,1c-0.2,0.6-0.3,1.2-0.3,1.8S475.2,644.6,475.4,645.2L475.4,645.2z"/>
		<path d="M483.6,639.4h1.3v2.5v0.3v5.2h-1.3V639.4z M484.8,641.8c0.2-0.7,0.6-1.3,1.1-1.8s1.2-0.7,2-0.7h0.3v1.3h-0.4
			c-0.6,0-1.2,0.1-1.7,0.5c-0.4,0.3-0.7,0.8-0.9,1.3c-0.2,0.7-0.2,1.4-0.2,2.1h-0.5C484.4,643.5,484.5,642.6,484.8,641.8z"/>
		<path d="M490.8,647.2c-0.3-0.1-0.5-0.3-0.6-0.6s-0.2-0.7-0.2-1.1v-5.1h-1.5v-0.7l1.6-0.4l0.5-1.7h0.7v1.8h2.6v1h-2.6v6h2.5v1h-1.9
			C491.5,647.4,491.1,647.3,490.8,647.2z"/>
		<path d="M496.1,647.3c-0.4-0.2-0.7-0.4-0.9-0.8c-0.2-0.4-0.3-0.8-0.3-1.3c0-0.4,0.1-0.8,0.2-1.1c0.2-0.3,0.5-0.6,0.8-0.8
			c0.4-0.2,0.9-0.4,1.4-0.5l2-0.3c0.3,0,0.6-0.1,0.9-0.3c0.2-0.2,0.3-0.4,0.3-0.7s-0.1-0.5-0.2-0.8c-0.1-0.2-0.4-0.4-0.6-0.5
			c-0.4-0.1-0.8-0.2-1.2-0.2c-0.6-0.1-1.2,0.1-1.6,0.5c-0.4,0.3-0.6,0.8-0.6,1.3H495c0-0.5,0.2-1,0.4-1.5c0.3-0.4,0.7-0.8,1.2-1
			c0.6-0.2,1.2-0.4,1.9-0.3c0.6,0,1.2,0.1,1.8,0.3c0.4,0.2,0.8,0.5,1,0.9s0.4,0.8,0.3,1.3v3.8c0,0.3,0,0.6,0,0.9s0,0.7,0.1,1h-1.2
			c0-0.3-0.1-0.7-0.1-1s0-0.6,0-0.9c-0.1,0.4-0.3,0.7-0.5,1c-0.3,0.3-0.6,0.6-1,0.8c-0.5,0.2-1,0.3-1.5,0.3
			C497,647.5,496.6,647.5,496.1,647.3z M499.3,646.2c0.4-0.3,0.7-0.7,0.9-1.1c0.2-0.5,0.3-1,0.3-1.5v-0.7c-0.2,0.1-0.3,0.2-0.5,0.3
			s-0.4,0.2-0.7,0.2h-0.2l-1.3,0.3c-0.4,0.1-0.9,0.2-1.2,0.5c-0.3,0.3-0.4,0.6-0.4,1s0.1,0.8,0.4,1s0.7,0.4,1.2,0.3
			C498.3,646.6,498.8,646.4,499.3,646.2z"/>
		<path d="M505,647.2c-0.3-0.1-0.5-0.3-0.6-0.6s-0.2-0.7-0.2-1.1v-5.1h-1.5v-0.7l1.6-0.4l0.5-1.7h0.7v1.8h2.6v1h-2.6v6h2.5v1h-1.9
			C505.8,647.4,505.4,647.3,505,647.2z"/>
		<path d="M510.4,647.3c-0.4-0.2-0.7-0.4-0.9-0.8c-0.2-0.4-0.3-0.8-0.3-1.3c0-0.4,0.1-0.8,0.2-1.1c0.2-0.3,0.4-0.6,0.8-0.8
			s0.9-0.4,1.4-0.5l2-0.3c0.3,0,0.6-0.1,0.9-0.3c0.2-0.2,0.3-0.4,0.3-0.7s-0.1-0.5-0.2-0.8c-0.1-0.2-0.4-0.4-0.6-0.5
			c-0.4-0.1-0.8-0.2-1.2-0.2c-0.6-0.1-1.2,0.1-1.6,0.5c-0.4,0.3-0.6,0.8-0.6,1.3h-1.3c0-0.5,0.2-1,0.4-1.5c0.3-0.4,0.7-0.8,1.2-1
			c0.6-0.2,1.2-0.4,1.9-0.3c0.6,0,1.2,0.1,1.8,0.3c0.4,0.2,0.8,0.5,1.1,0.9c0.2,0.4,0.3,0.8,0.3,1.3v3.8c0,0.3,0,0.6,0,0.9
			c0,0.3,0,0.7,0.1,1h-1.2c0-0.3-0.1-0.7-0.1-1s0-0.6,0-0.9c-0.1,0.4-0.3,0.7-0.5,1c-0.3,0.3-0.6,0.6-1,0.8c-0.5,0.2-1,0.3-1.5,0.3
			C511.2,647.5,510.8,647.5,510.4,647.3z M513.5,646.2c0.4-0.3,0.7-0.7,0.9-1.1c0.2-0.5,0.3-1,0.3-1.5v-0.7
			c-0.2,0.1-0.3,0.2-0.5,0.3s-0.4,0.2-0.7,0.2h-0.2l-1.3,0.3c-0.4,0.1-0.9,0.2-1.2,0.5c-0.3,0.3-0.4,0.6-0.4,1s0.1,0.8,0.4,1
			s0.7,0.4,1.1,0.3C512.5,646.6,513.1,646.4,513.5,646.2z"/>
		<path d="M522.8,647.1c-0.6-0.4-1-0.9-1.3-1.5c-0.3-0.7-0.4-1.5-0.4-2.2s0.1-1.5,0.5-2.2c0.3-0.6,0.8-1.2,1.3-1.5
			c0.7-0.4,1.4-0.6,2.2-0.5c0.7,0,1.4,0.2,2,0.5s1,0.8,1.3,1.4c0.3,0.6,0.5,1.4,0.4,2.1v0.2c0,0.1,0,0.2,0,0.3H522v-1h6l-0.6,0.6
			c0-0.6,0-1.2-0.2-1.8c-0.2-0.4-0.5-0.8-0.8-1c-0.4-0.2-0.9-0.3-1.4-0.3s-1,0.1-1.5,0.3c-0.4,0.2-0.7,0.6-0.9,1.1
			c-0.2,0.6-0.3,1.2-0.3,1.9c0,0.6,0.1,1.3,0.3,1.9c0.2,0.5,0.5,0.8,1,1.1c0.5,0.2,1,0.3,1.5,0.3c0.4,0,0.9-0.1,1.3-0.2
			c0.3-0.1,0.6-0.3,0.8-0.6s0.4-0.6,0.4-0.9h1.2c-0.1,0.5-0.2,0.9-0.5,1.3c-0.3,0.4-0.7,0.8-1.2,1c-0.6,0.3-1.4,0.4-2.1,0.4
			C524.2,647.6,523.4,647.4,522.8,647.1z"/>
		<path d="M530.4,639.4h1.3v2.5v0.3v5.2h-1.3V639.4z M531.5,641.8c0.2-0.7,0.6-1.3,1.1-1.8s1.2-0.7,1.9-0.7h0.3v1.3h-0.3
			c-0.6-0.1-1.3,0.1-1.8,0.5c-0.4,0.3-0.7,0.8-0.9,1.3c-0.2,0.7-0.2,1.4-0.2,2.1h-0.5C531.2,643.5,531.3,642.6,531.5,641.8
			L531.5,641.8z"/>
		<path d="M537.4,647.1c-0.6-0.4-1.1-0.9-1.4-1.5c-0.3-0.7-0.5-1.4-0.5-2.2c0-0.7,0.1-1.5,0.5-2.2c0.3-0.6,0.8-1.2,1.4-1.5
			c1.4-0.7,3-0.7,4.4,0c0.6,0.4,1.1,0.9,1.4,1.5c0.3,0.7,0.5,1.4,0.5,2.2s-0.1,1.5-0.5,2.2c-0.3,0.6-0.8,1.2-1.4,1.5
			c-0.7,0.4-1.4,0.6-2.2,0.6C538.8,647.6,538.1,647.5,537.4,647.1z M537.2,645.2c0.2,0.4,0.5,0.8,0.9,1c0.5,0.2,1,0.4,1.5,0.3
			c0.5,0,1.1-0.1,1.5-0.3s0.7-0.6,0.9-1c0.2-0.6,0.3-1.2,0.3-1.8s-0.1-1.2-0.3-1.8c-0.2-0.4-0.5-0.8-0.9-1c-0.5-0.2-1-0.3-1.5-0.3
			s-1,0.1-1.5,0.3c-0.4,0.2-0.7,0.6-0.9,1c-0.2,0.6-0.3,1.2-0.3,1.8C536.8,644,537,644.6,537.2,645.2L537.2,645.2z"/>
		<path d="M546.5,646.7c-0.5-0.3-1-0.8-1.2-1.4c-0.3-0.7-0.4-1.4-0.4-2.2c-0.1-1.1,0.3-2.1,0.9-3c0.7-0.8,1.7-1.1,2.8-1.1
			c1-0.1,1.9,0.3,2.6,1c0.6,0.9,0.9,1.9,0.9,3c0,0.8-0.1,1.5-0.4,2.2c-0.2,0.6-0.6,1-1.1,1.3c-0.6,0.3-1.3,0.5-1.9,0.5
			C547.9,647.2,547.1,647.1,546.5,646.7z M546.9,650.4c-0.5-0.2-1-0.5-1.3-1s-0.5-1-0.5-1.5h1.3c0,0.4,0.1,0.7,0.3,1
			s0.5,0.5,0.8,0.7c0.5,0.2,0.9,0.2,1.4,0.2s1.1-0.1,1.5-0.2c0.4-0.1,0.7-0.4,0.8-0.8c0.2-0.4,0.3-0.9,0.3-1.4v-8h1.3v8
			c0,0.6-0.1,1.3-0.4,1.8c-0.3,0.5-0.7,0.9-1.3,1.1c-0.7,0.3-1.5,0.4-2.3,0.4C548.2,650.8,547.5,650.6,546.9,650.4z M550.3,645.9
			c0.4-0.2,0.7-0.6,0.9-1c0.4-1.1,0.4-2.3,0-3.5c-0.2-0.4-0.5-0.8-0.9-1c-1-0.4-2-0.4-3,0c-0.4,0.2-0.7,0.6-0.9,1
			c-0.2,0.5-0.3,1.1-0.3,1.7c0,0.6,0.1,1.2,0.3,1.8c0.2,0.4,0.5,0.8,0.9,1c0.5,0.2,1,0.3,1.5,0.3
			C549.4,646.2,549.9,646.1,550.3,645.9z"/>
		<path d="M555.7,647.3c-0.4-0.2-0.7-0.4-0.9-0.8c-0.2-0.4-0.4-0.8-0.3-1.3c0-0.4,0.1-0.8,0.2-1.1c0.2-0.3,0.4-0.6,0.8-0.8
			c0.4-0.2,0.9-0.4,1.4-0.5l2-0.3c0.3,0,0.6-0.1,0.9-0.3c0.2-0.2,0.3-0.4,0.3-0.7s-0.1-0.5-0.2-0.8c-0.1-0.2-0.4-0.4-0.6-0.5
			c-0.4-0.1-0.8-0.2-1.2-0.2c-0.6-0.1-1.2,0.1-1.6,0.5c-0.4,0.3-0.6,0.8-0.6,1.3h-1.3c0-0.5,0.2-1,0.4-1.5c0.3-0.4,0.7-0.8,1.2-1
			c0.6-0.2,1.2-0.4,1.9-0.3c0.6,0,1.2,0.1,1.8,0.3c0.4,0.2,0.8,0.5,1,0.9s0.4,0.8,0.3,1.3v3.8c0,0.3,0,0.6,0,0.9s0,0.7,0.1,1h-1.2
			c0-0.3-0.1-0.7-0.1-1s0-0.6,0-0.9c-0.1,0.4-0.3,0.7-0.5,1c-0.3,0.3-0.6,0.6-1,0.8c-0.5,0.2-1,0.3-1.5,0.3
			C556.6,647.5,556.1,647.5,555.7,647.3z M558.9,646.2c0.4-0.3,0.7-0.7,0.9-1.1c0.2-0.5,0.3-1,0.3-1.5v-0.7
			c-0.2,0.1-0.3,0.2-0.5,0.3s-0.4,0.2-0.7,0.2h-0.2l-1.3,0.3c-0.4,0.1-0.9,0.2-1.2,0.5s-0.4,0.6-0.4,1s0.1,0.8,0.4,1
			c0.3,0.2,0.7,0.4,1.2,0.3C557.9,646.6,558.4,646.4,558.9,646.2z"/>
		<path d="M564.6,647.2c-0.3-0.1-0.5-0.3-0.6-0.6s-0.2-0.7-0.2-1.1v-5.1h-1.5v-0.7l1.7-0.4l0.5-1.7h0.7v1.8h2.6v1h-2.6v6h2.5v1h-1.9
			C565.3,647.4,564.9,647.3,564.6,647.2z"/>
		<path d="M569.9,647.3c-0.4-0.2-0.7-0.4-0.9-0.8c-0.2-0.4-0.3-0.8-0.3-1.3c0-0.4,0.1-0.8,0.2-1.1c0.2-0.3,0.5-0.6,0.8-0.8
			c0.4-0.2,0.9-0.4,1.4-0.5l2-0.3c0.3,0,0.6-0.1,0.9-0.3c0.2-0.2,0.3-0.4,0.3-0.7s-0.1-0.5-0.2-0.8c-0.1-0.2-0.4-0.4-0.6-0.5
			c-0.4-0.1-0.8-0.2-1.2-0.2c-0.6-0.1-1.2,0.1-1.6,0.5c-0.4,0.3-0.6,0.8-0.6,1.3h-1.3c0-0.5,0.2-1,0.4-1.5c0.3-0.4,0.7-0.8,1.2-1
			c0.6-0.2,1.2-0.4,1.9-0.3c0.6,0,1.2,0.1,1.8,0.3c0.4,0.2,0.8,0.5,1,0.9s0.4,0.8,0.3,1.3v3.8c0,0.3,0,0.6,0,0.9c0,0.3,0,0.7,0.1,1
			h-1.2c0-0.3-0.1-0.7-0.1-1s0-0.6,0-0.9c-0.1,0.4-0.3,0.7-0.5,1c-0.3,0.3-0.6,0.6-1,0.8c-0.5,0.2-1,0.3-1.5,0.3
			C570.8,647.5,570.4,647.5,569.9,647.3z M573.1,646.2c0.4-0.3,0.7-0.7,0.9-1.2s0.3-1,0.3-1.5v-0.7c-0.2,0.1-0.3,0.2-0.5,0.3
			s-0.4,0.2-0.7,0.2h-0.2l-1.3,0.3c-0.4,0.1-0.9,0.2-1.2,0.5s-0.4,0.6-0.4,1s0.1,0.8,0.4,1c0.3,0.2,0.7,0.4,1.2,0.3
			C572.1,646.5,572.6,646.4,573.1,646.2z"/>
	</g>
</g>
<g>
	<g>
		<path d="M24.5,533.3c-0.5-0.3-1-0.8-1.2-1.4s-0.4-1.3-0.4-2.2c0-1.3,0.3-2.2,0.9-3c0.6-0.7,1.5-1.1,2.8-1.1c1.2,0,2,0.3,2.6,1
			c0.6,0.7,0.9,1.7,0.9,3c0,0.9-0.1,1.6-0.4,2.2c-0.3,0.6-0.6,1-1.1,1.3c-0.5,0.3-1.2,0.4-1.9,0.4C25.7,533.8,25.1,533.6,24.5,533.3
			z M24.9,537c-0.5-0.2-1-0.5-1.3-1c-0.3-0.4-0.5-0.9-0.5-1.6h1.3c0,0.4,0.1,0.7,0.3,1c0.2,0.3,0.4,0.5,0.8,0.7
			c0.4,0.2,0.8,0.2,1.4,0.2c0.6,0,1.2-0.1,1.5-0.2c0.4-0.2,0.7-0.4,0.9-0.8c0.2-0.3,0.3-0.8,0.3-1.4v-8h1.3v8c0,0.7-0.1,1.3-0.4,1.8
			c-0.3,0.5-0.7,0.9-1.3,1.1c-0.6,0.3-1.3,0.4-2.3,0.4C26.1,537.3,25.4,537.2,24.9,537z M28.3,532.4c0.4-0.2,0.7-0.5,0.9-1
			s0.3-1,0.3-1.7c0-0.7-0.1-1.3-0.3-1.7s-0.5-0.8-0.9-1s-0.9-0.3-1.5-0.3c-0.6,0-1.1,0.1-1.5,0.3c-0.4,0.2-0.7,0.5-0.9,1
			c-0.2,0.4-0.3,1-0.3,1.7s0.1,1.3,0.3,1.7c0.2,0.4,0.5,0.8,0.9,1c0.4,0.2,0.9,0.3,1.5,0.3C27.4,532.8,27.9,532.7,28.3,532.4z"/>
		<path d="M34.3,533.6c-0.6-0.4-1-0.9-1.3-1.5c-0.3-0.6-0.4-1.4-0.4-2.2c0-0.8,0.1-1.5,0.4-2.2c0.3-0.6,0.7-1.1,1.3-1.5
			c0.6-0.4,1.3-0.6,2.2-0.6c0.8,0,1.5,0.2,2,0.5s1,0.8,1.3,1.4c0.3,0.6,0.4,1.3,0.4,2.1v0.2c0,0.1,0,0.2,0,0.3h-6.7v-1h6l-0.6,0.6
			c0-0.7,0-1.3-0.2-1.8c-0.2-0.5-0.5-0.8-0.8-1c-0.4-0.2-0.9-0.3-1.4-0.3c-0.6,0-1.1,0.1-1.5,0.3s-0.7,0.6-0.9,1.1
			c-0.2,0.5-0.3,1.1-0.3,1.9s0.1,1.4,0.3,1.9c0.2,0.5,0.5,0.8,0.9,1.1c0.4,0.2,0.9,0.3,1.5,0.3c0.5,0,0.9-0.1,1.3-0.2
			c0.3-0.1,0.6-0.3,0.8-0.6c0.2-0.3,0.3-0.6,0.4-0.9h1.2c-0.1,0.5-0.2,0.9-0.5,1.3c-0.3,0.4-0.7,0.8-1.2,1c-0.5,0.3-1.2,0.4-2.1,0.4
			C35.6,534.2,34.9,534,34.3,533.6z"/>
		<path d="M41.9,525.9h1.3v8h-1.3V525.9z M43.1,528.1c0.2-0.8,0.6-1.4,1.1-1.8c0.5-0.4,1.2-0.6,2-0.6c0.7,0,1.2,0.1,1.6,0.4
			c0.4,0.2,0.7,0.6,0.9,1.1c0.2,0.5,0.3,1,0.3,1.7v5.1h-1.3v-5c0-0.6-0.1-1-0.2-1.3c-0.1-0.3-0.4-0.6-0.6-0.7
			c-0.3-0.1-0.6-0.2-1-0.2c-0.6,0-1.1,0.2-1.5,0.5c-0.4,0.3-0.7,0.8-0.9,1.4s-0.3,1.4-0.3,2.3h-0.4
			C42.7,529.8,42.8,528.9,43.1,528.1z"/>
	</g>
</g>
<g>
	<g>
		<path d="M98.2,525.9h1.3v8h-1.3V525.9z M103.6,527.7c-0.1-0.3-0.3-0.6-0.6-0.7c-0.3-0.1-0.6-0.2-1-0.2c-0.6,0-1,0.2-1.4,0.5
			c-0.4,0.3-0.6,0.8-0.8,1.4c-0.2,0.6-0.3,1.4-0.3,2.3h-0.4v-0.3c0-1,0.1-1.9,0.4-2.6c0.2-0.7,0.6-1.3,1.1-1.7
			c0.5-0.4,1.1-0.6,1.9-0.6c0.6,0,1.1,0.1,1.5,0.4c0.4,0.2,0.7,0.6,0.9,1s0.3,1,0.3,1.7v5.2h-1.3v-5
			C103.8,528.4,103.8,528,103.6,527.7z M109.2,527.7c-0.1-0.3-0.3-0.6-0.6-0.7c-0.3-0.1-0.6-0.2-1-0.2c-0.6,0-1.1,0.2-1.4,0.5
			c-0.4,0.3-0.6,0.8-0.8,1.4c-0.2,0.6-0.3,1.4-0.3,2.3h-0.5c0-1.1,0.1-2,0.3-2.8c0.2-0.8,0.6-1.4,1.1-1.8c0.5-0.4,1.2-0.6,2-0.6
			c0.6,0,1.1,0.1,1.5,0.4c0.4,0.2,0.7,0.6,0.9,1c0.2,0.5,0.3,1,0.3,1.7v5.2h-1.3v-5C109.4,528.4,109.4,528,109.2,527.7z"/>
		<path d="M113.6,533.9c-0.4-0.2-0.7-0.4-0.9-0.8s-0.3-0.8-0.3-1.3c0-0.4,0.1-0.8,0.2-1.1c0.2-0.3,0.4-0.6,0.8-0.8s0.8-0.4,1.4-0.5
			l2-0.3c0.4-0.1,0.7-0.2,0.9-0.3c0.2-0.1,0.3-0.4,0.3-0.7c0-0.3-0.1-0.6-0.2-0.8c-0.1-0.2-0.3-0.4-0.6-0.5
			c-0.3-0.1-0.7-0.2-1.2-0.2c-0.7,0-1.3,0.2-1.6,0.5c-0.3,0.3-0.5,0.7-0.6,1.3h-1.3c0-0.6,0.2-1.1,0.4-1.5s0.7-0.7,1.2-1
			c0.5-0.2,1.1-0.3,1.9-0.3c0.7,0,1.3,0.1,1.8,0.3s0.8,0.5,1.1,0.9c0.2,0.4,0.3,0.8,0.3,1.3v3.8c0,0.3,0,0.6,0,0.9s0,0.7,0.1,1h-1.2
			c0-0.3-0.1-0.7-0.1-1s0-0.6,0-0.9c-0.1,0.4-0.3,0.7-0.5,1c-0.2,0.3-0.6,0.6-1,0.8c-0.4,0.2-0.9,0.3-1.5,0.3
			C114.5,534.2,114,534.1,113.6,533.9z M116.8,532.7c0.4-0.3,0.7-0.6,0.9-1.1c0.2-0.5,0.3-0.9,0.3-1.5v-0.7
			c-0.2,0.1-0.3,0.2-0.5,0.3s-0.4,0.1-0.7,0.2l-0.2,0l-1.3,0.3c-0.6,0.1-1,0.3-1.2,0.5c-0.3,0.2-0.4,0.6-0.4,1c0,0.4,0.1,0.8,0.4,1
			c0.3,0.2,0.7,0.4,1.2,0.4C115.8,533.1,116.3,533,116.8,532.7z"/>
		<path d="M121.2,525.9h1.3v2.5l0,0.3v5.2h-1.3V525.9z M122.4,528.3c0.2-0.8,0.6-1.4,1.1-1.8s1.1-0.7,1.9-0.7h0.3v1.3h-0.4
			c-0.8,0-1.3,0.1-1.8,0.5s-0.7,0.8-0.9,1.3c-0.2,0.6-0.2,1.3-0.2,2.1h-0.4C122.1,530,122.2,529.1,122.4,528.3z"/>
	</g>
</g>
<g>
	<g>
		<path d="M173.5,525.9h1.3v8h-1.3V525.9z M178.9,527.7c-0.1-0.3-0.3-0.6-0.6-0.7c-0.3-0.1-0.6-0.2-1-0.2c-0.6,0-1,0.2-1.4,0.5
			c-0.4,0.3-0.6,0.8-0.8,1.4c-0.2,0.6-0.3,1.4-0.3,2.3h-0.4v-0.3c0-1,0.1-1.9,0.4-2.6c0.2-0.7,0.6-1.3,1.1-1.7
			c0.5-0.4,1.1-0.6,1.9-0.6c0.6,0,1.1,0.1,1.5,0.4c0.4,0.2,0.7,0.6,0.9,1s0.3,1,0.3,1.7v5.2h-1.3v-5
			C179.1,528.4,179,528,178.9,527.7z M184.5,527.7c-0.1-0.3-0.3-0.6-0.6-0.7c-0.3-0.1-0.6-0.2-1-0.2c-0.6,0-1.1,0.2-1.4,0.5
			c-0.4,0.3-0.6,0.8-0.8,1.4c-0.2,0.6-0.3,1.4-0.3,2.3h-0.5c0-1.1,0.1-2,0.3-2.8c0.2-0.8,0.6-1.4,1.1-1.8c0.5-0.4,1.2-0.6,2-0.6
			c0.6,0,1.1,0.1,1.5,0.4c0.4,0.2,0.7,0.6,0.9,1c0.2,0.5,0.3,1,0.3,1.7v5.2h-1.3v-5C184.7,528.4,184.6,528,184.5,527.7z"/>
		<path d="M188.8,533.9c-0.4-0.2-0.7-0.4-0.9-0.8s-0.3-0.8-0.3-1.3c0-0.4,0.1-0.8,0.2-1.1c0.2-0.3,0.4-0.6,0.8-0.8s0.8-0.4,1.4-0.5
			l2-0.3c0.4-0.1,0.7-0.2,0.9-0.3c0.2-0.1,0.3-0.4,0.3-0.7c0-0.3-0.1-0.6-0.2-0.8c-0.1-0.2-0.3-0.4-0.6-0.5
			c-0.3-0.1-0.7-0.2-1.2-0.2c-0.7,0-1.3,0.2-1.6,0.5c-0.3,0.3-0.5,0.7-0.6,1.3h-1.3c0-0.6,0.2-1.1,0.4-1.5s0.7-0.7,1.2-1
			c0.5-0.2,1.1-0.3,1.9-0.3c0.7,0,1.3,0.1,1.8,0.3s0.8,0.5,1.1,0.9c0.2,0.4,0.3,0.8,0.3,1.3v3.8c0,0.3,0,0.6,0,0.9s0,0.7,0.1,1h-1.2
			c0-0.3-0.1-0.7-0.1-1s0-0.6,0-0.9c-0.1,0.4-0.3,0.7-0.5,1c-0.2,0.3-0.6,0.6-1,0.8c-0.4,0.2-0.9,0.3-1.5,0.3
			C189.7,534.2,189.2,534.1,188.8,533.9z M192,532.7c0.4-0.3,0.7-0.6,0.9-1.1c0.2-0.5,0.3-0.9,0.3-1.5v-0.7
			c-0.2,0.1-0.3,0.2-0.5,0.3s-0.4,0.1-0.7,0.2l-0.2,0l-1.3,0.3c-0.6,0.1-1,0.3-1.2,0.5c-0.3,0.2-0.4,0.6-0.4,1c0,0.4,0.1,0.8,0.4,1
			c0.3,0.2,0.7,0.4,1.2,0.4C191.1,533.1,191.6,533,192,532.7z"/>
		<path d="M197.6,533.3c-0.5-0.3-1-0.8-1.2-1.4s-0.4-1.3-0.4-2.2c0-1.3,0.3-2.2,0.9-3c0.6-0.7,1.5-1.1,2.8-1.1c1.2,0,2,0.3,2.6,1
			c0.6,0.7,0.9,1.7,0.9,3c0,0.9-0.1,1.6-0.4,2.2c-0.3,0.6-0.6,1-1.1,1.3c-0.5,0.3-1.2,0.4-1.9,0.4
			C198.8,533.8,198.1,533.6,197.6,533.3z M197.9,537c-0.5-0.2-1-0.5-1.3-1c-0.3-0.4-0.5-0.9-0.5-1.6h1.3c0,0.4,0.1,0.7,0.3,1
			c0.2,0.3,0.4,0.5,0.8,0.7c0.4,0.2,0.8,0.2,1.4,0.2c0.6,0,1.2-0.1,1.5-0.2c0.4-0.2,0.7-0.4,0.9-0.8c0.2-0.3,0.3-0.8,0.3-1.4v-8h1.3
			v8c0,0.7-0.1,1.3-0.4,1.8c-0.3,0.5-0.7,0.9-1.3,1.1c-0.6,0.3-1.3,0.4-2.3,0.4C199.1,537.3,198.5,537.2,197.9,537z M201.4,532.4
			c0.4-0.2,0.7-0.5,0.9-1s0.3-1,0.3-1.7c0-0.7-0.1-1.3-0.3-1.7s-0.5-0.8-0.9-1s-0.9-0.3-1.5-0.3c-0.6,0-1.1,0.1-1.5,0.3
			c-0.4,0.2-0.7,0.5-0.9,1c-0.2,0.4-0.3,1-0.3,1.7s0.1,1.3,0.3,1.7c0.2,0.4,0.5,0.8,0.9,1c0.4,0.2,0.9,0.3,1.5,0.3
			C200.5,532.8,201,532.7,201.4,532.4z"/>
	</g>
</g>
<g>
	<g>
		<path d="M256.1,522.7h1.3v11.2h-1.3V522.7z"/>
		<path d="M260.7,533.8c-0.4-0.2-0.7-0.6-1-1c-0.2-0.5-0.3-1-0.3-1.8v-5.1h1.3v5c0,0.6,0.1,1,0.2,1.4c0.2,0.3,0.4,0.6,0.7,0.7
			c0.3,0.1,0.7,0.2,1.1,0.2c0.6,0,1-0.2,1.4-0.5c0.4-0.3,0.7-0.8,0.9-1.4c0.2-0.6,0.3-1.4,0.3-2.2h0.4c0,1.1-0.1,2-0.3,2.8
			c-0.2,0.8-0.6,1.4-1.1,1.8s-1.1,0.6-1.9,0.6C261.7,534.2,261.2,534.1,260.7,533.8z M265.4,531.5v-0.2v-5.3h1.3v8h-1.3V531.5z"/>
		<path d="M270,533.3c-0.5-0.3-1-0.8-1.2-1.4s-0.4-1.3-0.4-2.2c0-1.3,0.3-2.2,0.9-3c0.6-0.7,1.5-1.1,2.8-1.1c1.2,0,2,0.3,2.6,1
			c0.6,0.7,0.9,1.7,0.9,3c0,0.9-0.1,1.6-0.4,2.2c-0.3,0.6-0.6,1-1.1,1.3c-0.5,0.3-1.2,0.4-1.9,0.4
			C271.3,533.8,270.6,533.6,270,533.3z M270.4,537c-0.5-0.2-1-0.5-1.3-1c-0.3-0.4-0.5-0.9-0.5-1.6h1.3c0,0.4,0.1,0.7,0.3,1
			c0.2,0.3,0.4,0.5,0.8,0.7c0.4,0.2,0.8,0.2,1.4,0.2c0.6,0,1.2-0.1,1.5-0.2c0.4-0.2,0.7-0.4,0.9-0.8c0.2-0.3,0.3-0.8,0.3-1.4v-8h1.3
			v8c0,0.7-0.1,1.3-0.4,1.8c-0.3,0.5-0.7,0.9-1.3,1.1c-0.6,0.3-1.3,0.4-2.3,0.4C271.6,537.3,270.9,537.2,270.4,537z M273.9,532.4
			c0.4-0.2,0.7-0.5,0.9-1s0.3-1,0.3-1.7c0-0.7-0.1-1.3-0.3-1.7s-0.5-0.8-0.9-1s-0.9-0.3-1.5-0.3c-0.6,0-1.1,0.1-1.5,0.3
			c-0.4,0.2-0.7,0.5-0.9,1c-0.2,0.4-0.3,1-0.3,1.7s0.1,1.3,0.3,1.7c0.2,0.4,0.5,0.8,0.9,1c0.4,0.2,0.9,0.3,1.5,0.3
			C273,532.8,273.5,532.7,273.9,532.4z"/>
	</g>
</g>
<g>
	<g>
		<path d="M335.4,532.3c0.2,0.3,0.4,0.5,0.8,0.7s0.8,0.2,1.4,0.2c0.5,0,0.8-0.1,1.1-0.2s0.5-0.3,0.6-0.5c0.1-0.2,0.2-0.5,0.2-0.8
			c0-0.4-0.1-0.7-0.4-0.9c-0.2-0.2-0.6-0.4-1.1-0.4l-1.9-0.3c-0.7-0.1-1.2-0.3-1.6-0.7c-0.4-0.4-0.6-0.9-0.6-1.5
			c0-0.7,0.3-1.3,0.8-1.8c0.6-0.4,1.3-0.6,2.4-0.6c0.7,0,1.3,0.1,1.8,0.3c0.5,0.2,0.9,0.5,1.2,0.9s0.4,0.8,0.5,1.3h-1.3
			c0-0.5-0.2-0.8-0.6-1.1c-0.4-0.3-0.9-0.4-1.6-0.4c-0.7,0-1.1,0.1-1.4,0.4c-0.3,0.2-0.5,0.6-0.5,1c0,0.3,0.1,0.6,0.3,0.8
			c0.2,0.2,0.5,0.3,1,0.4l1.7,0.2c0.9,0.1,1.5,0.4,1.9,0.8c0.4,0.4,0.6,0.9,0.6,1.6c0,0.8-0.3,1.4-0.8,1.8c-0.5,0.4-1.4,0.6-2.4,0.6
			c-0.9,0-1.6-0.1-2.1-0.4c-0.5-0.2-0.9-0.6-1.2-1c-0.3-0.4-0.4-0.9-0.4-1.5h1.2C335.1,531.7,335.2,532,335.4,532.3z"/>
		<path d="M343.7,533.6c-0.6-0.4-1-0.9-1.3-1.5c-0.3-0.6-0.4-1.4-0.4-2.2c0-0.8,0.1-1.5,0.4-2.2c0.3-0.6,0.7-1.1,1.3-1.5
			c0.6-0.4,1.3-0.6,2.2-0.6c0.8,0,1.5,0.2,2,0.5s1,0.8,1.3,1.4c0.3,0.6,0.4,1.3,0.4,2.1v0.2c0,0.1,0,0.2,0,0.3H343v-1h6l-0.6,0.6
			c0-0.7,0-1.3-0.2-1.8c-0.2-0.5-0.5-0.8-0.8-1c-0.4-0.2-0.9-0.3-1.4-0.3c-0.6,0-1.1,0.1-1.5,0.3s-0.7,0.6-0.9,1.1
			c-0.2,0.5-0.3,1.1-0.3,1.9s0.1,1.4,0.3,1.9c0.2,0.5,0.5,0.8,0.9,1.1c0.4,0.2,0.9,0.3,1.5,0.3c0.5,0,0.9-0.1,1.3-0.2
			c0.3-0.1,0.6-0.3,0.8-0.6c0.2-0.3,0.3-0.6,0.4-0.9h1.2c-0.1,0.5-0.2,0.9-0.5,1.3c-0.3,0.4-0.7,0.8-1.2,1c-0.5,0.3-1.2,0.4-2.1,0.4
			C345.1,534.2,344.3,534,343.7,533.6z"/>
		<path d="M352.5,533.7c-0.3-0.1-0.5-0.3-0.6-0.6c-0.1-0.3-0.2-0.6-0.2-1.1V527h-1.5v-0.7l1.6-0.4l0.5-1.7h0.7v1.8h2.6v1h-2.6v6h2.5
			v1h-1.9C353.2,533.9,352.8,533.9,352.5,533.7z"/>
	</g>
</g>
<g>
	<g>
		<path d="M410.2,525.9h1.3v8h-1.3V525.9z M411.4,528.1c0.2-0.8,0.6-1.4,1.1-1.8c0.5-0.4,1.2-0.6,2-0.6c0.7,0,1.2,0.1,1.6,0.4
			c0.4,0.2,0.7,0.6,0.9,1.1c0.2,0.5,0.3,1,0.3,1.7v5.1h-1.3v-5c0-0.6-0.1-1-0.2-1.3c-0.1-0.3-0.4-0.6-0.6-0.7
			c-0.3-0.1-0.6-0.2-1-0.2c-0.6,0-1.1,0.2-1.5,0.5c-0.4,0.3-0.7,0.8-0.9,1.4s-0.3,1.4-0.3,2.3H411
			C411,529.8,411.2,528.9,411.4,528.1z"/>
		<path d="M420.7,533.6c-0.6-0.4-1.1-0.9-1.4-1.5c-0.3-0.6-0.5-1.4-0.5-2.2c0-0.8,0.2-1.5,0.5-2.2c0.3-0.6,0.8-1.1,1.4-1.5
			s1.3-0.6,2.2-0.6c0.9,0,1.6,0.2,2.2,0.6c0.6,0.4,1.1,0.9,1.4,1.5c0.3,0.6,0.4,1.4,0.4,2.2c0,0.8-0.1,1.6-0.4,2.2
			c-0.3,0.6-0.8,1.1-1.4,1.5c-0.6,0.4-1.3,0.6-2.2,0.6C422.1,534.2,421.3,534,420.7,533.6z M420.5,531.8c0.2,0.5,0.5,0.8,0.9,1.1
			s0.9,0.3,1.5,0.3c0.6,0,1.1-0.1,1.5-0.3s0.7-0.6,0.9-1.1c0.2-0.5,0.3-1.1,0.3-1.8c0-0.7-0.1-1.4-0.3-1.8s-0.5-0.8-0.9-1
			s-0.9-0.3-1.5-0.3c-0.6,0-1.1,0.1-1.5,0.3s-0.7,0.6-0.9,1c-0.2,0.5-0.3,1.1-0.3,1.8C420.2,530.7,420.3,531.3,420.5,531.8z"/>
		<path d="M429,525.9l3,7.6h-0.5l3-7.6h1.3l-3.2,8h-1.7l-3.2-8H429z"/>
	</g>
</g>
<g>
	<g>
		<path d="M489.7,533.3c-0.5-0.3-1-0.8-1.2-1.4s-0.4-1.3-0.4-2.2c0-1.3,0.3-2.2,0.9-3c0.6-0.7,1.5-1.1,2.8-1.1c1.2,0,2,0.3,2.6,1
			c0.6,0.7,0.9,1.7,0.9,3c0,0.9-0.1,1.6-0.4,2.2c-0.3,0.6-0.6,1-1.1,1.3c-0.5,0.3-1.2,0.4-1.9,0.4
			C490.9,533.8,490.3,533.6,489.7,533.3z M490.1,537c-0.5-0.2-1-0.5-1.3-1c-0.3-0.4-0.5-0.9-0.5-1.6h1.3c0,0.4,0.1,0.7,0.3,1
			c0.2,0.3,0.4,0.5,0.8,0.7c0.4,0.2,0.8,0.2,1.4,0.2c0.6,0,1.2-0.1,1.5-0.2c0.4-0.2,0.7-0.4,0.9-0.8c0.2-0.3,0.3-0.8,0.3-1.4v-8h1.3
			v8c0,0.7-0.1,1.3-0.4,1.8c-0.3,0.5-0.7,0.9-1.3,1.1c-0.6,0.3-1.3,0.4-2.3,0.4C491.3,537.3,490.6,537.2,490.1,537z M493.5,532.4
			c0.4-0.2,0.7-0.5,0.9-1s0.3-1,0.3-1.7c0-0.7-0.1-1.3-0.3-1.7s-0.5-0.8-0.9-1s-0.9-0.3-1.5-0.3c-0.6,0-1.1,0.1-1.5,0.3
			c-0.4,0.2-0.7,0.5-0.9,1c-0.2,0.4-0.3,1-0.3,1.7s0.1,1.3,0.3,1.7c0.2,0.4,0.5,0.8,0.9,1c0.4,0.2,0.9,0.3,1.5,0.3
			C492.6,532.8,493.1,532.7,493.5,532.4z"/>
		<path d="M499.5,533.6c-0.6-0.4-1-0.9-1.3-1.5c-0.3-0.6-0.4-1.4-0.4-2.2c0-0.8,0.1-1.5,0.4-2.2c0.3-0.6,0.7-1.1,1.3-1.5
			c0.6-0.4,1.3-0.6,2.2-0.6c0.8,0,1.5,0.2,2,0.5s1,0.8,1.3,1.4c0.3,0.6,0.4,1.3,0.4,2.1v0.2c0,0.1,0,0.2,0,0.3h-6.7v-1h6l-0.6,0.6
			c0-0.7,0-1.3-0.2-1.8c-0.2-0.5-0.5-0.8-0.8-1c-0.4-0.2-0.9-0.3-1.4-0.3c-0.6,0-1.1,0.1-1.5,0.3s-0.7,0.6-0.9,1.1
			c-0.2,0.5-0.3,1.1-0.3,1.9s0.1,1.4,0.3,1.9c0.2,0.5,0.5,0.8,0.9,1.1c0.4,0.2,0.9,0.3,1.5,0.3c0.5,0,0.9-0.1,1.3-0.2
			c0.3-0.1,0.6-0.3,0.8-0.6c0.2-0.3,0.3-0.6,0.4-0.9h1.2c-0.1,0.5-0.2,0.9-0.5,1.3c-0.3,0.4-0.7,0.8-1.2,1c-0.5,0.3-1.2,0.4-2.1,0.4
			C500.8,534.2,500.1,534,499.5,533.6z"/>
		<path d="M507.1,525.9h1.3v8h-1.3V525.9z M508.3,528.1c0.2-0.8,0.6-1.4,1.1-1.8c0.5-0.4,1.2-0.6,2-0.6c0.7,0,1.2,0.1,1.6,0.4
			c0.4,0.2,0.7,0.6,0.9,1.1c0.2,0.5,0.3,1,0.3,1.7v5.1H513v-5c0-0.6-0.1-1-0.2-1.3c-0.1-0.3-0.4-0.6-0.6-0.7c-0.3-0.1-0.6-0.2-1-0.2
			c-0.6,0-1.1,0.2-1.5,0.5c-0.4,0.3-0.7,0.8-0.9,1.4s-0.3,1.4-0.3,2.3h-0.4C507.9,529.8,508,528.9,508.3,528.1z"/>
	</g>
</g>
<g>
	<g>
		<path d="M563.4,525.9h1.3v8h-1.3V525.9z M568.8,527.7c-0.1-0.3-0.3-0.6-0.6-0.7c-0.3-0.1-0.6-0.2-1-0.2c-0.6,0-1,0.2-1.4,0.5
			c-0.4,0.3-0.6,0.8-0.8,1.4c-0.2,0.6-0.3,1.4-0.3,2.3h-0.4v-0.3c0-1,0.1-1.9,0.4-2.6c0.2-0.7,0.6-1.3,1.1-1.7
			c0.5-0.4,1.1-0.6,1.9-0.6c0.6,0,1.1,0.1,1.5,0.4c0.4,0.2,0.7,0.6,0.9,1s0.3,1,0.3,1.7v5.2H569v-5C569,528.4,569,528,568.8,527.7z
			 M574.4,527.7c-0.1-0.3-0.3-0.6-0.6-0.7c-0.3-0.1-0.6-0.2-1-0.2c-0.6,0-1.1,0.2-1.4,0.5c-0.4,0.3-0.6,0.8-0.8,1.4
			c-0.2,0.6-0.3,1.4-0.3,2.3h-0.5c0-1.1,0.1-2,0.3-2.8c0.2-0.8,0.6-1.4,1.1-1.8c0.5-0.4,1.2-0.6,2-0.6c0.6,0,1.1,0.1,1.5,0.4
			c0.4,0.2,0.7,0.6,0.9,1c0.2,0.5,0.3,1,0.3,1.7v5.2h-1.3v-5C574.6,528.4,574.6,528,574.4,527.7z"/>
		<path d="M578.8,533.9c-0.4-0.2-0.7-0.4-0.9-0.8s-0.3-0.8-0.3-1.3c0-0.4,0.1-0.8,0.2-1.1c0.2-0.3,0.4-0.6,0.8-0.8s0.8-0.4,1.4-0.5
			l2-0.3c0.4-0.1,0.7-0.2,0.9-0.3c0.2-0.1,0.3-0.4,0.3-0.7c0-0.3-0.1-0.6-0.2-0.8c-0.1-0.2-0.3-0.4-0.6-0.5
			c-0.3-0.1-0.7-0.2-1.2-0.2c-0.7,0-1.3,0.2-1.6,0.5c-0.3,0.3-0.5,0.7-0.6,1.3h-1.3c0-0.6,0.2-1.1,0.4-1.5s0.7-0.7,1.2-1
			c0.5-0.2,1.1-0.3,1.9-0.3c0.7,0,1.3,0.1,1.8,0.3s0.8,0.5,1.1,0.9c0.2,0.4,0.3,0.8,0.3,1.3v3.8c0,0.3,0,0.6,0,0.9s0,0.7,0.1,1h-1.2
			c0-0.3-0.1-0.7-0.1-1s0-0.6,0-0.9c-0.1,0.4-0.3,0.7-0.5,1c-0.2,0.3-0.6,0.6-1,0.8c-0.4,0.2-0.9,0.3-1.5,0.3
			C579.7,534.2,579.2,534.1,578.8,533.9z M582,532.7c0.4-0.3,0.7-0.6,0.9-1.1c0.2-0.5,0.3-0.9,0.3-1.5v-0.7
			c-0.2,0.1-0.3,0.2-0.5,0.3s-0.4,0.1-0.7,0.2l-0.2,0l-1.3,0.3c-0.6,0.1-1,0.3-1.2,0.5c-0.3,0.2-0.4,0.6-0.4,1c0,0.4,0.1,0.8,0.4,1
			c0.3,0.2,0.7,0.4,1.2,0.4C581,533.1,581.5,533,582,532.7z"/>
		<path d="M586.4,525.9h1.3v2.5l0,0.3v5.2h-1.3V525.9z M587.6,528.3c0.2-0.8,0.6-1.4,1.1-1.8s1.1-0.7,1.9-0.7h0.3v1.3h-0.4
			c-0.8,0-1.3,0.1-1.8,0.5s-0.7,0.8-0.9,1.3c-0.2,0.6-0.2,1.3-0.2,2.1h-0.4C587.3,530,587.4,529.1,587.6,528.3z"/>
	</g>
</g>
<g>
	<g>
		<path d="M638.7,525.9h1.3v8h-1.3V525.9z M644.1,527.7c-0.1-0.3-0.3-0.6-0.6-0.7c-0.3-0.1-0.6-0.2-1-0.2c-0.6,0-1,0.2-1.4,0.5
			c-0.4,0.3-0.6,0.8-0.8,1.4c-0.2,0.6-0.3,1.4-0.3,2.3h-0.4v-0.3c0-1,0.1-1.9,0.4-2.6c0.2-0.7,0.6-1.3,1.1-1.7
			c0.5-0.4,1.1-0.6,1.9-0.6c0.6,0,1.1,0.1,1.5,0.4c0.4,0.2,0.7,0.6,0.9,1s0.3,1,0.3,1.7v5.2h-1.3v-5
			C644.3,528.4,644.2,528,644.1,527.7z M649.7,527.7c-0.1-0.3-0.3-0.6-0.6-0.7c-0.3-0.1-0.6-0.2-1-0.2c-0.6,0-1.1,0.2-1.4,0.5
			c-0.4,0.3-0.6,0.8-0.8,1.4c-0.2,0.6-0.3,1.4-0.3,2.3h-0.5c0-1.1,0.1-2,0.3-2.8c0.2-0.8,0.6-1.4,1.1-1.8c0.5-0.4,1.2-0.6,2-0.6
			c0.6,0,1.1,0.1,1.5,0.4c0.4,0.2,0.7,0.6,0.9,1c0.2,0.5,0.3,1,0.3,1.7v5.2h-1.3v-5C649.9,528.4,649.8,528,649.7,527.7z"/>
		<path d="M654,533.9c-0.4-0.2-0.7-0.4-0.9-0.8c-0.2-0.3-0.3-0.8-0.3-1.3c0-0.4,0.1-0.8,0.2-1.1c0.2-0.3,0.4-0.6,0.8-0.8
			s0.8-0.4,1.4-0.5l2-0.3c0.4-0.1,0.7-0.2,0.9-0.3c0.2-0.1,0.3-0.4,0.3-0.7c0-0.3-0.1-0.6-0.2-0.8s-0.3-0.4-0.6-0.5
			c-0.3-0.1-0.7-0.2-1.2-0.2c-0.7,0-1.3,0.2-1.6,0.5c-0.3,0.3-0.5,0.7-0.6,1.3H653c0-0.6,0.2-1.1,0.4-1.5s0.7-0.7,1.2-1
			c0.5-0.2,1.1-0.3,1.9-0.3c0.7,0,1.3,0.1,1.8,0.3c0.5,0.2,0.8,0.5,1.1,0.9c0.2,0.4,0.3,0.8,0.3,1.3v3.8c0,0.3,0,0.6,0,0.9
			c0,0.3,0,0.7,0.1,1h-1.2c0-0.3-0.1-0.7-0.1-1c0-0.3,0-0.6,0-0.9c-0.1,0.4-0.3,0.7-0.5,1c-0.2,0.3-0.6,0.6-1,0.8
			c-0.4,0.2-0.9,0.3-1.5,0.3C654.9,534.2,654.4,534.1,654,533.9z M657.2,532.7c0.4-0.3,0.7-0.6,0.9-1.1c0.2-0.5,0.3-0.9,0.3-1.5
			v-0.7c-0.2,0.1-0.3,0.2-0.5,0.3s-0.4,0.1-0.7,0.2l-0.2,0l-1.3,0.3c-0.6,0.1-1,0.3-1.2,0.5c-0.3,0.2-0.4,0.6-0.4,1
			c0,0.4,0.1,0.8,0.4,1c0.3,0.2,0.7,0.4,1.2,0.4C656.3,533.1,656.8,533,657.2,532.7z"/>
		<path d="M662.8,533.3c-0.5-0.3-1-0.8-1.2-1.4c-0.3-0.6-0.4-1.3-0.4-2.2c0-1.3,0.3-2.2,0.9-3c0.6-0.7,1.5-1.1,2.8-1.1
			c1.2,0,2,0.3,2.6,1c0.6,0.7,0.9,1.7,0.9,3c0,0.9-0.1,1.6-0.4,2.2s-0.6,1-1.1,1.3c-0.5,0.3-1.2,0.4-1.9,0.4
			C664,533.8,663.3,533.6,662.8,533.3z M663.1,537c-0.5-0.2-1-0.5-1.3-1c-0.3-0.4-0.5-0.9-0.5-1.6h1.3c0,0.4,0.1,0.7,0.3,1
			c0.2,0.3,0.4,0.5,0.8,0.7c0.4,0.2,0.8,0.2,1.4,0.2c0.6,0,1.2-0.1,1.5-0.2c0.4-0.2,0.7-0.4,0.9-0.8s0.3-0.8,0.3-1.4v-8h1.3v8
			c0,0.7-0.1,1.3-0.4,1.8c-0.3,0.5-0.7,0.9-1.3,1.1c-0.6,0.3-1.3,0.4-2.3,0.4C664.3,537.3,663.7,537.2,663.1,537z M666.6,532.4
			c0.4-0.2,0.7-0.5,0.9-1s0.3-1,0.3-1.7c0-0.7-0.1-1.3-0.3-1.7s-0.5-0.8-0.9-1s-0.9-0.3-1.5-0.3c-0.6,0-1.1,0.1-1.5,0.3
			c-0.4,0.2-0.7,0.5-0.9,1c-0.2,0.4-0.3,1-0.3,1.7s0.1,1.3,0.3,1.7c0.2,0.4,0.5,0.8,0.9,1c0.4,0.2,0.9,0.3,1.5,0.3
			C665.7,532.8,666.2,532.7,666.6,532.4z"/>
	</g>
</g>
<g>
	<g>
		<path d="M954.8,533.3c-0.5-0.3-1-0.8-1.2-1.4c-0.3-0.6-0.4-1.3-0.4-2.2c0-1.3,0.3-2.2,0.9-3c0.6-0.7,1.5-1.1,2.8-1.1
			c1.2,0,2,0.3,2.6,1s0.9,1.7,0.9,3c0,0.9-0.1,1.6-0.4,2.2c-0.3,0.6-0.6,1-1.1,1.3s-1.2,0.4-1.9,0.4
			C956,533.8,955.4,533.6,954.8,533.3z M955.2,537c-0.5-0.2-1-0.5-1.3-1c-0.3-0.4-0.5-0.9-0.5-1.6h1.3c0,0.4,0.1,0.7,0.3,1
			c0.2,0.3,0.4,0.5,0.8,0.7s0.8,0.2,1.4,0.2c0.6,0,1.2-0.1,1.5-0.2s0.7-0.4,0.9-0.8c0.2-0.3,0.3-0.8,0.3-1.4v-8h1.3v8
			c0,0.7-0.1,1.3-0.4,1.8c-0.3,0.5-0.7,0.9-1.3,1.1c-0.6,0.3-1.3,0.4-2.3,0.4C956.4,537.3,955.7,537.2,955.2,537z M958.6,532.4
			c0.4-0.2,0.7-0.5,0.9-1s0.3-1,0.3-1.7c0-0.7-0.1-1.3-0.3-1.7s-0.5-0.8-0.9-1s-0.9-0.3-1.5-0.3c-0.6,0-1.1,0.1-1.5,0.3
			s-0.7,0.5-0.9,1s-0.3,1-0.3,1.7s0.1,1.3,0.3,1.7s0.5,0.8,0.9,1c0.4,0.2,0.9,0.3,1.5,0.3C957.7,532.8,958.2,532.7,958.6,532.4z"/>
		<path d="M964.6,533.6c-0.6-0.4-1-0.9-1.3-1.5c-0.3-0.6-0.4-1.4-0.4-2.2c0-0.8,0.1-1.5,0.4-2.2c0.3-0.6,0.7-1.1,1.3-1.5
			s1.3-0.6,2.2-0.6c0.8,0,1.5,0.2,2,0.5s1,0.8,1.3,1.4s0.4,1.3,0.4,2.1v0.2c0,0.1,0,0.2,0,0.3h-6.7v-1h6l-0.6,0.6
			c0-0.7,0-1.3-0.2-1.8s-0.5-0.8-0.8-1c-0.4-0.2-0.9-0.3-1.4-0.3c-0.6,0-1.1,0.1-1.5,0.3c-0.4,0.2-0.7,0.6-0.9,1.1
			c-0.2,0.5-0.3,1.1-0.3,1.9s0.1,1.4,0.3,1.9c0.2,0.5,0.5,0.8,0.9,1.1c0.4,0.2,0.9,0.3,1.5,0.3c0.5,0,0.9-0.1,1.3-0.2
			c0.3-0.1,0.6-0.3,0.8-0.6s0.3-0.6,0.4-0.9h1.2c-0.1,0.5-0.2,0.9-0.5,1.3c-0.3,0.4-0.7,0.8-1.2,1c-0.5,0.3-1.2,0.4-2.1,0.4
			C965.9,534.2,965.2,534,964.6,533.6z"/>
		<path d="M972.2,525.9h1.3v8h-1.3V525.9z M973.4,528.1c0.2-0.8,0.6-1.4,1.1-1.8c0.5-0.4,1.2-0.6,2-0.6c0.7,0,1.2,0.1,1.6,0.4
			c0.4,0.2,0.7,0.6,0.9,1.1c0.2,0.5,0.3,1,0.3,1.7v5.1h-1.3v-5c0-0.6-0.1-1-0.2-1.3c-0.1-0.3-0.4-0.6-0.6-0.7
			c-0.3-0.1-0.6-0.2-1-0.2c-0.6,0-1.1,0.2-1.5,0.5c-0.4,0.3-0.7,0.8-0.9,1.4c-0.2,0.6-0.3,1.4-0.3,2.3H973
			C973,529.8,973.1,528.9,973.4,528.1z"/>
	</g>
</g>
<g>
	<g>
		<path d="M1028.5,525.9h1.3v8h-1.3V525.9z M1033.9,527.7c-0.1-0.3-0.3-0.6-0.6-0.7c-0.3-0.1-0.6-0.2-1-0.2c-0.6,0-1,0.2-1.4,0.5
			c-0.4,0.3-0.6,0.8-0.8,1.4c-0.2,0.6-0.3,1.4-0.3,2.3h-0.4v-0.3c0-1,0.1-1.9,0.4-2.6c0.2-0.7,0.6-1.3,1.1-1.7
			c0.5-0.4,1.1-0.6,1.9-0.6c0.6,0,1.1,0.1,1.5,0.4c0.4,0.2,0.7,0.6,0.9,1s0.3,1,0.3,1.7v5.2h-1.3v-5
			C1034.1,528.4,1034.1,528,1033.9,527.7z M1039.5,527.7c-0.1-0.3-0.3-0.6-0.6-0.7c-0.3-0.1-0.6-0.2-1-0.2c-0.6,0-1.1,0.2-1.4,0.5
			c-0.4,0.3-0.6,0.8-0.8,1.4c-0.2,0.6-0.3,1.4-0.3,2.3h-0.5c0-1.1,0.1-2,0.3-2.8c0.2-0.8,0.6-1.4,1.1-1.8s1.2-0.6,2-0.6
			c0.6,0,1.1,0.1,1.5,0.4c0.4,0.2,0.7,0.6,0.9,1c0.2,0.5,0.3,1,0.3,1.7v5.2h-1.3v-5C1039.7,528.4,1039.7,528,1039.5,527.7z"/>
		<path d="M1043.9,533.9c-0.4-0.2-0.7-0.4-0.9-0.8s-0.3-0.8-0.3-1.3c0-0.4,0.1-0.8,0.2-1.1c0.2-0.3,0.4-0.6,0.8-0.8s0.8-0.4,1.4-0.5
			l2-0.3c0.4-0.1,0.7-0.2,0.9-0.3c0.2-0.1,0.3-0.4,0.3-0.7c0-0.3-0.1-0.6-0.2-0.8c-0.1-0.2-0.3-0.4-0.6-0.5
			c-0.3-0.1-0.7-0.2-1.2-0.2c-0.7,0-1.3,0.2-1.6,0.5s-0.5,0.7-0.6,1.3h-1.3c0-0.6,0.2-1.1,0.4-1.5c0.3-0.4,0.7-0.7,1.2-1
			c0.5-0.2,1.1-0.3,1.9-0.3c0.7,0,1.3,0.1,1.8,0.3s0.8,0.5,1.1,0.9c0.2,0.4,0.3,0.8,0.3,1.3v3.8c0,0.3,0,0.6,0,0.9s0,0.7,0.1,1h-1.2
			c0-0.3-0.1-0.7-0.1-1s0-0.6,0-0.9c-0.1,0.4-0.3,0.7-0.5,1c-0.2,0.3-0.6,0.6-1,0.8c-0.4,0.2-0.9,0.3-1.5,0.3
			C1044.8,534.2,1044.3,534.1,1043.9,533.9z M1047.1,532.7c0.4-0.3,0.7-0.6,0.9-1.1c0.2-0.5,0.3-0.9,0.3-1.5v-0.7
			c-0.2,0.1-0.3,0.2-0.5,0.3c-0.2,0.1-0.4,0.1-0.7,0.2l-0.2,0l-1.3,0.3c-0.6,0.1-1,0.3-1.2,0.5c-0.3,0.2-0.4,0.6-0.4,1
			c0,0.4,0.1,0.8,0.4,1c0.3,0.2,0.7,0.4,1.2,0.4C1046.1,533.1,1046.6,533,1047.1,532.7z"/>
		<path d="M1051.5,525.9h1.3v2.5l0,0.3v5.2h-1.3V525.9z M1052.7,528.3c0.2-0.8,0.6-1.4,1.1-1.8s1.1-0.7,1.9-0.7h0.3v1.3h-0.4
			c-0.8,0-1.3,0.1-1.8,0.5s-0.7,0.8-0.9,1.3c-0.2,0.6-0.2,1.3-0.2,2.1h-0.4C1052.4,530,1052.5,529.1,1052.7,528.3z"/>
	</g>
</g>
<g>
	<g>
		<path d="M1103.8,525.9h1.3v8h-1.3V525.9z M1109.2,527.7c-0.1-0.3-0.3-0.6-0.6-0.7c-0.3-0.1-0.6-0.2-1-0.2c-0.6,0-1,0.2-1.4,0.5
			c-0.4,0.3-0.6,0.8-0.8,1.4c-0.2,0.6-0.3,1.4-0.3,2.3h-0.4v-0.3c0-1,0.1-1.9,0.4-2.6s0.6-1.3,1.1-1.7c0.5-0.4,1.1-0.6,1.9-0.6
			c0.6,0,1.1,0.1,1.5,0.4c0.4,0.2,0.7,0.6,0.9,1s0.3,1,0.3,1.7v5.2h-1.3v-5C1109.4,528.4,1109.3,528,1109.2,527.7z M1114.8,527.7
			c-0.1-0.3-0.3-0.6-0.6-0.7c-0.3-0.1-0.6-0.2-1-0.2c-0.6,0-1.1,0.2-1.4,0.5c-0.4,0.3-0.6,0.8-0.8,1.4c-0.2,0.6-0.3,1.4-0.3,2.3
			h-0.5c0-1.1,0.1-2,0.3-2.8c0.2-0.8,0.6-1.4,1.1-1.8c0.5-0.4,1.2-0.6,2-0.6c0.6,0,1.1,0.1,1.5,0.4c0.4,0.2,0.7,0.6,0.9,1
			c0.2,0.5,0.3,1,0.3,1.7v5.2h-1.3v-5C1115,528.4,1114.9,528,1114.8,527.7z"/>
		<path d="M1119.1,533.9c-0.4-0.2-0.7-0.4-0.9-0.8s-0.3-0.8-0.3-1.3c0-0.4,0.1-0.8,0.2-1.1c0.2-0.3,0.4-0.6,0.8-0.8s0.8-0.4,1.4-0.5
			l2-0.3c0.4-0.1,0.7-0.2,0.9-0.3c0.2-0.1,0.3-0.4,0.3-0.7c0-0.3-0.1-0.6-0.2-0.8c-0.1-0.2-0.3-0.4-0.6-0.5
			c-0.3-0.1-0.7-0.2-1.2-0.2c-0.7,0-1.3,0.2-1.6,0.5s-0.5,0.7-0.6,1.3h-1.3c0-0.6,0.2-1.1,0.4-1.5c0.3-0.4,0.7-0.7,1.2-1
			c0.5-0.2,1.1-0.3,1.9-0.3c0.7,0,1.3,0.1,1.8,0.3s0.8,0.5,1.1,0.9c0.2,0.4,0.3,0.8,0.3,1.3v3.8c0,0.3,0,0.6,0,0.9s0,0.7,0.1,1h-1.2
			c0-0.3-0.1-0.7-0.1-1s0-0.6,0-0.9c-0.1,0.4-0.3,0.7-0.5,1c-0.2,0.3-0.6,0.6-1,0.8c-0.4,0.2-0.9,0.3-1.5,0.3
			C1120,534.2,1119.5,534.1,1119.1,533.9z M1122.3,532.7c0.4-0.3,0.7-0.6,0.9-1.1c0.2-0.5,0.3-0.9,0.3-1.5v-0.7
			c-0.2,0.1-0.3,0.2-0.5,0.3c-0.2,0.1-0.4,0.1-0.7,0.2l-0.2,0l-1.3,0.3c-0.6,0.1-1,0.3-1.2,0.5c-0.3,0.2-0.4,0.6-0.4,1
			c0,0.4,0.1,0.8,0.4,1c0.3,0.2,0.7,0.4,1.2,0.4C1121.4,533.1,1121.9,533,1122.3,532.7z"/>
		<path d="M1127.9,533.3c-0.5-0.3-1-0.8-1.2-1.4c-0.3-0.6-0.4-1.3-0.4-2.2c0-1.3,0.3-2.2,0.9-3c0.6-0.7,1.5-1.1,2.8-1.1
			c1.2,0,2,0.3,2.6,1c0.6,0.7,0.9,1.7,0.9,3c0,0.9-0.1,1.6-0.4,2.2c-0.2,0.6-0.6,1-1.1,1.3c-0.5,0.3-1.2,0.4-1.9,0.4
			C1129.1,533.8,1128.4,533.6,1127.9,533.3z M1128.2,537c-0.5-0.2-1-0.5-1.3-1c-0.3-0.4-0.5-0.9-0.5-1.6h1.3c0,0.4,0.1,0.7,0.3,1
			c0.2,0.3,0.4,0.5,0.8,0.7c0.4,0.2,0.8,0.2,1.4,0.2c0.6,0,1.2-0.1,1.5-0.2s0.7-0.4,0.9-0.8c0.2-0.3,0.3-0.8,0.3-1.4v-8h1.3v8
			c0,0.7-0.1,1.3-0.4,1.8c-0.3,0.5-0.7,0.9-1.3,1.1c-0.6,0.3-1.3,0.4-2.3,0.4C1129.4,537.3,1128.8,537.2,1128.2,537z M1131.7,532.4
			c0.4-0.2,0.7-0.5,0.9-1c0.2-0.4,0.3-1,0.3-1.7c0-0.7-0.1-1.3-0.3-1.7c-0.2-0.4-0.5-0.8-0.9-1s-0.9-0.3-1.5-0.3
			c-0.6,0-1.1,0.1-1.5,0.3s-0.7,0.5-0.9,1s-0.3,1-0.3,1.7s0.1,1.3,0.3,1.7s0.5,0.8,0.9,1c0.4,0.2,0.9,0.3,1.5,0.3
			C1130.8,532.8,1131.3,532.7,1131.7,532.4z"/>
	</g>
</g>
<g>
	<g>
		<path d="M721.3,522.7h1.3v11.2h-1.3V522.7z"/>
		<path d="M725.9,533.8c-0.4-0.2-0.8-0.6-1-1c-0.2-0.5-0.3-1-0.3-1.8v-5.1h1.3v5c0,0.6,0.1,1,0.2,1.4c0.2,0.3,0.4,0.6,0.7,0.7
			c0.3,0.1,0.7,0.2,1.1,0.2c0.6,0,1-0.2,1.4-0.5c0.4-0.3,0.7-0.8,0.9-1.4c0.2-0.6,0.3-1.4,0.3-2.2h0.4c0,1.1-0.1,2-0.3,2.8
			s-0.6,1.4-1.1,1.8s-1.1,0.6-1.9,0.6C726.9,534.2,726.4,534.1,725.9,533.8z M730.6,531.5v-0.2v-5.3h1.3v8h-1.3V531.5z"/>
		<path d="M735.2,533.3c-0.5-0.3-1-0.8-1.2-1.4c-0.3-0.6-0.4-1.3-0.4-2.2c0-1.3,0.3-2.2,0.9-3c0.6-0.7,1.5-1.1,2.8-1.1
			c1.2,0,2,0.3,2.6,1s0.9,1.7,0.9,3c0,0.9-0.1,1.6-0.4,2.2c-0.3,0.6-0.6,1-1.1,1.3s-1.2,0.4-1.9,0.4
			C736.5,533.8,735.8,533.6,735.2,533.3z M735.6,537c-0.5-0.2-1-0.5-1.3-1c-0.3-0.4-0.5-0.9-0.5-1.6h1.3c0,0.4,0.1,0.7,0.3,1
			c0.2,0.3,0.4,0.5,0.8,0.7s0.8,0.2,1.4,0.2c0.6,0,1.2-0.1,1.5-0.2s0.7-0.4,0.9-0.8c0.2-0.3,0.3-0.8,0.3-1.4v-8h1.3v8
			c0,0.7-0.1,1.3-0.4,1.8c-0.3,0.5-0.7,0.9-1.3,1.1c-0.6,0.3-1.3,0.4-2.3,0.4C736.8,537.3,736.1,537.2,735.6,537z M739.1,532.4
			c0.4-0.2,0.7-0.5,0.9-1s0.3-1,0.3-1.7c0-0.7-0.1-1.3-0.3-1.7s-0.5-0.8-0.9-1s-0.9-0.3-1.5-0.3c-0.6,0-1.1,0.1-1.5,0.3
			s-0.7,0.5-0.9,1s-0.3,1-0.3,1.7s0.1,1.3,0.3,1.7s0.5,0.8,0.9,1c0.4,0.2,0.9,0.3,1.5,0.3C738.2,532.8,738.7,532.7,739.1,532.4z"/>
	</g>
</g>
<g>
	<g>
		<path d="M800.6,532.3c0.2,0.3,0.4,0.5,0.8,0.7s0.8,0.2,1.4,0.2c0.5,0,0.8-0.1,1.1-0.2c0.3-0.1,0.5-0.3,0.6-0.5
			c0.1-0.2,0.2-0.5,0.2-0.8c0-0.4-0.1-0.7-0.4-0.9c-0.2-0.2-0.6-0.4-1.1-0.4l-1.9-0.3c-0.7-0.1-1.2-0.3-1.6-0.7s-0.6-0.9-0.6-1.5
			c0-0.7,0.3-1.3,0.8-1.8s1.3-0.6,2.4-0.6c0.7,0,1.3,0.1,1.8,0.3c0.5,0.2,0.9,0.5,1.2,0.9c0.3,0.4,0.4,0.8,0.5,1.3h-1.3
			c0-0.5-0.2-0.8-0.6-1.1s-0.9-0.4-1.6-0.4c-0.7,0-1.1,0.1-1.4,0.4c-0.3,0.2-0.5,0.6-0.5,1c0,0.3,0.1,0.6,0.3,0.8
			c0.2,0.2,0.5,0.3,1,0.4l1.7,0.2c0.9,0.1,1.5,0.4,1.9,0.8c0.4,0.4,0.6,0.9,0.6,1.6c0,0.8-0.3,1.4-0.8,1.8c-0.5,0.4-1.4,0.6-2.4,0.6
			c-0.9,0-1.6-0.1-2.1-0.4c-0.5-0.2-0.9-0.6-1.2-1c-0.3-0.4-0.4-0.9-0.4-1.5h1.2C800.3,531.7,800.4,532,800.6,532.3z"/>
		<path d="M808.9,533.6c-0.6-0.4-1-0.9-1.3-1.5c-0.3-0.6-0.4-1.4-0.4-2.2c0-0.8,0.1-1.5,0.4-2.2c0.3-0.6,0.7-1.1,1.3-1.5
			s1.3-0.6,2.2-0.6c0.8,0,1.5,0.2,2,0.5s1,0.8,1.3,1.4s0.4,1.3,0.4,2.1v0.2c0,0.1,0,0.2,0,0.3h-6.7v-1h6l-0.6,0.6
			c0-0.7,0-1.3-0.2-1.8s-0.5-0.8-0.8-1c-0.4-0.2-0.9-0.3-1.4-0.3c-0.6,0-1.1,0.1-1.5,0.3c-0.4,0.2-0.7,0.6-0.9,1.1
			c-0.2,0.5-0.3,1.1-0.3,1.9s0.1,1.4,0.3,1.9c0.2,0.5,0.5,0.8,0.9,1.1c0.4,0.2,0.9,0.3,1.5,0.3c0.5,0,0.9-0.1,1.3-0.2
			c0.3-0.1,0.6-0.3,0.8-0.6s0.3-0.6,0.4-0.9h1.2c-0.1,0.5-0.2,0.9-0.5,1.3c-0.3,0.4-0.7,0.8-1.2,1c-0.5,0.3-1.2,0.4-2.1,0.4
			C810.3,534.2,809.5,534,808.9,533.6z"/>
		<path d="M817.7,533.7c-0.3-0.1-0.5-0.3-0.6-0.6c-0.1-0.3-0.2-0.6-0.2-1.1V527h-1.5v-0.7l1.6-0.4l0.5-1.7h0.7v1.8h2.6v1h-2.6v6h2.5
			v1h-1.9C818.4,533.9,818,533.9,817.7,533.7z"/>
	</g>
</g>
<g>
	<g>
		<path d="M875.4,525.9h1.3v8h-1.3V525.9z M876.6,528.1c0.2-0.8,0.6-1.4,1.1-1.8c0.5-0.4,1.2-0.6,2-0.6c0.7,0,1.2,0.1,1.6,0.4
			c0.4,0.2,0.7,0.6,0.9,1.1c0.2,0.5,0.3,1,0.3,1.7v5.1h-1.3v-5c0-0.6-0.1-1-0.2-1.3c-0.1-0.3-0.4-0.6-0.6-0.7
			c-0.3-0.1-0.6-0.2-1-0.2c-0.6,0-1.1,0.2-1.5,0.5c-0.4,0.3-0.7,0.8-0.9,1.4c-0.2,0.6-0.3,1.4-0.3,2.3h-0.4
			C876.2,529.8,876.4,528.9,876.6,528.1z"/>
		<path d="M885.9,533.6c-0.6-0.4-1.1-0.9-1.4-1.5c-0.3-0.6-0.5-1.4-0.5-2.2c0-0.8,0.2-1.5,0.5-2.2c0.3-0.6,0.8-1.1,1.4-1.5
			s1.3-0.6,2.2-0.6c0.9,0,1.6,0.2,2.2,0.6s1.1,0.9,1.4,1.5c0.3,0.6,0.4,1.4,0.4,2.2c0,0.8-0.1,1.6-0.4,2.2c-0.3,0.6-0.8,1.1-1.4,1.5
			c-0.6,0.4-1.3,0.6-2.2,0.6C887.3,534.2,886.5,534,885.9,533.6z M885.7,531.8c0.2,0.5,0.5,0.8,0.9,1.1c0.4,0.2,0.9,0.3,1.5,0.3
			c0.6,0,1.1-0.1,1.5-0.3c0.4-0.2,0.7-0.6,0.9-1.1c0.2-0.5,0.3-1.1,0.3-1.8c0-0.7-0.1-1.4-0.3-1.8s-0.5-0.8-0.9-1
			c-0.4-0.2-0.9-0.3-1.5-0.3c-0.6,0-1.1,0.1-1.5,0.3c-0.4,0.2-0.7,0.6-0.9,1c-0.2,0.5-0.3,1.1-0.3,1.8
			C885.4,530.7,885.5,531.3,885.7,531.8z"/>
		<path d="M894.2,525.9l3,7.6h-0.5l3-7.6h1.3l-3.2,8h-1.7l-3.2-8H894.2z"/>
	</g>
</g>
<g transform="translate(-400,258)">
	<g>
		<g class="st3">
			<path d="M1111.3,324.7l5.3-4.4c0.5-0.4,0.9-0.8,1.1-1.2s0.3-0.8,0.3-1.2c0-0.6-0.2-1-0.6-1.4c-0.4-0.3-0.9-0.5-1.7-0.5
				c-0.7,0-1.3,0.1-1.7,0.4s-0.8,0.6-1,1.2c-0.2,0.5-0.3,1.1-0.3,1.9h-1.4c0-0.9,0.2-1.6,0.5-2.3c0.3-0.7,0.8-1.2,1.4-1.6
				s1.5-0.6,2.5-0.6c0.9,0,1.6,0.1,2.1,0.4s0.9,0.6,1.2,1.1c0.2,0.4,0.4,1,0.4,1.5c0,0.7-0.2,1.3-0.6,1.9s-1,1.2-2,2l-3.6,3h6.4v1.1
				h-8.3L1111.3,324.7L1111.3,324.7z"/>
			<path d="M1123.3,325.3c-0.7-0.5-1.2-1.1-1.6-2c-0.3-0.8-0.5-1.8-0.5-2.9s0.2-2.1,0.5-2.9s0.9-1.5,1.6-2s1.6-0.7,2.7-0.7
				s2,0.2,2.7,0.7s1.2,1.1,1.6,2c0.3,0.8,0.5,1.8,0.5,2.9s-0.2,2.1-0.5,2.9s-0.9,1.5-1.6,2s-1.6,0.7-2.7,0.7
				C1124.9,326,1123.9,325.8,1123.3,325.3z M1122.8,322.9c0.2,0.7,0.6,1.2,1.1,1.5s1.1,0.5,1.9,0.5s1.4-0.2,1.9-0.5s0.9-0.8,1.1-1.5
				s0.4-1.5,0.4-2.5s-0.1-1.9-0.4-2.5c-0.2-0.7-0.6-1.2-1.1-1.5s-1.1-0.5-1.9-0.5s-1.4,0.2-1.9,0.5s-0.9,0.8-1.1,1.5
				s-0.4,1.5-0.4,2.5S1122.6,322.3,1122.8,322.9z"/>
			<path d="M1132.4,324.7l5.3-4.4c0.5-0.4,0.9-0.8,1.1-1.2s0.3-0.8,0.3-1.2c0-0.6-0.2-1-0.6-1.4s-0.9-0.5-1.7-0.5
				c-0.7,0-1.3,0.1-1.7,0.4s-0.8,0.6-1,1.2c-0.2,0.5-0.3,1.1-0.3,1.9h-1.4c0-0.9,0.2-1.6,0.5-2.3c0.3-0.7,0.8-1.2,1.4-1.6
				s1.5-0.6,2.5-0.6c0.9,0,1.6,0.1,2.1,0.4s0.9,0.6,1.2,1.1c0.2,0.4,0.4,1,0.4,1.5c0,0.7-0.2,1.3-0.6,1.9s-1,1.2-2,2l-3.6,3h6.4v1.1
				h-8.3L1132.4,324.7L1132.4,324.7z"/>
			<path d="M1142.6,324.7l5.3-4.4c0.5-0.4,0.9-0.8,1.1-1.2c0.2-0.3,0.3-0.8,0.3-1.2c0-0.6-0.2-1-0.6-1.4c-0.4-0.3-0.9-0.5-1.7-0.5
				c-0.7,0-1.3,0.1-1.7,0.4s-0.8,0.6-1,1.2c-0.2,0.5-0.3,1.1-0.3,1.9h-1.4c0-0.9,0.2-1.6,0.5-2.3c0.3-0.7,0.8-1.2,1.4-1.6
				s1.5-0.6,2.5-0.6c0.9,0,1.6,0.1,2.1,0.4s0.9,0.6,1.2,1.1c0.3,0.4,0.4,1,0.4,1.5c0,0.7-0.2,1.3-0.6,1.9s-1,1.2-2,2l-3.6,3h6.4v1.1
				h-8.3L1142.6,324.7L1142.6,324.7z"/>
		</g>
	</g>
</g>
<g transform="translate(-400,258)">
	<g>
		<g class="st3">
			<path d="M1441.4,325l5.3-4.4c0.5-0.4,0.9-0.8,1.1-1.2s0.3-0.8,0.3-1.2c0-0.6-0.2-1-0.6-1.4c-0.4-0.3-0.9-0.5-1.7-0.5
				c-0.7,0-1.3,0.1-1.7,0.4c-0.4,0.3-0.8,0.6-1,1.2c-0.2,0.5-0.3,1.1-0.3,1.9h-1.4c0-0.9,0.2-1.6,0.5-2.3s0.8-1.2,1.4-1.6
				s1.5-0.6,2.5-0.6c0.9,0,1.6,0.1,2.1,0.4s0.9,0.6,1.2,1.1c0.2,0.4,0.4,1,0.4,1.5c0,0.7-0.2,1.3-0.6,1.9s-1,1.2-2,2l-3.6,3h6.4v1.1
				h-8.3L1441.4,325L1441.4,325z"/>
			<path d="M1453.3,325.6c-0.7-0.5-1.2-1.1-1.6-2c-0.3-0.8-0.5-1.8-0.5-2.9s0.2-2.1,0.5-2.9s0.9-1.5,1.6-2s1.6-0.7,2.7-0.7
				s2,0.2,2.7,0.7s1.2,1.1,1.6,2c0.3,0.8,0.5,1.8,0.5,2.9s-0.2,2.1-0.5,2.9s-0.9,1.5-1.6,2s-1.6,0.7-2.7,0.7
				C1455,326.3,1454.2,326.1,1453.3,325.6z M1453,323.2c0.2,0.7,0.6,1.2,1.1,1.5s1.1,0.5,1.9,0.5s1.4-0.2,1.9-0.5s0.9-0.8,1.1-1.5
				s0.4-1.5,0.4-2.5s-0.1-1.9-0.4-2.5c-0.2-0.7-0.6-1.2-1.1-1.5s-1.1-0.5-1.9-0.5s-1.4,0.2-1.9,0.5s-0.9,0.8-1.1,1.5
				s-0.4,1.5-0.4,2.5C1452.7,321.7,1452.8,322.6,1453,323.2z"/>
			<path d="M1462.7,325l5.3-4.4c0.5-0.4,0.9-0.8,1.1-1.2s0.3-0.8,0.3-1.2c0-0.6-0.2-1-0.6-1.4s-0.9-0.5-1.7-0.5
				c-0.7,0-1.3,0.1-1.7,0.4c-0.4,0.3-0.8,0.6-1,1.2c-0.2,0.5-0.3,1.1-0.3,1.9h-1.4c0-0.9,0.2-1.6,0.5-2.3c0.3-0.7,0.8-1.2,1.4-1.6
				s1.5-0.6,2.5-0.6c0.9,0,1.6,0.1,2.1,0.4s0.9,0.6,1.2,1.1c0.2,0.4,0.4,1,0.4,1.5c0,0.7-0.2,1.3-0.6,1.9s-1,1.2-2,2l-3.6,3h6.4v1.1
				h-8.3L1462.7,325L1462.7,325z"/>
			<path d="M1474.2,323.9c0.2,0.4,0.6,0.7,1,0.9c0.4,0.2,0.9,0.4,1.5,0.4c0.9,0,1.7-0.2,2.1-0.6c0.5-0.4,0.7-1.1,0.7-1.9
				c0-0.7-0.2-1.2-0.6-1.7c-0.4-0.4-1-0.6-1.7-0.6c-0.4,0-0.7,0-1,0.1s-0.6,0.2-0.9,0.5l-0.6-0.8l4.2-3.6h-6v-1.1h7.6v1.1l-3.7,3.3
				c0.3-0.1,0.7-0.1,1.1-0.1c0.5,0,1,0.1,1.5,0.3c0.5,0.2,0.8,0.6,1.1,1c0.3,0.5,0.4,1,0.4,1.7c0,0.6-0.1,1.2-0.4,1.8
				s-0.8,1-1.4,1.3s-1.5,0.5-2.5,0.5c-0.9,0-1.7-0.2-2.3-0.5s-1.1-0.8-1.4-1.3c-0.3-0.6-0.5-1.2-0.5-1.9h1.4
				C1473.8,323.1,1473.9,323.5,1474.2,323.9z"/>
		</g>
	</g>
</g>
<line class="st4" x1="1087.5" y1="578.8" x2="1176.4" y2="578.8"/>
<line class="st4" x1="758.4" y1="578.8" x2="1032.9" y2="578.8"/>
<line class="st4" x1="276.7" y1="578.8" x2="703.8" y2="578.8"/>
<line class="st4" x1="16.8" y1="578.8" x2="221.9" y2="578.8"/>
<g transform="translate(-400,258)">
	<g>
		<g class="st3">
			<path d="M632,324.7l5.3-4.4c0.5-0.4,0.9-0.8,1.1-1.2s0.3-0.8,0.3-1.2c0-0.6-0.2-1-0.6-1.4s-0.9-0.5-1.7-0.5
				c-0.7,0-1.3,0.1-1.7,0.4s-0.8,0.6-1,1.2c-0.2,0.5-0.3,1.1-0.3,1.9H632c0-0.9,0.2-1.6,0.5-2.3c0.3-0.7,0.8-1.2,1.4-1.6
				c0.6-0.4,1.5-0.6,2.5-0.6c0.9,0,1.6,0.1,2.1,0.4s0.9,0.6,1.2,1.1c0.2,0.4,0.4,1,0.4,1.5c0,0.7-0.2,1.3-0.6,1.9s-1,1.2-2,2l-3.6,3
				h6.4v1.1H632L632,324.7L632,324.7z"/>
			<path d="M643.9,325.3c-0.7-0.5-1.2-1.1-1.6-2c-0.3-0.8-0.5-1.8-0.5-2.9s0.2-2.1,0.5-2.9c0.3-0.8,0.9-1.5,1.6-2s1.6-0.7,2.7-0.7
				s2,0.2,2.7,0.7c0.7,0.5,1.2,1.1,1.6,2s0.5,1.8,0.5,2.9s-0.2,2.1-0.5,2.9c-0.3,0.8-0.9,1.5-1.6,2s-1.6,0.7-2.7,0.7
				C645.6,326,644.7,325.8,643.9,325.3z M643.6,322.9c0.2,0.7,0.6,1.2,1.1,1.5s1.1,0.5,1.9,0.5s1.4-0.2,1.9-0.5s0.9-0.8,1.1-1.5
				s0.4-1.5,0.4-2.5s-0.1-1.9-0.4-2.5s-0.6-1.2-1.1-1.5s-1.1-0.5-1.9-0.5s-1.4,0.2-1.9,0.5s-0.9,0.8-1.1,1.5s-0.4,1.5-0.4,2.5
				S643.4,322.3,643.6,322.9z"/>
			<path d="M653.2,324.7l5.3-4.4c0.5-0.4,0.9-0.8,1.1-1.2c0.2-0.3,0.3-0.8,0.3-1.2c0-0.6-0.2-1-0.6-1.4s-0.9-0.5-1.7-0.5
				c-0.7,0-1.3,0.1-1.7,0.4s-0.8,0.6-1,1.2c-0.2,0.5-0.3,1.1-0.3,1.9h-1.4c0-0.9,0.2-1.6,0.5-2.3c0.3-0.7,0.8-1.2,1.4-1.6
				c0.6-0.4,1.5-0.6,2.5-0.6c0.9,0,1.6,0.1,2.1,0.4s0.9,0.6,1.2,1.1c0.3,0.4,0.4,1,0.4,1.5c0,0.7-0.2,1.3-0.6,1.9s-1,1.2-2,2l-3.6,3
				h6.4v1.1h-8.3L653.2,324.7L653.2,324.7z"/>
			<path d="M663.3,324.7h2.5v-8.5h-2.5v-1.1h2.3c0.5,0,0.9,0.1,1.2,0.3c0.2,0.2,0.3,0.6,0.3,1v8.2h2.3v1.1h-6.1V324.7L663.3,324.7z"
				/>
		</g>
	</g>
</g>
</svg>
