<?xml version="1.0" encoding="utf-8"?>
<!-- Generator: Adobe Illustrator 25.2.0, SVG Export Plug-In . SVG Version: 6.00 Build 0)  -->
<svg version="1.1" id="Livello_1" xmlns="http://www.w3.org/2000/svg" xmlns:xlink="http://www.w3.org/1999/xlink" x="0px" y="0px"
	 viewBox="0 0 1263.3 959.6" style="enable-background:new 0 0 1263.3 959.6;" xml:space="preserve">
<style type="text/css">
	.st0{fill:none;stroke:#6691E0;stroke-width:4;stroke-linejoin:round;}
	.st1{fill:none;stroke:#003599;stroke-width:5;stroke-linejoin:round;stroke-dasharray:3,8;}
	.st2{fill:none;stroke:#99B5EB;stroke-width:5;stroke-linejoin:round;stroke-dasharray:3,8;}
	.st3{fill:none;stroke:#000000;stroke-width:0.5;stroke-linecap:square;stroke-linejoin:round;}
	.st4{fill:none;stroke:#000000;stroke-width:0.25;stroke-linecap:square;stroke-linejoin:round;}
	.st5{fill:none;stroke:#000000;stroke-miterlimit:10;stroke-dasharray:0.6855,2.7418;}
	.st6{fill:none;stroke:#000000;}
</style>
<path class="st0" d="M106.8,492.5c19,0,19-5.3,38-5.3c17.2,0,17.2-8.3,34.3-8.3c19,0,19,14.2,38,14.2c18.4,0,18.4-10.3,36.8-10.3
	c19,0,19,4.4,38,4.4c18.4,0,18.4,15.4,36.8,15.4c19,0,19,16.7,38,16.7s19,71.7,38,71.7c18.4,0,18.4,4.4,36.8,4.4
	c19,0,19-34.3,38.1-34.3c18.4,0,18.4-15.6,36.8-15.6c19,0,19-4.5,38-4.5s19-3.5,38-3.5c17.2,0,17.2,1.9,34.3,1.9
	c19,0,19,17.4,38,17.4c18.4,0,18.4,16.5,36.8,16.5c19,0,19,30,38,30c18.4,0,18.4,77.2,36.8,77.2c19,0,19,45.1,38,45.1s19,9.8,38,9.8
	c18.4,0,18.4,8.4,36.8,8.4c19,0,19-21.6,38.1-21.6c18.4,0,18.4-12.8,36.8-12.8c19,0,19-13.4,38-13.4s19,1.5,38,1.5
	c17.2,0,17.2-7.8,34.3-7.8c19,0,19-2.8,38-2.8c18.4,0,18.4-59.1,36.8-59.1c19,0,19-58.7,38-58.7"/>
<path class="st1" d="M106.8,439.7c19,0,19,14.6,38,14.6c17.2,0,17.2-2.2,34.3-2.2c19,0,19-0.4,38-0.4c18.4,0,18.4-4,36.8-4
	c19,0,19-15.4,38-15.4c18.4,0,18.4,34.3,36.8,34.3c19,0,19,26.1,38,26.1s19,1.2,38,1.2c18.4,0,18.4-115.9,36.8-115.9
	c19,0,19-87,38.1-87c18.4,0,18.4,67.5,36.8,67.5c19,0,19,81.1,38,81.1s19,14.6,38,14.6c17.2,0,17.2-2.2,34.3-2.2c19,0,19-0.4,38-0.4
	c18.4,0,18.4-4,36.8-4c19,0,19-15.4,38-15.4c18.4,0,18.4,34.3,36.8,34.3c19,0,19,26.1,38,26.1s19,1.2,38,1.2
	c18.4,0,18.4-115.9,36.8-115.9c19,0,19-87,38.1-87c18.4,0,18.4,67.5,36.8,67.5c19,0,19,81.1,38,81.1s19,14.6,38,14.6
	c17.2,0,17.2-2.2,34.3-2.2c19,0,19-0.4,38-0.4c18.4,0,18.4-4,36.8-4c19,0,19-15.4,38-15.4"/>
<path class="st2" d="M106.8,739.1c19,0,19-4.1,38-4.1c17.2,0,17.2-34.2,34.3-34.2c19,0,19-4.8,38-4.8c18.4,0,18.4,28.1,36.8,28.1
	c19,0,19,40.2,38,40.2c18.4,0,18.4,1.1,36.8,1.1c19,0,19,16.9,38,16.9s19,2.9,38,2.9c18.4,0,18.4-2.7,36.8-2.7
	c19,0,19-25.8,38.1-25.8c18.4,0,18.4-24.1,36.8-24.1c19,0,19,6.5,38,6.5s19-4.1,38-4.1c17.2,0,17.2-34.2,34.3-34.2
	c19,0,19-4.8,38-4.8c18.4,0,18.4,28.1,36.8,28.1c19,0,19,40.2,38,40.2c18.4,0,18.4,1.1,36.8,1.1c19,0,19,16.9,38,16.9s19,2.9,38,2.9
	c18.4,0,18.4-2.7,36.8-2.7c19,0,19-25.8,38.1-25.8c18.4,0,18.4-24.1,36.8-24.1c19,0,19,6.5,38,6.5s19-4.1,38-4.1
	c17.2,0,17.2-34.2,34.3-34.2c19,0,19-4.8,38-4.8c18.4,0,18.4,28.1,36.8,28.1c19,0,19,40.2,38,40.2"/>
<line class="st3" x1="107" y1="812.3" x2="107" y2="246.2"/>
<line class="st4" x1="1225.4" y1="812.3" x2="1225.4" y2="246.2"/>
<line class="st4" x1="217.5" y1="812.3" x2="217.5" y2="246.2"/>
<line class="st4" x1="143.7" y1="812.3" x2="143.7" y2="806"/>
<line class="st4" x1="180.6" y1="812.3" x2="180.6" y2="806"/>
<line class="st4" x1="329.1" y1="812.3" x2="329.1" y2="246.2"/>
<line class="st4" x1="255.3" y1="812.3" x2="255.3" y2="806"/>
<line class="st4" x1="292.2" y1="812.3" x2="292.2" y2="806"/>
<line class="st4" x1="402.9" y1="812.3" x2="402.9" y2="806"/>
<line class="st4" x1="366" y1="812.3" x2="366" y2="806"/>
<line class="st4" x1="441.9" y1="812.3" x2="441.9" y2="246.2"/>
<line class="st4" x1="478.9" y1="812.3" x2="478.9" y2="806"/>
<line class="st4" x1="517.9" y1="812.3" x2="517.9" y2="806"/>
<line class="st3" x1="554.8" y1="812.3" x2="554.8" y2="246.2"/>
<line class="st4" x1="593.9" y1="812.3" x2="593.9" y2="806"/>
<line class="st4" x1="630.8" y1="812.3" x2="630.8" y2="806"/>
<line class="st4" x1="665.1" y1="812.3" x2="665.1" y2="246.2"/>
<line class="st4" x1="705.5" y1="812.3" x2="705.5" y2="806"/>
<line class="st4" x1="742.4" y1="812.3" x2="742.4" y2="806"/>
<line class="st4" x1="776.7" y1="812.3" x2="776.7" y2="246.2"/>
<line class="st4" x1="813.6" y1="812.3" x2="813.6" y2="806"/>
<line class="st4" x1="848" y1="812.3" x2="848" y2="806"/>
<line class="st4" x1="889.6" y1="812.3" x2="889.6" y2="246.2"/>
<line class="st4" x1="924" y1="812.3" x2="924" y2="806"/>
<line class="st4" x1="965.5" y1="812.3" x2="965.5" y2="806"/>
<line class="st3" x1="1002.5" y1="812.3" x2="1002.5" y2="246.2"/>
<line class="st4" x1="1044" y1="812.3" x2="1044" y2="806"/>
<line class="st4" x1="1081" y1="812.3" x2="1081" y2="806"/>
<line class="st4" x1="1112.8" y1="812.3" x2="1112.8" y2="246.2"/>
<line class="st4" x1="1149.7" y1="812.3" x2="1149.7" y2="806"/>
<line class="st4" x1="1181.5" y1="812.3" x2="1181.5" y2="806"/>
<line class="st3" x1="107" y1="812.3" x2="101" y2="812.3"/>
<line class="st3" x1="107" y1="760.7" x2="101" y2="760.7"/>
<line class="st3" x1="107" y1="709.4" x2="101" y2="709.4"/>
<line class="st3" x1="107" y1="658" x2="101" y2="658"/>
<line class="st3" x1="107" y1="606.6" x2="101" y2="606.6"/>
<line class="st3" x1="107" y1="555.3" x2="101" y2="555.3"/>
<line class="st3" x1="107" y1="503.9" x2="101" y2="503.9"/>
<line class="st3" x1="107" y1="452.5" x2="101" y2="452.5"/>
<line class="st3" x1="107" y1="401.1" x2="101" y2="401.1"/>
<line class="st3" x1="107" y1="349.8" x2="101" y2="349.8"/>
<line class="st3" x1="107" y1="298.4" x2="101" y2="298.4"/>
<line class="st3" x1="107" y1="246.1" x2="101" y2="246.1"/>
<line class="st3" x1="107" y1="812.3" x2="101" y2="812.3"/>
<g>
	<g>
		<path d="M91.6,93.5l-2.9-7.6H73.9L71,93.5h-3.8l11.4-29.9h5.5l11.3,29.9H91.6z M75,82.8h12.6l-6.3-16.6L75,82.8z"/>
		<path d="M99.3,62h3.6v31.5h-3.6V62z"/>
		<path d="M112.8,92.9c-0.8-0.4-1.3-0.9-1.6-1.7c-0.3-0.7-0.5-1.8-0.5-3V73.8h-4.3v-2l4.6-1.1l1.4-4.7h1.9v5h7.4v2.8h-7.4v16.7h7.1
			v2.9H116C114.6,93.5,113.5,93.3,112.8,92.9z"/>
		<path d="M129.5,92.7c-1.7-1-2.9-2.5-3.7-4.3s-1.2-3.9-1.2-6.2c0-2.3,0.4-4.3,1.3-6.1c0.8-1.8,2.1-3.2,3.8-4.3
			c1.7-1,3.7-1.6,6.1-1.6c2.2,0,4.1,0.5,5.7,1.4c1.6,0.9,2.8,2.3,3.6,4s1.2,3.6,1.2,5.8V82c0,0.2,0,0.6-0.1,0.9h-18.9v-2.7h17
			l-1.6,1.6c0.1-2.1-0.1-3.8-0.6-5.1c-0.5-1.3-1.3-2.3-2.4-2.9c-1.1-0.6-2.4-0.9-4-0.9s-3,0.3-4.2,0.9c-1.1,0.6-2,1.6-2.6,3
			s-0.9,3.1-0.9,5.3c0,2.2,0.3,4,0.9,5.4c0.6,1.4,1.5,2.4,2.7,3c1.1,0.6,2.5,0.9,4.1,0.9c1.4,0,2.6-0.2,3.6-0.6s1.7-1,2.3-1.7
			s1-1.6,1.2-2.6h3.3c-0.2,1.3-0.6,2.5-1.4,3.7c-0.8,1.2-1.9,2.1-3.4,2.9c-1.5,0.7-3.4,1.1-5.8,1.1
			C133.3,94.2,131.2,93.7,129.5,92.7z"/>
		<path d="M149.8,71h19.6v2.7h-19.6V71z M149.8,90.7l16.1-18l3.4,0.9l-16.5,18.5L149.8,90.7z M149.8,90.7h19.8v2.7h-19.8V90.7z"/>
		<path d="M173.7,71h19.6v2.7h-19.6V71z M173.7,90.7l16.1-18l3.4,0.9l-16.5,18.5L173.7,90.7z M173.7,90.7h19.8v2.7h-19.8V90.7z"/>
		<path d="M200.8,93.3c-1.1-0.5-2-1.2-2.6-2.2s-0.9-2.2-0.9-3.6c0-1.2,0.2-2.3,0.7-3.2c0.5-0.9,1.2-1.7,2.2-2.2c1-0.6,2.3-1,3.9-1.3
			l5.7-0.9c1.2-0.2,2.1-0.5,2.6-0.9s0.8-1,0.8-1.8s-0.2-1.6-0.5-2.1c-0.3-0.6-0.9-1-1.7-1.4c-0.8-0.3-1.9-0.5-3.3-0.5
			c-2.1,0-3.6,0.4-4.6,1.3s-1.5,2.1-1.6,3.7h-3.6c0.1-1.6,0.5-3,1.2-4.1c0.8-1.2,1.9-2.1,3.3-2.7c1.5-0.6,3.2-1,5.2-1s3.6,0.3,5,0.9
			c1.3,0.6,2.3,1.4,3,2.4c0.6,1,0.9,2.2,0.9,3.6v10.8c0,0.8,0,1.7,0.1,2.6s0.1,1.9,0.2,2.9h-3.2c-0.1-0.9-0.2-1.8-0.2-2.7
			c0-0.9-0.1-1.7-0.1-2.5c-0.3,1-0.8,2-1.5,2.8c-0.7,0.9-1.6,1.6-2.8,2.2s-2.5,0.9-4.2,0.9C203.2,94.1,201.9,93.8,200.8,93.3z
			 M209.6,90.1c1.2-0.8,2-1.8,2.6-3.1c0.6-1.3,0.9-2.7,0.9-4.1V81c-0.5,0.3-1,0.6-1.5,0.8c-0.5,0.2-1.2,0.4-1.9,0.6l-0.6,0.1
			l-3.7,0.8c-1.6,0.3-2.7,0.8-3.4,1.5s-1.1,1.6-1.1,2.7c0,1.2,0.4,2.2,1.2,2.8c0.8,0.7,1.9,1,3.2,1C207,91.2,208.5,90.8,209.6,90.1z
			"/>
		<path d="M231.5,63.6h16.4v3h-16.4V63.6z M231.5,90.5h16.4v3h-16.4V90.5z M237.9,65h3.7v27h-3.7V65z"/>
		<path d="M269.7,73.4c1.7,2.1,2.5,5,2.5,8.8c0,2.5-0.4,4.6-1.1,6.4s-1.8,3.2-3.3,4.1c-1.5,1-3.3,1.5-5.4,1.5
			c-2.3,0-4.2-0.5-5.8-1.5c-1.5-1-2.7-2.4-3.4-4.2c-0.8-1.8-1.1-3.9-1.1-6.2c0-2.4,0.4-4.5,1.1-6.3c0.7-1.8,1.9-3.2,3.4-4.2
			s3.4-1.5,5.8-1.5C265.5,70.3,268,71.3,269.7,73.4z M258.8,74.2c-1.1,0.7-1.9,1.7-2.4,3s-0.8,3-0.8,5.1c0,2,0.3,3.7,0.8,5
			s1.3,2.3,2.4,3s2.5,1,4.2,1c1.6,0,3-0.3,4.2-1c1.2-0.6,2-1.6,2.7-3c0.6-1.3,0.9-3,0.9-5.1s-0.3-3.8-0.9-5.1
			c-0.6-1.4-1.5-2.3-2.7-3c-1.2-0.6-2.5-0.9-4.2-0.9S259.9,73.5,258.8,74.2z M274.4,93.5h-3.6v-5.4v-0.6V62h3.6V93.5z"/>
		<path d="M280.9,71h3.6v7v0.7v14.7h-3.6V71z M284.2,77.7c0.6-2.2,1.7-3.9,3.1-5.2c1.4-1.3,3.2-1.9,5.5-1.9h0.8v3.6h-1
			c-2.1-0.1-3.8,0.4-5,1.3s-2,2.2-2.4,3.8c-0.4,1.6-0.7,3.6-0.7,5.9h-1.3C283.2,82.4,283.5,79.9,284.2,77.7z"/>
		<path d="M301.1,92.7c-1.7-1-3-2.5-3.8-4.3c-0.9-1.8-1.3-3.9-1.3-6.2c0-2.3,0.4-4.3,1.3-6.1s2.1-3.2,3.8-4.3c1.7-1,3.8-1.6,6.2-1.6
			c2.4,0,4.5,0.5,6.2,1.6s3,2.5,3.8,4.3s1.3,3.8,1.3,6.1c0,2.3-0.4,4.4-1.3,6.2c-0.8,1.8-2.1,3.2-3.8,4.3s-3.8,1.6-6.2,1.6
			C304.9,94.2,302.8,93.7,301.1,92.7z M300.5,87.4c0.6,1.4,1.4,2.3,2.5,3s2.6,0.9,4.3,0.9c1.7,0,3.1-0.3,4.3-0.9s2-1.6,2.5-3
			c0.6-1.4,0.9-3.1,0.9-5.1c0-2.1-0.3-3.8-0.9-5.2c-0.6-1.3-1.4-2.3-2.5-2.9s-2.5-0.9-4.3-0.9c-1.7,0-3.2,0.3-4.3,0.9
			s-2,1.6-2.5,2.9c-0.6,1.3-0.9,3.1-0.9,5.2C299.6,84.3,299.9,86,300.5,87.4z"/>
		<path d="M323.4,71h3.6v22.5h-3.6V71z M338.7,75.8c-0.4-0.9-1-1.6-1.7-2c-0.8-0.4-1.7-0.6-2.9-0.6c-1.6,0-2.9,0.4-4,1.3
			s-1.8,2.1-2.3,3.8s-0.7,3.9-0.7,6.5h-1.2V84c0.1-2.8,0.4-5.3,1.1-7.3c0.6-2,1.6-3.6,3-4.7c1.3-1.1,3.1-1.7,5.3-1.7
			c1.7,0,3.1,0.3,4.3,1c1.1,0.7,2,1.6,2.5,2.9c0.6,1.3,0.8,2.9,0.8,4.8v14.5h-3.6V79.4C339.2,77.9,339,76.7,338.7,75.8z M354.4,75.8
			c-0.4-0.9-1-1.6-1.7-2c-0.8-0.4-1.7-0.6-2.8-0.6c-1.6,0-3,0.4-4,1.3c-1.1,0.9-1.8,2.1-2.3,3.8s-0.7,3.9-0.7,6.5h-1.3
			c0-3,0.3-5.6,0.9-7.8c0.6-2.2,1.6-3.8,3-5s3.2-1.8,5.6-1.8c1.7,0,3.1,0.3,4.3,1c1.1,0.7,2,1.6,2.5,2.9c0.6,1.3,0.8,2.9,0.8,4.8
			v14.5H355v-14C355,77.9,354.8,76.7,354.4,75.8z"/>
		<path d="M367.9,92.7c-1.7-1-2.9-2.5-3.7-4.3s-1.2-3.9-1.2-6.2c0-2.3,0.4-4.3,1.3-6.1c0.8-1.8,2.1-3.2,3.8-4.3
			c1.7-1,3.7-1.6,6.1-1.6c2.2,0,4.1,0.5,5.7,1.4s2.8,2.3,3.6,4s1.2,3.6,1.2,5.8V82c0,0.2,0,0.6-0.1,0.9h-18.9v-2.7h17l-1.6,1.6
			c0.1-2.1-0.1-3.8-0.6-5.1c-0.5-1.3-1.3-2.3-2.4-2.9s-2.4-0.9-4-0.9s-3,0.3-4.2,0.9c-1.1,0.6-2,1.6-2.6,3s-0.9,3.1-0.9,5.3
			c0,2.2,0.3,4,0.9,5.4s1.5,2.4,2.7,3c1.1,0.6,2.5,0.9,4.1,0.9c1.4,0,2.6-0.2,3.6-0.6s1.7-1,2.3-1.7c0.6-0.7,1-1.6,1.2-2.6h3.3
			c-0.2,1.3-0.6,2.5-1.4,3.7s-1.9,2.1-3.4,2.9c-1.5,0.7-3.4,1.1-5.8,1.1C371.6,94.2,369.5,93.7,367.9,92.7z"/>
		<path d="M392.7,92.9c-0.8-0.4-1.3-0.9-1.6-1.7c-0.3-0.7-0.5-1.8-0.5-3V73.8h-4.3v-2l4.6-1.1l1.4-4.7h1.9v5h7.4v2.8h-7.4v16.7h7.1
			v2.9H396C394.5,93.5,393.4,93.3,392.7,92.9z"/>
		<path d="M406.2,71h3.6v7v0.7v14.7h-3.6V71z M409.5,77.7c0.6-2.2,1.7-3.9,3.1-5.2c1.4-1.3,3.2-1.9,5.5-1.9h0.8v3.6h-1
			c-2.1-0.1-3.8,0.4-5,1.3s-2,2.2-2.4,3.8c-0.4,1.6-0.7,3.6-0.7,5.9h-1.3C408.5,82.4,408.8,79.9,409.5,77.7z"/>
		<path d="M422.1,63.6h4.6v3.7h-4.6V63.6z M422.6,71h3.6v22.5h-3.6V71z"/>
		<path d="M432,76c0.9-1.8,2.2-3.2,3.8-4.2c1.7-1,3.7-1.5,6.1-1.5c2.2,0,4,0.4,5.6,1.1c1.5,0.8,2.7,1.8,3.5,3.2
			c0.8,1.3,1.3,2.9,1.4,4.7H449c-0.2-1.3-0.6-2.3-1.1-3.2c-0.6-0.9-1.3-1.6-2.3-2.1s-2.2-0.7-3.5-0.7c-1.7,0-3,0.3-4.2,0.9
			c-1.1,0.6-2,1.6-2.6,2.9s-0.9,3.1-0.9,5.2s0.3,3.9,0.9,5.2c0.6,1.3,1.5,2.3,2.6,2.9s2.5,0.9,4.1,0.9c2.2,0,3.9-0.6,5.2-1.7
			c1.2-1.1,1.9-2.7,2.2-4.7h3.4c-0.1,1.8-0.6,3.4-1.4,4.7s-2.1,2.5-3.7,3.3s-3.5,1.2-5.7,1.2c-2.4,0-4.4-0.5-6.1-1.5s-3-2.4-3.8-4.2
			s-1.3-3.9-1.3-6.2S431.2,77.8,432,76z"/>
		<path d="M459.3,93.3c-1.1-0.5-2-1.2-2.6-2.2s-0.9-2.2-0.9-3.6c0-1.2,0.2-2.3,0.7-3.2c0.5-0.9,1.2-1.7,2.2-2.2c1-0.6,2.3-1,3.9-1.3
			l5.7-0.9c1.2-0.2,2.1-0.5,2.6-0.9s0.8-1,0.8-1.8s-0.2-1.6-0.5-2.1c-0.3-0.6-0.9-1-1.7-1.4c-0.8-0.3-1.9-0.5-3.3-0.5
			c-2.1,0-3.6,0.4-4.6,1.3s-1.5,2.1-1.6,3.7h-3.6c0.1-1.6,0.5-3,1.2-4.1c0.8-1.2,1.9-2.1,3.3-2.7c1.5-0.6,3.2-1,5.2-1s3.6,0.3,5,0.9
			c1.3,0.6,2.3,1.4,3,2.4c0.6,1,0.9,2.2,0.9,3.6v10.8c0,0.8,0,1.7,0.1,2.6s0.1,1.9,0.2,2.9h-3.2c-0.1-0.9-0.2-1.8-0.2-2.7
			c0-0.9-0.1-1.7-0.1-2.5c-0.3,1-0.8,2-1.5,2.8c-0.7,0.9-1.6,1.6-2.8,2.2c-1.2,0.6-2.5,0.9-4.2,0.9
			C461.7,94.1,460.4,93.8,459.3,93.3z M468.2,90.1c1.2-0.8,2-1.8,2.6-3.1c0.6-1.3,0.9-2.7,0.9-4.1V81c-0.5,0.3-1,0.6-1.5,0.8
			c-0.5,0.2-1.2,0.4-1.9,0.6l-0.6,0.1l-3.7,0.8c-1.6,0.3-2.7,0.8-3.4,1.5c-0.7,0.7-1.1,1.6-1.1,2.7c0,1.2,0.4,2.2,1.2,2.8
			c0.8,0.7,1.9,1,3.2,1C465.6,91.2,467,90.8,468.2,90.1z"/>
		<path d="M69.5,130c0.9-1.8,2.2-3.2,3.8-4.2c1.7-1,3.7-1.5,6.1-1.5c2.2,0,4,0.4,5.6,1.1c1.5,0.8,2.7,1.8,3.5,3.2
			c0.8,1.3,1.3,2.9,1.4,4.7h-3.4c-0.2-1.3-0.6-2.3-1.1-3.2c-0.6-0.9-1.3-1.6-2.3-2.1s-2.2-0.7-3.5-0.7c-1.7,0-3,0.3-4.2,0.9
			c-1.1,0.6-2,1.6-2.6,2.9c-0.6,1.3-0.9,3.1-0.9,5.2c0,2.1,0.3,3.9,0.9,5.2s1.5,2.3,2.6,2.9c1.1,0.6,2.5,0.9,4.1,0.9
			c2.2,0,3.9-0.6,5.2-1.7c1.2-1.1,1.9-2.7,2.2-4.7h3.4c-0.1,1.8-0.6,3.4-1.4,4.7s-2.1,2.5-3.7,3.3s-3.5,1.2-5.7,1.2
			c-2.4,0-4.4-0.5-6.1-1.5s-3-2.4-3.8-4.2s-1.3-3.9-1.3-6.2S68.6,131.8,69.5,130z"/>
		<path d="M94.6,125h3.6v22.5h-3.6V125z M109.8,129.8c-0.4-0.9-1-1.6-1.7-2c-0.8-0.4-1.7-0.6-2.9-0.6c-1.6,0-2.9,0.4-4,1.3
			s-1.8,2.1-2.3,3.8s-0.7,3.9-0.7,6.5H97V138c0.1-2.8,0.4-5.3,1.1-7.3c0.6-2,1.6-3.6,3-4.7c1.3-1.1,3.1-1.7,5.3-1.7
			c1.7,0,3.1,0.3,4.3,1c1.1,0.7,2,1.6,2.5,2.9c0.6,1.3,0.8,2.9,0.8,4.8v14.5h-3.6v-14.1C110.4,131.9,110.2,130.7,109.8,129.8z
			 M125.6,129.8c-0.4-0.9-1-1.6-1.7-2c-0.8-0.4-1.7-0.6-2.8-0.6c-1.6,0-3,0.4-4,1.3c-1.1,0.9-1.8,2.1-2.3,3.8s-0.7,3.9-0.7,6.5h-1.3
			c0-3,0.3-5.6,0.9-7.8s1.6-3.8,3-5s3.2-1.8,5.6-1.8c1.7,0,3.1,0.3,4.3,1c1.1,0.7,2,1.6,2.5,2.9c0.6,1.3,0.8,2.9,0.8,4.8v14.5h-3.6
			v-14.1C126.2,131.9,126,130.7,125.6,129.8z"/>
	</g>
</g>
<g>
	<g>
		<path d="M64.1,703.2h-13v-1.8l11.7-15.3h2.4l-11.8,15.3h10.7v-15.3h2.2v15.3h4v1.8h-4v6.2h-2.2V703.2z"/>
		<path d="M77.2,708.4c-1.5-1-2.7-2.5-3.4-4.3c-0.7-1.8-1.1-4-1.1-6.5c0-2.4,0.4-4.5,1.1-6.4c0.8-1.8,1.9-3.3,3.4-4.3
			s3.4-1.6,5.6-1.6c2.3,0,4.2,0.5,5.7,1.6c1.5,1,2.6,2.5,3.4,4.3c0.7,1.8,1.1,3.9,1.1,6.4c0,2.4-0.4,4.6-1.1,6.4
			c-0.7,1.8-1.9,3.3-3.4,4.3s-3.4,1.5-5.7,1.5C80.6,710,78.7,709.5,77.2,708.4z M75.8,703.5c0.6,1.6,1.5,2.7,2.6,3.5
			c1.2,0.8,2.6,1.2,4.4,1.2s3.2-0.4,4.4-1.2c1.2-0.8,2-1.9,2.6-3.5s0.9-3.5,0.9-5.8s-0.3-4.2-0.9-5.8c-0.6-1.5-1.5-2.7-2.6-3.5
			c-1.2-0.8-2.6-1.2-4.4-1.2s-3.2,0.4-4.4,1.2c-1.2,0.8-2,1.9-2.6,3.5c-0.6,1.5-0.9,3.5-0.9,5.8C75,700,75.3,702,75.8,703.5z"/>
	</g>
</g>
<g>
	<g>
		<path d="M56,657.4c-1.4-0.8-2.4-2.1-3.1-3.8s-1.1-4-1.1-6.7c0-2.6,0.4-4.9,1.1-6.8s1.8-3.4,3.3-4.4s3.2-1.5,5.3-1.5
			c1.7,0,3.1,0.3,4.2,0.8s2,1.3,2.6,2.3s1,2.2,1.2,3.5h-2.2c-0.1-1-0.4-1.9-0.9-2.6c-0.5-0.7-1.2-1.3-2-1.6
			c-0.8-0.4-1.8-0.6-2.9-0.6c-2.5,0-4.4,1-5.7,2.9s-2,5-2,9.2v1.8l-0.4-0.2c0.4-1.8,1.3-3.2,2.8-4.3c1.4-1.1,3.2-1.7,5.4-1.7
			c1.5,0,2.8,0.3,4.1,0.8c1.2,0.6,2.2,1.4,2.9,2.5c0.7,1.1,1.1,2.5,1.1,4.1c0,1.4-0.3,2.7-1,3.9s-1.6,2.1-2.9,2.8s-2.9,1-4.7,1
			C59,658.6,57.3,658.2,56,657.4z M65.6,655.2c1-1.1,1.6-2.5,1.6-4.2s-0.5-3.2-1.5-4.3s-2.6-1.6-4.6-1.6c-1.2,0-2.4,0.2-3.4,0.7
			s-1.8,1.2-2.4,2c-0.6,0.9-0.9,1.9-0.9,3c0,1.8,0.6,3.2,1.8,4.3s2.8,1.6,4.8,1.6C63,656.8,64.6,656.2,65.6,655.2z"/>
		<path d="M77.2,657c-1.5-1-2.7-2.5-3.4-4.3c-0.7-1.8-1.1-4-1.1-6.5c0-2.4,0.4-4.5,1.1-6.4c0.8-1.8,1.9-3.3,3.4-4.3s3.4-1.6,5.6-1.6
			c2.3,0,4.2,0.5,5.7,1.6c1.5,1,2.6,2.5,3.4,4.3c0.7,1.8,1.1,4,1.1,6.4c0,2.5-0.4,4.6-1.1,6.4c-0.7,1.8-1.9,3.3-3.4,4.3
			s-3.4,1.5-5.7,1.5C80.6,658.6,78.7,658.1,77.2,657z M75.8,652.1c0.6,1.6,1.5,2.7,2.6,3.5c1.2,0.8,2.6,1.2,4.4,1.2s3.2-0.4,4.4-1.2
			c1.2-0.8,2-1.9,2.6-3.5s0.9-3.5,0.9-5.8s-0.3-4.2-0.9-5.8c-0.6-1.5-1.5-2.7-2.6-3.5c-1.2-0.8-2.6-1.2-4.4-1.2s-3.2,0.4-4.4,1.2
			c-1.2,0.8-2,1.9-2.6,3.5c-0.6,1.5-0.9,3.5-0.9,5.8C75,648.6,75.3,650.6,75.8,652.1z"/>
	</g>
</g>
<g>
	<g>
		<path d="M55.5,606.2c-1.3-0.6-2.3-1.4-3-2.4c-0.6-1-0.9-2.2-0.9-3.4c0-1.7,0.5-3,1.4-3.9c0.9-1,2.2-1.7,3.8-2.2
			c-1.5-0.4-2.6-1.1-3.4-2.1c-0.8-0.9-1.2-2.1-1.2-3.4c0-1.1,0.3-2.2,0.9-3.1s1.5-1.7,2.8-2.2c1.2-0.5,2.8-0.8,4.5-0.8
			s3.3,0.3,4.6,0.8c1.2,0.5,2.2,1.3,2.8,2.2s0.9,2,0.9,3.1c0,1.3-0.4,2.4-1.2,3.4c-0.8,0.9-1.9,1.6-3.4,2.1c1,0.3,2,0.7,2.7,1.3
			c0.8,0.5,1.4,1.2,1.8,2s0.7,1.8,0.7,2.9c0,1.2-0.3,2.4-0.9,3.4s-1.6,1.8-3,2.4c-1.3,0.6-3,0.9-5,0.9S56.8,606.8,55.5,606.2z
			 M64.2,604.7c1-0.4,1.7-1,2.2-1.8s0.7-1.6,0.7-2.6c0-1.6-0.6-2.9-1.7-3.8c-1.1-0.9-2.8-1.3-5-1.3c-1.5,0-2.7,0.2-3.7,0.6
			c-1,0.4-1.7,1-2.2,1.7s-0.7,1.7-0.7,2.7c0,1.5,0.5,2.7,1.6,3.6c1.1,0.9,2.8,1.4,5,1.4C62,605.4,63.2,605.1,64.2,604.7z
			 M63.9,592.9c0.9-0.4,1.6-1,2-1.7s0.6-1.4,0.6-2.3c0-1.4-0.5-2.4-1.5-3.3c-1-0.8-2.5-1.2-4.6-1.2c-1.4,0-2.5,0.2-3.4,0.6
			c-0.9,0.4-1.6,0.9-2,1.6c-0.4,0.7-0.7,1.5-0.7,2.3s0.2,1.6,0.6,2.3s1.1,1.3,2,1.7s2.1,0.7,3.5,0.7C61.9,593.6,63,593.4,63.9,592.9
			z"/>
		<path d="M77.2,605.6c-1.5-1-2.7-2.5-3.4-4.3c-0.7-1.8-1.1-4-1.1-6.5c0-2.4,0.4-4.5,1.1-6.4c0.8-1.8,1.9-3.3,3.4-4.3
			s3.4-1.6,5.6-1.6c2.3,0,4.2,0.5,5.7,1.6c1.5,1,2.6,2.5,3.4,4.3c0.7,1.8,1.1,4,1.1,6.4c0,2.5-0.4,4.6-1.1,6.4
			c-0.7,1.8-1.9,3.3-3.4,4.3s-3.4,1.5-5.7,1.5C80.6,607.2,78.7,606.7,77.2,605.6z M75.8,600.7c0.6,1.6,1.5,2.7,2.6,3.5
			c1.2,0.8,2.6,1.2,4.4,1.2s3.2-0.4,4.4-1.2c1.2-0.8,2-1.9,2.6-3.5s0.9-3.5,0.9-5.8s-0.3-4.2-0.9-5.8c-0.6-1.5-1.5-2.7-2.6-3.5
			c-1.2-0.8-2.6-1.2-4.4-1.2s-3.2,0.4-4.4,1.2c-1.2,0.8-2,1.9-2.6,3.5c-0.6,1.5-0.9,3.5-0.9,5.8C75,597.2,75.3,599.2,75.8,600.7z"/>
	</g>
</g>
<g>
	<g>
		<path d="M34.3,553.3h5.4v-19.6h-5.5v-1.9h5c1,0,1.6,0.2,2.1,0.6s0.6,1,0.6,1.9v19h5v1.9H34.3V553.3z"/>
		<path d="M53.8,554.2c-1.5-1-2.7-2.5-3.4-4.3s-1.1-4-1.1-6.5c0-2.4,0.4-4.5,1.1-6.4c0.8-1.8,1.9-3.3,3.4-4.3s3.4-1.6,5.6-1.6
			c2.3,0,4.2,0.5,5.7,1.6c1.5,1,2.6,2.5,3.4,4.3c0.7,1.8,1.1,3.9,1.1,6.4c0,2.4-0.4,4.6-1.1,6.4c-0.7,1.8-1.9,3.3-3.4,4.3
			s-3.4,1.5-5.7,1.5C57.2,555.8,55.3,555.3,53.8,554.2z M52.4,549.3c0.6,1.6,1.5,2.7,2.6,3.5c1.2,0.8,2.6,1.2,4.4,1.2
			s3.2-0.4,4.4-1.2c1.2-0.8,2-1.9,2.6-3.5s0.9-3.5,0.9-5.8s-0.3-4.2-0.9-5.8c-0.6-1.5-1.5-2.7-2.6-3.5c-1.2-0.8-2.6-1.2-4.4-1.2
			s-3.2,0.4-4.4,1.2s-2,1.9-2.6,3.5c-0.6,1.5-0.9,3.5-0.9,5.8C51.6,545.8,51.8,547.8,52.4,549.3z"/>
		<path d="M77.2,554.2c-1.5-1-2.7-2.5-3.4-4.3c-0.7-1.8-1.1-4-1.1-6.5c0-2.4,0.4-4.5,1.1-6.4c0.8-1.8,1.9-3.3,3.4-4.3
			s3.4-1.6,5.6-1.6c2.3,0,4.2,0.5,5.7,1.6c1.5,1,2.6,2.5,3.4,4.3c0.7,1.8,1.1,3.9,1.1,6.4c0,2.4-0.4,4.6-1.1,6.4
			c-0.7,1.8-1.9,3.3-3.4,4.3s-3.4,1.5-5.7,1.5C80.6,555.8,78.7,555.3,77.2,554.2z M75.8,549.3c0.6,1.6,1.5,2.7,2.6,3.5
			c1.2,0.8,2.6,1.2,4.4,1.2s3.2-0.4,4.4-1.2c1.2-0.8,2-1.9,2.6-3.5s0.9-3.5,0.9-5.8s-0.3-4.2-0.9-5.8c-0.6-1.5-1.5-2.7-2.6-3.5
			c-1.2-0.8-2.6-1.2-4.4-1.2s-3.2,0.4-4.4,1.2c-1.2,0.8-2,1.9-2.6,3.5c-0.6,1.5-0.9,3.5-0.9,5.8C75,545.8,75.3,547.8,75.8,549.3z"/>
	</g>
</g>
<g>
	<g>
		<path d="M36.3,502h5.4v-19.6h-5.5v-1.9h5c1,0,1.6,0.2,2.1,0.6s0.6,1,0.6,1.9v19h5v1.9H36.3V502z"/>
		<path d="M52,502l11.2-9.7c1.3-1.2,2.2-2.2,2.7-3s0.8-1.8,0.8-2.9c0-1.4-0.5-2.5-1.4-3.3s-2.3-1.2-4.1-1.2c-1.6,0-2.9,0.3-3.9,0.9
			s-1.8,1.5-2.3,2.6c-0.5,1.2-0.8,2.7-0.8,4.5H52c0-2.1,0.4-3.9,1.1-5.3c0.7-1.5,1.7-2.6,3.1-3.4c1.4-0.8,3-1.2,5-1.2
			c1.8,0,3.2,0.3,4.4,0.9c1.2,0.6,2,1.3,2.6,2.3c0.5,1,0.8,2,0.8,3.2c0,1.4-0.4,2.7-1.2,3.9c-0.8,1.2-2.1,2.6-4,4.3l-8.7,7.5h14.4
			v1.9H52V502z"/>
		<path d="M77.2,502.9c-1.5-1-2.7-2.5-3.4-4.3c-0.7-1.8-1.1-4-1.1-6.5c0-2.4,0.4-4.5,1.1-6.4c0.8-1.8,1.9-3.3,3.4-4.3
			s3.4-1.6,5.6-1.6c2.3,0,4.2,0.5,5.7,1.6c1.5,1,2.6,2.5,3.4,4.3c0.7,1.8,1.1,3.9,1.1,6.4c0,2.4-0.4,4.6-1.1,6.4s-1.9,3.3-3.4,4.3
			s-3.4,1.5-5.7,1.5C80.6,504.5,78.7,504,77.2,502.9z M75.8,498c0.6,1.6,1.5,2.7,2.6,3.5c1.2,0.8,2.6,1.2,4.4,1.2s3.2-0.4,4.4-1.2
			c1.2-0.8,2-1.9,2.6-3.5s0.9-3.5,0.9-5.8s-0.3-4.2-0.9-5.8c-0.6-1.5-1.5-2.7-2.6-3.5c-1.2-0.8-2.6-1.2-4.4-1.2s-3.2,0.4-4.4,1.2
			c-1.2,0.8-2,1.9-2.6,3.5c-0.6,1.5-0.9,3.5-0.9,5.8C75,494.5,75.3,496.5,75.8,498z"/>
	</g>
</g>
<g>
	<g>
		<path d="M77.2,811.3c-1.5-1-2.7-2.5-3.4-4.3c-0.7-1.8-1.1-4-1.1-6.5c0-2.4,0.4-4.5,1.1-6.4c0.8-1.8,1.9-3.3,3.4-4.3
			s3.4-1.6,5.6-1.6c2.3,0,4.2,0.5,5.7,1.6c1.5,1,2.6,2.5,3.4,4.3c0.7,1.8,1.1,4,1.1,6.4c0,2.5-0.4,4.6-1.1,6.4
			c-0.7,1.8-1.9,3.3-3.4,4.3s-3.4,1.5-5.7,1.5C80.6,812.9,78.7,812.4,77.2,811.3z M75.8,806.4c0.6,1.6,1.5,2.7,2.6,3.5
			c1.2,0.8,2.6,1.2,4.4,1.2s3.2-0.4,4.4-1.2c1.2-0.8,2-1.9,2.6-3.5s0.9-3.5,0.9-5.8s-0.3-4.2-0.9-5.8c-0.6-1.5-1.5-2.7-2.6-3.5
			c-1.2-0.8-2.6-1.2-4.4-1.2s-3.2,0.4-4.4,1.2c-1.2,0.8-2,1.9-2.6,3.5c-0.6,1.5-0.9,3.5-0.9,5.8C75,802.9,75.3,804.9,75.8,806.4z"/>
	</g>
</g>
<g>
	<g>
		<path d="M52,758.4l11.2-9.7c1.3-1.2,2.2-2.2,2.7-3s0.8-1.8,0.8-2.9c0-1.4-0.5-2.5-1.4-3.3s-2.3-1.2-4.1-1.2
			c-1.6,0-2.9,0.3-3.9,0.9c-1,0.6-1.8,1.5-2.3,2.6c-0.5,1.2-0.8,2.7-0.8,4.5H52c0-2.1,0.4-3.9,1.1-5.3c0.7-1.5,1.7-2.6,3.1-3.4
			c1.4-0.8,3-1.2,5-1.2c1.8,0,3.2,0.3,4.4,0.9c1.2,0.6,2,1.3,2.6,2.3c0.5,1,0.8,2,0.8,3.2c0,1.4-0.4,2.7-1.2,3.9
			c-0.8,1.2-2.1,2.6-4,4.3l-8.7,7.5h14.4v1.9H52V758.4z"/>
		<path d="M77.2,759.3c-1.5-1-2.7-2.5-3.4-4.3c-0.7-1.8-1.1-4-1.1-6.5c0-2.4,0.4-4.5,1.1-6.4c0.8-1.8,1.9-3.3,3.4-4.3
			s3.4-1.6,5.6-1.6c2.3,0,4.2,0.5,5.7,1.6c1.5,1,2.6,2.5,3.4,4.3c0.7,1.8,1.1,3.9,1.1,6.4c0,2.4-0.4,4.6-1.1,6.4
			c-0.7,1.8-1.9,3.3-3.4,4.3s-3.4,1.5-5.7,1.5C80.6,760.9,78.7,760.3,77.2,759.3z M75.8,754.4c0.6,1.6,1.5,2.7,2.6,3.5
			c1.2,0.8,2.6,1.2,4.4,1.2s3.2-0.4,4.4-1.2c1.2-0.8,2-1.9,2.6-3.5s0.9-3.5,0.9-5.8s-0.3-4.2-0.9-5.8c-0.6-1.5-1.5-2.7-2.6-3.5
			c-1.2-0.8-2.6-1.2-4.4-1.2s-3.2,0.4-4.4,1.2c-1.2,0.8-2,1.9-2.6,3.5c-0.6,1.5-0.9,3.5-0.9,5.8C75,750.9,75.3,752.8,75.8,754.4z"/>
	</g>
</g>
<g>
	<g>
		<path d="M36.4,450.7h5.4v-19.6h-5.5v-1.9h5c1,0,1.6,0.2,2.1,0.6c0.4,0.4,0.6,1,0.6,1.9v19h5v1.9H36.4V450.7z"/>
		<path d="M64.1,446.4h-13v-1.8l11.7-15.3h2.4l-11.8,15.3h10.7v-15.3h2.2v15.3h4v1.8h-4v6.2h-2.2V446.4z"/>
		<path d="M77.2,451.6c-1.5-1-2.7-2.5-3.4-4.3c-0.7-1.8-1.1-4-1.1-6.5c0-2.4,0.4-4.5,1.1-6.4c0.8-1.8,1.9-3.3,3.4-4.3
			s3.4-1.6,5.6-1.6c2.3,0,4.2,0.5,5.7,1.6c1.5,1,2.6,2.5,3.4,4.3c0.7,1.8,1.1,3.9,1.1,6.4c0,2.4-0.4,4.6-1.1,6.4s-1.9,3.3-3.4,4.3
			s-3.4,1.5-5.7,1.5C80.6,453.2,78.7,452.7,77.2,451.6z M75.8,446.7c0.6,1.6,1.5,2.7,2.6,3.5c1.2,0.8,2.6,1.2,4.4,1.2
			s3.2-0.4,4.4-1.2c1.2-0.8,2-1.9,2.6-3.5s0.9-3.5,0.9-5.8s-0.3-4.2-0.9-5.8c-0.6-1.5-1.5-2.7-2.6-3.5c-1.2-0.8-2.6-1.2-4.4-1.2
			s-3.2,0.4-4.4,1.2c-1.2,0.8-2,1.9-2.6,3.5c-0.6,1.5-0.9,3.5-0.9,5.8C75,443.2,75.3,445.2,75.8,446.7z"/>
	</g>
</g>
<g>
	<g>
		<path d="M36.6,401.1H42v-19.6h-5.5v-1.9h5c1,0,1.6,0.2,2.1,0.6c0.4,0.4,0.6,1,0.6,1.9v19h5v1.9H36.6V401.1z"/>
		<path d="M56,402.4c-1.4-0.8-2.4-2.1-3.1-3.8c-0.7-1.7-1.1-4-1.1-6.7c0-2.6,0.4-4.9,1.1-6.8c0.7-1.9,1.8-3.4,3.3-4.4
			s3.2-1.5,5.3-1.5c1.7,0,3.1,0.3,4.2,0.8s2,1.3,2.6,2.3s1,2.2,1.2,3.5h-2.2c-0.1-1-0.4-1.9-0.9-2.6s-1.2-1.3-2-1.6
			c-0.8-0.4-1.8-0.6-2.9-0.6c-2.5,0-4.4,1-5.7,2.9s-2,5-2,9.2v1.8l-0.4-0.2c0.4-1.8,1.3-3.2,2.8-4.3c1.4-1.1,3.2-1.7,5.4-1.7
			c1.5,0,2.8,0.3,4.1,0.8c1.2,0.6,2.2,1.4,2.9,2.5c0.7,1.1,1.1,2.5,1.1,4.1c0,1.4-0.3,2.7-1,3.9c-0.7,1.2-1.6,2.1-2.9,2.8
			s-2.9,1-4.7,1C59,403.6,57.3,403.2,56,402.4z M65.6,400.2c1-1.1,1.6-2.5,1.6-4.2c0-1.8-0.5-3.2-1.5-4.3c-1-1.1-2.6-1.6-4.6-1.6
			c-1.2,0-2.4,0.2-3.4,0.7s-1.8,1.2-2.4,2c-0.6,0.9-0.9,1.9-0.9,3c0,1.8,0.6,3.2,1.8,4.3c1.2,1.1,2.8,1.6,4.8,1.6
			C63,401.8,64.6,401.2,65.6,400.2z"/>
		<path d="M77.2,402c-1.5-1-2.7-2.5-3.4-4.3c-0.7-1.8-1.1-4-1.1-6.5c0-2.4,0.4-4.5,1.1-6.4c0.8-1.8,1.9-3.3,3.4-4.3s3.4-1.6,5.6-1.6
			c2.3,0,4.2,0.5,5.7,1.6c1.5,1,2.6,2.5,3.4,4.3c0.7,1.8,1.1,3.9,1.1,6.4c0,2.4-0.4,4.6-1.1,6.4s-1.9,3.3-3.4,4.3s-3.4,1.5-5.7,1.5
			C80.6,403.6,78.7,403.1,77.2,402z M75.8,397.1c0.6,1.6,1.5,2.7,2.6,3.5c1.2,0.8,2.6,1.2,4.4,1.2s3.2-0.4,4.4-1.2
			c1.2-0.8,2-1.9,2.6-3.5s0.9-3.5,0.9-5.8s-0.3-4.2-0.9-5.8c-0.6-1.5-1.5-2.7-2.6-3.5c-1.2-0.8-2.6-1.2-4.4-1.2s-3.2,0.4-4.4,1.2
			c-1.2,0.8-2,1.9-2.6,3.5c-0.6,1.5-0.9,3.5-0.9,5.8C75,393.6,75.3,395.6,75.8,397.1z"/>
	</g>
</g>
<g>
	<g>
		<path d="M36.3,350h5.4v-19.6h-5.5v-1.9h5c1,0,1.6,0.2,2.1,0.6c0.4,0.4,0.6,1,0.6,1.9v19h5v1.9H36.3V350z"/>
		<path d="M55.5,351.5c-1.3-0.6-2.3-1.4-3-2.4c-0.6-1-0.9-2.2-0.9-3.4c0-1.7,0.5-3,1.4-3.9c0.9-1,2.2-1.7,3.8-2.2
			c-1.5-0.4-2.6-1.1-3.4-2.1s-1.2-2.1-1.2-3.4c0-1.1,0.3-2.2,0.9-3.1s1.5-1.7,2.8-2.2c1.2-0.5,2.8-0.8,4.5-0.8s3.3,0.3,4.6,0.8
			c1.2,0.5,2.2,1.3,2.8,2.2s0.9,2,0.9,3.1c0,1.3-0.4,2.4-1.2,3.4c-0.8,0.9-1.9,1.6-3.4,2.1c1,0.3,2,0.7,2.7,1.3s1.4,1.2,1.8,2
			s0.7,1.8,0.7,2.9c0,1.2-0.3,2.4-0.9,3.4s-1.6,1.8-3,2.4c-1.3,0.6-3,0.9-5,0.9S56.8,352.1,55.5,351.5z M64.2,350
			c1-0.4,1.7-1,2.2-1.8c0.5-0.7,0.7-1.6,0.7-2.6c0-1.6-0.6-2.9-1.7-3.8s-2.8-1.3-5-1.3c-1.5,0-2.7,0.2-3.7,0.6s-1.7,1-2.2,1.7
			s-0.7,1.7-0.7,2.7c0,1.5,0.5,2.7,1.6,3.6s2.8,1.4,5,1.4C62,350.7,63.2,350.4,64.2,350z M63.9,338.2c0.9-0.4,1.6-1,2-1.7
			s0.6-1.4,0.6-2.3c0-1.4-0.5-2.4-1.5-3.3c-1-0.8-2.5-1.2-4.6-1.2c-1.4,0-2.5,0.2-3.4,0.6s-1.6,0.9-2,1.6s-0.7,1.5-0.7,2.3
			s0.2,1.6,0.6,2.3c0.4,0.7,1.1,1.3,2,1.7c0.9,0.4,2.1,0.7,3.5,0.7C61.9,338.9,63,338.7,63.9,338.2z"/>
		<path d="M77.2,350.9c-1.5-1-2.7-2.5-3.4-4.3c-0.7-1.8-1.1-4-1.1-6.5c0-2.4,0.4-4.5,1.1-6.4c0.8-1.8,1.9-3.3,3.4-4.3
			s3.4-1.6,5.6-1.6c2.3,0,4.2,0.5,5.7,1.6c1.5,1,2.6,2.5,3.4,4.3c0.7,1.8,1.1,3.9,1.1,6.4c0,2.4-0.4,4.6-1.1,6.4s-1.9,3.3-3.4,4.3
			s-3.4,1.5-5.7,1.5C80.6,352.5,78.7,352,77.2,350.9z M75.8,346c0.6,1.6,1.5,2.7,2.6,3.5c1.2,0.8,2.6,1.2,4.4,1.2s3.2-0.4,4.4-1.2
			c1.2-0.8,2-1.9,2.6-3.5s0.9-3.5,0.9-5.8s-0.3-4.2-0.9-5.8c-0.6-1.5-1.5-2.7-2.6-3.5c-1.2-0.8-2.6-1.2-4.4-1.2s-3.2,0.4-4.4,1.2
			c-1.2,0.8-2,1.9-2.6,3.5c-0.6,1.5-0.9,3.5-0.9,5.8C75,342.5,75.3,344.5,75.8,346z"/>
	</g>
</g>
<g>
	<g>
		<path d="M28.6,296.5l11.2-9.7c1.3-1.2,2.2-2.2,2.7-3s0.8-1.8,0.8-2.9c0-1.4-0.5-2.5-1.4-3.3s-2.3-1.2-4.1-1.2
			c-1.6,0-2.9,0.3-3.9,0.9s-1.8,1.5-2.3,2.6c-0.5,1.2-0.8,2.7-0.8,4.5h-2.2c0-2.1,0.4-3.9,1.1-5.3c0.7-1.5,1.7-2.6,3.1-3.4
			c1.4-0.8,3-1.2,5-1.2c1.8,0,3.2,0.3,4.4,0.9s2,1.3,2.6,2.3c0.5,1,0.8,2,0.8,3.2c0,1.4-0.4,2.7-1.2,3.9c-0.8,1.2-2.1,2.6-4,4.3
			l-8.7,7.5h14.4v1.9H28.6V296.5z"/>
		<path d="M53.8,297.4c-1.5-1-2.7-2.5-3.4-4.3s-1.1-4-1.1-6.5c0-2.4,0.4-4.5,1.1-6.4c0.8-1.8,1.9-3.3,3.4-4.3s3.4-1.6,5.6-1.6
			c2.3,0,4.2,0.5,5.7,1.6c1.5,1,2.6,2.5,3.4,4.3c0.7,1.8,1.1,3.9,1.1,6.4c0,2.4-0.4,4.6-1.1,6.4s-1.9,3.3-3.4,4.3s-3.4,1.5-5.7,1.5
			C57.2,299,55.3,298.5,53.8,297.4z M52.4,292.5c0.6,1.6,1.5,2.7,2.6,3.5c1.2,0.8,2.6,1.2,4.4,1.2s3.2-0.4,4.4-1.2
			c1.2-0.8,2-1.9,2.6-3.5s0.9-3.5,0.9-5.8s-0.3-4.2-0.9-5.8c-0.6-1.5-1.5-2.7-2.6-3.5c-1.2-0.8-2.6-1.2-4.4-1.2s-3.2,0.4-4.4,1.2
			c-1.2,0.8-2,1.9-2.6,3.5c-0.6,1.5-0.9,3.5-0.9,5.8C51.6,289,51.8,291,52.4,292.5z"/>
		<path d="M77.2,297.4c-1.5-1-2.7-2.5-3.4-4.3c-0.7-1.8-1.1-4-1.1-6.5c0-2.4,0.4-4.5,1.1-6.4c0.8-1.8,1.9-3.3,3.4-4.3
			s3.4-1.6,5.6-1.6c2.3,0,4.2,0.5,5.7,1.6c1.5,1,2.6,2.5,3.4,4.3c0.7,1.8,1.1,3.9,1.1,6.4c0,2.4-0.4,4.6-1.1,6.4s-1.9,3.3-3.4,4.3
			s-3.4,1.5-5.7,1.5C80.6,299,78.7,298.5,77.2,297.4z M75.8,292.5c0.6,1.6,1.5,2.7,2.6,3.5c1.2,0.8,2.6,1.2,4.4,1.2s3.2-0.4,4.4-1.2
			c1.2-0.8,2-1.9,2.6-3.5s0.9-3.5,0.9-5.8s-0.3-4.2-0.9-5.8c-0.6-1.5-1.5-2.7-2.6-3.5c-1.2-0.8-2.6-1.2-4.4-1.2s-3.2,0.4-4.4,1.2
			c-1.2,0.8-2,1.9-2.6,3.5c-0.6,1.5-0.9,3.5-0.9,5.8C75,289,75.3,291,75.8,292.5z"/>
	</g>
</g>
<g>
	<g>
		<path d="M30.6,244.2l11.2-9.7c1.3-1.2,2.2-2.2,2.7-3s0.8-1.8,0.8-2.9c0-1.4-0.5-2.5-1.4-3.3s-2.3-1.2-4.1-1.2
			c-1.6,0-2.9,0.3-3.9,0.9c-1,0.6-1.8,1.5-2.3,2.6c-0.5,1.2-0.8,2.7-0.8,4.5h-2.2c0-2.1,0.4-3.9,1.1-5.3c0.7-1.5,1.7-2.6,3.1-3.4
			c1.4-0.8,3-1.2,5-1.2c1.8,0,3.2,0.3,4.4,0.9c1.2,0.6,2,1.3,2.6,2.3c0.5,1,0.8,2,0.8,3.2c0,1.4-0.4,2.7-1.2,3.9s-2.1,2.6-4,4.3
			l-8.7,7.5h14.4v1.9H30.6V244.2z"/>
		<path d="M52,244.2l11.2-9.7c1.3-1.2,2.2-2.2,2.7-3s0.8-1.8,0.8-2.9c0-1.4-0.5-2.5-1.4-3.3s-2.3-1.2-4.1-1.2
			c-1.6,0-2.9,0.3-3.9,0.9c-1,0.6-1.8,1.5-2.3,2.6c-0.5,1.2-0.8,2.7-0.8,4.5H52c0-2.1,0.4-3.9,1.1-5.3c0.7-1.5,1.7-2.6,3.1-3.4
			c1.4-0.8,3-1.2,5-1.2c1.8,0,3.2,0.3,4.4,0.9c1.2,0.6,2,1.3,2.6,2.3c0.5,1,0.8,2,0.8,3.2c0,1.4-0.4,2.7-1.2,3.9
			c-0.8,1.2-2.1,2.6-4,4.3l-8.7,7.5h14.4v1.9H52V244.2z"/>
		<path d="M77.2,245.1c-1.5-1-2.7-2.5-3.4-4.3c-0.7-1.8-1.1-4-1.1-6.5c0-2.4,0.4-4.5,1.1-6.4c0.8-1.8,1.9-3.3,3.4-4.3
			s3.4-1.6,5.6-1.6c2.3,0,4.2,0.5,5.7,1.6c1.5,1,2.6,2.5,3.4,4.3c0.7,1.8,1.1,3.9,1.1,6.4c0,2.4-0.4,4.6-1.1,6.4
			c-0.7,1.8-1.9,3.3-3.4,4.3s-3.4,1.5-5.7,1.5C80.6,246.7,78.7,246.2,77.2,245.1z M75.8,240.2c0.6,1.6,1.5,2.7,2.6,3.5
			c1.2,0.8,2.6,1.2,4.4,1.2s3.2-0.4,4.4-1.2c1.2-0.8,2-1.9,2.6-3.5s0.9-3.5,0.9-5.8s-0.3-4.2-0.9-5.8c-0.6-1.5-1.5-2.7-2.6-3.5
			c-1.2-0.8-2.6-1.2-4.4-1.2s-3.2,0.4-4.4,1.2c-1.2,0.8-2,1.9-2.6,3.5c-0.6,1.5-0.9,3.5-0.9,5.8C75,236.7,75.3,238.7,75.8,240.2z"/>
	</g>
</g>
<g>
	<g>
		<path d="M1190.5,420.3h-2.2v-21.7l-8.6,21.7h-3.1l-8.6-21.7v21.7h-2.2V397h3.9l8.4,21.4l8.5-21.4h3.8L1190.5,420.3L1190.5,420.3z"
			/>
		<path d="M1212.6,420.3l-2.5-6.4h-11.8l-2.5,6.4h-2.2l9-23.3h3.2l9,23.3H1212.6z M1199,412.1h10.4l-5.2-13.4L1199,412.1z"/>
		<path d="M1219.2,420.3h-2.6l9.3-12.6l1.3,1.7L1219.2,420.3z M1216.7,397h2.6l17.4,23.3h-2.7L1216.7,397z M1233.9,397h2.5
			l-9.1,12.4l-1.3-1.7L1233.9,397z"/>
	</g>
</g>
<g>
	<g>
		<path d="M1190.5,799.2h-2.2v-21.7l-8.6,21.7h-3.1l-8.6-21.7v21.7h-2.2V776h3.9l8.4,21.3l8.5-21.3h3.8L1190.5,799.2L1190.5,799.2z"
			/>
		<path d="M1194.9,776h12.4v1.8h-12.4V776z M1194.9,797.4h12.4v1.8h-12.4V797.4z M1200,776.9h2.2v21.5h-2.2V776.9z"/>
		<path d="M1228.5,776h2.2v23.3h-3.5L1215,780c-0.5-0.9-0.9-1.7-1.2-2.3v21.6h-2.2V776h3.5l12.2,19.2c0.3,0.6,0.8,1.4,1.3,2.4V776
			H1228.5z"/>
	</g>
</g>
<g>
	<g>
		<path d="M78.4,860.4c-1.3-0.8-2.3-1.9-3-3.4s-1-3.3-1-5.5c0-3.3,0.8-5.7,2.3-7.5c1.5-1.7,3.8-2.6,6.7-2.6c2.9,0,5.1,0.9,6.6,2.6
			s2.2,4.2,2.2,7.5c0,2.2-0.3,4.1-1,5.6s-1.6,2.6-2.9,3.4s-2.9,1.1-4.9,1.1C81.4,861.6,79.7,861.2,78.4,860.4z M79.2,869.6
			c-1.3-0.5-2.3-1.3-3-2.4c-0.7-1-1.1-2.3-1.3-3.8h2.4c0.1,1,0.3,1.8,0.8,2.6c0.5,0.7,1.2,1.3,2.1,1.8c1,0.5,2.2,0.7,3.7,0.7
			c1.7,0,3.1-0.2,4.1-0.6c1-0.4,1.8-1.1,2.3-2s0.7-2.1,0.7-3.6V842h2.4v20.2c0,1.8-0.3,3.3-0.9,4.5s-1.6,2.1-3,2.8
			c-1.4,0.6-3.2,1-5.6,1C82.1,870.4,80.5,870.1,79.2,869.6z M87.8,858.8c1.1-0.5,1.9-1.4,2.5-2.6c0.6-1.2,0.9-2.8,0.9-4.7
			s-0.3-3.5-0.9-4.7s-1.4-2.1-2.5-2.6s-2.3-0.8-3.8-0.8c-1.6,0-2.9,0.3-4,0.8c-1,0.6-1.8,1.4-2.3,2.6s-0.8,2.7-0.8,4.6
			c0,1.9,0.3,3.4,0.8,4.6c0.5,1.2,1.3,2.1,2.3,2.7c1,0.6,2.4,0.9,4,0.9C85.4,859.6,86.7,859.4,87.8,858.8z"/>
		<path d="M102.3,861.2c-1.5-0.9-2.5-2.2-3.3-3.8c-0.7-1.6-1.1-3.5-1.1-5.6s0.4-3.9,1.1-5.5s1.8-2.8,3.3-3.7s3.3-1.4,5.4-1.4
			c1.8,0,3.4,0.4,4.8,1.2s2.4,1.9,3.2,3.4c0.7,1.5,1.1,3.2,1.1,5.2v0.5c0,0.2,0,0.5,0,0.7h-17v-1.9h15.7l-1,1.2
			c0.1-1.9-0.1-3.5-0.7-4.8s-1.3-2.1-2.3-2.7c-1-0.6-2.3-0.8-3.7-0.8c-1.6,0-2.9,0.3-4,0.9c-1.1,0.6-1.9,1.5-2.5,2.8
			s-0.9,2.9-0.9,4.9s0.3,3.7,0.9,5s1.4,2.2,2.5,2.9s2.4,0.9,4,0.9c1.4,0,2.5-0.2,3.5-0.6c0.9-0.4,1.7-1,2.2-1.7s0.9-1.6,1.1-2.7h2.2
			c-0.2,1.2-0.6,2.3-1.3,3.4c-0.7,1-1.7,1.9-3,2.6c-1.3,0.7-2.9,1-4.9,1C105.5,862.6,103.7,862.1,102.3,861.2z"/>
		<path d="M120.9,842h2.4v20h-2.4V842z M123.5,847.4c0.7-2,1.7-3.6,3-4.6s3-1.5,4.9-1.5c1.6,0,2.9,0.3,3.9,0.8
			c1,0.6,1.8,1.4,2.3,2.5s0.8,2.6,0.8,4.3v13H136v-12.6c0-1.4-0.2-2.6-0.6-3.5s-1-1.5-1.7-1.9c-0.8-0.4-1.7-0.6-2.8-0.6
			c-1.7,0-3,0.5-4.1,1.4s-1.9,2.3-2.5,4c-0.6,1.8-0.9,3.9-0.9,6.4h-0.8C122.5,852,122.8,849.4,123.5,847.4z"/>
	</g>
</g>
<g>
	<g>
		<path d="M193,861.8c-1-0.4-1.8-1.1-2.4-1.9c-0.6-0.9-0.9-1.9-0.9-3.2c0-1.1,0.2-2,0.6-2.8c0.4-0.8,1.1-1.5,2-2s2.1-0.9,3.4-1.1
			l5.2-0.9c1.2-0.2,2-0.5,2.5-0.8c0.5-0.4,0.7-0.9,0.7-1.7s-0.2-1.5-0.5-2.1s-0.9-1.1-1.7-1.5s-1.9-0.5-3.3-0.5
			c-2.1,0-3.6,0.5-4.6,1.4c-0.9,0.9-1.5,2.1-1.6,3.6h-2.3c0.1-1.4,0.4-2.6,1.1-3.7c0.7-1,1.6-1.8,2.8-2.4c1.2-0.6,2.7-0.9,4.5-0.9
			s3.2,0.3,4.4,0.8c1.1,0.5,2,1.2,2.5,2.1c0.5,0.9,0.8,2,0.8,3.2v9.3c0,0.7,0,1.6,0.1,2.5c0,0.9,0.1,1.9,0.2,2.8h-2.2
			c-0.1-0.9-0.1-1.8-0.2-2.6c-0.1-0.8-0.1-1.6-0.1-2.3c-0.3,0.9-0.7,1.8-1.3,2.6s-1.4,1.5-2.5,2s-2.4,0.8-3.9,0.8
			C195.1,862.5,194,862.3,193,861.8z M200.9,859.4c1.1-0.8,1.9-1.8,2.5-2.9c0.5-1.2,0.8-2.4,0.8-3.7v-2.2c-0.5,0.3-0.9,0.5-1.3,0.7
			c-0.4,0.2-1,0.3-1.7,0.5l-0.6,0.1l-3.9,0.7c-1.5,0.3-2.6,0.8-3.4,1.4c-0.7,0.7-1.1,1.6-1.1,2.8c0,1.3,0.4,2.2,1.2,2.8s1.9,1,3.3,1
			C198.4,860.5,199.8,860.1,200.9,859.4z"/>
		<path d="M211.7,842h2.4v4.8v0.6V870h-2.4V842z M215.3,859.8c-1.5-1.9-2.3-4.5-2.3-7.9c0-3.3,0.8-5.9,2.3-7.8s3.7-2.8,6.5-2.8
			c2,0,3.7,0.4,5,1.3c1.3,0.9,2.3,2.1,3,3.7c0.7,1.6,1,3.5,1,5.6s-0.3,4-1,5.6s-1.7,2.8-3,3.7s-3,1.3-5,1.3
			C219,862.6,216.8,861.7,215.3,859.8z M225.3,859.7c1-0.6,1.8-1.6,2.3-2.9s0.8-2.9,0.8-4.8c0-1.9-0.3-3.6-0.8-4.8
			c-0.5-1.3-1.3-2.2-2.3-2.9c-1-0.6-2.3-0.9-3.9-0.9c-1.5,0-2.7,0.3-3.8,0.9c-1.1,0.6-1.9,1.5-2.5,2.8s-0.9,2.9-0.9,4.9
			s0.3,3.6,0.9,4.9c0.6,1.3,1.5,2.2,2.5,2.9c1.1,0.6,2.4,0.9,3.8,0.9C222.9,860.6,224.2,860.3,225.3,859.7z"/>
		<path d="M235.3,842h2.4v7.1v0.5V862h-2.4V842z M237.7,847.8c0.6-1.9,1.5-3.4,2.8-4.5c1.3-1,2.9-1.6,4.8-1.6h0.8v2.4h-0.7
			c-2.1-0.1-3.7,0.3-4.8,1.3s-1.9,2.2-2.3,3.8c-0.4,1.6-0.6,3.5-0.6,5.7h-0.9C236.8,852.1,237.1,849.8,237.7,847.8z"/>
	</g>
</g>
<g>
	<g>
		<path d="M304.7,834h2.4v28h-2.4V834z"/>
		<path d="M315.8,861.8c-1.1-0.5-1.8-1.4-2.4-2.5c-0.5-1.1-0.8-2.6-0.8-4.3v-13h2.4v12.6c0,1.5,0.2,2.8,0.6,3.6
			c0.4,0.9,1,1.5,1.8,1.8s1.8,0.5,3,0.5c1.6,0,2.9-0.5,4-1.4s1.9-2.3,2.4-4.1s0.8-3.9,0.8-6.3h0.8c0,3.1-0.3,5.7-1,7.7
			s-1.6,3.6-2.9,4.6s-2.9,1.5-4.8,1.5C318.2,862.6,316.8,862.3,315.8,861.8z M327.6,855v-0.4V842h2.4v20h-2.4V855z"/>
		<path d="M338.4,860.4c-1.3-0.8-2.3-1.9-3-3.4s-1-3.3-1-5.5c0-3.3,0.8-5.7,2.3-7.5c1.5-1.7,3.8-2.6,6.7-2.6c2.9,0,5.1,0.9,6.6,2.6
			c1.5,1.7,2.2,4.2,2.2,7.5c0,2.2-0.3,4.1-1,5.6s-1.6,2.6-2.9,3.4s-2.9,1.1-4.9,1.1C341.4,861.6,339.8,861.2,338.4,860.4z
			 M339.2,869.6c-1.3-0.5-2.3-1.3-3-2.4s-1.1-2.3-1.3-3.8h2.4c0.1,1,0.3,1.8,0.8,2.6c0.5,0.7,1.2,1.3,2.1,1.8c1,0.5,2.2,0.7,3.7,0.7
			c1.7,0,3.1-0.2,4.1-0.6s1.8-1.1,2.3-2s0.7-2.1,0.7-3.6V842h2.4v20.2c0,1.8-0.3,3.3-0.9,4.5s-1.6,2.1-3,2.8c-1.4,0.6-3.2,1-5.6,1
			C342.1,870.4,340.5,870.1,339.2,869.6z M347.8,858.8c1.1-0.5,1.9-1.4,2.5-2.6c0.6-1.2,0.9-2.8,0.9-4.7s-0.3-3.5-0.9-4.7
			s-1.4-2.1-2.5-2.6s-2.3-0.8-3.8-0.8c-1.6,0-2.9,0.3-4,0.8s-1.8,1.4-2.3,2.6c-0.5,1.2-0.8,2.7-0.8,4.6s0.3,3.4,0.8,4.6
			s1.3,2.1,2.3,2.7s2.4,0.9,4,0.9C345.5,859.6,346.7,859.4,347.8,858.8z"/>
	</g>
</g>
<g>
	<g>
		<path d="M422.9,861.2c-1.5-0.9-2.6-2.2-3.3-3.8c-0.7-1.6-1.1-3.5-1.1-5.6s0.4-3.9,1.1-5.5s1.8-2.8,3.3-3.7s3.3-1.4,5.4-1.4
			s3.9,0.5,5.4,1.4s2.6,2.2,3.3,3.8c0.7,1.6,1.1,3.4,1.1,5.5s-0.4,3.9-1.1,5.5s-1.9,2.9-3.3,3.8c-1.5,0.9-3.3,1.4-5.4,1.4
			C426.2,862.6,424.4,862.1,422.9,861.2z M421.8,856.8c0.6,1.3,1.4,2.2,2.5,2.9c1.1,0.6,2.4,0.9,4,0.9s2.9-0.3,4-0.9
			c1.1-0.6,1.9-1.6,2.5-2.9c0.6-1.3,0.8-2.9,0.8-4.9c0-1.9-0.3-3.6-0.8-4.8c-0.6-1.3-1.4-2.2-2.5-2.8s-2.4-0.9-4-0.9s-2.9,0.3-4,0.9
			c-1.1,0.6-1.9,1.6-2.5,2.8c-0.6,1.3-0.8,2.9-0.8,4.8C421,853.9,421.3,855.5,421.8,856.8z"/>
		<path d="M445.1,861.6c-0.5-0.2-0.9-0.6-1.1-1.1s-0.3-1.2-0.3-2v-14.6h-3.8v-1.4l4-0.6l0.8-4.2h1.4v4.3h11.3v1.9H446V860h6.7v2
			h-5.4C446.3,862,445.6,861.8,445.1,861.6z M457.8,861.6c-0.5-0.2-0.9-0.6-1.1-1.1s-0.3-1.2-0.3-2v-14.6h-3.8v-1.4l3.9-0.3l0.9-4.5
			h1.4v4.3h6.8v1.9h-6.8V860h6.7v2H460C459.1,862,458.3,861.8,457.8,861.6z"/>
	</g>
</g>
<g>
	<g>
		<path d="M526.3,860.4c-1.3-0.8-2.3-1.9-3-3.4s-1-3.3-1-5.5c0-3.3,0.8-5.7,2.3-7.5c1.5-1.7,3.8-2.6,6.7-2.6s5.1,0.9,6.6,2.6
			s2.2,4.2,2.2,7.5c0,2.2-0.3,4.1-1,5.6s-1.6,2.6-2.9,3.4s-2.9,1.1-4.9,1.1C529.3,861.6,527.6,861.2,526.3,860.4z M527.1,869.6
			c-1.3-0.5-2.3-1.3-3-2.4c-0.7-1-1.1-2.3-1.3-3.8h2.4c0.1,1,0.3,1.8,0.8,2.6c0.5,0.7,1.2,1.3,2.1,1.8c1,0.5,2.2,0.7,3.7,0.7
			c1.7,0,3.1-0.2,4.1-0.6c1-0.4,1.8-1.1,2.3-2s0.7-2.1,0.7-3.6V842h2.4v20.2c0,1.8-0.3,3.3-0.9,4.5c-0.6,1.2-1.6,2.1-3,2.8
			c-1.4,0.6-3.2,1-5.6,1C530,870.4,528.4,870.1,527.1,869.6z M535.7,858.8c1.1-0.5,1.9-1.4,2.5-2.6c0.6-1.2,0.9-2.8,0.9-4.7
			s-0.3-3.5-0.9-4.7c-0.6-1.2-1.4-2.1-2.5-2.6s-2.3-0.8-3.8-0.8c-1.6,0-2.9,0.3-4,0.8c-1,0.6-1.8,1.4-2.3,2.6s-0.8,2.7-0.8,4.6
			c0,1.9,0.3,3.4,0.8,4.6c0.5,1.2,1.3,2.1,2.3,2.7c1,0.6,2.4,0.9,4,0.9C533.3,859.6,534.6,859.4,535.7,858.8z"/>
		<path d="M550.2,861.2c-1.5-0.9-2.5-2.2-3.3-3.8c-0.7-1.6-1.1-3.5-1.1-5.6s0.4-3.9,1.1-5.5c0.7-1.6,1.8-2.8,3.3-3.7
			s3.3-1.4,5.4-1.4c1.8,0,3.4,0.4,4.8,1.2c1.4,0.8,2.4,1.9,3.2,3.4c0.7,1.5,1.1,3.2,1.1,5.2v0.5c0,0.2,0,0.5,0,0.7h-17v-1.9h15.7
			l-1,1.2c0.1-1.9-0.1-3.5-0.7-4.8s-1.3-2.1-2.3-2.7c-1-0.6-2.3-0.8-3.7-0.8c-1.6,0-2.9,0.3-4,0.9c-1.1,0.6-1.9,1.5-2.5,2.8
			s-0.9,2.9-0.9,4.9s0.3,3.7,0.9,5c0.6,1.3,1.4,2.2,2.5,2.9s2.4,0.9,4,0.9c1.4,0,2.5-0.2,3.5-0.6c0.9-0.4,1.7-1,2.2-1.7
			s0.9-1.6,1.1-2.7h2.2c-0.2,1.2-0.6,2.3-1.3,3.4c-0.7,1-1.7,1.9-3,2.6c-1.3,0.7-2.9,1-4.9,1C553.4,862.6,551.6,862.1,550.2,861.2z"
			/>
		<path d="M568.8,842h2.4v20h-2.4V842z M571.4,847.4c0.7-2,1.7-3.6,3-4.6s3-1.5,4.9-1.5c1.6,0,2.9,0.3,3.9,0.8
			c1,0.6,1.8,1.4,2.3,2.5s0.8,2.6,0.8,4.3v13h-2.4v-12.6c0-1.4-0.2-2.6-0.6-3.5s-1-1.5-1.7-1.9c-0.8-0.4-1.7-0.6-2.8-0.6
			c-1.7,0-3,0.5-4.1,1.4s-1.9,2.3-2.5,4c-0.6,1.8-0.9,3.9-0.9,6.4h-0.8C570.4,852,570.7,849.4,571.4,847.4z"/>
	</g>
</g>
<g>
	<g>
		<path d="M641.1,861.8c-1-0.4-1.8-1.1-2.4-1.9s-0.9-1.9-0.9-3.2c0-1.1,0.2-2,0.6-2.8c0.4-0.8,1.1-1.5,2-2s2.1-0.9,3.4-1.1l5.2-0.9
			c1.2-0.2,2-0.5,2.5-0.8s0.7-0.9,0.7-1.7s-0.2-1.5-0.5-2.1s-0.9-1.1-1.7-1.5s-1.9-0.5-3.3-0.5c-2.1,0-3.6,0.5-4.6,1.4
			c-0.9,0.9-1.5,2.1-1.6,3.6h-2.3c0.1-1.4,0.4-2.6,1.1-3.7c0.7-1,1.6-1.8,2.8-2.4c1.2-0.6,2.7-0.9,4.5-0.9s3.2,0.3,4.4,0.8
			c1.1,0.5,2,1.2,2.5,2.1c0.5,0.9,0.8,2,0.8,3.2v9.3c0,0.7,0,1.6,0.1,2.5c0,0.9,0.1,1.9,0.2,2.8h-2.2c-0.1-0.9-0.1-1.8-0.2-2.6
			s-0.1-1.6-0.1-2.3c-0.3,0.9-0.7,1.8-1.3,2.6s-1.4,1.5-2.5,2s-2.4,0.8-3.9,0.8C643.2,862.5,642.1,862.3,641.1,861.8z M649,859.4
			c1.1-0.8,1.9-1.8,2.5-2.9c0.5-1.2,0.8-2.4,0.8-3.7v-2.2c-0.5,0.3-0.9,0.5-1.3,0.7c-0.4,0.2-1,0.3-1.7,0.5l-0.6,0.1l-3.9,0.7
			c-1.5,0.3-2.6,0.8-3.4,1.4c-0.7,0.7-1.1,1.6-1.1,2.8c0,1.3,0.4,2.2,1.2,2.8s1.9,1,3.3,1C646.5,860.5,647.9,860.1,649,859.4z"/>
		<path d="M659.8,842h2.4v4.8v0.6V870h-2.4V842z M663.4,859.8c-1.5-1.9-2.3-4.5-2.3-7.9c0-3.3,0.8-5.9,2.3-7.8
			c1.5-1.9,3.7-2.8,6.5-2.8c2,0,3.7,0.4,5,1.3c1.3,0.9,2.3,2.1,3,3.7c0.7,1.6,1,3.5,1,5.6s-0.3,4-1,5.6s-1.7,2.8-3,3.7s-3,1.3-5,1.3
			C667.1,862.6,664.9,861.7,663.4,859.8z M673.3,859.7c1-0.6,1.8-1.6,2.3-2.9c0.5-1.3,0.8-2.9,0.8-4.8c0-1.9-0.3-3.6-0.8-4.8
			c-0.5-1.3-1.3-2.2-2.3-2.9c-1-0.6-2.3-0.9-3.9-0.9c-1.5,0-2.7,0.3-3.8,0.9c-1.1,0.6-1.9,1.5-2.5,2.8s-0.9,2.9-0.9,4.9
			s0.3,3.6,0.9,4.9c0.6,1.3,1.5,2.2,2.5,2.9s2.4,0.9,3.8,0.9C671,860.6,672.3,860.3,673.3,859.7z"/>
		<path d="M683.4,842h2.4v7.1v0.5V862h-2.4V842z M685.8,847.8c0.6-1.9,1.5-3.4,2.8-4.5c1.3-1,2.9-1.6,4.8-1.6h0.8v2.4h-0.7
			c-2.1-0.1-3.7,0.3-4.8,1.3s-1.9,2.2-2.3,3.8c-0.4,1.6-0.6,3.5-0.6,5.7h-0.9C684.9,852.1,685.2,849.8,685.8,847.8z"/>
	</g>
</g>
<g>
	<g>
		<path d="M753,834h2.4v28H753V834z"/>
		<path d="M764.1,861.8c-1.1-0.5-1.8-1.4-2.4-2.5s-0.8-2.6-0.8-4.3v-13h2.4v12.6c0,1.5,0.2,2.8,0.6,3.6c0.4,0.9,1,1.5,1.8,1.8
			s1.8,0.5,3,0.5c1.6,0,2.9-0.5,4-1.4s1.9-2.3,2.4-4.1s0.8-3.9,0.8-6.3h0.8c0,3.1-0.3,5.7-1,7.7s-1.6,3.6-2.9,4.6s-2.9,1.5-4.8,1.5
			C766.5,862.6,765.1,862.3,764.1,861.8z M775.9,855v-0.4V842h2.4v20h-2.4V855z"/>
		<path d="M786.7,860.4c-1.3-0.8-2.3-1.9-3-3.4s-1-3.3-1-5.5c0-3.3,0.8-5.7,2.3-7.5c1.5-1.7,3.8-2.6,6.7-2.6s5.1,0.9,6.6,2.6
			c1.5,1.7,2.2,4.2,2.2,7.5c0,2.2-0.3,4.1-1,5.6s-1.6,2.6-2.9,3.4s-2.9,1.1-4.9,1.1C789.8,861.6,788.1,861.2,786.7,860.4z
			 M787.6,869.6c-1.3-0.5-2.3-1.3-3-2.4s-1.1-2.3-1.3-3.8h2.4c0.1,1,0.3,1.8,0.8,2.6c0.5,0.7,1.2,1.3,2.1,1.8c1,0.5,2.2,0.7,3.7,0.7
			c1.7,0,3.1-0.2,4.1-0.6s1.8-1.1,2.3-2s0.7-2.1,0.7-3.6V842h2.4v20.2c0,1.8-0.3,3.3-0.9,4.5c-0.6,1.2-1.6,2.1-3,2.8
			c-1.4,0.6-3.2,1-5.6,1C790.5,870.4,788.9,870.1,787.6,869.6z M796.1,858.8c1.1-0.5,1.9-1.4,2.5-2.6c0.6-1.2,0.9-2.8,0.9-4.7
			s-0.3-3.5-0.9-4.7c-0.6-1.2-1.4-2.1-2.5-2.6s-2.3-0.8-3.8-0.8c-1.6,0-2.9,0.3-4,0.8s-1.8,1.4-2.3,2.6c-0.5,1.2-0.8,2.7-0.8,4.6
			s0.3,3.4,0.8,4.6c0.5,1.2,1.3,2.1,2.3,2.7s2.4,0.9,4,0.9C793.8,859.6,795,859.4,796.1,858.8z"/>
	</g>
</g>
<g>
	<g>
		<path d="M975.9,860.4c-1.3-0.8-2.3-1.9-3-3.4s-1-3.3-1-5.5c0-3.3,0.8-5.7,2.3-7.5c1.5-1.7,3.8-2.6,6.7-2.6s5.1,0.9,6.6,2.6
			s2.2,4.2,2.2,7.5c0,2.2-0.3,4.1-1,5.6s-1.6,2.6-2.9,3.4c-1.3,0.8-2.9,1.1-4.9,1.1C979,861.6,977.3,861.2,975.9,860.4z
			 M976.8,869.6c-1.3-0.5-2.3-1.3-3-2.4c-0.7-1-1.1-2.3-1.3-3.8h2.4c0.1,1,0.3,1.8,0.8,2.6c0.5,0.7,1.2,1.3,2.1,1.8
			c1,0.5,2.2,0.7,3.7,0.7c1.7,0,3.1-0.2,4.1-0.6c1-0.4,1.8-1.1,2.3-2s0.7-2.1,0.7-3.6V842h2.4v20.2c0,1.8-0.3,3.3-0.9,4.5
			c-0.6,1.2-1.6,2.1-3,2.8c-1.4,0.6-3.2,1-5.6,1C979.7,870.4,978.1,870.1,976.8,869.6z M985.3,858.8c1.1-0.5,1.9-1.4,2.5-2.6
			c0.6-1.2,0.9-2.8,0.9-4.7s-0.3-3.5-0.9-4.7c-0.6-1.2-1.4-2.1-2.5-2.6s-2.3-0.8-3.8-0.8c-1.6,0-2.9,0.3-4,0.8
			c-1,0.6-1.8,1.4-2.3,2.6s-0.8,2.7-0.8,4.6c0,1.9,0.3,3.4,0.8,4.6c0.5,1.2,1.3,2.1,2.3,2.7c1,0.6,2.4,0.9,4,0.9
			C983,859.6,984.3,859.4,985.3,858.8z"/>
		<path d="M999.8,861.2c-1.5-0.9-2.5-2.2-3.3-3.8c-0.7-1.6-1.1-3.5-1.1-5.6s0.4-3.9,1.1-5.5s1.8-2.8,3.3-3.7s3.3-1.4,5.4-1.4
			c1.8,0,3.4,0.4,4.8,1.2s2.4,1.9,3.2,3.4c0.7,1.5,1.1,3.2,1.1,5.2v0.5c0,0.2,0,0.5,0,0.7h-17v-1.9h15.7l-1,1.2
			c0.1-1.9-0.1-3.5-0.7-4.8c-0.5-1.2-1.3-2.1-2.3-2.7c-1-0.6-2.3-0.8-3.7-0.8c-1.6,0-2.9,0.3-4,0.9c-1.1,0.6-1.9,1.5-2.5,2.8
			s-0.9,2.9-0.9,4.9s0.3,3.7,0.9,5c0.6,1.3,1.4,2.2,2.5,2.9s2.4,0.9,4,0.9c1.4,0,2.5-0.2,3.5-0.6c0.9-0.4,1.7-1,2.2-1.7
			s0.9-1.6,1.1-2.7h2.2c-0.2,1.2-0.6,2.3-1.3,3.4c-0.7,1-1.7,1.9-3,2.6s-2.9,1-4.9,1C1003.1,862.6,1001.3,862.1,999.8,861.2z"/>
		<path d="M1018.5,842h2.4v20h-2.4V842z M1021.1,847.4c0.7-2,1.7-3.6,3-4.6c1.3-1,3-1.5,4.9-1.5c1.6,0,2.9,0.3,3.9,0.8
			c1,0.6,1.8,1.4,2.3,2.5s0.8,2.6,0.8,4.3v13h-2.4v-12.6c0-1.4-0.2-2.6-0.6-3.5s-1-1.5-1.7-1.9c-0.8-0.4-1.7-0.6-2.8-0.6
			c-1.7,0-3,0.5-4.1,1.4s-1.9,2.3-2.5,4s-0.9,3.9-0.9,6.4h-0.8C1020,852,1020.4,849.4,1021.1,847.4z"/>
	</g>
</g>
<g>
	<g>
		<path d="M1090.8,861.8c-1-0.4-1.8-1.1-2.4-1.9s-0.9-1.9-0.9-3.2c0-1.1,0.2-2,0.6-2.8s1.1-1.5,2-2s2.1-0.9,3.4-1.1l5.2-0.9
			c1.2-0.2,2-0.5,2.5-0.8s0.7-0.9,0.7-1.7s-0.2-1.5-0.5-2.1s-0.9-1.1-1.7-1.5c-0.8-0.4-1.9-0.5-3.3-0.5c-2.1,0-3.6,0.5-4.6,1.4
			c-0.9,0.9-1.5,2.1-1.6,3.6h-2.3c0.1-1.4,0.4-2.6,1.1-3.7c0.7-1,1.6-1.8,2.8-2.4c1.2-0.6,2.7-0.9,4.5-0.9s3.2,0.3,4.4,0.8
			c1.1,0.5,2,1.2,2.5,2.1c0.5,0.9,0.8,2,0.8,3.2v9.3c0,0.7,0,1.6,0.1,2.5c0,0.9,0.1,1.9,0.2,2.8h-2.2c-0.1-0.9-0.1-1.8-0.2-2.6
			s-0.1-1.6-0.1-2.3c-0.3,0.9-0.7,1.8-1.3,2.6c-0.6,0.8-1.4,1.5-2.5,2s-2.4,0.8-3.9,0.8C1092.9,862.5,1091.8,862.3,1090.8,861.8z
			 M1098.6,859.4c1.1-0.8,1.9-1.8,2.5-2.9c0.5-1.2,0.8-2.4,0.8-3.7v-2.2c-0.5,0.3-0.9,0.5-1.3,0.7s-1,0.3-1.7,0.5l-0.6,0.1l-3.9,0.7
			c-1.5,0.3-2.6,0.8-3.4,1.4c-0.7,0.7-1.1,1.6-1.1,2.8c0,1.3,0.4,2.2,1.2,2.8c0.8,0.6,1.9,1,3.3,1
			C1096.2,860.5,1097.5,860.1,1098.6,859.4z"/>
		<path d="M1109.5,842h2.4v4.8v0.6V870h-2.4V842z M1113.1,859.8c-1.5-1.9-2.3-4.5-2.3-7.9c0-3.3,0.8-5.9,2.3-7.8
			c1.5-1.9,3.7-2.8,6.5-2.8c2,0,3.7,0.4,5,1.3c1.3,0.9,2.3,2.1,3,3.7c0.7,1.6,1,3.5,1,5.6s-0.3,4-1,5.6s-1.7,2.8-3,3.7s-3,1.3-5,1.3
			C1116.8,862.6,1114.6,861.7,1113.1,859.8z M1123,859.7c1-0.6,1.8-1.6,2.3-2.9c0.5-1.3,0.8-2.9,0.8-4.8c0-1.9-0.3-3.6-0.8-4.8
			c-0.5-1.3-1.3-2.2-2.3-2.9c-1-0.6-2.3-0.9-3.9-0.9c-1.5,0-2.7,0.3-3.8,0.9c-1.1,0.6-1.9,1.5-2.5,2.8s-0.9,2.9-0.9,4.9
			s0.3,3.6,0.9,4.9c0.6,1.3,1.5,2.2,2.5,2.9s2.4,0.9,3.8,0.9C1120.7,860.6,1122,860.3,1123,859.7z"/>
		<path d="M1133.1,842h2.4v7.1v0.5V862h-2.4V842z M1135.5,847.8c0.6-1.9,1.5-3.4,2.8-4.5c1.3-1,2.9-1.6,4.8-1.6h0.8v2.4h-0.7
			c-2.1-0.1-3.7,0.3-4.8,1.3s-1.9,2.2-2.3,3.8s-0.6,3.5-0.6,5.7h-0.9C1134.6,852.1,1134.9,849.8,1135.5,847.8z"/>
	</g>
</g>
<g>
	<g>
		<path d="M1202.7,834h2.4v28h-2.4V834z"/>
		<path d="M1213.8,861.8c-1.1-0.5-1.8-1.4-2.4-2.5s-0.8-2.6-0.8-4.3v-13h2.4v12.6c0,1.5,0.2,2.8,0.6,3.6c0.4,0.9,1,1.5,1.8,1.8
			s1.8,0.5,3,0.5c1.6,0,2.9-0.5,4-1.4s1.9-2.3,2.4-4.1s0.8-3.9,0.8-6.3h0.8c0,3.1-0.3,5.7-1,7.7c-0.6,2-1.6,3.6-2.9,4.6
			s-2.9,1.5-4.8,1.5C1216.1,862.6,1214.8,862.3,1213.8,861.8z M1225.5,855v-0.4V842h2.4v20h-2.4V855z"/>
		<path d="M1236.4,860.4c-1.3-0.8-2.3-1.9-3-3.4s-1-3.3-1-5.5c0-3.3,0.8-5.7,2.3-7.5c1.5-1.7,3.8-2.6,6.7-2.6c2.9,0,5.1,0.9,6.6,2.6
			c1.5,1.7,2.2,4.2,2.2,7.5c0,2.2-0.3,4.1-1,5.6s-1.6,2.6-2.9,3.4c-1.3,0.8-2.9,1.1-4.9,1.1C1239.4,861.6,1237.8,861.2,1236.4,860.4
			z M1237.2,869.6c-1.3-0.5-2.3-1.3-3-2.4c-0.7-1-1.1-2.3-1.3-3.8h2.4c0.1,1,0.3,1.8,0.8,2.6c0.5,0.7,1.2,1.3,2.1,1.8
			s2.2,0.7,3.7,0.7c1.7,0,3.1-0.2,4.1-0.6s1.8-1.1,2.3-2s0.7-2.1,0.7-3.6V842h2.4v20.2c0,1.8-0.3,3.3-0.9,4.5s-1.6,2.1-3,2.8
			c-1.4,0.6-3.2,1-5.6,1C1240.1,870.4,1238.5,870.1,1237.2,869.6z M1245.8,858.8c1.1-0.5,1.9-1.4,2.5-2.6c0.6-1.2,0.9-2.8,0.9-4.7
			s-0.3-3.5-0.9-4.7s-1.4-2.1-2.5-2.6s-2.3-0.8-3.8-0.8c-1.6,0-2.9,0.3-4,0.8s-1.8,1.4-2.3,2.6c-0.5,1.2-0.8,2.7-0.8,4.6
			s0.3,3.4,0.8,4.6c0.5,1.2,1.3,2.1,2.3,2.7s2.4,0.9,4,0.9C1243.5,859.6,1244.7,859.4,1245.8,858.8z"/>
	</g>
</g>
<g>
	<g>
		<path d="M870.3,861.2c-1.5-0.9-2.6-2.2-3.3-3.8s-1.1-3.5-1.1-5.6s0.4-3.9,1.1-5.5c0.7-1.6,1.8-2.8,3.3-3.7s3.3-1.4,5.4-1.4
			c2.1,0,3.9,0.5,5.4,1.4s2.6,2.2,3.3,3.8s1.1,3.4,1.1,5.5s-0.4,3.9-1.1,5.5c-0.7,1.6-1.9,2.9-3.3,3.8c-1.5,0.9-3.3,1.4-5.4,1.4
			C873.5,862.6,871.8,862.1,870.3,861.2z M869.2,856.8c0.6,1.3,1.4,2.2,2.5,2.9c1.1,0.6,2.4,0.9,4,0.9s2.9-0.3,4-0.9
			c1.1-0.6,1.9-1.6,2.5-2.9c0.6-1.3,0.8-2.9,0.8-4.9c0-1.9-0.3-3.6-0.8-4.8c-0.6-1.3-1.4-2.2-2.5-2.8s-2.4-0.9-4-0.9s-2.9,0.3-4,0.9
			c-1.1,0.6-1.9,1.6-2.5,2.8c-0.6,1.3-0.8,2.9-0.8,4.8C868.3,853.9,868.6,855.5,869.2,856.8z"/>
		<path d="M892.4,861.6c-0.5-0.2-0.9-0.6-1.1-1.1c-0.2-0.5-0.3-1.2-0.3-2v-14.6h-3.8v-1.4l4-0.6l0.8-4.2h1.4v4.3h11.3v1.9h-11.3V860
			h6.7v2h-5.4C893.7,862,892.9,861.8,892.4,861.6z M905.2,861.6c-0.5-0.2-0.9-0.6-1.1-1.1c-0.2-0.5-0.3-1.2-0.3-2v-14.6H900v-1.4
			l3.9-0.3l0.9-4.5h1.4v4.3h6.8v1.9h-6.8V860h6.7v2h-5.4C906.4,862,905.7,861.8,905.2,861.6z"/>
	</g>
</g>
<line class="st5" x1="107" y1="812.3" x2="107" y2="923.2"/>
<line class="st5" x1="554.6" y1="812.3" x2="554.6" y2="923.2"/>
<line class="st5" x1="1002.8" y1="812.3" x2="1002.8" y2="923.2"/>
<line class="st5" x1="1224.8" y1="812.3" x2="1224.8" y2="923.2"/>
<line class="st6" x1="1170.3" y1="923.2" x2="1224.8" y2="923.2"/>
<line class="st6" x1="831.7" y1="923.2" x2="1062" y2="923.2"/>
<line class="st6" x1="384" y1="923.2" x2="723.4" y2="923.2"/>
<line class="st6" x1="107" y1="923.2" x2="275.7" y2="923.2"/>
<g>
	<g>
		<path d="M285.1,933l12.8-11.1c1.5-1.3,2.5-2.5,3.1-3.4c0.6-1,0.9-2.1,0.9-3.4c0-1.6-0.5-2.8-1.6-3.8c-1-0.9-2.6-1.4-4.6-1.4
			c-1.8,0-3.3,0.3-4.4,1c-1.2,0.7-2,1.7-2.6,3s-0.9,3.1-0.9,5.1h-2.6c0-2.4,0.4-4.4,1.2-6.1s2-3,3.5-3.8c1.5-0.9,3.5-1.3,5.8-1.3
			c2,0,3.7,0.3,5,1s2.3,1.5,2.9,2.6s0.9,2.3,0.9,3.6c0,1.6-0.4,3.1-1.3,4.5s-2.4,3-4.5,4.9l-10,8.6H305v2.1h-19.9V933z"/>
		<path d="M313.9,934c-1.7-1.2-3-2.8-3.9-4.9c-0.9-2.1-1.3-4.6-1.3-7.4c0-2.7,0.4-5.2,1.3-7.3s2.2-3.7,3.9-4.9
			c1.7-1.2,3.9-1.8,6.4-1.8c2.6,0,4.7,0.6,6.5,1.8s3,2.8,3.9,4.9c0.9,2.1,1.3,4.5,1.3,7.3s-0.4,5.3-1.3,7.4
			c-0.9,2.1-2.1,3.7-3.9,4.9s-3.9,1.8-6.5,1.8C317.8,935.8,315.6,935.2,313.9,934z M312.3,928.4c0.7,1.8,1.7,3.1,3,4s3,1.3,5,1.3
			s3.7-0.4,5-1.3s2.3-2.2,3-4s1-4,1-6.7c0-2.6-0.3-4.8-1-6.6s-1.7-3.1-3-4s-3-1.3-5-1.3s-3.7,0.4-5,1.3s-2.3,2.2-3,4s-1,4-1,6.6
			C311.3,924.4,311.7,926.7,312.3,928.4z"/>
		<path d="M336.4,933l12.8-11.1c1.5-1.3,2.5-2.5,3.1-3.4c0.6-1,0.9-2.1,0.9-3.4c0-1.6-0.5-2.8-1.6-3.8c-1-0.9-2.6-1.4-4.6-1.4
			c-1.8,0-3.3,0.3-4.4,1c-1.2,0.7-2,1.7-2.6,3s-0.9,3.1-0.9,5.1h-2.6c0-2.4,0.4-4.4,1.2-6.1s2-3,3.5-3.8c1.5-0.9,3.5-1.3,5.8-1.3
			c2,0,3.7,0.3,5,1s2.3,1.5,2.9,2.6s0.9,2.3,0.9,3.6c0,1.6-0.4,3.1-1.3,4.5s-2.4,3-4.5,4.9l-10,8.6h16.4v2.1h-19.9L336.4,933
			L336.4,933z"/>
		<path d="M360.6,933h6.2v-22.4h-6.2v-2.1h5.7c1.1,0,1.9,0.2,2.4,0.7s0.7,1.2,0.7,2.1V933h5.7v2.1h-14.4V933H360.6z"/>
	</g>
</g>
<g>
	<g>
		<path d="M729.5,933l12.8-11.1c1.5-1.3,2.5-2.5,3.1-3.4c0.6-1,0.9-2.1,0.9-3.4c0-1.6-0.5-2.8-1.6-3.8c-1-0.9-2.6-1.4-4.6-1.4
			c-1.8,0-3.3,0.3-4.4,1c-1.2,0.7-2,1.7-2.6,3s-0.9,3.1-0.9,5.1h-2.6c0-2.4,0.4-4.4,1.2-6.1c0.8-1.7,2-3,3.5-3.8s3.5-1.3,5.8-1.3
			c2,0,3.7,0.3,5,1s2.3,1.5,2.9,2.6c0.6,1.1,0.9,2.3,0.9,3.6c0,1.6-0.4,3.1-1.3,4.5c-0.9,1.4-2.4,3-4.5,4.9l-10,8.6h16.4v2.1h-19.9
			V933H729.5z"/>
		<path d="M758.2,934c-1.7-1.2-3-2.8-3.9-4.9c-0.9-2.1-1.3-4.6-1.3-7.4c0-2.7,0.4-5.2,1.3-7.3c0.9-2.1,2.2-3.7,3.9-4.9
			s3.9-1.8,6.4-1.8c2.6,0,4.7,0.6,6.5,1.8s3,2.8,3.9,4.9c0.9,2.1,1.3,4.5,1.3,7.3s-0.4,5.3-1.3,7.4c-0.9,2.1-2.1,3.7-3.9,4.9
			s-3.9,1.8-6.5,1.8C762.1,935.8,760,935.2,758.2,934z M756.7,928.4c0.7,1.8,1.7,3.1,3,4s3,1.3,5,1.3s3.7-0.4,5-1.3
			c1.3-0.9,2.3-2.2,3-4s1-4,1-6.7c0-2.6-0.3-4.8-1-6.6s-1.7-3.1-3-4s-3-1.3-5-1.3s-3.7,0.4-5,1.3c-1.3,0.9-2.3,2.2-3,4s-1,4-1,6.6
			C755.7,924.4,756,926.7,756.7,928.4z"/>
		<path d="M780.7,933l12.8-11.1c1.5-1.3,2.5-2.5,3.1-3.4s0.9-2.1,0.9-3.4c0-1.6-0.5-2.8-1.6-3.8c-1-0.9-2.6-1.4-4.6-1.4
			c-1.8,0-3.3,0.3-4.4,1c-1.2,0.7-2,1.7-2.6,3s-0.9,3.1-0.9,5.1h-2.6c0-2.4,0.4-4.4,1.2-6.1c0.8-1.7,2-3,3.5-3.8
			c1.5-0.9,3.5-1.3,5.8-1.3c2,0,3.7,0.3,5,1s2.3,1.5,2.9,2.6c0.6,1.1,0.9,2.3,0.9,3.6c0,1.6-0.4,3.1-1.3,4.5c-0.9,1.4-2.4,3-4.5,4.9
			l-10,8.6h16.4v2.1h-19.9V933H780.7z"/>
		<path d="M805.2,933l12.8-11.1c1.5-1.3,2.5-2.5,3.1-3.4c0.6-1,0.9-2.1,0.9-3.4c0-1.6-0.5-2.8-1.6-3.8c-1-0.9-2.6-1.4-4.6-1.4
			c-1.8,0-3.3,0.3-4.4,1c-1.2,0.7-2,1.7-2.6,3s-0.9,3.1-0.9,5.1h-2.6c0-2.4,0.4-4.4,1.2-6.1c0.8-1.7,2-3,3.5-3.8s3.5-1.3,5.8-1.3
			c2,0,3.7,0.3,5,1s2.3,1.5,2.9,2.6c0.6,1.1,0.9,2.3,0.9,3.6c0,1.6-0.4,3.1-1.3,4.5c-0.9,1.4-2.4,3-4.5,4.9l-10,8.6h16.4v2.1h-19.9
			V933H805.2z"/>
	</g>
</g>
<g>
	<g>
		<path d="M1067.9,933l12.8-11.1c1.5-1.3,2.5-2.5,3.1-3.4c0.6-1,0.9-2.1,0.9-3.4c0-1.6-0.5-2.8-1.6-3.8c-1-0.9-2.6-1.4-4.6-1.4
			c-1.8,0-3.3,0.3-4.4,1c-1.2,0.7-2,1.7-2.6,3s-0.9,3.1-0.9,5.1h-2.6c0-2.4,0.4-4.4,1.2-6.1c0.8-1.7,2-3,3.5-3.8s3.5-1.3,5.8-1.3
			c2,0,3.7,0.3,5,1s2.3,1.5,2.9,2.6s0.9,2.3,0.9,3.6c0,1.6-0.4,3.1-1.3,4.5s-2.4,3-4.5,4.9l-10,8.6h16.4v2.1H1068V933H1067.9z"/>
		<path d="M1096.6,934c-1.7-1.2-3-2.8-3.9-4.9c-0.9-2.1-1.3-4.6-1.3-7.4c0-2.7,0.4-5.2,1.3-7.3s2.2-3.7,3.9-4.9s3.9-1.8,6.4-1.8
			c2.6,0,4.7,0.6,6.5,1.8s3,2.8,3.9,4.9c0.9,2.1,1.3,4.5,1.3,7.3s-0.4,5.3-1.3,7.4c-0.9,2.1-2.1,3.7-3.9,4.9s-3.9,1.8-6.5,1.8
			C1100.5,935.8,1098.4,935.2,1096.6,934z M1095.1,928.4c0.7,1.8,1.7,3.1,3,4s3,1.3,5,1.3s3.7-0.4,5-1.3c1.3-0.9,2.3-2.2,3-4
			s1-4,1-6.7c0-2.6-0.3-4.8-1-6.6s-1.7-3.1-3-4s-3-1.3-5-1.3s-3.7,0.4-5,1.3c-1.3,0.9-2.3,2.2-3,4s-1,4-1,6.6
			C1094.1,924.4,1094.4,926.7,1095.1,928.4z"/>
		<path d="M1119.1,933l12.8-11.1c1.5-1.3,2.5-2.5,3.1-3.4s0.9-2.1,0.9-3.4c0-1.6-0.5-2.8-1.6-3.8c-1-0.9-2.6-1.4-4.6-1.4
			c-1.8,0-3.3,0.3-4.4,1c-1.2,0.7-2,1.7-2.6,3s-0.9,3.1-0.9,5.1h-2.6c0-2.4,0.4-4.4,1.2-6.1c0.8-1.7,2-3,3.5-3.8
			c1.5-0.9,3.5-1.3,5.8-1.3c2,0,3.7,0.3,5,1s2.3,1.5,2.9,2.6s0.9,2.3,0.9,3.6c0,1.6-0.4,3.1-1.3,4.5s-2.4,3-4.5,4.9l-10,8.6h16.4
			v2.1h-19.9V933H1119.1z"/>
		<path d="M1146.2,930c0.6,1.1,1.4,2,2.6,2.7c1.1,0.7,2.6,1.1,4.3,1.1c2.6,0,4.5-0.6,5.8-1.8s2-2.9,2-5.1c0-1.9-0.5-3.5-1.6-4.6
			c-1-1.1-2.5-1.7-4.5-1.7c-1,0-1.8,0.1-2.6,0.3c-0.7,0.2-1.5,0.6-2.4,1l-1.2-1.6l10.8-9.6h-15.8v-2.1h18.8v2.1l-9.7,8.8
			c0.9-0.2,1.9-0.4,2.9-0.4c1.5,0,2.8,0.3,4,0.9c1.2,0.6,2.1,1.5,2.8,2.7c0.7,1.2,1,2.6,1,4.2c0,1.6-0.4,3.1-1.1,4.5
			s-1.9,2.5-3.5,3.3s-3.6,1.2-6,1.2c-2.2,0-4.1-0.4-5.6-1.3s-2.7-2-3.5-3.4s-1.2-3-1.3-4.7h2.6
			C1145.3,927.7,1145.6,928.9,1146.2,930z"/>
	</g>
</g>
</svg>
