<svg xmlns="http://www.w3.org/2000/svg" viewBox="0 0 681.88 413.55"><defs><style>.cls-1{fill:none;stroke:#000;}.cls-2{fill:#0021b9;}.cls-3{opacity:0.5;}.cls-4{fill:#fff;}</style></defs><g id="Livello_2" data-name="Livello 2"><g id="_2021" data-name="2021"><path class="cls-1" d="M.5,378.25v8.48"/><path class="cls-1" d="M57.2,378.25v8.48"/><path class="cls-1" d="M113.89,378.25v8.48"/><path class="cls-1" d="M170.59,378.25v8.48"/><path class="cls-1" d="M227.28,378.25v8.48"/><path class="cls-1" d="M284,378.25v8.48"/><path class="cls-1" d="M341.19,378.25v8.48"/><path class="cls-1" d="M397.37,378.25v8.48"/><path class="cls-1" d="M454.06,378.25v8.48"/><path class="cls-1" d="M510.76,378.25v8.48"/><path class="cls-1" d="M567.45,378.25v8.48"/><path class="cls-1" d="M624.15,378.25v8.48"/><path class="cls-1" d="M681.38,378.25v8.48"/><path d="M16.7,409.51a4.33,4.33,0,0,1-1.73-2,7,7,0,0,1-.57-2.91A6.86,6.86,0,0,1,15,401.7a4.48,4.48,0,0,1,1.81-2,5.88,5.88,0,0,1,3-.71,6.68,6.68,0,0,1,2.65.47,3.83,3.83,0,0,1,1.68,1.38,4.87,4.87,0,0,1,.74,2.25H23.49a4,4,0,0,0-.57-1.69,2.66,2.66,0,0,0-1.22-1,5.21,5.21,0,0,0-2-.32,4.43,4.43,0,0,0-2.21.5,3.09,3.09,0,0,0-1.31,1.49,6.47,6.47,0,0,0-.43,2.51,6.27,6.27,0,0,0,.43,2.5,3,3,0,0,0,1.29,1.5,4.49,4.49,0,0,0,2.23.5,3.6,3.6,0,0,0,2.68-.92,4.41,4.41,0,0,0,1.13-2.51H18.77v-1h6.08v5.23h-1.2v-2.59a2.33,2.33,0,0,1-.1.27,4.12,4.12,0,0,1-.78,1.35,3.67,3.67,0,0,1-1.32.92,4.81,4.81,0,0,1-1.9.34A5.38,5.38,0,0,1,16.7,409.51Z"/><path d="M28.18,409.65a3.4,3.4,0,0,1-1.32-1.51,5.44,5.44,0,0,1-.43-2.21,5,5,0,0,1,.45-2.17,3.47,3.47,0,0,1,1.34-1.52,4.12,4.12,0,0,1,2.18-.55,3.85,3.85,0,0,1,2,.51,3.15,3.15,0,0,1,1.29,1.41,4.7,4.7,0,0,1,.44,2.07v.22a2.47,2.47,0,0,1,0,.34H27.42v-1h6l-.56.57a4.61,4.61,0,0,0-.23-1.81,1.9,1.9,0,0,0-.85-1,2.76,2.76,0,0,0-1.4-.33,3,3,0,0,0-1.48.33,2.12,2.12,0,0,0-.92,1.05,5.72,5.72,0,0,0,0,3.8,2.16,2.16,0,0,0,.95,1.06,3.13,3.13,0,0,0,1.47.32,3.28,3.28,0,0,0,1.29-.22,1.86,1.86,0,0,0,.81-.61,2.45,2.45,0,0,0,.43-.92h1.16a2.94,2.94,0,0,1-.48,1.31,3,3,0,0,1-1.2,1,4.76,4.76,0,0,1-2.06.39A4.13,4.13,0,0,1,28.18,409.65Z"/><path d="M35.78,402h1.28v8H35.78Zm1.22,2.2a3.72,3.72,0,0,1,1.14-1.81,3,3,0,0,1,2-.65,3.31,3.31,0,0,1,1.63.36,2.13,2.13,0,0,1,.92,1.06,4.38,4.38,0,0,1,.3,1.74V410H41.68v-5a3.44,3.44,0,0,0-.22-1.33,1.39,1.39,0,0,0-.65-.7,2.53,2.53,0,0,0-1.05-.19,2.44,2.44,0,0,0-1.49.45,2.75,2.75,0,0,0-.91,1.38,7.48,7.48,0,0,0-.3,2.29h-.42A9.29,9.29,0,0,1,37,404.15Z"/><path d="M72.7,399.31H74V410H72.7Zm7.86,0v1.07h-7v-1.07ZM80.08,404v1.05H73.61V404Z"/><path d="M83.32,409.65A3.4,3.4,0,0,1,82,408.14a5.28,5.28,0,0,1-.43-2.21,5.19,5.19,0,0,1,.44-2.17,3.53,3.53,0,0,1,1.34-1.52,4.12,4.12,0,0,1,2.18-.55,3.91,3.91,0,0,1,2,.51,3.19,3.19,0,0,1,1.28,1.41,4.57,4.57,0,0,1,.44,2.07v.22a2.47,2.47,0,0,1,0,.34h-6.7v-1h6l-.56.57a4.62,4.62,0,0,0-.22-1.81,2,2,0,0,0-.85-1,2.83,2.83,0,0,0-1.41-.33,3,3,0,0,0-1.48.33,2.12,2.12,0,0,0-.92,1.05,4.85,4.85,0,0,0-.32,1.9,4.49,4.49,0,0,0,.34,1.9,2.1,2.1,0,0,0,.94,1.06,3.19,3.19,0,0,0,1.47.32,3.28,3.28,0,0,0,1.29-.22,1.83,1.83,0,0,0,.82-.61,2.59,2.59,0,0,0,.42-.92h1.17a3.2,3.2,0,0,1-.48,1.31,3,3,0,0,1-1.21,1,4.73,4.73,0,0,1-2.06.39A4.09,4.09,0,0,1,83.32,409.65Z"/><path d="M92.19,398.75V410H90.91v-11.2Zm5.06,3.48a3.25,3.25,0,0,1,1.22,1.5,6.19,6.19,0,0,1,0,4.43,3.3,3.3,0,0,1-1.22,1.5,3.65,3.65,0,0,1-2,.54,3.15,3.15,0,0,1-2.62-1.12,5.89,5.89,0,0,1,0-6.26,3.16,3.16,0,0,1,2.62-1.13A3.65,3.65,0,0,1,97.25,402.23Zm-3.77.84a2.22,2.22,0,0,0-1,1.05,4.27,4.27,0,0,0-.34,1.83,4.19,4.19,0,0,0,.34,1.82,2.27,2.27,0,0,0,1,1.05,3,3,0,0,0,1.48.34,2.81,2.81,0,0,0,1.47-.35,2.18,2.18,0,0,0,.86-1.08,5.86,5.86,0,0,0,0-3.58,2.16,2.16,0,0,0-.86-1.07,2.81,2.81,0,0,0-1.47-.35A3.08,3.08,0,0,0,93.48,403.07Z"/><path d="M140.88,410h-1.33v-9.63L136,410h-1.8l-3.6-9.63V410h-1.32V399.31h2.32l3.52,9.39,3.5-9.39h2.29Z"/><path d="M143.87,409.89a2.09,2.09,0,0,1-.93-.78,2.33,2.33,0,0,1-.33-1.27,2.6,2.6,0,0,1,.24-1.15,2,2,0,0,1,.79-.8,4.19,4.19,0,0,1,1.4-.45l2-.34a2.05,2.05,0,0,0,.91-.32.78.78,0,0,0,.27-.66,1.52,1.52,0,0,0-.17-.76,1.23,1.23,0,0,0-.61-.49,3.14,3.14,0,0,0-1.18-.18,2.4,2.4,0,0,0-1.64.46,1.85,1.85,0,0,0-.59,1.31h-1.28a2.92,2.92,0,0,1,.43-1.47,2.6,2.6,0,0,1,1.18-1,4.58,4.58,0,0,1,1.86-.34A4.44,4.44,0,0,1,148,402a2.25,2.25,0,0,1,1.06.86,2.38,2.38,0,0,1,.33,1.27V408c0,.3,0,.62,0,.94s0,.68.07,1.05h-1.15a8.14,8.14,0,0,1-.09-1c0-.31,0-.62,0-.9a2.87,2.87,0,0,1-.54,1,2.82,2.82,0,0,1-1,.77,3.23,3.23,0,0,1-1.48.31A3.27,3.27,0,0,1,143.87,409.89Zm3.15-1.16a2.43,2.43,0,0,0,.93-1.1,3.65,3.65,0,0,0,.3-1.47v-.69a3.12,3.12,0,0,1-.53.3,3.48,3.48,0,0,1-.68.19l-.23.05-1.32.27a2.58,2.58,0,0,0-1.21.53,1.29,1.29,0,0,0-.38,1,1.26,1.26,0,0,0,.43,1,1.82,1.82,0,0,0,1.16.35A2.67,2.67,0,0,0,147,408.73Z"/><path d="M151.5,402h1.27v8H151.5Zm1.18,2.4a3.89,3.89,0,0,1,1.09-1.83,2.72,2.72,0,0,1,1.94-.68H156v1.26h-.35a2.68,2.68,0,0,0-1.77.46,2.47,2.47,0,0,0-.87,1.34,8.36,8.36,0,0,0-.23,2.1h-.45A9.25,9.25,0,0,1,152.68,404.35Z"/><path d="M194.77,410l-1.05-2.72h-5.26l-1,2.72h-1.34l4-10.64h2l4,10.64Zm-5.91-3.79h4.47l-2.23-5.89Z"/><path d="M197.48,402h1.29v11.2h-1.29Zm1.68,7.13a5.95,5.95,0,0,1,0-6.26,3.15,3.15,0,0,1,2.63-1.13,3.52,3.52,0,0,1,2,.55,3.24,3.24,0,0,1,1.22,1.5,6.33,6.33,0,0,1,0,4.43,3.24,3.24,0,0,1-1.22,1.5,3.59,3.59,0,0,1-2,.53A3.14,3.14,0,0,1,199.16,409.08Zm3.84-.27a2.08,2.08,0,0,0,.86-1.06,4.93,4.93,0,0,0,.28-1.8,4.87,4.87,0,0,0-.28-1.79,2.15,2.15,0,0,0-.86-1.07,2.71,2.71,0,0,0-1.47-.36,3.07,3.07,0,0,0-1.49.35,2.27,2.27,0,0,0-.95,1.05,5.34,5.34,0,0,0,0,3.64,2.2,2.2,0,0,0,.95,1.06,3.18,3.18,0,0,0,1.49.33A2.71,2.71,0,0,0,203,408.81Z"/><path d="M207.18,402h1.26v2.51l0,.26V410h-1.28Zm1.18,2.4a4,4,0,0,1,1.08-1.83,2.76,2.76,0,0,1,1.95-.68h.29v1.26h-.36a2.67,2.67,0,0,0-1.76.46,2.47,2.47,0,0,0-.87,1.34,8.36,8.36,0,0,0-.23,2.1H208A9.25,9.25,0,0,1,208.36,404.35Z"/><path d="M252.41,410h-1.33v-9.63L247.5,410h-1.79l-3.6-9.63V410h-1.33V399.31h2.32l3.52,9.39,3.5-9.39h2.29Z"/><path d="M255.4,409.89a2,2,0,0,1-.92-.78,2.25,2.25,0,0,1-.34-1.27,2.47,2.47,0,0,1,.25-1.15,1.93,1.93,0,0,1,.78-.8,4.27,4.27,0,0,1,1.4-.45l2-.34a2.16,2.16,0,0,0,.92-.32.78.78,0,0,0,.27-.66,1.53,1.53,0,0,0-.18-.76,1.23,1.23,0,0,0-.61-.49,3.11,3.11,0,0,0-1.18-.18,2.42,2.42,0,0,0-1.64.46,1.85,1.85,0,0,0-.58,1.31h-1.28a2.82,2.82,0,0,1,.43-1.47,2.57,2.57,0,0,1,1.17-1,4.59,4.59,0,0,1,1.87-.34,4.42,4.42,0,0,1,1.77.31,2.2,2.2,0,0,1,1.06.86,2.38,2.38,0,0,1,.34,1.27V408c0,.3,0,.62,0,.94s0,.68.07,1.05H259.9c0-.33-.07-.65-.09-1s0-.62,0-.9a3.07,3.07,0,0,1-.55,1,2.74,2.74,0,0,1-1,.77,3.2,3.2,0,0,1-1.48.31A3.33,3.33,0,0,1,255.4,409.89Zm3.16-1.16a2.48,2.48,0,0,0,.92-1.1,3.49,3.49,0,0,0,.31-1.47v-.69a2.86,2.86,0,0,1-.54.3,3.12,3.12,0,0,1-.68.19l-.22.05-1.33.27a2.63,2.63,0,0,0-1.21.53,1.28,1.28,0,0,0-.37,1,1.23,1.23,0,0,0,.43,1,1.79,1.79,0,0,0,1.15.35A2.71,2.71,0,0,0,258.56,408.73Z"/><path d="M264.12,409.28a3,3,0,0,1-1.24-1.39,5.22,5.22,0,0,1-.4-2.15,4.38,4.38,0,0,1,.92-2.95,3.47,3.47,0,0,1,2.77-1.06,3.15,3.15,0,0,1,2.59,1,4.53,4.53,0,0,1,.87,3,5.82,5.82,0,0,1-.38,2.24,2.66,2.66,0,0,1-1.14,1.34,3.79,3.79,0,0,1-1.94.45A3.89,3.89,0,0,1,264.12,409.28Zm.35,3.71a2.77,2.77,0,0,1-1.28-1,2.87,2.87,0,0,1-.52-1.55h1.26a2.22,2.22,0,0,0,.31,1,1.7,1.7,0,0,0,.82.65,3.59,3.59,0,0,0,1.42.24,4.11,4.11,0,0,0,1.54-.24,1.69,1.69,0,0,0,.86-.76,3,3,0,0,0,.27-1.37v-8h1.28v8a4,4,0,0,1-.39,1.85,2.6,2.6,0,0,1-1.27,1.12,5.68,5.68,0,0,1-2.29.39A5.42,5.42,0,0,1,264.47,413Zm3.46-4.54a2,2,0,0,0,.91-1,4.27,4.27,0,0,0,.31-1.74,4.2,4.2,0,0,0-.31-1.72,2.07,2.07,0,0,0-.91-1,3.2,3.2,0,0,0-1.47-.31A3.29,3.29,0,0,0,265,403a2,2,0,0,0-.88,1,5.17,5.17,0,0,0,0,3.47,1.93,1.93,0,0,0,.88,1,3.29,3.29,0,0,0,1.51.31A3.08,3.08,0,0,0,267.93,408.45Z"/><path d="M302.88,409.51a4.33,4.33,0,0,1-1.73-2,7,7,0,0,1-.57-2.91,6.86,6.86,0,0,1,.59-2.92,4.48,4.48,0,0,1,1.81-2,5.88,5.88,0,0,1,3-.71,6.68,6.68,0,0,1,2.65.47,3.83,3.83,0,0,1,1.68,1.38,4.87,4.87,0,0,1,.74,2.25h-1.37a4,4,0,0,0-.57-1.69,2.66,2.66,0,0,0-1.22-1,5.21,5.21,0,0,0-2-.32,4.43,4.43,0,0,0-2.21.5,3.09,3.09,0,0,0-1.31,1.49,6.47,6.47,0,0,0-.43,2.51,6.27,6.27,0,0,0,.43,2.5,3,3,0,0,0,1.29,1.5,4.49,4.49,0,0,0,2.23.5,3.6,3.6,0,0,0,2.68-.92,4.41,4.41,0,0,0,1.13-2.51H305v-1H311v5.23h-1.2v-2.59a2.33,2.33,0,0,1-.1.27A4.12,4.12,0,0,1,309,409a3.67,3.67,0,0,1-1.32.92,4.81,4.81,0,0,1-1.9.34A5.38,5.38,0,0,1,302.88,409.51Z"/><path d="M312.9,399.31h1.65v1.33H312.9Zm.19,2.64h1.28v8h-1.28Z"/><path d="M317.66,409.85a2.1,2.1,0,0,1-1-1,4.3,4.3,0,0,1-.31-1.76V402h1.28v5a3.11,3.11,0,0,0,.24,1.35,1.29,1.29,0,0,0,.67.69,2.69,2.69,0,0,0,1.09.2,2.16,2.16,0,0,0,1.42-.48,3,3,0,0,0,.89-1.42,7.38,7.38,0,0,0,.3-2.25h.4a9.85,9.85,0,0,1-.34,2.77,3.69,3.69,0,0,1-1.09,1.8,2.9,2.9,0,0,1-1.94.63A3.38,3.38,0,0,1,317.66,409.85Zm4.63-2.38V402h1.28v8h-1.28Z"/><path d="M356.49,399.31h1.33V410h-1.33Zm1,9.57h5.92V410h-5.92Z"/><path d="M365.89,409.85a2.1,2.1,0,0,1-.95-1,4.48,4.48,0,0,1-.31-1.76V402h1.28v5a3.11,3.11,0,0,0,.24,1.35,1.29,1.29,0,0,0,.67.69,2.69,2.69,0,0,0,1.09.2,2.16,2.16,0,0,0,1.42-.48,2.92,2.92,0,0,0,.89-1.42,7.38,7.38,0,0,0,.3-2.25h.4a9.85,9.85,0,0,1-.34,2.77,3.69,3.69,0,0,1-1.09,1.8,2.9,2.9,0,0,1-1.94.63A3.38,3.38,0,0,1,365.89,409.85Zm4.63-2.38V402h1.28v8h-1.28Z"/><path d="M375.19,409.28a3,3,0,0,1-1.24-1.39,5.22,5.22,0,0,1-.4-2.15,4.33,4.33,0,0,1,.92-2.95,3.49,3.49,0,0,1,2.77-1.06,3.15,3.15,0,0,1,2.59,1,4.53,4.53,0,0,1,.87,3,5.82,5.82,0,0,1-.38,2.24,2.66,2.66,0,0,1-1.14,1.34,3.79,3.79,0,0,1-1.94.45A3.89,3.89,0,0,1,375.19,409.28Zm.35,3.71a2.77,2.77,0,0,1-1.28-1,2.87,2.87,0,0,1-.52-1.55H375a2.22,2.22,0,0,0,.31,1,1.7,1.7,0,0,0,.82.65,3.59,3.59,0,0,0,1.42.24,4.11,4.11,0,0,0,1.54-.24,1.69,1.69,0,0,0,.86-.76,3,3,0,0,0,.27-1.37v-8h1.28v8a4,4,0,0,1-.39,1.85,2.6,2.6,0,0,1-1.27,1.12,5.68,5.68,0,0,1-2.29.39A5.42,5.42,0,0,1,375.54,413Zm3.46-4.54a2,2,0,0,0,.91-1,4.27,4.27,0,0,0,.31-1.74,4.2,4.2,0,0,0-.31-1.72,2.07,2.07,0,0,0-.91-1,3.2,3.2,0,0,0-1.47-.31A3.29,3.29,0,0,0,376,403a2,2,0,0,0-.88,1,5.17,5.17,0,0,0,0,3.47,1.93,1.93,0,0,0,.88,1,3.29,3.29,0,0,0,1.51.31A3.08,3.08,0,0,0,379,408.45Z"/><path d="M420,410l-1-2.72h-5.26l-1,2.72h-1.34l4-10.64h2l4,10.64Zm-5.9-3.79h4.46l-2.22-5.89Z"/><path d="M423.83,409.28a2.93,2.93,0,0,1-1.23-1.39,5.22,5.22,0,0,1-.41-2.15,4.33,4.33,0,0,1,.93-2.95,3.47,3.47,0,0,1,2.77-1.06,3.15,3.15,0,0,1,2.59,1,4.53,4.53,0,0,1,.87,3A5.82,5.82,0,0,1,429,408a2.66,2.66,0,0,1-1.14,1.34,3.81,3.81,0,0,1-1.94.45A4,4,0,0,1,423.83,409.28Zm.36,3.71a2.77,2.77,0,0,1-1.28-1,2.87,2.87,0,0,1-.52-1.55h1.26a2.22,2.22,0,0,0,.31,1,1.7,1.7,0,0,0,.82.65,3.57,3.57,0,0,0,1.41.24,4.17,4.17,0,0,0,1.55-.24,1.63,1.63,0,0,0,.85-.76,3,3,0,0,0,.28-1.37v-8h1.28v8a3.84,3.84,0,0,1-.4,1.85,2.53,2.53,0,0,1-1.26,1.12,5.7,5.7,0,0,1-2.3.39A5.33,5.33,0,0,1,424.19,413Zm3.46-4.54a2,2,0,0,0,.9-1,4.1,4.1,0,0,0,.32-1.74,4,4,0,0,0-.32-1.72,2.05,2.05,0,0,0-.9-1,3.23,3.23,0,0,0-1.47-.31,3.29,3.29,0,0,0-1.51.31,2,2,0,0,0-.88,1,5.17,5.17,0,0,0,0,3.47,1.89,1.89,0,0,0,.88,1,3.29,3.29,0,0,0,1.51.31A3.1,3.1,0,0,0,427.65,408.45Z"/><path d="M433.5,409.65a3.4,3.4,0,0,1-1.36-1.52,5,5,0,0,1-.46-2.2,4.9,4.9,0,0,1,.46-2.17,3.45,3.45,0,0,1,1.36-1.52,4.72,4.72,0,0,1,4.42,0,3.45,3.45,0,0,1,1.36,1.52,5,5,0,0,1,.45,2.17,5.1,5.1,0,0,1-.45,2.19,3.48,3.48,0,0,1-1.36,1.53,4.72,4.72,0,0,1-4.42,0Zm-.22-1.88a2.08,2.08,0,0,0,.91,1.06,3.67,3.67,0,0,0,3,0,2.07,2.07,0,0,0,.9-1.06,5.7,5.7,0,0,0,0-3.65,2,2,0,0,0-.9-1.05,3.57,3.57,0,0,0-3,0,2.06,2.06,0,0,0-.91,1.05,5.7,5.7,0,0,0,0,3.65Z"/><path d="M469.63,407.8a2.3,2.3,0,0,0,1.07,1,4.4,4.4,0,0,0,1.93.36,5.15,5.15,0,0,0,1.7-.23,1.7,1.7,0,0,0,.89-.67,1.94,1.94,0,0,0,.28-1.09,1.7,1.7,0,0,0-.46-1.28,2.61,2.61,0,0,0-1.48-.62l-2.51-.38a3.46,3.46,0,0,1-2-.89,2.61,2.61,0,0,1-.66-1.9,2.9,2.9,0,0,1,.44-1.57,2.94,2.94,0,0,1,1.35-1.1,5.54,5.54,0,0,1,2.24-.4,5.68,5.68,0,0,1,2.31.42,3.26,3.26,0,0,1,1.44,1.21,3.91,3.91,0,0,1,.57,1.83h-1.29a3.07,3.07,0,0,0-.42-1.28,2.3,2.3,0,0,0-1-.84,3.91,3.91,0,0,0-1.62-.3,3.18,3.18,0,0,0-2,.54,1.77,1.77,0,0,0-.66,1.46,1.64,1.64,0,0,0,.37,1.1,2,2,0,0,0,1.24.58l2.65.4a4,4,0,0,1,2.17.9,2.61,2.61,0,0,1,.71,1.95,3.29,3.29,0,0,1-.44,1.75,2.64,2.64,0,0,1-1.38,1.08,6.48,6.48,0,0,1-2.39.37,6.07,6.07,0,0,1-2.68-.51,3.31,3.31,0,0,1-1.49-1.39,4.15,4.15,0,0,1-.47-2h1.3A3.32,3.32,0,0,0,469.63,407.8Z"/><path d="M479.84,409.65a3.4,3.4,0,0,1-1.32-1.51,5.28,5.28,0,0,1-.43-2.21,5,5,0,0,1,.45-2.17,3.51,3.51,0,0,1,1.33-1.52,4.14,4.14,0,0,1,2.19-.55,3.87,3.87,0,0,1,2,.51,3.27,3.27,0,0,1,1.29,1.41,4.7,4.7,0,0,1,.44,2.07v.22a1.61,1.61,0,0,1,0,.34h-6.7v-1h6l-.56.57a4.44,4.44,0,0,0-.22-1.81,1.94,1.94,0,0,0-.85-1,2.78,2.78,0,0,0-1.41-.33,3.05,3.05,0,0,0-1.48.33,2.17,2.17,0,0,0-.92,1.05,4.85,4.85,0,0,0-.32,1.9,4.49,4.49,0,0,0,.34,1.9,2.14,2.14,0,0,0,.94,1.06,3.69,3.69,0,0,0,2.76.1,1.83,1.83,0,0,0,.82-.61,2.29,2.29,0,0,0,.42-.92h1.17a2.94,2.94,0,0,1-.48,1.31,3,3,0,0,1-1.21,1,4.71,4.71,0,0,1-2.05.39A4.11,4.11,0,0,1,479.84,409.65Z"/><path d="M488.65,409.75a1.15,1.15,0,0,1-.59-.6,2.87,2.87,0,0,1-.16-1.07V403h-1.54v-.72l1.65-.4.48-1.67h.69V402h4.46v1h-4.46v6h2.52v1h-1.88A2.83,2.83,0,0,1,488.65,409.75Zm5.21,0a1.13,1.13,0,0,1-.58-.6,2.85,2.85,0,0,1-.17-1.07V403h-1.53v-.72l1.55-.18.57-1.89h.69V402H497v1h-2.64v6h2.53v1H495A2.83,2.83,0,0,1,493.86,409.75Z"/><path d="M530.51,409.51a4.34,4.34,0,0,1-1.76-2,7.66,7.66,0,0,1,0-5.8,4.36,4.36,0,0,1,1.76-2,5.71,5.71,0,0,1,3-.72,5.63,5.63,0,0,1,3,.72,4.29,4.29,0,0,1,1.75,2,7.66,7.66,0,0,1,0,5.8,4.34,4.34,0,0,1-1.75,2,5.63,5.63,0,0,1-3,.72A5.8,5.8,0,0,1,530.51,409.51Zm-.52-2.39a3,3,0,0,0,1.28,1.5,4.46,4.46,0,0,0,2.23.5,4.37,4.37,0,0,0,2.2-.5,2.92,2.92,0,0,0,1.28-1.5,7.68,7.68,0,0,0,0-5,2.94,2.94,0,0,0-1.28-1.49,4.37,4.37,0,0,0-2.2-.5,4.46,4.46,0,0,0-2.23.5,3,3,0,0,0-1.28,1.49,7.86,7.86,0,0,0,0,5Z"/><path d="M541.82,409.75a1.12,1.12,0,0,1-.59-.6,2.85,2.85,0,0,1-.17-1.07V403h-1.53v-.72l1.65-.4.48-1.67h.68V402h4.47v1h-4.47v6h2.53v1H543A2.75,2.75,0,0,1,541.82,409.75Zm5.21,0a1.1,1.1,0,0,1-.58-.6,2.85,2.85,0,0,1-.17-1.07V403h-1.54v-.72l1.56-.18.57-1.89h.69V402h2.64v1h-2.64v6h2.53v1H548.2A2.83,2.83,0,0,1,547,409.75Z"/><path d="M590.41,399.31h1.31V410H589.5l-4.84-8.35a13.53,13.53,0,0,1-.67-1.4V410h-1.33V399.31h2.24l4.84,8.37c.17.3.39.75.67,1.36Z"/><path d="M595.2,409.65a3.46,3.46,0,0,1-1.36-1.52,5.15,5.15,0,0,1-.46-2.2,5,5,0,0,1,.46-2.17,3.51,3.51,0,0,1,1.36-1.52,4.72,4.72,0,0,1,4.42,0,3.45,3.45,0,0,1,1.36,1.52,5,5,0,0,1,.45,2.17,5.1,5.1,0,0,1-.45,2.19,3.48,3.48,0,0,1-1.36,1.53,4.72,4.72,0,0,1-4.42,0Zm-.22-1.88a2.13,2.13,0,0,0,.91,1.06,3.67,3.67,0,0,0,3,0,2.07,2.07,0,0,0,.9-1.06,5.53,5.53,0,0,0,0-3.65,2,2,0,0,0-.9-1.05,3.57,3.57,0,0,0-3,0,2.11,2.11,0,0,0-.91,1.05,5.7,5.7,0,0,0,0,3.65Z"/><path d="M603.19,402l3,7.57h-.54l3-7.57h1.27l-3.15,8H605l-3.15-8Z"/><path d="M641.93,399.31h1.33V410h-1.33Zm.8,9.57h3.38a4.36,4.36,0,0,0,2.23-.5,2.79,2.79,0,0,0,1.21-1.43,6.38,6.38,0,0,0,.37-2.34,6.31,6.31,0,0,0-.37-2.34,2.69,2.69,0,0,0-1.2-1.41,4.46,4.46,0,0,0-2.24-.48h-3.38v-1.07h3.62a5.2,5.2,0,0,1,2.79.69,4.21,4.21,0,0,1,1.64,1.9,7.22,7.22,0,0,1,0,5.43,4.13,4.13,0,0,1-1.64,1.91,5.11,5.11,0,0,1-2.79.71h-3.62Z"/><path d="M652.81,399.31h1.65v1.33h-1.65ZM653,402h1.28v8H653Z"/><path d="M656.35,403.74a3.49,3.49,0,0,1,1.37-1.5,4,4,0,0,1,2.17-.55,4.53,4.53,0,0,1,2,.4,3,3,0,0,1,1.25,1.12,3.63,3.63,0,0,1,.49,1.67h-1.2a2.79,2.79,0,0,0-.39-1.15,2,2,0,0,0-.83-.74,2.83,2.83,0,0,0-1.26-.26,3.05,3.05,0,0,0-1.48.33,2.18,2.18,0,0,0-.94,1,4.44,4.44,0,0,0-.33,1.85,4.62,4.62,0,0,0,.32,1.85,2.19,2.19,0,0,0,.92,1,3,3,0,0,0,1.47.32,2.68,2.68,0,0,0,1.84-.59,2.57,2.57,0,0,0,.76-1.68h1.22a3.55,3.55,0,0,1-.5,1.69,3.29,3.29,0,0,1-1.31,1.19,4.32,4.32,0,0,1-2,.43,4.15,4.15,0,0,1-2.18-.54,3.47,3.47,0,0,1-1.36-1.5,5.54,5.54,0,0,1,0-4.42Z"/><path class="cls-1" d="M.5,378.25H681.88"/><polygon class="cls-2" points="653.01 111.25 624.64 111.25 624.64 94.67 567.9 94.67 567.9 61.8 511.16 61.8 511.16 107.98 454.42 107.98 454.42 21.46 397.68 21.46 397.68 0 340.94 0 340.94 65.68 284.2 65.68 284.2 61.3 227.46 61.3 227.46 99.5 170.72 99.5 170.72 110.47 113.98 110.47 113.98 113.32 57.24 113.32 57.24 104.63 28.87 104.63 0.5 104.63 0.5 240.23 28.87 240.23 57.24 240.23 57.24 231.54 113.98 231.54 113.98 234.39 170.72 234.39 170.72 245.35 227.46 245.35 227.46 283.56 284.2 283.56 284.2 279.18 340.94 279.18 340.94 344.86 397.68 344.86 397.68 323.4 454.42 323.4 454.42 236.88 511.16 236.88 511.16 283.05 567.9 283.05 567.9 250.19 624.64 250.19 624.64 233.6 653.01 233.6 681.38 233.6 681.38 111.25 653.01 111.25"/><g class="cls-3"><path class="cls-4" d="M28.87,155.26H57.24v-1.2H114v-1.82h56.74V144h56.74V121H284.2v.47h56.74v5.36h56.74v22.93h56.74v3.63h56.74v-.62H567.9v1.75h56.74v.08H653v35.66H624.64v.08H567.9v1.75H511.16v-.62H454.42v3.63H397.68V218H340.94v5.36H284.2v.47H227.46v-23H170.72v-8.24H114V190.8H57.24v-1.2H28.87Z"/><rect class="cls-4" x="0.5" y="155.26" width="56.74" height="34.34"/><rect class="cls-4" x="624.64" y="154.6" width="56.74" height="35.66"/></g></g></g></svg>