<?xml version="1.0" encoding="utf-8"?>
<!-- Generator: Adobe Illustrator 25.2.0, SVG Export Plug-In . SVG Version: 6.00 Build 0)  -->
<svg version="1.1" id="Livello_1" xmlns="http://www.w3.org/2000/svg" xmlns:xlink="http://www.w3.org/1999/xlink" x="0px" y="0px"
	 viewBox="0 0 1200 720" style="enable-background:new 0 0 1200 720;" xml:space="preserve">
<style type="text/css">
	.st0{fill:none;stroke:#6691E0;stroke-width:4;stroke-linejoin:round;}
	.st1{fill:none;stroke:#003599;stroke-width:5;stroke-linejoin:round;stroke-dasharray:1,5;}
	.st2{fill:none;stroke:#99B5EB;stroke-width:5;stroke-linejoin:round;stroke-dasharray:1,5;}
	.st3{enable-background:new    ;}
	.st4{fill:none;stroke:#000000;stroke-width:0.5;stroke-linecap:square;stroke-linejoin:round;}
	.st5{fill:none;stroke:#000000;stroke-width:0.25;stroke-linecap:square;stroke-linejoin:round;}
</style>
<path class="st0" d="M62.3,336.1c19,0,19-5.3,38-5.3c17.2,0,17.2-8.3,34.3-8.3c19,0,19,14.2,38,14.2c18.4,0,18.4-10.3,36.8-10.3
	c19,0,19,4.4,38,4.4c18.4,0,18.4,15.4,36.8,15.4c19,0,19,16.7,38,16.7s19,71.7,38,71.7c18.4,0,18.4,4.4,36.8,4.4
	c19,0,19-34.3,38.1-34.3c18.4,0,18.4-15.6,36.8-15.6c19,0,19-4.5,38-4.5c19,0,19-3.5,38-3.5c17.2,0,17.2,1.9,34.3,1.9
	c19,0,19,17.4,38,17.4c18.4,0,18.4,16.5,36.8,16.5c19,0,19,30,38,30c18.4,0,18.4,77.2,36.8,77.2c19,0,19,45.1,38,45.1s19,9.8,38,9.8
	c18.4,0,18.4,8.4,36.8,8.4c19,0,19-21.6,38.1-21.6c18.4,0,18.4-12.8,36.8-12.8c19,0,19-13.4,38-13.4s19,1.5,38,1.5
	c17.2,0,17.2-7.8,34.3-7.8c19,0,19-2.8,38-2.8c18.4,0,18.4-59.1,36.8-59.1c19,0,19-58.7,38-58.7"/>
<path class="st1" d="M62.3,283.3c19,0,19,14.6,38,14.6c17.2,0,17.2-2.2,34.3-2.2c19,0,19-0.4,38-0.4c18.4,0,18.4-4,36.8-4
	c19,0,19-15.4,38-15.4c18.4,0,18.4,34.3,36.8,34.3c19,0,19,26.1,38,26.1s19,1.2,38,1.2c18.4,0,18.4-115.9,36.8-115.9
	c19,0,19-87,38.1-87c18.4,0,18.4,67.5,36.8,67.5c19,0,19,81.1,38,81.1c19,0,19,14.6,38,14.6c17.2,0,17.2-2.2,34.3-2.2
	c19,0,19-0.4,38-0.4c18.4,0,18.4-4,36.8-4c19,0,19-15.4,38-15.4c18.4,0,18.4,34.3,36.8,34.3c19,0,19,26.1,38,26.1s19,1.2,38,1.2
	c18.4,0,18.4-115.9,36.8-115.9c19,0,19-87,38.1-87c18.4,0,18.4,67.5,36.8,67.5c19,0,19,81.1,38,81.1s19,14.6,38,14.6
	c17.2,0,17.2-2.2,34.3-2.2c19,0,19-0.4,38-0.4c18.4,0,18.4-4,36.8-4c19,0,19-15.4,38-15.4"/>
<path class="st2" d="M62.3,582.7c19,0,19-4.1,38-4.1c17.2,0,17.2-34.2,34.3-34.2c19,0,19-4.8,38-4.8c18.4,0,18.4,28.1,36.8,28.1
	c19,0,19,40.2,38,40.2c18.4,0,18.4,1.1,36.8,1.1c19,0,19,16.9,38,16.9s19,2.9,38,2.9c18.4,0,18.4-2.7,36.8-2.7
	c19,0,19-25.8,38.1-25.8c18.4,0,18.4-24.1,36.8-24.1c19,0,19,6.5,38,6.5c19,0,19-4.1,38-4.1c17.2,0,17.2-34.2,34.3-34.2
	c19,0,19-4.8,38-4.8c18.4,0,18.4,28.1,36.8,28.1c19,0,19,40.2,38,40.2c18.4,0,18.4,1.1,36.8,1.1c19,0,19,16.9,38,16.9s19,2.9,38,2.9
	c18.4,0,18.4-2.7,36.8-2.7c19,0,19-25.8,38.1-25.8c18.4,0,18.4-24.1,36.8-24.1c19,0,19,6.5,38,6.5s19-4.1,38-4.1
	c17.2,0,17.2-34.2,34.3-34.2c19,0,19-4.8,38-4.8c18.4,0,18.4,28.1,36.8,28.1c19,0,19,40.2,38,40.2"/>
<g transform="translate(-400,258)">
	<g>
		<g class="st3">
			<path d="M444.5,443.5l5.3-4.4c0.5-0.4,0.9-0.8,1.1-1.2c0.2-0.3,0.3-0.8,0.3-1.2c0-0.6-0.2-1-0.6-1.4c-0.4-0.3-0.9-0.5-1.7-0.5
				c-0.7,0-1.3,0.1-1.7,0.4c-0.4,0.3-0.8,0.6-1,1.2c-0.2,0.5-0.3,1.1-0.3,1.9h-1.4c0-0.9,0.2-1.6,0.5-2.3c0.3-0.7,0.8-1.2,1.4-1.6
				s1.5-0.6,2.5-0.6c0.9,0,1.6,0.1,2.1,0.4s0.9,0.6,1.2,1.1c0.3,0.4,0.4,1,0.4,1.5c0,0.7-0.2,1.3-0.6,1.9s-1,1.2-2,2l-3.6,3h6.4v1.1
				h-8.3L444.5,443.5L444.5,443.5z"/>
			<path d="M456.4,444.1c-0.7-0.5-1.2-1.1-1.6-2c-0.3-0.8-0.5-1.8-0.5-2.9s0.2-2.1,0.5-2.9s0.9-1.5,1.6-2s1.6-0.7,2.7-0.7
				s2,0.2,2.7,0.7s1.2,1.1,1.6,2s0.5,1.8,0.5,2.9s-0.2,2.1-0.5,2.9s-0.9,1.5-1.6,2s-1.6,0.7-2.7,0.7
				C458,444.8,457.1,444.6,456.4,444.1z M456,441.7c0.2,0.7,0.6,1.2,1.1,1.5s1.1,0.5,1.9,0.5s1.4-0.2,1.9-0.5s0.9-0.8,1.1-1.5
				s0.4-1.5,0.4-2.5s-0.1-1.9-0.4-2.5c-0.2-0.7-0.6-1.2-1.1-1.5s-1.1-0.5-1.9-0.5s-1.4,0.2-1.9,0.5s-0.9,0.8-1.1,1.5
				s-0.4,1.5-0.4,2.5C455.7,440.2,455.8,441.1,456,441.7z"/>
			<path d="M465.7,443.5l5.3-4.4c0.5-0.4,0.9-0.8,1.1-1.2s0.3-0.8,0.3-1.2c0-0.6-0.2-1-0.6-1.4c-0.4-0.3-0.9-0.5-1.7-0.5
				c-0.7,0-1.3,0.1-1.7,0.4c-0.4,0.3-0.8,0.6-1,1.2c-0.2,0.5-0.3,1.1-0.3,1.9h-1.4c0-0.9,0.2-1.6,0.5-2.3s0.8-1.2,1.4-1.6
				s1.5-0.6,2.5-0.6c0.9,0,1.6,0.1,2.1,0.4s0.9,0.6,1.2,1.1c0.2,0.4,0.4,1,0.4,1.5c0,0.7-0.2,1.3-0.6,1.9s-1,1.2-2,2l-3.6,3h6.4v1.1
				h-8.3L465.7,443.5L465.7,443.5z"/>
			<path d="M475.7,443.5h2.5V435h-2.5v-1.1h2.3c0.5,0,0.9,0.1,1.2,0.3c0.2,0.2,0.3,0.6,0.3,1v8.2h2.3v1.1h-6.1L475.7,443.5
				L475.7,443.5z"/>
		</g>
	</g>
</g>
<g transform="translate(-400,258)">
	<g>
		<g class="st3">
			<path d="M890.8,443.5l5.3-4.4c0.5-0.4,0.9-0.8,1.1-1.2c0.2-0.3,0.3-0.8,0.3-1.2c0-0.6-0.2-1-0.6-1.4s-0.9-0.5-1.7-0.5
				c-0.7,0-1.3,0.1-1.7,0.4s-0.8,0.6-1,1.2c-0.2,0.5-0.3,1.1-0.3,1.9h-1.4c0-0.9,0.2-1.6,0.5-2.3c0.3-0.7,0.8-1.2,1.4-1.6
				c0.6-0.4,1.5-0.6,2.5-0.6c0.9,0,1.6,0.1,2.1,0.4s0.9,0.6,1.2,1.1c0.3,0.4,0.4,1,0.4,1.5c0,0.7-0.2,1.3-0.6,1.9s-1,1.2-2,2l-3.6,3
				h6.4v1.1h-8.3L890.8,443.5L890.8,443.5z"/>
			<path d="M902.7,444.1c-0.7-0.5-1.2-1.1-1.6-2c-0.3-0.8-0.5-1.8-0.5-2.9s0.2-2.1,0.5-2.9s0.9-1.5,1.6-2c0.7-0.5,1.6-0.7,2.7-0.7
				c1.1,0,2,0.2,2.7,0.7s1.2,1.1,1.6,2s0.5,1.8,0.5,2.9s-0.2,2.1-0.5,2.9s-0.9,1.5-1.6,2c-0.7,0.5-1.6,0.7-2.7,0.7
				C904.3,444.8,903.4,444.6,902.7,444.1z M902.4,441.7c0.2,0.7,0.6,1.2,1.1,1.5s1.1,0.5,1.9,0.5s1.4-0.2,1.9-0.5s0.9-0.8,1.1-1.5
				c0.2-0.7,0.4-1.5,0.4-2.5s-0.1-1.9-0.4-2.5s-0.6-1.2-1.1-1.5s-1.1-0.5-1.9-0.5s-1.4,0.2-1.9,0.5s-0.9,0.8-1.1,1.5
				c-0.2,0.7-0.4,1.5-0.4,2.5S902.1,441.1,902.4,441.7z"/>
			<path d="M912,443.5l5.3-4.4c0.5-0.4,0.9-0.8,1.1-1.2s0.3-0.8,0.3-1.2c0-0.6-0.2-1-0.6-1.4c-0.4-0.3-0.9-0.5-1.7-0.5
				c-0.7,0-1.3,0.1-1.7,0.4s-0.8,0.6-1,1.2c-0.2,0.5-0.3,1.1-0.3,1.9H912c0-0.9,0.2-1.6,0.5-2.3c0.3-0.7,0.8-1.2,1.4-1.6
				c0.6-0.4,1.5-0.6,2.5-0.6c0.9,0,1.6,0.1,2.1,0.4s0.9,0.6,1.2,1.1c0.2,0.4,0.4,1,0.4,1.5c0,0.7-0.2,1.3-0.6,1.9
				c-0.4,0.6-1,1.2-2,2l-3.6,3h6.4v1.1H912V443.5z"/>
			<path d="M922.1,443.5l5.3-4.4c0.5-0.4,0.9-0.8,1.1-1.2s0.3-0.8,0.3-1.2c0-0.6-0.2-1-0.6-1.4c-0.4-0.3-0.9-0.5-1.7-0.5
				c-0.7,0-1.3,0.1-1.7,0.4s-0.8,0.6-1,1.2c-0.2,0.5-0.3,1.1-0.3,1.9h-1.4c0-0.9,0.2-1.6,0.5-2.3c0.3-0.7,0.8-1.2,1.4-1.6
				c0.6-0.4,1.5-0.6,2.5-0.6c0.9,0,1.6,0.1,2.1,0.4s0.9,0.6,1.2,1.1c0.2,0.4,0.4,1,0.4,1.5c0,0.7-0.2,1.3-0.6,1.9
				c-0.4,0.6-1,1.2-2,2l-3.6,3h6.4v1.1h-8.3L922.1,443.5L922.1,443.5z"/>
		</g>
	</g>
</g>
<g>
	<g class="st3">
		<path d="M1137.3,263.9h-1.3v-9.6l-3.6,9.6h-1.8l-3.6-9.6v9.6h-1.3v-10.6h2.3l3.5,9.4l3.5-9.4h2.3V263.9z"/>
		<path d="M1147.3,263.9l-1-2.7h-5.3l-1,2.7h-1.3l4-10.6h2l4,10.6H1147.3z M1141.4,260.1h4.5l-2.2-5.9L1141.4,260.1z"/>
		<path d="M1150.9,263.9h-1.6l4.3-5.9l0.8,1L1150.9,263.9z M1149.4,253.2h1.6l8,10.6h-1.7L1149.4,253.2z M1157.3,253.2h1.6l-4.2,5.8
			l-0.8-1L1157.3,253.2z"/>
	</g>
</g>
<g>
	<g class="st3">
		<path d="M1137.3,630.8h-1.3v-9.6l-3.6,9.6h-1.8l-3.6-9.6v9.6h-1.3v-10.6h2.3l3.5,9.4l3.5-9.4h2.3V630.8z"/>
		<path d="M1139.2,620.2h5.8v1.1h-5.8V620.2z M1139.2,629.8h5.8v1.1h-5.8V629.8z M1141.5,620.7h1.3v9.6h-1.3V620.7z"/>
		<path d="M1154.8,620.2h1.3v10.6h-2.2l-4.8-8.4c-0.3-0.6-0.5-1-0.7-1.4v9.7h-1.3v-10.6h2.2l4.8,8.4c0.2,0.3,0.4,0.8,0.7,1.4V620.2z
			"/>
	</g>
</g>
<g transform="translate(-400,258)">
	<g>
		<g class="st3">
			<path d="M1338.6,443.5l5.3-4.4c0.5-0.4,0.9-0.8,1.1-1.2s0.3-0.8,0.3-1.2c0-0.6-0.2-1-0.6-1.4s-0.9-0.5-1.7-0.5
				c-0.7,0-1.3,0.1-1.7,0.4c-0.4,0.3-0.8,0.6-1,1.2c-0.2,0.5-0.3,1.1-0.3,1.9h-1.4c0-0.9,0.2-1.6,0.5-2.3c0.3-0.7,0.8-1.2,1.4-1.6
				s1.5-0.6,2.5-0.6c0.9,0,1.6,0.1,2.1,0.4s0.9,0.6,1.2,1.1c0.2,0.4,0.4,1,0.4,1.5c0,0.7-0.2,1.3-0.6,1.9s-1,1.2-2,2l-3.6,3h6.4v1.1
				h-8.3L1338.6,443.5L1338.6,443.5z"/>
			<path d="M1350.5,444.1c-0.7-0.5-1.2-1.1-1.6-2c-0.3-0.8-0.5-1.8-0.5-2.9s0.2-2.1,0.5-2.9s0.9-1.5,1.6-2s1.6-0.7,2.7-0.7
				s2,0.2,2.7,0.7s1.2,1.1,1.6,2s0.5,1.8,0.5,2.9s-0.2,2.1-0.5,2.9s-0.9,1.5-1.6,2s-1.6,0.7-2.7,0.7
				C1352.1,444.8,1351.2,444.6,1350.5,444.1z M1350.1,441.7c0.2,0.7,0.6,1.2,1.1,1.5s1.1,0.5,1.9,0.5s1.4-0.2,1.9-0.5
				s0.9-0.8,1.1-1.5s0.4-1.5,0.4-2.5s-0.1-1.9-0.4-2.5s-0.6-1.2-1.1-1.5s-1.1-0.5-1.9-0.5s-1.4,0.2-1.9,0.5s-0.9,0.8-1.1,1.5
				s-0.4,1.5-0.4,2.5C1349.8,440.2,1349.9,441.1,1350.1,441.7z"/>
			<path d="M1359.8,443.5l5.3-4.4c0.5-0.4,0.9-0.8,1.1-1.2c0.2-0.3,0.3-0.8,0.3-1.2c0-0.6-0.2-1-0.6-1.4s-0.9-0.5-1.7-0.5
				c-0.7,0-1.3,0.1-1.7,0.4c-0.4,0.3-0.8,0.6-1,1.2c-0.2,0.5-0.3,1.1-0.3,1.9h-1.4c0-0.9,0.2-1.6,0.5-2.3c0.3-0.7,0.8-1.2,1.4-1.6
				s1.5-0.6,2.5-0.6c0.9,0,1.6,0.1,2.1,0.4s0.9,0.6,1.2,1.1c0.3,0.4,0.4,1,0.4,1.5c0,0.7-0.2,1.3-0.6,1.9s-1,1.2-2,2l-3.6,3h6.4v1.1
				h-8.3L1359.8,443.5L1359.8,443.5z"/>
			<path d="M1371.3,442.4c0.2,0.4,0.6,0.7,1,0.9c0.4,0.2,0.9,0.4,1.5,0.4c0.9,0,1.7-0.2,2.1-0.6c0.5-0.4,0.7-1.1,0.7-1.9
				c0-0.7-0.2-1.2-0.6-1.7c-0.4-0.4-1-0.6-1.7-0.6c-0.4,0-0.7,0-1,0.1s-0.6,0.2-0.9,0.5l-0.6-0.8l4.2-3.6h-6V434h7.6v1.1l-3.7,3.3
				c0.3-0.1,0.7-0.1,1.1-0.1c0.5,0,1.1,0.1,1.5,0.3c0.5,0.2,0.8,0.6,1.1,1c0.3,0.5,0.4,1,0.4,1.7c0,0.6-0.1,1.2-0.4,1.8
				c-0.3,0.5-0.8,1-1.4,1.3s-1.5,0.5-2.5,0.5c-0.9,0-1.7-0.2-2.3-0.5s-1.1-0.8-1.4-1.3c-0.3-0.6-0.5-1.2-0.5-1.9h1.4
				C1371,441.6,1371.1,442,1371.3,442.4z"/>
		</g>
	</g>
</g>
<line class="st4" x1="62.5" y1="655.9" x2="62.5" y2="89.8"/>
<line class="st5" x1="1180.9" y1="655.9" x2="1180.9" y2="89.8"/>
<line class="st5" x1="173" y1="655.9" x2="173" y2="89.8"/>
<line class="st5" x1="99.2" y1="655.9" x2="99.2" y2="649.6"/>
<line class="st5" x1="136.1" y1="655.9" x2="136.1" y2="649.6"/>
<line class="st5" x1="284.6" y1="655.9" x2="284.6" y2="89.8"/>
<line class="st5" x1="210.8" y1="655.9" x2="210.8" y2="649.6"/>
<line class="st5" x1="247.7" y1="655.9" x2="247.7" y2="649.6"/>
<line class="st5" x1="358.4" y1="655.9" x2="358.4" y2="649.6"/>
<line class="st5" x1="321.5" y1="655.9" x2="321.5" y2="649.6"/>
<line class="st5" x1="397.4" y1="655.9" x2="397.4" y2="89.8"/>
<line class="st5" x1="434.4" y1="655.9" x2="434.4" y2="649.6"/>
<line class="st5" x1="473.4" y1="655.9" x2="473.4" y2="649.6"/>
<line class="st4" x1="510.3" y1="655.9" x2="510.3" y2="89.8"/>
<line class="st5" x1="549.4" y1="655.9" x2="549.4" y2="649.6"/>
<line class="st5" x1="586.3" y1="655.9" x2="586.3" y2="649.6"/>
<line class="st5" x1="620.6" y1="655.9" x2="620.6" y2="89.8"/>
<line class="st5" x1="661" y1="655.9" x2="661" y2="649.6"/>
<line class="st5" x1="697.9" y1="655.9" x2="697.9" y2="649.6"/>
<line class="st5" x1="732.2" y1="655.9" x2="732.2" y2="89.8"/>
<line class="st5" x1="769.1" y1="655.9" x2="769.1" y2="649.6"/>
<line class="st5" x1="803.5" y1="655.9" x2="803.5" y2="649.6"/>
<line class="st5" x1="845.1" y1="655.9" x2="845.1" y2="89.8"/>
<line class="st5" x1="879.5" y1="655.9" x2="879.5" y2="649.6"/>
<line class="st5" x1="921" y1="655.9" x2="921" y2="649.6"/>
<line class="st4" x1="958" y1="655.9" x2="958" y2="89.8"/>
<line class="st5" x1="999.5" y1="655.9" x2="999.5" y2="649.6"/>
<line class="st5" x1="1036.5" y1="655.9" x2="1036.5" y2="649.6"/>
<line class="st5" x1="1068.3" y1="655.9" x2="1068.3" y2="89.8"/>
<line class="st5" x1="1105.2" y1="655.9" x2="1105.2" y2="649.6"/>
<line class="st5" x1="1137" y1="655.9" x2="1137" y2="649.6"/>
<line class="st4" x1="62.5" y1="655.9" x2="56.5" y2="655.9"/>
<line class="st4" x1="62.5" y1="604.3" x2="56.5" y2="604.3"/>
<line class="st4" x1="62.5" y1="553" x2="56.5" y2="553"/>
<line class="st4" x1="62.5" y1="501.6" x2="56.5" y2="501.6"/>
<line class="st4" x1="62.5" y1="450.2" x2="56.5" y2="450.2"/>
<line class="st4" x1="62.5" y1="398.9" x2="56.5" y2="398.9"/>
<line class="st4" x1="62.5" y1="347.5" x2="56.5" y2="347.5"/>
<line class="st4" x1="62.5" y1="296.1" x2="56.5" y2="296.1"/>
<line class="st4" x1="62.5" y1="244.7" x2="56.5" y2="244.7"/>
<line class="st4" x1="62.5" y1="193.4" x2="56.5" y2="193.4"/>
<line class="st4" x1="62.5" y1="142" x2="56.5" y2="142"/>
<line class="st4" x1="62.5" y1="89.7" x2="56.5" y2="89.7"/>
<line class="st4" x1="62.5" y1="655.9" x2="56.5" y2="655.9"/>
<g>
	<g>
		<g class="st3">
			<path d="M41.8,660.6c-0.7-0.5-1.2-1.1-1.6-2c-0.3-0.8-0.5-1.8-0.5-2.9s0.2-2.1,0.5-2.9c0.3-0.8,0.9-1.5,1.6-2
				c0.7-0.5,1.6-0.7,2.7-0.7c1.1,0,2,0.2,2.7,0.7s1.2,1.1,1.6,2c0.3,0.8,0.5,1.8,0.5,2.9s-0.2,2.1-0.5,2.9c-0.3,0.8-0.9,1.5-1.6,2
				c-0.7,0.5-1.6,0.7-2.7,0.7C43.4,661.3,42.5,661.1,41.8,660.6z M41.4,658.2c0.2,0.7,0.6,1.2,1.1,1.5s1.1,0.5,1.9,0.5
				c0.8,0,1.4-0.2,1.9-0.5s0.9-0.8,1.1-1.5c0.2-0.7,0.4-1.5,0.4-2.5s-0.1-1.9-0.4-2.5s-0.6-1.2-1.1-1.5s-1.1-0.5-1.9-0.5
				c-0.8,0-1.4,0.2-1.9,0.5s-0.9,0.8-1.1,1.5c-0.2,0.7-0.4,1.5-0.4,2.5C41.1,656.7,41.2,657.6,41.4,658.2z"/>
		</g>
	</g>
</g>
<g>
	<g>
		<g class="st3">
			<path d="M30,607.8l5.3-4.4c0.5-0.4,0.9-0.8,1.1-1.2s0.3-0.8,0.3-1.2c0-0.6-0.2-1-0.6-1.4s-0.9-0.5-1.7-0.5
				c-0.7,0-1.3,0.1-1.7,0.4c-0.4,0.3-0.8,0.6-1,1.2c-0.2,0.5-0.3,1.1-0.3,1.9H30c0-0.9,0.2-1.6,0.5-2.3s0.8-1.2,1.4-1.6
				c0.6-0.4,1.5-0.6,2.5-0.6c0.9,0,1.6,0.1,2.1,0.4c0.5,0.3,0.9,0.6,1.2,1.1c0.2,0.4,0.4,1,0.4,1.5c0,0.7-0.2,1.3-0.6,1.9
				s-1,1.2-2,2l-3.6,3h6.4v1.1H30V607.8z"/>
			<path d="M42,608.4c-0.7-0.5-1.2-1.1-1.6-2c-0.3-0.8-0.5-1.8-0.5-2.9s0.2-2.1,0.5-2.9c0.3-0.8,0.9-1.5,1.6-2s1.6-0.7,2.7-0.7
				c1.1,0,2,0.2,2.7,0.7s1.2,1.1,1.6,2c0.3,0.8,0.5,1.8,0.5,2.9s-0.2,2.1-0.5,2.9c-0.3,0.8-0.9,1.5-1.6,2c-0.7,0.5-1.6,0.7-2.7,0.7
				C43.6,609.2,42.7,608.9,42,608.4z M41.6,606.1c0.2,0.7,0.6,1.2,1.1,1.5s1.1,0.5,1.9,0.5c0.8,0,1.4-0.2,1.9-0.5s0.9-0.8,1.1-1.5
				c0.2-0.7,0.4-1.5,0.4-2.5s-0.1-1.9-0.4-2.5c-0.2-0.7-0.6-1.2-1.1-1.5s-1.1-0.5-1.9-0.5c-0.8,0-1.4,0.2-1.9,0.5s-0.9,0.8-1.1,1.5
				s-0.4,1.5-0.4,2.5C41.3,604.6,41.4,605.4,41.6,606.1z"/>
		</g>
	</g>
</g>
<g>
	<g class="st3">
		<path d="M36.3,555.2h-5.8v-1.1l5.1-6.9H37l-5.1,6.9h4.5v-6.9h1.3v6.9h1.8v1.1h-1.8v2.7h-1.3v-2.7H36.3z"/>
		<path d="M42.7,557.4c-0.7-0.5-1.2-1.1-1.6-2c-0.3-0.8-0.5-1.8-0.5-2.9s0.2-2.1,0.5-2.9c0.3-0.8,0.9-1.5,1.6-2
			c0.7-0.5,1.6-0.7,2.7-0.7c1.1,0,2,0.2,2.7,0.7s1.2,1.1,1.6,2s0.5,1.8,0.5,2.9s-0.2,2.1-0.5,2.9s-0.9,1.5-1.6,2
			c-0.7,0.5-1.6,0.7-2.7,0.7C44.3,558.2,43.4,557.9,42.7,557.4z M42.4,555.1c0.2,0.7,0.6,1.2,1.1,1.5s1.1,0.5,1.9,0.5
			c0.8,0,1.4-0.2,1.9-0.5s0.9-0.8,1.1-1.5c0.2-0.7,0.4-1.5,0.4-2.5s-0.1-1.9-0.4-2.5c-0.2-0.7-0.6-1.2-1.1-1.5s-1.1-0.5-1.9-0.5
			c-0.8,0-1.4,0.2-1.9,0.5s-0.9,0.8-1.1,1.5c-0.2,0.7-0.4,1.5-0.4,2.5S42.1,554.4,42.4,555.1z"/>
	</g>
</g>
<g>
	<g class="st3">
		<path d="M32.6,506c-0.6-0.4-1.1-0.9-1.5-1.8c-0.4-0.8-0.5-1.9-0.5-3.1s0.2-2.2,0.5-3.1s0.9-1.5,1.5-2c0.6-0.5,1.5-0.7,2.5-0.7
			c0.8,0,1.5,0.1,2,0.4c0.5,0.2,0.9,0.6,1.2,1s0.5,1,0.6,1.6h-1.3c-0.1-0.4-0.2-0.7-0.4-1s-0.5-0.5-0.8-0.7s-0.8-0.2-1.3-0.2
			c-1.1,0-1.9,0.4-2.5,1.2c-0.5,0.8-0.8,2-0.8,3.8v1l-0.3-0.2c0.2-0.8,0.6-1.4,1.3-1.9s1.5-0.7,2.4-0.7c0.7,0,1.3,0.1,1.9,0.4
			c0.6,0.3,1,0.6,1.3,1.1s0.5,1.1,0.5,1.8c0,0.7-0.2,1.3-0.5,1.8s-0.8,1-1.4,1.3c-0.6,0.3-1.3,0.5-2.2,0.5
			C34,506.6,33.3,506.4,32.6,506z M36.9,504.8c0.4-0.4,0.7-1,0.7-1.8s-0.2-1.4-0.7-1.8c-0.4-0.4-1.1-0.7-1.9-0.7
			c-0.6,0-1,0.1-1.5,0.3c-0.4,0.2-0.8,0.5-1,0.8c-0.2,0.4-0.4,0.8-0.4,1.3c0,0.7,0.2,1.3,0.7,1.8s1.1,0.7,2,0.7
			C35.7,505.5,36.4,505.2,36.9,504.8z"/>
		<path d="M42.6,505.8c-0.7-0.5-1.2-1.1-1.6-2c-0.3-0.8-0.5-1.8-0.5-2.9s0.2-2.1,0.5-2.9s0.9-1.5,1.6-2c0.7-0.5,1.6-0.7,2.7-0.7
			c1.1,0,2,0.2,2.7,0.7s1.2,1.1,1.6,2c0.3,0.8,0.5,1.8,0.5,2.9s-0.2,2.1-0.5,2.9s-0.9,1.5-1.6,2c-0.7,0.5-1.6,0.7-2.7,0.7
			C44.2,506.6,43.3,506.3,42.6,505.8z M42.3,503.5c0.2,0.7,0.6,1.2,1.1,1.5s1.1,0.5,1.9,0.5c0.8,0,1.4-0.2,1.9-0.5s0.9-0.8,1.1-1.5
			c0.2-0.7,0.4-1.5,0.4-2.5s-0.1-1.9-0.4-2.5s-0.6-1.2-1.1-1.5s-1.1-0.5-1.9-0.5c-0.8,0-1.4,0.2-1.9,0.5s-0.9,0.8-1.1,1.5
			c-0.2,0.7-0.4,1.5-0.4,2.5C41.9,502,42,502.8,42.3,503.5z"/>
	</g>
</g>
<g>
	<g class="st3">
		<path d="M32.3,454.5c-0.6-0.3-1.1-0.7-1.4-1.1c-0.3-0.5-0.4-1-0.4-1.5c0-0.7,0.2-1.2,0.6-1.7s0.9-0.8,1.6-1c-0.6-0.2-1-0.5-1.4-1
			c-0.3-0.4-0.5-0.9-0.5-1.5c0-0.5,0.1-1,0.4-1.4s0.7-0.8,1.3-1c0.6-0.3,1.3-0.4,2.2-0.4s1.6,0.1,2.2,0.4c0.6,0.3,1,0.6,1.3,1
			s0.4,0.9,0.4,1.4c0,0.6-0.2,1.1-0.5,1.5s-0.8,0.8-1.4,1c0.5,0.1,0.8,0.4,1.2,0.6c0.3,0.3,0.6,0.6,0.7,0.9c0.2,0.4,0.2,0.8,0.2,1.2
			c0,0.6-0.1,1.1-0.4,1.5c-0.3,0.5-0.7,0.8-1.4,1.1s-1.4,0.4-2.4,0.4S33,454.8,32.3,454.5z M36.3,453.6c0.4-0.2,0.7-0.4,0.9-0.7
			s0.3-0.7,0.3-1.1c0-0.7-0.2-1.2-0.7-1.6s-1.2-0.6-2.1-0.6c-0.6,0-1.1,0.1-1.6,0.3c-0.4,0.2-0.7,0.4-0.9,0.7
			c-0.2,0.3-0.3,0.7-0.3,1.1c0,0.6,0.2,1.1,0.7,1.5s1.2,0.6,2.1,0.6C35.3,453.9,35.9,453.8,36.3,453.6z M36.2,448.4
			c0.4-0.2,0.7-0.4,0.8-0.7c0.2-0.3,0.3-0.6,0.3-1c0-0.6-0.2-1-0.6-1.4c-0.4-0.3-1.1-0.5-2-0.5c-0.6,0-1.1,0.1-1.5,0.2
			c-0.4,0.2-0.7,0.4-0.9,0.7c-0.2,0.3-0.3,0.6-0.3,1s0.1,0.7,0.3,1s0.5,0.5,0.8,0.7c0.4,0.2,0.9,0.3,1.5,0.3
			C35.3,448.7,35.8,448.6,36.2,448.4z"/>
		<path d="M42.5,454.2c-0.7-0.5-1.2-1.1-1.6-2c-0.3-0.8-0.5-1.8-0.5-2.9s0.2-2.1,0.5-2.9s0.9-1.5,1.6-2s1.6-0.7,2.7-0.7
			c1.1,0,2,0.2,2.7,0.7s1.2,1.1,1.6,2c0.3,0.8,0.5,1.8,0.5,2.9s-0.2,2.1-0.5,2.9s-0.9,1.5-1.6,2c-0.7,0.5-1.6,0.7-2.7,0.7
			C44.1,455,43.2,454.7,42.5,454.2z M42.2,451.9c0.2,0.7,0.6,1.2,1.1,1.5s1.1,0.5,1.9,0.5c0.8,0,1.4-0.2,1.9-0.5s0.9-0.8,1.1-1.5
			c0.2-0.7,0.4-1.5,0.4-2.5s-0.1-1.9-0.4-2.5c-0.2-0.7-0.6-1.2-1.1-1.5s-1.1-0.5-1.9-0.5c-0.8,0-1.4,0.2-1.9,0.5s-0.9,0.8-1.1,1.5
			s-0.4,1.5-0.4,2.5S41.9,451.2,42.2,451.9z"/>
	</g>
</g>
<g>
	<g class="st3">
		<path d="M22.6,402h2.5v-8.5h-2.5v-1.1h2.3c0.5,0,0.9,0.1,1.2,0.3c0.2,0.2,0.3,0.6,0.3,1v8.2h2.3v1.1h-6.1
			C22.6,403,22.6,402,22.6,402z"/>
		<path d="M32,402.6c-0.7-0.5-1.2-1.1-1.6-2c-0.3-0.8-0.5-1.8-0.5-2.9s0.2-2.1,0.5-2.9s0.9-1.5,1.6-2s1.6-0.7,2.7-0.7
			c1.1,0,2,0.2,2.7,0.7s1.2,1.1,1.6,2s0.5,1.8,0.5,2.9s-0.2,2.1-0.5,2.9s-0.9,1.5-1.6,2c-0.7,0.5-1.6,0.7-2.7,0.7
			C33.6,403.4,32.7,403.1,32,402.6z M31.7,400.3c0.2,0.7,0.6,1.2,1.1,1.5s1.1,0.5,1.9,0.5s1.4-0.2,1.9-0.5s0.9-0.8,1.1-1.5
			c0.2-0.7,0.4-1.5,0.4-2.5s-0.1-1.9-0.4-2.5s-0.6-1.2-1.1-1.5s-1.1-0.5-1.9-0.5s-1.4,0.2-1.9,0.5s-0.9,0.8-1.1,1.5
			s-0.4,1.5-0.4,2.5S31.4,399.6,31.7,400.3z"/>
		<path d="M43.1,402.6c-0.7-0.5-1.2-1.1-1.6-2c-0.3-0.8-0.5-1.8-0.5-2.9s0.2-2.1,0.5-2.9s0.9-1.5,1.6-2c0.7-0.5,1.6-0.7,2.7-0.7
			c1.1,0,2,0.2,2.7,0.7s1.2,1.1,1.6,2s0.5,1.8,0.5,2.9s-0.2,2.1-0.5,2.9s-0.9,1.5-1.6,2c-0.7,0.5-1.6,0.7-2.7,0.7
			C44.7,403.4,43.8,403.1,43.1,402.6z M42.7,400.3c0.2,0.7,0.6,1.2,1.1,1.5s1.1,0.5,1.9,0.5c0.8,0,1.4-0.2,1.9-0.5s0.9-0.8,1.1-1.5
			c0.2-0.7,0.4-1.5,0.4-2.5s-0.1-1.9-0.4-2.5c-0.2-0.7-0.6-1.2-1.1-1.5s-1.1-0.5-1.9-0.5c-0.8,0-1.4,0.2-1.9,0.5s-0.9,0.8-1.1,1.5
			c-0.2,0.7-0.4,1.5-0.4,2.5C42.4,398.8,42.5,399.6,42.7,400.3z"/>
	</g>
</g>
<g>
	<g class="st3">
		<path d="M23.4,351.4h2.5v-8.5h-2.5v-1.1h2.3c0.5,0,0.9,0.1,1.2,0.3c0.2,0.2,0.3,0.6,0.3,1v8.2h2.3v1.1h-6.1
			C23.4,352.4,23.4,351.4,23.4,351.4z"/>
		<path d="M31,351.4l5.3-4.4c0.5-0.4,0.9-0.8,1.1-1.2s0.3-0.8,0.3-1.2c0-0.6-0.2-1-0.6-1.4s-0.9-0.5-1.7-0.5c-0.7,0-1.3,0.1-1.7,0.4
			s-0.8,0.6-1,1.2c-0.2,0.5-0.3,1.1-0.3,1.9H31c0-0.9,0.2-1.6,0.5-2.3c0.3-0.7,0.8-1.2,1.4-1.6c0.6-0.4,1.5-0.6,2.5-0.6
			c0.9,0,1.6,0.1,2.1,0.4s0.9,0.6,1.2,1.1c0.2,0.4,0.4,1,0.4,1.5c0,0.7-0.2,1.3-0.6,1.9s-1,1.2-2,2l-3.6,3h6.4v1.1H31V351.4z"/>
		<path d="M42.9,352c-0.7-0.5-1.2-1.1-1.6-2c-0.3-0.8-0.5-1.8-0.5-2.9s0.2-2.1,0.5-2.9s0.9-1.5,1.6-2s1.6-0.7,2.7-0.7
			c1.1,0,2,0.2,2.7,0.7s1.2,1.1,1.6,2c0.3,0.8,0.5,1.8,0.5,2.9s-0.2,2.1-0.5,2.9s-0.9,1.5-1.6,2c-0.7,0.5-1.6,0.7-2.7,0.7
			C44.6,352.8,43.7,352.5,42.9,352z M42.6,349.7c0.2,0.7,0.6,1.2,1.1,1.5s1.1,0.5,1.9,0.5c0.8,0,1.4-0.2,1.9-0.5s0.9-0.8,1.1-1.5
			c0.2-0.7,0.4-1.5,0.4-2.5s-0.1-1.9-0.4-2.5c-0.2-0.7-0.6-1.2-1.1-1.5s-1.1-0.5-1.9-0.5c-0.8,0-1.4,0.2-1.9,0.5s-0.9,0.8-1.1,1.5
			s-0.4,1.5-0.4,2.5C42.2,348.2,42.4,349,42.6,349.7z"/>
	</g>
</g>
<g>
	<g class="st3">
		<path d="M24.4,298.8h2.5v-8.5h-2.5v-1.1h2.3c0.5,0,0.9,0.1,1.2,0.3c0.2,0.2,0.3,0.6,0.3,1v8.2h2.3v1.1h-6.1
			C24.4,299.8,24.4,298.8,24.4,298.8z"/>
		<path d="M37.3,297.2h-5.8v-1.1l5.1-6.9H38l-5.1,6.9h4.5v-6.9h1.3v6.9h1.8v1.1h-1.8v2.7h-1.3v-2.7H37.3z"/>
		<path d="M43.7,299.5c-0.7-0.5-1.2-1.1-1.6-2c-0.3-0.8-0.5-1.8-0.5-2.9s0.2-2.1,0.5-2.9s0.9-1.5,1.6-2s1.6-0.7,2.7-0.7
			c1.1,0,2,0.2,2.7,0.7s1.2,1.1,1.6,2s0.5,1.8,0.5,2.9s-0.2,2.1-0.5,2.9s-0.9,1.5-1.6,2c-0.7,0.5-1.6,0.7-2.7,0.7
			S44.4,299.9,43.7,299.5z M43.4,297.1c0.2,0.7,0.6,1.2,1.1,1.5s1.1,0.5,1.9,0.5s1.4-0.2,1.9-0.5s0.9-0.8,1.1-1.5
			c0.2-0.7,0.4-1.5,0.4-2.5s-0.1-1.9-0.4-2.5s-0.6-1.2-1.1-1.5s-1.1-0.5-1.9-0.5s-1.4,0.2-1.9,0.5s-0.9,0.8-1.1,1.5
			s-0.4,1.5-0.4,2.5S43.1,296.4,43.4,297.1z"/>
	</g>
</g>
<g>
	<g class="st3">
		<path d="M23.8,248.2h2.5v-8.5h-2.5v-1.1h2.3c0.5,0,0.9,0.1,1.2,0.3c0.2,0.2,0.3,0.6,0.3,1v8.2h2.3v1.1h-6.1
			C23.8,249.2,23.8,248.2,23.8,248.2z"/>
		<path d="M33.1,249c-0.6-0.4-1.1-0.9-1.5-1.8c-0.4-0.8-0.5-1.9-0.5-3.1c0-1.2,0.2-2.2,0.5-3.1c0.3-0.9,0.9-1.5,1.5-2
			s1.5-0.7,2.5-0.7c0.8,0,1.5,0.1,2,0.4c0.5,0.2,0.9,0.6,1.2,1s0.5,1,0.6,1.6h-1.3c-0.1-0.4-0.2-0.7-0.4-1s-0.5-0.5-0.8-0.7
			s-0.8-0.2-1.3-0.2c-1.1,0-1.9,0.4-2.5,1.2c-0.5,0.8-0.8,2-0.8,3.8v1l-0.3-0.2c0.2-0.8,0.6-1.4,1.3-1.9s1.4-0.7,2.4-0.7
			c0.7,0,1.3,0.1,1.9,0.4s1,0.6,1.3,1.1s0.5,1.1,0.5,1.8s-0.2,1.3-0.5,1.8s-0.8,1-1.4,1.3c-0.6,0.3-1.3,0.5-2.2,0.5
			C34.5,249.6,33.7,249.4,33.1,249z M37.4,247.8c0.4-0.4,0.7-1,0.7-1.8s-0.2-1.4-0.7-1.8c-0.4-0.4-1.1-0.7-1.9-0.7
			c-0.6,0-1,0.1-1.5,0.3c-0.4,0.2-0.8,0.5-1,0.8c-0.2,0.4-0.4,0.8-0.4,1.3c0,0.7,0.2,1.3,0.7,1.8s1.1,0.7,2,0.7
			C36.2,248.5,36.9,248.2,37.4,247.8z"/>
		<path d="M43.1,248.9c-0.7-0.5-1.2-1.1-1.6-2c-0.3-0.8-0.5-1.8-0.5-2.9s0.2-2.1,0.5-2.9c0.3-0.8,0.9-1.5,1.6-2s1.6-0.7,2.7-0.7
			c1.1,0,2,0.2,2.7,0.7s1.2,1.1,1.6,2c0.3,0.8,0.5,1.8,0.5,2.9s-0.2,2.1-0.5,2.9c-0.3,0.8-0.9,1.5-1.6,2c-0.7,0.5-1.6,0.7-2.7,0.7
			C44.7,249.6,43.8,249.3,43.1,248.9z M42.8,246.5c0.2,0.7,0.6,1.2,1.1,1.5s1.1,0.5,1.9,0.5c0.8,0,1.4-0.2,1.9-0.5s0.9-0.8,1.1-1.5
			c0.2-0.7,0.4-1.5,0.4-2.5s-0.1-1.9-0.4-2.5c-0.2-0.7-0.6-1.2-1.1-1.5s-1.1-0.5-1.9-0.5c-0.8,0-1.4,0.2-1.9,0.5s-0.9,0.8-1.1,1.5
			s-0.4,1.5-0.4,2.5C42.4,245,42.5,245.8,42.8,246.5z"/>
	</g>
</g>
<g>
	<g class="st3">
		<path d="M23.3,195.6h2.5v-8.5h-2.5V186h2.3c0.5,0,0.9,0.1,1.2,0.3c0.2,0.2,0.3,0.6,0.3,1v8.2h2.3v1.1h-6.1
			C23.3,196.6,23.3,195.6,23.3,195.6z"/>
		<path d="M32.5,196.5c-0.6-0.3-1.1-0.7-1.4-1.1c-0.3-0.5-0.4-1-0.4-1.5c0-0.7,0.2-1.2,0.6-1.7s0.9-0.8,1.6-1c-0.6-0.2-1-0.5-1.4-1
			c-0.3-0.4-0.5-0.9-0.5-1.5c0-0.5,0.1-1,0.4-1.4s0.7-0.8,1.3-1c0.6-0.3,1.3-0.4,2.2-0.4s1.6,0.1,2.2,0.4c0.6,0.3,1,0.6,1.3,1
			s0.4,0.9,0.4,1.4c0,0.6-0.2,1.1-0.5,1.5s-0.8,0.8-1.4,1c0.5,0.1,0.8,0.4,1.2,0.6s0.6,0.6,0.7,0.9c0.2,0.4,0.2,0.8,0.2,1.2
			c0,0.6-0.1,1.1-0.4,1.5c-0.3,0.5-0.7,0.8-1.4,1.1s-1.4,0.4-2.4,0.4S33.1,196.8,32.5,196.5z M36.4,195.6c0.4-0.2,0.7-0.4,0.9-0.7
			s0.3-0.7,0.3-1.1c0-0.7-0.2-1.2-0.7-1.6s-1.2-0.6-2.1-0.6c-0.6,0-1.1,0.1-1.6,0.3c-0.4,0.2-0.7,0.4-0.9,0.7s-0.3,0.7-0.3,1.1
			c0,0.6,0.2,1.1,0.7,1.5s1.2,0.6,2.1,0.6C35.5,195.9,36,195.8,36.4,195.6z M36.3,190.4c0.4-0.2,0.7-0.4,0.8-0.7
			c0.2-0.3,0.3-0.6,0.3-1c0-0.6-0.2-1-0.6-1.4s-1.1-0.5-2-0.5c-0.6,0-1.1,0.1-1.5,0.2c-0.4,0.2-0.7,0.4-0.9,0.7s-0.3,0.6-0.3,1
			s0.1,0.7,0.3,1s0.5,0.5,0.8,0.7c0.4,0.2,0.9,0.3,1.5,0.3C35.4,190.7,35.9,190.6,36.3,190.4z"/>
		<path d="M42.6,196.3c-0.7-0.5-1.2-1.1-1.6-2c-0.3-0.8-0.5-1.8-0.5-2.9s0.2-2.1,0.5-2.9c0.3-0.8,0.9-1.5,1.6-2
			c0.7-0.5,1.6-0.7,2.7-0.7c1.1,0,2,0.2,2.7,0.7s1.2,1.1,1.6,2c0.3,0.8,0.5,1.8,0.5,2.9s-0.2,2.1-0.5,2.9c-0.3,0.8-0.9,1.5-1.6,2
			c-0.7,0.5-1.6,0.7-2.7,0.7C44.2,197,43.3,196.7,42.6,196.3z M42.3,193.9c0.2,0.7,0.6,1.2,1.1,1.5s1.1,0.5,1.9,0.5
			c0.8,0,1.4-0.2,1.9-0.5s0.9-0.8,1.1-1.5c0.2-0.7,0.4-1.5,0.4-2.5s-0.1-1.9-0.4-2.5s-0.6-1.2-1.1-1.5s-1.1-0.5-1.9-0.5
			c-0.8,0-1.4,0.2-1.9,0.5s-0.9,0.8-1.1,1.5c-0.2,0.7-0.4,1.5-0.4,2.5C41.9,192.4,42,193.2,42.3,193.9z"/>
	</g>
</g>
<g>
	<g class="st3">
		<path d="M19.7,144l5.3-4.4c0.5-0.4,0.9-0.8,1.1-1.2c0.2-0.3,0.3-0.8,0.3-1.2c0-0.6-0.2-1-0.6-1.4c-0.4-0.3-0.9-0.5-1.7-0.5
			c-0.7,0-1.3,0.1-1.7,0.4c-0.4,0.3-0.8,0.6-1,1.2c-0.2,0.5-0.3,1.1-0.3,1.9h-1.4c0-0.9,0.2-1.6,0.5-2.3s0.8-1.2,1.4-1.6
			c0.6-0.4,1.5-0.6,2.5-0.6c0.9,0,1.6,0.1,2.1,0.4c0.5,0.3,0.9,0.6,1.2,1.1c0.3,0.4,0.4,1,0.4,1.5c0,0.7-0.2,1.3-0.6,1.9
			c-0.4,0.6-1,1.2-2,2l-3.6,3H28v1.1h-8.3V144z"/>
		<path d="M31.6,144.7c-0.7-0.5-1.2-1.1-1.6-2c-0.3-0.8-0.5-1.8-0.5-2.9s0.2-2.1,0.5-2.9c0.3-0.8,0.9-1.5,1.6-2
			c0.7-0.5,1.6-0.7,2.7-0.7s2,0.2,2.7,0.7s1.2,1.1,1.6,2c0.3,0.8,0.5,1.8,0.5,2.9s-0.2,2.1-0.5,2.9c-0.3,0.8-0.9,1.5-1.6,2
			c-0.7,0.5-1.6,0.7-2.7,0.7C33.3,145.4,32.4,145.1,31.6,144.7z M31.3,142.3c0.2,0.7,0.6,1.2,1.1,1.5c0.5,0.3,1.1,0.5,1.9,0.5
			c0.8,0,1.4-0.2,1.9-0.5s0.9-0.8,1.1-1.5c0.2-0.7,0.4-1.5,0.4-2.5s-0.1-1.9-0.4-2.5s-0.6-1.2-1.1-1.5s-1.1-0.5-1.9-0.5
			c-0.8,0-1.4,0.2-1.9,0.5s-0.9,0.8-1.1,1.5s-0.4,1.5-0.4,2.5C30.9,140.8,31.1,141.6,31.3,142.3z"/>
		<path d="M42.7,144.7c-0.7-0.5-1.2-1.1-1.6-2c-0.3-0.8-0.5-1.8-0.5-2.9s0.2-2.1,0.5-2.9c0.3-0.8,0.9-1.5,1.6-2s1.6-0.7,2.7-0.7
			c1.1,0,2,0.2,2.7,0.7s1.2,1.1,1.6,2s0.5,1.8,0.5,2.9s-0.2,2.1-0.5,2.9s-0.9,1.5-1.6,2c-0.7,0.5-1.6,0.7-2.7,0.7
			S43.4,145.1,42.7,144.7z M42.4,142.3c0.2,0.7,0.6,1.2,1.1,1.5s1.1,0.5,1.9,0.5s1.4-0.2,1.9-0.5s0.9-0.8,1.1-1.5
			c0.2-0.7,0.4-1.5,0.4-2.5s-0.1-1.9-0.4-2.5s-0.6-1.2-1.1-1.5s-1.1-0.5-1.9-0.5s-1.4,0.2-1.9,0.5s-0.9,0.8-1.1,1.5
			s-0.4,1.5-0.4,2.5S42.1,141.6,42.4,142.3z"/>
	</g>
</g>
<g>
	<g class="st3">
		<path d="M20.7,93.4L26,89c0.5-0.4,0.9-0.8,1.1-1.2s0.3-0.8,0.3-1.2c0-0.6-0.2-1-0.6-1.4c-0.4-0.3-0.9-0.5-1.7-0.5
			c-0.7,0-1.3,0.1-1.7,0.4c-0.4,0.3-0.8,0.6-1,1.2c-0.2,0.5-0.3,1.1-0.3,1.9h-1.4c0-0.9,0.2-1.6,0.5-2.3s0.8-1.2,1.4-1.6
			s1.5-0.6,2.5-0.6c0.9,0,1.6,0.1,2.1,0.4s0.9,0.6,1.2,1.1c0.2,0.4,0.4,1,0.4,1.5c0,0.7-0.2,1.3-0.6,1.9s-1,1.2-2,2l-3.6,3H29v1.1
			h-8.3C20.7,94.7,20.7,93.4,20.7,93.4z"/>
		<path d="M30.8,93.4l5.3-4.4c0.5-0.4,0.9-0.8,1.1-1.2c0.2-0.3,0.3-0.8,0.3-1.2c0-0.6-0.2-1-0.6-1.4s-0.9-0.5-1.7-0.5
			c-0.7,0-1.3,0.1-1.7,0.4s-0.8,0.6-1,1.2c-0.2,0.5-0.3,1.1-0.3,1.9h-1.4c0-0.9,0.2-1.6,0.5-2.3c0.3-0.7,0.8-1.2,1.4-1.6
			s1.5-0.6,2.5-0.6c0.9,0,1.6,0.1,2.1,0.4s0.9,0.6,1.2,1.1c0.3,0.4,0.4,1,0.4,1.5c0,0.7-0.2,1.3-0.6,1.9c-0.4,0.6-1,1.2-2,2l-3.6,3
			h6.4v1.1h-8.3C30.8,94.7,30.8,93.4,30.8,93.4z"/>
		<path d="M42.8,94.1c-0.7-0.5-1.2-1.1-1.6-2c-0.3-0.8-0.5-1.8-0.5-2.9s0.2-2.1,0.5-2.9s0.9-1.5,1.6-2c0.7-0.5,1.6-0.7,2.7-0.7
			c1.1,0,2,0.2,2.7,0.7s1.2,1.1,1.6,2c0.3,0.8,0.5,1.8,0.5,2.9s-0.2,2.1-0.5,2.9s-0.9,1.5-1.6,2c-0.7,0.5-1.6,0.7-2.7,0.7
			C44.4,94.8,43.5,94.5,42.8,94.1z M42.4,91.7c0.2,0.7,0.6,1.2,1.1,1.5s1.1,0.5,1.9,0.5c0.8,0,1.4-0.2,1.9-0.5s0.9-0.8,1.1-1.5
			c0.2-0.7,0.4-1.5,0.4-2.5s-0.1-1.9-0.4-2.5s-0.6-1.2-1.1-1.5s-1.1-0.5-1.9-0.5c-0.8,0-1.4,0.2-1.9,0.5s-0.9,0.8-1.1,1.5
			c-0.2,0.7-0.4,1.5-0.4,2.5S42.2,91,42.4,91.7z"/>
	</g>
</g>
<g transform="translate(-408,-220)">
	<g>
		<g>
			<g class="st3">
				<path d="M435.7,247.2l-1-2.7h-5.3l-1,2.7H427l4-10.6h2l4,10.6H435.7z M429.8,243.5h4.5l-2.2-5.9L429.8,243.5z"/>
				<path d="M438.5,236h1.3v11.2h-1.3V236z"/>
				<path d="M443.3,247c-0.3-0.1-0.5-0.3-0.6-0.6s-0.2-0.6-0.2-1.1v-5.1H441v-0.7l1.6-0.4l0.5-1.7h0.7v1.8h2.6v1h-2.6v6h2.5v1h-1.9
					C443.9,247.2,443.5,247.2,443.3,247z"/>
				<path d="M449.2,246.9c-0.6-0.4-1-0.9-1.3-1.5s-0.4-1.4-0.4-2.2s0.1-1.5,0.4-2.2c0.3-0.6,0.7-1.1,1.3-1.5
					c0.6-0.4,1.3-0.6,2.2-0.6c0.8,0,1.5,0.2,2,0.5s1,0.8,1.3,1.4c0.3,0.6,0.4,1.3,0.4,2.1v0.2c0,0.1,0,0.2,0,0.3h-6.7v-1h6l-0.6,0.6
					c0-0.7,0-1.3-0.2-1.8s-0.5-0.8-0.8-1c-0.4-0.2-0.9-0.3-1.4-0.3c-0.6,0-1.1,0.1-1.5,0.3s-0.7,0.6-0.9,1.1
					c-0.2,0.5-0.3,1.1-0.3,1.9s0.1,1.4,0.3,1.9c0.2,0.5,0.5,0.8,0.9,1.1c0.4,0.2,0.9,0.3,1.5,0.3c0.5,0,0.9-0.1,1.3-0.2
					c0.3-0.1,0.6-0.3,0.8-0.6c0.2-0.3,0.3-0.6,0.4-0.9h1.2c-0.1,0.5-0.2,0.9-0.5,1.3c-0.3,0.4-0.7,0.8-1.2,1
					c-0.5,0.3-1.2,0.4-2.1,0.4C450.5,247.5,449.8,247.3,449.2,246.9z"/>
				<path d="M456.4,239.2h7v1h-7V239.2z M456.4,246.3l5.7-6.4l1.2,0.3l-5.9,6.6L456.4,246.3z M456.4,246.3h7v1h-7V246.3z"/>
				<path d="M464.9,239.2h7v1h-7V239.2z M464.9,246.3l5.7-6.4l1.2,0.3l-5.9,6.6L464.9,246.3z M464.9,246.3h7v1h-7V246.3z"/>
				<path d="M474.5,247.2c-0.4-0.2-0.7-0.4-0.9-0.8s-0.3-0.8-0.3-1.3c0-0.4,0.1-0.8,0.2-1.1c0.2-0.3,0.4-0.6,0.8-0.8
					s0.8-0.4,1.4-0.5l2-0.3c0.4-0.1,0.7-0.2,0.9-0.3c0.2-0.1,0.3-0.4,0.3-0.7s-0.1-0.6-0.2-0.8s-0.3-0.4-0.6-0.5
					c-0.3-0.1-0.7-0.2-1.2-0.2c-0.7,0-1.3,0.2-1.6,0.5s-0.5,0.7-0.6,1.3h-1.3c0-0.6,0.2-1.1,0.4-1.5c0.3-0.4,0.7-0.7,1.2-1
					c0.5-0.2,1.1-0.3,1.9-0.3c0.7,0,1.3,0.1,1.8,0.3s0.8,0.5,1.1,0.9c0.2,0.4,0.3,0.8,0.3,1.3v3.8c0,0.3,0,0.6,0,0.9s0,0.7,0.1,1
					H479c0-0.3-0.1-0.7-0.1-1s0-0.6,0-0.9c-0.1,0.4-0.3,0.7-0.5,1s-0.6,0.6-1,0.8s-0.9,0.3-1.5,0.3
					C475.4,247.5,474.9,247.4,474.5,247.2z M477.7,246c0.4-0.3,0.7-0.6,0.9-1.1c0.2-0.5,0.3-0.9,0.3-1.5v-0.7
					c-0.2,0.1-0.3,0.2-0.5,0.3s-0.4,0.1-0.7,0.2h-0.2l-1.3,0.3c-0.6,0.1-1,0.3-1.2,0.5c-0.3,0.2-0.4,0.6-0.4,1s0.1,0.8,0.4,1
					s0.7,0.4,1.2,0.4C476.8,246.4,477.3,246.3,477.7,246z"/>
				<path d="M485.5,236.6h5.8v1.1h-5.8V236.6z M485.5,246.2h5.8v1.1h-5.8V246.2z M487.7,237.1h1.3v9.6h-1.3V237.1z"/>
				<path d="M499,240.1c0.6,0.8,0.9,1.8,0.9,3.1c0,0.9-0.1,1.6-0.4,2.3c-0.3,0.6-0.7,1.1-1.2,1.5c-0.5,0.3-1.2,0.5-1.9,0.5
					c-0.8,0-1.5-0.2-2-0.5c-0.5-0.4-1-0.9-1.2-1.5s-0.4-1.4-0.4-2.2s0.1-1.6,0.4-2.2c0.3-0.6,0.7-1.1,1.2-1.5s1.2-0.5,2-0.5
					C497.6,239,498.4,239.4,499,240.1z M495.2,240.4c-0.4,0.2-0.7,0.6-0.9,1.1c-0.2,0.5-0.3,1.1-0.3,1.8s0.1,1.3,0.3,1.8
					c0.2,0.5,0.5,0.8,0.9,1.1c0.4,0.2,0.9,0.4,1.5,0.4s1.1-0.1,1.5-0.3s0.7-0.6,1-1.1s0.3-1.1,0.3-1.8s-0.1-1.3-0.3-1.8
					c-0.2-0.5-0.5-0.8-1-1.1s-0.9-0.3-1.5-0.3C496.1,240,495.6,240.1,495.2,240.4z M500.7,247.2h-1.3v-1.9v-0.2V236h1.3V247.2z"/>
				<path d="M503,239.2h1.3v2.5v0.3v5.2H503V239.2z M504.2,241.6c0.2-0.8,0.6-1.4,1.1-1.8s1.1-0.7,1.9-0.7h0.3v1.3h-0.4
					c-0.8,0-1.3,0.1-1.8,0.5s-0.7,0.8-0.9,1.3c-0.2,0.6-0.2,1.3-0.2,2.1h-0.4C503.9,243.3,504,242.4,504.2,241.6z"/>
				<path d="M510.2,246.9c-0.6-0.4-1.1-0.9-1.4-1.5s-0.5-1.4-0.5-2.2s0.2-1.5,0.5-2.2c0.3-0.6,0.8-1.1,1.4-1.5s1.3-0.6,2.2-0.6
					s1.6,0.2,2.2,0.6c0.6,0.4,1.1,0.9,1.4,1.5c0.3,0.6,0.4,1.4,0.4,2.2s-0.1,1.6-0.4,2.2c-0.3,0.6-0.8,1.1-1.4,1.5
					c-0.6,0.4-1.3,0.6-2.2,0.6C511.6,247.5,510.8,247.3,510.2,246.9z M510,245.1c0.2,0.5,0.5,0.8,0.9,1.1s0.9,0.3,1.5,0.3
					c0.6,0,1.1-0.1,1.5-0.3s0.7-0.6,0.9-1.1s0.3-1.1,0.3-1.8s-0.1-1.4-0.3-1.8c-0.2-0.5-0.5-0.8-0.9-1s-0.9-0.3-1.5-0.3
					c-0.6,0-1.1,0.1-1.5,0.3s-0.7,0.6-0.9,1s-0.3,1.1-0.3,1.8C509.7,244,509.8,244.6,510,245.1z"/>
				<path d="M518.2,239.2h1.3v8h-1.3V239.2z M523.6,241c-0.1-0.3-0.3-0.6-0.6-0.7c-0.3-0.1-0.6-0.2-1-0.2c-0.6,0-1,0.2-1.4,0.5
					s-0.6,0.8-0.8,1.4c-0.2,0.6-0.3,1.4-0.3,2.3H519V244c0-1,0.1-1.9,0.4-2.6c0.2-0.7,0.6-1.3,1.1-1.7s1.1-0.6,1.9-0.6
					c0.6,0,1.1,0.1,1.5,0.4c0.4,0.2,0.7,0.6,0.9,1s0.3,1,0.3,1.7v5.2h-1.3v-5C523.8,241.7,523.7,241.3,523.6,241z M529.2,241
					c-0.1-0.3-0.3-0.6-0.6-0.7c-0.3-0.1-0.6-0.2-1-0.2c-0.6,0-1.1,0.2-1.4,0.5c-0.4,0.3-0.6,0.8-0.8,1.4c-0.2,0.6-0.3,1.4-0.3,2.3
					h-0.5c0-1.1,0.1-2,0.3-2.8s0.6-1.4,1.1-1.8s1.2-0.6,2-0.6c0.6,0,1.1,0.1,1.5,0.4c0.4,0.2,0.7,0.6,0.9,1c0.2,0.5,0.3,1,0.3,1.7
					v5.2h-1.3v-5C529.4,241.7,529.3,241.3,529.2,241z"/>
				<path d="M534,246.9c-0.6-0.4-1-0.9-1.3-1.5s-0.4-1.4-0.4-2.2s0.1-1.5,0.4-2.2c0.3-0.6,0.7-1.1,1.3-1.5s1.3-0.6,2.2-0.6
					c0.8,0,1.5,0.2,2,0.5s1,0.8,1.3,1.4s0.4,1.3,0.4,2.1v0.2c0,0.1,0,0.2,0,0.3h-6.7v-1h6l-0.6,0.6c0-0.7,0-1.3-0.2-1.8
					s-0.5-0.8-0.8-1c-0.4-0.2-0.9-0.3-1.4-0.3c-0.6,0-1.1,0.1-1.5,0.3s-0.7,0.6-0.9,1.1s-0.3,1.1-0.3,1.9s0.1,1.4,0.3,1.9
					s0.5,0.8,0.9,1.1c0.4,0.2,0.9,0.3,1.5,0.3c0.5,0,0.9-0.1,1.3-0.2c0.3-0.1,0.6-0.3,0.8-0.6s0.3-0.6,0.4-0.9h1.2
					c-0.1,0.5-0.2,0.9-0.5,1.3c-0.3,0.4-0.7,0.8-1.2,1c-0.5,0.3-1.2,0.4-2.1,0.4C535.3,247.5,534.6,247.3,534,246.9z"/>
				<path d="M542.8,247c-0.3-0.1-0.5-0.3-0.6-0.6s-0.2-0.6-0.2-1.1v-5.1h-1.5v-0.7l1.6-0.4l0.5-1.7h0.7v1.8h2.6v1h-2.6v6h2.5v1h-1.9
					C543.4,247.2,543,247.2,542.8,247z"/>
				<path d="M547.6,239.2h1.3v2.5v0.3v5.2h-1.3V239.2z M548.7,241.6c0.2-0.8,0.6-1.4,1.1-1.8s1.1-0.7,1.9-0.7h0.3v1.3h-0.4
					c-0.8,0-1.3,0.1-1.8,0.5s-0.7,0.8-0.9,1.3c-0.2,0.6-0.2,1.3-0.2,2.1h-0.4C548.4,243.3,548.5,242.4,548.7,241.6z"/>
				<path d="M553.2,236.6h1.6v1.3h-1.6V236.6z M553.4,239.2h1.3v8h-1.3V239.2z"/>
				<path d="M556.8,241c0.3-0.6,0.8-1.1,1.4-1.5s1.3-0.5,2.2-0.5c0.8,0,1.4,0.1,2,0.4c0.5,0.3,1,0.6,1.2,1.1c0.3,0.5,0.5,1,0.5,1.7
					h-1.2c-0.1-0.4-0.2-0.8-0.4-1.2c-0.2-0.3-0.5-0.6-0.8-0.7s-0.8-0.3-1.3-0.3c-0.6,0-1.1,0.1-1.5,0.3s-0.7,0.6-0.9,1
					s-0.3,1.1-0.3,1.8c0,0.8,0.1,1.4,0.3,1.8c0.2,0.5,0.5,0.8,0.9,1s0.9,0.3,1.5,0.3c0.8,0,1.4-0.2,1.8-0.6c0.4-0.4,0.7-1,0.8-1.7
					h1.2c0,0.6-0.2,1.2-0.5,1.7s-0.7,0.9-1.3,1.2s-1.2,0.4-2,0.4c-0.9,0-1.6-0.2-2.2-0.5c-0.6-0.4-1.1-0.9-1.4-1.5
					c-0.3-0.6-0.5-1.4-0.5-2.2S556.5,241.7,556.8,241z"/>
				<path d="M566.5,247.2c-0.4-0.2-0.7-0.4-0.9-0.8s-0.3-0.8-0.3-1.3c0-0.4,0.1-0.8,0.2-1.1c0.2-0.3,0.4-0.6,0.8-0.8
					s0.8-0.4,1.4-0.5l2-0.3c0.4-0.1,0.7-0.2,0.9-0.3s0.3-0.4,0.3-0.7s-0.1-0.6-0.2-0.8c-0.1-0.2-0.3-0.4-0.6-0.5s-0.7-0.2-1.2-0.2
					c-0.7,0-1.3,0.2-1.6,0.5s-0.5,0.7-0.6,1.3h-1.3c0-0.6,0.2-1.1,0.4-1.5c0.3-0.4,0.7-0.7,1.2-1c0.5-0.2,1.1-0.3,1.9-0.3
					c0.7,0,1.3,0.1,1.8,0.3s0.8,0.5,1.1,0.9c0.2,0.4,0.3,0.8,0.3,1.3v3.8c0,0.3,0,0.6,0,0.9s0,0.7,0.1,1H571c0-0.3-0.1-0.7-0.1-1
					s0-0.6,0-0.9c-0.1,0.4-0.3,0.7-0.5,1s-0.6,0.6-1,0.8s-0.9,0.3-1.5,0.3C567.3,247.5,566.9,247.4,566.5,247.2z M569.6,246
					c0.4-0.3,0.7-0.6,0.9-1.1s0.3-0.9,0.3-1.5v-0.7c-0.2,0.1-0.3,0.2-0.5,0.3s-0.4,0.1-0.7,0.2h-0.2l-1.3,0.3
					c-0.6,0.1-1,0.3-1.2,0.5c-0.3,0.2-0.4,0.6-0.4,1s0.1,0.8,0.4,1c0.3,0.2,0.7,0.4,1.2,0.4C568.7,246.4,569.2,246.3,569.6,246z"/>
				<path d="M427.9,260.2c0.3-0.6,0.8-1.1,1.4-1.5s1.3-0.5,2.2-0.5c0.8,0,1.4,0.1,2,0.4c0.5,0.3,1,0.6,1.2,1.1
					c0.3,0.5,0.5,1,0.5,1.7H434c-0.1-0.4-0.2-0.8-0.4-1.2c-0.2-0.3-0.5-0.6-0.8-0.7s-0.8-0.3-1.3-0.3c-0.6,0-1.1,0.1-1.5,0.3
					c-0.4,0.2-0.7,0.6-0.9,1s-0.3,1.1-0.3,1.8c0,0.8,0.1,1.4,0.3,1.8c0.2,0.5,0.5,0.8,0.9,1s0.9,0.3,1.5,0.3c0.8,0,1.4-0.2,1.8-0.6
					s0.7-1,0.8-1.7h1.2c0,0.6-0.2,1.2-0.5,1.7s-0.7,0.9-1.3,1.2c-0.6,0.3-1.2,0.4-2,0.4c-0.9,0-1.6-0.2-2.2-0.5
					c-0.6-0.4-1.1-0.9-1.4-1.5s-0.5-1.4-0.5-2.2S427.6,260.9,427.9,260.2z"/>
				<path d="M436.8,258.4h1.3v8h-1.3V258.4z M442.2,260.2c-0.1-0.3-0.3-0.6-0.6-0.7c-0.3-0.1-0.6-0.2-1-0.2c-0.6,0-1,0.2-1.4,0.5
					s-0.6,0.8-0.8,1.4c-0.2,0.6-0.3,1.4-0.3,2.3h-0.4v-0.3c0-1,0.1-1.9,0.4-2.6c0.2-0.7,0.6-1.3,1.1-1.7c0.5-0.4,1.1-0.6,1.9-0.6
					c0.6,0,1.1,0.1,1.5,0.4c0.4,0.2,0.7,0.6,0.9,1s0.3,1,0.3,1.7v5.2h-1.3v-5C442.4,260.9,442.4,260.5,442.2,260.2z M447.8,260.2
					c-0.1-0.3-0.3-0.6-0.6-0.7c-0.3-0.1-0.6-0.2-1-0.2c-0.6,0-1.1,0.2-1.4,0.5c-0.4,0.3-0.6,0.8-0.8,1.4c-0.2,0.6-0.3,1.4-0.3,2.3
					h-0.5c0-1.1,0.1-2,0.3-2.8c0.2-0.8,0.6-1.4,1.1-1.8s1.2-0.6,2-0.6c0.6,0,1.1,0.1,1.5,0.4c0.4,0.2,0.7,0.6,0.9,1
					c0.2,0.5,0.3,1,0.3,1.7v5.2H448v-5C448,260.9,448,260.5,447.8,260.2z"/>
			</g>
		</g>
	</g>
</g>
<g>
	<g>
		<path d="M50.9,682.2c-0.6-0.3-1-0.8-1.3-1.5c-0.3-0.6-0.4-1.4-0.4-2.3c0-1.3,0.3-2.4,1-3.1c0.7-0.8,1.6-1.1,2.9-1.1
			c1.2,0,2.1,0.4,2.8,1.1s0.9,1.8,0.9,3.2c0,1-0.1,1.7-0.4,2.4c-0.3,0.6-0.7,1.1-1.2,1.4c-0.5,0.3-1.2,0.5-2.1,0.5
			C52.2,682.7,51.5,682.6,50.9,682.2z M51.3,686.1c-0.6-0.2-1-0.6-1.4-1c-0.3-0.5-0.5-1-0.6-1.6h1.3c0,0.4,0.1,0.7,0.3,1
			c0.2,0.3,0.5,0.5,0.9,0.7s0.9,0.2,1.5,0.2c0.7,0,1.2-0.1,1.6-0.3c0.4-0.2,0.7-0.4,0.9-0.8c0.2-0.4,0.3-0.9,0.3-1.5v-8.5h1.4v8.5
			c0,0.8-0.1,1.4-0.4,2c-0.3,0.5-0.7,0.9-1.3,1.2c-0.6,0.3-1.4,0.4-2.4,0.4C52.5,686.5,51.8,686.4,51.3,686.1z M54.9,681.3
			c0.4-0.2,0.7-0.6,1-1c0.2-0.5,0.3-1.1,0.3-1.8c0-0.7-0.1-1.4-0.3-1.8c-0.2-0.5-0.5-0.8-1-1c-0.4-0.2-0.9-0.3-1.6-0.3
			c-0.7,0-1.2,0.1-1.6,0.3c-0.4,0.2-0.7,0.6-0.9,1c-0.2,0.5-0.3,1.1-0.3,1.8c0,0.8,0.1,1.4,0.3,1.9c0.2,0.5,0.5,0.8,0.9,1
			c0.4,0.2,0.9,0.3,1.6,0.3C54,681.7,54.5,681.6,54.9,681.3z"/>
		<path d="M61.2,682.6c-0.6-0.4-1.1-0.9-1.4-1.6c-0.3-0.7-0.5-1.5-0.5-2.3c0-0.9,0.2-1.6,0.5-2.3s0.8-1.2,1.4-1.6
			c0.6-0.4,1.4-0.6,2.3-0.6c0.8,0,1.6,0.2,2.2,0.5c0.6,0.4,1.1,0.9,1.4,1.5s0.5,1.4,0.5,2.2v0.2c0,0.1,0,0.2,0,0.4h-7.1v-1h6.4
			l-0.6,0.6c0-0.8,0-1.4-0.2-1.9c-0.2-0.5-0.5-0.9-0.9-1.1c-0.4-0.2-0.9-0.3-1.5-0.3c-0.6,0-1.1,0.1-1.6,0.3c-0.4,0.2-0.8,0.6-1,1.1
			s-0.3,1.2-0.3,2s0.1,1.5,0.4,2c0.2,0.5,0.6,0.9,1,1.1c0.4,0.2,1,0.3,1.6,0.3c0.5,0,1-0.1,1.4-0.2c0.4-0.2,0.7-0.4,0.9-0.6
			c0.2-0.3,0.4-0.6,0.5-1h1.2c-0.1,0.5-0.2,0.9-0.5,1.4s-0.7,0.8-1.3,1.1c-0.6,0.3-1.3,0.4-2.2,0.4C62.7,683.2,61.9,683,61.2,682.6z
			"/>
		<path d="M69.3,674.4h1.4v8.5h-1.4V674.4z M70.6,676.8c0.3-0.8,0.7-1.5,1.2-1.9c0.5-0.5,1.2-0.7,2.1-0.7c0.7,0,1.3,0.1,1.7,0.4
			c0.4,0.3,0.8,0.6,1,1.1c0.2,0.5,0.3,1.1,0.3,1.8v5.4h-1.4v-5.3c0-0.6-0.1-1.1-0.2-1.4s-0.4-0.6-0.7-0.7c-0.3-0.1-0.7-0.2-1.1-0.2
			c-0.6,0-1.2,0.2-1.6,0.5s-0.8,0.8-1,1.5c-0.2,0.7-0.3,1.5-0.3,2.4h-0.4C70.2,678.6,70.4,677.6,70.6,676.8z"/>
	</g>
</g>
<g>
	<g>
		<path d="M163.1,682.9c-0.4-0.2-0.7-0.5-1-0.8c-0.2-0.4-0.4-0.8-0.4-1.4c0-0.5,0.1-0.9,0.3-1.2c0.2-0.3,0.5-0.6,0.8-0.8
			s0.9-0.4,1.5-0.5l2.2-0.4c0.5-0.1,0.8-0.2,1-0.3c0.2-0.1,0.3-0.4,0.3-0.7c0-0.3-0.1-0.6-0.2-0.8c-0.1-0.2-0.3-0.4-0.6-0.5
			c-0.3-0.1-0.7-0.2-1.3-0.2c-0.8,0-1.4,0.2-1.7,0.5c-0.4,0.3-0.6,0.8-0.6,1.4h-1.4c0-0.6,0.2-1.1,0.5-1.6c0.3-0.4,0.7-0.8,1.2-1
			c0.5-0.2,1.2-0.4,2-0.4c0.7,0,1.4,0.1,1.9,0.3c0.5,0.2,0.9,0.5,1.1,0.9c0.2,0.4,0.4,0.8,0.4,1.4v4.1c0,0.3,0,0.6,0,1
			c0,0.3,0,0.7,0.1,1.1h-1.2c0-0.4-0.1-0.7-0.1-1s0-0.7,0-1c-0.1,0.4-0.3,0.7-0.6,1.1c-0.3,0.3-0.6,0.6-1,0.8
			c-0.4,0.2-1,0.3-1.6,0.3C164,683.1,163.5,683,163.1,682.9z M166.5,681.6c0.4-0.3,0.8-0.7,1-1.2s0.3-1,0.3-1.6v-0.7
			c-0.2,0.1-0.4,0.2-0.6,0.3s-0.4,0.2-0.7,0.2l-0.2,0.1l-1.4,0.3c-0.6,0.1-1,0.3-1.3,0.6c-0.3,0.2-0.4,0.6-0.4,1
			c0,0.5,0.2,0.8,0.5,1.1c0.3,0.2,0.7,0.4,1.2,0.4C165.5,682.1,166,681.9,166.5,681.6z"/>
		<path d="M171.2,674.4h1.4v1.9v0.3v9.7h-1.4V674.4z M173,682c-0.6-0.8-0.9-1.9-0.9-3.3s0.3-2.5,0.9-3.3s1.6-1.2,2.8-1.2
			c0.9,0,1.6,0.2,2.2,0.6c0.6,0.4,1,0.9,1.3,1.6c0.3,0.7,0.4,1.5,0.4,2.3c0,0.9-0.1,1.7-0.4,2.4c-0.3,0.7-0.7,1.2-1.3,1.6
			c-0.6,0.4-1.3,0.6-2.2,0.6C174.5,683.2,173.6,682.8,173,682z M177.1,681.7c0.4-0.2,0.7-0.6,0.9-1.1c0.2-0.5,0.3-1.1,0.3-1.9
			c0-0.8-0.1-1.4-0.3-1.9c-0.2-0.5-0.5-0.9-0.9-1.1c-0.4-0.3-0.9-0.4-1.6-0.4c-0.6,0-1.1,0.1-1.6,0.4c-0.4,0.2-0.8,0.6-1,1.1
			c-0.2,0.5-0.3,1.1-0.3,1.9s0.1,1.4,0.3,1.9c0.2,0.5,0.6,0.9,1,1.1c0.4,0.2,1,0.4,1.6,0.4C176.1,682.1,176.7,682,177.1,681.7z"/>
		<path d="M181.5,674.4h1.3v2.7l0,0.3v5.6h-1.4V674.4z M182.8,677c0.2-0.8,0.6-1.5,1.2-1.9c0.5-0.5,1.2-0.7,2.1-0.7h0.3v1.3h-0.4
			c-0.8,0-1.4,0.1-1.9,0.5s-0.8,0.8-0.9,1.4c-0.2,0.6-0.2,1.4-0.2,2.2h-0.5C182.4,678.7,182.5,677.8,182.8,677z"/>
	</g>
</g>
<g>
	<g>
		<path d="M274.7,671h1.4v11.9h-1.4V671z"/>
		<path d="M279.7,682.8c-0.5-0.2-0.8-0.6-1-1.1s-0.3-1.1-0.3-1.9v-5.4h1.4v5.3c0,0.6,0.1,1.1,0.2,1.4c0.2,0.3,0.4,0.6,0.7,0.7
			c0.3,0.1,0.7,0.2,1.2,0.2c0.6,0,1.1-0.2,1.5-0.5c0.4-0.3,0.7-0.8,0.9-1.5s0.3-1.5,0.3-2.4h0.4c0,1.1-0.1,2.1-0.4,2.9
			c-0.2,0.8-0.6,1.5-1.2,1.9c-0.5,0.5-1.2,0.7-2.1,0.7C280.7,683.2,280.1,683.1,279.7,682.8z M284.6,680.3v-0.2v-5.7h1.4v8.5h-1.4
			V680.3z"/>
		<path d="M289.5,682.2c-0.6-0.3-1-0.8-1.3-1.5c-0.3-0.6-0.4-1.4-0.4-2.3c0-1.3,0.3-2.4,1-3.1c0.7-0.8,1.6-1.1,2.9-1.1
			c1.2,0,2.1,0.4,2.8,1.1s0.9,1.8,0.9,3.2c0,1-0.1,1.7-0.4,2.4c-0.3,0.6-0.7,1.1-1.2,1.4c-0.5,0.3-1.2,0.5-2.1,0.5
			C290.8,682.7,290.1,682.6,289.5,682.2z M289.9,686.1c-0.6-0.2-1-0.6-1.4-1c-0.3-0.5-0.5-1-0.6-1.6h1.3c0,0.4,0.1,0.7,0.3,1
			c0.2,0.3,0.5,0.5,0.9,0.7s0.9,0.2,1.5,0.2c0.7,0,1.2-0.1,1.6-0.3c0.4-0.2,0.7-0.4,0.9-0.8c0.2-0.4,0.3-0.9,0.3-1.5v-8.5h1.4v8.5
			c0,0.8-0.1,1.4-0.4,2c-0.3,0.5-0.7,0.9-1.3,1.2c-0.6,0.3-1.4,0.4-2.4,0.4C291.2,686.5,290.5,686.4,289.9,686.1z M293.6,681.3
			c0.4-0.2,0.7-0.6,1-1c0.2-0.5,0.3-1.1,0.3-1.8c0-0.7-0.1-1.4-0.3-1.8c-0.2-0.5-0.5-0.8-1-1c-0.4-0.2-0.9-0.3-1.6-0.3
			c-0.7,0-1.2,0.1-1.6,0.3c-0.4,0.2-0.7,0.6-0.9,1c-0.2,0.5-0.3,1.1-0.3,1.8c0,0.8,0.1,1.4,0.3,1.9c0.2,0.5,0.5,0.8,0.9,1
			c0.4,0.2,0.9,0.3,1.6,0.3C292.6,681.7,293.2,681.6,293.6,681.3z"/>
	</g>
</g>
<g>
	<g>
		<path d="M389.9,682.6c-0.6-0.4-1.1-0.9-1.4-1.6c-0.3-0.7-0.5-1.5-0.5-2.3c0-0.9,0.2-1.6,0.5-2.3c0.3-0.7,0.8-1.2,1.4-1.6
			s1.4-0.6,2.4-0.6c0.9,0,1.7,0.2,2.3,0.6s1.1,0.9,1.4,1.6s0.5,1.5,0.5,2.3c0,0.9-0.2,1.6-0.5,2.3c-0.3,0.7-0.8,1.2-1.4,1.6
			s-1.4,0.6-2.3,0.6C391.4,683.2,390.6,683,389.9,682.6z M389.7,680.6c0.2,0.5,0.5,0.9,1,1.1c0.4,0.2,1,0.4,1.6,0.4
			c0.6,0,1.2-0.1,1.6-0.4c0.4-0.2,0.7-0.6,1-1.1c0.2-0.5,0.3-1.2,0.3-1.9c0-0.8-0.1-1.4-0.3-1.9s-0.5-0.9-1-1.1
			c-0.4-0.2-1-0.4-1.6-0.4c-0.7,0-1.2,0.1-1.6,0.4c-0.4,0.2-0.7,0.6-1,1.1s-0.3,1.2-0.3,1.9C389.4,679.5,389.5,680.1,389.7,680.6z"
			/>
		<path d="M399.7,682.7c-0.3-0.1-0.5-0.4-0.6-0.6s-0.2-0.7-0.2-1.1v-5.4h-1.6v-0.8l1.8-0.4l0.5-1.8h0.7v1.9h4.7v1.1h-4.7v6.3h2.7
			v1.1h-2C400.4,682.9,400,682.8,399.7,682.7z M405.2,682.7c-0.3-0.1-0.5-0.4-0.6-0.6s-0.2-0.7-0.2-1.1v-5.4h-1.6v-0.8l1.6-0.2
			l0.6-2h0.7v1.9h2.8v1.1h-2.8v6.3h2.7v1.1h-2C405.9,682.9,405.5,682.8,405.2,682.7z"/>
	</g>
</g>
<g>
	<g>
		<path d="M498.8,682.2c-0.6-0.3-1-0.8-1.3-1.5c-0.3-0.6-0.4-1.4-0.4-2.3c0-1.3,0.3-2.4,1-3.1c0.7-0.8,1.6-1.1,2.9-1.1
			c1.2,0,2.1,0.4,2.8,1.1s0.9,1.8,0.9,3.2c0,1-0.1,1.7-0.4,2.4c-0.3,0.6-0.7,1.1-1.2,1.4c-0.5,0.3-1.2,0.5-2.1,0.5
			C500.1,682.7,499.4,682.6,498.8,682.2z M499.2,686.1c-0.6-0.2-1-0.6-1.4-1c-0.3-0.5-0.5-1-0.6-1.6h1.3c0,0.4,0.1,0.7,0.3,1
			c0.2,0.3,0.5,0.5,0.9,0.7s0.9,0.2,1.5,0.2c0.7,0,1.2-0.1,1.6-0.3c0.4-0.2,0.7-0.4,0.9-0.8c0.2-0.4,0.3-0.9,0.3-1.5v-8.5h1.4v8.5
			c0,0.8-0.1,1.4-0.4,2c-0.3,0.5-0.7,0.9-1.3,1.2c-0.6,0.3-1.4,0.4-2.4,0.4C500.4,686.5,499.7,686.4,499.2,686.1z M502.8,681.3
			c0.4-0.2,0.7-0.6,1-1c0.2-0.5,0.3-1.1,0.3-1.8c0-0.7-0.1-1.4-0.3-1.8c-0.2-0.5-0.5-0.8-1-1c-0.4-0.2-0.9-0.3-1.6-0.3
			c-0.7,0-1.2,0.1-1.6,0.3c-0.4,0.2-0.7,0.6-0.9,1c-0.2,0.5-0.3,1.1-0.3,1.8c0,0.8,0.1,1.4,0.3,1.9c0.2,0.5,0.5,0.8,0.9,1
			c0.4,0.2,0.9,0.3,1.6,0.3C501.9,681.7,502.4,681.6,502.8,681.3z"/>
		<path d="M509.1,682.6c-0.6-0.4-1.1-0.9-1.4-1.6c-0.3-0.7-0.5-1.5-0.5-2.3c0-0.9,0.2-1.6,0.5-2.3s0.8-1.2,1.4-1.6
			c0.6-0.4,1.4-0.6,2.3-0.6c0.8,0,1.6,0.2,2.2,0.5c0.6,0.4,1.1,0.9,1.4,1.5s0.5,1.4,0.5,2.2v0.2c0,0.1,0,0.2,0,0.4h-7.1v-1h6.4
			l-0.6,0.6c0-0.8,0-1.4-0.2-1.9c-0.2-0.5-0.5-0.9-0.9-1.1c-0.4-0.2-0.9-0.3-1.5-0.3c-0.6,0-1.1,0.1-1.6,0.3c-0.4,0.2-0.8,0.6-1,1.1
			s-0.3,1.2-0.3,2s0.1,1.5,0.4,2c0.2,0.5,0.6,0.9,1,1.1c0.4,0.2,1,0.3,1.6,0.3c0.5,0,1-0.1,1.4-0.2c0.4-0.2,0.7-0.4,0.9-0.6
			c0.2-0.3,0.4-0.6,0.5-1h1.2c-0.1,0.5-0.2,0.9-0.5,1.4s-0.7,0.8-1.3,1.1c-0.6,0.3-1.3,0.4-2.2,0.4
			C510.6,683.2,509.8,683,509.1,682.6z"/>
		<path d="M517.2,674.4h1.4v8.5h-1.4V674.4z M518.5,676.8c0.3-0.8,0.7-1.5,1.2-1.9c0.5-0.5,1.2-0.7,2.1-0.7c0.7,0,1.3,0.1,1.7,0.4
			c0.4,0.3,0.8,0.6,1,1.1c0.2,0.5,0.3,1.1,0.3,1.8v5.4h-1.4v-5.3c0-0.6-0.1-1.1-0.2-1.4s-0.4-0.6-0.7-0.7c-0.3-0.1-0.7-0.2-1.1-0.2
			c-0.6,0-1.2,0.2-1.6,0.5s-0.8,0.8-1,1.5c-0.2,0.7-0.3,1.5-0.3,2.4h-0.4C518.1,678.6,518.3,677.6,518.5,676.8z"/>
	</g>
</g>
<g>
	<g>
		<path d="M610.8,682.9c-0.4-0.2-0.7-0.5-1-0.8s-0.4-0.8-0.4-1.4c0-0.5,0.1-0.9,0.3-1.2c0.2-0.3,0.5-0.6,0.8-0.8s0.9-0.4,1.5-0.5
			l2.2-0.4c0.5-0.1,0.8-0.2,1-0.3c0.2-0.1,0.3-0.4,0.3-0.7c0-0.3-0.1-0.6-0.2-0.8c-0.1-0.2-0.3-0.4-0.6-0.5
			c-0.3-0.1-0.7-0.2-1.3-0.2c-0.8,0-1.4,0.2-1.7,0.5c-0.4,0.3-0.6,0.8-0.6,1.4h-1.4c0-0.6,0.2-1.1,0.5-1.6c0.3-0.4,0.7-0.8,1.2-1
			c0.5-0.2,1.2-0.4,2-0.4c0.7,0,1.4,0.1,1.9,0.3c0.5,0.2,0.9,0.5,1.1,0.9s0.4,0.8,0.4,1.4v4.1c0,0.3,0,0.6,0,1c0,0.3,0,0.7,0.1,1.1
			h-1.2c0-0.4-0.1-0.7-0.1-1c0-0.3,0-0.7,0-1c-0.1,0.4-0.3,0.7-0.6,1.1c-0.3,0.3-0.6,0.6-1,0.8c-0.4,0.2-1,0.3-1.6,0.3
			C611.7,683.1,611.2,683,610.8,682.9z M614.2,681.6c0.4-0.3,0.8-0.7,1-1.2c0.2-0.5,0.3-1,0.3-1.6v-0.7c-0.2,0.1-0.4,0.2-0.6,0.3
			s-0.4,0.2-0.7,0.2l-0.2,0.1l-1.4,0.3c-0.6,0.1-1,0.3-1.3,0.6c-0.3,0.2-0.4,0.6-0.4,1c0,0.5,0.2,0.8,0.5,1.1
			c0.3,0.2,0.7,0.4,1.2,0.4C613.2,682.1,613.7,681.9,614.2,681.6z"/>
		<path d="M618.9,674.4h1.4v1.9v0.3v9.7h-1.4V674.4z M620.7,682c-0.6-0.8-0.9-1.9-0.9-3.3s0.3-2.5,0.9-3.3s1.6-1.2,2.8-1.2
			c0.9,0,1.6,0.2,2.2,0.6c0.6,0.4,1,0.9,1.3,1.6c0.3,0.7,0.4,1.5,0.4,2.3c0,0.9-0.1,1.7-0.4,2.4c-0.3,0.7-0.7,1.2-1.3,1.6
			c-0.6,0.4-1.3,0.6-2.2,0.6C622.2,683.2,621.3,682.8,620.7,682z M624.8,681.7c0.4-0.2,0.7-0.6,0.9-1.1c0.2-0.5,0.3-1.1,0.3-1.9
			c0-0.8-0.1-1.4-0.3-1.9c-0.2-0.5-0.5-0.9-0.9-1.1s-0.9-0.4-1.6-0.4c-0.6,0-1.1,0.1-1.6,0.4c-0.4,0.2-0.8,0.6-1,1.1
			c-0.2,0.5-0.3,1.1-0.3,1.9s0.1,1.4,0.3,1.9c0.2,0.5,0.6,0.9,1,1.1c0.4,0.2,1,0.4,1.6,0.4C623.8,682.1,624.4,682,624.8,681.7z"/>
		<path d="M629.2,674.4h1.3v2.7l0,0.3v5.6h-1.4V674.4z M630.5,677c0.2-0.8,0.6-1.5,1.2-1.9c0.5-0.5,1.2-0.7,2.1-0.7h0.3v1.3h-0.4
			c-0.8,0-1.4,0.1-1.9,0.5c-0.4,0.3-0.8,0.8-0.9,1.4s-0.2,1.4-0.2,2.2h-0.5C630.1,678.7,630.2,677.8,630.5,677z"/>
	</g>
</g>
<g>
	<g>
		<path d="M722.4,671h1.4v11.9h-1.4V671z"/>
		<path d="M727.4,682.8c-0.5-0.2-0.8-0.6-1-1.1c-0.2-0.5-0.3-1.1-0.3-1.9v-5.4h1.4v5.3c0,0.6,0.1,1.1,0.2,1.4
			c0.2,0.3,0.4,0.6,0.7,0.7c0.3,0.1,0.7,0.2,1.2,0.2c0.6,0,1.1-0.2,1.5-0.5c0.4-0.3,0.7-0.8,0.9-1.5c0.2-0.7,0.3-1.5,0.3-2.4h0.4
			c0,1.1-0.1,2.1-0.4,2.9c-0.2,0.8-0.6,1.5-1.2,1.9s-1.2,0.7-2.1,0.7C728.4,683.2,727.8,683.1,727.4,682.8z M732.3,680.3v-0.2v-5.7
			h1.4v8.5h-1.4V680.3z"/>
		<path d="M737.2,682.2c-0.6-0.3-1-0.8-1.3-1.5c-0.3-0.6-0.4-1.4-0.4-2.3c0-1.3,0.3-2.4,1-3.1s1.6-1.1,2.9-1.1
			c1.2,0,2.1,0.4,2.8,1.1c0.6,0.7,0.9,1.8,0.9,3.2c0,1-0.1,1.7-0.4,2.4c-0.3,0.6-0.7,1.1-1.2,1.4s-1.2,0.5-2.1,0.5
			C738.5,682.7,737.8,682.6,737.2,682.2z M737.6,686.1c-0.6-0.2-1-0.6-1.4-1c-0.3-0.5-0.5-1-0.6-1.6h1.3c0,0.4,0.1,0.7,0.3,1
			c0.2,0.3,0.5,0.5,0.9,0.7c0.4,0.2,0.9,0.2,1.5,0.2c0.7,0,1.2-0.1,1.6-0.3s0.7-0.4,0.9-0.8c0.2-0.4,0.3-0.9,0.3-1.5v-8.5h1.4v8.5
			c0,0.8-0.1,1.4-0.4,2c-0.3,0.5-0.7,0.9-1.3,1.2c-0.6,0.3-1.4,0.4-2.4,0.4C738.9,686.5,738.2,686.4,737.6,686.1z M741.3,681.3
			c0.4-0.2,0.7-0.6,1-1c0.2-0.5,0.3-1.1,0.3-1.8c0-0.7-0.1-1.4-0.3-1.8c-0.2-0.5-0.5-0.8-1-1c-0.4-0.2-0.9-0.3-1.6-0.3
			c-0.7,0-1.2,0.1-1.6,0.3c-0.4,0.2-0.7,0.6-0.9,1c-0.2,0.5-0.3,1.1-0.3,1.8c0,0.8,0.1,1.4,0.3,1.9c0.2,0.5,0.5,0.8,0.9,1
			c0.4,0.2,0.9,0.3,1.6,0.3C740.3,681.7,740.9,681.6,741.3,681.3z"/>
	</g>
</g>
<g>
	<g>
		<path d="M946.5,682.2c-0.6-0.3-1-0.8-1.3-1.5c-0.3-0.6-0.4-1.4-0.4-2.3c0-1.3,0.3-2.4,1-3.1c0.7-0.8,1.6-1.1,2.9-1.1
			c1.2,0,2.1,0.4,2.8,1.1c0.6,0.7,0.9,1.8,0.9,3.2c0,1-0.1,1.7-0.4,2.4s-0.7,1.1-1.2,1.4c-0.5,0.3-1.2,0.5-2.1,0.5
			C947.8,682.7,947.1,682.6,946.5,682.2z M946.9,686.1c-0.6-0.2-1-0.6-1.4-1c-0.3-0.5-0.5-1-0.6-1.6h1.3c0,0.4,0.1,0.7,0.3,1
			c0.2,0.3,0.5,0.5,0.9,0.7c0.4,0.2,0.9,0.2,1.5,0.2c0.7,0,1.2-0.1,1.6-0.3c0.4-0.2,0.7-0.4,0.9-0.8s0.3-0.9,0.3-1.5v-8.5h1.4v8.5
			c0,0.8-0.1,1.4-0.4,2s-0.7,0.9-1.3,1.2c-0.6,0.3-1.4,0.4-2.4,0.4C948.1,686.5,947.4,686.4,946.9,686.1z M950.5,681.3
			c0.4-0.2,0.7-0.6,1-1c0.2-0.5,0.3-1.1,0.3-1.8c0-0.7-0.1-1.4-0.3-1.8c-0.2-0.5-0.5-0.8-1-1c-0.4-0.2-0.9-0.3-1.6-0.3
			c-0.7,0-1.2,0.1-1.6,0.3c-0.4,0.2-0.7,0.6-0.9,1s-0.3,1.1-0.3,1.8c0,0.8,0.1,1.4,0.3,1.9c0.2,0.5,0.5,0.8,0.9,1
			c0.4,0.2,0.9,0.3,1.6,0.3C949.6,681.7,950.1,681.6,950.5,681.3z"/>
		<path d="M956.8,682.6c-0.6-0.4-1.1-0.9-1.4-1.6s-0.5-1.5-0.5-2.3c0-0.9,0.2-1.6,0.5-2.3s0.8-1.2,1.4-1.6s1.4-0.6,2.3-0.6
			c0.8,0,1.6,0.2,2.2,0.5c0.6,0.4,1.1,0.9,1.4,1.5s0.5,1.4,0.5,2.2v0.2c0,0.1,0,0.2,0,0.4H956v-1h6.4l-0.6,0.6c0-0.8,0-1.4-0.2-1.9
			c-0.2-0.5-0.5-0.9-0.9-1.1c-0.4-0.2-0.9-0.3-1.5-0.3c-0.6,0-1.1,0.1-1.6,0.3c-0.4,0.2-0.8,0.6-1,1.1s-0.3,1.2-0.3,2s0.1,1.5,0.4,2
			c0.2,0.5,0.6,0.9,1,1.1c0.4,0.2,1,0.3,1.6,0.3c0.5,0,1-0.1,1.4-0.2c0.4-0.2,0.7-0.4,0.9-0.6c0.2-0.3,0.4-0.6,0.5-1h1.2
			c-0.1,0.5-0.2,0.9-0.5,1.4s-0.7,0.8-1.3,1.1s-1.3,0.4-2.2,0.4C958.3,683.2,957.5,683,956.8,682.6z"/>
		<path d="M964.9,674.4h1.4v8.5h-1.4V674.4z M966.2,676.8c0.3-0.8,0.7-1.5,1.2-1.9c0.5-0.5,1.2-0.7,2.1-0.7c0.7,0,1.3,0.1,1.7,0.4
			c0.4,0.3,0.8,0.6,1,1.1s0.3,1.1,0.3,1.8v5.4h-1.4v-5.3c0-0.6-0.1-1.1-0.2-1.4c-0.2-0.4-0.4-0.6-0.7-0.7c-0.3-0.1-0.7-0.2-1.1-0.2
			c-0.6,0-1.2,0.2-1.6,0.5s-0.8,0.8-1,1.5c-0.2,0.7-0.3,1.5-0.3,2.4h-0.4C965.8,678.6,966,677.6,966.2,676.8z"/>
	</g>
</g>
<g>
	<g>
		<path d="M1058.5,682.9c-0.4-0.2-0.7-0.5-1-0.8s-0.4-0.8-0.4-1.4c0-0.5,0.1-0.9,0.3-1.2c0.2-0.3,0.5-0.6,0.8-0.8s0.9-0.4,1.5-0.5
			l2.2-0.4c0.5-0.1,0.8-0.2,1-0.3c0.2-0.1,0.3-0.4,0.3-0.7c0-0.3-0.1-0.6-0.2-0.8c-0.1-0.2-0.3-0.4-0.6-0.5
			c-0.3-0.1-0.7-0.2-1.3-0.2c-0.8,0-1.4,0.2-1.7,0.5c-0.4,0.3-0.6,0.8-0.6,1.4h-1.4c0-0.6,0.2-1.1,0.5-1.6c0.3-0.4,0.7-0.8,1.2-1
			c0.5-0.2,1.2-0.4,2-0.4c0.7,0,1.4,0.1,1.9,0.3c0.5,0.2,0.9,0.5,1.1,0.9c0.2,0.4,0.4,0.8,0.4,1.4v4.1c0,0.3,0,0.6,0,1
			c0,0.3,0,0.7,0.1,1.1h-1.2c0-0.4-0.1-0.7-0.1-1c0-0.3,0-0.7,0-1c-0.1,0.4-0.3,0.7-0.6,1.1c-0.3,0.3-0.6,0.6-1,0.8
			c-0.4,0.2-1,0.3-1.6,0.3C1059.4,683.1,1058.9,683,1058.5,682.9z M1061.9,681.6c0.4-0.3,0.8-0.7,1-1.2c0.2-0.5,0.3-1,0.3-1.6v-0.7
			c-0.2,0.1-0.4,0.2-0.6,0.3s-0.4,0.2-0.7,0.2l-0.2,0.1l-1.4,0.3c-0.6,0.1-1,0.3-1.3,0.6c-0.3,0.2-0.4,0.6-0.4,1
			c0,0.5,0.2,0.8,0.5,1.1c0.3,0.2,0.7,0.4,1.2,0.4C1060.9,682.1,1061.4,681.9,1061.9,681.6z"/>
		<path d="M1066.6,674.4h1.4v1.9v0.3v9.7h-1.4V674.4z M1068.4,682c-0.6-0.8-0.9-1.9-0.9-3.3s0.3-2.5,0.9-3.3s1.6-1.2,2.8-1.2
			c0.9,0,1.6,0.2,2.2,0.6c0.6,0.4,1,0.9,1.3,1.6c0.3,0.7,0.4,1.5,0.4,2.3c0,0.9-0.1,1.7-0.4,2.4c-0.3,0.7-0.7,1.2-1.3,1.6
			c-0.6,0.4-1.3,0.6-2.2,0.6C1069.9,683.2,1069,682.8,1068.4,682z M1072.5,681.7c0.4-0.2,0.7-0.6,0.9-1.1c0.2-0.5,0.3-1.1,0.3-1.9
			c0-0.8-0.1-1.4-0.3-1.9c-0.2-0.5-0.5-0.9-0.9-1.1c-0.4-0.3-0.9-0.4-1.6-0.4c-0.6,0-1.1,0.1-1.6,0.4c-0.4,0.2-0.8,0.6-1,1.1
			c-0.2,0.5-0.3,1.1-0.3,1.9s0.1,1.4,0.3,1.9c0.2,0.5,0.6,0.9,1,1.1c0.4,0.2,1,0.4,1.6,0.4C1071.5,682.1,1072.1,682,1072.5,681.7z"
			/>
		<path d="M1076.9,674.4h1.3v2.7l0,0.3v5.6h-1.4V674.4z M1078.2,677c0.2-0.8,0.6-1.5,1.2-1.9c0.5-0.5,1.2-0.7,2.1-0.7h0.3v1.3h-0.4
			c-0.8,0-1.4,0.1-1.9,0.5s-0.8,0.8-0.9,1.4c-0.2,0.6-0.2,1.4-0.2,2.2h-0.5C1077.8,678.7,1077.9,677.8,1078.2,677z"/>
	</g>
</g>
<g>
	<g>
		<path d="M1171.1,671h1.4v11.9h-1.4V671z"/>
		<path d="M1176.1,682.8c-0.5-0.2-0.8-0.6-1-1.1c-0.2-0.5-0.3-1.1-0.3-1.9v-5.4h1.4v5.3c0,0.6,0.1,1.1,0.2,1.4
			c0.2,0.3,0.4,0.6,0.7,0.7s0.7,0.2,1.2,0.2c0.6,0,1.1-0.2,1.5-0.5c0.4-0.3,0.7-0.8,0.9-1.5c0.2-0.7,0.3-1.5,0.3-2.4h0.4
			c0,1.1-0.1,2.1-0.4,2.9s-0.6,1.5-1.2,1.9c-0.5,0.5-1.2,0.7-2.1,0.7C1177.1,683.2,1176.5,683.1,1176.1,682.8z M1181,680.3v-0.2
			v-5.7h1.4v8.5h-1.4V680.3z"/>
		<path d="M1185.9,682.2c-0.6-0.3-1-0.8-1.3-1.5c-0.3-0.6-0.4-1.4-0.4-2.3c0-1.3,0.3-2.4,1-3.1c0.7-0.8,1.6-1.1,2.9-1.1
			c1.2,0,2.1,0.4,2.8,1.1c0.6,0.7,0.9,1.8,0.9,3.2c0,1-0.1,1.7-0.4,2.4s-0.7,1.1-1.2,1.4c-0.5,0.3-1.2,0.5-2.1,0.5
			C1187.2,682.7,1186.5,682.6,1185.9,682.2z M1186.3,686.1c-0.6-0.2-1-0.6-1.4-1c-0.3-0.5-0.5-1-0.6-1.6h1.3c0,0.4,0.1,0.7,0.3,1
			c0.2,0.3,0.5,0.5,0.9,0.7c0.4,0.2,0.9,0.2,1.5,0.2c0.7,0,1.2-0.1,1.6-0.3c0.4-0.2,0.7-0.4,0.9-0.8s0.3-0.9,0.3-1.5v-8.5h1.4v8.5
			c0,0.8-0.1,1.4-0.4,2s-0.7,0.9-1.3,1.2c-0.6,0.3-1.4,0.4-2.4,0.4C1187.6,686.5,1186.9,686.4,1186.3,686.1z M1190,681.3
			c0.4-0.2,0.7-0.6,1-1c0.2-0.5,0.3-1.1,0.3-1.8c0-0.7-0.1-1.4-0.3-1.8c-0.2-0.5-0.5-0.8-1-1c-0.4-0.2-0.9-0.3-1.6-0.3
			c-0.7,0-1.2,0.1-1.6,0.3c-0.4,0.2-0.7,0.6-0.9,1s-0.3,1.1-0.3,1.8c0,0.8,0.1,1.4,0.3,1.9c0.2,0.5,0.5,0.8,0.9,1
			c0.4,0.2,0.9,0.3,1.6,0.3C1189,681.7,1189.6,681.6,1190,681.3z"/>
	</g>
</g>
<g>
	<g>
		<path d="M837.6,682.6c-0.6-0.4-1.1-0.9-1.4-1.6c-0.3-0.7-0.5-1.5-0.5-2.3c0-0.9,0.2-1.6,0.5-2.3c0.3-0.7,0.8-1.2,1.4-1.6
			c0.6-0.4,1.4-0.6,2.4-0.6c0.9,0,1.7,0.2,2.3,0.6c0.6,0.4,1.1,0.9,1.4,1.6s0.5,1.5,0.5,2.3c0,0.9-0.2,1.6-0.5,2.3
			c-0.3,0.7-0.8,1.2-1.4,1.6c-0.6,0.4-1.4,0.6-2.3,0.6C839.1,683.2,838.3,683,837.6,682.6z M837.4,680.6c0.2,0.5,0.5,0.9,1,1.1
			c0.4,0.2,1,0.4,1.6,0.4c0.6,0,1.2-0.1,1.6-0.4c0.4-0.2,0.7-0.6,1-1.1c0.2-0.5,0.3-1.2,0.3-1.9c0-0.8-0.1-1.4-0.3-1.9
			c-0.2-0.5-0.5-0.9-1-1.1c-0.4-0.2-1-0.4-1.6-0.4c-0.7,0-1.2,0.1-1.6,0.4c-0.4,0.2-0.7,0.6-1,1.1c-0.2,0.5-0.3,1.2-0.3,1.9
			C837.1,679.5,837.2,680.1,837.4,680.6z"/>
		<path d="M847.4,682.7c-0.3-0.1-0.5-0.4-0.6-0.6s-0.2-0.7-0.2-1.1v-5.4h-1.6v-0.8l1.8-0.4l0.5-1.8h0.7v1.9h4.7v1.1h-4.7v6.3h2.7
			v1.1h-2C848.1,682.9,847.7,682.8,847.4,682.7z M852.9,682.7c-0.3-0.1-0.5-0.4-0.6-0.6s-0.2-0.7-0.2-1.1v-5.4h-1.6v-0.8l1.6-0.2
			l0.6-2h0.7v1.9h2.8v1.1h-2.8v6.3h2.7v1.1h-2C853.6,682.9,853.2,682.8,852.9,682.7z"/>
	</g>
</g>
</svg>
