<svg width="693" height="71" viewBox="0 0 693 71" fill="none" xmlns="http://www.w3.org/2000/svg">
<rect y="24" width="24" height="24" fill="#0047CC"/>
<rect opacity="0.5" y="24" width="24" height="24" fill="white"/>
<path d="M41.088 19.36H42.416V30H41.088V19.36ZM42.064 28.928H47.984V30H42.064V28.928ZM49.61 22H50.89V30H49.61V22ZM49.418 19.36H51.066V20.688H49.418V19.36ZM53.7694 22L56.7294 29.568H56.1854L59.1614 22H60.4254L57.2734 30H55.5774L52.4254 22H53.7694ZM65.4567 30.256C64.5714 30.256 63.8301 30.0747 63.2327 29.712C62.6461 29.3387 62.2087 28.832 61.9207 28.192C61.6327 27.552 61.4887 26.816 61.4887 25.984C61.4887 25.1733 61.6381 24.448 61.9367 23.808C62.2354 23.168 62.6781 22.6667 63.2647 22.304C63.8621 21.9307 64.5927 21.744 65.4567 21.744C66.2461 21.744 66.9234 21.9147 67.4887 22.256C68.0541 22.5867 68.4807 23.056 68.7687 23.664C69.0674 24.2613 69.2167 24.9493 69.2167 25.728V25.952C69.2167 26.0373 69.2061 26.1493 69.1847 26.288H62.4807V25.328H68.5127L67.9527 25.904C67.9847 25.168 67.9101 24.5653 67.7287 24.096C67.5474 23.616 67.2647 23.2693 66.8807 23.056C66.4967 22.832 66.0274 22.72 65.4727 22.72C64.8861 22.72 64.3901 22.832 63.9847 23.056C63.5901 23.2693 63.2861 23.6213 63.0727 24.112C62.8594 24.592 62.7527 25.2213 62.7527 26C62.7527 26.7787 62.8647 27.4133 63.0887 27.904C63.3127 28.3947 63.6274 28.7467 64.0327 28.96C64.4381 29.1733 64.9287 29.28 65.5047 29.28C66.0167 29.28 66.4434 29.2107 66.7847 29.072C67.1367 28.9227 67.4087 28.72 67.6007 28.464C67.8034 28.1973 67.9474 27.888 68.0327 27.536H69.2007C69.1474 27.9947 68.9874 28.432 68.7207 28.848C68.4541 29.2533 68.0487 29.5893 67.5047 29.856C66.9714 30.1227 66.2887 30.256 65.4567 30.256ZM71.1508 18.8H72.4308V30H71.1508V18.8ZM75.0489 18.8H76.3289V30H75.0489V18.8ZM82.387 30.256C81.5123 30.256 80.771 30.0747 80.163 29.712C79.5657 29.3387 79.1123 28.832 78.803 28.192C78.5043 27.5413 78.355 26.8053 78.355 25.984C78.355 25.1733 78.5043 24.448 78.803 23.808C79.1123 23.168 79.5657 22.6667 80.163 22.304C80.771 21.9307 81.5123 21.744 82.387 21.744C83.251 21.744 83.987 21.9307 84.595 22.304C85.203 22.6667 85.6563 23.168 85.955 23.808C86.2537 24.448 86.403 25.1733 86.403 25.984C86.403 26.8053 86.2537 27.536 85.955 28.176C85.6563 28.816 85.203 29.3227 84.595 29.696C83.987 30.0693 83.251 30.256 82.387 30.256ZM79.651 26C79.651 26.736 79.7523 27.344 79.955 27.824C80.1577 28.304 80.4563 28.656 80.851 28.88C81.2563 29.104 81.7683 29.216 82.387 29.216C82.995 29.216 83.4963 29.104 83.891 28.88C84.2963 28.656 84.6003 28.304 84.803 27.824C85.0057 27.344 85.107 26.736 85.107 26C85.107 25.2533 85.0057 24.6453 84.803 24.176C84.6003 23.696 84.2963 23.344 83.891 23.12C83.4963 22.896 82.995 22.784 82.387 22.784C81.7683 22.784 81.2563 22.896 80.851 23.12C80.4563 23.344 80.1577 23.696 79.955 24.176C79.7523 24.6453 79.651 25.2533 79.651 26ZM103.569 24.992C103.569 24.4693 103.499 24.048 103.361 23.728C103.222 23.408 103.019 23.1787 102.753 23.04C102.486 22.8907 102.15 22.816 101.745 22.816C101.169 22.816 100.694 22.9707 100.321 23.28C99.9473 23.5787 99.67 24.032 99.4886 24.64C99.318 25.248 99.2326 26.016 99.2326 26.944H98.7686C98.7686 25.8667 98.8753 24.944 99.0886 24.176C99.3126 23.408 99.67 22.8107 100.161 22.384C100.662 21.9573 101.323 21.744 102.145 21.744C102.753 21.744 103.254 21.8613 103.649 22.096C104.054 22.3307 104.353 22.6773 104.545 23.136C104.747 23.5947 104.849 24.1653 104.849 24.848V30H103.569V24.992ZM92.3526 22H93.6326V30H92.3526V22ZM97.9686 24.992C97.9686 24.4693 97.8993 24.048 97.7606 23.728C97.622 23.408 97.414 23.1787 97.1366 23.04C96.87 22.8907 96.534 22.816 96.1286 22.816C95.5633 22.816 95.094 22.9707 94.7206 23.28C94.3473 23.5787 94.07 24.032 93.8886 24.64C93.718 25.248 93.6326 26.016 93.6326 26.944H93.2166V26.64C93.238 25.6267 93.3606 24.7573 93.5846 24.032C93.8193 23.3067 94.1766 22.7467 94.6566 22.352C95.1366 21.9467 95.7606 21.744 96.5286 21.744C97.1366 21.744 97.638 21.8613 98.0326 22.096C98.438 22.3307 98.7366 22.6773 98.9286 23.136C99.1313 23.584 99.2326 24.1547 99.2326 24.848V30H97.9686V24.992ZM107.201 22H108.481V30H107.201V22ZM107.009 19.36H108.657V20.688H107.009V19.36ZM110.993 22H112.273V30H110.993V22ZM111.857 26.944C111.857 25.888 111.974 24.976 112.209 24.208C112.454 23.4293 112.833 22.8267 113.345 22.4C113.867 21.9627 114.529 21.744 115.329 21.744C115.99 21.744 116.529 21.8667 116.945 22.112C117.371 22.3467 117.681 22.6987 117.873 23.168C118.075 23.6267 118.177 24.2027 118.177 24.896V30H116.897V25.04C116.897 24.4853 116.822 24.0427 116.673 23.712C116.523 23.3813 116.305 23.152 116.017 23.024C115.739 22.8853 115.393 22.816 114.977 22.816C114.39 22.816 113.894 22.9707 113.489 23.28C113.083 23.5787 112.779 24.0373 112.577 24.656C112.374 25.264 112.273 26.0267 112.273 26.944H111.857ZM120.529 22H121.809V30H120.529V22ZM120.337 19.36H121.985V20.688H120.337V19.36ZM135.536 24.992C135.536 24.4693 135.467 24.048 135.328 23.728C135.189 23.408 134.987 23.1787 134.72 23.04C134.453 22.8907 134.117 22.816 133.712 22.816C133.136 22.816 132.661 22.9707 132.288 23.28C131.915 23.5787 131.637 24.032 131.456 24.64C131.285 25.248 131.2 26.016 131.2 26.944H130.736C130.736 25.8667 130.843 24.944 131.056 24.176C131.28 23.408 131.637 22.8107 132.128 22.384C132.629 21.9573 133.291 21.744 134.112 21.744C134.72 21.744 135.221 21.8613 135.616 22.096C136.021 22.3307 136.32 22.6773 136.512 23.136C136.715 23.5947 136.816 24.1653 136.816 24.848V30H135.536V24.992ZM124.32 22H125.6V30H124.32V22ZM129.936 24.992C129.936 24.4693 129.867 24.048 129.728 23.728C129.589 23.408 129.381 23.1787 129.104 23.04C128.837 22.8907 128.501 22.816 128.096 22.816C127.531 22.816 127.061 22.9707 126.688 23.28C126.315 23.5787 126.037 24.032 125.856 24.64C125.685 25.248 125.6 26.016 125.6 26.944H125.184V26.64C125.205 25.6267 125.328 24.7573 125.552 24.032C125.787 23.3067 126.144 22.7467 126.624 22.352C127.104 21.9467 127.728 21.744 128.496 21.744C129.104 21.744 129.605 21.8613 130 22.096C130.405 22.3307 130.704 22.6773 130.896 23.136C131.099 23.584 131.2 24.1547 131.2 24.848V30H129.936V24.992ZM142.721 30.256C141.846 30.256 141.105 30.0747 140.497 29.712C139.899 29.3387 139.446 28.832 139.137 28.192C138.838 27.5413 138.689 26.8053 138.689 25.984C138.689 25.1733 138.838 24.448 139.137 23.808C139.446 23.168 139.899 22.6667 140.497 22.304C141.105 21.9307 141.846 21.744 142.721 21.744C143.585 21.744 144.321 21.9307 144.929 22.304C145.537 22.6667 145.99 23.168 146.289 23.808C146.587 24.448 146.737 25.1733 146.737 25.984C146.737 26.8053 146.587 27.536 146.289 28.176C145.99 28.816 145.537 29.3227 144.929 29.696C144.321 30.0693 143.585 30.256 142.721 30.256ZM139.985 26C139.985 26.736 140.086 27.344 140.289 27.824C140.491 28.304 140.79 28.656 141.185 28.88C141.59 29.104 142.102 29.216 142.721 29.216C143.329 29.216 143.83 29.104 144.225 28.88C144.63 28.656 144.934 28.304 145.137 27.824C145.339 27.344 145.441 26.736 145.441 26C145.441 25.2533 145.339 24.6453 145.137 24.176C144.934 23.696 144.63 23.344 144.225 23.12C143.83 22.896 143.329 22.784 142.721 22.784C142.102 22.784 141.59 22.896 141.185 23.12C140.79 23.344 140.491 23.696 140.289 24.176C140.086 24.6453 139.985 25.2533 139.985 26ZM44.256 43.744C45.408 43.744 46.2773 44.1227 46.864 44.88C47.4613 45.6267 47.76 46.6667 47.76 48C47.76 48.8747 47.6267 49.632 47.36 50.272C47.104 50.9013 46.7093 51.392 46.176 51.744C45.6533 52.0853 45.0133 52.256 44.256 52.256C43.4347 52.256 42.752 52.0747 42.208 51.712C41.664 51.3493 41.2587 50.848 40.992 50.208C40.7253 49.568 40.592 48.832 40.592 48C40.592 47.1573 40.7253 46.416 40.992 45.776C41.2587 45.136 41.664 44.64 42.208 44.288C42.752 43.9253 43.4347 43.744 44.256 43.744ZM48.56 52H47.28V50.096V49.888V40.8H48.56V52ZM44.512 44.784C43.904 44.784 43.408 44.9013 43.024 45.136C42.64 45.3707 42.352 45.728 42.16 46.208C41.9787 46.6773 41.888 47.2747 41.888 48C41.888 48.7147 41.9787 49.312 42.16 49.792C42.352 50.2613 42.64 50.6187 43.024 50.864C43.408 51.0987 43.904 51.216 44.512 51.216C45.088 51.216 45.5787 51.104 45.984 50.88C46.4 50.6453 46.72 50.2933 46.944 49.824C47.168 49.344 47.28 48.736 47.28 48C47.28 47.264 47.168 46.656 46.944 46.176C46.72 45.696 46.4 45.344 45.984 45.12C45.5787 44.896 45.088 44.784 44.512 44.784ZM54.5511 52.256C53.6658 52.256 52.9245 52.0747 52.3271 51.712C51.7405 51.3387 51.3031 50.832 51.0151 50.192C50.7271 49.552 50.5831 48.816 50.5831 47.984C50.5831 47.1733 50.7325 46.448 51.0311 45.808C51.3298 45.168 51.7725 44.6667 52.3591 44.304C52.9565 43.9307 53.6871 43.744 54.5511 43.744C55.3405 43.744 56.0178 43.9147 56.5831 44.256C57.1485 44.5867 57.5751 45.056 57.8631 45.664C58.1618 46.2613 58.3111 46.9493 58.3111 47.728V47.952C58.3111 48.0373 58.3005 48.1493 58.2791 48.288H51.5751V47.328H57.6071L57.0471 47.904C57.0791 47.168 57.0045 46.5653 56.8231 46.096C56.6418 45.616 56.3591 45.2693 55.9751 45.056C55.5911 44.832 55.1218 44.72 54.5671 44.72C53.9805 44.72 53.4845 44.832 53.0791 45.056C52.6845 45.2693 52.3805 45.6213 52.1671 46.112C51.9538 46.592 51.8471 47.2213 51.8471 48C51.8471 48.7787 51.9591 49.4133 52.1831 49.904C52.4071 50.3947 52.7218 50.7467 53.1271 50.96C53.5325 51.1733 54.0231 51.28 54.5991 51.28C55.1111 51.28 55.5378 51.2107 55.8791 51.072C56.2311 50.9227 56.5031 50.72 56.6951 50.464C56.8978 50.1973 57.0418 49.888 57.1271 49.536H58.2951C58.2418 49.9947 58.0818 50.432 57.8151 50.848C57.5485 51.2533 57.1431 51.5893 56.5991 51.856C56.0658 52.1227 55.3831 52.256 54.5511 52.256ZM60.2451 40.8H61.5251V52H60.2451V40.8ZM64.1432 40.8H65.4232V52H64.1432V40.8ZM70.1694 52.208C69.6467 52.208 69.188 52.1227 68.7934 51.952C68.3987 51.7707 68.0894 51.5093 67.8654 51.168C67.6414 50.816 67.5294 50.3893 67.5294 49.888C67.5294 49.4507 67.6094 49.072 67.7694 48.752C67.94 48.4213 68.2014 48.1547 68.5534 47.952C68.916 47.7387 69.3854 47.584 69.9614 47.488L71.9934 47.152C72.42 47.0773 72.724 46.9707 72.9054 46.832C73.0867 46.6933 73.1774 46.4747 73.1774 46.176C73.1774 45.8773 73.1187 45.6267 73.0014 45.424C72.884 45.2107 72.6814 45.0453 72.3934 44.928C72.1054 44.8 71.7107 44.736 71.2094 44.736C70.4627 44.736 69.9134 44.8907 69.5614 45.2C69.22 45.5093 69.028 45.9467 68.9854 46.512H67.7054C67.7267 45.9467 67.8707 45.456 68.1374 45.04C68.404 44.624 68.7934 44.304 69.3054 44.08C69.828 43.8453 70.452 43.728 71.1774 43.728C71.8814 43.728 72.4734 43.8347 72.9534 44.048C73.4334 44.2507 73.7854 44.5333 74.0094 44.896C74.2334 45.2587 74.3454 45.6853 74.3454 46.176V50.016C74.3454 50.3147 74.3507 50.6293 74.3614 50.96C74.3827 51.28 74.4094 51.6267 74.4414 52H73.2894C73.2467 51.6693 73.2147 51.3493 73.1934 51.04C73.1827 50.72 73.1774 50.416 73.1774 50.128C73.06 50.4907 72.8787 50.8267 72.6334 51.136C72.388 51.4453 72.0574 51.7013 71.6414 51.904C71.236 52.1067 70.7454 52.208 70.1694 52.208ZM70.4094 51.2C71.0174 51.2 71.5294 51.0613 71.9454 50.784C72.3614 50.5067 72.6707 50.1387 72.8734 49.68C73.076 49.2213 73.1774 48.7307 73.1774 48.208V47.52C73.0067 47.6373 72.8254 47.7387 72.6334 47.824C72.452 47.8987 72.228 47.9627 71.9614 48.016L71.7374 48.064L70.4094 48.336C69.8547 48.4533 69.4494 48.6293 69.1934 48.864C68.948 49.0987 68.8254 49.424 68.8254 49.84C68.8254 50.2773 68.9694 50.6133 69.2574 50.848C69.5454 51.0827 69.9294 51.2 70.4094 51.2ZM84.9697 52.256C83.8071 52.256 82.9271 51.8827 82.3297 51.136C81.7431 50.3787 81.4497 49.3333 81.4497 48C81.4497 46.6667 81.7431 45.6267 82.3297 44.88C82.9271 44.1227 83.8071 43.744 84.9697 43.744C85.7804 43.744 86.4577 43.9253 87.0017 44.288C87.5457 44.6507 87.9511 45.152 88.2177 45.792C88.4844 46.432 88.6177 47.168 88.6177 48C88.6177 48.8427 88.4844 49.584 88.2177 50.224C87.9511 50.864 87.5457 51.3653 87.0017 51.728C86.4577 52.08 85.7804 52.256 84.9697 52.256ZM80.6657 44H81.9457V45.792V46.08V55.2H80.6657V44ZM84.7137 51.216C85.3111 51.216 85.8017 51.0987 86.1857 50.864C86.5697 50.6293 86.8524 50.2773 87.0337 49.808C87.2257 49.328 87.3217 48.7253 87.3217 48C87.3217 47.2853 87.2257 46.6933 87.0337 46.224C86.8524 45.744 86.5697 45.3867 86.1857 45.152C85.8017 44.9067 85.3111 44.784 84.7137 44.784C84.1377 44.784 83.6417 44.9013 83.2257 45.136C82.8097 45.36 82.4897 45.712 82.2657 46.192C82.0524 46.6613 81.9457 47.264 81.9457 48C81.9457 48.736 82.0524 49.344 82.2657 49.824C82.4897 50.304 82.8097 50.656 83.2257 50.88C83.6417 51.104 84.1377 51.216 84.7137 51.216ZM94.1289 52.256C93.2542 52.256 92.5129 52.0747 91.9049 51.712C91.3075 51.3387 90.8542 50.832 90.5449 50.192C90.2462 49.5413 90.0969 48.8053 90.0969 47.984C90.0969 47.1733 90.2462 46.448 90.5449 45.808C90.8542 45.168 91.3075 44.6667 91.9049 44.304C92.5129 43.9307 93.2542 43.744 94.1289 43.744C94.9929 43.744 95.7289 43.9307 96.3369 44.304C96.9449 44.6667 97.3982 45.168 97.6969 45.808C97.9955 46.448 98.1449 47.1733 98.1449 47.984C98.1449 48.8053 97.9955 49.536 97.6969 50.176C97.3982 50.816 96.9449 51.3227 96.3369 51.696C95.7289 52.0693 94.9929 52.256 94.1289 52.256ZM91.3929 48C91.3929 48.736 91.4942 49.344 91.6969 49.824C91.8995 50.304 92.1982 50.656 92.5929 50.88C92.9982 51.104 93.5102 51.216 94.1289 51.216C94.7369 51.216 95.2382 51.104 95.6329 50.88C96.0382 50.656 96.3422 50.304 96.5449 49.824C96.7475 49.344 96.8489 48.736 96.8489 48C96.8489 47.2533 96.7475 46.6453 96.5449 46.176C96.3422 45.696 96.0382 45.344 95.6329 45.12C95.2382 44.896 94.7369 44.784 94.1289 44.784C93.5102 44.784 92.9982 44.896 92.5929 45.12C92.1982 45.344 91.8995 45.696 91.6969 46.176C91.4942 46.6453 91.3929 47.2533 91.3929 48ZM101.013 49.056C101.013 48.0533 101.125 47.168 101.349 46.4C101.583 45.632 101.946 45.024 102.437 44.576C102.938 44.1173 103.589 43.888 104.389 43.888H104.677V45.152H104.325C103.567 45.1307 102.975 45.2853 102.549 45.616C102.133 45.936 101.845 46.384 101.685 46.96C101.535 47.5253 101.461 48.224 101.461 49.056H101.013ZM100.181 44H101.445V46.512L101.461 46.768V52H100.181V44ZM108.853 52C108.352 52 107.963 51.936 107.685 51.808C107.408 51.6693 107.211 51.4667 107.093 51.2C106.987 50.9333 106.933 50.576 106.933 50.128V45.008H105.397V44.288L107.045 43.888L107.525 42.224H108.213V44H110.853V45.008H108.213V50.96H110.741V52H108.853ZM114.933 52.208C114.41 52.208 113.952 52.1227 113.557 51.952C113.162 51.7707 112.853 51.5093 112.629 51.168C112.405 50.816 112.293 50.3893 112.293 49.888C112.293 49.4507 112.373 49.072 112.533 48.752C112.704 48.4213 112.965 48.1547 113.317 47.952C113.68 47.7387 114.149 47.584 114.725 47.488L116.757 47.152C117.184 47.0773 117.488 46.9707 117.669 46.832C117.85 46.6933 117.941 46.4747 117.941 46.176C117.941 45.8773 117.882 45.6267 117.765 45.424C117.648 45.2107 117.445 45.0453 117.157 44.928C116.869 44.8 116.474 44.736 115.973 44.736C115.226 44.736 114.677 44.8907 114.325 45.2C113.984 45.5093 113.792 45.9467 113.749 46.512H112.469C112.49 45.9467 112.634 45.456 112.901 45.04C113.168 44.624 113.557 44.304 114.069 44.08C114.592 43.8453 115.216 43.728 115.941 43.728C116.645 43.728 117.237 43.8347 117.717 44.048C118.197 44.2507 118.549 44.5333 118.773 44.896C118.997 45.2587 119.109 45.6853 119.109 46.176V50.016C119.109 50.3147 119.114 50.6293 119.125 50.96C119.146 51.28 119.173 51.6267 119.205 52H118.053C118.01 51.6693 117.978 51.3493 117.957 51.04C117.946 50.72 117.941 50.416 117.941 50.128C117.824 50.4907 117.642 50.8267 117.397 51.136C117.152 51.4453 116.821 51.7013 116.405 51.904C116 52.1067 115.509 52.208 114.933 52.208ZM115.173 51.2C115.781 51.2 116.293 51.0613 116.709 50.784C117.125 50.5067 117.434 50.1387 117.637 49.68C117.84 49.2213 117.941 48.7307 117.941 48.208V47.52C117.77 47.6373 117.589 47.7387 117.397 47.824C117.216 47.8987 116.992 47.9627 116.725 48.016L116.501 48.064L115.173 48.336C114.618 48.4533 114.213 48.6293 113.957 48.864C113.712 49.0987 113.589 49.424 113.589 49.84C113.589 50.2773 113.733 50.6133 114.021 50.848C114.309 51.0827 114.693 51.2 115.173 51.2ZM123.9 52C123.398 52 123.009 51.936 122.732 51.808C122.454 51.6693 122.257 51.4667 122.14 51.2C122.033 50.9333 121.98 50.576 121.98 50.128V45.008H120.444V44.288L122.092 43.888L122.572 42.224H123.26V44H125.9V45.008H123.26V50.96H125.788V52H123.9ZM129.979 52.208C129.457 52.208 128.998 52.1227 128.603 51.952C128.209 51.7707 127.899 51.5093 127.675 51.168C127.451 50.816 127.339 50.3893 127.339 49.888C127.339 49.4507 127.419 49.072 127.579 48.752C127.75 48.4213 128.011 48.1547 128.363 47.952C128.726 47.7387 129.195 47.584 129.771 47.488L131.803 47.152C132.23 47.0773 132.534 46.9707 132.715 46.832C132.897 46.6933 132.987 46.4747 132.987 46.176C132.987 45.8773 132.929 45.6267 132.811 45.424C132.694 45.2107 132.491 45.0453 132.203 44.928C131.915 44.8 131.521 44.736 131.019 44.736C130.273 44.736 129.723 44.8907 129.371 45.2C129.03 45.5093 128.838 45.9467 128.795 46.512H127.515C127.537 45.9467 127.681 45.456 127.947 45.04C128.214 44.624 128.603 44.304 129.115 44.08C129.638 43.8453 130.262 43.728 130.987 43.728C131.691 43.728 132.283 43.8347 132.763 44.048C133.243 44.2507 133.595 44.5333 133.819 44.896C134.043 45.2587 134.155 45.6853 134.155 46.176V50.016C134.155 50.3147 134.161 50.6293 134.171 50.96C134.193 51.28 134.219 51.6267 134.251 52H133.099C133.057 51.6693 133.025 51.3493 133.003 51.04C132.993 50.72 132.987 50.416 132.987 50.128C132.87 50.4907 132.689 50.8267 132.443 51.136C132.198 51.4453 131.867 51.7013 131.451 51.904C131.046 52.1067 130.555 52.208 129.979 52.208ZM130.219 51.2C130.827 51.2 131.339 51.0613 131.755 50.784C132.171 50.5067 132.481 50.1387 132.683 49.68C132.886 49.2213 132.987 48.7307 132.987 48.208V47.52C132.817 47.6373 132.635 47.7387 132.443 47.824C132.262 47.8987 132.038 47.9627 131.771 48.016L131.547 48.064L130.219 48.336C129.665 48.4533 129.259 48.6293 129.003 48.864C128.758 49.0987 128.635 49.424 128.635 49.84C128.635 50.2773 128.779 50.6133 129.067 50.848C129.355 51.0827 129.739 51.2 130.219 51.2ZM143.852 52.256C142.966 52.256 142.225 52.0747 141.628 51.712C141.041 51.3387 140.604 50.832 140.316 50.192C140.028 49.552 139.884 48.816 139.884 47.984C139.884 47.1733 140.033 46.448 140.332 45.808C140.63 45.168 141.073 44.6667 141.66 44.304C142.257 43.9307 142.988 43.744 143.852 43.744C144.641 43.744 145.318 43.9147 145.884 44.256C146.449 44.5867 146.876 45.056 147.164 45.664C147.462 46.2613 147.612 46.9493 147.612 47.728V47.952C147.612 48.0373 147.601 48.1493 147.58 48.288H140.876V47.328H146.908L146.348 47.904C146.38 47.168 146.305 46.5653 146.124 46.096C145.942 45.616 145.66 45.2693 145.276 45.056C144.892 44.832 144.422 44.72 143.868 44.72C143.281 44.72 142.785 44.832 142.38 45.056C141.985 45.2693 141.681 45.6213 141.468 46.112C141.254 46.592 141.148 47.2213 141.148 48C141.148 48.7787 141.26 49.4133 141.484 49.904C141.708 50.3947 142.022 50.7467 142.428 50.96C142.833 51.1733 143.324 51.28 143.9 51.28C144.412 51.28 144.838 51.2107 145.18 51.072C145.532 50.9227 145.804 50.72 145.996 50.464C146.198 50.1973 146.342 49.888 146.428 49.536H147.596C147.542 49.9947 147.382 50.432 147.116 50.848C146.849 51.2533 146.444 51.5893 145.9 51.856C145.366 52.1227 144.684 52.256 143.852 52.256ZM150.378 49.056C150.378 48.0533 150.49 47.168 150.714 46.4C150.948 45.632 151.311 45.024 151.802 44.576C152.303 44.1173 152.954 43.888 153.754 43.888H154.042V45.152H153.69C152.932 45.1307 152.34 45.2853 151.914 45.616C151.498 45.936 151.21 46.384 151.05 46.96C150.9 47.5253 150.826 48.224 150.826 49.056H150.378ZM149.546 44H150.81V46.512L150.826 46.768V52H149.546V44ZM159.275 52.256C158.4 52.256 157.659 52.0747 157.051 51.712C156.453 51.3387 156 50.832 155.691 50.192C155.392 49.5413 155.243 48.8053 155.243 47.984C155.243 47.1733 155.392 46.448 155.691 45.808C156 45.168 156.453 44.6667 157.051 44.304C157.659 43.9307 158.4 43.744 159.275 43.744C160.139 43.744 160.875 43.9307 161.483 44.304C162.091 44.6667 162.544 45.168 162.843 45.808C163.141 46.448 163.291 47.1733 163.291 47.984C163.291 48.8053 163.141 49.536 162.843 50.176C162.544 50.816 162.091 51.3227 161.483 51.696C160.875 52.0693 160.139 52.256 159.275 52.256ZM156.539 48C156.539 48.736 156.64 49.344 156.843 49.824C157.045 50.304 157.344 50.656 157.739 50.88C158.144 51.104 158.656 51.216 159.275 51.216C159.883 51.216 160.384 51.104 160.779 50.88C161.184 50.656 161.488 50.304 161.691 49.824C161.893 49.344 161.995 48.736 161.995 48C161.995 47.2533 161.893 46.6453 161.691 46.176C161.488 45.696 161.184 45.344 160.779 45.12C160.384 44.896 159.883 44.784 159.275 44.784C158.656 44.784 158.144 44.896 157.739 45.12C157.344 45.344 157.045 45.696 156.843 46.176C156.64 46.6453 156.539 47.2533 156.539 48ZM168.766 55.376C167.977 55.376 167.305 55.264 166.75 55.04C166.206 54.816 165.78 54.4907 165.47 54.064C165.172 53.6373 165.001 53.12 164.958 52.512H166.222C166.254 52.8747 166.356 53.1947 166.526 53.472C166.708 53.76 166.98 53.9787 167.342 54.128C167.716 54.288 168.19 54.368 168.766 54.368C169.406 54.368 169.918 54.288 170.302 54.128C170.697 53.968 170.985 53.712 171.166 53.36C171.348 53.0187 171.438 52.5653 171.438 52V44H172.718V52.016C172.718 52.752 172.585 53.3653 172.318 53.856C172.062 54.3467 171.641 54.72 171.054 54.976C170.478 55.2427 169.716 55.376 168.766 55.376ZM168.462 51.824C167.641 51.824 166.953 51.664 166.398 51.344C165.854 51.0133 165.444 50.5493 165.166 49.952C164.9 49.344 164.766 48.624 164.766 47.792C164.766 46.5333 165.076 45.552 165.694 44.848C166.313 44.1333 167.236 43.776 168.462 43.776C169.614 43.776 170.478 44.128 171.054 44.832C171.63 45.5253 171.918 46.512 171.918 47.792C171.918 48.688 171.79 49.4347 171.534 50.032C171.289 50.6293 170.91 51.0773 170.398 51.376C169.886 51.6747 169.241 51.824 168.462 51.824ZM168.75 50.816C169.337 50.816 169.828 50.7147 170.222 50.512C170.617 50.2987 170.916 49.9733 171.118 49.536C171.332 49.088 171.438 48.5067 171.438 47.792C171.438 47.088 171.332 46.5173 171.118 46.08C170.916 45.632 170.617 45.3067 170.222 45.104C169.828 44.8907 169.337 44.784 168.75 44.784C168.132 44.784 167.625 44.8907 167.23 45.104C166.846 45.3067 166.553 45.6267 166.35 46.064C166.158 46.5013 166.062 47.0773 166.062 47.792C166.062 48.5067 166.158 49.088 166.35 49.536C166.553 49.984 166.846 50.3093 167.23 50.512C167.625 50.7147 168.132 50.816 168.75 50.816ZM177.462 52.208C176.939 52.208 176.481 52.1227 176.086 51.952C175.691 51.7707 175.382 51.5093 175.158 51.168C174.934 50.816 174.822 50.3893 174.822 49.888C174.822 49.4507 174.902 49.072 175.062 48.752C175.233 48.4213 175.494 48.1547 175.846 47.952C176.209 47.7387 176.678 47.584 177.254 47.488L179.286 47.152C179.713 47.0773 180.017 46.9707 180.198 46.832C180.379 46.6933 180.47 46.4747 180.47 46.176C180.47 45.8773 180.411 45.6267 180.294 45.424C180.177 45.2107 179.974 45.0453 179.686 44.928C179.398 44.8 179.003 44.736 178.502 44.736C177.755 44.736 177.206 44.8907 176.854 45.2C176.513 45.5093 176.321 45.9467 176.278 46.512H174.998C175.019 45.9467 175.163 45.456 175.43 45.04C175.697 44.624 176.086 44.304 176.598 44.08C177.121 43.8453 177.745 43.728 178.47 43.728C179.174 43.728 179.766 43.8347 180.246 44.048C180.726 44.2507 181.078 44.5333 181.302 44.896C181.526 45.2587 181.638 45.6853 181.638 46.176V50.016C181.638 50.3147 181.643 50.6293 181.654 50.96C181.675 51.28 181.702 51.6267 181.734 52H180.582C180.539 51.6693 180.507 51.3493 180.486 51.04C180.475 50.72 180.47 50.416 180.47 50.128C180.353 50.4907 180.171 50.8267 179.926 51.136C179.681 51.4453 179.35 51.7013 178.934 51.904C178.529 52.1067 178.038 52.208 177.462 52.208ZM177.702 51.2C178.31 51.2 178.822 51.0613 179.238 50.784C179.654 50.5067 179.963 50.1387 180.166 49.68C180.369 49.2213 180.47 48.7307 180.47 48.208V47.52C180.299 47.6373 180.118 47.7387 179.926 47.824C179.745 47.8987 179.521 47.9627 179.254 48.016L179.03 48.064L177.702 48.336C177.147 48.4533 176.742 48.6293 176.486 48.864C176.241 49.0987 176.118 49.424 176.118 49.84C176.118 50.2773 176.262 50.6133 176.55 50.848C176.838 51.0827 177.222 51.2 177.702 51.2ZM186.429 52C185.927 52 185.538 51.936 185.261 51.808C184.983 51.6693 184.786 51.4667 184.669 51.2C184.562 50.9333 184.509 50.576 184.509 50.128V45.008H182.973V44.288L184.621 43.888L185.101 42.224H185.789V44H188.429V45.008H185.789V50.96H188.317V52H186.429ZM192.508 52.208C191.985 52.208 191.527 52.1227 191.132 51.952C190.737 51.7707 190.428 51.5093 190.204 51.168C189.98 50.816 189.868 50.3893 189.868 49.888C189.868 49.4507 189.948 49.072 190.108 48.752C190.279 48.4213 190.54 48.1547 190.892 47.952C191.255 47.7387 191.724 47.584 192.3 47.488L194.332 47.152C194.759 47.0773 195.063 46.9707 195.244 46.832C195.425 46.6933 195.516 46.4747 195.516 46.176C195.516 45.8773 195.457 45.6267 195.34 45.424C195.223 45.2107 195.02 45.0453 194.732 44.928C194.444 44.8 194.049 44.736 193.548 44.736C192.801 44.736 192.252 44.8907 191.9 45.2C191.559 45.5093 191.367 45.9467 191.324 46.512H190.044C190.065 45.9467 190.209 45.456 190.476 45.04C190.743 44.624 191.132 44.304 191.644 44.08C192.167 43.8453 192.791 43.728 193.516 43.728C194.22 43.728 194.812 43.8347 195.292 44.048C195.772 44.2507 196.124 44.5333 196.348 44.896C196.572 45.2587 196.684 45.6853 196.684 46.176V50.016C196.684 50.3147 196.689 50.6293 196.7 50.96C196.721 51.28 196.748 51.6267 196.78 52H195.628C195.585 51.6693 195.553 51.3493 195.532 51.04C195.521 50.72 195.516 50.416 195.516 50.128C195.399 50.4907 195.217 50.8267 194.972 51.136C194.727 51.4453 194.396 51.7013 193.98 51.904C193.575 52.1067 193.084 52.208 192.508 52.208ZM192.748 51.2C193.356 51.2 193.868 51.0613 194.284 50.784C194.7 50.5067 195.009 50.1387 195.212 49.68C195.415 49.2213 195.516 48.7307 195.516 48.208V47.52C195.345 47.6373 195.164 47.7387 194.972 47.824C194.791 47.8987 194.567 47.9627 194.3 48.016L194.076 48.064L192.748 48.336C192.193 48.4533 191.788 48.6293 191.532 48.864C191.287 49.0987 191.164 49.424 191.164 49.84C191.164 50.2773 191.308 50.6133 191.596 50.848C191.884 51.0827 192.268 51.2 192.748 51.2Z" fill="black"/>
<rect x="361" y="24" width="24" height="24" fill="#0047CC"/>
<path d="M406.968 30.36C407.704 30.36 408.312 30.4987 408.792 30.776C409.272 31.0427 409.624 31.4107 409.848 31.88C410.072 32.3387 410.184 32.8667 410.184 33.464C410.184 34.0613 410.072 34.5947 409.848 35.064C409.624 35.5333 409.267 35.9067 408.776 36.184C408.285 36.4507 407.661 36.584 406.904 36.584H403.432V41H402.088V30.36H406.968ZM406.632 35.512C407.144 35.512 407.56 35.4267 407.88 35.256C408.2 35.0853 408.429 34.8507 408.568 34.552C408.717 34.2427 408.792 33.88 408.792 33.464C408.792 33.0267 408.723 32.6587 408.584 32.36C408.445 32.0613 408.216 31.832 407.896 31.672C407.587 31.512 407.181 31.432 406.68 31.432H403.432V35.512H406.632ZM415.615 41.256C414.74 41.256 413.999 41.0747 413.391 40.712C412.794 40.3387 412.34 39.832 412.031 39.192C411.732 38.5413 411.583 37.8053 411.583 36.984C411.583 36.1733 411.732 35.448 412.031 34.808C412.34 34.168 412.794 33.6667 413.391 33.304C413.999 32.9307 414.74 32.744 415.615 32.744C416.479 32.744 417.215 32.9307 417.823 33.304C418.431 33.6667 418.884 34.168 419.183 34.808C419.482 35.448 419.631 36.1733 419.631 36.984C419.631 37.8053 419.482 38.536 419.183 39.176C418.884 39.816 418.431 40.3227 417.823 40.696C417.215 41.0693 416.479 41.256 415.615 41.256ZM412.879 37C412.879 37.736 412.98 38.344 413.183 38.824C413.386 39.304 413.684 39.656 414.079 39.88C414.484 40.104 414.996 40.216 415.615 40.216C416.223 40.216 416.724 40.104 417.119 39.88C417.524 39.656 417.828 39.304 418.031 38.824C418.234 38.344 418.335 37.736 418.335 37C418.335 36.2533 418.234 35.6453 418.031 35.176C417.828 34.696 417.524 34.344 417.119 34.12C416.724 33.896 416.223 33.784 415.615 33.784C414.996 33.784 414.484 33.896 414.079 34.12C413.684 34.344 413.386 34.696 413.183 35.176C412.98 35.6453 412.879 36.2533 412.879 37ZM422.499 38.056C422.499 37.0533 422.611 36.168 422.835 35.4C423.07 34.632 423.432 34.024 423.923 33.576C424.424 33.1173 425.075 32.888 425.875 32.888H426.163V34.152H425.811C425.054 34.1307 424.462 34.2853 424.035 34.616C423.619 34.936 423.331 35.384 423.171 35.96C423.022 36.5253 422.947 37.224 422.947 38.056H422.499ZM421.667 33H422.931V35.512L422.947 35.768V41H421.667V33ZM430.34 41C429.838 41 429.449 40.936 429.172 40.808C428.894 40.6693 428.697 40.4667 428.58 40.2C428.473 39.9333 428.42 39.576 428.42 39.128V34.008H426.884V33.288L428.532 32.888L429.012 31.224H429.7V33H432.34V34.008H429.7V39.96H432.228V41H430.34ZM436.419 41.208C435.897 41.208 435.438 41.1227 435.043 40.952C434.649 40.7707 434.339 40.5093 434.115 40.168C433.891 39.816 433.779 39.3893 433.779 38.888C433.779 38.4507 433.859 38.072 434.019 37.752C434.19 37.4213 434.451 37.1547 434.803 36.952C435.166 36.7387 435.635 36.584 436.211 36.488L438.243 36.152C438.67 36.0773 438.974 35.9707 439.155 35.832C439.337 35.6933 439.427 35.4747 439.427 35.176C439.427 34.8773 439.369 34.6267 439.251 34.424C439.134 34.2107 438.931 34.0453 438.643 33.928C438.355 33.8 437.961 33.736 437.459 33.736C436.713 33.736 436.163 33.8907 435.811 34.2C435.47 34.5093 435.278 34.9467 435.235 35.512H433.955C433.977 34.9467 434.121 34.456 434.387 34.04C434.654 33.624 435.043 33.304 435.555 33.08C436.078 32.8453 436.702 32.728 437.427 32.728C438.131 32.728 438.723 32.8347 439.203 33.048C439.683 33.2507 440.035 33.5333 440.259 33.896C440.483 34.2587 440.595 34.6853 440.595 35.176V39.016C440.595 39.3147 440.601 39.6293 440.611 39.96C440.633 40.28 440.659 40.6267 440.691 41H439.539C439.497 40.6693 439.465 40.3493 439.443 40.04C439.433 39.72 439.427 39.416 439.427 39.128C439.31 39.4907 439.129 39.8267 438.883 40.136C438.638 40.4453 438.307 40.7013 437.891 40.904C437.486 41.1067 436.995 41.208 436.419 41.208ZM436.659 40.2C437.267 40.2 437.779 40.0613 438.195 39.784C438.611 39.5067 438.921 39.1387 439.123 38.68C439.326 38.2213 439.427 37.7307 439.427 37.208V36.52C439.257 36.6373 439.075 36.7387 438.883 36.824C438.702 36.8987 438.478 36.9627 438.211 37.016L437.987 37.064L436.659 37.336C436.105 37.4533 435.699 37.6293 435.443 37.864C435.198 38.0987 435.075 38.424 435.075 38.84C435.075 39.2773 435.219 39.6133 435.507 39.848C435.795 40.0827 436.179 40.2 436.659 40.2ZM445.386 41C444.885 41 444.495 40.936 444.218 40.808C443.941 40.6693 443.743 40.4667 443.626 40.2C443.519 39.9333 443.466 39.576 443.466 39.128V34.008H441.93V33.288L443.578 32.888L444.058 31.224H444.746V33H447.386V34.008H444.746V39.96H447.274V41H445.386ZM451.466 41.208C450.943 41.208 450.484 41.1227 450.09 40.952C449.695 40.7707 449.386 40.5093 449.162 40.168C448.938 39.816 448.826 39.3893 448.826 38.888C448.826 38.4507 448.906 38.072 449.066 37.752C449.236 37.4213 449.498 37.1547 449.85 36.952C450.212 36.7387 450.682 36.584 451.258 36.488L453.29 36.152C453.716 36.0773 454.02 35.9707 454.202 35.832C454.383 35.6933 454.474 35.4747 454.474 35.176C454.474 34.8773 454.415 34.6267 454.298 34.424C454.18 34.2107 453.978 34.0453 453.69 33.928C453.402 33.8 453.007 33.736 452.506 33.736C451.759 33.736 451.21 33.8907 450.858 34.2C450.516 34.5093 450.324 34.9467 450.282 35.512H449.002C449.023 34.9467 449.167 34.456 449.434 34.04C449.7 33.624 450.09 33.304 450.602 33.08C451.124 32.8453 451.748 32.728 452.474 32.728C453.178 32.728 453.77 32.8347 454.25 33.048C454.73 33.2507 455.082 33.5333 455.306 33.896C455.53 34.2587 455.642 34.6853 455.642 35.176V39.016C455.642 39.3147 455.647 39.6293 455.658 39.96C455.679 40.28 455.706 40.6267 455.738 41H454.586C454.543 40.6693 454.511 40.3493 454.49 40.04C454.479 39.72 454.474 39.416 454.474 39.128C454.356 39.4907 454.175 39.8267 453.93 40.136C453.684 40.4453 453.354 40.7013 452.938 40.904C452.532 41.1067 452.042 41.208 451.466 41.208ZM451.706 40.2C452.314 40.2 452.826 40.0613 453.242 39.784C453.658 39.5067 453.967 39.1387 454.17 38.68C454.372 38.2213 454.474 37.7307 454.474 37.208V36.52C454.303 36.6373 454.122 36.7387 453.93 36.824C453.748 36.8987 453.524 36.9627 453.258 37.016L453.034 37.064L451.706 37.336C451.151 37.4533 450.746 37.6293 450.49 37.864C450.244 38.0987 450.122 38.424 450.122 38.84C450.122 39.2773 450.266 39.6133 450.554 39.848C450.842 40.0827 451.226 40.2 451.706 40.2ZM465.338 41.256C464.453 41.256 463.711 41.0747 463.114 40.712C462.527 40.3387 462.09 39.832 461.802 39.192C461.514 38.552 461.37 37.816 461.37 36.984C461.37 36.1733 461.519 35.448 461.818 34.808C462.117 34.168 462.559 33.6667 463.146 33.304C463.743 32.9307 464.474 32.744 465.338 32.744C466.127 32.744 466.805 32.9147 467.37 33.256C467.935 33.5867 468.362 34.056 468.65 34.664C468.949 35.2613 469.098 35.9493 469.098 36.728V36.952C469.098 37.0373 469.087 37.1493 469.066 37.288H462.362V36.328H468.394L467.834 36.904C467.866 36.168 467.791 35.5653 467.61 35.096C467.429 34.616 467.146 34.2693 466.762 34.056C466.378 33.832 465.909 33.72 465.354 33.72C464.767 33.72 464.271 33.832 463.866 34.056C463.471 34.2693 463.167 34.6213 462.954 35.112C462.741 35.592 462.634 36.2213 462.634 37C462.634 37.7787 462.746 38.4133 462.97 38.904C463.194 39.3947 463.509 39.7467 463.914 39.96C464.319 40.1733 464.81 40.28 465.386 40.28C465.898 40.28 466.325 40.2107 466.666 40.072C467.018 39.9227 467.29 39.72 467.482 39.464C467.685 39.1973 467.829 38.888 467.914 38.536H469.082C469.029 38.9947 468.869 39.432 468.602 39.848C468.335 40.2533 467.93 40.5893 467.386 40.856C466.853 41.1227 466.17 41.256 465.338 41.256ZM471.864 38.056C471.864 37.0533 471.976 36.168 472.2 35.4C472.435 34.632 472.797 34.024 473.288 33.576C473.789 33.1173 474.44 32.888 475.24 32.888H475.528V34.152H475.176C474.419 34.1307 473.827 34.2853 473.4 34.616C472.984 34.936 472.696 35.384 472.536 35.96C472.387 36.5253 472.312 37.224 472.312 38.056H471.864ZM471.032 33H472.296V35.512L472.312 35.768V41H471.032V33ZM480.761 41.256C479.886 41.256 479.145 41.0747 478.537 40.712C477.939 40.3387 477.486 39.832 477.177 39.192C476.878 38.5413 476.729 37.8053 476.729 36.984C476.729 36.1733 476.878 35.448 477.177 34.808C477.486 34.168 477.939 33.6667 478.537 33.304C479.145 32.9307 479.886 32.744 480.761 32.744C481.625 32.744 482.361 32.9307 482.969 33.304C483.577 33.6667 484.03 34.168 484.329 34.808C484.627 35.448 484.777 36.1733 484.777 36.984C484.777 37.8053 484.627 38.536 484.329 39.176C484.03 39.816 483.577 40.3227 482.969 40.696C482.361 41.0693 481.625 41.256 480.761 41.256ZM478.025 37C478.025 37.736 478.126 38.344 478.329 38.824C478.531 39.304 478.83 39.656 479.225 39.88C479.63 40.104 480.142 40.216 480.761 40.216C481.369 40.216 481.87 40.104 482.265 39.88C482.67 39.656 482.974 39.304 483.177 38.824C483.379 38.344 483.481 37.736 483.481 37C483.481 36.2533 483.379 35.6453 483.177 35.176C482.974 34.696 482.67 34.344 482.265 34.12C481.87 33.896 481.369 33.784 480.761 33.784C480.142 33.784 479.63 33.896 479.225 34.12C478.83 34.344 478.531 34.696 478.329 35.176C478.126 35.6453 478.025 36.2533 478.025 37ZM490.253 44.376C489.463 44.376 488.791 44.264 488.237 44.04C487.693 43.816 487.266 43.4907 486.957 43.064C486.658 42.6373 486.487 42.12 486.445 41.512H487.709C487.741 41.8747 487.842 42.1947 488.013 42.472C488.194 42.76 488.466 42.9787 488.829 43.128C489.202 43.288 489.677 43.368 490.253 43.368C490.893 43.368 491.405 43.288 491.789 43.128C492.183 42.968 492.471 42.712 492.653 42.36C492.834 42.0187 492.925 41.5653 492.925 41V33H494.205V41.016C494.205 41.752 494.071 42.3653 493.805 42.856C493.549 43.3467 493.127 43.72 492.541 43.976C491.965 44.2427 491.202 44.376 490.253 44.376ZM489.949 40.824C489.127 40.824 488.439 40.664 487.885 40.344C487.341 40.0133 486.93 39.5493 486.653 38.952C486.386 38.344 486.253 37.624 486.253 36.792C486.253 35.5333 486.562 34.552 487.181 33.848C487.799 33.1333 488.722 32.776 489.949 32.776C491.101 32.776 491.965 33.128 492.541 33.832C493.117 34.5253 493.405 35.512 493.405 36.792C493.405 37.688 493.277 38.4347 493.021 39.032C492.775 39.6293 492.397 40.0773 491.885 40.376C491.373 40.6747 490.727 40.824 489.949 40.824ZM490.237 39.816C490.823 39.816 491.314 39.7147 491.709 39.512C492.103 39.2987 492.402 38.9733 492.605 38.536C492.818 38.088 492.925 37.5067 492.925 36.792C492.925 36.088 492.818 35.5173 492.605 35.08C492.402 34.632 492.103 34.3067 491.709 34.104C491.314 33.8907 490.823 33.784 490.237 33.784C489.618 33.784 489.111 33.8907 488.717 34.104C488.333 34.3067 488.039 34.6267 487.837 35.064C487.645 35.5013 487.549 36.0773 487.549 36.792C487.549 37.5067 487.645 38.088 487.837 38.536C488.039 38.984 488.333 39.3093 488.717 39.512C489.111 39.7147 489.618 39.816 490.237 39.816ZM498.948 41.208C498.425 41.208 497.967 41.1227 497.572 40.952C497.177 40.7707 496.868 40.5093 496.644 40.168C496.42 39.816 496.308 39.3893 496.308 38.888C496.308 38.4507 496.388 38.072 496.548 37.752C496.719 37.4213 496.98 37.1547 497.332 36.952C497.695 36.7387 498.164 36.584 498.74 36.488L500.772 36.152C501.199 36.0773 501.503 35.9707 501.684 35.832C501.865 35.6933 501.956 35.4747 501.956 35.176C501.956 34.8773 501.897 34.6267 501.78 34.424C501.663 34.2107 501.46 34.0453 501.172 33.928C500.884 33.8 500.489 33.736 499.988 33.736C499.241 33.736 498.692 33.8907 498.34 34.2C497.999 34.5093 497.807 34.9467 497.764 35.512H496.484C496.505 34.9467 496.649 34.456 496.916 34.04C497.183 33.624 497.572 33.304 498.084 33.08C498.607 32.8453 499.231 32.728 499.956 32.728C500.66 32.728 501.252 32.8347 501.732 33.048C502.212 33.2507 502.564 33.5333 502.788 33.896C503.012 34.2587 503.124 34.6853 503.124 35.176V39.016C503.124 39.3147 503.129 39.6293 503.14 39.96C503.161 40.28 503.188 40.6267 503.22 41H502.068C502.025 40.6693 501.993 40.3493 501.972 40.04C501.961 39.72 501.956 39.416 501.956 39.128C501.839 39.4907 501.657 39.8267 501.412 40.136C501.167 40.4453 500.836 40.7013 500.42 40.904C500.015 41.1067 499.524 41.208 498.948 41.208ZM499.188 40.2C499.796 40.2 500.308 40.0613 500.724 39.784C501.14 39.5067 501.449 39.1387 501.652 38.68C501.855 38.2213 501.956 37.7307 501.956 37.208V36.52C501.785 36.6373 501.604 36.7387 501.412 36.824C501.231 36.8987 501.007 36.9627 500.74 37.016L500.516 37.064L499.188 37.336C498.633 37.4533 498.228 37.6293 497.972 37.864C497.727 38.0987 497.604 38.424 497.604 38.84C497.604 39.2773 497.748 39.6133 498.036 39.848C498.324 40.0827 498.708 40.2 499.188 40.2ZM507.915 41C507.413 41 507.024 40.936 506.747 40.808C506.469 40.6693 506.272 40.4667 506.155 40.2C506.048 39.9333 505.995 39.576 505.995 39.128V34.008H504.459V33.288L506.107 32.888L506.587 31.224H507.275V33H509.915V34.008H507.275V39.96H509.803V41H507.915ZM513.994 41.208C513.472 41.208 513.013 41.1227 512.618 40.952C512.224 40.7707 511.914 40.5093 511.69 40.168C511.466 39.816 511.354 39.3893 511.354 38.888C511.354 38.4507 511.434 38.072 511.594 37.752C511.765 37.4213 512.026 37.1547 512.378 36.952C512.741 36.7387 513.21 36.584 513.786 36.488L515.818 36.152C516.245 36.0773 516.549 35.9707 516.73 35.832C516.912 35.6933 517.002 35.4747 517.002 35.176C517.002 34.8773 516.944 34.6267 516.826 34.424C516.709 34.2107 516.506 34.0453 516.218 33.928C515.93 33.8 515.536 33.736 515.034 33.736C514.288 33.736 513.738 33.8907 513.386 34.2C513.045 34.5093 512.853 34.9467 512.81 35.512H511.53C511.552 34.9467 511.696 34.456 511.962 34.04C512.229 33.624 512.618 33.304 513.13 33.08C513.653 32.8453 514.277 32.728 515.002 32.728C515.706 32.728 516.298 32.8347 516.778 33.048C517.258 33.2507 517.61 33.5333 517.834 33.896C518.058 34.2587 518.17 34.6853 518.17 35.176V39.016C518.17 39.3147 518.176 39.6293 518.186 39.96C518.208 40.28 518.234 40.6267 518.266 41H517.114C517.072 40.6693 517.04 40.3493 517.018 40.04C517.008 39.72 517.002 39.416 517.002 39.128C516.885 39.4907 516.704 39.8267 516.458 40.136C516.213 40.4453 515.882 40.7013 515.466 40.904C515.061 41.1067 514.57 41.208 513.994 41.208ZM514.234 40.2C514.842 40.2 515.354 40.0613 515.77 39.784C516.186 39.5067 516.496 39.1387 516.698 38.68C516.901 38.2213 517.002 37.7307 517.002 37.208V36.52C516.832 36.6373 516.65 36.7387 516.458 36.824C516.277 36.8987 516.053 36.9627 515.786 37.016L515.562 37.064L514.234 37.336C513.68 37.4533 513.274 37.6293 513.018 37.864C512.773 38.0987 512.65 38.424 512.65 38.84C512.65 39.2773 512.794 39.6133 513.082 39.848C513.37 40.0827 513.754 40.2 514.234 40.2Z" fill="black"/>
</svg>
