<?xml version="1.0" encoding="utf-8"?>
<!-- Generator: Adobe Illustrator 25.2.0, SVG Export Plug-In . SVG Version: 6.00 Build 0)  -->
<svg version="1.1" id="Livello_1" xmlns="http://www.w3.org/2000/svg" xmlns:xlink="http://www.w3.org/1999/xlink" x="0px" y="0px"
	 viewBox="0 0 273.7 68.3" style="enable-background:new 0 0 273.7 68.3;" xml:space="preserve">
<style type="text/css">
	.st0{fill:#E6EBFA;}
	.st1{fill:#E5EAFA;}
	.st2{fill:#E4E9FA;}
	.st3{fill:#E2E8F9;}
	.st4{fill:#E1E8F9;}
	.st5{fill:#E0E7F9;}
	.st6{fill:#DFE6F9;}
	.st7{fill:#DDE5F8;}
	.st8{fill:#DCE4F8;}
	.st9{fill:#DBE3F8;}
	.st10{fill:#DAE2F8;}
	.st11{fill:#D9E1F7;}
	.st12{fill:#D7E1F7;}
	.st13{fill:#D6E0F7;}
	.st14{fill:#D5DFF7;}
	.st15{fill:#D4DEF6;}
	.st16{fill:#D3DDF6;}
	.st17{fill:#D1DCF6;}
	.st18{fill:#D0DBF6;}
	.st19{fill:#CFDBF5;}
	.st20{fill:#CEDAF5;}
	.st21{fill:#CCD9F5;}
	.st22{fill:#CBD8F5;}
	.st23{fill:#CAD7F4;}
	.st24{fill:#C9D6F4;}
	.st25{fill:#C8D5F4;}
	.st26{fill:#C6D4F4;}
	.st27{fill:#C5D4F3;}
	.st28{fill:#C4D3F3;}
	.st29{fill:#C3D2F3;}
	.st30{fill:#C1D1F3;}
	.st31{fill:#C0D0F2;}
	.st32{fill:#BFCFF2;}
	.st33{fill:#BECEF2;}
	.st34{fill:#BDCDF2;}
	.st35{fill:#BBCDF1;}
	.st36{fill:#BACCF1;}
	.st37{fill:#B9CBF1;}
	.st38{fill:#B8CAF1;}
	.st39{fill:#B7C9F1;}
	.st40{fill:#B5C8F0;}
	.st41{fill:#B4C7F0;}
	.st42{fill:#B3C7F0;}
	.st43{fill:#B2C6F0;}
	.st44{fill:#B0C5EF;}
	.st45{fill:#AFC4EF;}
	.st46{fill:#AEC3EF;}
	.st47{fill:#ADC2EF;}
	.st48{fill:#ACC1EE;}
	.st49{fill:#AAC0EE;}
	.st50{fill:#A9C0EE;}
	.st51{fill:#A8BFEE;}
	.st52{fill:#A7BEED;}
	.st53{fill:#A6BDED;}
	.st54{fill:#A4BCED;}
	.st55{fill:#A3BBED;}
	.st56{fill:#A2BAEC;}
	.st57{fill:#A1BAEC;}
	.st58{fill:#9FB9EC;}
	.st59{fill:#9EB8EC;}
	.st60{fill:#9DB7EB;}
	.st61{fill:#9CB6EB;}
	.st62{fill:#9BB5EB;}
	.st63{fill:#99B4EB;}
	.st64{fill:#98B3EA;}
	.st65{fill:#97B3EA;}
	.st66{fill:#96B2EA;}
	.st67{fill:#94B1EA;}
	.st68{fill:#93B0E9;}
	.st69{fill:#92AFE9;}
	.st70{fill:#91AEE9;}
	.st71{fill:#90ADE9;}
	.st72{fill:#8EADE8;}
	.st73{fill:#8DACE8;}
	.st74{fill:#8CABE8;}
	.st75{fill:#8BAAE8;}
	.st76{fill:#8AA9E8;}
	.st77{fill:#88A8E7;}
	.st78{fill:#87A7E7;}
	.st79{fill:#86A6E7;}
	.st80{fill:#85A6E7;}
	.st81{fill:#83A5E6;}
	.st82{fill:#82A4E6;}
	.st83{fill:#81A3E6;}
	.st84{fill:#80A2E6;}
	.st85{fill:#7FA1E5;}
	.st86{fill:#7DA0E5;}
	.st87{fill:#7CA0E5;}
	.st88{fill:#7B9FE5;}
	.st89{fill:#7A9EE4;}
	.st90{fill:#789DE4;}
	.st91{fill:#779CE4;}
	.st92{fill:#769BE4;}
	.st93{fill:#759AE3;}
	.st94{fill:#7499E3;}
	.st95{fill:#7299E3;}
	.st96{fill:#7198E3;}
	.st97{fill:#7097E2;}
	.st98{fill:#6F96E2;}
	.st99{fill:#6E95E2;}
	.st100{fill:#6C94E2;}
	.st101{fill:#6B93E1;}
	.st102{fill:#6A92E1;}
	.st103{fill:#6992E1;}
	.st104{fill:#6791E1;}
	.st105{fill:#6690E0;}
	.st106{fill:#658FE0;}
	.st107{fill:#648EE0;}
	.st108{fill:#638DE0;}
	.st109{fill:#618CDF;}
	.st110{fill:#608CDF;}
	.st111{fill:#5F8BDF;}
	.st112{fill:#5E8ADF;}
	.st113{fill:#5C89DE;}
	.st114{fill:#5B88DE;}
	.st115{fill:#5A87DE;}
	.st116{fill:#5986DE;}
	.st117{fill:#5885DE;}
	.st118{fill:#5685DD;}
	.st119{fill:#5584DD;}
	.st120{fill:#5483DD;}
	.st121{fill:#5382DD;}
	.st122{fill:#5281DC;}
	.st123{fill:#5080DC;}
	.st124{fill:#4F7FDC;}
	.st125{fill:#4E7FDC;}
	.st126{fill:#4D7EDB;}
	.st127{fill:#4B7DDB;}
	.st128{fill:#4A7CDB;}
	.st129{fill:#497BDB;}
	.st130{fill:#487ADA;}
	.st131{fill:#4779DA;}
	.st132{fill:#4578DA;}
	.st133{fill:#4478DA;}
	.st134{fill:#4377D9;}
	.st135{fill:#4276D9;}
	.st136{fill:#4075D9;}
	.st137{fill:#3F74D9;}
	.st138{fill:#3E73D8;}
	.st139{fill:#3D72D8;}
	.st140{fill:#3C72D8;}
	.st141{fill:#3A71D8;}
	.st142{fill:#3970D7;}
	.st143{fill:#386FD7;}
	.st144{fill:#376ED7;}
	.st145{fill:#366DD7;}
	.st146{fill:#346CD6;}
	.st147{fill:#336BD6;}
	.st148{fill:#326BD6;}
	.st149{fill:#316AD6;}
	.st150{fill:#2F69D5;}
	.st151{fill:#2E68D5;}
	.st152{fill:#2D67D5;}
	.st153{fill:#2C66D5;}
	.st154{fill:#2B65D5;}
	.st155{fill:#2965D4;}
	.st156{fill:#2864D4;}
	.st157{fill:#2763D4;}
	.st158{fill:#2662D4;}
	.st159{fill:#2561D3;}
	.st160{fill:#2360D3;}
	.st161{fill:#225FD3;}
	.st162{fill:#215ED3;}
	.st163{fill:#205ED2;}
	.st164{fill:#1E5DD2;}
	.st165{fill:#1D5CD2;}
	.st166{fill:#1C5BD2;}
	.st167{fill:#1B5AD1;}
	.st168{fill:#1A59D1;}
	.st169{fill:#1858D1;}
	.st170{fill:#1757D1;}
	.st171{fill:#1657D0;}
	.st172{fill:#1556D0;}
	.st173{fill:#1355D0;}
	.st174{fill:#1254D0;}
	.st175{fill:#1153CF;}
	.st176{fill:#1052CF;}
	.st177{fill:#0F51CF;}
	.st178{fill:#0D51CF;}
	.st179{fill:#0C50CE;}
	.st180{fill:#0B4FCE;}
	.st181{fill:#0A4ECE;}
	.st182{fill:#094DCE;}
	.st183{fill:#074CCD;}
	.st184{fill:#064BCD;}
	.st185{fill:#054ACD;}
	.st186{fill:#044ACD;}
	.st187{fill:#0249CC;}
	.st188{fill:#0148CC;}
	.st189{fill:#0047CC;}
</style>
<g>
	<g>
		<path class="st0" d="M17,12.9h-1.2v11.2H17V12.9z"/>
		<path class="st1" d="M18.3,12.9H17v11.2h1.3V12.9z"/>
		<path class="st2" d="M19.6,12.9h-1.3v11.2h1.3V12.9z"/>
		<path class="st3" d="M20.9,12.9h-1.3v11.2h1.3C20.9,24.1,20.9,12.9,20.9,12.9z"/>
		<path class="st4" d="M22.1,12.9h-1.2v11.2h1.3L22.1,12.9L22.1,12.9z"/>
		<path class="st5" d="M23.4,12.9h-1.3v11.2h1.3V12.9z"/>
		<path class="st6" d="M24.7,12.9h-1.3v11.2h1.3V12.9z"/>
		<path class="st7" d="M26,12.9h-1.3v11.2H26V12.9z"/>
		<path class="st8" d="M27.3,12.9H26v11.2h1.3V12.9z"/>
		<path class="st9" d="M28.5,12.9h-1.3v11.2h1.3V12.9z"/>
		<path class="st10" d="M29.8,12.9h-1.3v11.2h1.3V12.9z"/>
		<path class="st11" d="M31.1,12.9h-1.3v11.2h1.3V12.9z"/>
		<path class="st12" d="M32.4,12.9h-1.3v11.2h1.3V12.9z"/>
		<path class="st13" d="M33.7,12.9h-1.3v11.2h1.3V12.9z"/>
		<path class="st14" d="M34.9,12.9h-1.3v11.2h1.3V12.9z"/>
		<path class="st15" d="M36.2,12.9h-1.3v11.2h1.3V12.9z"/>
		<path class="st16" d="M37.5,12.9h-1.3v11.2h1.3V12.9z"/>
		<path class="st17" d="M38.8,12.9h-1.3v11.2h1.3V12.9z"/>
		<path class="st18" d="M40.1,12.9h-1.3v11.2h1.3V12.9z"/>
		<path class="st19" d="M41.3,12.9H40v11.2h1.3V12.9z"/>
		<path class="st20" d="M42.6,12.9h-1.3v11.2h1.3V12.9z"/>
		<path class="st21" d="M43.9,12.9h-1.3v11.2h1.3V12.9z"/>
		<path class="st22" d="M45.2,12.9h-1.3v11.2h1.3V12.9z"/>
		<path class="st23" d="M46.4,12.9h-1.3v11.2h1.3V12.9z"/>
		<path class="st24" d="M47.7,12.9h-1.3v11.2h1.3V12.9z"/>
		<path class="st25" d="M49,12.9h-1.3v11.2H49V12.9z"/>
		<path class="st26" d="M50.3,12.9H49v11.2h1.3V12.9z"/>
		<path class="st27" d="M51.6,12.9h-1.3v11.2h1.3V12.9z"/>
		<path class="st28" d="M52.8,12.9h-1.3v11.2h1.3V12.9z"/>
		<path class="st29" d="M54.1,12.9h-1.3v11.2h1.3V12.9z"/>
		<path class="st30" d="M55.4,12.9h-1.3v11.2h1.3V12.9z"/>
		<path class="st31" d="M56.7,12.9h-1.3v11.2h1.3V12.9z"/>
		<path class="st32" d="M58,12.9h-1.3v11.2H58V12.9z"/>
		<path class="st33" d="M59.2,12.9H58v11.2h1.3L59.2,12.9L59.2,12.9z"/>
		<path class="st34" d="M60.5,12.9h-1.3v11.2h1.3V12.9z"/>
		<path class="st35" d="M61.8,12.9h-1.3v11.2h1.3V12.9z"/>
		<path class="st36" d="M63.1,12.9h-1.3v11.2h1.3V12.9z"/>
		<path class="st37" d="M64.4,12.9h-1.3v11.2h1.3V12.9z"/>
		<path class="st38" d="M65.6,12.9h-1.3v11.2h1.3V12.9z"/>
		<path class="st39" d="M66.9,12.9h-1.3v11.2h1.3V12.9z"/>
		<path class="st40" d="M68.2,12.9h-1.3v11.2h1.3V12.9z"/>
		<path class="st41" d="M69.5,12.9h-1.3v11.2h1.3V12.9z"/>
		<path class="st42" d="M70.7,12.9h-1.3v11.2h1.3V12.9z"/>
		<path class="st43" d="M72,12.9h-1.3v11.2H72V12.9z"/>
		<path class="st44" d="M73.3,12.9H72v11.2h1.3V12.9z"/>
		<path class="st45" d="M74.6,12.9h-1.3v11.2h1.3V12.9z"/>
		<path class="st46" d="M75.9,12.9h-1.3v11.2h1.3V12.9z"/>
		<path class="st47" d="M77.1,12.9h-1.3v11.2h1.3V12.9z"/>
		<path class="st48" d="M78.4,12.9h-1.3v11.2h1.3V12.9z"/>
		<path class="st49" d="M79.7,12.9h-1.3v11.2h1.3V12.9z"/>
		<path class="st50" d="M81,12.9h-1.3v11.2H81V12.9z"/>
		<path class="st51" d="M82.3,12.9H81v11.2h1.3V12.9z"/>
		<path class="st52" d="M83.5,12.9h-1.3v11.2h1.3V12.9z"/>
		<path class="st53" d="M84.8,12.9h-1.3v11.2h1.3V12.9z"/>
		<path class="st54" d="M86.1,12.9h-1.3v11.2h1.3V12.9z"/>
		<path class="st55" d="M87.4,12.9h-1.3v11.2h1.3V12.9z"/>
		<path class="st56" d="M88.7,12.9h-1.3v11.2h1.3V12.9z"/>
		<path class="st57" d="M89.9,12.9h-1.3v11.2h1.3V12.9z"/>
		<path class="st58" d="M91.2,12.9h-1.3v11.2h1.3V12.9z"/>
		<path class="st59" d="M92.5,12.9h-1.3v11.2h1.3V12.9z"/>
		<path class="st60" d="M93.8,12.9h-1.3v11.2h1.3V12.9z"/>
		<path class="st61" d="M95,12.9h-1.3v11.2H95V12.9z"/>
		<path class="st62" d="M96.3,12.9H95v11.2h1.3V12.9z"/>
		<path class="st63" d="M97.6,12.9h-1.3v11.2h1.3V12.9z"/>
		<path class="st64" d="M98.9,12.9h-1.3v11.2h1.3V12.9z"/>
		<path class="st65" d="M100.2,12.9h-1.3v11.2h1.3V12.9z"/>
		<path class="st66" d="M101.4,12.9h-1.3v11.2h1.3V12.9z"/>
		<path class="st67" d="M102.7,12.9h-1.3v11.2h1.3V12.9z"/>
		<path class="st68" d="M104,12.9h-1.3v11.2h1.3V12.9z"/>
		<path class="st69" d="M105.3,12.9H104v11.2h1.3V12.9z"/>
		<path class="st70" d="M106.6,12.9h-1.3v11.2h1.3V12.9z"/>
		<path class="st71" d="M107.8,12.9h-1.3v11.2h1.3V12.9z"/>
		<path class="st72" d="M109.1,12.9h-1.3v11.2h1.3V12.9z"/>
		<path class="st73" d="M110.4,12.9h-1.3v11.2h1.3V12.9z"/>
		<path class="st74" d="M111.7,12.9h-1.3v11.2h1.3V12.9z"/>
		<path class="st75" d="M113,12.9h-1.3v11.2h1.3V12.9z"/>
		<path class="st76" d="M114.2,12.9H113v11.2h1.3V12.9H114.2z"/>
		<path class="st77" d="M115.5,12.9h-1.3v11.2h1.3V12.9z"/>
		<path class="st78" d="M116.8,12.9h-1.3v11.2h1.3V12.9z"/>
		<path class="st79" d="M118.1,12.9h-1.3v11.2h1.3V12.9z"/>
		<path class="st80" d="M119.3,12.9H118v11.2h1.3V12.9z"/>
		<path class="st81" d="M120.6,12.9h-1.3v11.2h1.3V12.9z"/>
		<path class="st82" d="M121.9,12.9h-1.3v11.2h1.3V12.9z"/>
		<path class="st83" d="M123.2,12.9h-1.3v11.2h1.3V12.9z"/>
		<path class="st84" d="M124.5,12.9h-1.3v11.2h1.3V12.9z"/>
		<path class="st85" d="M125.7,12.9h-1.3v11.2h1.3V12.9z"/>
		<path class="st86" d="M127,12.9h-1.3v11.2h1.3V12.9z"/>
		<path class="st87" d="M128.2,12.9H127v11.2h1.3V12.9H128.2z"/>
		<path class="st88" d="M129.6,12.9h-1.3v11.2h1.3V12.9z"/>
		<path class="st89" d="M130.9,12.9h-1.3v11.2h1.3V12.9z"/>
		<path class="st90" d="M132.1,12.9h-1.3v11.2h1.3V12.9z"/>
		<path class="st91" d="M133.4,12.9h-1.3v11.2h1.3V12.9z"/>
		<path class="st92" d="M134.7,12.9h-1.3v11.2h1.3V12.9z"/>
		<path class="st93" d="M136,12.9h-1.3v11.2h1.3V12.9z"/>
		<path class="st94" d="M137.2,12.9h-1.3v11.2h1.3V12.9z"/>
		<path class="st95" d="M138.5,12.9h-1.3v11.2h1.3V12.9z"/>
		<path class="st96" d="M139.8,12.9h-1.3v11.2h1.3V12.9z"/>
		<path class="st97" d="M141.1,12.9h-1.3v11.2h1.3V12.9z"/>
		<path class="st98" d="M142.4,12.9h-1.3v11.2h1.3V12.9z"/>
		<path class="st99" d="M143.6,12.9h-1.3v11.2h1.3V12.9z"/>
		<path class="st100" d="M144.9,12.9h-1.3v11.2h1.3V12.9z"/>
		<path class="st101" d="M146.2,12.9h-1.3v11.2h1.3V12.9z"/>
		<path class="st102" d="M147.5,12.9h-1.3v11.2h1.3V12.9z"/>
		<path class="st103" d="M148.8,12.9h-1.3v11.2h1.3V12.9z"/>
		<path class="st104" d="M150,12.9h-1.3v11.2h1.3V12.9z"/>
		<path class="st105" d="M151.2,12.9h-1.3v11.2h1.3V12.9z"/>
		<path class="st106" d="M152.6,12.9h-1.3v11.2h1.3V12.9z"/>
		<path class="st107" d="M153.9,12.9h-1.3v11.2h1.3V12.9z"/>
		<path class="st108" d="M155.2,12.9h-1.3v11.2h1.3V12.9z"/>
		<path class="st109" d="M156.4,12.9h-1.3v11.2h1.3V12.9z"/>
		<path class="st110" d="M157.7,12.9h-1.3v11.2h1.3V12.9z"/>
		<path class="st111" d="M159,12.9h-1.3v11.2h1.3V12.9z"/>
		<path class="st112" d="M160.2,12.9h-1.3v11.2h1.3V12.9z"/>
		<path class="st113" d="M161.6,12.9h-1.3v11.2h1.3V12.9z"/>
		<path class="st114" d="M162.8,12.9h-1.3v11.2h1.3V12.9z"/>
		<path class="st115" d="M164.1,12.9h-1.3v11.2h1.3V12.9z"/>
		<path class="st116" d="M165.4,12.9h-1.3v11.2h1.3V12.9z"/>
		<path class="st117" d="M166.7,12.9h-1.3v11.2h1.3V12.9z"/>
		<path class="st118" d="M167.9,12.9h-1.3v11.2h1.3V12.9z"/>
		<path class="st119" d="M169.2,12.9h-1.3v11.2h1.3V12.9z"/>
		<path class="st120" d="M170.5,12.9h-1.3v11.2h1.3V12.9z"/>
		<path class="st121" d="M171.8,12.9h-1.3v11.2h1.3V12.9z"/>
		<path class="st122" d="M173.1,12.9h-1.3v11.2h1.3V12.9z"/>
		<path class="st123" d="M174.2,12.9h-1.3v11.2h1.3V12.9z"/>
		<path class="st124" d="M175.6,12.9h-1.3v11.2h1.3V12.9z"/>
		<path class="st125" d="M176.9,12.9h-1.3v11.2h1.3V12.9z"/>
		<path class="st126" d="M178.2,12.9h-1.3v11.2h1.3V12.9z"/>
		<path class="st127" d="M179.5,12.9h-1.3v11.2h1.3V12.9z"/>
		<path class="st128" d="M180.7,12.9h-1.3v11.2h1.3V12.9z"/>
		<path class="st129" d="M182,12.9h-1.3v11.2h1.3V12.9z"/>
		<path class="st130" d="M183.2,12.9h-1.3v11.2h1.3V12.9z"/>
		<path class="st131" d="M184.6,12.9h-1.3v11.2h1.3V12.9z"/>
		<path class="st132" d="M185.9,12.9h-1.3v11.2h1.3V12.9z"/>
		<path class="st133" d="M187.1,12.9h-1.3v11.2h1.3V12.9z"/>
		<path class="st134" d="M188.4,12.9h-1.3v11.2h1.3V12.9z"/>
		<path class="st135" d="M189.7,12.9h-1.3v11.2h1.3V12.9z"/>
		<path class="st136" d="M191,12.9h-1.3v11.2h1.3V12.9z"/>
		<path class="st137" d="M192.2,12.9H191v11.2h1.3V12.9H192.2z"/>
		<path class="st138" d="M193.5,12.9h-1.3v11.2h1.3V12.9z"/>
		<path class="st139" d="M194.8,12.9h-1.3v11.2h1.3V12.9z"/>
		<path class="st140" d="M196.1,12.9h-1.3v11.2h1.3V12.9z"/>
		<path class="st141" d="M197.4,12.9h-1.3v11.2h1.3V12.9z"/>
		<path class="st142" d="M198.6,12.9h-1.3v11.2h1.3V12.9z"/>
		<path class="st143" d="M199.9,12.9h-1.3v11.2h1.3V12.9z"/>
		<path class="st144" d="M201.2,12.9h-1.3v11.2h1.3V12.9z"/>
		<path class="st145" d="M202.5,12.9h-1.3v11.2h1.3V12.9z"/>
		<path class="st146" d="M203.8,12.9h-1.3v11.2h1.3V12.9z"/>
		<path class="st147" d="M205,12.9h-1.3v11.2h1.3V12.9z"/>
		<path class="st148" d="M206.2,12.9h-1.3v11.2h1.3V12.9z"/>
		<path class="st149" d="M207.6,12.9h-1.3v11.2h1.3V12.9z"/>
		<path class="st150" d="M208.9,12.9h-1.3v11.2h1.3V12.9z"/>
		<path class="st151" d="M210.2,12.9h-1.3v11.2h1.3V12.9z"/>
		<path class="st152" d="M211.4,12.9h-1.3v11.2h1.3V12.9z"/>
		<path class="st153" d="M212.7,12.9h-1.3v11.2h1.3V12.9z"/>
		<path class="st154" d="M214,12.9h-1.3v11.2h1.3V12.9z"/>
		<path class="st155" d="M215.2,12.9h-1.3v11.2h1.3V12.9z"/>
		<path class="st156" d="M216.5,12.9h-1.3v11.2h1.3V12.9z"/>
		<path class="st157" d="M217.8,12.9h-1.3v11.2h1.3V12.9z"/>
		<path class="st158" d="M219.1,12.9h-1.3v11.2h1.3V12.9z"/>
		<path class="st159" d="M220.4,12.9h-1.3v11.2h1.3V12.9z"/>
		<path class="st160" d="M221.7,12.9h-1.3v11.2h1.3V12.9z"/>
		<path class="st161" d="M222.9,12.9h-1.3v11.2h1.3V12.9z"/>
		<path class="st162" d="M224.2,12.9h-1.3v11.2h1.3V12.9z"/>
		<path class="st163" d="M225.5,12.9h-1.3v11.2h1.3V12.9z"/>
		<path class="st164" d="M226.8,12.9h-1.3v11.2h1.3V12.9z"/>
		<path class="st165" d="M228.1,12.9h-1.3v11.2h1.3V12.9z"/>
		<path class="st166" d="M229.2,12.9h-1.3v11.2h1.3V12.9z"/>
		<path class="st167" d="M230.6,12.9h-1.3v11.2h1.3V12.9z"/>
		<path class="st168" d="M231.9,12.9h-1.3v11.2h1.3V12.9z"/>
		<path class="st169" d="M233.2,12.9h-1.3v11.2h1.3V12.9z"/>
		<path class="st170" d="M234.5,12.9h-1.3v11.2h1.3V12.9z"/>
		<path class="st171" d="M235.7,12.9h-1.3v11.2h1.3V12.9z"/>
		<path class="st172" d="M237,12.9h-1.3v11.2h1.3V12.9z"/>
		<path class="st173" d="M238.2,12.9h-1.3v11.2h1.3V12.9z"/>
		<path class="st174" d="M239.6,12.9h-1.3v11.2h1.3V12.9z"/>
		<path class="st175" d="M240.8,12.9h-1.3v11.2h1.3V12.9z"/>
		<path class="st176" d="M242.1,12.9h-1.3v11.2h1.3V12.9z"/>
		<path class="st177" d="M243.4,12.9h-1.3v11.2h1.3V12.9z"/>
		<path class="st178" d="M244.7,12.9h-1.3v11.2h1.3V12.9z"/>
		<path class="st179" d="M246,12.9h-1.3v11.2h1.3V12.9z"/>
		<path class="st180" d="M247.2,12.9H246v11.2h1.3V12.9H247.2z"/>
		<path class="st181" d="M248.5,12.9h-1.3v11.2h1.3V12.9z"/>
		<path class="st182" d="M249.8,12.9h-1.3v11.2h1.3V12.9z"/>
		<path class="st183" d="M251.1,12.9h-1.3v11.2h1.3V12.9z"/>
		<path class="st184" d="M252.4,12.9h-1.3v11.2h1.3V12.9z"/>
		<path class="st185" d="M253.6,12.9h-1.3v11.2h1.3V12.9z"/>
		<path class="st186" d="M254.9,12.9h-1.3v11.2h1.3V12.9z"/>
		<path class="st187" d="M256.1,12.9h-1.3v11.2h1.3V12.9z"/>
		<path class="st188" d="M257.5,12.9h-1.3v11.2h1.3V12.9z"/>
		<path class="st189" d="M258.8,12.9h-1.3v11.2h1.3V12.9z"/>
	</g>
	<g>
		<g>
			<path d="M173.5,43.4c0.2,0.4,0.6,0.7,1,0.9s0.9,0.4,1.5,0.4c0.9,0,1.7-0.2,2.1-0.6c0.5-0.4,0.7-1.1,0.7-1.9
				c0-0.7-0.2-1.2-0.6-1.7c-0.4-0.4-1-0.6-1.7-0.6c-0.4,0-0.7,0-1,0.1s-0.6,0.2-0.9,0.5l-0.6-0.8l4.2-3.6h-6V35h7.6v1.1l-3.7,3.3
				c0.3-0.1,0.7-0.1,1.1-0.1c0.5,0,1.1,0.1,1.5,0.3c0.5,0.2,0.8,0.6,1.1,1c0.3,0.5,0.4,1,0.4,1.7c0,0.6-0.1,1.2-0.4,1.8
				s-0.8,1-1.4,1.3c-0.6,0.3-1.5,0.5-2.5,0.5c-0.9,0-1.7-0.2-2.3-0.5s-1.1-0.8-1.4-1.3c-0.3-0.6-0.5-1.2-0.5-1.9h1.4
				C173.2,42.5,173.2,43,173.5,43.4z"/>
			<path d="M183.9,45.2c-0.6-0.4-1.1-0.9-1.5-1.8c-0.4-0.8-0.5-1.9-0.5-3.1c0-1.2,0.2-2.2,0.5-3.1c0.3-0.9,0.9-1.5,1.5-2
				s1.5-0.7,2.5-0.7c0.8,0,1.5,0.1,2,0.4c0.5,0.2,0.9,0.6,1.2,1s0.5,1,0.6,1.6h-1.3c-0.1-0.4-0.2-0.7-0.4-1s-0.5-0.5-0.8-0.7
				s-0.8-0.2-1.3-0.2c-1.1,0-1.9,0.4-2.5,1.2c-0.5,0.8-0.8,2-0.8,3.8v1l-0.3-0.2c0.2-0.8,0.6-1.4,1.3-1.9s1.5-0.7,2.4-0.7
				c0.7,0,1.3,0.1,1.9,0.4c0.6,0.3,1,0.6,1.3,1.1s0.5,1.1,0.5,1.8s-0.2,1.3-0.5,1.8s-0.8,1-1.4,1.3s-1.3,0.5-2.2,0.5
				C185.2,45.8,184.5,45.6,183.9,45.2z M188.1,44c0.4-0.4,0.7-1,0.7-1.8s-0.2-1.4-0.7-1.8c-0.4-0.4-1.1-0.7-1.9-0.7
				c-0.6,0-1,0.1-1.5,0.3c-0.4,0.2-0.8,0.5-1,0.8c-0.2,0.4-0.4,0.8-0.4,1.3c0,0.7,0.2,1.3,0.7,1.8s1.1,0.7,2,0.7
				C187,44.7,187.7,44.5,188.1,44z"/>
			<path d="M192,44.4h2.5v-8.5H192v-1.1h2.3c0.5,0,0.9,0.1,1.2,0.3c0.2,0.2,0.3,0.6,0.3,1v8.2h2.3v1.1H192V44.4z"/>
			<path d="M201,43.4c0.2,0.4,0.6,0.7,1,0.9s0.9,0.4,1.5,0.4c0.9,0,1.7-0.2,2.1-0.6c0.5-0.4,0.7-1.1,0.7-1.9c0-0.7-0.2-1.2-0.6-1.7
				c-0.4-0.4-1-0.6-1.7-0.6c-0.4,0-0.7,0-1,0.1s-0.6,0.2-0.9,0.5l-0.6-0.8l4.2-3.6h-6V35h7.6v1.1l-3.7,3.3c0.3-0.1,0.7-0.1,1.1-0.1
				c0.5,0,1.1,0.1,1.5,0.3c0.5,0.2,0.8,0.6,1.1,1c0.3,0.5,0.4,1,0.4,1.7c0,0.6-0.1,1.2-0.4,1.8s-0.8,1-1.4,1.3
				c-0.6,0.3-1.5,0.5-2.5,0.5c-0.9,0-1.7-0.2-2.3-0.5s-1.1-0.8-1.4-1.3c-0.3-0.6-0.5-1.2-0.5-1.9h1.4C200.6,42.5,200.8,43,201,43.4z
				"/>
			<path d="M209.1,44.1h1.7v1.4h-1.7V44.1z"/>
			<path d="M212.4,44.4l5.3-4.4c0.5-0.4,0.9-0.8,1.1-1.2c0.2-0.3,0.3-0.8,0.3-1.2c0-0.6-0.2-1-0.6-1.4c-0.4-0.3-0.9-0.5-1.7-0.5
				c-0.7,0-1.3,0.1-1.7,0.4c-0.4,0.3-0.8,0.6-1,1.2c-0.2,0.5-0.3,1.1-0.3,1.9h-1.4c0-0.9,0.2-1.6,0.5-2.3s0.8-1.2,1.4-1.6
				c0.6-0.4,1.5-0.6,2.5-0.6c0.9,0,1.6,0.1,2.1,0.4c0.5,0.3,0.9,0.6,1.2,1.1c0.3,0.4,0.4,1,0.4,1.5c0,0.7-0.2,1.3-0.6,1.9
				c-0.4,0.6-1,1.2-2,2l-3.6,3h6.4v1.1h-8.3L212.4,44.4L212.4,44.4z"/>
			<path d="M226.2,37.5h1.3v8h-1.3V37.5z M231.6,39.2c-0.1-0.3-0.3-0.6-0.6-0.7c-0.3-0.1-0.6-0.2-1-0.2c-0.6,0-1,0.2-1.4,0.5
				s-0.6,0.8-0.8,1.4c-0.2,0.6-0.3,1.4-0.3,2.3h-0.4v-0.3c0-1,0.1-1.9,0.4-2.6c0.2-0.7,0.6-1.3,1.1-1.7s1.1-0.6,1.9-0.6
				c0.6,0,1.1,0.1,1.5,0.4c0.4,0.2,0.7,0.6,0.9,1s0.3,1,0.3,1.7v5.2h-1.3v-5C231.8,40,231.8,39.6,231.6,39.2z M237.2,39.2
				c-0.1-0.3-0.3-0.6-0.6-0.7c-0.3-0.1-0.6-0.2-1-0.2c-0.6,0-1.1,0.2-1.4,0.5c-0.4,0.3-0.6,0.8-0.8,1.4c-0.2,0.6-0.3,1.4-0.3,2.3
				h-0.5c0-1.1,0.1-2,0.3-2.8s0.6-1.4,1.1-1.8c0.5-0.4,1.2-0.6,2-0.6c0.6,0,1.1,0.1,1.5,0.4c0.4,0.2,0.7,0.6,0.9,1
				c0.2,0.5,0.3,1,0.3,1.7v5.2h-1.3v-5C237.4,40,237.4,39.6,237.2,39.2z"/>
			<path d="M241.1,38.9c0.1,0.2,0.3,0.4,0.6,0.5c0.2,0.1,0.5,0.2,0.9,0.2c0.5,0,1-0.1,1.2-0.4c0.3-0.3,0.4-0.6,0.4-1.1
				c0-0.4-0.1-0.7-0.3-1c-0.2-0.2-0.6-0.4-1-0.4c-0.2,0-0.4,0-0.6,0.1c-0.2,0.1-0.4,0.1-0.5,0.3l-0.4-0.5l2.4-2.1h-3.5v-0.6h4.4v0.6
				l-2.1,1.9c0.2-0.1,0.4-0.1,0.6-0.1c0.3,0,0.6,0.1,0.9,0.2c0.3,0.1,0.5,0.3,0.7,0.6s0.3,0.6,0.3,1s-0.1,0.7-0.3,1
				s-0.4,0.6-0.8,0.8s-0.9,0.3-1.4,0.3s-1-0.1-1.3-0.3c-0.4-0.2-0.6-0.4-0.8-0.8c-0.2-0.3-0.3-0.7-0.3-1.1h0.8
				C240.9,38.4,241,38.7,241.1,38.9z"/>
			<path d="M249.4,34.9h1.1l-3.6,10.6h-1.1L249.4,34.9z"/>
			<path d="M252.7,43.8c0.2,0.3,0.4,0.5,0.8,0.7s0.8,0.2,1.4,0.2c0.5,0,0.8-0.1,1.1-0.2c0.3-0.1,0.5-0.3,0.6-0.5s0.2-0.5,0.2-0.8
				c0-0.4-0.1-0.7-0.4-0.9c-0.2-0.2-0.6-0.4-1.1-0.4l-1.9-0.3c-0.7-0.1-1.2-0.3-1.6-0.7c-0.4-0.4-0.6-0.9-0.6-1.5
				c0-0.7,0.3-1.3,0.8-1.8c0.6-0.4,1.3-0.6,2.4-0.6c0.7,0,1.3,0.1,1.8,0.3s0.9,0.5,1.2,0.9c0.3,0.4,0.4,0.8,0.5,1.3h-1.3
				c0-0.5-0.2-0.8-0.6-1.1s-0.9-0.4-1.6-0.4c-0.7,0-1.1,0.1-1.4,0.4c-0.3,0.2-0.5,0.6-0.5,1c0,0.3,0.1,0.6,0.3,0.8s0.5,0.3,1,0.4
				l1.7,0.2c0.9,0.1,1.5,0.4,1.9,0.8c0.4,0.4,0.6,0.9,0.6,1.6c0,0.8-0.3,1.4-0.8,1.8c-0.5,0.4-1.4,0.6-2.4,0.6
				c-0.9,0-1.6-0.1-2.1-0.4c-0.5-0.2-0.9-0.6-1.2-1s-0.4-0.9-0.4-1.5h1.2C252.5,43.2,252.6,43.6,252.7,43.8z"/>
		</g>
	</g>
	<g>
		<g>
			<path d="M16.7,44.4h2.5v-8.5h-2.4v-1.1H19c0.5,0,0.9,0.1,1.2,0.3c0.2,0.2,0.3,0.6,0.3,1v8.2h2.3v1.1h-6.1
				C16.7,45.4,16.7,44.4,16.7,44.4z"/>
			<path d="M24.3,44.4l5.3-4.4c0.5-0.4,0.9-0.8,1.1-1.2c0.2-0.3,0.3-0.8,0.3-1.2c0-0.6-0.2-1-0.6-1.4c-0.4-0.3-0.9-0.5-1.7-0.5
				c-0.7,0-1.3,0.1-1.7,0.4c-0.4,0.3-0.8,0.6-1,1.2c-0.2,0.5-0.3,1.1-0.3,1.9h-1.4c0-0.9,0.2-1.6,0.5-2.3s0.8-1.2,1.4-1.6
				c0.6-0.4,1.5-0.6,2.5-0.6c0.9,0,1.6,0.1,2.1,0.4c0.5,0.3,0.9,0.6,1.2,1.1c0.3,0.4,0.4,1,0.4,1.5c0,0.7-0.2,1.3-0.6,1.9
				c-0.4,0.6-1,1.2-2,2l-3.6,3h6.4v1.1h-8.3C24.3,45.7,24.3,44.4,24.3,44.4z"/>
			<path d="M35.9,43.6c0.2,0.3,0.5,0.6,0.9,0.8s0.9,0.3,1.6,0.3s1.2-0.1,1.6-0.3c0.4-0.2,0.7-0.5,1-0.9c0.2-0.4,0.3-0.9,0.3-1.4
				c0-0.6-0.1-1-0.3-1.4s-0.5-0.7-0.9-0.9s-0.8-0.3-1.4-0.3c-0.6,0-1.1,0.1-1.6,0.4c-0.5,0.2-0.9,0.6-1.3,1h-1.2l0.3-5.9h1.2
				l-0.3,4.8c0.4-0.4,0.8-0.7,1.3-0.9s1.1-0.3,1.8-0.3c0.8,0,1.4,0.1,2,0.4c0.6,0.3,1,0.7,1.3,1.2s0.5,1.2,0.5,1.9
				c0,1.1-0.3,2-1,2.7s-1.8,1-3.2,1c-0.9,0-1.7-0.1-2.3-0.4c-0.6-0.3-1.1-0.7-1.4-1.1c-0.3-0.5-0.5-1.1-0.5-1.7h1.4
				C35.6,42.9,35.7,43.3,35.9,43.6z M42.3,34.9V36h-6.7v-1.1H42.3z"/>
			<path d="M44,44.1h1.7v1.4H44V44.1z"/>
			<path d="M48.8,45.3c-0.6-0.3-1.1-0.7-1.4-1.1s-0.4-1-0.4-1.5c0-0.7,0.2-1.2,0.6-1.7c0.4-0.5,0.9-0.8,1.6-1c-0.6-0.2-1-0.5-1.4-1
				c-0.3-0.4-0.5-0.9-0.5-1.5c0-0.5,0.1-1,0.4-1.4c0.3-0.4,0.7-0.8,1.3-1c0.6-0.3,1.3-0.4,2.2-0.4s1.6,0.1,2.2,0.4
				c0.6,0.3,1,0.6,1.3,1s0.4,0.9,0.4,1.4c0,0.6-0.2,1.1-0.5,1.5s-0.8,0.8-1.4,1c0.5,0.1,0.8,0.4,1.2,0.6c0.3,0.3,0.6,0.6,0.7,0.9
				c0.2,0.4,0.2,0.8,0.2,1.2c0,0.6-0.1,1.1-0.4,1.5s-0.7,0.8-1.4,1.1s-1.4,0.4-2.4,0.4S49.5,45.6,48.8,45.3z M52.8,44.4
				c0.4-0.2,0.7-0.4,0.9-0.7S54,43,54,42.6c0-0.7-0.2-1.2-0.7-1.6s-1.2-0.6-2.1-0.6c-0.6,0-1.1,0.1-1.6,0.3
				c-0.4,0.2-0.7,0.4-0.9,0.7s-0.3,0.7-0.3,1.1c0,0.6,0.2,1.1,0.7,1.5s1.2,0.6,2.1,0.6C51.8,44.7,52.4,44.6,52.8,44.4z M52.7,39.2
				c0.4-0.2,0.7-0.4,0.8-0.7c0.2-0.3,0.3-0.6,0.3-1c0-0.6-0.2-1-0.6-1.4c-0.4-0.3-1.1-0.5-2-0.5c-0.6,0-1.1,0.1-1.5,0.2
				c-0.4,0.2-0.7,0.4-0.9,0.7s-0.3,0.6-0.3,1s0.1,0.7,0.3,1s0.5,0.5,0.8,0.7s0.9,0.3,1.5,0.3S52.3,39.4,52.7,39.2z"/>
			<path d="M60.9,37.5h1.3v8h-1.3V37.5z M66.3,39.2c-0.1-0.3-0.3-0.6-0.6-0.7c-0.3-0.1-0.6-0.2-1-0.2c-0.6,0-1,0.2-1.4,0.5
				s-0.6,0.8-0.8,1.4c-0.2,0.6-0.3,1.4-0.3,2.3h-0.4v-0.3c0-1,0.1-1.9,0.4-2.6c0.2-0.7,0.6-1.3,1.1-1.7s1.1-0.6,1.9-0.6
				c0.6,0,1.1,0.1,1.5,0.4c0.4,0.2,0.7,0.6,0.9,1c0.2,0.4,0.3,1,0.3,1.7v5.2h-1.3v-5C66.5,40,66.4,39.6,66.3,39.2z M71.9,39.2
				c-0.1-0.3-0.3-0.6-0.6-0.7c-0.3-0.1-0.6-0.2-1-0.2c-0.6,0-1.1,0.2-1.4,0.5c-0.4,0.3-0.6,0.8-0.8,1.4c-0.2,0.6-0.3,1.4-0.3,2.3
				h-0.5c0-1.1,0.1-2,0.3-2.8c0.2-0.8,0.6-1.4,1.1-1.8c0.5-0.4,1.2-0.6,2-0.6c0.6,0,1.1,0.1,1.5,0.4c0.4,0.2,0.7,0.6,0.9,1
				c0.2,0.5,0.3,1,0.3,1.7v5.2h-1.3v-5C72.1,40,72,39.6,71.9,39.2z"/>
			<path d="M75.8,38.9c0.1,0.2,0.3,0.4,0.6,0.5c0.2,0.1,0.5,0.2,0.9,0.2c0.5,0,1-0.1,1.2-0.4c0.3-0.3,0.4-0.6,0.4-1.1
				c0-0.4-0.1-0.7-0.3-1c-0.2-0.2-0.6-0.4-1-0.4c-0.2,0-0.4,0-0.6,0.1s-0.4,0.1-0.5,0.3l-0.4-0.5l2.4-2.1H75v-0.6h4.4v0.6l-2.1,1.9
				c0.2-0.1,0.4-0.1,0.6-0.1c0.3,0,0.6,0.1,0.9,0.2c0.3,0.1,0.5,0.3,0.7,0.6s0.3,0.6,0.3,1s-0.1,0.7-0.3,1c-0.2,0.3-0.4,0.6-0.8,0.8
				s-0.9,0.3-1.4,0.3s-1-0.1-1.3-0.3c-0.4-0.2-0.6-0.4-0.8-0.8c-0.2-0.3-0.3-0.7-0.3-1.1h0.8C75.6,38.4,75.7,38.7,75.8,38.9z"/>
			<path d="M84.1,34.9h1.1l-3.6,10.6h-1.1L84.1,34.9z"/>
			<path d="M87.4,43.8c0.2,0.3,0.4,0.5,0.8,0.7s0.8,0.2,1.4,0.2c0.5,0,0.8-0.1,1.1-0.2s0.5-0.3,0.6-0.5s0.2-0.5,0.2-0.8
				c0-0.4-0.1-0.7-0.4-0.9c-0.2-0.2-0.6-0.4-1.1-0.4l-1.9-0.3c-0.7-0.1-1.2-0.3-1.6-0.7s-0.6-0.9-0.6-1.5c0-0.7,0.3-1.3,0.8-1.8
				c0.6-0.4,1.3-0.6,2.4-0.6c0.7,0,1.3,0.1,1.8,0.3s0.9,0.5,1.2,0.9s0.4,0.8,0.5,1.3h-1.3c0-0.5-0.2-0.8-0.6-1.1S89.8,38,89.1,38
				s-1.1,0.1-1.4,0.4c-0.3,0.2-0.5,0.6-0.5,1c0,0.3,0.1,0.6,0.3,0.8c0.2,0.2,0.5,0.3,1,0.4l1.7,0.2c0.9,0.1,1.5,0.4,1.9,0.8
				c0.4,0.4,0.6,0.9,0.6,1.6c0,0.8-0.3,1.4-0.8,1.8c-0.5,0.4-1.4,0.6-2.4,0.6c-0.9,0-1.6-0.1-2.1-0.4c-0.5-0.2-0.9-0.6-1.2-1
				c-0.3-0.4-0.4-0.9-0.4-1.5H87C87.1,43.2,87.2,43.6,87.4,43.8z"/>
		</g>
	</g>
</g>
</svg>
