<svg width="245" height="50" viewBox="0 0 245 50" fill="none" xmlns="http://www.w3.org/2000/svg">
<path d="M2.27895 0H1V22.3776H2.27895V0Z" fill="#E6EBFA"/>
<path d="M3.55824 0H2.2793V22.3776H3.55824V0Z" fill="#E5EAFA"/>
<path d="M4.83656 0H3.55762V22.3776H4.83656V0Z" fill="#E4E9FA"/>
<path d="M6.11586 0H4.83691V22.3776H6.11586V0Z" fill="#E2E8F9"/>
<path d="M7.39516 0H6.11621V22.3776H7.39516V0Z" fill="#E1E8F9"/>
<path d="M8.67348 0H7.39453V22.3776H8.67348V0Z" fill="#E0E7F9"/>
<path d="M9.95278 0H8.67383V22.3776H9.95278V0Z" fill="#DFE6F9"/>
<path d="M11.2311 0H9.95215V22.3776H11.2311V0Z" fill="#DDE5F8"/>
<path d="M12.5104 0H11.2314V22.3776H12.5104V0Z" fill="#DCE4F8"/>
<path d="M13.7897 0H12.5107V22.3776H13.7897V0Z" fill="#DBE3F8"/>
<path d="M15.068 0H13.7891V22.3776H15.068V0Z" fill="#DAE2F8"/>
<path d="M16.3473 0H15.0684V22.3776H16.3473V0Z" fill="#D9E1F7"/>
<path d="M17.6266 0H16.3477V22.3776H17.6266V0Z" fill="#D7E1F7"/>
<path d="M18.9049 0H17.626V22.3776H18.9049V0Z" fill="#D6E0F7"/>
<path d="M20.1842 0H18.9053V22.3776H20.1842V0Z" fill="#D5DFF7"/>
<path d="M21.4635 0H20.1846V22.3776H21.4635V0Z" fill="#D4DEF6"/>
<path d="M22.7418 0H21.4629V22.3776H22.7418V0Z" fill="#D3DDF6"/>
<path d="M24.0211 0H22.7422V22.3776H24.0211V0Z" fill="#D1DCF6"/>
<path d="M25.3004 0H24.0215V22.3776H25.3004V0Z" fill="#D0DBF6"/>
<path d="M26.5788 0H25.2998V22.3776H26.5788V0Z" fill="#CFDBF5"/>
<path d="M27.858 0H26.5791V22.3776H27.858V0Z" fill="#CEDAF5"/>
<path d="M29.1364 0H27.8574V22.3776H29.1364V0Z" fill="#CCD9F5"/>
<path d="M30.4157 0H29.1367V22.3776H30.4157V0Z" fill="#CBD8F5"/>
<path d="M31.695 0H30.416V22.3776H31.695V0Z" fill="#CAD7F4"/>
<path d="M32.9733 0H31.6943V22.3776H32.9733V0Z" fill="#C9D6F4"/>
<path d="M34.2526 0H32.9736V22.3776H34.2526V0Z" fill="#C8D5F4"/>
<path d="M35.5319 0H34.2529V22.3776H35.5319V0Z" fill="#C6D4F4"/>
<path d="M36.8102 0H35.5312V22.3776H36.8102V0Z" fill="#C5D4F3"/>
<path d="M38.0895 0H36.8105V22.3776H38.0895V0Z" fill="#C4D3F3"/>
<path d="M39.3688 0H38.0898V22.3776H39.3688V0Z" fill="#C3D2F3"/>
<path d="M40.6471 0H39.3682V22.3776H40.6471V0Z" fill="#C1D1F3"/>
<path d="M41.9264 0H40.6475V22.3776H41.9264V0Z" fill="#C0D0F2"/>
<path d="M43.2057 0H41.9268V22.3776H43.2057V0Z" fill="#BFCFF2"/>
<path d="M44.484 0H43.2051V22.3776H44.484V0Z" fill="#BECEF2"/>
<path d="M45.7633 0H44.4844V22.3776H45.7633V0Z" fill="#BDCDF2"/>
<path d="M47.0416 0H45.7627V22.3776H47.0416V0Z" fill="#BBCDF1"/>
<path d="M48.3209 0H47.042V22.3776H48.3209V0Z" fill="#BACCF1"/>
<path d="M49.6002 0H48.3213V22.3776H49.6002V0Z" fill="#B9CBF1"/>
<path d="M50.8786 0H49.5996V22.3776H50.8786V0Z" fill="#B8CAF1"/>
<path d="M52.1579 0H50.8789V22.3776H52.1579V0Z" fill="#B7C9F1"/>
<path d="M53.4372 0H52.1582V22.3776H53.4372V0Z" fill="#B5C8F0"/>
<path d="M54.7155 0H53.4365V22.3776H54.7155V0Z" fill="#B4C7F0"/>
<path d="M55.9948 0H54.7158V22.3776H55.9948V0Z" fill="#B3C7F0"/>
<path d="M57.2741 0H55.9951V22.3776H57.2741V0Z" fill="#B2C6F0"/>
<path d="M58.5524 0H57.2734V22.3776H58.5524V0Z" fill="#B0C5EF"/>
<path d="M59.8317 0H58.5527V22.3776H59.8317V0Z" fill="#AFC4EF"/>
<path d="M61.111 0H59.832V22.3776H61.111V0Z" fill="#AEC3EF"/>
<path d="M62.3893 0H61.1104V22.3776H62.3893V0Z" fill="#ADC2EF"/>
<path d="M63.6686 0H62.3896V22.3776H63.6686V0Z" fill="#ACC1EE"/>
<path d="M64.9469 0H63.668V22.3776H64.9469V0Z" fill="#AAC0EE"/>
<path d="M66.2262 0H64.9473V22.3776H66.2262V0Z" fill="#A9C0EE"/>
<path d="M67.5055 0H66.2266V22.3776H67.5055V0Z" fill="#A8BFEE"/>
<path d="M68.7838 0H67.5049V22.3776H68.7838V0Z" fill="#A7BEED"/>
<path d="M70.0631 0H68.7842V22.3776H70.0631V0Z" fill="#A6BDED"/>
<path d="M71.3424 0H70.0635V22.3776H71.3424V0Z" fill="#A4BCED"/>
<path d="M72.6207 0H71.3418V22.3776H72.6207V0Z" fill="#A3BBED"/>
<path d="M73.9 0H72.6211V22.3776H73.9V0Z" fill="#A2BAEC"/>
<path d="M75.1793 0H73.9004V22.3776H75.1793V0Z" fill="#A1BAEC"/>
<path d="M76.4577 0H75.1787V22.3776H76.4577V0Z" fill="#9FB9EC"/>
<path d="M77.737 0H76.458V22.3776H77.737V0Z" fill="#9EB8EC"/>
<path d="M79.0163 0H77.7373V22.3776H79.0163V0Z" fill="#9DB7EB"/>
<path d="M80.2946 0H79.0156V22.3776H80.2946V0Z" fill="#9CB6EB"/>
<path d="M81.5739 0H80.2949V22.3776H81.5739V0Z" fill="#9BB5EB"/>
<path d="M82.8522 0H81.5732V22.3776H82.8522V0Z" fill="#99B4EB"/>
<path d="M84.1315 0H82.8525V22.3776H84.1315V0Z" fill="#98B3EA"/>
<path d="M85.4108 0H84.1318V22.3776H85.4108V0Z" fill="#97B3EA"/>
<path d="M86.6891 0H85.4102V22.3776H86.6891V0Z" fill="#96B2EA"/>
<path d="M87.9684 0H86.6895V22.3776H87.9684V0Z" fill="#94B1EA"/>
<path d="M89.2477 0H87.9688V22.3776H89.2477V0Z" fill="#93B0E9"/>
<path d="M90.526 0H89.2471V22.3776H90.526V0Z" fill="#92AFE9"/>
<path d="M91.8053 0H90.5264V22.3776H91.8053V0Z" fill="#91AEE9"/>
<path d="M93.0846 0H91.8057V22.3776H93.0846V0Z" fill="#90ADE9"/>
<path d="M94.3629 0H93.084V22.3776H94.3629V0Z" fill="#8EADE8"/>
<path d="M95.6422 0H94.3633V22.3776H95.6422V0Z" fill="#8DACE8"/>
<path d="M96.9215 0H95.6426V22.3776H96.9215V0Z" fill="#8CABE8"/>
<path d="M98.1998 0H96.9209V22.3776H98.1998V0Z" fill="#8BAAE8"/>
<path d="M99.4791 0H98.2002V22.3776H99.4791V0Z" fill="#8AA9E8"/>
<path d="M100.757 0H99.4785V22.3776H100.757V0Z" fill="#88A8E7"/>
<path d="M102.037 0H100.758V22.3776H102.037V0Z" fill="#87A7E7"/>
<path d="M103.316 0H102.037V22.3776H103.316V0Z" fill="#86A6E7"/>
<path d="M104.594 0H103.315V22.3776H104.594V0Z" fill="#85A6E7"/>
<path d="M105.874 0H104.595V22.3776H105.874V0Z" fill="#83A5E6"/>
<path d="M107.153 0H105.874V22.3776H107.153V0Z" fill="#82A4E6"/>
<path d="M108.431 0H107.152V22.3776H108.431V0Z" fill="#81A3E6"/>
<path d="M109.711 0H108.432V22.3776H109.711V0Z" fill="#80A2E6"/>
<path d="M110.99 0H109.711V22.3776H110.99V0Z" fill="#7FA1E5"/>
<path d="M112.268 0H110.989V22.3776H112.268V0Z" fill="#7DA0E5"/>
<path d="M113.548 0H112.269V22.3776H113.548V0Z" fill="#7CA0E5"/>
<path d="M114.827 0H113.548V22.3776H114.827V0Z" fill="#7B9FE5"/>
<path d="M116.105 0H114.826V22.3776H116.105V0Z" fill="#7A9EE4"/>
<path d="M117.384 0H116.105V22.3776H117.384V0Z" fill="#789DE4"/>
<path d="M118.663 0H117.384V22.3776H118.663V0Z" fill="#779CE4"/>
<path d="M119.942 0H118.663V22.3776H119.942V0Z" fill="#769BE4"/>
<path d="M121.221 0H119.942V22.3776H121.221V0Z" fill="#759AE3"/>
<path d="M122.5 0H121.221V22.3776H122.5V0Z" fill="#7499E3"/>
<path d="M123.779 0H122.5V22.3776H123.779V0Z" fill="#7299E3"/>
<path d="M125.058 0H123.779V22.3776H125.058V0Z" fill="#7198E3"/>
<path d="M126.337 0H125.058V22.3776H126.337V0Z" fill="#7097E2"/>
<path d="M127.616 0H126.337V22.3776H127.616V0Z" fill="#6F96E2"/>
<path d="M128.895 0H127.616V22.3776H128.895V0Z" fill="#6E95E2"/>
<path d="M130.173 0H128.895V22.3776H130.173V0Z" fill="#6C94E2"/>
<path d="M131.453 0H130.174V22.3776H131.453V0Z" fill="#6B93E1"/>
<path d="M132.732 0H131.453V22.3776H132.732V0Z" fill="#6A92E1"/>
<path d="M134.01 0H132.731V22.3776H134.01V0Z" fill="#6992E1"/>
<path d="M135.29 0H134.011V22.3776H135.29V0Z" fill="#6791E1"/>
<path d="M136.568 0H135.289V22.3776H136.568V0Z" fill="#6690E0"/>
<path d="M137.847 0H136.568V22.3776H137.847V0Z" fill="#658FE0"/>
<path d="M139.127 0H137.848V22.3776H139.127V0Z" fill="#648EE0"/>
<path d="M140.405 0H139.126V22.3776H140.405V0Z" fill="#638DE0"/>
<path d="M141.684 0H140.405V22.3776H141.684V0Z" fill="#618CDF"/>
<path d="M142.964 0H141.685V22.3776H142.964V0Z" fill="#608CDF"/>
<path d="M144.242 0H142.963V22.3776H144.242V0Z" fill="#5F8BDF"/>
<path d="M145.521 0H144.242V22.3776H145.521V0Z" fill="#5E8ADF"/>
<path d="M146.8 0H145.521V22.3776H146.8V0Z" fill="#5C89DE"/>
<path d="M148.079 0H146.8V22.3776H148.079V0Z" fill="#5B88DE"/>
<path d="M149.358 0H148.079V22.3776H149.358V0Z" fill="#5A87DE"/>
<path d="M150.636 0H149.357V22.3776H150.636V0Z" fill="#5986DE"/>
<path d="M151.916 0H150.637V22.3776H151.916V0Z" fill="#5885DE"/>
<path d="M153.195 0H151.916V22.3776H153.195V0Z" fill="#5685DD"/>
<path d="M154.473 0H153.194V22.3776H154.473V0Z" fill="#5584DD"/>
<path d="M155.753 0H154.474V22.3776H155.753V0Z" fill="#5483DD"/>
<path d="M157.032 0H155.753V22.3776H157.032V0Z" fill="#5382DD"/>
<path d="M158.31 0H157.031V22.3776H158.31V0Z" fill="#5281DC"/>
<path d="M159.589 0H158.311V22.3776H159.589V0Z" fill="#5080DC"/>
<path d="M160.869 0H159.59V22.3776H160.869V0Z" fill="#4F7FDC"/>
<path d="M162.147 0H160.868V22.3776H162.147V0Z" fill="#4E7FDC"/>
<path d="M163.426 0H162.147V22.3776H163.426V0Z" fill="#4D7EDB"/>
<path d="M164.706 0H163.427V22.3776H164.706V0Z" fill="#4B7DDB"/>
<path d="M165.984 0H164.705V22.3776H165.984V0Z" fill="#4A7CDB"/>
<path d="M167.263 0H165.984V22.3776H167.263V0Z" fill="#497BDB"/>
<path d="M168.542 0H167.263V22.3776H168.542V0Z" fill="#487ADA"/>
<path d="M169.821 0H168.542V22.3776H169.821V0Z" fill="#4779DA"/>
<path d="M171.1 0H169.821V22.3776H171.1V0Z" fill="#4578DA"/>
<path d="M172.379 0H171.1V22.3776H172.379V0Z" fill="#4478DA"/>
<path d="M173.658 0H172.379V22.3776H173.658V0Z" fill="#4377D9"/>
<path d="M174.937 0H173.658V22.3776H174.937V0Z" fill="#4276D9"/>
<path d="M176.215 0H174.937V22.3776H176.215V0Z" fill="#4075D9"/>
<path d="M177.495 0H176.216V22.3776H177.495V0Z" fill="#3F74D9"/>
<path d="M178.774 0H177.495V22.3776H178.774V0Z" fill="#3E73D8"/>
<path d="M180.052 0H178.773V22.3776H180.052V0Z" fill="#3D72D8"/>
<path d="M181.332 0H180.053V22.3776H181.332V0Z" fill="#3C72D8"/>
<path d="M182.611 0H181.332V22.3776H182.611V0Z" fill="#3A71D8"/>
<path d="M183.889 0H182.61V22.3776H183.889V0Z" fill="#3970D7"/>
<path d="M185.169 0H183.89V22.3776H185.169V0Z" fill="#386FD7"/>
<path d="M186.447 0H185.168V22.3776H186.447V0Z" fill="#376ED7"/>
<path d="M187.726 0H186.447V22.3776H187.726V0Z" fill="#366DD7"/>
<path d="M189.006 0H187.727V22.3776H189.006V0Z" fill="#346CD6"/>
<path d="M190.284 0H189.005V22.3776H190.284V0Z" fill="#336BD6"/>
<path d="M191.563 0H190.284V22.3776H191.563V0Z" fill="#326BD6"/>
<path d="M192.842 0H191.563V22.3776H192.842V0Z" fill="#316AD6"/>
<path d="M194.121 0H192.842V22.3776H194.121V0Z" fill="#2F69D5"/>
<path d="M195.4 0H194.121V22.3776H195.4V0Z" fill="#2E68D5"/>
<path d="M196.679 0H195.4V22.3776H196.679V0Z" fill="#2D67D5"/>
<path d="M197.958 0H196.679V22.3776H197.958V0Z" fill="#2C66D5"/>
<path d="M199.237 0H197.958V22.3776H199.237V0Z" fill="#2B65D5"/>
<path d="M200.516 0H199.237V22.3776H200.516V0Z" fill="#2965D4"/>
<path d="M201.795 0H200.516V22.3776H201.795V0Z" fill="#2864D4"/>
<path d="M203.074 0H201.795V22.3776H203.074V0Z" fill="#2763D4"/>
<path d="M204.352 0H203.073V22.3776H204.352V0Z" fill="#2662D4"/>
<path d="M205.631 0H204.353V22.3776H205.631V0Z" fill="#2561D3"/>
<path d="M206.911 0H205.632V22.3776H206.911V0Z" fill="#2360D3"/>
<path d="M208.189 0H206.91V22.3776H208.189V0Z" fill="#225FD3"/>
<path d="M209.468 0H208.189V22.3776H209.468V0Z" fill="#215ED3"/>
<path d="M210.748 0H209.469V22.3776H210.748V0Z" fill="#205ED2"/>
<path d="M212.026 0H210.747V22.3776H212.026V0Z" fill="#1E5DD2"/>
<path d="M213.305 0H212.026V22.3776H213.305V0Z" fill="#1D5CD2"/>
<path d="M214.585 0H213.306V22.3776H214.585V0Z" fill="#1C5BD2"/>
<path d="M215.863 0H214.584V22.3776H215.863V0Z" fill="#1B5AD1"/>
<path d="M217.142 0H215.863V22.3776H217.142V0Z" fill="#1A59D1"/>
<path d="M218.422 0H217.143V22.3776H218.422V0Z" fill="#1858D1"/>
<path d="M219.7 0H218.421V22.3776H219.7V0Z" fill="#1757D1"/>
<path d="M220.979 0H219.7V22.3776H220.979V0Z" fill="#1657D0"/>
<path d="M222.257 0H220.979V22.3776H222.257V0Z" fill="#1556D0"/>
<path d="M223.537 0H222.258V22.3776H223.537V0Z" fill="#1355D0"/>
<path d="M224.816 0H223.537V22.3776H224.816V0Z" fill="#1254D0"/>
<path d="M226.094 0H224.815V22.3776H226.094V0Z" fill="#1153CF"/>
<path d="M227.374 0H226.095V22.3776H227.374V0Z" fill="#1052CF"/>
<path d="M228.653 0H227.374V22.3776H228.653V0Z" fill="#0F51CF"/>
<path d="M229.931 0H228.652V22.3776H229.931V0Z" fill="#0D51CF"/>
<path d="M231.211 0H229.932V22.3776H231.211V0Z" fill="#0C50CE"/>
<path d="M232.49 0H231.211V22.3776H232.49V0Z" fill="#0B4FCE"/>
<path d="M233.768 0H232.489V22.3776H233.768V0Z" fill="#0A4ECE"/>
<path d="M235.048 0H233.769V22.3776H235.048V0Z" fill="#094DCE"/>
<path d="M236.326 0H235.047V22.3776H236.326V0Z" fill="#074CCD"/>
<path d="M237.605 0H236.326V22.3776H237.605V0Z" fill="#064BCD"/>
<path d="M238.884 0H237.605V22.3776H238.884V0Z" fill="#054ACD"/>
<path d="M240.163 0H238.884V22.3776H240.163V0Z" fill="#044ACD"/>
<path d="M241.442 0H240.163V22.3776H241.442V0Z" fill="#0249CC"/>
<path d="M242.721 0H241.442V22.3776H242.721V0Z" fill="#0148CC"/>
<path d="M244 0H242.721V22.3776H244V0Z" fill="#0047CC"/>
<path d="M0.992 40.912H3.472L3.472 32.448H1.008L1.008 31.36H3.28C3.824 31.36 4.208 31.472 4.432 31.696C4.66667 31.92 4.784 32.2507 4.784 32.688L4.784 40.912H7.056V42H0.992L0.992 40.912ZM8.596 40.912L13.876 36.48C14.3987 36.0427 14.756 35.6533 14.948 35.312C15.1507 34.96 15.252 34.5493 15.252 34.08C15.252 33.504 15.06 33.0453 14.676 32.704C14.3027 32.352 13.7373 32.176 12.98 32.176C12.2867 32.176 11.716 32.3093 11.268 32.576C10.8307 32.832 10.5053 33.216 10.292 33.728C10.0787 34.2293 9.96667 34.848 9.956 35.584H8.58C8.60133 34.72 8.756 33.952 9.044 33.28C9.34267 32.608 9.812 32.0747 10.452 31.68C11.1027 31.2747 11.94 31.072 12.964 31.072C13.828 31.072 14.532 31.2107 15.076 31.488C15.62 31.7547 16.0147 32.112 16.26 32.56C16.516 33.008 16.644 33.5093 16.644 34.064C16.644 34.736 16.4467 35.3547 16.052 35.92C15.668 36.4853 15.0173 37.1467 14.1 37.904L10.5 40.912H16.852V42H8.596V40.912ZM26.5846 31.36V32.448H19.9126V31.36H26.5846ZM19.8966 38.992C19.9393 39.4293 20.0566 39.8133 20.2486 40.144C20.4513 40.464 20.7606 40.7147 21.1766 40.896C21.5926 41.0773 22.1206 41.168 22.7606 41.168C23.4113 41.168 23.95 41.0613 24.3766 40.848C24.814 40.6347 25.134 40.3307 25.3366 39.936C25.5393 39.5413 25.6406 39.072 25.6406 38.528C25.6406 37.9627 25.5393 37.4827 25.3366 37.088C25.134 36.6827 24.8406 36.3787 24.4566 36.176C24.0726 35.9733 23.6086 35.872 23.0646 35.872C22.4566 35.872 21.918 35.9893 21.4486 36.224C20.9793 36.4587 20.558 36.8053 20.1846 37.264H18.9526L19.2886 31.36H20.5206L20.2166 36.144C20.5686 35.76 20.9953 35.4613 21.4966 35.248C22.0086 35.024 22.6166 34.912 23.3206 34.912C24.078 34.912 24.734 35.056 25.2886 35.344C25.8433 35.632 26.27 36.048 26.5686 36.592C26.878 37.1253 27.0326 37.7653 27.0326 38.512C27.0326 39.6427 26.686 40.5547 25.9926 41.248C25.2993 41.9307 24.222 42.272 22.7606 42.272C21.8433 42.272 21.0753 42.1387 20.4566 41.872C19.838 41.5947 19.3686 41.2107 19.0486 40.72C18.7393 40.2293 18.5686 39.6533 18.5366 38.992H19.8966ZM28.3828 40.592H30.0468V42H28.3828V40.592ZM35.5887 42.256C34.6394 42.256 33.8554 42.1173 33.2367 41.84C32.6181 41.552 32.1647 41.1787 31.8767 40.72C31.5887 40.2507 31.4447 39.7333 31.4447 39.168C31.4447 38.496 31.6261 37.9307 31.9887 37.472C32.3621 37.0027 32.8954 36.656 33.5887 36.432C33.0021 36.2187 32.5434 35.8987 32.2127 35.472C31.8821 35.0347 31.7167 34.528 31.7167 33.952C31.7167 33.4293 31.8554 32.9547 32.1327 32.528C32.4101 32.0907 32.8367 31.744 33.4128 31.488C33.9994 31.2213 34.7248 31.088 35.5887 31.088C36.4528 31.088 37.1728 31.2213 37.7488 31.488C38.3354 31.744 38.7674 32.0907 39.0448 32.528C39.3221 32.9547 39.4608 33.4293 39.4608 33.952C39.4608 34.5173 39.2901 35.0133 38.9488 35.44C38.6181 35.8667 38.1648 36.192 37.5888 36.416C38.0474 36.5653 38.4368 36.7733 38.7568 37.04C39.0768 37.296 39.3168 37.6053 39.4768 37.968C39.6474 38.3307 39.7327 38.7307 39.7327 39.168C39.7327 39.7333 39.5888 40.2453 39.3008 40.704C39.0128 41.1627 38.5594 41.536 37.9408 41.824C37.3221 42.112 36.5381 42.256 35.5887 42.256ZM35.5887 41.184C36.2287 41.184 36.7567 41.0987 37.1727 40.928C37.5994 40.7573 37.9088 40.5173 38.1007 40.208C38.3034 39.888 38.4048 39.52 38.4048 39.104C38.4048 38.4427 38.1701 37.92 37.7008 37.536C37.2314 37.152 36.5274 36.96 35.5887 36.96C34.9701 36.96 34.4474 37.0507 34.0208 37.232C33.6047 37.4027 33.2901 37.648 33.0768 37.968C32.8741 38.288 32.7727 38.6667 32.7727 39.104C32.7727 39.744 33.0021 40.2507 33.4607 40.624C33.9301 40.9973 34.6394 41.184 35.5887 41.184ZM35.5887 35.968C36.1968 35.968 36.6928 35.8827 37.0768 35.712C37.4714 35.5413 37.7541 35.312 37.9248 35.024C38.1061 34.7253 38.1968 34.3947 38.1968 34.032C38.1968 33.456 37.9834 33.0027 37.5568 32.672C37.1301 32.3307 36.4741 32.16 35.5887 32.16C35.0021 32.16 34.5114 32.24 34.1168 32.4C33.7328 32.56 33.4447 32.7787 33.2527 33.056C33.0714 33.3333 32.9807 33.6587 32.9807 34.032C32.9807 34.3947 33.0661 34.7253 33.2367 35.024C33.4181 35.312 33.7007 35.5413 34.0847 35.712C34.4794 35.8827 34.9808 35.968 35.5887 35.968ZM56.5924 36.992C56.5924 36.4693 56.523 36.048 56.3844 35.728C56.2457 35.408 56.043 35.1787 55.7764 35.04C55.5097 34.8907 55.1737 34.816 54.7684 34.816C54.1924 34.816 53.7177 34.9707 53.3444 35.28C52.971 35.5787 52.6937 36.032 52.5124 36.64C52.3417 37.248 52.2564 38.016 52.2564 38.944H51.7924C51.7924 37.8667 51.899 36.944 52.1124 36.176C52.3364 35.408 52.6937 34.8107 53.1844 34.384C53.6857 33.9573 54.347 33.744 55.1684 33.744C55.7764 33.744 56.2777 33.8613 56.6724 34.096C57.0777 34.3307 57.3764 34.6773 57.5684 35.136C57.771 35.5947 57.8724 36.1653 57.8724 36.848V42H56.5924V36.992ZM45.3764 34H46.6564V42H45.3764V34ZM50.9924 36.992C50.9924 36.4693 50.923 36.048 50.7844 35.728C50.6457 35.408 50.4377 35.1787 50.1604 35.04C49.8937 34.8907 49.5577 34.816 49.1524 34.816C48.587 34.816 48.1177 34.9707 47.7444 35.28C47.371 35.5787 47.0937 36.032 46.9124 36.64C46.7417 37.248 46.6564 38.016 46.6564 38.944H46.2404V38.64C46.2617 37.6267 46.3844 36.7573 46.6084 36.032C46.843 35.3067 47.2004 34.7467 47.6804 34.352C48.1604 33.9467 48.7844 33.744 49.5524 33.744C50.1604 33.744 50.6617 33.8613 51.0564 34.096C51.4617 34.3307 51.7604 34.6773 51.9524 35.136C52.155 35.584 52.2564 36.1547 52.2564 36.848V42H50.9924V36.992ZM60.393 34.936C60.3994 35.2304 60.4698 35.4832 60.6042 35.6944C60.745 35.9056 60.9338 36.0688 61.1706 36.184C61.4074 36.2928 61.6826 36.3472 61.9962 36.3472C62.4954 36.3472 62.8762 36.232 63.1386 36.0016C63.4074 35.7648 63.5418 35.4064 63.5418 34.9264C63.5418 34.5552 63.433 34.2608 63.2154 34.0432C62.9978 33.8192 62.6842 33.7072 62.2746 33.7072C62.0378 33.7072 61.8266 33.7424 61.641 33.8128C61.4618 33.8768 61.2794 33.976 61.0938 34.1104L60.6234 33.4864L63.033 31.4128H59.5674V30.616H64.2042V31.4128L62.1402 33.2656C62.3194 33.2144 62.5274 33.1888 62.7642 33.1888C63.0586 33.1888 63.3434 33.2528 63.6186 33.3808C63.9002 33.5024 64.1306 33.6976 64.3098 33.9664C64.489 34.2288 64.5786 34.5616 64.5786 34.9648C64.5786 35.3424 64.4922 35.6976 64.3194 36.0304C64.153 36.3568 63.8746 36.6288 63.4842 36.8464C63.0938 37.0576 62.585 37.1632 61.9578 37.1632C61.401 37.1632 60.9274 37.0704 60.537 36.8848C60.153 36.6992 59.8618 36.44 59.6634 36.1072C59.4714 35.768 59.369 35.3776 59.3562 34.936H60.393ZM68.903 31.36H70.039L66.407 42H65.271L68.903 31.36ZM71.988 39.328C72.02 39.712 72.1213 40.0533 72.292 40.352C72.4627 40.64 72.7293 40.8693 73.092 41.04C73.4653 41.2 73.9453 41.28 74.532 41.28C74.9907 41.28 75.364 41.2267 75.652 41.12C75.9507 41.0133 76.164 40.8587 76.292 40.656C76.4307 40.4533 76.5 40.1973 76.5 39.888C76.5 39.504 76.3827 39.2053 76.148 38.992C75.9133 38.7787 75.5453 38.6347 75.044 38.56L73.188 38.288C72.484 38.192 71.9453 37.9627 71.572 37.6C71.1987 37.2267 71.012 36.736 71.012 36.128C71.012 35.3813 71.2947 34.7947 71.86 34.368C72.4253 33.9413 73.2093 33.728 74.212 33.728C74.8947 33.728 75.4813 33.8347 75.972 34.048C76.4733 34.2613 76.8573 34.5653 77.124 34.96C77.4013 35.344 77.5613 35.7867 77.604 36.288H76.34C76.2973 35.8293 76.0947 35.4507 75.732 35.152C75.38 34.8533 74.8627 34.704 74.18 34.704C73.5293 34.704 73.044 34.8213 72.724 35.056C72.4147 35.2907 72.26 35.616 72.26 36.032C72.26 36.3413 72.356 36.6027 72.548 36.816C72.74 37.0187 73.0707 37.152 73.54 37.216L75.252 37.456C76.148 37.584 76.788 37.84 77.172 38.224C77.556 38.608 77.748 39.1413 77.748 39.824C77.748 40.6347 77.4707 41.2427 76.916 41.648C76.372 42.0533 75.5667 42.256 74.5 42.256C73.6467 42.256 72.948 42.1333 72.404 41.888C71.86 41.632 71.46 41.2853 71.204 40.848C70.948 40.4107 70.8147 39.904 70.804 39.328H71.988Z" fill="black"/>
<path d="M151.112 38.544C151.123 39.0347 151.24 39.4773 151.464 39.872C151.699 40.2667 152.029 40.5813 152.456 40.816C152.883 41.0507 153.395 41.168 153.992 41.168C154.931 41.168 155.64 40.9547 156.12 40.528C156.611 40.0907 156.856 39.4507 156.856 38.608C156.856 37.9147 156.659 37.3653 156.264 36.96C155.88 36.544 155.32 36.336 154.584 36.336C154.189 36.336 153.843 36.384 153.544 36.48C153.245 36.576 152.936 36.7307 152.616 36.944L151.976 36.096L156.168 32.448H150.12V31.36H157.736V32.448L154.072 35.744C154.392 35.648 154.755 35.6 155.16 35.6C155.704 35.6 156.211 35.7173 156.68 35.952C157.149 36.176 157.528 36.5173 157.816 36.976C158.104 37.424 158.248 37.9787 158.248 38.64C158.248 39.28 158.104 39.872 157.816 40.416C157.528 40.96 157.064 41.408 156.424 41.76C155.784 42.1013 154.963 42.272 153.96 42.272C153.053 42.272 152.28 42.112 151.64 41.792C151.011 41.472 150.536 41.0293 150.216 40.464C149.907 39.8987 149.741 39.2587 149.72 38.544H151.112ZM164.127 42.272C163.252 42.272 162.495 42.0907 161.855 41.728C161.226 41.3653 160.735 40.784 160.383 39.984C160.031 39.1733 159.855 38.1227 159.855 36.832C159.855 35.6267 160.026 34.592 160.367 33.728C160.719 32.864 161.231 32.208 161.903 31.76C162.575 31.3013 163.402 31.072 164.383 31.072C165.183 31.072 165.85 31.1947 166.383 31.44C166.916 31.6853 167.327 32.032 167.615 32.48C167.914 32.928 168.1 33.4667 168.175 34.096H166.863C166.799 33.7013 166.666 33.36 166.463 33.072C166.271 32.784 165.999 32.5653 165.647 32.416C165.295 32.256 164.863 32.176 164.351 32.176C163.252 32.176 162.431 32.56 161.887 33.328C161.354 34.096 161.087 35.3493 161.087 37.088V38.08L160.799 37.92C161.002 37.1413 161.428 36.512 162.079 36.032C162.73 35.552 163.53 35.312 164.479 35.312C165.172 35.312 165.796 35.44 166.351 35.696C166.906 35.952 167.343 36.336 167.663 36.848C167.983 37.3493 168.143 37.9573 168.143 38.672C168.143 39.3547 167.983 39.968 167.663 40.512C167.354 41.056 166.895 41.488 166.287 41.808C165.69 42.1173 164.97 42.272 164.127 42.272ZM164.095 41.168C164.991 41.168 165.663 40.9493 166.111 40.512C166.559 40.0747 166.783 39.488 166.783 38.752C166.783 37.9947 166.559 37.3973 166.111 36.96C165.674 36.512 165.039 36.288 164.207 36.288C163.652 36.288 163.162 36.384 162.735 36.576C162.319 36.768 161.988 37.0507 161.743 37.424C161.508 37.7973 161.391 38.2347 161.391 38.736C161.391 39.4613 161.631 40.048 162.111 40.496C162.591 40.944 163.252 41.168 164.095 41.168ZM170.041 40.912H172.521V32.448H170.057V31.36H172.329C172.873 31.36 173.257 31.472 173.481 31.696C173.715 31.92 173.833 32.2507 173.833 32.688V40.912H176.105V42H170.041V40.912ZM178.701 38.544C178.711 39.0347 178.829 39.4773 179.053 39.872C179.287 40.2667 179.618 40.5813 180.045 40.816C180.471 41.0507 180.983 41.168 181.581 41.168C182.519 41.168 183.229 40.9547 183.709 40.528C184.199 40.0907 184.445 39.4507 184.445 38.608C184.445 37.9147 184.247 37.3653 183.853 36.96C183.469 36.544 182.909 36.336 182.173 36.336C181.778 36.336 181.431 36.384 181.133 36.48C180.834 36.576 180.525 36.7307 180.205 36.944L179.565 36.096L183.757 32.448H177.709V31.36L185.325 31.36V32.448L181.661 35.744C181.981 35.648 182.343 35.6 182.749 35.6C183.293 35.6 183.799 35.7173 184.269 35.952C184.738 36.176 185.117 36.5173 185.405 36.976C185.693 37.424 185.837 37.9787 185.837 38.64C185.837 39.28 185.693 39.872 185.405 40.416C185.117 40.96 184.653 41.408 184.013 41.76C183.373 42.1013 182.551 42.272 181.549 42.272C180.642 42.272 179.869 42.112 179.229 41.792C178.599 41.472 178.125 41.0293 177.805 40.464C177.495 39.8987 177.33 39.2587 177.309 38.544H178.701ZM187.22 40.592H188.884V42H187.22V40.592ZM190.522 40.912L195.802 36.48C196.324 36.0427 196.682 35.6533 196.874 35.312C197.076 34.96 197.178 34.5493 197.178 34.08C197.178 33.504 196.986 33.0453 196.602 32.704C196.228 32.352 195.663 32.176 194.906 32.176C194.212 32.176 193.642 32.3093 193.194 32.576C192.756 32.832 192.431 33.216 192.218 33.728C192.004 34.2293 191.892 34.848 191.882 35.584H190.506C190.527 34.72 190.682 33.952 190.97 33.28C191.268 32.608 191.738 32.0747 192.378 31.68C193.028 31.2747 193.866 31.072 194.89 31.072C195.754 31.072 196.458 31.2107 197.002 31.488C197.546 31.7547 197.94 32.112 198.186 32.56C198.442 33.008 198.57 33.5093 198.57 34.064C198.57 34.736 198.372 35.3547 197.978 35.92C197.594 36.4853 196.943 37.1467 196.026 37.904L192.426 40.912H198.778V42H190.522V40.912ZM215.648 36.992C215.648 36.4693 215.579 36.048 215.44 35.728C215.301 35.408 215.099 35.1787 214.832 35.04C214.565 34.8907 214.229 34.816 213.824 34.816C213.248 34.816 212.773 34.9707 212.4 35.28C212.027 35.5787 211.749 36.032 211.568 36.64C211.397 37.248 211.312 38.016 211.312 38.944H210.848C210.848 37.8667 210.955 36.944 211.168 36.176C211.392 35.408 211.749 34.8107 212.24 34.384C212.741 33.9573 213.403 33.744 214.224 33.744C214.832 33.744 215.333 33.8613 215.728 34.096C216.133 34.3307 216.432 34.6773 216.624 35.136C216.827 35.5947 216.928 36.1653 216.928 36.848V42H215.648V36.992ZM204.432 34H205.712V42H204.432V34ZM210.048 36.992C210.048 36.4693 209.979 36.048 209.84 35.728C209.701 35.408 209.493 35.1787 209.216 35.04C208.949 34.8907 208.613 34.816 208.208 34.816C207.643 34.816 207.173 34.9707 206.8 35.28C206.427 35.5787 206.149 36.032 205.968 36.64C205.797 37.248 205.712 38.016 205.712 38.944H205.296V38.64C205.317 37.6267 205.44 36.7573 205.664 36.032C205.899 35.3067 206.256 34.7467 206.736 34.352C207.216 33.9467 207.84 33.744 208.608 33.744C209.216 33.744 209.717 33.8613 210.112 34.096C210.517 34.3307 210.816 34.6773 211.008 35.136C211.211 35.584 211.312 36.1547 211.312 36.848V42H210.048V36.992ZM219.449 34.936C219.455 35.2304 219.525 35.4832 219.66 35.6944C219.801 35.9056 219.989 36.0688 220.226 36.184C220.463 36.2928 220.738 36.3472 221.052 36.3472C221.551 36.3472 221.932 36.232 222.194 36.0016C222.463 35.7648 222.597 35.4064 222.597 34.9264C222.597 34.5552 222.489 34.2608 222.271 34.0432C222.053 33.8192 221.74 33.7072 221.33 33.7072C221.093 33.7072 220.882 33.7424 220.697 33.8128C220.517 33.8768 220.335 33.976 220.149 34.1104L219.679 33.4864L222.089 31.4128H218.623V30.616H223.26V31.4128L221.196 33.2656C221.375 33.2144 221.583 33.1888 221.82 33.1888C222.114 33.1888 222.399 33.2528 222.674 33.3808C222.956 33.5024 223.186 33.6976 223.365 33.9664C223.545 34.2288 223.634 34.5616 223.634 34.9648C223.634 35.3424 223.548 35.6976 223.375 36.0304C223.209 36.3568 222.93 36.6288 222.54 36.8464C222.149 37.0576 221.641 37.1632 221.013 37.1632C220.457 37.1632 219.983 37.0704 219.593 36.8848C219.209 36.6992 218.917 36.44 218.719 36.1072C218.527 35.768 218.425 35.3776 218.412 34.936H219.449ZM227.959 31.36H229.095L225.463 42H224.327L227.959 31.36ZM231.044 39.328C231.076 39.712 231.177 40.0533 231.348 40.352C231.518 40.64 231.785 40.8693 232.148 41.04C232.521 41.2 233.001 41.28 233.588 41.28C234.046 41.28 234.42 41.2267 234.708 41.12C235.006 41.0133 235.22 40.8587 235.348 40.656C235.486 40.4533 235.556 40.1973 235.556 39.888C235.556 39.504 235.438 39.2053 235.204 38.992C234.969 38.7787 234.601 38.6347 234.1 38.56L232.244 38.288C231.54 38.192 231.001 37.9627 230.628 37.6C230.254 37.2267 230.068 36.736 230.068 36.128C230.068 35.3813 230.35 34.7947 230.916 34.368C231.481 33.9413 232.265 33.728 233.268 33.728C233.95 33.728 234.537 33.8347 235.028 34.048C235.529 34.2613 235.913 34.5653 236.18 34.96C236.457 35.344 236.617 35.7867 236.66 36.288H235.396C235.353 35.8293 235.15 35.4507 234.788 35.152C234.436 34.8533 233.918 34.704 233.236 34.704C232.585 34.704 232.1 34.8213 231.78 35.056C231.47 35.2907 231.316 35.616 231.316 36.032C231.316 36.3413 231.412 36.6027 231.604 36.816C231.796 37.0187 232.126 37.152 232.596 37.216L234.308 37.456C235.204 37.584 235.844 37.84 236.228 38.224C236.612 38.608 236.804 39.1413 236.804 39.824C236.804 40.6347 236.526 41.2427 235.972 41.648C235.428 42.0533 234.622 42.256 233.556 42.256C232.702 42.256 232.004 42.1333 231.46 41.888C230.916 41.632 230.516 41.2853 230.26 40.848C230.004 40.4107 229.87 39.904 229.86 39.328H231.044Z" fill="black"/>
</svg>
