<svg width="292" height="71" viewBox="0 0 292 71" fill="none" xmlns="http://www.w3.org/2000/svg">
<rect y="24" width="24" height="24" fill="#0047CC"/>
<path d="M41.056 39.912L46.336 35.48C46.8587 35.0427 47.216 34.6533 47.408 34.312C47.6107 33.96 47.712 33.5493 47.712 33.08C47.712 32.504 47.52 32.0453 47.136 31.704C46.7627 31.352 46.1973 31.176 45.44 31.176C44.7467 31.176 44.176 31.3093 43.728 31.576C43.2907 31.832 42.9653 32.216 42.752 32.728C42.5387 33.2293 42.4267 33.848 42.416 34.584H41.04C41.0613 33.72 41.216 32.952 41.504 32.28C41.8027 31.608 42.272 31.0747 42.912 30.68C43.5627 30.2747 44.4 30.072 45.424 30.072C46.288 30.072 46.992 30.2107 47.536 30.488C48.08 30.7547 48.4747 31.112 48.72 31.56C48.976 32.008 49.104 32.5093 49.104 33.064C49.104 33.736 48.9067 34.3547 48.512 34.92C48.128 35.4853 47.4773 36.1467 46.56 36.904L42.96 39.912H49.312V41H41.056V39.912ZM55.9966 41.272C54.9193 41.272 54.0233 41.032 53.3086 40.552C52.594 40.072 52.066 39.416 51.7246 38.584C51.3833 37.7413 51.2126 36.7707 51.2126 35.672C51.2126 34.5733 51.3833 33.608 51.7246 32.776C52.066 31.9333 52.594 31.272 53.3086 30.792C54.0233 30.312 54.9193 30.072 55.9966 30.072C57.0633 30.072 57.954 30.312 58.6686 30.792C59.3833 31.272 59.9113 31.9333 60.2526 32.776C60.6046 33.6187 60.7806 34.584 60.7806 35.672C60.7806 36.76 60.6046 37.7253 60.2526 38.568C59.9113 39.4107 59.3833 40.072 58.6686 40.552C57.954 41.032 57.0633 41.272 55.9966 41.272ZM52.6046 35.672C52.6046 36.6747 52.722 37.512 52.9566 38.184C53.202 38.8453 53.5753 39.3413 54.0766 39.672C54.578 40.0027 55.218 40.168 55.9966 40.168C56.7753 40.168 57.4153 40.0027 57.9166 39.672C58.418 39.3413 58.786 38.8453 59.0206 38.184C59.266 37.512 59.3886 36.6747 59.3886 35.672C59.3886 34.6587 59.266 33.8213 59.0206 33.16C58.786 32.4987 58.418 32.0027 57.9166 31.672C57.4153 31.3413 56.7753 31.176 55.9966 31.176C55.218 31.176 54.578 31.3413 54.0766 31.672C53.5753 32.0027 53.202 32.4987 52.9566 33.16C52.722 33.8213 52.6046 34.6587 52.6046 35.672ZM62.8991 39.912L68.1791 35.48C68.7018 35.0427 69.0591 34.6533 69.2511 34.312C69.4538 33.96 69.5551 33.5493 69.5551 33.08C69.5551 32.504 69.3631 32.0453 68.9791 31.704C68.6058 31.352 68.0405 31.176 67.2831 31.176C66.5898 31.176 66.0191 31.3093 65.5711 31.576C65.1338 31.832 64.8085 32.216 64.5951 32.728C64.3818 33.2293 64.2698 33.848 64.2591 34.584H62.8831C62.9045 33.72 63.0591 32.952 63.3471 32.28C63.6458 31.608 64.1151 31.0747 64.7551 30.68C65.4058 30.2747 66.2431 30.072 67.2671 30.072C68.1311 30.072 68.8351 30.2107 69.3791 30.488C69.9231 30.7547 70.3178 31.112 70.5631 31.56C70.8191 32.008 70.9471 32.5093 70.9471 33.064C70.9471 33.736 70.7498 34.3547 70.3551 34.92C69.9711 35.4853 69.3205 36.1467 68.4031 36.904L64.8031 39.912H71.1551V41H62.8991V39.912ZM73.2957 39.912H75.7757V31.448H73.3117V30.36H75.5837C76.1277 30.36 76.5117 30.472 76.7357 30.696C76.9704 30.92 77.0877 31.2507 77.0877 31.688V39.912H79.3597V41H73.2957V39.912Z" fill="black"/>
<rect opacity="0.5" x="104" y="24" width="24" height="24" fill="#6691E0"/>
<path d="M145.056 39.912L150.336 35.48C150.859 35.0427 151.216 34.6533 151.408 34.312C151.611 33.96 151.712 33.5493 151.712 33.08C151.712 32.504 151.52 32.0453 151.136 31.704C150.763 31.352 150.197 31.176 149.44 31.176C148.747 31.176 148.176 31.3093 147.728 31.576C147.291 31.832 146.965 32.216 146.752 32.728C146.539 33.2293 146.427 33.848 146.416 34.584H145.04C145.061 33.72 145.216 32.952 145.504 32.28C145.803 31.608 146.272 31.0747 146.912 30.68C147.563 30.2747 148.4 30.072 149.424 30.072C150.288 30.072 150.992 30.2107 151.536 30.488C152.08 30.7547 152.475 31.112 152.72 31.56C152.976 32.008 153.104 32.5093 153.104 33.064C153.104 33.736 152.907 34.3547 152.512 34.92C152.128 35.4853 151.477 36.1467 150.56 36.904L146.96 39.912H153.312V41H145.056V39.912ZM159.997 41.272C158.919 41.272 158.023 41.032 157.309 40.552C156.594 40.072 156.066 39.416 155.725 38.584C155.383 37.7413 155.213 36.7707 155.213 35.672C155.213 34.5733 155.383 33.608 155.725 32.776C156.066 31.9333 156.594 31.272 157.309 30.792C158.023 30.312 158.919 30.072 159.997 30.072C161.063 30.072 161.954 30.312 162.669 30.792C163.383 31.272 163.911 31.9333 164.253 32.776C164.605 33.6187 164.781 34.584 164.781 35.672C164.781 36.76 164.605 37.7253 164.253 38.568C163.911 39.4107 163.383 40.072 162.669 40.552C161.954 41.032 161.063 41.272 159.997 41.272ZM156.605 35.672C156.605 36.6747 156.722 37.512 156.957 38.184C157.202 38.8453 157.575 39.3413 158.077 39.672C158.578 40.0027 159.218 40.168 159.997 40.168C160.775 40.168 161.415 40.0027 161.917 39.672C162.418 39.3413 162.786 38.8453 163.021 38.184C163.266 37.512 163.389 36.6747 163.389 35.672C163.389 34.6587 163.266 33.8213 163.021 33.16C162.786 32.4987 162.418 32.0027 161.917 31.672C161.415 31.3413 160.775 31.176 159.997 31.176C159.218 31.176 158.578 31.3413 158.077 31.672C157.575 32.0027 157.202 32.4987 156.957 33.16C156.722 33.8213 156.605 34.6587 156.605 35.672ZM166.899 39.912L172.179 35.48C172.702 35.0427 173.059 34.6533 173.251 34.312C173.454 33.96 173.555 33.5493 173.555 33.08C173.555 32.504 173.363 32.0453 172.979 31.704C172.606 31.352 172.04 31.176 171.283 31.176C170.59 31.176 170.019 31.3093 169.571 31.576C169.134 31.832 168.808 32.216 168.595 32.728C168.382 33.2293 168.27 33.848 168.259 34.584H166.883C166.904 33.72 167.059 32.952 167.347 32.28C167.646 31.608 168.115 31.0747 168.755 30.68C169.406 30.2747 170.243 30.072 171.267 30.072C172.131 30.072 172.835 30.2107 173.379 30.488C173.923 30.7547 174.318 31.112 174.563 31.56C174.819 32.008 174.947 32.5093 174.947 33.064C174.947 33.736 174.75 34.3547 174.355 34.92C173.971 35.4853 173.32 36.1467 172.403 36.904L168.803 39.912H175.155V41H166.899V39.912ZM177.36 39.912L182.64 35.48C183.162 35.0427 183.52 34.6533 183.712 34.312C183.914 33.96 184.016 33.5493 184.016 33.08C184.016 32.504 183.824 32.0453 183.44 31.704C183.066 31.352 182.501 31.176 181.744 31.176C181.05 31.176 180.48 31.3093 180.032 31.576C179.594 31.832 179.269 32.216 179.056 32.728C178.842 33.2293 178.73 33.848 178.72 34.584H177.344C177.365 33.72 177.52 32.952 177.808 32.28C178.106 31.608 178.576 31.0747 179.216 30.68C179.866 30.2747 180.704 30.072 181.728 30.072C182.592 30.072 183.296 30.2107 183.84 30.488C184.384 30.7547 184.778 31.112 185.024 31.56C185.28 32.008 185.408 32.5093 185.408 33.064C185.408 33.736 185.21 34.3547 184.816 34.92C184.432 35.4853 183.781 36.1467 182.864 36.904L179.264 39.912H185.616V41H177.36V39.912Z" fill="black"/>
<rect opacity="0.5" x="208" y="24" width="24" height="24" fill="#CCDAF5"/>
<path d="M249.056 39.912L254.336 35.48C254.859 35.0427 255.216 34.6533 255.408 34.312C255.611 33.96 255.712 33.5493 255.712 33.08C255.712 32.504 255.52 32.0453 255.136 31.704C254.763 31.352 254.197 31.176 253.44 31.176C252.747 31.176 252.176 31.3093 251.728 31.576C251.291 31.832 250.965 32.216 250.752 32.728C250.539 33.2293 250.427 33.848 250.416 34.584H249.04C249.061 33.72 249.216 32.952 249.504 32.28C249.803 31.608 250.272 31.0747 250.912 30.68C251.563 30.2747 252.4 30.072 253.424 30.072C254.288 30.072 254.992 30.2107 255.536 30.488C256.08 30.7547 256.475 31.112 256.72 31.56C256.976 32.008 257.104 32.5093 257.104 33.064C257.104 33.736 256.907 34.3547 256.512 34.92C256.128 35.4853 255.477 36.1467 254.56 36.904L250.96 39.912H257.312V41H249.056V39.912ZM263.997 41.272C262.919 41.272 262.023 41.032 261.309 40.552C260.594 40.072 260.066 39.416 259.725 38.584C259.383 37.7413 259.213 36.7707 259.213 35.672C259.213 34.5733 259.383 33.608 259.725 32.776C260.066 31.9333 260.594 31.272 261.309 30.792C262.023 30.312 262.919 30.072 263.997 30.072C265.063 30.072 265.954 30.312 266.669 30.792C267.383 31.272 267.911 31.9333 268.253 32.776C268.605 33.6187 268.781 34.584 268.781 35.672C268.781 36.76 268.605 37.7253 268.253 38.568C267.911 39.4107 267.383 40.072 266.669 40.552C265.954 41.032 265.063 41.272 263.997 41.272ZM260.605 35.672C260.605 36.6747 260.722 37.512 260.957 38.184C261.202 38.8453 261.575 39.3413 262.077 39.672C262.578 40.0027 263.218 40.168 263.997 40.168C264.775 40.168 265.415 40.0027 265.917 39.672C266.418 39.3413 266.786 38.8453 267.021 38.184C267.266 37.512 267.389 36.6747 267.389 35.672C267.389 34.6587 267.266 33.8213 267.021 33.16C266.786 32.4987 266.418 32.0027 265.917 31.672C265.415 31.3413 264.775 31.176 263.997 31.176C263.218 31.176 262.578 31.3413 262.077 31.672C261.575 32.0027 261.202 32.4987 260.957 33.16C260.722 33.8213 260.605 34.6587 260.605 35.672ZM270.899 39.912L276.179 35.48C276.702 35.0427 277.059 34.6533 277.251 34.312C277.454 33.96 277.555 33.5493 277.555 33.08C277.555 32.504 277.363 32.0453 276.979 31.704C276.606 31.352 276.04 31.176 275.283 31.176C274.59 31.176 274.019 31.3093 273.571 31.576C273.134 31.832 272.808 32.216 272.595 32.728C272.382 33.2293 272.27 33.848 272.259 34.584H270.883C270.904 33.72 271.059 32.952 271.347 32.28C271.646 31.608 272.115 31.0747 272.755 30.68C273.406 30.2747 274.243 30.072 275.267 30.072C276.131 30.072 276.835 30.2107 277.379 30.488C277.923 30.7547 278.318 31.112 278.563 31.56C278.819 32.008 278.947 32.5093 278.947 33.064C278.947 33.736 278.75 34.3547 278.355 34.92C277.971 35.4853 277.32 36.1467 276.403 36.904L272.803 39.912H279.155V41H270.899V39.912ZM282.416 37.544C282.426 38.0347 282.544 38.4773 282.768 38.872C283.002 39.2667 283.333 39.5813 283.76 39.816C284.186 40.0507 284.698 40.168 285.296 40.168C286.234 40.168 286.944 39.9547 287.424 39.528C287.914 39.0907 288.16 38.4507 288.16 37.608C288.16 36.9147 287.962 36.3653 287.568 35.96C287.184 35.544 286.624 35.336 285.888 35.336C285.493 35.336 285.146 35.384 284.848 35.48C284.549 35.576 284.24 35.7307 283.92 35.944L283.28 35.096L287.472 31.448H281.424V30.36H289.04V31.448L285.376 34.744C285.696 34.648 286.058 34.6 286.464 34.6C287.008 34.6 287.514 34.7173 287.984 34.952C288.453 35.176 288.832 35.5173 289.12 35.976C289.408 36.424 289.552 36.9787 289.552 37.64C289.552 38.28 289.408 38.872 289.12 39.416C288.832 39.96 288.368 40.408 287.728 40.76C287.088 41.1013 286.266 41.272 285.264 41.272C284.357 41.272 283.584 41.112 282.944 40.792C282.314 40.472 281.84 40.0293 281.52 39.464C281.21 38.8987 281.045 38.2587 281.024 37.544H282.416Z" fill="black"/>
</svg>
