<?xml version="1.0" encoding="utf-8"?>
<!-- Generator: Adobe Illustrator 25.2.0, SVG Export Plug-In . SVG Version: 6.00 Build 0)  -->
<svg version="1.1" id="Livello_1" xmlns="http://www.w3.org/2000/svg" xmlns:xlink="http://www.w3.org/1999/xlink" x="0px" y="0px"
	 viewBox="0 0 289.9 56.6" style="enable-background:new 0 0 289.9 56.6;" xml:space="preserve">
<style type="text/css">
	.st0{fill:none;}
	.st1{fill:none;stroke:#EB5F5F;stroke-width:1.5;}
	.st2{fill:url(#SVGID_1_);stroke:#EB5F5F;stroke-miterlimit:10;}
</style>
<pattern  x="-615.3" width="72" height="72" patternUnits="userSpaceOnUse" id="_10_lpi_20_" viewBox="72.2 -72 72 72" style="overflow:visible;">
	<g>
		<rect x="72.2" y="-72" class="st0" width="72" height="72"/>
		<rect x="72.2" y="-72" class="st0" width="72" height="72"/>
		<line class="st1" x1="144" y1="-68.4" x2="216.5" y2="-68.4"/>
		<line class="st1" x1="144" y1="-54" x2="216.5" y2="-54"/>
		<line class="st1" x1="144" y1="-39.6" x2="216.5" y2="-39.6"/>
		<line class="st1" x1="144" y1="-25.2" x2="216.5" y2="-25.2"/>
		<line class="st1" x1="144" y1="-10.8" x2="216.5" y2="-10.8"/>
		<line class="st1" x1="144" y1="-61.2" x2="216.5" y2="-61.2"/>
		<line class="st1" x1="144" y1="-46.8" x2="216.5" y2="-46.8"/>
		<line class="st1" x1="144" y1="-32.4" x2="216.5" y2="-32.4"/>
		<line class="st1" x1="144" y1="-18" x2="216.5" y2="-18"/>
		<line class="st1" x1="144" y1="-3.6" x2="216.5" y2="-3.6"/>
		<line class="st1" x1="72" y1="-68.4" x2="144.5" y2="-68.4"/>
		<line class="st1" x1="72" y1="-54" x2="144.5" y2="-54"/>
		<line class="st1" x1="72" y1="-39.6" x2="144.5" y2="-39.6"/>
		<line class="st1" x1="72" y1="-25.2" x2="144.5" y2="-25.2"/>
		<line class="st1" x1="72" y1="-10.8" x2="144.5" y2="-10.8"/>
		<line class="st1" x1="72" y1="-61.2" x2="144.5" y2="-61.2"/>
		<line class="st1" x1="72" y1="-46.8" x2="144.5" y2="-46.8"/>
		<line class="st1" x1="72" y1="-32.4" x2="144.5" y2="-32.4"/>
		<line class="st1" x1="72" y1="-18" x2="144.5" y2="-18"/>
		<line class="st1" x1="72" y1="-3.6" x2="144.5" y2="-3.6"/>
		<line class="st1" x1="0" y1="-68.4" x2="72.5" y2="-68.4"/>
		<line class="st1" x1="0" y1="-54" x2="72.5" y2="-54"/>
		<line class="st1" x1="0" y1="-39.6" x2="72.5" y2="-39.6"/>
		<line class="st1" x1="0" y1="-25.2" x2="72.5" y2="-25.2"/>
		<line class="st1" x1="0" y1="-10.8" x2="72.5" y2="-10.8"/>
		<line class="st1" x1="0" y1="-61.2" x2="72.5" y2="-61.2"/>
		<line class="st1" x1="0" y1="-46.8" x2="72.5" y2="-46.8"/>
		<line class="st1" x1="0" y1="-32.4" x2="72.5" y2="-32.4"/>
		<line class="st1" x1="0" y1="-18" x2="72.5" y2="-18"/>
		<line class="st1" x1="0" y1="-3.6" x2="72.5" y2="-3.6"/>
	</g>
</pattern>
<pattern  id="SVGID_1_" xlink:href="#_10_lpi_20_" patternTransform="matrix(0.57 -0.76 -0.57 -0.76 -6118.8486 -7945.1113)">
</pattern>
<rect x="16.2" y="16.4" class="st2" width="24" height="24"/>
<g>
	<g>
		<path d="M62.2,21.7c0.2,0.4,0.6,0.8,1.1,1c0.5,0.2,1.1,0.4,1.9,0.4c0.7,0,1.3-0.1,1.7-0.2c0.4-0.2,0.7-0.4,0.9-0.7
			c0.2-0.3,0.3-0.7,0.3-1.1c0-0.6-0.2-1-0.5-1.3c-0.3-0.3-0.8-0.5-1.5-0.6l-2.5-0.4c-0.9-0.1-1.6-0.4-2-0.9C61.2,17.4,61,16.8,61,16
			c0-0.6,0.1-1.1,0.4-1.6c0.3-0.5,0.7-0.8,1.4-1.1c0.6-0.3,1.4-0.4,2.2-0.4c0.9,0,1.7,0.1,2.3,0.4c0.6,0.3,1.1,0.7,1.4,1.2
			c0.3,0.5,0.5,1.1,0.6,1.8H68c-0.1-0.5-0.2-0.9-0.4-1.3c-0.2-0.4-0.6-0.6-1-0.8s-1-0.3-1.6-0.3c-0.9,0-1.6,0.2-2,0.5
			s-0.7,0.8-0.7,1.5c0,0.4,0.1,0.8,0.4,1.1c0.2,0.3,0.7,0.5,1.2,0.6l2.7,0.4c1,0.1,1.7,0.5,2.2,0.9c0.5,0.5,0.7,1.1,0.7,1.9
			c0,0.7-0.1,1.3-0.4,1.8c-0.3,0.5-0.8,0.8-1.4,1.1S66.2,24,65.2,24c-1.1,0-2-0.2-2.7-0.5c-0.7-0.3-1.2-0.8-1.5-1.4
			c-0.3-0.6-0.5-1.2-0.5-2h1.3C61.9,20.7,62,21.2,62.2,21.7z"/>
		<path d="M72.5,23.5c-0.6-0.4-1.1-0.9-1.4-1.5c-0.3-0.6-0.5-1.4-0.5-2.2c0-0.8,0.2-1.5,0.5-2.2c0.3-0.6,0.8-1.1,1.4-1.5
			c0.6-0.4,1.3-0.6,2.2-0.6c0.9,0,1.6,0.2,2.2,0.6c0.6,0.4,1.1,0.9,1.4,1.5s0.4,1.4,0.4,2.2c0,0.8-0.1,1.6-0.4,2.2
			c-0.3,0.6-0.8,1.1-1.4,1.5c-0.6,0.4-1.3,0.6-2.2,0.6C73.9,24.1,73.1,23.9,72.5,23.5z M72.3,21.6c0.2,0.5,0.5,0.8,0.9,1.1
			c0.4,0.2,0.9,0.3,1.5,0.3c0.6,0,1.1-0.1,1.5-0.3c0.4-0.2,0.7-0.6,0.9-1.1c0.2-0.5,0.3-1.1,0.3-1.8c0-0.7-0.1-1.4-0.3-1.8
			c-0.2-0.5-0.5-0.8-0.9-1c-0.4-0.2-0.9-0.3-1.5-0.3c-0.6,0-1.1,0.1-1.5,0.3c-0.4,0.2-0.7,0.6-0.9,1c-0.2,0.5-0.3,1.1-0.3,1.8
			C72,20.5,72.1,21.2,72.3,21.6z"/>
		<path d="M81.5,23.1c-0.5-0.3-1-0.8-1.2-1.4c-0.3-0.6-0.4-1.3-0.4-2.2c0-1.3,0.3-2.2,0.9-3c0.6-0.7,1.5-1.1,2.8-1.1
			c1.2,0,2,0.3,2.6,1s0.9,1.7,0.9,3c0,0.9-0.1,1.6-0.4,2.2c-0.3,0.6-0.6,1-1.1,1.3c-0.5,0.3-1.2,0.4-1.9,0.4
			C82.8,23.6,82.1,23.5,81.5,23.1z M81.9,26.8c-0.5-0.2-1-0.5-1.3-1c-0.3-0.4-0.5-0.9-0.5-1.6h1.3c0,0.4,0.1,0.7,0.3,1
			c0.2,0.3,0.4,0.5,0.8,0.7c0.4,0.2,0.8,0.2,1.4,0.2c0.6,0,1.2-0.1,1.5-0.2s0.7-0.4,0.9-0.8c0.2-0.3,0.3-0.8,0.3-1.4v-8h1.3v8
			c0,0.7-0.1,1.3-0.4,1.8c-0.3,0.5-0.7,0.9-1.3,1.1c-0.6,0.3-1.3,0.4-2.3,0.4C83.1,27.2,82.4,27.1,81.9,26.8z M85.4,22.3
			c0.4-0.2,0.7-0.5,0.9-1c0.2-0.4,0.3-1,0.3-1.7c0-0.7-0.1-1.3-0.3-1.7c-0.2-0.4-0.5-0.8-0.9-1s-0.9-0.3-1.5-0.3
			c-0.6,0-1.1,0.1-1.5,0.3c-0.4,0.2-0.7,0.5-0.9,1c-0.2,0.4-0.3,1-0.3,1.7c0,0.7,0.1,1.3,0.3,1.7c0.2,0.4,0.5,0.8,0.9,1
			c0.4,0.2,0.9,0.3,1.5,0.3C84.5,22.6,85,22.5,85.4,22.3z"/>
		<path d="M90.1,12.6h1.3v11.2h-1.3V12.6z"/>
		<path d="M93.4,13.2h1.6v1.3h-1.6V13.2z M93.6,15.8h1.3v8h-1.3V15.8z"/>
		<path d="M97.8,23.8c-0.4-0.2-0.7-0.4-0.9-0.8c-0.2-0.3-0.3-0.8-0.3-1.3c0-0.4,0.1-0.8,0.2-1.1c0.2-0.3,0.4-0.6,0.8-0.8
			s0.8-0.4,1.4-0.5l2-0.3c0.4-0.1,0.7-0.2,0.9-0.3c0.2-0.1,0.3-0.4,0.3-0.7c0-0.3-0.1-0.6-0.2-0.8c-0.1-0.2-0.3-0.4-0.6-0.5
			c-0.3-0.1-0.7-0.2-1.2-0.2c-0.7,0-1.3,0.2-1.6,0.5c-0.3,0.3-0.5,0.7-0.6,1.3h-1.3c0-0.6,0.2-1.1,0.4-1.5s0.7-0.7,1.2-1
			c0.5-0.2,1.1-0.3,1.9-0.3c0.7,0,1.3,0.1,1.8,0.3c0.5,0.2,0.8,0.5,1.1,0.9c0.2,0.4,0.3,0.8,0.3,1.3v3.8c0,0.3,0,0.6,0,0.9
			c0,0.3,0,0.7,0.1,1h-1.2c0-0.3-0.1-0.7-0.1-1c0-0.3,0-0.6,0-0.9c-0.1,0.4-0.3,0.7-0.5,1c-0.2,0.3-0.6,0.6-1,0.8
			c-0.4,0.2-0.9,0.3-1.5,0.3C98.7,24,98.2,23.9,97.8,23.8z M101,22.6c0.4-0.3,0.7-0.6,0.9-1.1c0.2-0.5,0.3-0.9,0.3-1.5v-0.7
			c-0.2,0.1-0.3,0.2-0.5,0.3s-0.4,0.1-0.7,0.2l-0.2,0l-1.3,0.3c-0.6,0.1-1,0.3-1.2,0.5c-0.2,0.2-0.4,0.6-0.4,1c0,0.4,0.1,0.8,0.4,1
			c0.3,0.2,0.7,0.4,1.2,0.4C100.1,23,100.6,22.9,101,22.6z"/>
		<path d="M108.9,17.6c0.3-0.6,0.8-1.1,1.4-1.5s1.3-0.5,2.2-0.5c0.8,0,1.4,0.1,2,0.4s1,0.6,1.2,1.1s0.5,1,0.5,1.7H115
			c-0.1-0.4-0.2-0.8-0.4-1.2c-0.2-0.3-0.5-0.6-0.8-0.7c-0.3-0.2-0.8-0.3-1.3-0.3c-0.6,0-1.1,0.1-1.5,0.3c-0.4,0.2-0.7,0.6-0.9,1
			c-0.2,0.5-0.3,1.1-0.3,1.8s0.1,1.4,0.3,1.8c0.2,0.5,0.5,0.8,0.9,1c0.4,0.2,0.9,0.3,1.5,0.3c0.8,0,1.4-0.2,1.8-0.6
			c0.4-0.4,0.7-1,0.8-1.7h1.2c0,0.6-0.2,1.2-0.5,1.7c-0.3,0.5-0.7,0.9-1.3,1.2c-0.6,0.3-1.2,0.4-2,0.4c-0.9,0-1.6-0.2-2.2-0.5
			c-0.6-0.4-1.1-0.9-1.4-1.5c-0.3-0.6-0.5-1.4-0.5-2.2S108.6,18.2,108.9,17.6z"/>
		<path d="M117.9,15.8h1.3v2.5l0,0.3v5.2h-1.3V15.8z M119.1,18.2c0.2-0.8,0.6-1.4,1.1-1.8c0.5-0.5,1.1-0.7,1.9-0.7h0.3V17H122
			c-0.8,0-1.3,0.1-1.8,0.5c-0.4,0.3-0.7,0.8-0.9,1.3c-0.2,0.6-0.2,1.3-0.2,2.1h-0.4C118.7,19.9,118.8,19,119.1,18.2z"/>
		<path d="M123.5,13.2h1.6v1.3h-1.6V13.2z M123.7,15.8h1.3v8h-1.3V15.8z"/>
		<path d="M128.4,23.6c-0.3-0.1-0.5-0.3-0.6-0.6s-0.2-0.6-0.2-1.1v-5.1h-1.5v-0.7l1.6-0.4l0.5-1.7h0.7v1.8h2.6v1H129v6h2.5v1h-1.9
			C129.1,23.8,128.7,23.7,128.4,23.6z"/>
		<path d="M132.9,13.2h1.6v1.3h-1.6V13.2z M133.1,15.8h1.3v8h-1.3V15.8z"/>
		<path d="M136.5,17.6c0.3-0.6,0.8-1.1,1.4-1.5s1.3-0.5,2.2-0.5c0.8,0,1.4,0.1,2,0.4s1,0.6,1.2,1.1s0.5,1,0.5,1.7h-1.2
			c-0.1-0.4-0.2-0.8-0.4-1.2c-0.2-0.3-0.5-0.6-0.8-0.7c-0.3-0.2-0.8-0.3-1.3-0.3c-0.6,0-1.1,0.1-1.5,0.3c-0.4,0.2-0.7,0.6-0.9,1
			c-0.2,0.5-0.3,1.1-0.3,1.8s0.1,1.4,0.3,1.8c0.2,0.5,0.5,0.8,0.9,1c0.4,0.2,0.9,0.3,1.5,0.3c0.8,0,1.4-0.2,1.8-0.6
			c0.4-0.4,0.7-1,0.8-1.7h1.2c0,0.6-0.2,1.2-0.5,1.7c-0.3,0.5-0.7,0.9-1.3,1.2c-0.6,0.3-1.2,0.4-2,0.4c-0.9,0-1.6-0.2-2.2-0.5
			c-0.6-0.4-1.1-0.9-1.4-1.5c-0.3-0.6-0.5-1.4-0.5-2.2S136.1,18.2,136.5,17.6z"/>
		<path d="M146.2,23.8c-0.4-0.2-0.7-0.4-0.9-0.8c-0.2-0.3-0.3-0.8-0.3-1.3c0-0.4,0.1-0.8,0.2-1.1c0.2-0.3,0.4-0.6,0.8-0.8
			s0.8-0.4,1.4-0.5l2-0.3c0.4-0.1,0.7-0.2,0.9-0.3c0.2-0.1,0.3-0.4,0.3-0.7c0-0.3-0.1-0.6-0.2-0.8c-0.1-0.2-0.3-0.4-0.6-0.5
			c-0.3-0.1-0.7-0.2-1.2-0.2c-0.7,0-1.3,0.2-1.6,0.5c-0.3,0.3-0.5,0.7-0.6,1.3h-1.3c0-0.6,0.2-1.1,0.4-1.5s0.7-0.7,1.2-1
			c0.5-0.2,1.1-0.3,1.9-0.3c0.7,0,1.3,0.1,1.8,0.3c0.5,0.2,0.8,0.5,1.1,0.9c0.2,0.4,0.3,0.8,0.3,1.3v3.8c0,0.3,0,0.6,0,0.9
			c0,0.3,0,0.7,0.1,1h-1.2c0-0.3-0.1-0.7-0.1-1c0-0.3,0-0.6,0-0.9c-0.1,0.4-0.3,0.7-0.5,1c-0.2,0.3-0.6,0.6-1,0.8
			c-0.4,0.2-0.9,0.3-1.5,0.3C147,24,146.5,23.9,146.2,23.8z M149.3,22.6c0.4-0.3,0.7-0.6,0.9-1.1c0.2-0.5,0.3-0.9,0.3-1.5v-0.7
			c-0.2,0.1-0.3,0.2-0.5,0.3s-0.4,0.1-0.7,0.2l-0.2,0l-1.3,0.3c-0.6,0.1-1,0.3-1.2,0.5c-0.2,0.2-0.4,0.6-0.4,1c0,0.4,0.1,0.8,0.4,1
			c0.3,0.2,0.7,0.4,1.2,0.4C148.4,23,148.9,22.9,149.3,22.6z"/>
		<path d="M163.1,16.7c0.6,0.8,0.9,1.8,0.9,3.1c0,0.9-0.1,1.6-0.4,2.3c-0.3,0.6-0.7,1.1-1.2,1.5c-0.5,0.3-1.2,0.5-1.9,0.5
			c-0.8,0-1.5-0.2-2-0.5c-0.5-0.4-0.9-0.9-1.2-1.5s-0.4-1.4-0.4-2.2c0-0.8,0.1-1.6,0.4-2.2c0.3-0.6,0.7-1.1,1.2-1.5
			c0.5-0.4,1.2-0.5,2-0.5C161.6,15.6,162.5,15.9,163.1,16.7z M159.3,16.9c-0.4,0.2-0.7,0.6-0.9,1.1s-0.3,1.1-0.3,1.8
			c0,0.7,0.1,1.3,0.3,1.8s0.5,0.8,0.9,1.1c0.4,0.2,0.9,0.4,1.5,0.4c0.6,0,1.1-0.1,1.5-0.3c0.4-0.2,0.7-0.6,1-1.1
			c0.2-0.5,0.3-1.1,0.3-1.8s-0.1-1.3-0.3-1.8c-0.2-0.5-0.5-0.8-1-1.1c-0.4-0.2-0.9-0.3-1.5-0.3C160.1,16.6,159.6,16.7,159.3,16.9z
			 M164.8,23.8h-1.3v-1.9v-0.2v-9.1h1.3V23.8z"/>
		<path d="M168.3,23.5c-0.6-0.4-1-0.9-1.3-1.5s-0.4-1.4-0.4-2.2c0-0.8,0.1-1.5,0.4-2.2s0.7-1.1,1.3-1.5c0.6-0.4,1.3-0.6,2.2-0.6
			c0.8,0,1.5,0.2,2,0.5s1,0.8,1.3,1.4c0.3,0.6,0.4,1.3,0.4,2.1v0.2c0,0.1,0,0.2,0,0.3h-6.7v-1h6l-0.6,0.6c0-0.7,0-1.3-0.2-1.8
			c-0.2-0.5-0.5-0.8-0.8-1c-0.4-0.2-0.9-0.3-1.4-0.3c-0.6,0-1.1,0.1-1.5,0.3c-0.4,0.2-0.7,0.6-0.9,1.1c-0.2,0.5-0.3,1.1-0.3,1.9
			c0,0.8,0.1,1.4,0.3,1.9c0.2,0.5,0.5,0.8,0.9,1.1s0.9,0.3,1.5,0.3c0.5,0,0.9-0.1,1.3-0.2s0.6-0.3,0.8-0.6s0.3-0.6,0.4-0.9h1.2
			c-0.1,0.5-0.2,0.9-0.5,1.3c-0.3,0.4-0.7,0.7-1.2,1c-0.5,0.3-1.2,0.4-2.1,0.4C169.6,24.1,168.8,23.9,168.3,23.5z"/>
		<path d="M175.8,12.6h1.3v11.2h-1.3V12.6z"/>
		<path d="M179.4,12.6h1.3v11.2h-1.3V12.6z"/>
		<path d="M183.8,23.8c-0.4-0.2-0.7-0.4-0.9-0.8c-0.2-0.3-0.3-0.8-0.3-1.3c0-0.4,0.1-0.8,0.2-1.1c0.2-0.3,0.4-0.6,0.8-0.8
			s0.8-0.4,1.4-0.5l2-0.3c0.4-0.1,0.7-0.2,0.9-0.3c0.2-0.1,0.3-0.4,0.3-0.7c0-0.3-0.1-0.6-0.2-0.8c-0.1-0.2-0.3-0.4-0.6-0.5
			c-0.3-0.1-0.7-0.2-1.2-0.2c-0.7,0-1.3,0.2-1.6,0.5c-0.3,0.3-0.5,0.7-0.6,1.3h-1.3c0-0.6,0.2-1.1,0.4-1.5s0.7-0.7,1.2-1
			c0.5-0.2,1.1-0.3,1.9-0.3c0.7,0,1.3,0.1,1.8,0.3c0.5,0.2,0.8,0.5,1.1,0.9c0.2,0.4,0.3,0.8,0.3,1.3v3.8c0,0.3,0,0.6,0,0.9
			c0,0.3,0,0.7,0.1,1h-1.2c0-0.3-0.1-0.7-0.1-1c0-0.3,0-0.6,0-0.9c-0.1,0.4-0.3,0.7-0.5,1c-0.2,0.3-0.6,0.6-1,0.8
			c-0.4,0.2-0.9,0.3-1.5,0.3C184.6,24,184.2,23.9,183.8,23.8z M186.9,22.6c0.4-0.3,0.7-0.6,0.9-1.1c0.2-0.5,0.3-0.9,0.3-1.5v-0.7
			c-0.2,0.1-0.3,0.2-0.5,0.3s-0.4,0.1-0.7,0.2l-0.2,0l-1.3,0.3c-0.6,0.1-1,0.3-1.2,0.5c-0.2,0.2-0.4,0.6-0.4,1c0,0.4,0.1,0.8,0.4,1
			c0.3,0.2,0.7,0.4,1.2,0.4C186,23,186.5,22.9,186.9,22.6z"/>
		<path d="M195,15.8h1.3v1.8v0.3V27H195V15.8z M196.7,22.9c-0.6-0.8-0.9-1.8-0.9-3.1c0-1.3,0.3-2.4,0.9-3.1s1.5-1.1,2.6-1.1
			c0.8,0,1.5,0.2,2,0.5s0.9,0.9,1.2,1.5s0.4,1.4,0.4,2.2c0,0.8-0.1,1.6-0.4,2.2c-0.3,0.6-0.7,1.1-1.2,1.5c-0.5,0.4-1.2,0.5-2,0.5
			C198.1,24.1,197.3,23.7,196.7,22.9z M200.5,22.7c0.4-0.2,0.7-0.6,0.9-1.1c0.2-0.5,0.3-1.1,0.3-1.8c0-0.7-0.1-1.3-0.3-1.8
			c-0.2-0.5-0.5-0.8-0.9-1.1c-0.4-0.2-0.9-0.4-1.5-0.4c-0.6,0-1.1,0.1-1.5,0.3c-0.4,0.2-0.7,0.6-1,1.1s-0.3,1.1-0.3,1.8
			s0.1,1.3,0.3,1.8s0.5,0.8,1,1.1s0.9,0.3,1.5,0.3C199.6,23,200.1,22.9,200.5,22.7z"/>
		<path d="M205.9,23.5c-0.6-0.4-1.1-0.9-1.4-1.5c-0.3-0.6-0.5-1.4-0.5-2.2c0-0.8,0.2-1.5,0.5-2.2c0.3-0.6,0.8-1.1,1.4-1.5
			c0.6-0.4,1.3-0.6,2.2-0.6c0.9,0,1.6,0.2,2.2,0.6c0.6,0.4,1.1,0.9,1.4,1.5s0.4,1.4,0.4,2.2c0,0.8-0.1,1.6-0.4,2.2
			c-0.3,0.6-0.8,1.1-1.4,1.5c-0.6,0.4-1.3,0.6-2.2,0.6C207.3,24.1,206.5,23.9,205.9,23.5z M205.7,21.6c0.2,0.5,0.5,0.8,0.9,1.1
			c0.4,0.2,0.9,0.3,1.5,0.3c0.6,0,1.1-0.1,1.5-0.3c0.4-0.2,0.7-0.6,0.9-1.1c0.2-0.5,0.3-1.1,0.3-1.8c0-0.7-0.1-1.4-0.3-1.8
			c-0.2-0.5-0.5-0.8-0.9-1c-0.4-0.2-0.9-0.3-1.5-0.3c-0.6,0-1.1,0.1-1.5,0.3c-0.4,0.2-0.7,0.6-0.9,1c-0.2,0.5-0.3,1.1-0.3,1.8
			C205.4,20.5,205.5,21.2,205.7,21.6z"/>
		<path d="M213.9,15.8h1.3v2.5l0,0.3v5.2h-1.3V15.8z M215,18.2c0.2-0.8,0.6-1.4,1.1-1.8c0.5-0.5,1.1-0.7,1.9-0.7h0.3V17H218
			c-0.8,0-1.3,0.1-1.8,0.5c-0.4,0.3-0.7,0.8-0.9,1.3c-0.2,0.6-0.2,1.3-0.2,2.1h-0.4C214.7,19.9,214.8,19,215,18.2z"/>
		<path d="M221,23.6c-0.3-0.1-0.5-0.3-0.6-0.6s-0.2-0.6-0.2-1.1v-5.1h-1.5v-0.7l1.6-0.4l0.5-1.7h0.7v1.8h2.6v1h-2.6v6h2.5v1h-1.9
			C221.7,23.8,221.3,23.7,221,23.6z"/>
		<path d="M226.6,23.8c-0.4-0.2-0.7-0.4-0.9-0.8c-0.2-0.3-0.3-0.8-0.3-1.3c0-0.4,0.1-0.8,0.2-1.1c0.2-0.3,0.4-0.6,0.8-0.8
			s0.8-0.4,1.4-0.5l2-0.3c0.4-0.1,0.7-0.2,0.9-0.3c0.2-0.1,0.3-0.4,0.3-0.7c0-0.3-0.1-0.6-0.2-0.8c-0.1-0.2-0.3-0.4-0.6-0.5
			c-0.3-0.1-0.7-0.2-1.2-0.2c-0.7,0-1.3,0.2-1.6,0.5c-0.3,0.3-0.5,0.7-0.6,1.3h-1.3c0-0.6,0.2-1.1,0.4-1.5s0.7-0.7,1.2-1
			c0.5-0.2,1.1-0.3,1.9-0.3c0.7,0,1.3,0.1,1.8,0.3c0.5,0.2,0.8,0.5,1.1,0.9c0.2,0.4,0.3,0.8,0.3,1.3v3.8c0,0.3,0,0.6,0,0.9
			c0,0.3,0,0.7,0.1,1h-1.2c0-0.3-0.1-0.7-0.1-1c0-0.3,0-0.6,0-0.9c-0.1,0.4-0.3,0.7-0.5,1c-0.2,0.3-0.6,0.6-1,0.8
			c-0.4,0.2-0.9,0.3-1.5,0.3C227.5,24,227,23.9,226.6,23.8z M229.8,22.6c0.4-0.3,0.7-0.6,0.9-1.1c0.2-0.5,0.3-0.9,0.3-1.5v-0.7
			c-0.2,0.1-0.3,0.2-0.5,0.3s-0.4,0.1-0.7,0.2l-0.2,0l-1.3,0.3c-0.6,0.1-1,0.3-1.2,0.5c-0.2,0.2-0.4,0.6-0.4,1c0,0.4,0.1,0.8,0.4,1
			c0.3,0.2,0.7,0.4,1.2,0.4C228.8,23,229.3,22.9,229.8,22.6z"/>
		<path d="M235.4,23.6c-0.3-0.1-0.5-0.3-0.6-0.6s-0.2-0.6-0.2-1.1v-5.1h-1.5v-0.7l1.6-0.4l0.5-1.7h0.7v1.8h2.6v1H236v6h2.5v1h-1.9
			C236.1,23.8,235.7,23.7,235.4,23.6z"/>
		<path d="M241,23.8c-0.4-0.2-0.7-0.4-0.9-0.8c-0.2-0.3-0.3-0.8-0.3-1.3c0-0.4,0.1-0.8,0.2-1.1c0.2-0.3,0.4-0.6,0.8-0.8
			s0.8-0.4,1.4-0.5l2-0.3c0.4-0.1,0.7-0.2,0.9-0.3c0.2-0.1,0.3-0.4,0.3-0.7c0-0.3-0.1-0.6-0.2-0.8c-0.1-0.2-0.3-0.4-0.6-0.5
			c-0.3-0.1-0.7-0.2-1.2-0.2c-0.7,0-1.3,0.2-1.6,0.5c-0.3,0.3-0.5,0.7-0.6,1.3h-1.3c0-0.6,0.2-1.1,0.4-1.5s0.7-0.7,1.2-1
			c0.5-0.2,1.1-0.3,1.9-0.3c0.7,0,1.3,0.1,1.8,0.3c0.5,0.2,0.8,0.5,1.1,0.9c0.2,0.4,0.3,0.8,0.3,1.3v3.8c0,0.3,0,0.6,0,0.9
			c0,0.3,0,0.7,0.1,1h-1.2c0-0.3-0.1-0.7-0.1-1c0-0.3,0-0.6,0-0.9c-0.1,0.4-0.3,0.7-0.5,1c-0.2,0.3-0.6,0.6-1,0.8
			c-0.4,0.2-0.9,0.3-1.5,0.3C241.9,24,241.4,23.9,241,23.8z M244.2,22.6c0.4-0.3,0.7-0.6,0.9-1.1c0.2-0.5,0.3-0.9,0.3-1.5v-0.7
			c-0.2,0.1-0.3,0.2-0.5,0.3s-0.4,0.1-0.7,0.2l-0.2,0l-1.3,0.3c-0.6,0.1-1,0.3-1.2,0.5c-0.2,0.2-0.4,0.6-0.4,1c0,0.4,0.1,0.8,0.4,1
			c0.3,0.2,0.7,0.4,1.2,0.4C243.2,23,243.7,22.9,244.2,22.6z"/>
		<path d="M252.2,15.8h1.3v1.8v0.3V27h-1.3V15.8z M253.9,22.9c-0.6-0.8-0.9-1.8-0.9-3.1c0-1.3,0.3-2.4,0.9-3.1s1.5-1.1,2.6-1.1
			c0.8,0,1.5,0.2,2,0.5s0.9,0.9,1.2,1.5s0.4,1.4,0.4,2.2c0,0.8-0.1,1.6-0.4,2.2c-0.3,0.6-0.7,1.1-1.2,1.5c-0.5,0.4-1.2,0.5-2,0.5
			C255.4,24.1,254.5,23.7,253.9,22.9z M257.8,22.7c0.4-0.2,0.7-0.6,0.9-1.1c0.2-0.5,0.3-1.1,0.3-1.8c0-0.7-0.1-1.3-0.3-1.8
			c-0.2-0.5-0.5-0.8-0.9-1.1c-0.4-0.2-0.9-0.4-1.5-0.4c-0.6,0-1.1,0.1-1.5,0.3c-0.4,0.2-0.7,0.6-1,1.1s-0.3,1.1-0.3,1.8
			s0.1,1.3,0.3,1.8s0.5,0.8,1,1.1s0.9,0.3,1.5,0.3C256.9,23,257.4,22.9,257.8,22.7z"/>
		<path d="M263.1,23.5c-0.6-0.4-1-0.9-1.3-1.5s-0.4-1.4-0.4-2.2c0-0.8,0.1-1.5,0.4-2.2s0.7-1.1,1.3-1.5c0.6-0.4,1.3-0.6,2.2-0.6
			c0.8,0,1.5,0.2,2,0.5s1,0.8,1.3,1.4c0.3,0.6,0.4,1.3,0.4,2.1v0.2c0,0.1,0,0.2,0,0.3h-6.7v-1h6l-0.6,0.6c0-0.7,0-1.3-0.2-1.8
			c-0.2-0.5-0.5-0.8-0.8-1c-0.4-0.2-0.9-0.3-1.4-0.3c-0.6,0-1.1,0.1-1.5,0.3c-0.4,0.2-0.7,0.6-0.9,1.1c-0.2,0.5-0.3,1.1-0.3,1.9
			c0,0.8,0.1,1.4,0.3,1.9c0.2,0.5,0.5,0.8,0.9,1.1s0.9,0.3,1.5,0.3c0.5,0,0.9-0.1,1.3-0.2s0.6-0.3,0.8-0.6s0.3-0.6,0.4-0.9h1.2
			c-0.1,0.5-0.2,0.9-0.5,1.3c-0.3,0.4-0.7,0.7-1.2,1c-0.5,0.3-1.2,0.4-2.1,0.4C264.4,24.1,263.7,23.9,263.1,23.5z"/>
		<path d="M270.7,15.8h1.3v2.5l0,0.3v5.2h-1.3V15.8z M271.9,18.2c0.2-0.8,0.6-1.4,1.1-1.8c0.5-0.5,1.1-0.7,1.9-0.7h0.3V17h-0.4
			c-0.8,0-1.3,0.1-1.8,0.5c-0.4,0.3-0.7,0.8-0.9,1.3c-0.2,0.6-0.2,1.3-0.2,2.1h-0.4C271.5,19.9,271.6,19,271.9,18.2z"/>
		<path d="M61.1,31.8h1.3V43h-1.3V31.8z"/>
		<path d="M64,32.4h1.6v2.3c0,0.4-0.1,0.7-0.3,0.9c-0.2,0.2-0.5,0.3-1,0.3H64v-0.8h0.8v-1.4H64V32.4z"/>
		<path d="M67.1,32.4h1.6v1.3h-1.6V32.4z M67.3,35h1.3v8h-1.3V35z"/>
		<path d="M70.7,35H72v8h-1.3V35z M72,37.2c0.2-0.8,0.6-1.4,1.1-1.8s1.2-0.6,2-0.6c0.7,0,1.2,0.1,1.6,0.4c0.4,0.2,0.7,0.6,0.9,1.1
			c0.2,0.5,0.3,1,0.3,1.7V43h-1.3v-5c0-0.6-0.1-1-0.2-1.3c-0.1-0.3-0.4-0.6-0.6-0.7c-0.3-0.1-0.6-0.2-1-0.2c-0.6,0-1.1,0.2-1.5,0.5
			c-0.4,0.3-0.7,0.8-0.9,1.4C72.1,38.3,72,39,72,40h-0.4C71.6,38.9,71.7,38,72,37.2z"/>
		<path d="M81.3,42.8c-0.3-0.1-0.5-0.3-0.6-0.6s-0.2-0.6-0.2-1.1V36H79v-0.7l1.6-0.4l0.5-1.7h0.7V35h2.6v1h-2.6v6h2.5v1h-1.9
			C82,43,81.6,42.9,81.3,42.8z"/>
		<path d="M86.1,35h1.3v2.5l0,0.3V43h-1.3V35z M87.3,37.4c0.2-0.8,0.6-1.4,1.1-1.8c0.5-0.5,1.1-0.7,1.9-0.7h0.3v1.3h-0.4
			c-0.8,0-1.3,0.1-1.8,0.5c-0.4,0.3-0.7,0.8-0.9,1.3c-0.2,0.6-0.2,1.3-0.2,2.1h-0.4C86.9,39.1,87,38.2,87.3,37.4z"/>
		<path d="M93.2,42.9c-0.4-0.2-0.8-0.6-1-1c-0.2-0.5-0.3-1-0.3-1.8V35h1.3v5c0,0.6,0.1,1,0.2,1.4c0.2,0.3,0.4,0.6,0.7,0.7
			c0.3,0.1,0.7,0.2,1.1,0.2c0.6,0,1-0.2,1.4-0.5c0.4-0.3,0.7-0.8,0.9-1.4c0.2-0.6,0.3-1.4,0.3-2.2h0.4c0,1.1-0.1,2-0.3,2.8
			c-0.2,0.8-0.6,1.4-1.1,1.8c-0.5,0.4-1.1,0.6-1.9,0.6C94.1,43.3,93.6,43.1,93.2,42.9z M97.8,40.5v-0.2V35h1.3v8h-1.3V40.5z"/>
		<path d="M102.3,41.4c0.2,0.3,0.4,0.5,0.8,0.7c0.4,0.2,0.8,0.2,1.4,0.2c0.5,0,0.8-0.1,1.1-0.2c0.3-0.1,0.5-0.3,0.6-0.5
			c0.1-0.2,0.2-0.5,0.2-0.8c0-0.4-0.1-0.7-0.4-0.9c-0.2-0.2-0.6-0.4-1.1-0.4l-1.9-0.3c-0.7-0.1-1.2-0.3-1.6-0.7
			c-0.4-0.4-0.6-0.9-0.6-1.5c0-0.7,0.3-1.3,0.8-1.8s1.3-0.6,2.4-0.6c0.7,0,1.3,0.1,1.8,0.3c0.5,0.2,0.9,0.5,1.2,0.9
			c0.3,0.4,0.4,0.8,0.5,1.3h-1.3c0-0.5-0.2-0.8-0.6-1.1c-0.4-0.3-0.9-0.4-1.6-0.4c-0.7,0-1.1,0.1-1.4,0.4c-0.3,0.2-0.5,0.6-0.5,1
			c0,0.3,0.1,0.6,0.3,0.8c0.2,0.2,0.5,0.3,1,0.4l1.7,0.2c0.9,0.1,1.5,0.4,1.9,0.8c0.4,0.4,0.6,0.9,0.6,1.6c0,0.8-0.3,1.4-0.8,1.8
			c-0.5,0.4-1.4,0.6-2.4,0.6c-0.9,0-1.6-0.1-2.1-0.4s-0.9-0.6-1.2-1s-0.4-0.9-0.4-1.5h1.2C102,40.7,102.1,41.1,102.3,41.4z"/>
		<path d="M109.2,32.4h1.6v1.3h-1.6V32.4z M109.4,35h1.3v8h-1.3V35z"/>
		<path d="M114.1,42.7c-0.6-0.4-1.1-0.9-1.4-1.5c-0.3-0.6-0.5-1.4-0.5-2.2c0-0.8,0.2-1.5,0.5-2.2c0.3-0.6,0.8-1.1,1.4-1.5
			c0.6-0.4,1.3-0.6,2.2-0.6c0.9,0,1.6,0.2,2.2,0.6c0.6,0.4,1.1,0.9,1.4,1.5s0.4,1.4,0.4,2.2c0,0.8-0.1,1.6-0.4,2.2
			c-0.3,0.6-0.8,1.1-1.4,1.5c-0.6,0.4-1.3,0.6-2.2,0.6C115.4,43.3,114.7,43.1,114.1,42.7z M113.8,40.8c0.2,0.5,0.5,0.8,0.9,1.1
			c0.4,0.2,0.9,0.3,1.5,0.3c0.6,0,1.1-0.1,1.5-0.3c0.4-0.2,0.7-0.6,0.9-1.1c0.2-0.5,0.3-1.1,0.3-1.8c0-0.7-0.1-1.4-0.3-1.8
			c-0.2-0.5-0.5-0.8-0.9-1c-0.4-0.2-0.9-0.3-1.5-0.3c-0.6,0-1.1,0.1-1.5,0.3c-0.4,0.2-0.7,0.6-0.9,1c-0.2,0.5-0.3,1.1-0.3,1.8
			C113.5,39.7,113.6,40.4,113.8,40.8z"/>
		<path d="M122,35h1.3v8H122V35z M123.2,37.2c0.2-0.8,0.6-1.4,1.1-1.8s1.2-0.6,2-0.6c0.7,0,1.2,0.1,1.6,0.4c0.4,0.2,0.7,0.6,0.9,1.1
			c0.2,0.5,0.3,1,0.3,1.7V43h-1.3v-5c0-0.6-0.1-1-0.2-1.3c-0.1-0.3-0.4-0.6-0.6-0.7c-0.3-0.1-0.6-0.2-1-0.2c-0.6,0-1.1,0.2-1.5,0.5
			c-0.4,0.3-0.7,0.8-0.9,1.4c-0.2,0.6-0.3,1.4-0.3,2.3h-0.4C122.9,38.9,123,38,123.2,37.2z"/>
		<path d="M132.5,42.7c-0.6-0.4-1-0.9-1.3-1.5s-0.4-1.4-0.4-2.2c0-0.8,0.1-1.5,0.4-2.2s0.7-1.1,1.3-1.5c0.6-0.4,1.3-0.6,2.2-0.6
			c0.8,0,1.5,0.2,2,0.5s1,0.8,1.3,1.4c0.3,0.6,0.4,1.3,0.4,2.1V39c0,0.1,0,0.2,0,0.3h-6.7v-1h6l-0.6,0.6c0-0.7,0-1.3-0.2-1.8
			c-0.2-0.5-0.5-0.8-0.8-1c-0.4-0.2-0.9-0.3-1.4-0.3c-0.6,0-1.1,0.1-1.5,0.3c-0.4,0.2-0.7,0.6-0.9,1.1c-0.2,0.5-0.3,1.1-0.3,1.9
			c0,0.8,0.1,1.4,0.3,1.9c0.2,0.5,0.5,0.8,0.9,1.1s0.9,0.3,1.5,0.3c0.5,0,0.9-0.1,1.3-0.2s0.6-0.3,0.8-0.6s0.3-0.6,0.4-0.9h1.2
			c-0.1,0.5-0.2,0.9-0.5,1.3c-0.3,0.4-0.7,0.7-1.2,1c-0.5,0.3-1.2,0.4-2.1,0.4C133.8,43.3,133.1,43.1,132.5,42.7z"/>
		<path d="M149.4,35.9c0.6,0.8,0.9,1.8,0.9,3.1c0,0.9-0.1,1.6-0.4,2.3c-0.3,0.6-0.7,1.1-1.2,1.5c-0.5,0.3-1.2,0.5-1.9,0.5
			c-0.8,0-1.5-0.2-2-0.5c-0.5-0.4-0.9-0.9-1.2-1.5s-0.4-1.4-0.4-2.2c0-0.8,0.1-1.6,0.4-2.2c0.3-0.6,0.7-1.1,1.2-1.5
			c0.5-0.4,1.2-0.5,2-0.5C147.9,34.8,148.8,35.1,149.4,35.9z M145.6,36.1c-0.4,0.2-0.7,0.6-0.9,1.1s-0.3,1.1-0.3,1.8
			c0,0.7,0.1,1.3,0.3,1.8s0.5,0.8,0.9,1.1c0.4,0.2,0.9,0.4,1.5,0.4c0.6,0,1.1-0.1,1.5-0.3c0.4-0.2,0.7-0.6,1-1.1
			c0.2-0.5,0.3-1.1,0.3-1.8s-0.1-1.3-0.3-1.8c-0.2-0.5-0.5-0.8-1-1.1c-0.4-0.2-0.9-0.3-1.5-0.3C146.4,35.8,145.9,35.9,145.6,36.1z
			 M151.1,43h-1.3v-1.9v-0.2v-9.1h1.3V43z"/>
		<path d="M154.6,42.7c-0.6-0.4-1-0.9-1.3-1.5s-0.4-1.4-0.4-2.2c0-0.8,0.1-1.5,0.4-2.2s0.7-1.1,1.3-1.5c0.6-0.4,1.3-0.6,2.2-0.6
			c0.8,0,1.5,0.2,2,0.5s1,0.8,1.3,1.4c0.3,0.6,0.4,1.3,0.4,2.1V39c0,0.1,0,0.2,0,0.3h-6.7v-1h6l-0.6,0.6c0-0.7,0-1.3-0.2-1.8
			c-0.2-0.5-0.5-0.8-0.8-1c-0.4-0.2-0.9-0.3-1.4-0.3c-0.6,0-1.1,0.1-1.5,0.3c-0.4,0.2-0.7,0.6-0.9,1.1c-0.2,0.5-0.3,1.1-0.3,1.9
			c0,0.8,0.1,1.4,0.3,1.9c0.2,0.5,0.5,0.8,0.9,1.1s0.9,0.3,1.5,0.3c0.5,0,0.9-0.1,1.3-0.2s0.6-0.3,0.8-0.6s0.3-0.6,0.4-0.9h1.2
			c-0.1,0.5-0.2,0.9-0.5,1.3c-0.3,0.4-0.7,0.7-1.2,1c-0.5,0.3-1.2,0.4-2.1,0.4C155.9,43.3,155.2,43.1,154.6,42.7z"/>
		<path d="M162.2,31.8h1.3V43h-1.3V31.8z"/>
		<path d="M165.7,31.8h1.3V43h-1.3V31.8z"/>
		<path d="M168.7,32.4h1.6v2.3c0,0.4-0.1,0.7-0.3,0.9c-0.2,0.2-0.5,0.3-1,0.3h-0.4v-0.8h0.8v-1.4h-0.8V32.4z"/>
		<path d="M172.8,43c-0.4-0.2-0.7-0.4-0.9-0.8c-0.2-0.3-0.3-0.8-0.3-1.3c0-0.4,0.1-0.8,0.2-1.1c0.2-0.3,0.4-0.6,0.8-0.8
			s0.8-0.4,1.4-0.5l2-0.3c0.4-0.1,0.7-0.2,0.9-0.3c0.2-0.1,0.3-0.4,0.3-0.7c0-0.3-0.1-0.6-0.2-0.8c-0.1-0.2-0.3-0.4-0.6-0.5
			c-0.3-0.1-0.7-0.2-1.2-0.2c-0.7,0-1.3,0.2-1.6,0.5c-0.3,0.3-0.5,0.7-0.6,1.3h-1.3c0-0.6,0.2-1.1,0.4-1.5s0.7-0.7,1.2-1
			c0.5-0.2,1.1-0.3,1.9-0.3c0.7,0,1.3,0.1,1.8,0.3c0.5,0.2,0.8,0.5,1.1,0.9c0.2,0.4,0.3,0.8,0.3,1.3V41c0,0.3,0,0.6,0,0.9
			c0,0.3,0,0.7,0.1,1h-1.2c0-0.3-0.1-0.7-0.1-1c0-0.3,0-0.6,0-0.9c-0.1,0.4-0.3,0.7-0.5,1c-0.2,0.3-0.6,0.6-1,0.8
			c-0.4,0.2-0.9,0.3-1.5,0.3C173.7,43.2,173.2,43.1,172.8,43z M176,41.8c0.4-0.3,0.7-0.6,0.9-1.1c0.2-0.5,0.3-0.9,0.3-1.5v-0.7
			c-0.2,0.1-0.3,0.2-0.5,0.3S176.2,39,176,39l-0.2,0l-1.3,0.3c-0.6,0.1-1,0.3-1.2,0.5c-0.2,0.2-0.4,0.6-0.4,1c0,0.4,0.1,0.8,0.4,1
			c0.3,0.2,0.7,0.4,1.2,0.4C175,42.2,175.5,42.1,176,41.8z"/>
		<path d="M180.3,36.8c0.3-0.6,0.8-1.1,1.4-1.5s1.3-0.5,2.2-0.5c0.8,0,1.4,0.1,2,0.4s1,0.6,1.2,1.1s0.5,1,0.5,1.7h-1.2
			c-0.1-0.4-0.2-0.8-0.4-1.2c-0.2-0.3-0.5-0.6-0.8-0.7c-0.3-0.2-0.8-0.3-1.3-0.3c-0.6,0-1.1,0.1-1.5,0.3c-0.4,0.2-0.7,0.6-0.9,1
			c-0.2,0.5-0.3,1.1-0.3,1.8s0.1,1.4,0.3,1.8c0.2,0.5,0.5,0.8,0.9,1c0.4,0.2,0.9,0.3,1.5,0.3c0.8,0,1.4-0.2,1.8-0.6
			c0.4-0.4,0.7-1,0.8-1.7h1.2c0,0.6-0.2,1.2-0.5,1.7c-0.3,0.5-0.7,0.9-1.3,1.2c-0.6,0.3-1.2,0.4-2,0.4c-0.9,0-1.6-0.2-2.2-0.5
			c-0.6-0.4-1.1-0.9-1.4-1.5c-0.3-0.6-0.5-1.4-0.5-2.2S180,37.4,180.3,36.8z"/>
		<path d="M190.3,42.7c-0.5-0.4-0.9-0.9-1.2-1.5c-0.3-0.6-0.4-1.4-0.4-2.2c0-0.8,0.1-1.6,0.4-2.2s0.7-1.1,1.2-1.5s1.2-0.5,2-0.5
			c1.2,0,2,0.4,2.6,1.1s0.9,1.8,0.9,3.1c0,1.3-0.3,2.4-0.9,3.1s-1.5,1.1-2.6,1.1C191.5,43.3,190.9,43.1,190.3,42.7z M194.1,41.9
			c0.4-0.2,0.7-0.6,1-1.1c0.2-0.5,0.3-1.1,0.3-1.8s-0.1-1.3-0.3-1.8c-0.2-0.5-0.5-0.8-1-1.1c-0.4-0.2-0.9-0.3-1.5-0.3
			c-0.6,0-1.1,0.1-1.5,0.4c-0.4,0.2-0.7,0.6-0.9,1.1c-0.2,0.5-0.3,1.1-0.3,1.8c0,0.7,0.1,1.3,0.3,1.8c0.2,0.5,0.5,0.8,0.9,1.1
			c0.4,0.2,0.9,0.4,1.5,0.4C193.2,42.2,193.7,42.1,194.1,41.9z M195.4,46.2V35h1.3v11.2H195.4z"/>
		<path d="M200,42.9c-0.4-0.2-0.8-0.6-1-1c-0.2-0.5-0.3-1-0.3-1.8V35h1.3v5c0,0.6,0.1,1,0.2,1.4c0.2,0.3,0.4,0.6,0.7,0.7
			c0.3,0.1,0.7,0.2,1.1,0.2c0.6,0,1-0.2,1.4-0.5c0.4-0.3,0.7-0.8,0.9-1.4c0.2-0.6,0.3-1.4,0.3-2.2h0.4c0,1.1-0.1,2-0.3,2.8
			c-0.2,0.8-0.6,1.4-1.1,1.8c-0.5,0.4-1.1,0.6-1.9,0.6C201,43.3,200.5,43.1,200,42.9z M204.7,40.5v-0.2V35h1.3v8h-1.3V40.5z"/>
		<path d="M209,43c-0.4-0.2-0.7-0.4-0.9-0.8c-0.2-0.3-0.3-0.8-0.3-1.3c0-0.4,0.1-0.8,0.2-1.1c0.2-0.3,0.4-0.6,0.8-0.8
			s0.8-0.4,1.4-0.5l2-0.3c0.4-0.1,0.7-0.2,0.9-0.3c0.2-0.1,0.3-0.4,0.3-0.7c0-0.3-0.1-0.6-0.2-0.8c-0.1-0.2-0.3-0.4-0.6-0.5
			c-0.3-0.1-0.7-0.2-1.2-0.2c-0.7,0-1.3,0.2-1.6,0.5c-0.3,0.3-0.5,0.7-0.6,1.3h-1.3c0-0.6,0.2-1.1,0.4-1.5s0.7-0.7,1.2-1
			c0.5-0.2,1.1-0.3,1.9-0.3c0.7,0,1.3,0.1,1.8,0.3c0.5,0.2,0.8,0.5,1.1,0.9c0.2,0.4,0.3,0.8,0.3,1.3V41c0,0.3,0,0.6,0,0.9
			c0,0.3,0,0.7,0.1,1h-1.2c0-0.3-0.1-0.7-0.1-1c0-0.3,0-0.6,0-0.9c-0.1,0.4-0.3,0.7-0.5,1c-0.2,0.3-0.6,0.6-1,0.8
			c-0.4,0.2-0.9,0.3-1.5,0.3C209.9,43.2,209.4,43.1,209,43z M212.2,41.8c0.4-0.3,0.7-0.6,0.9-1.1c0.2-0.5,0.3-0.9,0.3-1.5v-0.7
			c-0.2,0.1-0.3,0.2-0.5,0.3s-0.4,0.1-0.7,0.2l-0.2,0l-1.3,0.3c-0.6,0.1-1,0.3-1.2,0.5c-0.2,0.2-0.4,0.6-0.4,1c0,0.4,0.1,0.8,0.4,1
			c0.3,0.2,0.7,0.4,1.2,0.4C211.2,42.2,211.8,42.1,212.2,41.8z"/>
		<path d="M221.1,41.4c0.2,0.3,0.4,0.5,0.8,0.7c0.4,0.2,0.8,0.2,1.4,0.2c0.5,0,0.8-0.1,1.1-0.2c0.3-0.1,0.5-0.3,0.6-0.5
			c0.1-0.2,0.2-0.5,0.2-0.8c0-0.4-0.1-0.7-0.4-0.9c-0.2-0.2-0.6-0.4-1.1-0.4l-1.9-0.3c-0.7-0.1-1.2-0.3-1.6-0.7
			c-0.4-0.4-0.6-0.9-0.6-1.5c0-0.7,0.3-1.3,0.8-1.8s1.3-0.6,2.4-0.6c0.7,0,1.3,0.1,1.8,0.3c0.5,0.2,0.9,0.5,1.2,0.9
			c0.3,0.4,0.4,0.8,0.5,1.3h-1.3c0-0.5-0.2-0.8-0.6-1.1c-0.4-0.3-0.9-0.4-1.6-0.4c-0.7,0-1.1,0.1-1.4,0.4c-0.3,0.2-0.5,0.6-0.5,1
			c0,0.3,0.1,0.6,0.3,0.8c0.2,0.2,0.5,0.3,1,0.4l1.7,0.2c0.9,0.1,1.5,0.4,1.9,0.8c0.4,0.4,0.6,0.9,0.6,1.6c0,0.8-0.3,1.4-0.8,1.8
			c-0.5,0.4-1.4,0.6-2.4,0.6c-0.9,0-1.6-0.1-2.1-0.4s-0.9-0.6-1.2-1s-0.4-0.9-0.4-1.5h1.2C220.9,40.7,221,41.1,221.1,41.4z"/>
		<path d="M229.1,43c-0.4-0.2-0.7-0.4-0.9-0.8c-0.2-0.3-0.3-0.8-0.3-1.3c0-0.4,0.1-0.8,0.2-1.1c0.2-0.3,0.4-0.6,0.8-0.8
			s0.8-0.4,1.4-0.5l2-0.3c0.4-0.1,0.7-0.2,0.9-0.3c0.2-0.1,0.3-0.4,0.3-0.7c0-0.3-0.1-0.6-0.2-0.8c-0.1-0.2-0.3-0.4-0.6-0.5
			c-0.3-0.1-0.7-0.2-1.2-0.2c-0.7,0-1.3,0.2-1.6,0.5c-0.3,0.3-0.5,0.7-0.6,1.3H228c0-0.6,0.2-1.1,0.4-1.5s0.7-0.7,1.2-1
			c0.5-0.2,1.1-0.3,1.9-0.3c0.7,0,1.3,0.1,1.8,0.3c0.5,0.2,0.8,0.5,1.1,0.9c0.2,0.4,0.3,0.8,0.3,1.3V41c0,0.3,0,0.6,0,0.9
			c0,0.3,0,0.7,0.1,1h-1.2c0-0.3-0.1-0.7-0.1-1c0-0.3,0-0.6,0-0.9c-0.1,0.4-0.3,0.7-0.5,1c-0.2,0.3-0.6,0.6-1,0.8
			c-0.4,0.2-0.9,0.3-1.5,0.3C230,43.2,229.5,43.1,229.1,43z M232.3,41.8c0.4-0.3,0.7-0.6,0.9-1.1c0.2-0.5,0.3-0.9,0.3-1.5v-0.7
			c-0.2,0.1-0.3,0.2-0.5,0.3s-0.4,0.1-0.7,0.2l-0.2,0l-1.3,0.3c-0.6,0.1-1,0.3-1.2,0.5c-0.2,0.2-0.4,0.6-0.4,1c0,0.4,0.1,0.8,0.4,1
			c0.3,0.2,0.7,0.4,1.2,0.4C231.3,42.2,231.8,42.1,232.3,41.8z"/>
		<path d="M236.7,31.8h1.3V43h-1.3V31.8z"/>
		<path d="M240,32.4h1.6v1.3H240V32.4z M240.2,35h1.3v8h-1.3V35z"/>
		<path d="M243.7,35h1.3v8h-1.3V35z M244.9,37.2c0.2-0.8,0.6-1.4,1.1-1.8s1.2-0.6,2-0.6c0.7,0,1.2,0.1,1.6,0.4
			c0.4,0.2,0.7,0.6,0.9,1.1c0.2,0.5,0.3,1,0.3,1.7V43h-1.3v-5c0-0.6-0.1-1-0.2-1.3c-0.1-0.3-0.4-0.6-0.6-0.7c-0.3-0.1-0.6-0.2-1-0.2
			c-0.6,0-1.1,0.2-1.5,0.5c-0.4,0.3-0.7,0.8-0.9,1.4c-0.2,0.6-0.3,1.4-0.3,2.3h-0.4C244.5,38.9,244.7,38,244.9,37.2z"/>
		<path d="M253.8,43c-0.4-0.2-0.7-0.4-0.9-0.8c-0.2-0.3-0.3-0.8-0.3-1.3c0-0.4,0.1-0.8,0.2-1.1c0.2-0.3,0.4-0.6,0.8-0.8
			s0.8-0.4,1.4-0.5l2-0.3c0.4-0.1,0.7-0.2,0.9-0.3c0.2-0.1,0.3-0.4,0.3-0.7c0-0.3-0.1-0.6-0.2-0.8c-0.1-0.2-0.3-0.4-0.6-0.5
			c-0.3-0.1-0.7-0.2-1.2-0.2c-0.7,0-1.3,0.2-1.6,0.5c-0.3,0.3-0.5,0.7-0.6,1.3h-1.3c0-0.6,0.2-1.1,0.4-1.5s0.7-0.7,1.2-1
			c0.5-0.2,1.1-0.3,1.9-0.3c0.7,0,1.3,0.1,1.8,0.3c0.5,0.2,0.8,0.5,1.1,0.9c0.2,0.4,0.3,0.8,0.3,1.3V41c0,0.3,0,0.6,0,0.9
			c0,0.3,0,0.7,0.1,1h-1.2c0-0.3-0.1-0.7-0.1-1c0-0.3,0-0.6,0-0.9c-0.1,0.4-0.3,0.7-0.5,1c-0.2,0.3-0.6,0.6-1,0.8
			c-0.4,0.2-0.9,0.3-1.5,0.3C254.6,43.2,254.2,43.1,253.8,43z M256.9,41.8c0.4-0.3,0.7-0.6,0.9-1.1c0.2-0.5,0.3-0.9,0.3-1.5v-0.7
			c-0.2,0.1-0.3,0.2-0.5,0.3s-0.4,0.1-0.7,0.2l-0.2,0l-1.3,0.3c-0.6,0.1-1,0.3-1.2,0.5c-0.2,0.2-0.4,0.6-0.4,1c0,0.4,0.1,0.8,0.4,1
			c0.3,0.2,0.7,0.4,1.2,0.4C256,42.2,256.5,42.1,256.9,41.8z"/>
	</g>
</g>
</svg>
