<?xml version="1.0" encoding="utf-8"?>
<!-- Generator: Adobe Illustrator 25.2.0, SVG Export Plug-In . SVG Version: 6.00 Build 0)  -->
<svg version="1.1" id="Livello_1" xmlns="http://www.w3.org/2000/svg" xmlns:xlink="http://www.w3.org/1999/xlink" x="0px" y="0px"
	 viewBox="0 0 141.7 101.4" style="enable-background:new 0 0 141.7 101.4;" xml:space="preserve">
<g>
	<polygon points="0,6.4 0,9.7 0,12.9 0,16.1 3.2,19.3 6.4,19.3 9.7,19.3 9.7,16.1 6.4,16.1 3.2,16.1 3.2,12.9 3.2,9.7 3.2,6.4 
		3.2,3.2 0,3.2 	"/>
	<polygon points="12.9,0 9.7,0 6.4,0 3.2,0 3.2,3.2 6.4,3.2 9.7,3.2 12.9,3.2 16.1,3.2 16.1,0 	"/>
	<polygon points="12.9,22.5 16.1,22.5 16.1,25.8 16.1,29 16.1,32.2 16.1,35.4 16.1,38.7 19.3,38.7 19.3,35.4 19.3,32.2 19.3,29 
		19.3,25.8 19.3,22.5 16.1,19.3 12.9,19.3 9.7,19.3 9.7,22.5 	"/>
	<polygon points="9.7,38.7 6.4,38.7 3.2,38.7 3.2,41.9 6.4,41.9 9.7,41.9 12.9,41.9 16.1,41.9 16.1,38.7 12.9,38.7 	"/>
	<polygon points="3.2,32.2 0,32.2 0,35.4 0,38.7 3.2,38.7 3.2,35.4 	"/>
	<polygon points="16.1,3.2 16.1,6.4 16.1,9.7 19.3,9.7 19.3,6.4 19.3,3.2 	"/>
</g>
<g>
	<polygon points="0,66 0,69.2 0,72.4 0,75.6 3.2,78.9 6.4,78.9 9.7,78.9 9.7,75.6 6.4,75.6 3.2,75.6 3.2,72.4 3.2,69.2 3.2,66 
		3.2,62.8 0,62.8 	"/>
	<polygon points="12.9,59.5 9.7,59.5 6.4,59.5 3.2,59.5 3.2,62.8 6.4,62.8 9.7,62.8 12.9,62.8 16.1,62.8 16.1,59.5 	"/>
	<polygon points="12.9,82.1 16.1,82.1 16.1,85.3 16.1,88.5 16.1,91.7 16.1,95 16.1,98.2 19.3,98.2 19.3,95 19.3,91.7 19.3,88.5 
		19.3,85.3 19.3,82.1 16.1,78.9 12.9,78.9 9.7,78.9 9.7,82.1 	"/>
	<polygon points="9.7,98.2 6.4,98.2 3.2,98.2 3.2,101.4 6.4,101.4 9.7,101.4 12.9,101.4 16.1,101.4 16.1,98.2 12.9,98.2 	"/>
	<polygon points="3.2,91.7 0,91.7 0,95 0,98.2 3.2,98.2 3.2,95 	"/>
	<polygon points="16.1,62.8 16.1,66 16.1,69.2 19.3,69.2 19.3,66 19.3,62.8 	"/>
</g>
<polygon points="80.5,0 77.3,0 74.1,0 70.9,0 67.6,0 64.4,0 61.2,0 61.2,3.2 64.4,3.2 67.6,3.2 70.9,3.2 70.9,6.4 70.9,9.7 
	70.9,12.9 70.9,16.1 70.9,19.3 70.9,22.5 70.9,25.8 70.9,29 70.9,32.2 70.9,35.4 70.9,38.7 70.9,41.9 74.1,41.9 74.1,38.7 
	74.1,35.4 74.1,32.2 74.1,29 74.1,25.8 74.1,22.5 74.1,19.3 74.1,16.1 74.1,12.9 74.1,9.7 74.1,6.4 74.1,3.2 77.3,3.2 80.5,3.2 
	83.8,3.2 83.8,0 "/>
<polygon points="106.3,0 103.1,0 99.9,0 96.6,0 93.4,0 90.2,0 87,0 87,3.2 90.2,3.2 93.4,3.2 96.6,3.2 96.6,6.4 96.6,9.7 96.6,12.9 
	96.6,16.1 96.6,19.3 96.6,22.5 96.6,25.8 96.6,29 96.6,32.2 96.6,35.4 96.6,38.7 96.6,41.9 99.9,41.9 99.9,38.7 99.9,35.4 
	99.9,32.2 99.9,29 99.9,25.8 99.9,22.5 99.9,19.3 99.9,16.1 99.9,12.9 99.9,9.7 99.9,6.4 99.9,3.2 103.1,3.2 106.3,3.2 109.5,3.2 
	109.5,0 "/>
<polygon points="74.1,98.2 70.9,98.2 67.6,98.2 64.4,98.2 61.2,98.2 61.2,95 61.2,91.7 61.2,88.5 61.2,85.3 61.2,82.1 61.2,78.9 
	61.2,75.6 61.2,74 61.2,70.8 61.2,67.6 61.2,64.4 61.2,61.1 61.2,59.5 58,59.5 58,61.1 58,64.4 58,67.6 58,70.8 58,74 58,75.6 
	58,78.9 58,82.1 58,85.3 58,88.5 58,91.7 58,95 58,98.2 58,101.4 61.2,101.4 64.4,101.4 67.6,101.4 70.9,101.4 74.1,101.4 
	77.3,101.4 77.3,98.2 "/>
<polygon points="87,70.8 87,67.6 87,64.4 87,62.8 90.2,62.8 93.4,62.8 96.6,62.8 99.9,62.8 103.1,62.8 103.1,59.5 99.9,59.5 
	96.6,59.5 93.4,59.5 90.2,59.5 87,59.5 83.8,59.5 83.8,61.1 83.8,64.4 83.8,67.6 83.8,70.8 83.8,74 83.8,75.6 83.8,78.9 83.8,82.1 
	83.8,85.3 83.8,88.5 83.8,91.7 83.8,95 83.8,98.2 83.8,101.4 87,101.4 90.2,101.4 93.4,101.4 96.6,101.4 99.9,101.4 103.1,101.4 
	103.1,98.2 99.9,98.2 96.6,98.2 93.4,98.2 90.2,98.2 87,98.2 87,95 87,91.7 87,88.5 87,85.3 87,82.1 87,78.9 90.2,78.9 93.4,78.9 
	96.6,78.9 99.9,78.9 101.5,78.9 101.5,75.6 99.9,75.6 96.6,75.6 93.4,75.6 90.2,75.6 87,75.6 87,74 "/>
<g>
	<rect x="32.2" y="35.4" width="3.2" height="3.2"/>
	<rect x="48.3" y="3.2" width="3.2" height="3.2"/>
	<polygon points="32.2,29 32.2,25.8 32.2,22.5 32.2,19.3 32.2,16.1 32.2,12.9 32.2,9.7 32.2,6.4 35.4,6.4 38.7,3.2 41.9,3.2 
		45.1,3.2 48.3,3.2 48.3,0 45.1,0 41.9,0 38.7,0 35.4,0 32.2,3.2 29,6.4 29,9.7 29,12.9 29,16.1 29,19.3 29,22.5 29,25.8 29,29 
		29,32.2 29,35.4 32.2,35.4 32.2,32.2 	"/>
	<polygon points="51.5,6.4 51.5,9.7 51.5,12.9 51.5,16.1 51.5,19.3 51.5,22.5 51.5,25.8 51.5,29 51.5,32.2 51.5,35.4 48.3,35.4 
		45.1,38.7 41.9,38.7 38.7,38.7 35.4,38.7 35.4,41.9 38.7,41.9 41.9,41.9 45.1,41.9 48.3,41.9 51.5,38.7 54.8,35.4 54.8,32.2 
		54.8,29 54.8,25.8 54.8,22.5 54.8,19.3 54.8,16.1 54.8,12.9 54.8,9.7 54.8,6.4 	"/>
</g>
<g>
	<rect x="119.2" y="48.3" width="3.2" height="3.2"/>
	<polygon points="119.2,41.9 119.2,38.7 119.2,35.4 119.2,32.2 119.2,29 119.2,25.8 119.2,22.5 119.2,19.3 119.2,16.1 119.2,12.9 
		119.2,9.7 119.2,6.4 122.4,6.4 125.6,3.2 128.8,3.2 132.1,3.2 135.3,3.2 135.3,0 132.1,0 128.8,0 125.6,0 122.4,0 119.2,3.2 
		116,6.4 116,9.7 116,12.9 116,16.1 116,19.3 116,22.5 116,25.8 116,29 116,32.2 116,35.4 116,38.7 116,41.9 116,45.1 116,48.3 
		119.2,48.3 119.2,45.1 	"/>
	<rect x="135.3" y="3.2" width="3.2" height="3.2"/>
	<polygon points="138.5,6.4 138.5,9.7 138.5,12.9 138.5,16.1 138.5,19.3 138.5,22.5 138.5,25.8 138.5,29 138.5,32.2 138.5,35.4 
		138.5,38.7 138.5,41.9 138.5,45.1 138.5,48.3 135.3,48.3 132.1,51.5 128.8,51.5 125.6,51.5 122.4,51.5 122.4,54.8 125.6,54.8 
		128.8,54.8 132.1,54.8 135.3,54.8 138.5,51.5 141.7,48.3 141.7,45.1 141.7,41.9 141.7,38.7 141.7,35.4 141.7,32.2 141.7,29 
		141.7,25.8 141.7,22.5 141.7,19.3 141.7,16.1 141.7,12.9 141.7,9.7 141.7,6.4 	"/>
</g>
<g>
	<rect x="41.9" y="62.8" width="3.2" height="3.2"/>
	<polygon points="45.1,66 45.1,67.6 45.1,70.8 45.1,74 45.1,75.6 41.9,75.6 38.7,75.6 35.4,75.6 32.2,75.6 32.2,74 32.2,70.8 
		32.2,67.6 32.2,66 35.4,66 35.4,62.8 38.7,62.8 41.9,62.8 41.9,59.5 38.7,59.5 35.4,59.5 32.2,62.8 29,66 29,67.6 29,70.8 29,74 
		29,77.3 29,80.5 29,83.7 29,86.9 29,90.1 29,93.4 29,96.6 29,99.8 29,101.4 32.2,101.4 32.2,99.8 32.2,96.6 32.2,93.4 32.2,90.1 
		32.2,86.9 32.2,83.7 32.2,80.5 32.2,78.9 35.4,78.9 38.7,78.9 41.9,78.9 45.1,78.9 45.1,80.5 45.1,83.7 45.1,86.9 45.1,90.1 
		45.1,93.4 45.1,96.6 45.1,99.8 45.1,101.4 48.3,101.4 48.3,99.8 48.3,96.6 48.3,93.4 48.3,90.1 48.3,86.9 48.3,83.7 48.3,80.5 
		48.3,77.3 48.3,74 48.3,70.8 48.3,67.6 48.3,66 	"/>
</g>
<g>
	<rect x="138.2" y="97.9" width="3.5" height="3.5"/>
	<rect x="131.3" y="97.9" width="3.5" height="3.5"/>
	<rect x="138.2" y="90.9" width="3.5" height="3.5"/>
</g>
</svg>
