<?xml version="1.0" encoding="utf-8"?>
<!-- Generator: Adobe Illustrator 25.2.0, SVG Export Plug-In . SVG Version: 6.00 Build 0)  -->
<svg version="1.1" id="Livello_1" xmlns="http://www.w3.org/2000/svg" xmlns:xlink="http://www.w3.org/1999/xlink" x="0px" y="0px"
	 viewBox="0 0 430 259" style="enable-background:new 0 0 430 259;" xml:space="preserve">
<path d="M54.6,26.5v10.7H11.8V26.5H54.6z M54.6,53.2v-16h10.7v16H54.6z M1.1,58.5V37.1h10.7v21.4H1.1z M11.8,69.2V58.5h21.4v10.7
	H11.8z M33.2,79.9V69.2h21.4v10.7H33.2z M65.3,106.7H54.6V79.9h10.7V106.7z M1.1,106.7v-16h10.7v16H1.1z M11.8,117.4v-10.7h42.8
	v10.7H11.8z M149.5,26.5v10.7h-42.8V26.5H149.5z M106.7,37.1v10.7H96V37.1H106.7z M149.5,47.8V37.1h10.7v10.7H149.5z M85.3,96V47.8
	H96V96H85.3z M160.2,96V47.8h10.7V96H160.2z M149.5,106.7V96h10.7v10.7H149.5z M96,106.7V96h10.7v10.7H96z M106.7,117.4v-10.7h42.8
	v10.7H106.7z M211.6,117.4V37.1h-32.1V26.5h74.9v10.7h-32.1v80.2H211.6z M293.1,117.4V37.1H261V26.5h74.9v10.7h-32.1v80.2H293.1z
	 M408.6,26.5v10.7h-42.8V26.5H408.6z M365.8,37.1v10.7h-10.7V37.1H365.8z M408.6,47.8V37.1h10.7v10.7H408.6z M344.4,96V47.8h10.7V96
	H344.4z M419.3,96V47.8H430V96H419.3z M408.6,106.7V96h10.7v10.7H408.6z M355.1,106.7V96h10.7v10.7H355.1z M365.8,117.4v-10.7h42.8
	v10.7H365.8z"/>
<path d="M54.6,147.6v10.7H11.8v-10.7H54.6z M54.6,174.3v-16h10.7v16H54.6z M1.1,179.7v-21.4h10.7v21.4H1.1z M11.8,190.4v-10.7h21.4
	v10.7H11.8z M33.2,201.1v-10.7h21.4v10.7H33.2z M65.3,227.8H54.6v-26.7h10.7V227.8z M1.1,227.8v-16h10.7v16H1.1z M11.8,238.5v-10.7
	h42.8v10.7H11.8z M106.7,158.3v-10.7h21.4v10.7H106.7z M128.1,169v-10.7h10.7V169H128.1z M96,169v-10.7h10.7V169H96z M85.3,238.5
	V169H96v32.1h42.8V169h10.7v69.5h-10.7v-26.7H96v26.7H85.3z M171.8,238.5v-90.9h10.7v80.2h53.5v10.7H171.8z M251.5,238.5v-90.9h64.2
	v10.7h-53.5V185h48.1v10.7h-48.1v32.1h53.5v10.7H251.5z M375.3,238.5v-16h16v16H375.3z"/>
</svg>
