<?xml version="1.0" encoding="utf-8"?>
<!-- Generator: Adobe Illustrator 25.2.0, SVG Export Plug-In . SVG Version: 6.00 Build 0)  -->
<svg version="1.1" id="Livello_1" xmlns="http://www.w3.org/2000/svg" xmlns:xlink="http://www.w3.org/1999/xlink" x="0px" y="0px"
	 viewBox="0 0 141.7 23.2" style="enable-background:new 0 0 141.7 23.2;" xml:space="preserve">
<g>
	<polygon points="5.3,1.8 7.1,1.8 8.9,1.8 8.9,1.8 8.9,3.6 8.9,5.3 10.7,5.3 10.7,3.6 10.7,1.8 10.7,1.8 8.9,0 8.9,0 7.1,0 5.3,0 
		3.6,0 1.8,0 1.8,1.8 3.6,1.8 	"/>
	<polygon points="8.9,10.7 7.1,10.7 5.3,10.7 5.3,12.5 7.1,12.5 8.9,12.5 8.9,12.5 8.9,14.3 8.9,16 8.9,17.8 8.9,19.6 8.9,21.4 
		10.7,21.4 10.7,19.6 10.7,17.8 10.7,16 10.7,14.3 10.7,12.5 10.7,12.5 8.9,10.7 	"/>
	<polygon points="3.6,8.9 1.8,8.9 1.8,7.1 1.8,5.3 1.8,3.6 1.8,1.8 0,1.8 0,3.6 0,5.3 0,7.1 0,8.9 1.8,10.7 3.6,10.7 5.3,10.7 
		5.3,8.9 	"/>
	<polygon points="5.3,21.4 3.6,21.4 1.8,21.4 1.8,23.2 3.6,23.2 5.3,23.2 7.1,23.2 8.9,23.2 8.9,21.4 7.1,21.4 	"/>
	<polygon points="1.8,17.8 0,17.8 0,19.6 0,21.4 0,21.4 1.8,23.2 1.8,21.4 1.8,21.4 1.8,19.6 	"/>
	<polygon points="42.8,0 41,0 39.2,0 37.4,0 35.7,0 33.9,0 33.9,1.8 35.7,1.8 37.4,1.8 39.2,1.8 39.2,3.6 39.2,5.3 39.2,7.1 
		39.2,8.9 39.2,10.7 39.2,12.5 39.2,14.3 39.2,16 39.2,17.8 39.2,19.6 39.2,21.4 39.2,23.2 41,23.2 41,21.4 41,19.6 41,17.8 41,16 
		41,14.3 41,12.5 41,10.7 41,8.9 41,7.1 41,5.3 41,3.6 41,1.8 42.8,1.8 44.6,1.8 46.4,1.8 46.4,0 44.6,0 	"/>
	<polygon points="57,0 55.3,0 53.5,0 51.7,0 49.9,0 48.1,0 48.1,1.8 49.9,1.8 51.7,1.8 53.5,1.8 53.5,3.6 53.5,5.3 53.5,7.1 
		53.5,8.9 53.5,10.7 53.5,12.5 53.5,14.3 53.5,16 53.5,17.8 53.5,19.6 53.5,21.4 53.5,23.2 55.3,23.2 55.3,21.4 55.3,19.6 
		55.3,17.8 55.3,16 55.3,14.3 55.3,12.5 55.3,10.7 55.3,8.9 55.3,7.1 55.3,5.3 55.3,3.6 55.3,1.8 57,1.8 58.8,1.8 60.6,1.8 60.6,0 
		58.8,0 	"/>
	<rect x="17.8" y="19.6" width="1.8" height="1.8"/>
	<rect x="26.7" y="1.8" width="1.8" height="1.8"/>
	<polygon points="17.8,16 17.8,14.3 17.8,12.5 17.8,10.7 17.8,8.9 17.8,7.1 17.8,5.3 17.8,3.6 19.6,3.6 21.4,1.8 23.2,1.8 25,1.8 
		26.7,1.8 26.7,0 25,0 23.2,0 21.4,0 19.6,0 17.8,1.8 16,3.6 16,5.3 16,7.1 16,8.9 16,10.7 16,12.5 16,14.3 16,16 16,17.8 16,19.6 
		17.8,19.6 17.8,17.8 	"/>
	<polygon points="28.5,5.3 28.5,7.1 28.5,8.9 28.5,10.7 28.5,12.5 28.5,14.3 28.5,16 28.5,17.8 28.5,19.6 26.7,19.6 25,21.4 
		23.2,21.4 21.4,21.4 19.6,21.4 19.6,23.2 21.4,23.2 23.2,23.2 25,23.2 26.7,23.2 28.5,21.4 30.3,19.6 30.3,17.8 30.3,16 30.3,14.3 
		30.3,12.5 30.3,10.7 30.3,8.9 30.3,7.1 30.3,5.3 30.3,3.6 28.5,3.6 	"/>
	<rect x="66.9" y="19.6" width="1.8" height="1.8"/>
	<rect x="75.8" y="1.8" width="1.8" height="1.8"/>
	<polygon points="66.9,16 66.9,14.3 66.9,12.5 66.9,10.7 66.9,8.9 66.9,7.1 66.9,5.3 66.9,3.6 68.6,3.6 70.4,1.8 72.2,1.8 74,1.8 
		75.8,1.8 75.8,0 74,0 72.2,0 70.4,0 68.6,0 66.9,1.8 65.1,3.6 65.1,5.3 65.1,7.1 65.1,8.9 65.1,10.7 65.1,12.5 65.1,14.3 65.1,16 
		65.1,17.8 65.1,19.6 66.9,19.6 66.9,17.8 	"/>
	<polygon points="77.6,5.3 77.6,7.1 77.6,8.9 77.6,10.7 77.6,12.5 77.6,14.3 77.6,16 77.6,17.8 77.6,19.6 75.8,19.6 74,21.4 
		72.2,21.4 70.4,21.4 68.6,21.4 68.6,23.2 70.4,23.2 72.2,23.2 74,23.2 75.8,23.2 77.6,21.4 79.3,19.6 79.3,17.8 79.3,16 79.3,14.3 
		79.3,12.5 79.3,10.7 79.3,8.9 79.3,7.1 79.3,5.3 79.3,3.6 77.6,3.6 	"/>
	<polygon points="84.7,3.6 84.7,5.3 84.7,7.1 84.7,8.9 86.5,10.7 88.2,10.7 90,10.7 90,8.9 88.2,8.9 86.5,8.9 86.5,7.1 86.5,5.3 
		86.5,3.6 86.5,1.8 84.7,1.8 	"/>
	<polygon points="93.6,0 91.8,0 90,0 88.2,0 86.5,0 86.5,1.8 88.2,1.8 90,1.8 91.8,1.8 93.6,1.8 93.6,1.8 93.6,3.6 93.6,5.3 
		95.4,5.3 95.4,3.6 95.4,1.8 95.4,1.8 93.6,0 	"/>
	<polygon points="91.8,12.5 93.6,12.5 93.6,14.3 93.6,16 93.6,17.8 93.6,19.6 93.6,21.4 95.4,21.4 95.4,19.6 95.4,17.8 95.4,16 
		95.4,14.3 95.4,12.5 93.6,10.7 91.8,10.7 90,10.7 90,12.5 	"/>
	<polygon points="90,21.4 88.2,21.4 86.5,21.4 86.5,21.4 86.5,19.6 86.5,17.8 84.7,17.8 84.7,19.6 84.7,21.4 84.7,21.4 86.5,23.2 
		86.5,23.2 88.2,23.2 90,23.2 91.8,23.2 93.6,23.2 93.6,21.4 91.8,21.4 	"/>
	<polygon points="123.9,21.4 122.1,21.4 120.3,21.4 118.6,21.4 118.6,19.6 118.6,17.8 118.6,16 118.6,14.3 118.6,12.5 118.6,10.7 
		118.6,8.9 118.6,8 118.6,6.2 118.6,4.5 118.6,2.7 118.6,0.9 118.6,0 116.8,0 116.8,0.9 116.8,2.7 116.8,4.5 116.8,6.2 116.8,8 
		116.8,8.9 116.8,10.7 116.8,12.5 116.8,14.3 116.8,16 116.8,17.8 116.8,19.6 116.8,21.4 116.8,23.2 118.6,23.2 120.3,23.2 
		122.1,23.2 123.9,23.2 125.7,23.2 127.5,23.2 127.5,21.4 125.7,21.4 	"/>
	<polygon points="132.8,6.2 132.8,4.5 132.8,2.7 132.8,1.8 134.6,1.8 136.4,1.8 138.2,1.8 139.9,1.8 141.7,1.8 141.7,0 139.9,0 
		138.2,0 136.4,0 134.6,0 132.8,0 131,0 131,0.9 131,2.7 131,4.5 131,6.2 131,8 131,8.9 131,10.7 131,12.5 131,14.3 131,16 
		131,17.8 131,19.6 131,21.4 131,23.2 132.8,23.2 134.6,23.2 136.4,23.2 138.2,23.2 139.9,23.2 141.7,23.2 141.7,21.4 139.9,21.4 
		138.2,21.4 136.4,21.4 134.6,21.4 132.8,21.4 132.8,19.6 132.8,17.8 132.8,16 132.8,14.3 132.8,12.5 132.8,10.7 134.6,10.7 
		136.4,10.7 138.2,10.7 139.9,10.7 140.8,10.7 140.8,8.9 139.9,8.9 138.2,8.9 136.4,8.9 134.6,8.9 132.8,8.9 132.8,8 	"/>
	<rect x="107.9" y="1.8" width="1.8" height="1.8"/>
	<polygon points="109.6,4.5 109.6,6.2 109.6,8 109.6,8.9 107.9,8.9 106.1,8.9 104.3,8.9 102.5,8.9 102.5,8 102.5,6.2 102.5,4.5 
		102.5,3.6 104.3,3.6 104.3,1.8 106.1,1.8 107.9,1.8 107.9,0 106.1,0 104.3,0 102.5,1.8 100.7,3.6 100.7,4.5 100.7,6.2 100.7,8 
		100.7,9.8 100.7,11.6 100.7,13.4 100.7,15.2 100.7,16.9 100.7,18.7 100.7,20.5 100.7,22.3 100.7,23.2 102.5,23.2 102.5,22.3 
		102.5,20.5 102.5,18.7 102.5,16.9 102.5,15.2 102.5,13.4 102.5,11.6 102.5,10.7 104.3,10.7 106.1,10.7 107.9,10.7 109.6,10.7 
		109.6,11.6 109.6,13.4 109.6,15.2 109.6,16.9 109.6,18.7 109.6,20.5 109.6,22.3 109.6,23.2 111.4,23.2 111.4,22.3 111.4,20.5 
		111.4,18.7 111.4,16.9 111.4,15.2 111.4,13.4 111.4,11.6 111.4,9.8 111.4,8 111.4,6.2 111.4,4.5 111.4,3.6 109.6,3.6 	"/>
</g>
</svg>
