<svg width="120" height="30" viewBox="0 0 120 30" fill="none" xmlns="http://www.w3.org/2000/svg">
<rect width="120" height="30" fill="white"/>
<path d="M21.37 16.264C21.378 16.696 21.462 17.072 21.622 17.392C21.79 17.704 22.058 17.952 22.426 18.136C22.794 18.312 23.278 18.4 23.878 18.4C24.414 18.4 24.838 18.344 25.15 18.232C25.462 18.112 25.686 17.944 25.822 17.728C25.958 17.512 26.026 17.24 26.026 16.912C26.026 16.496 25.91 16.176 25.678 15.952C25.454 15.72 25.086 15.564 24.574 15.484L22.69 15.196C22.002 15.092 21.494 14.872 21.166 14.536C20.838 14.192 20.674 13.716 20.674 13.108C20.674 12.668 20.782 12.276 20.998 11.932C21.222 11.58 21.562 11.304 22.018 11.104C22.474 10.904 23.034 10.804 23.698 10.804C24.378 10.804 24.954 10.912 25.426 11.128C25.898 11.336 26.258 11.636 26.506 12.028C26.754 12.42 26.898 12.876 26.938 13.396H25.966C25.926 13.02 25.822 12.7 25.654 12.436C25.486 12.172 25.238 11.964 24.91 11.812C24.582 11.66 24.178 11.584 23.698 11.584C23.01 11.584 22.502 11.72 22.174 11.992C21.846 12.256 21.682 12.62 21.682 13.084C21.682 13.42 21.774 13.696 21.958 13.912C22.142 14.128 22.45 14.272 22.882 14.344L24.874 14.644C25.602 14.756 26.142 14.984 26.494 15.328C26.854 15.664 27.034 16.148 27.034 16.78C27.034 17.3 26.922 17.74 26.698 18.1C26.482 18.452 26.138 18.72 25.666 18.904C25.202 19.088 24.606 19.18 23.878 19.18C23.054 19.18 22.382 19.052 21.862 18.796C21.35 18.54 20.978 18.196 20.746 17.764C20.514 17.324 20.398 16.824 20.398 16.264H21.37ZM34.4698 19L33.6898 16.96H29.7418L28.9618 19H27.9538L30.9898 11.02H32.4658L35.4898 19H34.4698ZM30.0418 16.156H33.3898L31.7218 11.74L30.0418 16.156ZM38.9254 11.428H39.9094V19.012H38.9254V11.428ZM36.0454 11.02H42.7654V11.824H36.0454V11.02ZM44.9843 18.196H49.9283V19H43.9883V11.02H49.8923V11.824H44.9843V14.5H49.5323V15.292H44.9843V18.196ZM51.576 11.02H52.572V19H51.576V11.02ZM52.308 18.196H56.748V19H52.308V18.196ZM58.0035 11.02H58.9995V19H58.0035V11.02ZM58.7355 18.196H63.1755V19H58.7355V18.196ZM65.943 11.404H66.939V18.616H65.943V11.404ZM64.251 18.196H68.631V19H64.251V18.196ZM64.251 11.02H68.631V11.824H64.251V11.02ZM72.5512 11.428H73.5352V19.012H72.5512V11.428ZM69.6712 11.02H76.3912V11.824H69.6712V11.02ZM83.4701 19L82.6901 16.96H78.7421L77.9621 19H76.9541L79.9901 11.02H81.4661L84.4901 19H83.4701ZM79.0421 16.156H82.3901L80.7221 11.74L79.0421 16.156ZM91.6217 17.728C91.6217 17.992 91.6337 18.224 91.6577 18.424C91.6897 18.616 91.7297 18.808 91.7777 19H90.8057C90.8057 18.984 90.8017 18.968 90.7937 18.952C90.7537 18.824 90.7217 18.66 90.6977 18.46C90.6737 18.252 90.6617 18.02 90.6617 17.764V17.032C90.6617 16.656 90.5937 16.352 90.4577 16.12C90.3297 15.88 90.1377 15.704 89.8817 15.592C89.6337 15.48 89.3217 15.424 88.9457 15.424H86.7017V19H85.7057V11.02H89.4257C89.9617 11.02 90.4137 11.108 90.7817 11.284C91.1497 11.452 91.4217 11.692 91.5977 12.004C91.7817 12.316 91.8737 12.688 91.8737 13.12C91.8737 13.64 91.7297 14.08 91.4417 14.44C91.1537 14.792 90.7817 15.024 90.3257 15.136C90.7497 15.256 91.0697 15.444 91.2857 15.7C91.5097 15.948 91.6217 16.344 91.6217 16.888V17.728ZM89.3057 14.68C89.8417 14.68 90.2297 14.552 90.4697 14.296C90.7097 14.04 90.8297 13.676 90.8297 13.204C90.8297 12.74 90.7057 12.396 90.4577 12.172C90.2177 11.94 89.8377 11.824 89.3177 11.824H86.7017V14.68H89.3057ZM94.5823 18.196H99.5263V19H93.5863V11.02H99.4903V11.824H94.5823V14.5H99.1303V15.292H94.5823V18.196Z" fill="black"/>
<rect x="0.75" y="0.75" width="118.5" height="28.5" stroke="black" stroke-width="1.5"/>
</svg>
