<svg width="338" height="57" viewBox="0 0 338 57" fill="none" xmlns="http://www.w3.org/2000/svg">
<path d="M1 51.076V7H337V51.076H1Z" fill="#0047CC" stroke="#0047CC" stroke-width="2"/>
<path d="M16.044 20.9471H18.202V36.5731H16.044V20.9471ZM12.378 35.6631H21.868V37.4051H12.378V35.6631ZM12.378 20.1151H21.868V21.8571H12.378V20.1151ZM37.6157 20.1151H39.7477V37.4051H36.1337L28.2817 23.8331C27.779 22.8971 27.415 22.1431 27.1897 21.5711V37.4051H25.0317V20.1151H28.6717L36.5237 33.7131C36.801 34.1984 37.165 34.9351 37.6157 35.9231V20.1151ZM46.5889 20.9471H48.7469V36.5731H46.5889V20.9471ZM42.9229 35.6631H52.4129V37.4051H42.9229V35.6631ZM42.9229 20.1151H52.4129V21.8571H42.9229V20.1151ZM54.6406 35.6631L67.7446 20.3231L69.0446 21.8571L55.9926 37.1971L54.6406 35.6631ZM54.6406 35.6631H69.1226V37.4051H54.6406V35.6631ZM54.7966 20.1151H69.0446V21.8571H54.7966V20.1151ZM74.8741 20.9471H77.0321V36.5731H74.8741V20.9471ZM71.2081 35.6631H80.6981V37.4051H71.2081V35.6631ZM71.2081 20.1151H80.6981V21.8571H71.2081V20.1151ZM96.5498 37.4051L94.8598 32.9851H86.3058L84.6158 37.4051H82.4318L89.0098 20.1151H92.2078L98.7598 37.4051H96.5498ZM86.9558 31.2431H94.2098L90.5958 21.6751L86.9558 31.2431ZM109.989 20.9471H112.147V36.5731H109.989V20.9471ZM106.323 35.6631H115.813V37.4051H106.323V35.6631ZM106.323 20.1151H115.813V21.8571H106.323V20.1151ZM118.977 20.1151H121.135V37.4051H118.977V20.1151ZM120.563 35.6631H130.183V37.4051H120.563V35.6631ZM136.923 20.1151H139.185L144.021 33.4531C144.16 33.8171 144.281 34.1551 144.385 34.4671C144.489 34.7791 144.593 35.1084 144.697 35.4551C144.784 35.7844 144.862 36.1137 144.931 36.4431C145.018 36.7724 145.096 37.0931 145.165 37.4051H143.189L136.923 20.1151ZM144.411 37.4051C144.498 36.9197 144.593 36.4431 144.697 35.9751C144.801 35.5591 144.922 35.1431 145.061 34.7271C145.2 34.3111 145.347 33.8864 145.503 33.4531L150.365 20.1151H152.549L146.309 37.4051H144.411ZM158.079 20.9471H160.237V36.5731H158.079V20.9471ZM154.413 35.6631H163.903V37.4051H154.413V35.6631ZM154.413 20.1151H163.903V21.8571H154.413V20.1151ZM179.755 37.4051L178.065 32.9851H169.511L167.821 37.4051H165.637L172.215 20.1151H175.413L181.965 37.4051H179.755ZM170.161 31.2431H177.415L173.801 21.6751L170.161 31.2431ZM191.749 37.8471C189.911 37.8471 188.36 37.4657 187.095 36.7031C185.847 35.9231 184.911 34.8484 184.287 33.4791C183.68 32.1097 183.377 30.5324 183.377 28.7471C183.377 26.9444 183.697 25.3671 184.339 24.0151C184.98 22.6457 185.959 21.5797 187.277 20.8171C188.594 20.0371 190.215 19.6471 192.139 19.6471C193.837 19.6471 195.267 19.9071 196.429 20.4271C197.607 20.9297 198.517 21.6751 199.159 22.6631C199.817 23.6337 200.225 24.8471 200.381 26.3031H198.145C198.006 25.1937 197.694 24.2837 197.209 23.5731C196.741 22.8451 196.082 22.3077 195.233 21.9611C194.401 21.6144 193.343 21.4411 192.061 21.4411C190.605 21.4411 189.4 21.7097 188.447 22.2471C187.511 22.7844 186.809 23.5904 186.341 24.6651C185.873 25.7397 185.639 27.1004 185.639 28.7471C185.639 30.3764 185.864 31.7371 186.315 32.8291C186.783 33.9037 187.485 34.7097 188.421 35.2471C189.374 35.7844 190.587 36.0531 192.061 36.0531C193.985 36.0531 195.432 35.5591 196.403 34.5711C197.373 33.5831 197.989 32.2224 198.249 30.4891H190.475V28.8771H200.355V37.3791H198.405V33.1671C198.37 33.2884 198.318 33.4357 198.249 33.6091C197.954 34.4411 197.529 35.1691 196.975 35.7931C196.42 36.4171 195.701 36.9197 194.817 37.3011C193.95 37.6651 192.927 37.8471 191.749 37.8471ZM211.452 37.8471C209.614 37.8471 208.063 37.4657 206.798 36.7031C205.55 35.9231 204.614 34.8484 203.99 33.4791C203.383 32.1097 203.08 30.5324 203.08 28.7471C203.08 26.9444 203.4 25.3671 204.042 24.0151C204.683 22.6457 205.662 21.5797 206.98 20.8171C208.297 20.0371 209.918 19.6471 211.842 19.6471C213.54 19.6471 214.97 19.9071 216.132 20.4271C217.31 20.9297 218.22 21.6751 218.862 22.6631C219.52 23.6337 219.928 24.8471 220.084 26.3031H217.848C217.709 25.1937 217.397 24.2837 216.912 23.5731C216.444 22.8451 215.785 22.3077 214.936 21.9611C214.104 21.6144 213.046 21.4411 211.764 21.4411C210.308 21.4411 209.103 21.7097 208.15 22.2471C207.214 22.7844 206.512 23.5904 206.044 24.6651C205.576 25.7397 205.342 27.1004 205.342 28.7471C205.342 30.3764 205.567 31.7371 206.018 32.8291C206.486 33.9037 207.188 34.7097 208.124 35.2471C209.077 35.7844 210.29 36.0531 211.764 36.0531C213.688 36.0531 215.135 35.5591 216.106 34.5711C217.076 33.5831 217.692 32.2224 217.952 30.4891H210.178V28.8771H220.058V37.3791H218.108V33.1671C218.073 33.2884 218.021 33.4357 217.952 33.6091C217.657 34.4411 217.232 35.1691 216.678 35.7931C216.123 36.4171 215.404 36.9197 214.52 37.3011C213.653 37.6651 212.63 37.8471 211.452 37.8471ZM226.761 20.9471H228.919V36.5731H226.761V20.9471ZM223.095 35.6631H232.585V37.4051H223.095V35.6631ZM223.095 20.1151H232.585V21.8571H223.095V20.1151ZM243.678 37.8471C241.737 37.8471 240.116 37.4657 238.816 36.7031C237.534 35.9231 236.58 34.8484 235.956 33.4791C235.35 32.1097 235.046 30.5324 235.046 28.7471C235.046 26.9791 235.35 25.4104 235.956 24.0411C236.58 22.6717 237.534 21.5971 238.816 20.8171C240.116 20.0371 241.737 19.6471 243.678 19.6471C245.62 19.6471 247.232 20.0371 248.514 20.8171C249.797 21.5971 250.742 22.6717 251.348 24.0411C251.972 25.4104 252.284 26.9791 252.284 28.7471C252.284 30.5324 251.972 32.1097 251.348 33.4791C250.742 34.8311 249.797 35.8971 248.514 36.6771C247.232 37.4571 245.62 37.8471 243.678 37.8471ZM237.308 28.7471C237.308 30.3764 237.534 31.7371 237.984 32.8291C238.435 33.9037 239.128 34.7097 240.064 35.2471C241 35.7844 242.205 36.0531 243.678 36.0531C245.134 36.0531 246.33 35.7844 247.266 35.2471C248.202 34.7097 248.896 33.9037 249.346 32.8291C249.797 31.7371 250.022 30.3764 250.022 28.7471C250.022 27.1004 249.797 25.7397 249.346 24.6651C248.896 23.5904 248.202 22.7844 247.266 22.2471C246.33 21.7097 245.134 21.4411 243.678 21.4411C242.205 21.4411 241 21.7097 240.064 22.2471C239.128 22.7844 238.435 23.5904 237.984 24.6651C237.534 25.7397 237.308 27.1004 237.308 28.7471Z" fill="white"/>
<path d="M314.629 18.467L326.136 29.974L314.629 41.518L312.853 39.705L322.658 29.974L312.853 20.243L314.629 18.467ZM324.397 28.79V31.195H301.124V28.79H324.397Z" fill="white"/>
</svg>
