<svg width="338" height="57" viewBox="0 0 338 57" fill="none" xmlns="http://www.w3.org/2000/svg">
<path d="M1 50.7342V6.65823H337V50.7342H1Z" fill="white" stroke="#0047CC" stroke-width="2"/>
<path d="M16.044 20.6053H18.202V36.2313H16.044V20.6053ZM12.378 35.3213H21.868V37.0633H12.378V35.3213ZM12.378 19.7733H21.868V21.5153H12.378V19.7733ZM37.6157 19.7733H39.7477V37.0633H36.1337L28.2817 23.4913C27.779 22.5553 27.415 21.8013 27.1897 21.2293V37.0633H25.0317V19.7733H28.6717L36.5237 33.3713C36.801 33.8566 37.165 34.5933 37.6157 35.5813V19.7733ZM46.5889 20.6053H48.7469V36.2313H46.5889V20.6053ZM42.9229 35.3213H52.4129V37.0633H42.9229V35.3213ZM42.9229 19.7733H52.4129V21.5153H42.9229V19.7733ZM54.6406 35.3213L67.7446 19.9813L69.0446 21.5153L55.9926 36.8553L54.6406 35.3213ZM54.6406 35.3213H69.1226V37.0633H54.6406V35.3213ZM54.7966 19.7733H69.0446V21.5153H54.7966V19.7733ZM74.8741 20.6053H77.0321V36.2313H74.8741V20.6053ZM71.2081 35.3213H80.6981V37.0633H71.2081V35.3213ZM71.2081 19.7733H80.6981V21.5153H71.2081V19.7733ZM96.5498 37.0633L94.8598 32.6433H86.3058L84.6158 37.0633H82.4318L89.0098 19.7733H92.2078L98.7598 37.0633H96.5498ZM86.9558 30.9013H94.2098L90.5958 21.3333L86.9558 30.9013ZM109.989 20.6053H112.147V36.2313H109.989V20.6053ZM106.323 35.3213H115.813V37.0633H106.323V35.3213ZM106.323 19.7733H115.813V21.5153H106.323V19.7733ZM118.977 19.7733H121.135V37.0633H118.977V19.7733ZM120.563 35.3213H130.183V37.0633H120.563V35.3213ZM136.923 19.7733H139.185L144.021 33.1113C144.16 33.4753 144.281 33.8133 144.385 34.1253C144.489 34.4373 144.593 34.7666 144.697 35.1133C144.784 35.4426 144.862 35.772 144.931 36.1013C145.018 36.4306 145.096 36.7513 145.165 37.0633H143.189L136.923 19.7733ZM144.411 37.0633C144.498 36.578 144.593 36.1013 144.697 35.6333C144.801 35.2173 144.922 34.8013 145.061 34.3853C145.2 33.9693 145.347 33.5446 145.503 33.1113L150.365 19.7733H152.549L146.309 37.0633H144.411ZM158.079 20.6053H160.237V36.2313H158.079V20.6053ZM154.413 35.3213H163.903V37.0633H154.413V35.3213ZM154.413 19.7733H163.903V21.5153H154.413V19.7733ZM179.755 37.0633L178.065 32.6433H169.511L167.821 37.0633H165.637L172.215 19.7733H175.413L181.965 37.0633H179.755ZM170.161 30.9013H177.415L173.801 21.3333L170.161 30.9013ZM191.749 37.5053C189.911 37.5053 188.36 37.124 187.095 36.3613C185.847 35.5813 184.911 34.5066 184.287 33.1373C183.68 31.768 183.377 30.1906 183.377 28.4053C183.377 26.6026 183.697 25.0253 184.339 23.6733C184.98 22.304 185.959 21.238 187.277 20.4753C188.594 19.6953 190.215 19.3053 192.139 19.3053C193.837 19.3053 195.267 19.5653 196.429 20.0853C197.607 20.588 198.517 21.3333 199.159 22.3213C199.817 23.292 200.225 24.5053 200.381 25.9613H198.145C198.006 24.852 197.694 23.942 197.209 23.2313C196.741 22.5033 196.082 21.966 195.233 21.6193C194.401 21.2726 193.343 21.0993 192.061 21.0993C190.605 21.0993 189.4 21.368 188.447 21.9053C187.511 22.4426 186.809 23.2486 186.341 24.3233C185.873 25.398 185.639 26.7586 185.639 28.4053C185.639 30.0346 185.864 31.3953 186.315 32.4873C186.783 33.562 187.485 34.368 188.421 34.9053C189.374 35.4426 190.587 35.7113 192.061 35.7113C193.985 35.7113 195.432 35.2173 196.403 34.2293C197.373 33.2413 197.989 31.8806 198.249 30.1473H190.475V28.5353H200.355V37.0373H198.405V32.8253C198.37 32.9466 198.318 33.094 198.249 33.2673C197.954 34.0993 197.529 34.8273 196.975 35.4513C196.42 36.0753 195.701 36.578 194.817 36.9593C193.95 37.3233 192.927 37.5053 191.749 37.5053ZM211.452 37.5053C209.614 37.5053 208.063 37.124 206.798 36.3613C205.55 35.5813 204.614 34.5066 203.99 33.1373C203.383 31.768 203.08 30.1906 203.08 28.4053C203.08 26.6026 203.4 25.0253 204.042 23.6733C204.683 22.304 205.662 21.238 206.98 20.4753C208.297 19.6953 209.918 19.3053 211.842 19.3053C213.54 19.3053 214.97 19.5653 216.132 20.0853C217.31 20.588 218.22 21.3333 218.862 22.3213C219.52 23.292 219.928 24.5053 220.084 25.9613H217.848C217.709 24.852 217.397 23.942 216.912 23.2313C216.444 22.5033 215.785 21.966 214.936 21.6193C214.104 21.2726 213.046 21.0993 211.764 21.0993C210.308 21.0993 209.103 21.368 208.15 21.9053C207.214 22.4426 206.512 23.2486 206.044 24.3233C205.576 25.398 205.342 26.7586 205.342 28.4053C205.342 30.0346 205.567 31.3953 206.018 32.4873C206.486 33.562 207.188 34.368 208.124 34.9053C209.077 35.4426 210.29 35.7113 211.764 35.7113C213.688 35.7113 215.135 35.2173 216.106 34.2293C217.076 33.2413 217.692 31.8806 217.952 30.1473H210.178V28.5353H220.058V37.0373H218.108V32.8253C218.073 32.9466 218.021 33.094 217.952 33.2673C217.657 34.0993 217.232 34.8273 216.678 35.4513C216.123 36.0753 215.404 36.578 214.52 36.9593C213.653 37.3233 212.63 37.5053 211.452 37.5053ZM226.761 20.6053H228.919V36.2313H226.761V20.6053ZM223.095 35.3213H232.585V37.0633H223.095V35.3213ZM223.095 19.7733H232.585V21.5153H223.095V19.7733ZM243.678 37.5053C241.737 37.5053 240.116 37.124 238.816 36.3613C237.534 35.5813 236.58 34.5066 235.956 33.1373C235.35 31.768 235.046 30.1906 235.046 28.4053C235.046 26.6373 235.35 25.0686 235.956 23.6993C236.58 22.33 237.534 21.2553 238.816 20.4753C240.116 19.6953 241.737 19.3053 243.678 19.3053C245.62 19.3053 247.232 19.6953 248.514 20.4753C249.797 21.2553 250.742 22.33 251.348 23.6993C251.972 25.0686 252.284 26.6373 252.284 28.4053C252.284 30.1906 251.972 31.768 251.348 33.1373C250.742 34.4893 249.797 35.5553 248.514 36.3353C247.232 37.1153 245.62 37.5053 243.678 37.5053ZM237.308 28.4053C237.308 30.0346 237.534 31.3953 237.984 32.4873C238.435 33.562 239.128 34.368 240.064 34.9053C241 35.4426 242.205 35.7113 243.678 35.7113C245.134 35.7113 246.33 35.4426 247.266 34.9053C248.202 34.368 248.896 33.562 249.346 32.4873C249.797 31.3953 250.022 30.0346 250.022 28.4053C250.022 26.7586 249.797 25.398 249.346 24.3233C248.896 23.2486 248.202 22.4426 247.266 21.9053C246.33 21.368 245.134 21.0993 243.678 21.0993C242.205 21.0993 241 21.368 240.064 21.9053C239.128 22.4426 238.435 23.2486 237.984 24.3233C237.534 25.398 237.308 26.7586 237.308 28.4053Z" fill="#0047CC"/>
<path d="M314.629 18.1252L326.136 29.6322L314.629 41.1762L312.853 39.3632L322.658 29.6322L312.853 19.9012L314.629 18.1252ZM324.397 28.4482V30.8532H301.124V28.4482H324.397Z" fill="#0047CC"/>
</svg>
